<svg width="500" height="500" viewBox="0 0 500 500" fill="none" xmlns="http://www.w3.org/2000/svg">
<path d="M39.177 319.292C45.885 299.622 64.14 286.207 84.858 279.909C90.247 278.271 96.033 277.526 100.878 274.731C112.468 268.045 115.998 253.199 116.327 240.194C118.165 167.443 190.746 157.605 204.681 158.893C259.952 164.002 252.513 206.934 284.807 230.897C305.674 246.381 338.394 221.811 361.479 233.867C381.07 244.098 381.004 273.063 398.915 285.819C411.769 294.974 421.7 282.343 443.583 301.847C471.743 326.945 479.33 396.151 440.32 435.766L77.177 437.321C63.806 435.06 12.807 396.619 39.177 319.292Z" fill="#E8E1FF"/>
<path d="M352.918 403.565C364.089 384.764 376.997 366.995 391.423 350.558C393.588 357.527 397.274 364.019 402.149 369.449C404.255 362.873 395.478 353.05 398.494 346.839C399.757 344.237 444.443 319.292 478.719 313.394C476.679 338.48 471.7 362.614 460.416 387.785C455.986 385.202 448.344 385.905 443.914 383.323C446.98 390.276 452.787 393.284 454.946 397.395C437.572 416.891 412.42 437.653 404.241 440.634C387.14 446.867 368.599 442.648 351.942 437.075C343.054 434.101 340.859 433.529 343.546 424.243C345.635 417.025 349.095 409.999 352.918 403.565Z" fill="#786CE6"/>
<path d="M364.866 439.311C390.067 398.279 422.672 362.12 460.921 332.862C461.93 332.091 460.934 330.353 459.911 331.135C421.378 360.61 388.53 396.96 363.139 438.301C362.464 439.402 364.193 440.408 364.866 439.311Z" fill="#F4F0FF"/>
<path d="M365.933 398.999C370.764 404.76 373.464 411.519 373.95 419.024C373.981 419.51 374.386 420.096 374.95 420.024C387.791 418.377 400.681 417.964 413.602 418.785C414.887 418.867 414.882 416.866 413.602 416.785C401.863 416.039 390.489 416.918 378.795 417.551C376.161 417.694 376.255 417.93 375.624 415.52C374.999 413.134 374.684 410.779 373.816 408.444C372.321 404.424 370.096 400.862 367.348 397.585C366.519 396.597 365.11 398.018 365.933 398.999Z" fill="#F4F0FF"/>
<path d="M386.429 373.842C390.389 380.637 392.866 387.909 393.814 395.717C393.878 396.245 394.22 396.729 394.814 396.717C405.345 396.502 415.835 396.968 426.306 398.115C427.584 398.255 427.574 396.254 426.306 396.115C421.077 395.542 415.84 395.105 410.584 394.872C407.958 394.755 405.329 394.684 402.7 394.658C401.087 394.642 397.511 395.336 396.197 394.353C394.357 392.977 394.065 386.292 393.244 383.849C391.948 379.992 390.202 376.345 388.155 372.832C387.508 371.721 385.779 372.726 386.429 373.842Z" fill="#F4F0FF"/>
<path d="M412.779 349.719C415.392 355.626 417.018 361.724 417.696 368.146C417.762 368.773 418.283 369.307 418.962 369.11C430.706 365.699 442.616 363.027 454.691 361.093C455.958 360.89 455.42 358.962 454.159 359.164C442.083 361.098 430.174 363.77 418.43 367.181C418.852 367.502 419.274 367.824 419.696 368.145C418.979 361.357 417.265 354.948 414.506 348.709C413.986 347.535 412.262 348.551 412.779 349.719Z" fill="#F4F0FF"/>
<path d="M317.632 273.004C318.895 259.159 320.836 245.027 327.304 232.721C333.772 220.415 345.64 210.125 359.504 209.099C373.125 208.092 388.536 216.427 395.747 228.027C402.958 239.627 402.595 253.935 401.106 267.512C399.527 281.911 394.521 295.681 389.554 309.288C374.913 349.396 361.393 378.48 336.747 413.345C311.381 449.228 282.254 444.299 296.432 426.028C324.628 377.998 312.753 326.48 317.632 273.004Z" fill="#A4ADFF"/>
<path d="M305.618 442.738C320.279 420.952 330.208 395.686 339.063 371.104C350.262 340.015 359.346 307.95 365.022 275.376C367.745 259.749 369.689 243.914 369.74 228.033C369.744 226.746 367.744 226.744 367.74 228.033C367.642 258.276 361.301 288.515 353.62 317.64C345.65 347.864 335.62 377.753 322.822 406.289C317.348 418.495 311.372 430.611 303.89 441.728C303.17 442.799 304.902 443.802 305.618 442.738Z" fill="#F4F0FF"/>
<path d="M339.754 233.934C347.124 247.161 353.991 260.828 364.381 272.012C364.684 272.339 365.217 272.382 365.593 272.168C376.025 266.258 387.511 262.569 397.368 255.548C398.408 254.808 397.41 253.072 396.359 253.821C391.308 257.418 385.764 260.265 380.203 262.98C375.876 265.092 371.023 268.233 366.376 269.503C364.656 269.973 365.942 270.139 364.64 269.352C363.558 268.698 362.115 266.439 361.331 265.459C358.515 261.937 355.996 258.182 353.621 254.352C349.294 247.374 345.477 240.094 341.482 232.925C340.855 231.801 339.127 232.808 339.754 233.934Z" fill="#F4F0FF"/>
<path d="M325.54 275.291C336.309 283.637 344.96 294.676 354.462 304.366C355.125 305.042 356.168 306.561 357.164 306.82C359.538 307.438 364.584 303.451 366.596 302.326C375.798 297.185 384.275 291.072 391.776 283.655C392.693 282.749 391.278 281.335 390.362 282.241C383.386 289.139 375.552 294.904 367.045 299.775C364.991 300.951 359.091 305.176 357.372 304.452C355.958 303.857 354.26 301.268 353.225 300.173C344.801 291.257 336.684 281.417 326.954 273.877C325.949 273.098 324.523 274.503 325.54 275.291Z" fill="#F4F0FF"/>
<path d="M98.971 426.15C85.391 420.909 56.718 408.657 64.945 399.918C68.701 397.478 73.375 396.491 77.796 397.204C80.197 394.242 75.593 390.733 71.999 389.462C62.409 386.071 25.631 374.466 35.496 364.022C38.73 360.147 51.92 361.384 51.293 360.816C40.489 351.018 34.439 344.998 25.984 331.999C20.625 323.76 16.031 307.385 25.37 304.493C31.359 304.361 36.155 309.327 39.543 314.268C42.931 319.209 48.534 328.118 54.573 333.811C54.298 329.381 52.041 305.916 64.746 311.271C72.687 314.618 76.262 338.028 82.992 346.638C83.891 347.789 85.347 349.038 86.624 348.328C87.414 347.889 87.668 346.904 88.052 346.085C90.358 341.176 98.32 342.261 101.558 346.612C104.796 350.963 104.901 356.784 105.582 362.165C106.263 367.545 108.215 373.541 113.189 375.702C113.901 372.591 114.689 369.33 116.843 366.976C118.997 364.622 122.99 363.626 125.391 365.728C126.548 366.741 127.124 368.247 127.639 369.696C136.045 393.342 153.171 423.208 162.93 445.403C161.017 443.926 109.59 430.249 98.971 426.15Z" fill="#A4ADFF"/>
<path d="M30.667 323.35C67.914 370.76 115.256 408.84 162.224 446.112C163.222 446.904 164.646 445.498 163.638 444.698C116.67 407.426 69.329 369.347 32.081 321.936C31.287 320.924 29.881 322.348 30.667 323.35Z" fill="#F4F0FF"/>
<path d="M45.799 370.639C56.269 373.077 67.165 374.307 77.921 374.337C78.517 374.339 79.125 373.688 78.885 373.071C73.961 360.404 68.465 347.044 66.469 333.545C66.281 332.276 64.354 332.816 64.54 334.077C66.536 347.576 72.032 360.935 76.956 373.603C77.277 373.181 77.599 372.759 77.92 372.337C67.336 372.307 56.631 371.109 46.33 368.71C45.078 368.419 44.544 370.346 45.799 370.639Z" fill="#F4F0FF"/>
<path d="M76.011 406.797C82.804 407.525 89.564 408.506 96.395 408.837C102.356 409.126 109.193 409.428 114.676 406.66C115.165 406.413 115.285 405.741 115.035 405.292C106.823 390.525 102.819 373.635 96.091 358.175C95.579 356.998 93.855 358.015 94.364 359.184C101.095 374.653 105.087 391.518 113.308 406.301C113.428 405.845 113.547 405.389 113.667 404.933C107.841 407.874 100.104 407.115 93.808 406.683C87.851 406.274 81.945 405.433 76.011 404.797C74.732 404.66 74.742 406.661 76.011 406.797Z" fill="#F4F0FF"/>
<path d="M186.182 399.957C175.166 392.981 164.311 387.909 153.296 380.933C138.627 371.644 47.175 319.292 54.119 242.131C55.349 228.467 63.057 212.162 76.35 208.771C115.68 198.737 115.602 248.462 117.673 259.198C122.415 283.778 135.259 306.208 151.121 325.575C166.983 344.942 185.871 361.569 204.562 378.222C208.641 381.856 213.077 386.368 212.54 391.804C212.344 393.788 211.479 395.635 210.627 397.437C205.728 407.798 193.791 404.776 186.182 399.957Z" fill="#786CE6"/>
<path d="M77.829 221.486C76.653 236.571 78.447 250.288 83.698 264.427C87.971 275.933 93.212 287.081 99.314 297.73C113.488 322.463 132.23 344.445 153.946 362.872C167.94 374.746 183.127 385.108 199.09 394.147C200.212 394.782 201.221 393.055 200.099 392.42C150.664 364.428 108.979 322.318 87.634 269.096C85.136 262.867 82.588 256.435 81.136 249.868C79.087 240.604 79.095 230.902 79.829 221.486C79.929 220.203 77.929 220.209 77.829 221.486Z" fill="#F4F0FF"/>
<path d="M59.85 240.674C66.768 247.551 73.861 253.88 82.223 258.964C82.791 259.309 83.505 258.971 83.692 258.366C86.665 248.774 91.36 239.277 97.856 231.575C98.681 230.597 97.273 229.175 96.442 230.161C89.71 238.143 84.848 247.884 81.764 257.835C82.254 257.636 82.743 257.437 83.233 257.237C75.023 252.245 68.051 246.006 61.265 239.26C60.35 238.352 58.936 239.765 59.85 240.674Z" fill="#F4F0FF"/>
<path d="M64.749 275.832C70.953 278.847 77.073 282.034 83.259 285.084C86.166 286.517 89.074 287.964 92.044 289.263C93.163 289.753 94.74 290.766 96.012 290.615C96.444 290.564 96.866 290.341 96.976 289.881C99.465 279.535 102.113 269.095 105.863 259.127C106.317 257.921 104.384 257.4 103.935 258.595C101.422 265.275 99.506 272.18 97.669 279.07C96.959 281.733 96.271 284.402 95.606 287.077C95.449 287.71 95.299 288.345 95.138 288.977C95.099 289.131 96.202 289.105 95.277 288.439C93.738 287.332 91.27 286.734 89.533 285.911C86.728 284.582 83.947 283.202 81.17 281.817C76.029 279.254 70.926 276.613 65.759 274.103C64.606 273.545 63.59 275.269 64.749 275.832Z" fill="#F4F0FF"/>
<path d="M78.774 308.248C89.871 313.043 101.318 317.427 113.089 320.257C113.611 320.382 114.176 320.095 114.319 319.558C116.971 309.649 118.101 299.477 118.765 289.263C118.849 287.978 116.848 287.983 116.765 289.263C116.112 299.3 114.996 309.29 112.39 319.026C112.8 318.793 113.21 318.56 113.62 318.327C102.022 315.539 90.716 311.245 79.782 306.52C78.614 306.016 77.595 307.738 78.774 308.248Z" fill="#F4F0FF"/>
<path d="M73.621 353.833C71.746 343.315 71.283 331.625 77.373 322.846C82.434 315.55 91.24 311.618 100.012 310.235C106.705 309.18 187.375 302.628 190.328 305.565C193.063 308.284 201.53 313.29 204.921 327.383C208.991 344.296 221.318 416.438 217.844 431.545C208.217 433.941 116.194 434.408 101.877 434.535C101.291 429.178 76.677 370.973 73.621 353.833Z" fill="#363C89"/>
<path d="M230.279 282.664C252.614 287.748 261.395 334.513 264.794 345.875C268.509 358.294 273.826 370.234 280.571 381.304C283.965 386.874 287.805 393.822 284.497 399.443C282.409 402.992 278.029 404.576 273.916 404.767C265.726 405.147 257.823 401.028 251.978 395.28C246.133 389.531 242.053 382.259 238.279 374.981C227.105 353.432 220.549 337.125 215.447 313.394C215.166 312.094 213.051 278.743 230.279 282.664Z" fill="#A4ADFF"/>
<path d="M278.86 409.645C281.715 412.555 293.888 414.04 294.89 413.344C293.833 407.003 287.6 410.604 286.83 405.715C288.725 404.39 290.974 404.791 292.832 404.791C294.452 404.79 295.966 406.229 296.652 407.971C297.689 410.605 297.304 411.424 297.709 414.225C298.108 416.988 300.913 419.008 300.915 417.246C300.918 414.011 300.923 409.015 300.926 405.78C301.724 408.657 302.289 417.748 306.165 416.89C307.11 412.539 305.098 408.707 305.079 404.255C306.179 408.033 306.165 416.89 310.04 415.634C310.198 411.574 308.694 407.471 308.852 403.411C309.722 406.993 311.097 414.753 313.24 413.502C313.887 409.595 312.821 405.461 311.978 401.591C311.465 399.238 311.592 396.959 309.882 395.263C308.831 394.221 293.993 391.344 287.838 391.706C283.955 391.934 279.018 391.339 276.573 393.282C267.058 400.838 275.662 406.385 278.86 409.645Z" fill="#FFBB8E"/>
<path d="M128.955 328.087C134.036 352.796 150.809 355.956 153.933 380.988C156.018 397.692 149.033 418.386 144.281 434.535C182.882 435.892 221.964 435.188 250.491 433.955C249.447 410.564 240.104 379.497 242.269 356.183C243.51 342.815 246.463 330.409 244.569 317.119C242.675 303.828 236.937 284.579 230.279 282.665C217.337 278.945 206.462 275.595 191.552 273.974C185.04 273.266 165.926 271.275 149.43 273.598C139.068 275.058 130.29 276.997 126.571 278.506C101.966 288.487 124.559 306.711 128.955 328.087Z" fill="#786CE6"/>
<path d="M192.78 301.312C195.219 301.132 205.679 282.437 204.882 280.125C202.075 273.698 196.88 280.184 195.202 275.42C193.862 271.613 200.471 254.282 196.758 249.839C194.541 247.186 172.396 238.976 168.466 246.467C166.613 249.998 159.663 265.837 159.663 269.957C159.663 272.356 185.951 301.816 192.78 301.312Z" fill="#EAA27A"/>
<path d="M212.627 393.283C214.047 394.95 216.598 400.642 218.184 405.452C218.709 407.045 219.462 412.112 219.462 412.112C215.446 414.05 214.014 404.29 212.627 401.543C212.22 404.561 212.803 415.811 211.745 415.715C207.871 414.754 208.29 406.3 208.576 402.248C208.225 404.939 207.479 407.374 206.687 409.97C205.88 412.617 204.926 415.107 203.663 416.398C201.178 415.987 202.843 408.207 203.292 404.734C201.873 410.706 198.226 416.891 198.226 416.891C195.718 416.891 195.94 413.28 196.743 411.231C197.549 409.172 199.535 406.666 198.36 404.791C198.606 406.592 194.948 409.186 193.198 409.674C191.447 410.161 186.545 408.462 184.797 407.965C176.449 405.589 157.115 406.436 159.698 397.139C161.467 390.77 169.599 385.502 175.461 386.394C180.611 387.177 187.798 393.284 193.605 393.284C203.996 393.283 208.466 391.693 212.627 393.283Z" fill="#FFBB8E"/>
<path d="M185.5 388.453C175.034 382.528 131.449 363.398 131.069 362.437C129.613 358.754 150.341 323.994 151.645 313.739C152.949 303.483 152.752 294.504 145.415 287.221C135.656 277.533 126.571 278.506 126.571 278.506C119.795 280.88 118.004 283.114 114.538 286.474C109.628 291.233 106.795 297.683 104.081 303.958C96.069 322.479 88.02 341.112 83.283 360.728C81.988 366.092 80.968 371.865 82.944 377.017C84.272 380.482 86.853 383.333 89.711 385.699C101.253 395.253 116.977 397.55 131.835 399.483C147.242 401.488 163.225 405.96 178.632 407.965C181.801 408.377 188.819 390.332 185.5 388.453Z" fill="#A4ADFF"/>
<path d="M149.363 274.723C149.351 278.818 152.606 282.709 154.315 286.43C157.206 292.725 160.098 299.02 162.99 305.314C166.692 300.471 170.393 295.627 174.095 290.784C179.337 296.575 185.916 301.149 193.17 304.047C196.612 299.597 200.053 295.147 203.495 290.696C204.897 294.887 206.756 298.926 209.028 302.717C211.035 292.89 212.761 281.685 206.742 273.662C203.888 269.857 199.452 267.279 194.733 266.683C192.928 272.68 196.998 278.878 196.953 285.141C196.917 290.23 194.186 294.86 191.54 299.207C188.092 297.027 184.77 294.646 181.598 292.08C180.013 290.798 178.414 289.403 177.599 287.534C176.901 285.935 176.823 284.082 175.899 282.603C174.947 281.081 173.265 280.208 171.894 279.049C166.256 274.285 162.663 265.023 162.663 259.789C158.294 259.791 149.385 266.87 149.363 274.723Z" fill="#A4ADFF"/>
<path d="M193.161 308.764C198.709 334.788 203.889 361.239 202.335 387.979C202.26 389.265 204.261 389.261 204.335 387.979C205.899 361.069 200.672 334.419 195.09 308.232C194.822 306.974 192.893 307.506 193.161 308.764Z" fill="#A4ADFF"/>
<path d="M203.664 232.288C202.998 236.423 203.217 240.923 205.516 244.424C207.815 247.925 212.638 249.971 216.399 248.128C221.235 245.76 221.702 239.119 221.112 233.767C220.74 230.389 220.155 226.871 218.109 224.157C211.281 215.103 204.763 225.456 203.664 232.288Z" fill="#786CE6"/>
<path d="M171.256 250.249C175.43 258.771 183.555 265.564 192.946 266.922C196.667 267.46 200.688 267.093 203.79 264.968C205.865 263.546 207.376 261.453 208.719 259.326C214.706 249.845 218.177 238.791 218.687 227.59C219.089 218.75 217.038 208.8 209.697 203.859C204.119 200.105 196.9 200.172 190.179 200.375C186.718 200.48 183.125 200.617 180.043 202.197C176.839 203.84 174.586 206.839 172.463 209.75C164.764 220.311 165.531 238.562 171.256 250.249Z" fill="#FFBB8E"/>
<path d="M192.037 253.859C194.915 256.562 199.044 257.42 202.725 255.922C203.901 255.443 203.387 253.508 202.193 253.993C199.162 255.227 195.858 254.705 193.451 252.444C192.514 251.564 191.097 252.975 192.037 253.859Z" fill="#E28E60"/>
<path d="M187.595 214.329C188.162 215.424 188.181 216.713 188.518 217.898C189.245 220.449 191.599 222.455 194.233 222.767C196.867 223.079 199.625 221.678 200.927 219.367C201.384 218.556 201.695 217.621 202.407 217.021C204.006 215.67 206.511 216.817 207.898 218.385C209.284 219.954 210.171 222.41 212.216 222.861C218.11 224.159 219.462 220.038 220.378 216.232C221.268 218.908 227.46 217.918 229.345 215.82C231.23 213.721 230.931 210.291 229.308 207.985C227.684 205.678 225.049 204.303 222.405 203.32C221.435 202.959 220.42 202.622 219.656 201.925C216.908 199.418 219.24 194.814 218.409 191.188C217.479 187.135 212.061 185.166 208.412 187.162C205.689 188.652 203.95 191.73 200.999 192.695C200.912 192.015 191.423 188.328 191.313 190.867C191.313 190.867 187.262 188.049 180.886 189.654C177.785 190.435 174.912 193.262 174.89 196.46C171.997 195.851 171.42 195.906 168.586 196.747C165.752 197.588 163.184 199.921 162.885 202.862C162.778 203.917 162.958 205 162.712 206.032C162.079 208.697 158.797 209.63 158.006 211.987C156.854 215.418 158.363 218.55 158.843 222.181C159.629 228.124 158.399 233.307 166.013 232.838C171.06 232.527 175.076 235.008 176.78 230.87C177.589 228.904 182.296 204.107 187.595 214.329Z" fill="#241F3F"/>
<path d="M155.787 229.442C155.121 233.577 155.669 239.071 157.967 242.573C160.266 246.074 165.089 248.12 168.85 246.277C173.686 243.909 174.153 237.268 173.563 231.916C173.191 228.538 172.607 225.02 170.561 222.307C163.733 213.252 156.886 222.61 155.787 229.442Z" fill="#786CE6"/>
<path d="M166.889 222.331C167.032 213.81 168.986 204.141 176.295 198.81C181.443 195.055 191.488 191.394 200.998 192.694C200.998 192.694 198.394 190.284 195.711 189.847C187.934 188.581 180.017 190.821 173.708 195.463C165.35 201.612 162.826 212.479 162.661 222.332C162.616 225.052 166.844 225.053 166.889 222.331Z" fill="#786CE6"/>
<path d="M164.63 239.044C166.311 249.58 175.258 258.879 186.038 259.862C187.319 259.979 187.311 257.978 186.038 257.862C176.102 256.957 168.089 248.104 166.559 238.513C166.357 237.245 164.429 237.783 164.63 239.044Z" fill="#786CE6"/>
<path d="M194.113 258.1C194.113 260.696 192.008 262.801 189.412 262.801C186.815 262.801 184.711 260.696 184.711 258.1C184.711 255.504 186.816 253.399 189.412 253.399C192.008 253.399 194.113 255.504 194.113 258.1Z" fill="#786CE6"/>
<path d="M203.933 242.642C204.178 244.569 205.103 246.419 206.538 247.852C206.971 248.284 207.484 248.764 207.426 249.346C207.326 250.344 205.807 250.525 204.727 250.342C202.531 249.97 200.401 249.276 198.444 248.294C198.271 248.207 198.097 248.117 197.963 247.986C197.739 247.769 197.647 247.465 197.598 247.17C197.308 245.439 198.211 243.755 198.774 242.08C199.408 240.193 199.212 230.856 202.432 231.551C206.054 232.331 203.66 240.496 203.933 242.642Z" fill="#E28E60"/>
<path d="M157.707 236.088C157.743 238.222 157.971 240.595 159.562 242.018C161.383 243.648 164.675 243.087 165.854 240.948C166.422 239.917 166.517 238.7 166.59 237.525C166.779 234.463 166.89 231.355 166.227 228.359C165.673 225.859 164.162 223.152 161.623 222.828C157.586 222.314 157.666 233.705 157.707 236.088Z" fill="#737AFF"/>
<path d="M195.276 233.898C195.276 235.572 194.448 236.928 193.426 236.928C192.404 236.928 191.576 235.571 191.576 233.898C191.576 232.224 192.404 230.867 193.426 230.867C194.448 230.867 195.276 232.225 195.276 233.898Z" fill="#241F3F"/>
<path d="M210.898 237.747C211.92 237.747 212.748 236.39 212.748 234.717C212.748 233.044 211.92 231.687 210.898 231.687C209.876 231.687 209.048 233.044 209.048 234.717C209.048 236.39 209.876 237.747 210.898 237.747Z" fill="#241F3F"/>
<path d="M188.509 227.79C190.04 226.226 192.177 225.777 194.225 226.514C195.438 226.951 195.961 225.019 194.757 224.585C192.068 223.617 189.086 224.342 187.096 226.376C186.194 227.297 187.607 228.712 188.509 227.79Z" fill="#241F3F"/>
<path d="M209.815 227.286C211.351 227.436 212.744 228.005 214.001 228.891C215.055 229.634 216.056 227.901 215.01 227.164C213.455 226.068 211.701 225.47 209.815 225.286C208.534 225.161 208.543 227.162 209.815 227.286Z" fill="#241F3F"/>
<path d="M454.709 444.347H57.029C52.242 444.347 48.362 440.467 48.362 435.68V434.694C48.362 429.908 52.242 426.027 57.029 426.027H454.709C459.495 426.027 463.376 429.907 463.376 434.694V435.68C463.375 440.467 459.495 444.347 454.709 444.347Z" fill="#A4ADFF"/>
<path d="M442.544 444.347H69.194V445.041C69.194 451.772 74.651 457.229 81.382 457.229H430.356C437.087 457.229 442.544 451.772 442.544 445.041V444.347Z" fill="#786CE6"/>
<path d="M383.88 387.979H243.793C238.342 387.979 234.094 383.253 234.672 377.833L243.283 297.181C243.781 292.519 247.715 288.982 252.404 288.982H392.491C397.942 288.982 402.19 293.708 401.612 299.128L393.001 379.78C392.503 384.443 388.569 387.979 383.88 387.979Z" fill="#786CE6"/>
<path d="M389.165 387.979H249.078C243.627 387.979 239.379 383.253 239.957 377.833L248.567 297.181C249.065 292.519 252.999 288.982 257.688 288.982H397.775C403.226 288.982 407.474 293.708 406.896 299.128L398.285 379.78C397.788 384.443 393.854 387.979 389.165 387.979Z" fill="#363C89"/>
<path d="M325.58 346.839H316.34C312.86 346.839 310.038 349.66 310.038 353.141V420.391H331.881V353.141C331.882 349.66 329.06 346.839 325.58 346.839Z" fill="#786CE6"/>
<path d="M355.134 420.391H284.673V426.028H355.134V420.391Z" fill="#363C89"/>
<path d="M293.833 420.391H210.898V426.028H293.833V420.391Z" fill="#786CE6"/>
<path d="M177.181 413.345H169.339C164.013 413.345 159.696 417.662 159.696 422.988C159.696 424.667 161.057 426.028 162.736 426.028H183.785C185.464 426.028 186.825 424.667 186.825 422.988C186.824 417.662 182.507 413.345 177.181 413.345Z" fill="#786CE6"/>
<path d="M310.994 111.821C310.166 106.308 306.738 101.51 305.456 96.085C302.937 85.422 309.046 74.385 307.719 63.509C305.893 48.536 288.758 38.261 274.058 41.648C267.948 43.056 264.125 44.366 258.278 43.103C241.073 39.389 228.433 47.532 224.996 56.867C216.723 79.335 229.263 82.916 232.496 101.737C233.86 109.676 221.499 122.682 237.187 141.207C242.477 147.454 250.673 151.112 258.841 152.543C257.092 156.482 254.633 161.007 251.822 163.229C251.822 163.229 263.014 160.121 269.851 153.486C289.462 153.776 316.285 147.049 310.994 111.821Z" fill="#786CE6"/>
<path d="M283.325 116.193L278.043 109.631C276.544 107.769 273.819 107.474 271.956 108.973L270.365 110.254C269.432 111.005 268.067 110.858 267.316 109.924L260.764 101.784L259.983 100.814L253.431 92.674C252.68 91.741 252.827 90.376 253.761 89.625L255.352 88.344C257.215 86.845 257.509 84.12 256.01 82.257L250.728 75.695C249.229 73.832 246.504 73.538 244.641 75.037L242.906 76.434C238.378 80.079 237.662 86.704 241.306 91.233L245.417 96.341L253.329 106.171L254.11 107.142L262.022 116.972L266.133 122.08C269.778 126.608 276.403 127.324 280.932 123.68L282.667 122.283C284.53 120.78 284.824 118.055 283.325 116.193Z" fill="#786CE6"/>
<path d="M277.192 101.229C277.134 101.229 277.075 101.224 277.016 101.213C276.472 101.117 276.11 100.597 276.206 100.054C276.941 95.914 276.317 92.581 274.35 90.148C270.992 85.994 264.743 85.729 264.681 85.727C264.129 85.708 263.697 85.246 263.715 84.694C263.734 84.142 264.246 83.702 264.746 83.728C265.038 83.737 271.95 84.014 275.894 88.878C278.251 91.783 279.017 95.661 278.174 100.403C278.09 100.889 277.668 101.229 277.192 101.229Z" fill="white"/>
<path d="M283.482 100.897C283.451 100.897 283.419 100.896 283.387 100.893C282.837 100.841 282.433 100.353 282.486 99.804C284.17 81.946 267 79.734 266.267 79.649C265.719 79.585 265.326 79.089 265.389 78.541C265.454 77.993 265.957 77.603 266.496 77.662C266.695 77.685 286.347 80.165 284.476 99.992C284.428 100.509 283.992 100.897 283.482 100.897Z" fill="white"/>
<path d="M289.71 99.827C289.16 99.827 288.714 99.384 288.71 98.833C288.576 78.417 269.363 73.955 268.546 73.775C268.007 73.656 267.665 73.123 267.783 72.584C267.901 72.045 268.438 71.705 268.972 71.821C269.188 71.868 290.565 76.784 290.709 98.821C290.713 99.373 290.268 99.824 289.716 99.827C289.714 99.827 289.712 99.827 289.71 99.827Z" fill="white"/>
<path d="M466.259 115.061C460.613 109.053 451.937 107.278 444.5 103.718C433.625 98.512 425.238 89.328 417.521 80.065C409.116 69.976 398.529 57.156 384.272 56.957C369.38 56.749 354.331 65.935 344.92 76.88C334.284 89.25 328.585 105.28 326.388 121.445C324.764 133.398 325.044 146.043 330.325 156.888C331.667 159.645 333.393 162.252 335.415 164.602C333.081 168.77 329.605 173.823 325.514 176.105C325.514 176.105 336.45 175.799 343.458 171.502C348.092 174.36 353.366 175.991 358.828 175.729C367.876 175.295 376.863 169.976 385.534 172.597C389.865 173.906 393.359 177.027 397.002 179.71C410.787 189.86 429.781 194.272 445.411 187.29C463.736 179.104 472.9 157.556 473.043 137.486C473.1 129.481 471.743 120.896 466.259 115.061Z" fill="#786CE6"/>
<path d="M432.569 106.264H357.183V161.047H432.569V106.264Z" fill="white"/>
<path d="M363.465 112.047C362.637 112.047 361.965 111.376 361.965 110.547V103.27C361.965 102.441 362.637 101.77 363.465 101.77C364.293 101.77 364.965 102.441 364.965 103.27V110.547C364.965 111.376 364.293 112.047 363.465 112.047Z" fill="#786CE6"/>
<path d="M372.439 112.047C371.611 112.047 370.939 111.376 370.939 110.547V103.27C370.939 102.441 371.611 101.77 372.439 101.77C373.267 101.77 373.939 102.441 373.939 103.27V110.547C373.939 111.376 373.268 112.047 372.439 112.047Z" fill="#786CE6"/>
<path d="M381.414 112.047C380.586 112.047 379.914 111.376 379.914 110.547V103.27C379.914 102.441 380.586 101.77 381.414 101.77C382.242 101.77 382.914 102.441 382.914 103.27V110.547C382.914 111.376 382.242 112.047 381.414 112.047Z" fill="#786CE6"/>
<path d="M390.389 112.047C389.561 112.047 388.889 111.376 388.889 110.547V103.27C388.889 102.441 389.561 101.77 390.389 101.77C391.217 101.77 391.889 102.441 391.889 103.27V110.547C391.889 111.376 391.217 112.047 390.389 112.047Z" fill="#786CE6"/>
<path d="M399.363 112.047C398.535 112.047 397.863 111.376 397.863 110.547V103.27C397.863 102.441 398.535 101.77 399.363 101.77C400.191 101.77 400.863 102.441 400.863 103.27V110.547C400.863 111.376 400.191 112.047 399.363 112.047Z" fill="#786CE6"/>
<path d="M408.337 112.047C407.509 112.047 406.837 111.376 406.837 110.547V103.27C406.837 102.441 407.509 101.77 408.337 101.77C409.165 101.77 409.837 102.441 409.837 103.27V110.547C409.837 111.376 409.165 112.047 408.337 112.047Z" fill="#786CE6"/>
<path d="M417.311 112.047C416.483 112.047 415.811 111.376 415.811 110.547V103.27C415.811 102.441 416.483 101.77 417.311 101.77C418.139 101.77 418.811 102.441 418.811 103.27V110.547C418.811 111.376 418.14 112.047 417.311 112.047Z" fill="#786CE6"/>
<path d="M426.286 112.047C425.458 112.047 424.786 111.376 424.786 110.547V103.27C424.786 102.441 425.458 101.77 426.286 101.77C427.114 101.77 427.786 102.441 427.786 103.27V110.547C427.786 111.376 427.114 112.047 426.286 112.047Z" fill="#786CE6"/>
<path d="M386.316 118.785H378.658V126.443H386.316V118.785Z" fill="#786CE6"/>
<path d="M398.322 118.785H390.664V126.443H398.322V118.785Z" fill="#786CE6"/>
<path d="M410.328 118.785H402.67V126.443H410.328V118.785Z" fill="#786CE6"/>
<path d="M422.335 118.785H414.677V126.443H422.335V118.785Z" fill="#786CE6"/>
<path d="M374.31 129.826H366.652V137.484H374.31V129.826Z" fill="#786CE6"/>
<path d="M386.316 129.826H378.658V137.484H386.316V129.826Z" fill="#786CE6"/>
<path d="M398.322 129.826H390.664V137.484H398.322V129.826Z" fill="#786CE6"/>
<path d="M410.328 129.826H402.67V137.484H410.328V129.826Z" fill="#786CE6"/>
<path d="M422.335 129.826H414.677V137.484H422.335V129.826Z" fill="#786CE6"/>
<path d="M374.31 140.868H366.652V148.526H374.31V140.868Z" fill="#786CE6"/>
<path d="M386.316 140.868H378.658V148.526H386.316V140.868Z" fill="#786CE6"/>
<path d="M398.322 140.868H390.664V148.526H398.322V140.868Z" fill="#786CE6"/>
<path d="M410.328 140.868H402.67V148.526H410.328V140.868Z" fill="#786CE6"/>
<path d="M84.542 101.439C64.459 116.061 39.869 101.336 26.661 129.686C21.212 141.381 23.372 152.768 28.852 165.272C35.221 179.804 44.266 185.527 57.344 186.186C64.899 186.566 71.243 183.286 78.585 178.783C83.925 182.044 91.139 185.495 97.817 185.529C97.817 185.529 91.977 181.3 90.114 171.713C92.894 170.099 95.874 168.481 99.133 166.933C119.541 157.241 126.825 165.98 139.139 151.069C159.275 126.686 126.391 70.97 84.542 101.439Z" fill="#786CE6"/>
<path d="M106.421 115.117L114.256 142.961C114.597 144.175 114.337 145.402 113.665 146.366C113.15 147.088 112.394 147.653 111.48 147.91L61.128 162.078C60.215 162.335 59.278 162.26 58.459 161.9C57.386 161.441 56.521 160.516 56.179 159.303L48.344 131.459C48.003 130.246 48.259 129.005 48.935 128.054C49.45 127.332 50.21 126.78 51.123 126.523L101.475 112.355C102.388 112.098 103.328 112.186 104.141 112.52C105.217 112.991 106.08 113.903 106.421 115.117Z" fill="white"/>
<path d="M89.788 134.821L113.665 146.366C113.15 147.088 112.394 147.653 111.48 147.91L108.962 148.619L87.564 138.278L84.39 143.212C84.103 143.645 83.694 143.943 83.225 144.075C82.768 144.204 82.251 144.166 81.794 143.943L76.5 141.391L63.647 161.37L58.46 161.9L72.813 139.598L48.936 128.053C49.451 127.331 50.211 126.779 51.124 126.522L53.642 125.814L81.936 139.495L98.957 113.063L101.475 112.354C102.388 112.097 103.328 112.185 104.141 112.519L89.788 134.821Z" fill="#A4ADFF"/>
<path d="M208.48 95.969C206.374 92.461 202.852 89.562 202.317 85.506C202.058 83.543 202.07 81.433 202.85 79.613C207.705 68.294 204.24 55.505 194.115 47.927C186.065 41.903 175.232 40.484 166.348 44.567C152.897 50.749 145.186 62.658 151.862 81.756C153.73 87.1 156.222 92.428 156.237 98.09C156.248 102.459 153.149 113.181 162.401 122.979C167.976 128.883 175.013 131.325 182.336 130.897C183.232 133.593 184.126 138.284 183.128 145.179C183.128 145.179 192.045 137.713 192.744 128.499C214.505 121 211.725 101.373 208.48 95.969Z" fill="#A4ADFF"/>
<path d="M176.334 103.229C174.362 103.229 172.763 104.828 172.763 106.799C172.763 108.771 174.362 110.37 176.334 110.37C178.306 110.37 179.904 108.771 179.904 106.799C179.905 104.827 178.306 103.229 176.334 103.229Z" fill="white"/>
<path d="M185.953 70.817C183.53 68.391 180.269 67.179 176.169 67.179C172.272 67.179 169.125 68.377 166.728 70.774C165.588 71.914 164.697 73.172 164.057 74.546C162.97 76.88 164.359 79.729 166.672 80.054C168.125 80.258 169.535 79.374 170.138 77.864C170.596 76.717 171.191 75.792 171.925 75.089C173.145 73.919 174.661 73.335 176.474 73.335C178.354 73.335 179.85 73.896 180.959 75.017C182.069 76.139 182.624 77.486 182.624 79.058C182.624 80.189 182.31 81.225 181.684 82.164C181.277 82.758 180.032 84.014 177.948 85.932C175.864 87.849 174.475 89.575 173.78 91.109C173.477 91.778 173.245 93.346 173.08 94.901C172.853 97.032 174.338 98.903 176.235 98.903C177.798 98.903 179.149 97.607 179.368 95.855C179.451 95.189 179.575 94.662 179.739 94.272C180.103 93.409 181.039 92.268 182.547 90.849C185.461 88.107 187.363 85.94 188.252 84.349C189.141 82.757 189.586 81.07 189.586 79.287C189.587 76.066 188.376 73.243 185.953 70.817Z" fill="white"/>
</svg>
