<svg width="452" height="464" viewBox="0 0 452 464" fill="none" xmlns="http://www.w3.org/2000/svg">
<path d="M385.038 240.775C296.628 189.732 153.756 189.732 65.921 240.776C-21.919 291.824 -21.454 374.581 66.956 425.625C155.371 476.672 298.244 476.671 386.084 425.623C473.919 374.579 473.454 291.822 385.038 240.775Z" fill="#F5F5F5"/>
<path d="M91.602 411.283C98.461 407.323 109.544 407.323 116.358 411.283C123.172 415.243 123.136 421.663 116.278 425.623C109.419 429.583 98.335 429.583 91.521 425.623C84.707 421.663 84.743 415.243 91.602 411.283Z" fill="#E0E0E0"/>
<path d="M134.566 341.044L214.045 295.137L277.484 331.673C280.254 328.342 284.018 325.219 288.797 322.459C311.425 309.395 347.991 309.395 370.472 322.459C392.954 335.524 392.835 356.705 370.207 369.769C365.557 372.454 360.311 374.578 354.727 376.159L361.104 379.832C363.029 380.941 363.031 383.718 361.107 384.829L287.39 427.408C283.824 429.468 279.431 429.47 275.862 427.415L134.569 346.04C132.644 344.932 132.642 342.155 134.566 341.044Z" fill="#E0E0E0"/>
<path d="M273.118 214.878L27.569 357.868L16.121 351.259L261.671 208.268L273.118 214.878Z" fill="#E0E0E0"/>
<path d="M87.334 388.497L103.94 388.981L120.546 388.497C121.261 399.711 119.072 411.14 116.053 416.722L116.041 416.72C115.5 417.945 114.414 419.107 112.754 420.065C107.854 422.894 99.936 422.894 95.068 420.065C93.38 419.084 92.295 417.89 91.783 416.633C88.787 411.022 86.622 399.656 87.334 388.497Z" fill="white"/>
<path d="M92.236 381.696C85.73 385.452 85.695 391.542 92.159 395.299C98.623 399.056 109.137 399.056 115.643 395.299C122.149 391.543 122.183 385.453 115.719 381.696C109.256 377.94 98.742 377.94 92.236 381.696Z" fill="#EBEBEB"/>
<path d="M94.809 383.191C89.733 386.122 89.706 390.873 94.749 393.803C99.792 396.734 107.995 396.734 113.071 393.803C118.147 390.872 118.173 386.121 113.13 383.19C108.087 380.261 99.885 380.261 94.809 383.191Z" fill="#E0E0E0"/>
<g opacity="0.15">
<path d="M94.809 383.191C89.733 386.122 89.706 390.873 94.749 393.803C99.792 396.734 107.995 396.734 113.071 393.803C118.147 390.872 118.173 386.121 113.13 383.19C108.087 380.261 99.885 380.261 94.809 383.191Z" fill="black"/>
</g>
<path d="M76.637 317.637C114.059 329.89 114.398 354.926 105.962 372.754C103.834 376.363 97.395 378.301 91.791 356.128L101.62 357.388L90.165 351.582L87.19 342.688L96.741 343.397L84.618 338.298C80.151 324.789 76.637 317.637 76.637 317.637Z" fill="#786CE6"/>
<path opacity="0.2" d="M76.637 317.637C114.059 329.89 114.398 354.926 105.962 372.754C103.834 376.363 97.395 378.301 91.791 356.128L101.62 357.388L90.165 351.582L87.19 342.688L96.741 343.397L84.618 338.298C80.151 324.789 76.637 317.637 76.637 317.637Z" fill="black"/>
<path d="M87.222 323.898C106.956 338.876 108.738 356.048 103.163 373.975C105.135 358.189 107.266 342.228 87.222 323.898Z" fill="white"/>
<path d="M140.021 343.068C103.133 348.262 98.658 371.521 103.553 389.527C104.935 393.242 110.61 396.116 119.513 376.398L110.149 375.938L121.782 372.434L126.031 364.645L117.019 363.719L129.156 360.985C135.56 349.145 140.021 343.068 140.021 343.068Z" fill="#786CE6"/>
<path opacity="0.2" d="M140.021 343.068C103.133 348.262 98.658 371.521 103.553 389.527C104.935 393.242 110.61 396.116 119.513 376.398L110.149 375.938L121.782 372.434L126.031 364.645L117.019 363.719L129.156 360.985C135.56 349.145 140.021 343.068 140.021 343.068Z" fill="white"/>
<path d="M129.123 347.14C108.256 357.81 103.743 373.507 105.957 391.129C106.743 376.1 107.41 360.882 129.123 347.14Z" fill="white"/>
<path d="M65.841 351.784C99.67 352.337 106.306 372.8 103.91 389.576C103.08 393.079 98.287 396.305 88.056 379.529L96.444 378.067L85.567 376.211L80.866 369.666L88.885 367.823L77.64 366.717C70.542 356.762 65.841 351.784 65.841 351.784Z" fill="#786CE6"/>
<path d="M76.119 354.235C96.121 361.517 101.945 375.159 101.922 391.29C99.531 377.832 97.227 364.19 76.119 354.235Z" fill="white"/>
<path d="M383.171 60.052L383.099 85.073L380.067 86.835L380.148 58.307L383.171 60.052Z" fill="#F0F0F0"/>
<path d="M415.836 103.973L415.826 107.48L380.067 86.835L383.099 85.073L415.836 103.973Z" fill="#F5F5F5"/>
<path d="M376.391 88.93L419.478 113.807L419.583 76.865L376.496 51.988L376.391 88.93ZM380.067 86.835L380.148 58.308L383.17 60.053L415.906 78.953L415.835 103.973L415.825 107.48L380.067 86.835Z" fill="#E0E0E0"/>
<path d="M376.496 51.988L379.528 50.225L422.615 75.102L419.583 76.864L376.496 51.988Z" fill="#F5F5F5"/>
<path d="M422.615 75.102L422.511 112.044L419.478 113.806L419.583 76.864L422.615 75.102Z" fill="#F0F0F0"/>
<path d="M393.572 69.552L384.644 76.582L384.624 83.449L414.318 100.593L414.338 93.725L408.679 82.486L403.598 86.431L405.394 92.013L402.787 87.056L393.572 69.552Z" fill="#E0E0E0"/>
<path d="M403.325 73.013C401.928 72.206 400.79 72.854 400.786 74.46C400.781 76.066 401.911 78.022 403.308 78.829C404.705 79.636 405.843 78.988 405.847 77.382C405.852 75.777 404.723 73.82 403.325 73.013Z" fill="#E0E0E0"/>
<path d="M383.193 116.204L383.121 141.224L380.089 142.986L380.17 114.459L383.193 116.204Z" fill="#F0F0F0"/>
<path d="M415.858 160.124L415.848 163.632L380.089 142.986L383.121 141.224L415.858 160.124Z" fill="#F5F5F5"/>
<path d="M376.413 145.081L419.5 169.958L419.605 133.016L376.518 108.139L376.413 145.081ZM380.089 142.986L380.17 114.459L383.192 116.204L415.928 135.104L415.857 160.124L415.847 163.631L380.089 142.986Z" fill="#E0E0E0"/>
<path d="M376.518 108.139L379.55 106.377L422.638 131.253L419.605 133.016L376.518 108.139Z" fill="#F5F5F5"/>
<path d="M422.638 131.253L422.533 168.195L419.5 169.958L419.605 133.016L422.638 131.253Z" fill="#F0F0F0"/>
<path d="M393.594 125.704L384.666 132.733L384.647 139.6L414.34 156.744L414.36 149.877L408.701 138.637L403.62 142.582L405.416 148.164L402.809 143.208L393.594 125.704Z" fill="#E0E0E0"/>
<path d="M403.348 129.165C401.95 128.358 400.813 129.006 400.809 130.612C400.805 132.218 401.934 134.174 403.332 134.981C404.729 135.788 405.866 135.14 405.871 133.534C405.874 131.928 404.745 129.972 403.348 129.165Z" fill="#E0E0E0"/>
<path d="M319.068 85.707L319.085 79.631C319.178 79.683 319.27 79.736 319.363 79.789C319.532 79.886 319.701 79.986 319.869 80.088C324.359 82.798 328.862 87.057 333.058 91.66C333.753 92.422 334.44 93.194 335.116 93.97C338.651 98.021 342.111 102.307 345.668 106.321L345.64 116.139L341.357 113.666C335.576 102.753 327.633 92.792 319.068 85.707Z" fill="#EBEBEB"/>
<path d="M319.025 100.773L319.048 92.653C322.654 96.424 325.838 101.113 328.155 106.044L319.025 100.773Z" fill="#EBEBEB"/>
<path d="M328.155 106.045C325.839 101.114 322.655 96.425 319.048 92.654L319.068 85.708C327.633 92.793 335.576 102.753 341.358 113.668L328.155 106.045Z" fill="#FAFAFA"/>
<path d="M337.112 77.336C336.906 77.266 336.699 77.194 336.493 77.12C335.342 76.707 334.182 76.228 333.016 75.689C332.875 75.624 332.733 75.551 332.591 75.484C332.198 75.297 331.805 75.106 331.411 74.906C331.329 74.864 331.248 74.828 331.166 74.786C330.57 74.479 329.974 74.156 329.377 73.818C329.249 73.746 329.122 73.673 328.994 73.599C328.89 73.539 328.786 73.479 328.682 73.418C325.599 71.611 322.517 69.403 319.518 66.851C319.386 66.739 319.254 66.626 319.122 66.512L319.151 56.244C325.665 59.578 332.078 60.615 337.25 59.006C340.768 57.914 343.681 55.606 345.821 52.364L345.745 79.045C342.985 78.908 340.086 78.348 337.112 77.336Z" fill="#FAFAFA"/>
<path d="M333.058 91.661C328.862 87.058 324.36 82.799 319.869 80.089C319.7 79.987 319.531 79.887 319.363 79.79C319.27 79.736 319.178 79.684 319.085 79.632L319.102 73.748C327.243 78.454 335.374 84.633 343.099 92.018C343.969 92.848 344.833 93.693 345.703 94.505L345.669 106.323C342.112 102.309 338.652 98.023 335.117 93.972C334.44 93.195 333.753 92.423 333.058 91.661Z" fill="#FAFAFA"/>
<path d="M319.102 73.747L319.122 66.51C319.254 66.624 319.386 66.737 319.518 66.849C322.518 69.401 325.599 71.609 328.682 73.416C328.786 73.477 328.89 73.537 328.994 73.597C329.122 73.671 329.249 73.743 329.377 73.816C329.974 74.154 330.57 74.477 331.166 74.784C331.248 74.826 331.329 74.862 331.411 74.904C331.466 74.932 331.52 74.964 331.575 74.992C331.582 74.995 331.589 74.999 331.596 75.003C331.589 74.999 331.582 74.996 331.575 74.992C331.52 74.964 331.466 74.932 331.411 74.904C331.803 75.103 332.195 75.294 332.586 75.48C332.73 75.548 332.874 75.622 333.017 75.688C334.182 76.227 335.342 76.706 336.493 77.118C336.699 77.192 336.906 77.264 337.112 77.334C340.085 78.346 342.985 78.907 345.746 79.041L345.702 94.502C344.832 93.691 343.968 92.845 343.098 92.015C335.374 84.632 327.243 78.453 319.102 73.747Z" fill="#EBEBEB"/>
<path d="M319.175 47.937L319.196 40.348C323.311 39.384 326.506 36.386 328.187 31.902L337.284 37.154C333.68 44.295 327.135 48.24 319.175 47.937Z" fill="#FAFAFA"/>
<path d="M337.25 59.004C332.078 60.613 325.665 59.577 319.151 56.242L319.174 47.937C327.134 48.24 333.679 44.294 337.284 37.154L345.85 42.099L345.821 52.361C343.681 55.604 340.768 57.911 337.25 59.004Z" fill="#EBEBEB"/>
<path d="M317.522 101.627L347.141 118.727L347.36 41.25L317.741 24.15L317.522 101.627ZM341.358 113.667L328.155 106.044L319.025 100.773L319.048 92.653L319.068 85.707L319.085 79.631L319.102 73.747L319.122 66.51L319.151 56.242L319.174 47.937L319.195 40.348L319.234 26.733L328.186 31.902L337.283 37.154L345.849 42.099L345.82 52.361L345.744 79.042L345.7 94.503L345.666 106.321L345.638 116.139L341.358 113.667Z" fill="white"/>
<path d="M319.197 40.348L319.236 26.733L328.188 31.902C326.507 36.386 323.312 39.384 319.197 40.348Z" fill="#EBEBEB"/>
<path d="M317.522 101.627L347.141 118.727L347.134 120.785L315.742 102.661L317.522 101.627Z" fill="#CACACA"/>
<path d="M317.741 24.149L317.522 101.627L315.742 102.661L315.968 23.125L317.741 24.149Z" fill="#F0F0F0"/>
<path d="M310.949 105.392L351.896 129.033L352.153 38.519L311.206 14.879L310.949 105.392ZM315.742 102.661L315.967 23.126L317.741 24.15L347.36 41.25L347.141 118.727L347.135 120.785L315.742 102.661Z" fill="#E0E0E0"/>
<path d="M311.206 14.878L314.584 13.064L355.53 36.704L352.153 38.519L311.206 14.878Z" fill="#F5F5F5"/>
<path d="M355.53 36.704L355.274 127.218L351.896 129.033L352.153 38.519L355.53 36.704Z" fill="#F0F0F0"/>
<path d="M23.35 166.611L23.312 153.351L16.395 149.413L16.432 162.368L16.433 162.662L23.35 166.611Z" fill="#786CE6"/>
<path d="M23.785 320.19L23.35 166.611L16.433 162.662L16.867 315.947C16.871 317.214 17.315 318.107 18.028 318.543L18.023 318.547L18.059 318.569C18.069 318.574 18.078 318.581 18.088 318.586L24.908 322.755C24.22 322.309 23.789 321.432 23.785 320.19Z" fill="#786CE6"/>
<path opacity="0.2" d="M23.785 320.19L23.35 166.611L16.433 162.662L16.867 315.947C16.871 317.214 17.315 318.107 18.028 318.543L18.023 318.547L18.059 318.569C18.069 318.574 18.078 318.581 18.088 318.586L24.908 322.755C24.22 322.309 23.789 321.432 23.785 320.19Z" fill="white"/>
<path d="M27.894 322.532C27.621 322.689 27.355 322.809 27.097 322.899C27.355 322.81 27.621 322.689 27.894 322.532Z" fill="#455A64"/>
<path d="M25.118 322.883V322.871C25.101 322.863 25.082 322.86 25.066 322.852L25.118 322.883Z" fill="#455A64"/>
<path d="M23.338 153.326L23.316 145.687C23.309 143.084 25.133 139.916 27.398 138.608L258.816 4.999C259.929 4.356 260.939 4.291 261.68 4.696L254.852 0.503002V0.511001C254.103 0.046001 253.058 0.0850004 251.897 0.755L20.48 134.364C18.215 135.672 16.391 138.84 16.398 141.443L16.42 149.083L16.431 149.087L16.395 149.108L16.396 149.414L23.313 153.352L23.338 153.326Z" fill="#786CE6"/>
<path opacity="0.3" d="M23.338 153.326L23.316 145.687C23.309 143.084 25.133 139.916 27.398 138.608L258.816 4.999C259.929 4.356 260.939 4.291 261.68 4.696L254.852 0.503002V0.511001C254.103 0.046001 253.058 0.0850004 251.897 0.755L20.48 134.364C18.215 135.672 16.391 138.84 16.398 141.443L16.42 149.083L16.431 149.087L16.395 149.108L16.396 149.414L23.313 153.352L23.338 153.326Z" fill="white"/>
<path opacity="0.2" d="M23.35 166.611L23.312 153.351L16.395 149.413L16.432 162.368L16.433 162.662L23.35 166.611Z" fill="black"/>
<path opacity="0.2" d="M23.35 166.611L23.312 153.351L16.395 149.413L16.432 162.368L16.433 162.662L23.35 166.611Z" fill="white"/>
<path d="M258.816 4.999C261.074 3.695 262.917 4.746 262.925 7.349L262.947 14.989L23.338 153.326L23.316 145.687C23.309 143.084 25.133 139.916 27.398 138.608L258.816 4.999Z" fill="#786CE6"/>
<path d="M243.303 17.636C244.513 16.937 245.498 17.498 245.502 18.889C245.506 20.28 244.528 21.974 243.318 22.672C242.108 23.371 241.123 22.81 241.119 21.419C241.115 20.029 242.093 18.335 243.303 17.636Z" fill="white"/>
<path d="M249.988 13.777C251.198 13.078 252.183 13.639 252.187 15.03C252.191 16.421 251.213 18.115 250.003 18.814C248.793 19.513 247.808 18.952 247.804 17.561C247.8 16.17 248.778 14.475 249.988 13.777Z" fill="white"/>
<path d="M256.666 9.921C257.876 9.222 258.861 9.783 258.865 11.174C258.869 12.565 257.891 14.259 256.681 14.957C255.471 15.656 254.486 15.095 254.482 13.704C254.478 12.314 255.456 10.62 256.666 9.921Z" fill="white"/>
<path d="M71.527 117.931C72.427 117.411 73.263 117.498 73.693 118.167L75.868 121.514C76.298 122.183 77.127 122.282 78.034 121.758L262.92 15.014L262.958 28.292L23.35 166.629L23.312 153.351L30.41 149.253C31.318 148.729 32.142 147.675 32.575 146.508L34.717 140.668C35.142 139.505 35.975 138.456 36.875 137.936L71.527 117.931Z" fill="#E0E0E0"/>
<path d="M262.958 28.274L263.393 181.853C263.4 184.447 261.569 187.62 259.311 188.923L27.894 322.532C25.629 323.84 23.793 322.785 23.785 320.191L23.35 166.611L262.958 28.274Z" fill="#786CE6"/>
<g opacity="0.4">
<path d="M262.958 28.274L263.393 181.853C263.4 184.447 261.569 187.62 259.311 188.923L27.894 322.532C25.629 323.84 23.793 322.785 23.785 320.191L23.35 166.611L262.958 28.274Z" fill="white"/>
</g>
<path d="M253.482 23.171C255.091 22.242 256.393 22.985 256.399 24.833C256.404 26.681 255.11 28.932 253.501 29.861L50.676 146.961C49.067 147.89 47.757 147.143 47.752 145.295C47.747 143.447 49.049 141.2 50.657 140.272L253.482 23.171Z" fill="white"/>
<path d="M27.182 154.53C27.292 154.467 27.401 154.454 27.483 154.51C27.638 154.616 27.624 154.921 27.463 155.193L26.183 157.282L29.54 155.344C29.769 155.212 29.954 155.317 29.955 155.572C29.956 155.835 29.772 156.153 29.543 156.286L26.186 158.224L27.474 158.831C27.637 158.915 27.653 159.204 27.498 159.48C27.417 159.629 27.307 159.743 27.196 159.807C27.1 159.862 26.997 159.888 26.915 159.85L24.858 158.864L24.776 158.784L24.761 158.759L24.723 158.594L24.76 158.386L24.775 158.352L24.848 158.182L26.901 154.823C26.98 154.689 27.082 154.588 27.182 154.53Z" fill="#E0E0E0"/>
<path d="M34.446 150.335C34.546 150.278 34.6471 150.262 34.7281 150.3L36.786 151.278L36.8681 151.367L36.89 151.38L36.92 151.549L36.891 151.753L36.869 151.8L36.7961 151.961L34.743 155.329C34.662 155.461 34.5661 155.55 34.4631 155.61C34.3521 155.674 34.249 155.683 34.167 155.628C34.012 155.531 34.0181 155.23 34.1871 154.954L35.46 152.869L32.1031 154.807C31.8811 154.935 31.696 154.829 31.696 154.567C31.695 154.313 31.8791 153.994 32.1011 153.866L35.4581 151.928L34.1781 151.317C34.0081 151.237 34 150.945 34.154 150.66C34.23 150.511 34.337 150.399 34.446 150.335Z" fill="#E0E0E0"/>
<path d="M41.347 146.352C41.856 146.058 42.336 145.976 42.736 146.094L43.045 145.686C43.111 145.597 43.189 145.527 43.266 145.482C43.343 145.437 43.421 145.418 43.487 145.431C43.628 145.452 43.695 145.6 43.673 145.799L43.499 147.063C43.484 147.207 43.418 147.356 43.323 147.487C43.257 147.568 43.176 147.648 43.102 147.691L42.999 147.734L42.002 148.012C41.847 148.051 41.728 147.975 41.698 147.805C41.668 147.635 41.741 147.415 41.881 147.232L41.977 147.1C41.785 147.101 41.571 147.165 41.349 147.293C40.537 147.762 39.875 148.908 39.878 149.841C39.881 150.782 40.547 151.153 41.359 150.685C41.898 150.374 42.391 149.758 42.655 149.062C42.725 148.865 42.865 148.695 43.01 148.611C43.077 148.572 43.145 148.552 43.208 148.556C43.408 148.568 43.482 148.814 43.372 149.107C42.969 150.181 42.203 151.141 41.361 151.627C40.099 152.356 39.063 151.773 39.059 150.315C39.056 148.864 40.085 147.08 41.347 146.352Z" fill="#E0E0E0"/>
<g opacity="0.3">
<path d="M27.182 154.53C27.292 154.467 27.401 154.454 27.483 154.51C27.638 154.616 27.624 154.921 27.463 155.193L26.183 157.282L29.54 155.344C29.769 155.212 29.954 155.317 29.955 155.572C29.956 155.835 29.772 156.153 29.543 156.286L26.186 158.224L27.474 158.831C27.637 158.915 27.653 159.204 27.498 159.48C27.417 159.629 27.307 159.743 27.196 159.807C27.1 159.862 26.997 159.888 26.915 159.85L24.858 158.864L24.776 158.784L24.761 158.759L24.723 158.594L24.76 158.386L24.775 158.352L24.848 158.182L26.901 154.823C26.98 154.689 27.082 154.588 27.182 154.53Z" fill="black"/>
</g>
<g opacity="0.3">
<path d="M34.446 150.335C34.546 150.278 34.6471 150.262 34.7281 150.3L36.786 151.278L36.8681 151.367L36.89 151.38L36.92 151.549L36.891 151.753L36.869 151.8L36.7961 151.961L34.743 155.329C34.662 155.461 34.5661 155.55 34.4631 155.61C34.3521 155.674 34.249 155.683 34.167 155.628C34.012 155.531 34.0181 155.23 34.1871 154.954L35.46 152.869L32.1031 154.807C31.8811 154.935 31.696 154.829 31.696 154.567C31.695 154.313 31.8791 153.994 32.1011 153.866L35.4581 151.928L34.1781 151.317C34.0081 151.237 34 150.945 34.154 150.66C34.23 150.511 34.337 150.399 34.446 150.335Z" fill="black"/>
</g>
<g opacity="0.3">
<path d="M41.347 146.352C41.856 146.058 42.336 145.976 42.736 146.094L43.045 145.686C43.111 145.597 43.189 145.527 43.266 145.482C43.343 145.437 43.421 145.418 43.487 145.431C43.628 145.452 43.695 145.6 43.673 145.799L43.499 147.063C43.484 147.207 43.418 147.356 43.323 147.487C43.257 147.568 43.176 147.648 43.102 147.691L42.999 147.734L42.002 148.012C41.847 148.051 41.728 147.975 41.698 147.805C41.668 147.635 41.741 147.415 41.881 147.232L41.977 147.1C41.785 147.101 41.571 147.165 41.349 147.293C40.537 147.762 39.875 148.908 39.878 149.841C39.881 150.782 40.547 151.153 41.359 150.685C41.898 150.374 42.391 149.758 42.655 149.062C42.725 148.865 42.865 148.695 43.01 148.611C43.077 148.572 43.145 148.552 43.208 148.556C43.408 148.568 43.482 148.814 43.372 149.107C42.969 150.181 42.203 151.141 41.361 151.627C40.099 152.356 39.063 151.773 39.059 150.315C39.056 148.864 40.085 147.08 41.347 146.352Z" fill="black"/>
</g>
<path d="M167.836 152.497L168.058 230.825L92.424 274.492L92.202 196.164L167.836 152.497Z" fill="#786CE6"/>
<path d="M253.328 45.973L253.454 90.105L151.197 149.143L151.072 105.011L253.328 45.973Z" fill="#786CE6"/>
<g opacity="0.5">
<path d="M167.836 152.497L168.058 230.825L92.424 274.492L92.202 196.164L167.836 152.497Z" fill="white"/>
</g>
<g opacity="0.5">
<path d="M253.328 45.973L253.454 90.105L151.197 149.143L151.072 105.011L253.328 45.973Z" fill="white"/>
</g>
<path d="M84.823 200.424L85.045 278.753L37.082 306.444L36.86 228.116L84.823 200.424Z" fill="#786CE6"/>
<path d="M252.693 103.504L252.915 181.833L175.437 226.565L175.215 148.237L252.693 103.504Z" fill="#786CE6"/>
<g opacity="0.3">
<path d="M84.823 200.424L85.045 278.753L37.082 306.444L36.86 228.116L84.823 200.424Z" fill="white"/>
</g>
<g opacity="0.3">
<path d="M252.693 103.504L252.915 181.833L175.437 226.565L175.215 148.237L252.693 103.504Z" fill="white"/>
</g>
<path d="M59.873 156.84C72.629 149.476 83 155.386 83.042 170.037C83.083 184.688 72.779 202.535 60.023 209.9C47.273 217.261 36.901 211.351 36.86 196.7C36.819 182.049 47.123 164.202 59.873 156.84Z" fill="#786CE6"/>
<path d="M71.553 170.512C72.79 169.623 73.679 168.261 73.993 166.77C74.308 165.279 74.046 163.675 73.273 162.361C73.943 162.039 74.594 161.505 74.899 160.827C75.193 160.174 75.047 159.348 74.548 158.835C74.048 158.322 73.227 158.155 72.566 158.432C72.978 157.419 72.503 156.04 71.56 155.487C70.616 154.934 69.283 155.18 68.6 156.035C68.645 155.339 68.162 154.668 67.499 154.451C66.836 154.233 66.107 154.353 65.447 154.58C64.787 154.806 64.165 155.134 63.5 155.345C62.377 155.701 61.178 155.708 60.003 155.791C58.828 155.874 57.614 156.051 56.625 156.692C55.636 157.332 54.763 158.829 55.296 160.118C54.963 159.695 54.43 159.392 53.893 159.374C53.356 159.356 52.814 159.586 52.454 159.985C53.19 160.441 53.901 160.931 54.637 161.387C53.897 161.054 52.793 161.576 52.392 162.282C51.991 162.988 51.972 163.841 51.996 164.653C52.087 167.735 52.649 170.801 53.622 173.727C54.125 175.24 55.304 177.142 56.737 177.84L71.553 170.512Z" fill="#37474F"/>
<path d="M69.152 182.091L72.645 185.077L74.49 195.668C75.993 193.402 77.343 191.015 78.498 188.562C76.899 184.517 75.627 182.091 69.152 182.091Z" fill="#EBEBEB"/>
<path d="M60.023 209.9C66.014 206.441 71.463 200.67 75.555 194.004C75.219 188.27 74.374 182.091 69.152 182.091L53.646 182.199L50.481 182.536L48.986 213.049C52.269 213.209 56.03 212.206 60.023 209.9Z" fill="#786CE6"/>
<g opacity="0.4">
<path d="M60.023 209.9C66.014 206.441 71.463 200.67 75.555 194.004C75.219 188.27 74.374 182.091 69.152 182.091L53.646 182.199L50.481 182.536L48.986 213.049C52.269 213.209 56.03 212.206 60.023 209.9Z" fill="white"/>
</g>
<path d="M66.617 184.154C68.066 188.768 67.156 195.203 66.617 198.1C62.945 193.047 59.509 187.981 58.431 186L63.552 183.513L66.617 184.154Z" fill="#EBEBEB"/>
<path d="M64.4761 188.393L65.7411 188.092C65.7411 188.092 66.6761 190.467 67.2831 193.033C67.1271 195.076 66.8411 196.896 66.6171 198.1C65.8971 197.108 65.1861 196.117 64.5001 195.148C64.6421 193.492 64.7871 190.751 64.4761 188.393Z" fill="#455A64"/>
<path opacity="0.2" d="M64.5051 188.66C64.4951 188.571 64.4881 188.48 64.4761 188.393L65.7411 188.092C65.7411 188.092 65.7681 188.161 65.8131 188.279C65.6071 188.46 65.3641 188.599 65.0951 188.657C64.9011 188.699 64.7011 188.691 64.5051 188.66Z" fill="black"/>
<path d="M63.7981 185.08L62.8021 184.44L60.4811 185.705C61.4991 186.637 63.2191 186.789 63.2191 186.789L63.7981 185.08Z" fill="#455A64"/>
<path d="M65.3331 184.834L65.6371 184.154L66.8071 184.886C66.5791 185.647 66.0471 185.999 66.0471 185.999L65.3331 184.834Z" fill="#455A64"/>
<path opacity="0.2" d="M63.7981 185.08L62.8021 184.44L60.4811 185.705C61.4991 186.637 63.2191 186.789 63.2191 186.789L63.7981 185.08Z" fill="black"/>
<path opacity="0.2" d="M65.3331 184.834L65.6371 184.154L66.8071 184.886C66.5791 185.647 66.0471 185.999 66.0471 185.999L65.3331 184.834Z" fill="black"/>
<path d="M63.2191 186.788C63.3181 186.2 63.5141 185.604 63.7991 185.079C64.3111 184.997 64.8221 184.915 65.3341 184.833C65.6131 185.188 65.8581 185.589 66.0471 185.999C66.1231 187.092 65.7421 188.091 65.7421 188.091C65.1711 188.414 64.4771 188.392 64.4771 188.392C63.5631 187.825 63.2191 186.788 63.2191 186.788Z" fill="#455A64"/>
<path d="M64.3371 184.54C61.9021 184.498 60.414 186.437 58.187 187.1L53.6461 182.198L55.4061 179.581C55.7571 179.059 56.2141 178.616 56.7471 178.282L56.7671 179.23C56.7791 179.793 57.0831 180.309 57.5691 180.593L64.3371 184.54Z" fill="#E0E0E0"/>
<path d="M64.337 184.54C65.691 184.119 67.713 185.812 67.713 185.812C67.006 181.896 64.868 180.355 64.345 180.355L64.337 184.54Z" fill="#E0E0E0"/>
<path d="M50.4811 182.536L48.377 182.872C45.836 183.278 43.835 185.227 43.311 187.746C41.368 197.077 41.941 205.595 41.941 205.595L51.542 201.173C52.553 193.67 54.5231 187.471 50.4811 182.536Z" fill="#EBEBEB"/>
<path d="M51.4411 204.509L51.4801 203.675C51.4871 203.522 51.5561 203.378 51.6711 203.277C51.7931 203.169 51.8621 203.014 51.8621 202.852V201.462C51.8621 201.084 51.5501 200.783 51.1721 200.788C46.8251 200.845 42.6041 202.912 41.4521 205.344C40.9801 206.355 41.4521 207.694 41.4521 207.694C40.6981 208.678 41.0621 209.185 41.4551 209.887C41.8471 210.265 42.2641 210.606 42.6991 210.919C45.5111 206.389 51.4411 204.509 51.4411 204.509Z" fill="#E0E0E0"/>
<path opacity="0.2" d="M46.9451 203.536C44.8861 204.325 42.6071 206.231 41.4521 207.693C41.4521 207.693 41.3351 207.361 41.2761 206.903C41.9951 206 43.5591 204.347 46.9451 203.536Z" fill="black"/>
<path opacity="0.2" d="M51.8341 203.019C51.8031 203.117 51.7501 203.207 51.6711 203.276C51.5561 203.378 51.4881 203.521 51.4801 203.674L51.4771 203.741C48.4641 204.196 45.6051 205.639 43.4581 207.804C45.4651 204.892 49.8771 203.402 51.8341 203.019Z" fill="black"/>
<path d="M60.023 209.9C63.562 207.857 66.911 205.005 69.904 201.64C64.336 201.672 56.566 201.98 51.477 203.742L51.441 204.509C51.441 204.509 45.511 206.39 42.699 210.918C46.945 213.974 53.135 213.877 60.023 209.9Z" fill="#FFA8A7"/>
<path opacity="0.2" d="M51.862 204.532L51.959 203.584C51.797 203.636 51.634 203.687 51.477 203.741L51.441 204.508C51.441 204.508 49.599 205.09 47.481 206.387C47.137 206.839 46.795 207.425 46.572 208.157C47.733 206.514 49.004 205.857 51.48 205.221C53.733 205.567 57.654 207.228 61.644 208.891C62.026 208.64 62.405 208.38 62.782 208.111C57.989 206.443 53.11 204.617 51.862 204.532Z" fill="black"/>
<path d="M59.5481 178.456L59.4771 178.419C58.4521 177.879 57.6951 176.926 57.4371 175.797C57.3091 175.239 57.1981 174.677 57.1091 174.112C57.0281 173.599 56.6531 174.1 56.6531 174.1C56.6531 174.1 56.6821 175.346 56.7141 176.834C56.7311 177.617 56.7501 178.465 56.7661 179.234C56.7781 179.797 57.0821 180.311 57.5681 180.594L64.3361 184.541V181.153L64.3431 179.73C62.6681 179.606 60.9511 179.196 59.5481 178.456Z" fill="#FFA8A7"/>
<path d="M57.903 177.596L57.902 177.594L57.909 177.598L57.903 177.596Z" fill="#FFA8A7"/>
<path opacity="0.2" d="M58.583 178.359C58.186 177.85 57.897 177.251 57.748 176.624C58.121 177.382 58.717 178.017 59.478 178.418C59.502 178.431 59.526 178.443 59.549 178.455C60.952 179.196 62.669 179.605 64.345 179.729L64.338 180.956C63.374 180.854 62.415 180.687 61.504 180.361C60.377 179.959 59.318 179.303 58.583 178.359Z" fill="black"/>
<path d="M71.9701 163.058C72.5231 167.239 72.2461 171.528 71.1581 175.603C70.9201 176.496 70.6391 177.388 70.1621 178.179C69.6861 178.971 68.9941 179.661 68.1291 179.985C67.0651 180.383 65.8821 180.191 64.7631 179.994C62.7161 179.633 60.6171 179.253 58.8391 178.177C57.0611 177.101 55.6511 175.157 55.8231 173.086C54.7871 173.68 53.4781 173.837 52.4241 173.274C51.3711 172.711 50.6421 171.584 50.5601 170.393C50.4811 169.233 51.1511 167.941 52.2901 167.711C52.9861 167.571 53.7141 167.849 54.2711 168.29C54.8281 168.731 55.2441 169.321 55.6521 169.902C55.8461 170.179 56.0501 170.464 56.3401 170.638C56.6301 170.812 57.0331 170.847 57.2901 170.627C57.5711 170.387 57.5771 169.962 57.5601 169.592L57.4401 166.966C57.4211 166.553 57.6541 166.177 58.0221 165.989C58.5571 165.717 58.9651 165.216 59.1981 164.636C59.4001 164.133 59.4871 163.598 59.5301 163.056C59.5651 162.62 60.0091 162.342 60.4151 162.505C63.9431 163.929 68.3361 163.992 71.9701 163.058Z" fill="#FFA8A7"/>
<path d="M66.195 169.426L68.556 173.4L65.741 173.929L66.195 169.426Z" fill="#F28F8F"/>
<path d="M63.0281 175.298C63.7411 175.645 64.4541 175.991 65.1671 176.338C64.8561 176.824 64.0721 177.036 63.5451 176.799C63.0191 176.563 62.8721 175.854 63.0281 175.298Z" fill="#F28F8F"/>
<path opacity="0.3" d="M63.0281 175.298C63.7411 175.645 64.4541 175.991 65.1671 176.338C64.8561 176.824 64.0721 177.036 63.5451 176.799C63.0191 176.563 62.8721 175.854 63.0281 175.298Z" fill="black"/>
<path d="M64.288 176.87C64.031 176.915 63.766 176.899 63.545 176.8C63.132 176.614 62.955 176.138 62.973 175.673C63.277 175.674 63.581 175.773 63.816 175.966C64.087 176.187 64.253 176.522 64.288 176.87Z" fill="#F28F8F"/>
<path d="M62.119 169.584C62.074 170.028 62.398 170.425 62.842 170.47C63.286 170.515 63.683 170.191 63.728 169.747C63.773 169.303 63.449 168.906 63.005 168.862C62.56 168.816 62.163 169.14 62.119 169.584Z" fill="#263238"/>
<path d="M68.8991 170.004C68.8541 170.448 69.1781 170.845 69.6221 170.889C70.0661 170.934 70.4631 170.61 70.5071 170.166C70.5521 169.722 70.2281 169.325 69.7841 169.28C69.3401 169.236 68.9431 169.56 68.8991 170.004Z" fill="#263238"/>
<path d="M70.004 166.881C70.557 167.352 71.11 167.823 71.663 168.294C71.882 167.889 71.768 167.323 71.442 166.997C71.116 166.671 70.41 166.663 70.004 166.881Z" fill="#263238"/>
<path d="M63.125 166.09C62.489 166.441 61.853 166.792 61.217 167.143C61.083 166.702 61.309 166.17 61.693 165.916C62.077 165.662 62.772 165.795 63.125 166.09Z" fill="#263238"/>
<g opacity="0.5">
<path d="M120.104 150.789L120.11 153.028L91.913 169.229L91.907 166.991L120.104 150.789Z" fill="white"/>
<path d="M125.38 161.502L125.386 163.741L91.952 182.966L91.946 180.727L125.38 161.502Z" fill="white"/>
<path d="M130.373 154.046L130.38 156.285L91.939 178.4L91.933 176.162L130.373 154.046Z" fill="white"/>
<path d="M138.274 135.726L138.28 137.964L91.9 164.664L91.894 162.425L138.274 135.726Z" fill="white"/>
<path d="M143.854 127.891L143.86 130.129L91.887 160.058L91.881 157.82L143.854 127.891Z" fill="white"/>
<path d="M118.643 133.865L118.655 138.351L91.8691 153.816L91.8571 149.33L118.643 133.865Z" fill="white"/>
</g>
<path d="M187.822 91.511L187.837 96.741L158.868 113.512L158.853 108.282L187.822 91.511Z" fill="#786CE6"/>
<path d="M237.404 90.485L237.413 93.684L158.941 139.065L158.932 135.866L237.404 90.485Z" fill="#786CE6"/>
<path d="M243.661 80.735L243.67 83.926L158.923 132.675L158.913 129.484L243.661 80.735Z" fill="#786CE6"/>
<path d="M224.408 85.382L224.416 88.573L158.904 126.285L158.895 123.093L224.408 85.382Z" fill="#786CE6"/>
<path d="M243.624 67.954L243.634 71.145L158.886 119.894L158.877 116.703L243.624 67.954Z" fill="#786CE6"/>
<g opacity="0.3">
<path d="M187.822 91.511L187.837 96.741L158.868 113.512L158.853 108.282L187.822 91.511Z" fill="white"/>
<path d="M237.404 90.485L237.413 93.684L158.941 139.065L158.932 135.866L237.404 90.485Z" fill="white"/>
<path d="M243.661 80.735L243.67 83.926L158.923 132.675L158.913 129.484L243.661 80.735Z" fill="white"/>
<path d="M224.408 85.382L224.416 88.573L158.904 126.285L158.895 123.093L224.408 85.382Z" fill="white"/>
<path d="M243.624 67.954L243.634 71.145L158.886 119.894L158.877 116.703L243.624 67.954Z" fill="white"/>
</g>
<g opacity="0.5">
<path d="M60.926 221.794L60.939 226.57L42.461 237.238L42.447 232.463L60.926 221.794Z" fill="white"/>
<path d="M79.33 218.826L79.337 221.076L42.475 242.358L42.469 240.108L79.33 218.826Z" fill="white"/>
<path d="M79.3431 223.327L79.3491 225.577L42.4881 246.859L42.4821 244.609L79.3431 223.327Z" fill="white"/>
<path d="M79.473 269.157L79.479 271.407L42.618 292.689L42.612 290.439L79.473 269.157Z" fill="white"/>
<path d="M79.46 264.656L79.466 266.906L42.605 288.188L42.599 285.938L79.46 264.656Z" fill="white"/>
<path d="M58.592 269.047L58.606 273.822L42.591 283.068L42.577 278.293L58.592 269.047Z" fill="white"/>
<path d="M72.863 254.525L72.87 256.775L42.566 274.271L42.559 272.021L72.863 254.525Z" fill="white"/>
<path d="M79.408 246.238L79.414 248.488L42.553 269.77L42.547 267.52L79.408 246.238Z" fill="white"/>
<path d="M79.395 241.745L79.402 243.995L42.54 265.277L42.534 263.027L79.395 241.745Z" fill="white"/>
<path d="M68.66 240.277L68.674 245.06L42.526 260.157L42.512 255.374L68.66 240.277Z" fill="white"/>
<path d="M60.925 238.468L60.931 240.719L42.501 251.359L42.494 249.109L60.925 238.468Z" fill="white"/>
<path d="M52.573 289.195L52.579 291.438L42.631 297.182L42.624 294.939L52.573 289.195Z" fill="white"/>
</g>
<path d="M140.657 192.022L125.635 220.557L121.385 228.637L124.313 219.537L116.03 213.106L106.804 231.429L106.836 242.624L155.243 214.676L155.211 203.481L140.657 192.022Z" fill="#786CE6"/>
<path d="M124.784 207.146C127.062 205.831 128.904 202.641 128.896 200.023C128.889 197.405 127.035 196.349 124.757 197.664C122.479 198.979 120.637 202.169 120.645 204.787C120.652 207.405 122.506 208.461 124.784 207.146Z" fill="#786CE6"/>
<g opacity="0.3">
<path d="M140.657 192.022L125.635 220.557L121.385 228.637L124.313 219.537L116.03 213.106L106.804 231.429L106.836 242.624L155.243 214.676L155.211 203.481L140.657 192.022Z" fill="white"/>
<path d="M124.784 207.146C127.062 205.831 128.904 202.641 128.896 200.023C128.889 197.405 127.035 196.349 124.757 197.664C122.479 198.979 120.637 202.169 120.645 204.787C120.652 207.405 122.506 208.461 124.784 207.146Z" fill="white"/>
</g>
<path d="M226.32 143.497L211.298 172.031L207.047 180.111L209.975 171.012L201.692 164.581L192.467 182.904L192.499 194.099L240.906 166.151L240.874 154.956L226.32 143.497Z" fill="#786CE6"/>
<path d="M210.447 158.621C212.725 157.306 214.567 154.116 214.559 151.498C214.552 148.88 212.698 147.824 210.42 149.139C208.142 150.455 206.3 153.644 206.308 156.262C206.315 158.88 208.168 159.936 210.447 158.621Z" fill="#786CE6"/>
<g opacity="0.5">
<path d="M226.32 143.497L211.298 172.031L207.047 180.111L209.975 171.012L201.692 164.581L192.467 182.904L192.499 194.099L240.906 166.151L240.874 154.956L226.32 143.497Z" fill="white"/>
<path d="M210.447 158.621C212.725 157.306 214.567 154.116 214.559 151.498C214.552 148.88 212.698 147.824 210.42 149.139C208.142 150.455 206.3 153.644 206.308 156.262C206.315 158.88 208.168 159.936 210.447 158.621Z" fill="white"/>
</g>
<path d="M305.056 354.965L305.053 354.971L307.674 356.642C307.691 356.652 307.708 356.665 307.725 356.675L307.731 356.679C308.491 357.102 309.533 357.032 310.681 356.369C312.994 355.034 314.866 351.795 314.859 349.133C314.855 347.842 314.406 346.93 313.683 346.482L313.684 346.481L313.646 346.457C313.635 346.45 313.625 346.443 313.613 346.436L312.841 345.946L337.933 335.748C337.93 336.271 338.255 336.788 338.878 337.209L336.617 356.943V359.619C334.65 361.15 333.154 363.977 333.161 366.35C333.165 367.718 333.669 368.655 334.467 369.072L334.464 369.078L337.084 370.748C337.102 370.759 337.119 370.771 337.137 370.782L337.142 370.785V370.784C337.902 371.207 338.944 371.138 340.092 370.475C342.405 369.14 344.277 365.901 344.27 363.239C344.266 361.948 343.818 361.036 343.094 360.588L343.095 360.587L343.059 360.564C343.047 360.557 343.036 360.549 343.024 360.542L340.369 358.857L340.365 358.865C339.973 358.622 339.501 358.516 338.974 358.561L341.864 337.996V337.995C342.498 337.989 343.125 337.888 343.696 337.703V337.706L367.463 350.546L366.095 351.414C366.082 351.421 366.071 351.43 366.059 351.437L366.024 351.459L366.025 351.46C365.302 351.908 364.853 352.82 364.849 354.111C364.841 356.773 366.714 360.012 369.027 361.347C370.175 362.01 371.217 362.079 371.977 361.656V361.657L371.982 361.654C372 361.644 372.017 361.631 372.034 361.621L374.655 359.951L374.652 359.945C375.45 359.528 375.954 358.59 375.958 357.223C375.965 354.87 374.496 352.069 372.555 350.529V346.386L350.429 333.244L362.095 330.303C361.326 331.621 360.85 333.108 360.853 334.449C360.857 335.817 361.361 336.754 362.159 337.171L362.156 337.177L364.779 338.849C364.795 338.859 364.811 338.871 364.828 338.88L364.834 338.884L364.835 338.883C365.595 339.306 366.637 339.237 367.785 338.574C370.098 337.239 371.97 334 371.963 331.338C371.959 330.047 371.51 329.135 370.787 328.687L370.788 328.686L370.754 328.664C370.742 328.657 370.73 328.648 370.718 328.641L368.064 326.956L368.06 326.964C367.528 326.634 366.847 326.56 366.083 326.772V326.103L364.66 325.623L345.706 326.621V323.273C345.907 323.182 346.115 323.099 346.3 322.992C347.545 322.273 348.172 321.331 348.178 320.388V298.467H335.459V320.388C335.453 321.331 336.069 322.274 337.307 322.994C337.501 323.107 337.72 323.195 337.931 323.29V326.103L324.229 323.143L323.573 323.406V325.926C323.565 325.931 323.556 325.934 323.547 325.939L323.543 325.931L320.888 327.616C320.876 327.623 320.864 327.632 320.852 327.639L320.817 327.661L320.818 327.662C320.095 328.11 319.646 329.022 319.642 330.313C319.637 332.083 320.472 334.097 321.707 335.648L308.471 341.612V344.742C308.291 344.818 308.11 344.905 307.924 345.012C305.611 346.347 303.739 349.586 303.746 352.243C303.754 353.61 304.258 354.548 305.056 354.965ZM312.948 340.819L322.536 336.547L309.575 342.322L312.948 340.819ZM329.906 330.04L331.847 331.081L330.507 331.685C330.363 331.13 330.162 330.579 329.906 330.04Z" fill="#E0E0E0"/>
<path d="M368.69 332.284L370.79 328.686L368.065 326.956L368.06 326.964C367.294 326.489 366.223 326.53 365.033 327.217C362.72 328.553 360.848 331.791 360.855 334.449C360.859 335.817 361.363 336.754 362.161 337.171L362.158 337.177L364.836 338.884L367.048 335.095C367.739 334.263 368.305 333.294 368.69 332.284Z" fill="#37474F"/>
<path d="M367.761 328.946C370.074 327.611 371.958 328.68 371.966 331.338C371.973 334 370.101 337.239 367.788 338.574C365.475 339.909 363.591 338.84 363.583 336.178C363.575 333.52 365.448 330.281 367.761 328.946Z" fill="#455A64"/>
<path d="M322.922 331.259L320.821 327.661L323.546 325.931L323.55 325.939C324.316 325.464 325.387 325.505 326.577 326.192C328.89 327.528 330.762 330.766 330.755 333.424C330.751 334.792 330.247 335.73 329.449 336.147L329.452 336.153L326.774 337.859L324.562 334.07C323.873 333.238 323.307 332.269 322.922 331.259Z" fill="#37474F"/>
<path d="M323.852 327.921C321.539 326.586 319.654 327.655 319.647 330.313C319.639 332.975 321.512 336.214 323.825 337.549C326.138 338.884 328.023 337.815 328.03 335.153C328.037 332.495 326.164 329.256 323.852 327.921Z" fill="#455A64"/>
<path d="M337.935 322.35H345.708V335.747C345.704 336.323 345.321 336.899 344.56 337.339C343.038 338.218 340.577 338.219 339.064 337.34C338.307 336.9 337.931 336.323 337.934 335.747V322.35H337.935Z" fill="#EBEBEB"/>
<path d="M366.084 326.103V329.297L345.708 334.434V327.673L366.084 326.103Z" fill="#E0E0E0"/>
<path d="M366.084 326.103L364.662 325.622L345.708 326.62V327.673L366.084 326.103Z" fill="#F5F5F5"/>
<path d="M368.126 355.057L366.025 351.459L368.75 349.73L368.754 349.737C369.52 349.262 370.591 349.303 371.781 349.99C374.094 351.325 375.966 354.564 375.959 357.222C375.955 358.59 375.451 359.528 374.653 359.944L374.656 359.95L371.978 361.657L369.766 357.868C369.077 357.037 368.511 356.068 368.126 355.057Z" fill="#37474F"/>
<path d="M369.056 351.72C366.743 350.385 364.858 351.454 364.851 354.112C364.843 356.774 366.716 360.013 369.029 361.348C371.342 362.683 373.227 361.614 373.234 358.952C373.241 356.293 371.369 353.055 369.056 351.72Z" fill="#455A64"/>
<path d="M340.996 364.185L343.097 360.587L340.371 358.857L340.367 358.865C339.601 358.39 338.53 358.431 337.34 359.118C335.027 360.453 333.155 363.692 333.162 366.35C333.166 367.718 333.67 368.655 334.468 369.072L334.465 369.078L337.143 370.785L339.355 366.996C340.045 366.165 340.611 365.196 340.996 364.185Z" fill="#37474F"/>
<path d="M340.066 360.848C342.379 359.513 344.264 360.582 344.271 363.24C344.279 365.902 342.406 369.141 340.093 370.476C337.78 371.812 335.895 370.742 335.888 368.08C335.881 365.422 337.753 362.183 340.066 360.848Z" fill="#455A64"/>
<path d="M311.584 350.077L313.685 346.479L310.959 344.749L310.955 344.757C310.189 344.282 309.118 344.323 307.928 345.01C305.615 346.345 303.743 349.584 303.75 352.241C303.754 353.609 304.258 354.547 305.056 354.964L305.053 354.97L307.731 356.677L309.943 352.888C310.633 352.057 311.199 351.087 311.584 350.077Z" fill="#37474F"/>
<path d="M310.654 346.74C312.967 345.405 314.852 346.474 314.859 349.132C314.867 351.794 312.994 355.033 310.681 356.368C308.368 357.703 306.483 356.634 306.476 353.972C306.469 351.313 308.342 348.075 310.654 346.74Z" fill="#455A64"/>
<path d="M370.98 347.273V352.446L343.697 337.706V330.573L370.98 347.273Z" fill="#E0E0E0"/>
<path d="M372.557 346.386L345.265 330.174L343.697 330.573L370.98 347.273L372.557 346.386Z" fill="#F5F5F5"/>
<path d="M372.557 351.558L370.98 352.446V347.273L372.557 346.386V351.558Z" fill="#F0F0F0"/>
<path d="M341.866 330.573L338.541 356.942V361.657L341.866 337.996V330.573Z" fill="#E0E0E0"/>
<path d="M338.54 356.942H336.618V361.657H338.54V356.942Z" fill="#F0F0F0"/>
<path d="M336.618 356.942L339.64 330.573H341.866L338.541 356.942H336.618Z" fill="#F5F5F5"/>
<path d="M309.574 342.322V347.273L337.935 335.747V329.686L309.574 342.322Z" fill="#E0E0E0"/>
<path d="M308.475 346.543L309.574 347.273V342.322L308.475 341.611V346.543Z" fill="#F0F0F0"/>
<path d="M312.948 340.819L309.574 342.322L308.475 341.611L337.935 328.338V329.686L312.948 340.819Z" fill="#F5F5F5"/>
<path d="M323.577 323.405V326.647L331.847 331.081L337.935 328.338V327.008L323.577 323.405Z" fill="#E0E0E0"/>
<path d="M323.577 323.405L324.233 323.142L337.935 326.103V327.008L323.577 323.405Z" fill="#F5F5F5"/>
<path d="M335.462 298.466H348.181V320.387C348.175 321.33 347.548 322.272 346.303 322.991C343.813 324.429 339.785 324.431 337.311 322.993C336.072 322.273 335.457 321.33 335.463 320.387V298.466H335.462Z" fill="#E0E0E0"/>
<path d="M285.358 263.228C286.058 264.274 286.965 265.175 288.108 265.827L339.944 293.361C343.427 295.211 347.593 295.252 351.112 293.47L387.425 275.078C392.073 272.724 395.504 268.508 396.865 263.479L414.385 198.752C414.678 198.844 414.969 198.939 415.265 199.023C416.011 199.234 416.78 199.411 417.554 199.371C417.588 199.369 417.621 199.361 417.655 199.358L396.864 276.168C395.503 281.197 392.072 285.413 387.424 287.767L351.111 306.159C347.592 307.941 343.427 307.9 339.943 306.05L288.107 278.516C282.937 275.566 282.449 267.648 285.358 263.228Z" fill="#786CE6"/>
<path opacity="0.3" d="M285.358 263.228C286.058 264.274 286.965 265.175 288.108 265.827L339.944 293.361C343.427 295.211 347.593 295.252 351.112 293.47L387.425 275.078C392.073 272.724 395.504 268.508 396.865 263.479L414.385 198.752C414.678 198.844 414.969 198.939 415.265 199.023C416.011 199.234 416.78 199.411 417.554 199.371C417.588 199.369 417.621 199.361 417.655 199.358L396.864 276.168C395.503 281.197 392.072 285.413 387.424 287.767L351.111 306.159C347.592 307.941 343.427 307.9 339.943 306.05L288.107 278.516C282.937 275.566 282.449 267.648 285.358 263.228Z" fill="black"/>
<path d="M287.776 260.891L325.336 241.622L374.799 267.068C373.187 267.459 371.554 267.782 369.934 268.108C365.681 268.962 361.344 269.904 357.65 272.177C353.956 274.451 350.968 278.34 350.942 282.677L352.265 292.884L351.112 293.468C347.593 295.25 343.428 295.21 339.944 293.359L288.108 265.825C286.965 265.173 286.058 264.273 285.358 263.226C286.003 262.248 286.81 261.435 287.776 260.891Z" fill="#786CE6"/>
<path opacity="0.2" d="M287.776 260.891L325.336 241.622L374.799 267.068C373.187 267.459 371.554 267.782 369.934 268.108C365.681 268.962 361.344 269.904 357.65 272.177C353.956 274.451 350.968 278.34 350.942 282.677L352.265 292.884L351.112 293.468C347.593 295.25 343.428 295.21 339.944 293.359L288.108 265.825C286.965 265.173 286.058 264.273 285.358 263.226C286.003 262.248 286.81 261.435 287.776 260.891Z" fill="black"/>
<path d="M293.244 228.674C293.244 228.674 323.393 237.541 331.373 229.709C341.293 219.973 337.137 195.423 335.954 185.816C334.772 176.21 335.954 169.559 338.614 166.751C341.274 163.943 345.117 159.805 357.602 164.978C344.969 171.481 343.343 202.385 347.333 214.791C337.431 224.98 338.11 240.77 337.919 248.097C337.919 248.097 312.16 254.389 298.711 261.779L293.244 228.674Z" fill="#786CE6"/>
<path opacity="0.1" d="M293.244 228.674C293.244 228.674 323.393 237.541 331.373 229.709C341.293 219.973 337.137 195.423 335.954 185.816C334.772 176.21 335.954 169.559 338.614 166.751C341.274 163.943 345.117 159.805 357.602 164.978C344.969 171.481 343.343 202.385 347.333 214.791C337.431 224.98 338.11 240.77 337.919 248.097C337.919 248.097 312.16 254.389 298.711 261.779L293.244 228.674Z" fill="white"/>
<path d="M298.712 261.778L292.537 258.449C292.542 241.494 290.034 243.157 285.358 236.507C280.682 229.856 287.85 225.718 293.244 228.674C298.638 231.63 300.811 240.524 298.712 261.778Z" fill="#786CE6"/>
<path opacity="0.2" d="M298.712 261.778L292.537 258.449C292.542 241.494 290.034 243.157 285.358 236.507C280.682 229.856 287.85 225.718 293.244 228.674C298.638 231.63 300.811 240.524 298.712 261.778Z" fill="white"/>
<path d="M357.603 164.977C357.603 164.977 391.375 179.608 407.816 187.736L406.619 193.734L352.754 169.275C354.148 167.414 355.754 165.929 357.603 164.977Z" fill="#786CE6"/>
<path opacity="0.1" d="M357.603 164.977C357.603 164.977 391.375 179.608 407.816 187.736L406.619 193.734L352.754 169.275C354.148 167.414 355.754 165.929 357.603 164.977Z" fill="white"/>
<path d="M347.334 214.79C343.928 204.199 344.62 180.138 352.755 169.276L406.62 193.735L394.309 255.44L374.8 267.068L337.921 248.096C338.111 240.77 337.432 224.979 347.334 214.79Z" fill="#786CE6"/>
<path opacity="0.1" d="M347.334 214.79C343.928 204.199 344.62 180.138 352.755 169.276L406.62 193.735L394.309 255.44L374.8 267.068L337.921 248.096C338.111 240.77 337.432 224.979 347.334 214.79Z" fill="black"/>
<path d="M380.671 227.163C379.758 226.636 379.013 227.058 379.011 228.107C379.008 229.158 379.747 230.437 380.661 230.964C381.574 231.491 382.318 231.069 382.321 230.018C382.323 228.969 381.584 227.69 380.671 227.163Z" fill="#786CE6"/>
<path d="M372.335 222.264C371.422 221.737 370.678 222.159 370.675 223.208C370.672 224.259 371.411 225.538 372.324 226.065C373.237 226.592 373.982 226.17 373.984 225.119C373.988 224.071 373.248 222.792 372.335 222.264Z" fill="#786CE6"/>
<path d="M363.999 217.366C363.086 216.839 362.342 217.261 362.339 218.31C362.336 219.361 363.075 220.64 363.989 221.167C364.902 221.694 365.646 221.272 365.649 220.221C365.652 219.172 364.913 217.893 363.999 217.366Z" fill="#786CE6"/>
<path d="M355.664 212.468C354.751 211.941 354.006 212.363 354.003 213.412C354 214.463 354.739 215.742 355.653 216.269C356.566 216.796 357.31 216.374 357.313 215.323C357.317 214.274 356.577 212.995 355.664 212.468Z" fill="#786CE6"/>
<g opacity="0.2">
<path d="M380.671 227.163C379.758 226.636 379.013 227.058 379.011 228.107C379.008 229.158 379.747 230.437 380.661 230.964C381.574 231.491 382.318 231.069 382.321 230.018C382.323 228.969 381.584 227.69 380.671 227.163Z" fill="white"/>
<path d="M372.335 222.264C371.422 221.737 370.678 222.159 370.675 223.208C370.672 224.259 371.411 225.538 372.324 226.065C373.237 226.592 373.982 226.17 373.984 225.119C373.988 224.071 373.248 222.792 372.335 222.264Z" fill="white"/>
<path d="M363.999 217.366C363.086 216.839 362.342 217.261 362.339 218.31C362.336 219.361 363.075 220.64 363.989 221.167C364.902 221.694 365.646 221.272 365.649 220.221C365.652 219.172 364.913 217.893 363.999 217.366Z" fill="white"/>
<path d="M355.664 212.468C354.751 211.941 354.006 212.363 354.003 213.412C354 214.463 354.739 215.742 355.653 216.269C356.566 216.796 357.31 216.374 357.313 215.323C357.317 214.274 356.577 212.995 355.664 212.468Z" fill="white"/>
</g>
<path d="M357.649 272.177C361.343 269.904 365.681 268.962 369.933 268.108C371.553 267.782 373.186 267.459 374.798 267.068C377.416 266.434 379.976 265.621 382.326 264.323C388.285 261.032 392.283 254.881 394.201 248.35C396.119 241.819 396.162 234.888 395.756 228.093C395.35 221.298 394.51 214.512 394.716 207.709C394.836 203.752 395.437 199.515 398.114 196.598C400.871 193.595 405.333 192.66 409.372 193.205C410.706 193.385 412.004 193.712 413.281 194.123L415.07 196.214L414.384 198.75L396.864 263.477C395.643 267.988 392.749 271.832 388.813 274.277C388.361 274.558 387.903 274.833 387.424 275.076L352.264 292.884L350.941 282.677C350.968 278.34 353.955 274.451 357.649 272.177Z" fill="#786CE6"/>
<path opacity="0.3" d="M357.649 272.177C361.343 269.904 365.681 268.962 369.933 268.108C371.553 267.782 373.186 267.459 374.798 267.068C377.416 266.434 379.976 265.621 382.326 264.323C388.285 261.032 392.283 254.881 394.201 248.35C396.119 241.819 396.162 234.888 395.756 228.093C395.35 221.298 394.51 214.512 394.716 207.709C394.836 203.752 395.437 199.515 398.114 196.598C400.871 193.595 405.333 192.66 409.372 193.205C410.706 193.385 412.004 193.712 413.281 194.123L415.07 196.214L414.384 198.75L396.864 263.477C395.643 267.988 392.749 271.832 388.813 274.277C388.361 274.558 387.903 274.833 387.424 275.076L352.264 292.884L350.941 282.677C350.968 278.34 353.955 274.451 357.649 272.177Z" fill="black"/>
<path d="M357.603 265.222C370.463 261.557 383.099 261.079 387.754 251.841C392.409 242.603 392.742 229.857 390.414 207.689C390.112 204.386 390.216 201.552 390.619 199.109C391.988 190.815 396.981 187.269 402.718 187.183C408.363 187.099 413.944 189.147 418.103 192.965C418.883 193.681 419.629 194.482 420.009 195.47C420.389 196.458 420.334 197.674 419.633 198.467C419.142 199.023 418.398 199.298 417.657 199.357C417.623 199.36 417.59 199.369 417.556 199.37C416.781 199.41 416.013 199.233 415.267 199.022C414.971 198.939 414.68 198.843 414.387 198.751C412.814 198.255 411.268 197.666 409.666 197.274C407.766 196.808 405.728 196.64 403.878 197.276C402.028 197.912 400.733 199.555 400.16 201.426C394.738 219.138 401.61 238.169 395.514 252.8C390.526 266.101 373.284 271.621 361.122 275.567C362.297 275.015 363.408 274.396 364.158 273.357C365.459 271.552 365.152 268.864 363.683 267.194C362.212 265.524 359.797 264.855 357.603 265.222Z" fill="#786CE6"/>
<path opacity="0.1" d="M357.603 265.222C370.463 261.557 383.099 261.079 387.754 251.841C392.409 242.603 392.742 229.857 390.414 207.689C390.112 204.386 390.216 201.552 390.619 199.109C391.988 190.815 396.981 187.269 402.718 187.183C408.363 187.099 413.944 189.147 418.103 192.965C418.883 193.681 419.629 194.482 420.009 195.47C420.389 196.458 420.334 197.674 419.633 198.467C419.142 199.023 418.398 199.298 417.657 199.357C417.623 199.36 417.59 199.369 417.556 199.37C416.781 199.41 416.013 199.233 415.267 199.022C414.971 198.939 414.68 198.843 414.387 198.751C412.814 198.255 411.268 197.666 409.666 197.274C407.766 196.808 405.728 196.64 403.878 197.276C402.028 197.912 400.733 199.555 400.16 201.426C394.738 219.138 401.61 238.169 395.514 252.8C390.526 266.101 373.284 271.621 361.122 275.567C362.297 275.015 363.408 274.396 364.158 273.357C365.459 271.552 365.152 268.864 363.683 267.194C362.212 265.524 359.797 264.855 357.603 265.222Z" fill="white"/>
<path d="M348.681 274.323C349.487 272.249 350.502 270.227 351.973 268.557C353.444 266.888 355.409 265.587 357.604 265.221C359.798 264.855 362.213 265.523 363.683 267.194C365.152 268.864 365.459 271.552 364.158 273.357C363.409 274.396 362.298 275.014 361.122 275.567C360.171 276.014 359.178 276.418 358.295 276.96C355.852 278.46 354.264 281.081 353.436 283.826C352.608 286.571 352.457 289.467 352.312 292.331L352.266 292.885L346.245 289.544C345.953 284.435 346.827 279.093 348.681 274.323Z" fill="#786CE6"/>
<path opacity="0.2" d="M348.681 274.323C349.487 272.249 350.502 270.227 351.973 268.557C353.444 266.888 355.409 265.587 357.604 265.221C359.798 264.855 362.213 265.523 363.683 267.194C365.152 268.864 365.459 271.552 364.158 273.357C363.409 274.396 362.298 275.014 361.122 275.567C360.171 276.014 359.178 276.418 358.295 276.96C355.852 278.46 354.264 281.081 353.436 283.826C352.608 286.571 352.457 289.467 352.312 292.331L352.266 292.885L346.245 289.544C345.953 284.435 346.827 279.093 348.681 274.323Z" fill="white"/>
<path opacity="0.1" d="M420.008 195.47C419.628 194.482 418.882 193.681 418.102 192.965C415.188 190.289 411.569 188.506 407.725 187.693C391.252 179.556 357.602 164.978 357.602 164.978C357.164 165.203 356.742 165.463 356.331 165.747C356.743 165.465 357.164 165.204 357.602 164.978C345.116 159.805 341.274 163.943 338.614 166.751C335.954 169.559 334.772 176.209 335.954 185.816C337.136 195.422 341.292 219.973 331.372 229.709C323.392 237.542 293.243 228.674 293.243 228.674C287.849 225.719 280.681 229.856 285.357 236.507C290.033 243.157 292.541 241.495 292.536 258.449L287.775 260.892C286.809 261.435 286.002 262.249 285.357 263.229C282.448 267.649 282.936 275.567 288.107 278.516L339.943 306.05C343.426 307.9 347.592 307.941 351.111 306.159L387.424 287.767C392.072 285.413 395.503 281.198 396.864 276.168L417.655 199.358C418.396 199.299 419.14 199.024 419.631 198.468C420.333 197.673 420.388 196.458 420.008 195.47ZM394.678 268.441C394.502 268.721 394.314 268.99 394.124 269.26C394.314 268.991 394.502 268.72 394.678 268.441ZM354.865 166.928C354.538 167.229 354.218 167.545 353.909 167.883C354.219 167.546 354.537 167.228 354.865 166.928ZM356.044 165.961C355.723 166.196 355.407 166.441 355.102 166.71C355.408 166.443 355.723 166.195 356.044 165.961ZM352.754 169.276C352.508 169.604 352.27 169.946 352.037 170.298C352.581 169.475 353.161 168.715 353.78 168.025C353.427 168.421 353.084 168.836 352.754 169.276ZM347.995 179.489C347.14 182.412 346.512 185.559 346.089 188.76C346.511 185.557 347.14 182.413 347.995 179.489ZM351.994 170.364C351.762 170.718 351.536 171.082 351.318 171.457C351.536 171.081 351.762 170.717 351.994 170.364ZM351.312 171.467C349.962 173.79 348.865 176.517 347.999 179.472C348.865 176.515 349.962 173.791 351.312 171.467ZM346.064 188.945C346.003 189.416 345.947 189.889 345.894 190.362C345.946 189.888 346.003 189.416 346.064 188.945ZM345.861 190.666C345.812 191.124 345.767 191.583 345.726 192.041C345.766 191.582 345.812 191.124 345.861 190.666ZM346.695 212.43C346.657 212.267 346.622 212.099 346.586 211.932C346.622 212.1 346.658 212.268 346.695 212.43ZM345.956 208.223C345.932 208.038 345.906 207.857 345.883 207.67C345.906 207.857 345.931 208.038 345.956 208.223ZM345.735 206.306C345.714 206.09 345.696 205.869 345.677 205.649C345.696 205.868 345.714 206.089 345.735 206.306ZM345.593 204.625C345.574 204.366 345.56 204.102 345.544 203.839C345.56 204.101 345.574 204.366 345.593 204.625ZM345.497 203.02C345.483 202.73 345.471 202.438 345.46 202.144C345.472 202.438 345.483 202.731 345.497 203.02ZM345.436 201.384C345.428 201.072 345.421 200.758 345.416 200.443C345.421 200.758 345.427 201.071 345.436 201.384ZM391.698 272.056C391.99 271.783 392.269 271.497 392.542 271.206C392.269 271.498 391.989 271.782 391.698 272.056ZM393.667 269.884C393.444 270.173 393.212 270.453 392.973 270.728C393.213 270.453 393.445 270.172 393.667 269.884ZM396.019 265.858C396.109 265.648 396.208 265.443 396.29 265.229C396.209 265.443 396.109 265.647 396.019 265.858Z" fill="black"/>
<path d="M329.571 294.887C335.517 292.326 340.551 287.702 343.606 281.995C346.661 276.287 348.181 271.273 347.015 264.905L300.456 246.581C299.013 260.438 286.276 269.515 286.276 269.515L329.571 294.887Z" fill="#37474F"/>
<path d="M278.771 349.54C278.752 353.29 278.895 358.777 278.895 358.777L281.404 358.915C283.836 359.049 285.954 360.623 286.783 362.914L286.84 363.071C287.271 364.262 288.562 364.903 289.771 364.526C290.399 364.33 290.917 363.882 291.202 363.289L292.405 351.003L278.771 349.54Z" fill="#FFA8A7"/>
<path d="M275.215 386.982C268.643 389.789 258.579 390.336 254.403 383.627V385.443C258.579 392.152 268.643 391.604 275.215 388.798C281.787 385.991 280.349 381.404 286.237 378.94C290.002 377.502 291.988 375.312 291.988 375.312C292.011 374.777 292.102 374.106 292.193 373.332C291.137 374.29 288.921 376.101 286.237 377.125C280.35 379.588 281.788 384.175 275.215 386.982Z" fill="#FAFAFA"/>
<path d="M292.194 367.369C291.893 365.392 292.037 364.182 292.227 363.493C292.39 362.904 292.273 362.279 291.928 361.775L291.401 361.247L291.201 363.291C290.917 363.884 290.398 364.332 289.77 364.528C288.561 364.905 287.27 364.264 286.839 363.073L286.782 362.916C285.953 360.625 283.836 359.051 281.403 358.917L278.853 358.776C278.073 358.733 277.355 359.184 277.056 359.905C274.433 366.23 267.838 373.258 262.754 376.475C259.023 376.389 254.402 379.487 254.402 383.253V383.628C258.578 390.337 268.642 389.789 275.214 386.983C281.786 384.176 280.348 379.589 286.236 377.125C288.92 376.1 291.136 374.29 292.192 373.332C292.376 371.775 292.559 369.768 292.194 367.369Z" fill="#786CE6"/>
<path opacity="0.2" d="M292.194 367.369C291.893 365.392 292.037 364.182 292.227 363.493C292.39 362.904 292.273 362.279 291.928 361.775L291.401 361.247L291.201 363.291C290.917 363.884 290.398 364.332 289.77 364.528C288.561 364.905 287.27 364.264 286.839 363.073L286.782 362.916C285.953 360.625 283.836 359.051 281.403 358.917L278.853 358.776C278.073 358.733 277.355 359.184 277.056 359.905C274.433 366.23 267.838 373.258 262.754 376.475C259.023 376.389 254.402 379.487 254.402 383.253V383.628C258.578 390.337 268.642 389.789 275.214 386.983C281.786 384.176 280.348 379.589 286.236 377.125C288.92 376.1 291.136 374.29 292.192 373.332C292.376 371.775 292.559 369.768 292.194 367.369Z" fill="black"/>
<path opacity="0.25" d="M292.194 367.369C291.893 365.392 292.037 364.182 292.227 363.493C292.39 362.904 292.273 362.279 291.928 361.775L291.401 361.247L291.201 363.291C290.917 363.884 290.398 364.332 289.77 364.528C288.561 364.905 287.27 364.264 286.839 363.073L286.782 362.916C285.953 360.625 283.836 359.051 281.403 358.917L278.853 358.776C278.073 358.733 277.355 359.184 277.056 359.905C274.433 366.23 267.838 373.258 262.754 376.475C259.023 376.389 254.402 379.487 254.402 383.253V383.628C258.578 390.337 268.642 389.789 275.214 386.983C281.786 384.176 280.348 379.589 286.236 377.125C288.92 376.1 291.136 374.29 292.192 373.332C292.376 371.775 292.559 369.768 292.194 367.369Z" fill="white"/>
<path d="M279.47 372.558C279.758 372.909 280.282 372.951 280.633 372.663C280.98 372.378 281.051 371.862 280.769 371.513C278.117 368.223 274.911 367.513 272.186 367.743C271.835 368.177 271.477 368.606 271.11 369.027C274.207 368.858 276.979 369.523 279.47 372.558Z" fill="white"/>
<path d="M282.063 369.656C282.351 370.007 282.875 370.049 283.226 369.761C283.573 369.477 283.644 368.96 283.362 368.611C280.725 365.339 277.356 364.492 274.405 364.745C274.091 365.215 273.759 365.681 273.419 366.145C276.63 365.921 279.497 366.529 282.063 369.656Z" fill="white"/>
<path d="M276.776 375.394C277.064 375.745 277.588 375.787 277.94 375.499C278.287 375.214 278.357 374.698 278.076 374.349C275.497 371.149 272.394 370.39 269.719 370.563C269.295 371.01 268.865 371.441 268.434 371.863C271.523 371.698 274.29 372.365 276.776 375.394Z" fill="white"/>
<path d="M262.755 376.474C259.024 376.388 254.403 379.486 254.403 383.252V383.627C258.517 390.237 268.34 389.798 274.914 387.1C274.408 378.069 265.738 376.441 262.755 376.474Z" fill="white"/>
<path d="M274.004 378.103C274.292 378.454 274.816 378.496 275.167 378.208C275.514 377.923 275.585 377.407 275.303 377.058C272.718 373.85 269.605 373.095 266.925 373.273C266.4 373.74 265.878 374.178 265.36 374.592C268.572 374.367 271.438 374.976 274.004 378.103Z" fill="white"/>
<path d="M298.317 326.654C297.796 334.959 295.677 340.976 294.05 352.298C294.05 352.298 284.107 355.266 277.913 350.935L277.655 333.496L298.317 326.654Z" fill="#37474F"/>
<path d="M243.524 336.847C242.688 340.48 241.027 345.321 241.027 345.321L243.536 345.459C245.968 345.593 248.086 347.167 248.915 349.458L248.972 349.616C249.403 350.806 250.694 351.448 251.903 351.071C252.531 350.875 253.049 350.427 253.334 349.834L257.115 339.918L243.524 336.847Z" fill="#FFA8A7"/>
<path d="M237.347 373.526C230.775 376.333 220.711 376.88 216.535 370.171V371.987C220.711 378.696 230.775 378.149 237.347 375.342C243.919 372.535 242.481 367.948 248.369 365.484C252.134 364.046 254.12 361.855 254.12 361.855C254.143 361.32 254.234 360.649 254.325 359.875C253.269 360.833 251.053 362.643 248.369 363.668C242.482 366.132 243.919 370.719 237.347 373.526Z" fill="#FAFAFA"/>
<path d="M254.325 353.913C254.024 351.936 254.168 350.726 254.358 350.037C254.521 349.448 254.404 348.823 254.059 348.318L253.963 348.179L253.332 349.834C253.048 350.427 252.529 350.875 251.901 351.071C250.692 351.448 249.401 350.807 248.97 349.616L248.913 349.458C248.084 347.167 245.967 345.593 243.534 345.459L240.984 345.318C240.204 345.275 239.486 345.726 239.187 346.447C236.564 352.772 229.969 359.8 224.885 363.017C221.154 362.932 216.533 366.029 216.533 369.795V370.17C220.709 376.879 230.773 376.331 237.345 373.525C243.917 370.718 242.479 366.131 248.367 363.667C251.051 362.642 253.267 360.832 254.323 359.874C254.508 358.319 254.691 356.312 254.325 353.913Z" fill="#786CE6"/>
<path opacity="0.2" d="M254.325 353.913C254.024 351.936 254.168 350.726 254.358 350.037C254.521 349.448 254.404 348.823 254.059 348.318L253.963 348.179L253.332 349.834C253.048 350.427 252.529 350.875 251.901 351.071C250.692 351.448 249.401 350.807 248.97 349.616L248.913 349.458C248.084 347.167 245.967 345.593 243.534 345.459L240.984 345.318C240.204 345.275 239.486 345.726 239.187 346.447C236.564 352.772 229.969 359.8 224.885 363.017C221.154 362.932 216.533 366.029 216.533 369.795V370.17C220.709 376.879 230.773 376.331 237.345 373.525C243.917 370.718 242.479 366.131 248.367 363.667C251.051 362.642 253.267 360.832 254.323 359.874C254.508 358.319 254.691 356.312 254.325 353.913Z" fill="black"/>
<path opacity="0.25" d="M254.325 353.913C254.024 351.936 254.168 350.726 254.358 350.037C254.521 349.448 254.404 348.823 254.059 348.318L253.963 348.179L253.332 349.834C253.048 350.427 252.529 350.875 251.901 351.071C250.692 351.448 249.401 350.807 248.97 349.616L248.913 349.458C248.084 347.167 245.967 345.593 243.534 345.459L240.984 345.318C240.204 345.275 239.486 345.726 239.187 346.447C236.564 352.772 229.969 359.8 224.885 363.017C221.154 362.932 216.533 366.029 216.533 369.795V370.17C220.709 376.879 230.773 376.331 237.345 373.525C243.917 370.718 242.479 366.131 248.367 363.667C251.051 362.642 253.267 360.832 254.323 359.874C254.508 358.319 254.691 356.312 254.325 353.913Z" fill="white"/>
<path d="M241.601 359.102C241.889 359.453 242.413 359.495 242.764 359.207C243.111 358.922 243.182 358.406 242.9 358.057C240.248 354.767 237.042 354.057 234.317 354.287C233.966 354.721 233.608 355.15 233.241 355.571C236.339 355.402 239.111 356.067 241.601 359.102Z" fill="white"/>
<path d="M244.195 356.201C244.483 356.552 245.007 356.594 245.359 356.306C245.706 356.022 245.776 355.505 245.495 355.156C242.858 351.884 239.489 351.037 236.538 351.29C236.224 351.76 235.892 352.226 235.552 352.69C238.762 352.465 241.628 353.074 244.195 356.201Z" fill="white"/>
<path d="M238.908 361.939C239.196 362.29 239.72 362.332 240.071 362.044C240.418 361.76 240.489 361.243 240.207 360.894C237.628 357.694 234.525 356.935 231.85 357.108C231.426 357.555 230.996 357.986 230.565 358.408C233.655 358.241 236.422 358.909 238.908 361.939Z" fill="white"/>
<path d="M224.887 363.019C221.156 362.934 216.535 366.031 216.535 369.797V370.172C220.649 376.782 230.472 376.343 237.046 373.645C236.539 364.614 227.87 362.985 224.887 363.019Z" fill="white"/>
<path d="M236.136 364.647C236.424 364.998 236.948 365.04 237.299 364.752C237.646 364.467 237.717 363.951 237.435 363.602C234.85 360.394 231.737 359.639 229.057 359.817C228.532 360.284 228.01 360.722 227.492 361.136C230.703 360.911 233.569 361.52 236.136 364.647Z" fill="white"/>
<path d="M266.513 317.331C264.593 325.428 261.486 331 257.966 341.883C257.966 341.883 247.664 343.125 242.293 337.807L246.916 309.375L266.513 317.331Z" fill="#37474F"/>
<path d="M141.539 258.845V344.625L144.572 342.871V257.09L141.539 258.845Z" fill="#455A64"/>
<path d="M141.539 258.845V344.625L138.506 342.871V257.09L141.539 258.845Z" fill="#37474F"/>
<path d="M144.572 281.719L215.566 240.731V237.472L144.572 278.46V281.719Z" fill="#455A64"/>
<path d="M144.572 275.017L212.533 235.72L215.566 237.472L144.572 278.46V275.017Z" fill="#37474F"/>
<path d="M355.812 297.163V382.944L358.845 381.189V295.409L355.812 297.163Z" fill="#455A64"/>
<path d="M355.812 297.163V382.944L352.779 381.189V295.409L355.812 297.163Z" fill="#37474F"/>
<path d="M281.786 339.918V425.698L284.819 423.943V338.163L281.786 339.918Z" fill="#455A64"/>
<path d="M281.786 339.918V425.698L278.753 423.943V338.163L281.786 339.918Z" fill="#37474F"/>
<path d="M284.819 362.792L355.812 321.804V318.544L284.819 359.533V362.792Z" fill="#455A64"/>
<path d="M284.819 356.09L352.779 316.793L355.812 318.544L284.819 359.533V356.09Z" fill="#37474F"/>
<g opacity="0.2">
<path d="M355.812 297.163V382.944L358.845 381.189V295.409L355.812 297.163Z" fill="white"/>
<path d="M355.812 297.163V382.944L352.779 381.189V295.409L355.812 297.163Z" fill="white"/>
<path d="M281.786 339.918V425.698L284.819 423.943V338.163L281.786 339.918Z" fill="white"/>
<path d="M281.786 339.918V425.698L278.753 423.943V338.163L281.786 339.918Z" fill="white"/>
<path d="M284.819 362.792L355.812 321.804V318.544L284.819 359.533V362.792Z" fill="white"/>
<path d="M284.819 356.09L352.779 316.793L355.812 318.544L284.819 359.533V356.09Z" fill="white"/>
</g>
<g opacity="0.2">
<path d="M141.539 258.845V344.625L144.572 342.871V257.09L141.539 258.845Z" fill="white"/>
<path d="M141.539 258.845V344.625L138.506 342.871V257.09L141.539 258.845Z" fill="white"/>
<path d="M144.572 281.719L215.566 240.731V237.472L144.572 278.46V281.719Z" fill="white"/>
<path d="M144.572 275.017L212.533 235.72L215.566 237.472L144.572 278.46V275.017Z" fill="white"/>
</g>
<path d="M281.786 331.635L138.501 249.054L215.561 204.544L358.845 287.125L281.786 331.635Z" fill="#455A64"/>
<path d="M281.786 339.918L138.501 257.091V249.054L281.786 331.635V339.918Z" fill="#455A64"/>
<path d="M281.786 331.625L358.845 287.116V295.409L281.786 339.918V331.625Z" fill="#455A64"/>
<path opacity="0.3" d="M281.786 331.635L138.501 249.054L215.561 204.544L358.845 287.125L281.786 331.635Z" fill="white"/>
<path opacity="0.1" d="M281.786 331.625L358.845 287.116V295.409L281.786 339.918V331.625Z" fill="white"/>
<path opacity="0.2" d="M281.786 339.918L138.501 257.091V249.054L281.786 331.635V339.918Z" fill="white"/>
<path d="M222.745 224.196L211.258 249.321L181.267 244.671L192.754 219.546L222.745 224.196Z" fill="#E6E6E6"/>
<path d="M234.011 229.062L208.046 250.241L182.732 239.805L208.691 218.63L234.011 229.062Z" fill="#F0F0F0"/>
<path d="M239.327 221.985L254.884 237.56L216.042 250.535L200.472 234.96L239.327 221.985Z" fill="white"/>
<path d="M216.194 264.416L247.635 246.145C249.412 245.112 252.299 245.112 254.087 246.145L305.959 276.094C306.81 276.586 307.247 277.223 307.292 277.868L307.306 277.87V279.865L307.277 279.861C307.273 280 307.278 280.139 307.237 280.276C307.233 280.29 307.233 280.304 307.228 280.317C307.179 280.467 307.101 280.614 307.007 280.758C306.997 280.774 306.992 280.79 306.981 280.806C306.877 280.956 306.745 281.1 306.592 281.238C306.583 281.246 306.577 281.255 306.568 281.264C306.402 281.41 306.21 281.549 305.988 281.677L274.548 299.948C274.273 300.108 273.966 300.234 273.646 300.345C273.533 300.384 273.417 300.418 273.3 300.451C273.149 300.493 272.999 300.533 272.842 300.565C272.658 300.603 272.472 300.637 272.283 300.661C272.238 300.667 272.195 300.675 272.15 300.68C271.896 300.707 271.638 300.72 271.38 300.722C271.339 300.722 271.298 300.723 271.257 300.722C271.003 300.72 270.749 300.706 270.498 300.68C270.46 300.676 270.422 300.672 270.384 300.667C270.135 300.637 269.89 300.595 269.65 300.541C269.606 300.531 269.562 300.519 269.518 300.509C269.301 300.455 269.09 300.39 268.886 300.316C268.848 300.302 268.809 300.292 268.772 300.278C268.527 300.183 268.293 300.075 268.076 299.95L216.204 270.002C215.98 269.873 215.784 269.733 215.616 269.586C215.557 269.535 215.52 269.478 215.469 269.425C215.372 269.326 215.269 269.229 215.196 269.125C215.151 269.061 215.131 268.994 215.095 268.929C215.041 268.831 214.977 268.734 214.944 268.634C214.92 268.563 214.921 268.491 214.908 268.419C214.889 268.322 214.86 268.225 214.86 268.127V266.287C214.86 265.609 215.303 264.934 216.194 264.416Z" fill="#E0E0E0"/>
<path opacity="0.3" d="M307.292 277.867C307.305 278.057 307.294 278.248 307.237 278.435C307.233 278.449 307.233 278.463 307.228 278.476C307.179 278.626 307.101 278.773 307.007 278.917C306.997 278.933 306.992 278.949 306.981 278.964C306.877 279.114 306.745 279.258 306.592 279.397C306.583 279.405 306.577 279.414 306.568 279.422C306.402 279.568 306.21 279.707 305.988 279.835L274.548 298.106C274.273 298.266 273.966 298.392 273.646 298.503C273.533 298.542 273.417 298.576 273.3 298.609C273.149 298.651 272.999 298.691 272.842 298.723C272.658 298.761 272.472 298.795 272.283 298.819C272.238 298.824 272.195 298.833 272.15 298.837C271.895 298.864 271.638 298.877 271.38 298.879C271.339 298.879 271.298 298.88 271.257 298.88C271.003 298.878 270.749 298.864 270.498 298.837C270.46 298.833 270.422 298.829 270.384 298.824C270.135 298.794 269.89 298.752 269.65 298.698C269.606 298.688 269.562 298.676 269.518 298.666C269.301 298.612 269.09 298.547 268.886 298.473C268.848 298.46 268.809 298.449 268.772 298.435C268.527 298.34 268.293 298.232 268.076 298.107L216.204 268.159C215.98 268.03 215.784 267.89 215.616 267.743C215.557 267.692 215.52 267.635 215.469 267.582C215.372 267.483 215.269 267.386 215.196 267.282C215.151 267.218 215.131 267.151 215.095 267.086C215.041 266.988 214.977 266.891 214.944 266.791C214.92 266.72 214.921 266.648 214.908 266.576C214.889 266.479 214.86 266.382 214.86 266.284V268.124C214.86 268.222 214.889 268.318 214.908 268.416C214.922 268.488 214.921 268.56 214.944 268.631C214.978 268.731 215.041 268.828 215.095 268.926C215.131 268.991 215.151 269.058 215.196 269.122C215.269 269.226 215.373 269.323 215.469 269.422C215.521 269.475 215.557 269.532 215.616 269.583C215.784 269.73 215.98 269.869 216.204 269.999L268.076 299.947C268.292 300.072 268.527 300.181 268.772 300.275C268.809 300.289 268.848 300.3 268.886 300.313C269.09 300.387 269.301 300.452 269.518 300.506C269.562 300.517 269.606 300.528 269.65 300.538C269.89 300.592 270.135 300.634 270.384 300.664C270.422 300.669 270.46 300.673 270.498 300.677C270.749 300.703 271.003 300.717 271.257 300.719C271.298 300.719 271.339 300.719 271.38 300.719C271.638 300.717 271.896 300.704 272.15 300.677C272.195 300.672 272.239 300.664 272.283 300.658C272.472 300.634 272.658 300.6 272.842 300.562C272.998 300.53 273.149 300.49 273.3 300.448C273.417 300.415 273.533 300.381 273.646 300.342C273.965 300.231 274.273 300.105 274.548 299.945L305.988 281.674C306.209 281.546 306.402 281.407 306.568 281.261C306.577 281.253 306.583 281.243 306.592 281.235C306.745 281.097 306.877 280.952 306.981 280.803C306.992 280.787 306.997 280.771 307.007 280.755C307.101 280.611 307.179 280.464 307.228 280.314C307.233 280.3 307.233 280.286 307.237 280.273C307.278 280.136 307.273 279.997 307.277 279.858L307.306 279.862V277.867H307.292Z" fill="black"/>
<path d="M219.264 266.284L269.657 295.379C269.709 295.41 269.765 295.436 269.855 295.474L269.964 295.511C270.058 295.546 270.156 295.577 270.358 295.626C270.493 295.658 270.63 295.68 270.635 295.684L270.826 295.702C270.96 295.716 271.106 295.723 271.317 295.727H271.361C271.516 295.725 271.672 295.718 271.877 295.693C271.985 295.679 272.089 295.659 272.206 295.635C272.284 295.619 272.614 295.526 272.614 295.526C272.734 295.485 272.854 295.446 272.963 295.381L289.173 285.956L237.119 255.903L219.264 266.284Z" fill="#E0E0E0"/>
<path d="M271.375 295.729C271.352 295.729 271.339 295.728 271.318 295.728H271.3L271.375 295.729Z" fill="#263238"/>
<path d="M267.205 258.281L257.725 263.857C257.092 264.23 257.095 265.147 257.732 265.514L271.908 273.699C272.4 273.983 273.006 273.98 273.495 273.692L282.975 268.116C283.608 267.744 283.604 266.826 282.968 266.459L268.793 258.274C268.301 257.991 267.695 257.993 267.205 258.281Z" fill="#E0E0E0"/>
<path opacity="0.2" d="M219.264 266.284L269.657 295.379C269.709 295.41 269.765 295.436 269.855 295.474L269.964 295.511C270.058 295.546 270.156 295.577 270.358 295.626C270.493 295.658 270.63 295.68 270.635 295.684L270.826 295.702C270.96 295.716 271.106 295.723 271.317 295.727H271.361C271.516 295.725 271.672 295.718 271.877 295.693C271.985 295.679 272.089 295.659 272.206 295.635C272.284 295.619 272.614 295.526 272.614 295.526C272.734 295.485 272.854 295.446 272.963 295.381L289.173 285.956L237.119 255.903L219.264 266.284Z" fill="black"/>
<path opacity="0.2" d="M267.205 258.281L257.725 263.857C257.092 264.23 257.095 265.147 257.732 265.514L271.908 273.699C272.4 273.983 273.006 273.98 273.495 273.692L282.975 268.116C283.608 267.744 283.604 266.826 282.968 266.459L268.793 258.274C268.301 257.991 267.695 257.993 267.205 258.281Z" fill="black"/>
<path d="M292.199 214.368L285.86 230.41L260.839 240.719C259.324 241.343 257.683 241.599 256.05 241.464L246.421 240.673C245.291 240.58 244.16 240.846 243.19 241.434L237.676 244.774C237.122 245.11 236.626 245.533 236.208 246.029L233.509 249.227C232.747 250.131 232.917 251.492 233.878 252.18L235.575 253.395C237.402 254.702 239.803 254.888 241.808 253.876L246.073 251.726L254.883 252.692V254.992L252.496 257.037C251.289 258.071 251.317 259.947 252.555 260.945C252.555 260.945 258.447 259.199 263.784 250.651L295.088 244.039C298.666 243.283 301.591 240.717 302.805 237.267L308.802 220.228L292.199 214.368Z" fill="#FFA8A7"/>
<path d="M309.436 187.242C305.177 186.761 302.602 186.935 298.555 193.735C293.661 201.958 288.969 217.743 288.969 217.743C298.378 222.343 309.436 223.087 309.436 223.087C311.829 217.062 309.436 187.242 309.436 187.242Z" fill="#786CE6"/>
<g opacity="0.3">
<path d="M309.436 187.242C305.177 186.761 302.602 186.935 298.555 193.735C293.661 201.958 288.969 217.743 288.969 217.743C298.378 222.343 309.436 223.087 309.436 223.087C311.829 217.062 309.436 187.242 309.436 187.242Z" fill="white"/>
</g>
<path d="M343.795 194.717C330.414 188.445 320.378 187.712 309.436 187.242C293.058 197.784 299.191 206.565 299.47 220.643C299.705 232.503 301.917 240.406 296.775 251.352L328.52 269.648C337.725 269.541 345.122 267.366 348.116 265.464C352.298 226.497 351.073 197.722 343.795 194.717Z" fill="#786CE6"/>
<path opacity="0.5" d="M343.795 194.717C330.414 188.445 320.378 187.712 309.436 187.242C293.058 197.784 299.191 206.565 299.47 220.643C299.705 232.503 301.917 240.406 296.775 251.352L328.52 269.648C337.725 269.541 345.122 267.366 348.116 265.464C352.298 226.497 351.073 197.722 343.795 194.717Z" fill="white"/>
<path d="M330.553 231.376L326.58 249.078L299.012 260.437C297.343 261.125 295.535 261.406 293.736 261.258L283.126 260.386C281.881 260.284 280.635 260.577 279.566 261.225L273.49 264.905C272.879 265.275 272.333 265.742 271.873 266.288L268.9 269.812C268.06 270.807 268.248 272.308 269.307 273.066L271.177 274.404C273.189 275.844 275.835 276.049 278.044 274.934L282.743 272.565L290.451 273.959C293.939 274.59 297.538 273.996 300.639 272.277L302.257 271.38L335.88 264.278C340.28 263.349 343.739 259.948 344.743 255.564L349.229 235.976L330.553 231.376Z" fill="#FFA8A7"/>
<path d="M343.795 194.717C359.824 200.711 356.177 214.956 350.265 237.522C340.729 240.157 329.439 231.863 329.439 231.863C332.574 214.022 333.759 194.438 343.795 194.717Z" fill="#786CE6"/>
<path opacity="0.3" d="M343.795 194.717C359.824 200.711 356.177 214.956 350.265 237.522C340.729 240.157 329.439 231.863 329.439 231.863C332.574 214.022 333.759 194.438 343.795 194.717Z" fill="white"/>
<path d="M207.724 227.79L207.71 227.785L208.951 227.165L208.953 227.174C209.377 226.997 209.878 226.992 210.341 227.261L262.572 257.629C264.213 258.583 265.336 260.225 265.631 262.1L271.001 296.247C271.118 296.993 270.707 297.614 270.124 297.899L270.146 297.903L268.943 298.495V298.489C268.528 298.647 268.046 298.639 267.6 298.38L215.369 268.012C213.728 267.058 212.605 265.416 212.31 263.541L206.94 229.394C206.831 228.689 207.193 228.095 207.724 227.79Z" fill="#E0E0E0"/>
<path d="M236.209 259.037C238.74 260.498 241.052 263.839 241.392 266.503C241.732 269.167 239.973 270.157 237.442 268.696C234.923 267.242 232.599 263.894 232.259 261.23C231.919 258.566 233.69 257.583 236.209 259.037Z" fill="white"/>
<path opacity="0.3" d="M269.951 296.772L264.581 262.625C264.286 260.75 263.163 259.108 261.522 258.154L209.291 227.786C208.761 227.478 208.18 227.528 207.724 227.79L207.71 227.785L208.951 227.165L208.953 227.174C209.377 226.997 209.878 226.992 210.341 227.261L262.572 257.629C264.213 258.583 265.336 260.225 265.631 262.1L271.001 296.247C271.118 296.993 270.707 297.614 270.124 297.899L270.146 297.903L268.943 298.495V298.489C269.597 298.24 270.077 297.574 269.951 296.772Z" fill="black"/>
<path d="M300.002 170.407C297.654 168.721 295.969 166.137 295.372 163.309C294.775 160.481 295.272 157.436 296.738 154.944C295.466 154.334 294.232 153.32 293.652 152.034C293.094 150.795 293.371 149.228 294.319 148.255C295.267 147.282 296.826 146.964 298.079 147.489C297.297 145.566 298.198 142.952 299.988 141.902C301.778 140.852 304.308 141.32 305.605 142.941C305.519 141.62 306.435 140.349 307.693 139.935C308.951 139.522 310.334 139.75 311.586 140.179C312.838 140.608 314.019 141.231 315.281 141.63C317.412 142.305 319.686 142.319 321.916 142.476C324.146 142.634 326.449 142.97 328.325 144.185C330.202 145.4 331.858 148.239 330.846 150.685C331.477 149.883 332.488 149.307 333.508 149.273C334.528 149.239 335.554 149.674 336.238 150.432C334.842 151.297 333.492 152.228 332.097 153.092C333.502 152.461 335.596 153.451 336.356 154.791C337.116 156.13 337.152 157.75 337.107 159.289C336.935 165.137 335.869 170.953 334.021 176.504C333.066 179.374 331.687 182.415 328.967 183.74L300.002 170.407Z" fill="#37474F"/>
<path d="M314.803 184.226L315.417 191.089C315.465 191.623 315.295 192.137 315.029 192.602C314.258 193.947 314.497 196.094 315.635 197.086C316.463 197.807 317.605 198.046 318.7 198.125C322.933 198.433 327.25 196.606 330.041 193.75C330.65 193.127 330.962 192.272 330.939 191.401L330.489 173.999L314.803 184.226Z" fill="#FFA8A7"/>
<path opacity="0.3" d="M329.107 174.899L314.803 184.226L315.347 190.312C318.672 189.533 322.018 188.573 324.649 186.433C327.996 183.711 329.738 179.162 329.107 174.899Z" fill="black"/>
<path d="M299.21 156.266C298.16 164.199 298.687 172.337 300.75 180.068C301.202 181.762 301.735 183.455 302.639 184.957C303.543 186.459 304.855 187.77 306.497 188.384C308.516 189.14 310.761 188.775 312.884 188.401C316.767 187.717 320.751 186.995 324.124 184.954C327.497 182.913 330.172 179.224 329.845 175.294C331.81 176.422 334.295 176.718 336.293 175.651C338.291 174.583 339.675 172.445 339.829 170.184C339.98 167.984 338.708 165.532 336.546 165.097C335.225 164.831 333.844 165.359 332.788 166.196C331.732 167.033 330.942 168.152 330.167 169.254C329.798 169.779 329.412 170.32 328.862 170.65C328.312 170.981 327.547 171.046 327.059 170.629C326.525 170.173 326.515 169.367 326.546 168.666L326.774 163.685C326.81 162.901 326.369 162.187 325.669 161.831C324.654 161.314 323.88 160.365 323.437 159.264C323.054 158.311 322.889 157.295 322.806 156.267C322.739 155.439 321.897 154.911 321.126 155.222C314.441 157.918 306.105 158.038 299.21 156.266Z" fill="#FFA8A7"/>
<path d="M310.167 168.347L305.687 175.888L311.028 176.891L310.167 168.347Z" fill="#F28F8F"/>
<path d="M316.177 179.49C314.824 180.148 313.471 180.806 312.118 181.463C312.709 182.385 314.196 182.786 315.195 182.338C316.194 181.889 316.473 180.544 316.177 179.49Z" fill="#F28F8F"/>
<path opacity="0.3" d="M316.177 179.49C314.824 180.148 313.471 180.806 312.118 181.463C312.709 182.385 314.196 182.786 315.195 182.338C316.194 181.889 316.473 180.544 316.177 179.49Z" fill="black"/>
<path d="M313.786 182.471C314.274 182.557 314.777 182.526 315.195 182.338C315.979 181.986 316.314 181.082 316.281 180.199C315.705 180.202 315.128 180.39 314.681 180.755C314.167 181.176 313.852 181.811 313.786 182.471Z" fill="#F28F8F"/>
<path d="M317.902 168.647C317.987 169.49 317.373 170.242 316.53 170.327C315.687 170.412 314.935 169.798 314.85 168.955C314.765 168.112 315.38 167.36 316.222 167.275C317.065 167.19 317.817 167.804 317.902 168.647Z" fill="#263238"/>
<path d="M305.038 169.444C305.123 170.287 304.508 171.039 303.666 171.124C302.823 171.209 302.071 170.594 301.986 169.752C301.901 168.909 302.516 168.157 303.358 168.072C304.201 167.987 304.953 168.601 305.038 169.444Z" fill="#263238"/>
<path d="M302.94 163.52C301.891 164.413 300.842 165.307 299.793 166.2C299.377 165.431 299.595 164.357 300.212 163.739C300.83 163.12 302.171 163.105 302.94 163.52Z" fill="#263238"/>
<path d="M315.991 162.019C317.198 162.685 318.404 163.351 319.61 164.018C319.864 163.182 319.436 162.172 318.708 161.69C317.98 161.207 316.663 161.459 315.991 162.019Z" fill="#263238"/>
</svg>
