<svg width="2800" height="2775" viewBox="0 0 2800 2775" fill="none" xmlns="http://www.w3.org/2000/svg">
<path d="M2458.64 2380.56C2401.54 2440.17 2347.5 2478.61 2304.81 2508.98C1803 2865.97 1209.22 2761.91 1083.02 2736.5C896.671 2698.97 536.459 2626.43 276.033 2322.78C-117.971 1863.38 -56.6191 1139.62 248.997 661.847C304.899 574.455 600.19 89.4094 1200.37 11.6234C1563.59 -35.4516 1986.98 59.4934 2293.6 314.188C2937.21 848.815 2891.39 1928.86 2458.64 2380.56Z" fill="url(#paint0_linear_6_2423)"/>
<path d="M521.995 1531.91C521.995 1531.91 392.039 1251.82 489.418 1119.31C586.796 986.805 814.035 831.532 646.387 421.089C548.239 180.797 508.835 74.2105 493.033 27.1325C486.869 8.76846 464.927 1.33246 448.905 12.2185C335.57 89.2295 -23.8201 359.579 11.2779 669.938C52.8859 1037.87 521.995 1531.91 521.995 1531.91Z" fill="#786CE6"/>
<path d="M402.653 166.862C319.754 346.733 256.179 628.871 265.786 879.148C270.413 919.07 271.692 1007.7 316.068 1146.83C352.272 1263.22 409.43 1377.98 458.013 1449.27C461.085 1453.77 467.228 1454.94 471.734 1451.86C479.484 1446.58 474.405 1437.99 474.453 1438.31C399.804 1312.88 334.849 1144.58 308.53 978.672C278.132 774.121 310.837 548.73 359.052 348.651L364.305 328.729C403.162 177.165 421.354 168.252 409.679 163.95C406.922 162.933 403.869 164.243 402.653 166.862Z" fill="white"/>
<path d="M629.534 1629.27C613.486 1644.85 633.034 1306.08 567.222 891C536.209 695.404 559.319 484.668 636.054 360.391C699.918 256.96 1015.34 206.522 1119.36 192.512C1132.35 190.761 1141.53 204.915 1134.58 216.043C1100.37 270.904 1029.99 396.943 1034.33 499.481C1040.05 634.633 947.892 751.763 849.376 807.399C750.86 863.035 698.932 902.818 702.425 1088.18C705.919 1273.54 675.132 1585.02 629.534 1629.27Z" fill="#BDD0FB"/>
<path d="M998.3 289.787C874.741 335.788 758.869 436.676 725.506 566.063L722.393 578.386C715.321 607.208 686.485 805.124 685.643 961.683C685.633 963.634 687.207 965.225 689.158 965.236C692.473 965.253 692.9 961.472 692.71 961.856C699.356 871.404 713.277 754.938 725.965 667.102C739.109 571.484 748.915 506.434 822.76 423.157C905.581 332.4 1000.71 294.882 1000.43 295.037C1001.87 294.404 1002.51 292.729 1001.88 291.297C1001.27 289.921 999.693 289.272 998.3 289.787Z" fill="white"/>
<path d="M1058.28 530.678C1191.53 530.678 1299.55 422.654 1299.55 289.401C1299.55 156.147 1191.53 48.1235 1058.28 48.1235C925.023 48.1235 817 156.147 817 289.401C817 422.654 925.023 530.678 1058.28 530.678Z" fill="url(#paint1_linear_6_2423)"/>
<path d="M142.905 2133.5C142.905 2158.41 163.305 2178.79 188.238 2178.79H2639.69C2664.62 2178.79 2685.02 2158.41 2685.02 2133.5L2705.42 724.723C2705.42 699.814 2676.07 651.184 2622.29 654.838L226.46 592.846C195.176 592.037 164.928 604.077 142.774 626.159C120.62 648.241 108.499 678.431 109.238 709.687L142.905 2133.5Z" fill="url(#paint2_linear_6_2423)"/>
<path d="M187.661 2090.05C187.661 2113.64 206.961 2132.94 230.549 2132.94H2580.57C2604.16 2132.94 2623.46 2113.64 2623.46 2090.05L2642.71 811.15C2640.44 734.188 2572.97 706.528 2532.07 708.161L235.883 646.558C213.905 645.968 192.655 654.436 177.088 669.963C161.521 685.49 152.96 706.739 153.511 728.718L187.661 2090.05Z" fill="#786CE6"/>
<path d="M22.0799 2295.74H2794.35C2797.46 2295.74 2800 2293.2 2800 2290.09V2177.61C2800 2174.5 2797.46 2171.96 2794.35 2171.96H22.0799C18.9699 2171.96 16.4259 2174.5 16.4259 2177.61V2290.09C16.4259 2293.2 18.9699 2295.74 22.0799 2295.74Z" fill="url(#paint3_linear_6_2423)"/>
<path opacity="0.53" d="M961.604 841.141L338.13 836.774C333.556 836.742 329.875 833.008 329.907 828.435L330.186 788.56C330.218 783.987 333.952 780.305 338.525 780.337L961.999 784.704C966.572 784.736 970.254 788.47 970.222 793.043L969.943 832.918C969.911 837.492 966.178 841.173 961.604 841.141Z" fill="#BDD0FB"/>
<path opacity="0.53" d="M1362.57 845.175L1153.88 843.714C1149.49 843.683 1145.96 840.101 1145.99 835.713L1146.28 795.167C1146.31 790.779 1149.89 787.247 1154.28 787.278L1362.96 788.738C1367.35 788.769 1370.88 792.351 1370.85 796.74L1370.57 837.286C1370.54 841.674 1366.96 845.206 1362.57 845.175Z" fill="#BDD0FB"/>
<path opacity="0.53" d="M1847.7 848.573L1429.43 845.644C1422.45 845.595 1416.83 839.9 1416.88 832.924L1417.1 801.75C1417.15 794.774 1422.85 789.158 1429.82 789.207L1848.09 792.136C1855.07 792.185 1860.69 797.88 1860.64 804.856L1860.42 836.03C1860.37 843.006 1854.67 848.622 1847.7 848.573Z" fill="#BDD0FB"/>
<path opacity="0.53" d="M487.133 937.009L340.821 935.984C333.845 935.935 328.229 930.24 328.278 923.264L328.496 892.09C328.545 885.114 334.24 879.498 341.216 879.547L487.528 880.572C494.504 880.621 500.12 886.316 500.071 893.292L499.853 924.466C499.804 931.442 494.109 937.058 487.133 937.009Z" fill="#BDD0FB"/>
<path opacity="0.53" d="M962.176 940.438L513.27 937.294C508.696 937.262 505.015 933.528 505.047 928.955L505.326 889.08C505.358 884.507 509.092 880.825 513.665 880.857L962.571 884.001C967.144 884.033 970.826 887.767 970.794 892.34L970.515 932.215C970.483 936.789 966.749 940.47 962.176 940.438Z" fill="#BDD0FB"/>
<path opacity="0.53" d="M1363.68 944.475L1154.99 943.013C1150.6 942.982 1147.07 939.4 1147.1 935.012L1147.39 894.466C1147.42 890.078 1151 886.545 1155.39 886.576L1364.07 888.038C1368.46 888.069 1372 891.651 1371.96 896.039L1371.68 936.585C1371.65 940.974 1368.07 944.506 1363.68 944.475Z" fill="#BDD0FB"/>
<path opacity="0.53" d="M2210.13 950.404L1585.64 946.03C1578.66 945.981 1573.05 940.286 1573.1 933.31L1573.31 902.136C1573.36 895.16 1579.06 889.544 1586.03 889.593L2210.52 893.967C2217.5 894.016 2223.11 899.711 2223.07 906.687L2222.85 937.861C2222.8 944.838 2217.1 950.453 2210.13 950.404Z" fill="#BDD0FB"/>
<path opacity="0.53" d="M486.313 1036.15L340.001 1035.13C333.025 1035.08 327.409 1029.38 327.458 1022.41L327.676 991.233C327.725 984.257 333.42 978.641 340.396 978.69L486.708 979.715C493.684 979.764 499.3 985.459 499.251 992.435L499.033 1023.61C498.984 1030.58 493.289 1036.2 486.313 1036.15Z" fill="#BDD0FB"/>
<path opacity="0.53" d="M961.259 1039.58L512.353 1036.44C507.78 1036.4 504.098 1032.67 504.13 1028.1L504.409 988.221C504.441 983.648 508.175 979.966 512.748 979.998L961.654 983.142C966.227 983.174 969.909 986.908 969.877 991.481L969.598 1031.36C969.566 1035.93 965.832 1039.61 961.259 1039.58Z" fill="#BDD0FB"/>
<path opacity="0.53" d="M1362.82 1043.62L1154.13 1042.16C1149.75 1042.12 1146.21 1038.54 1146.24 1034.15L1146.53 993.608C1146.56 989.22 1150.14 985.687 1154.53 985.718L1363.22 987.18C1367.6 987.211 1371.14 990.793 1371.11 995.181L1370.82 1035.73C1370.79 1040.12 1367.21 1043.65 1362.82 1043.62Z" fill="#BDD0FB"/>
<path opacity="0.53" d="M2485.86 1051.48L1664.46 1045.73C1657.48 1045.68 1651.86 1039.99 1651.91 1033.01L1652.13 1001.84C1652.18 994.859 1657.87 989.243 1664.85 989.292L2486.26 995.045C2493.23 995.094 2498.85 1000.79 2498.8 1007.77L2498.58 1038.94C2498.53 1045.92 2492.84 1051.53 2485.86 1051.48Z" fill="#BDD0FB"/>
<path opacity="0.53" d="M486.997 1135.45L340.685 1134.42C333.709 1134.37 328.093 1128.68 328.142 1121.7L328.36 1090.53C328.409 1083.55 334.104 1077.94 341.08 1077.99L487.392 1079.01C494.368 1079.06 499.984 1084.76 499.935 1091.73L499.717 1122.91C499.668 1129.88 493.973 1135.5 486.997 1135.45Z" fill="#BDD0FB"/>
<path opacity="0.53" d="M963.01 1138.88L514.104 1135.74C509.531 1135.71 505.849 1131.97 505.881 1127.4L506.16 1087.53C506.192 1082.95 509.926 1079.27 514.499 1079.3L963.405 1082.45C967.979 1082.48 971.66 1086.21 971.628 1090.79L971.349 1130.66C971.317 1135.24 967.583 1138.92 963.01 1138.88Z" fill="#BDD0FB"/>
<path opacity="0.53" d="M1363.93 1142.92L1155.24 1141.46C1150.85 1141.42 1147.32 1137.84 1147.35 1133.45L1147.64 1092.91C1147.67 1088.52 1151.25 1084.99 1155.64 1085.02L1364.32 1086.48C1368.71 1086.51 1372.24 1090.09 1372.21 1094.48L1371.93 1135.03C1371.9 1139.42 1368.32 1142.95 1363.93 1142.92Z" fill="#BDD0FB"/>
<path opacity="0.53" d="M2489.62 1150.8L1668.21 1145.05C1661.23 1145 1655.62 1139.3 1655.67 1132.33L1655.89 1101.15C1655.93 1094.18 1661.63 1088.56 1668.61 1088.61L2490.01 1094.36C2496.99 1094.41 2502.61 1100.11 2502.56 1107.08L2502.34 1138.26C2502.29 1145.23 2496.6 1150.85 2489.62 1150.8Z" fill="#BDD0FB"/>
<path opacity="0.53" d="M485.755 1238.47L339.443 1237.44C332.467 1237.4 326.851 1231.7 326.9 1224.72L327.118 1193.55C327.167 1186.57 332.862 1180.96 339.838 1181.01L486.15 1182.03C493.126 1182.08 498.742 1187.78 498.693 1194.75L498.475 1225.93C498.426 1232.9 492.731 1238.52 485.755 1238.47Z" fill="#BDD0FB"/>
<path opacity="0.53" d="M961.365 1241.9L512.459 1238.76C507.886 1238.73 504.204 1234.99 504.236 1230.42L504.515 1190.54C504.547 1185.97 508.281 1182.29 512.854 1182.32L961.76 1185.46C966.333 1185.5 970.015 1189.23 969.983 1193.8L969.704 1233.68C969.672 1238.25 965.938 1241.93 961.365 1241.9Z" fill="#BDD0FB"/>
<path opacity="0.53" d="M1362.53 1245.94L1153.84 1244.48C1149.45 1244.44 1145.92 1240.86 1145.95 1236.47L1146.23 1195.93C1146.26 1191.54 1149.85 1188.01 1154.23 1188.04L1362.92 1189.5C1367.31 1189.53 1370.84 1193.11 1370.81 1197.5L1370.53 1238.05C1370.5 1242.44 1366.92 1245.97 1362.53 1245.94Z" fill="#BDD0FB"/>
<path opacity="0.53" d="M2487.22 1253.81L1665.81 1248.06C1658.83 1248.01 1653.22 1242.32 1653.27 1235.34L1653.48 1204.17C1653.53 1197.19 1659.23 1191.57 1666.2 1191.62L2487.61 1197.38C2494.59 1197.43 2500.2 1203.12 2500.16 1210.1L2499.94 1241.27C2499.89 1248.25 2494.19 1253.86 2487.22 1253.81Z" fill="#BDD0FB"/>
<path opacity="0.53" d="M486.438 1337.77L340.126 1336.74C333.15 1336.69 327.534 1331 327.583 1324.02L327.801 1292.85C327.85 1285.87 333.545 1280.26 340.521 1280.3L486.833 1281.33C493.809 1281.38 499.425 1287.07 499.376 1294.05L499.158 1325.22C499.109 1332.2 493.414 1337.82 486.438 1337.77Z" fill="#BDD0FB"/>
<path opacity="0.53" d="M963.116 1341.21L514.21 1338.06C509.637 1338.03 505.955 1334.3 505.987 1329.72L506.266 1289.85C506.298 1285.28 510.031 1281.59 514.605 1281.63L963.511 1284.77C968.084 1284.8 971.766 1288.54 971.734 1293.11L971.455 1332.98C971.423 1337.56 967.69 1341.24 963.116 1341.21Z" fill="#BDD0FB"/>
<path opacity="0.53" d="M1363.64 1345.24L1154.95 1343.78C1150.56 1343.75 1147.03 1340.16 1147.06 1335.78L1147.34 1295.23C1147.38 1290.84 1150.96 1287.31 1155.35 1287.34L1364.03 1288.8C1368.42 1288.83 1371.95 1292.41 1371.92 1296.8L1371.64 1337.35C1371.61 1341.74 1368.02 1345.27 1363.64 1345.24Z" fill="#BDD0FB"/>
<path opacity="0.53" d="M1919.39 1349.13L1425.93 1345.67C1418.95 1345.62 1413.33 1339.93 1413.38 1332.95L1413.6 1301.78C1413.65 1294.8 1419.34 1289.19 1426.32 1289.24L1919.79 1292.69C1926.76 1292.74 1932.38 1298.44 1932.33 1305.41L1932.11 1336.59C1932.06 1343.56 1926.37 1349.18 1919.39 1349.13Z" fill="#BDD0FB"/>
<path opacity="0.53" d="M962.542 1440.35L335.581 1435.96C331.008 1435.93 327.326 1432.2 327.358 1427.62L327.637 1387.75C327.669 1383.17 331.402 1379.49 335.976 1379.52L962.937 1383.92C967.51 1383.95 971.192 1387.68 971.16 1392.25L970.881 1432.13C970.849 1436.7 967.116 1440.38 962.542 1440.35Z" fill="#BDD0FB"/>
<path opacity="0.53" d="M1362.78 1444.38L1154.09 1442.92C1149.7 1442.89 1146.17 1439.3 1146.2 1434.92L1146.49 1394.37C1146.52 1389.98 1150.1 1386.45 1154.49 1386.48L1363.17 1387.94C1367.56 1387.97 1371.09 1391.56 1371.06 1395.94L1370.78 1436.49C1370.75 1440.88 1367.17 1444.41 1362.78 1444.38Z" fill="#BDD0FB"/>
<path opacity="0.53" d="M2163.59 1449.99L1542.14 1445.64C1535.16 1445.59 1529.55 1439.89 1529.59 1432.92L1529.81 1401.74C1529.86 1394.77 1535.56 1389.15 1542.53 1389.2L2163.98 1393.55C2170.96 1393.6 2176.58 1399.29 2176.53 1406.27L2176.31 1437.44C2176.26 1444.42 2170.57 1450.04 2163.59 1449.99Z" fill="#BDD0FB"/>
<path opacity="0.53" d="M479.844 1536.16L340.391 1535.18C333.415 1535.13 327.799 1529.44 327.848 1522.46L328.066 1491.29C328.115 1484.31 333.81 1478.7 340.786 1478.75L480.239 1479.72C487.215 1479.77 492.831 1485.47 492.782 1492.44L492.564 1523.62C492.515 1530.59 486.82 1536.21 479.844 1536.16Z" fill="#BDD0FB"/>
<path opacity="0.53" d="M963.951 1539.65L515.045 1536.51C510.472 1536.48 506.79 1532.74 506.822 1528.17L507.101 1488.3C507.133 1483.72 510.867 1480.04 515.44 1480.07L964.346 1483.22C968.92 1483.25 972.601 1486.98 972.569 1491.56L972.29 1531.43C972.258 1536.01 968.524 1539.69 963.951 1539.65Z" fill="#BDD0FB"/>
<path opacity="0.53" d="M1363.89 1543.68L1155.2 1542.22C1150.81 1542.19 1147.28 1538.61 1147.31 1534.22L1147.59 1493.67C1147.63 1489.28 1151.21 1485.75 1155.6 1485.78L1364.28 1487.24C1368.67 1487.27 1372.2 1490.86 1372.17 1495.24L1371.89 1535.79C1371.86 1540.18 1368.28 1543.71 1363.89 1543.68Z" fill="#BDD0FB"/>
<path opacity="0.53" d="M2490.72 1551.57L1640.55 1545.62C1633.57 1545.57 1627.96 1539.87 1628.01 1532.9L1628.23 1501.72C1628.27 1494.75 1633.97 1489.13 1640.95 1489.18L2491.11 1495.13C2498.09 1495.18 2503.7 1500.88 2503.65 1507.85L2503.44 1539.03C2503.39 1546 2497.69 1551.62 2490.72 1551.57Z" fill="#BDD0FB"/>
<path opacity="0.53" d="M480.669 1832.47L334.357 1831.45C327.381 1831.4 321.765 1825.7 321.814 1818.73L322.032 1787.55C322.081 1780.58 327.776 1774.96 334.752 1775.01L481.064 1776.03C488.04 1776.08 493.656 1781.78 493.607 1788.75L493.389 1819.93C493.34 1826.9 487.645 1832.52 480.669 1832.47Z" fill="#BDD0FB"/>
<path opacity="0.53" d="M957.572 1835.92L508.666 1832.77C504.092 1832.74 500.411 1829.01 500.443 1824.43L500.722 1784.56C500.754 1779.99 504.488 1776.3 509.061 1776.34L957.967 1779.48C962.54 1779.51 966.222 1783.25 966.19 1787.82L965.911 1827.69C965.879 1832.27 962.146 1835.95 957.572 1835.92Z" fill="#BDD0FB"/>
<path opacity="0.53" d="M1357.87 1839.94L1149.18 1838.48C1144.79 1838.45 1141.26 1834.87 1141.29 1830.48L1141.58 1789.93C1141.61 1785.55 1145.19 1782.01 1149.58 1782.04L1358.26 1783.51C1362.65 1783.54 1366.18 1787.12 1366.15 1791.51L1365.87 1832.05C1365.84 1836.44 1362.26 1839.97 1357.87 1839.94Z" fill="#BDD0FB"/>
<path opacity="0.53" d="M1913.62 1843.83L1420.16 1840.38C1413.18 1840.33 1407.56 1834.63 1407.61 1827.66L1407.83 1796.48C1407.88 1789.51 1413.57 1783.89 1420.55 1783.94L1914.02 1787.4C1920.99 1787.45 1926.61 1793.14 1926.56 1800.12L1926.34 1831.29C1926.29 1838.27 1920.6 1843.88 1913.62 1843.83Z" fill="#BDD0FB"/>
<path opacity="0.53" d="M956.998 1935.06L330.037 1930.67C325.463 1930.64 321.782 1926.91 321.814 1922.33L322.093 1882.46C322.125 1877.88 325.859 1874.2 330.432 1874.23L957.393 1878.62C961.966 1878.66 965.648 1882.39 965.616 1886.96L965.337 1926.84C965.305 1931.41 961.572 1935.09 956.998 1935.06Z" fill="#BDD0FB"/>
<path opacity="0.53" d="M1357.01 1939.08L1148.32 1937.62C1143.93 1937.59 1140.4 1934.01 1140.43 1929.62L1140.72 1889.08C1140.75 1884.69 1144.33 1881.15 1148.72 1881.19L1357.4 1882.65C1361.79 1882.68 1365.32 1886.26 1365.29 1890.65L1365.01 1931.19C1364.98 1935.58 1361.4 1939.12 1357.01 1939.08Z" fill="#BDD0FB"/>
<path opacity="0.53" d="M2157.47 1944.69L1536.02 1940.34C1529.04 1940.29 1523.43 1934.59 1523.48 1927.62L1523.7 1896.44C1523.74 1889.47 1529.44 1883.85 1536.42 1883.9L2157.87 1888.25C2164.84 1888.3 2170.46 1894 2170.41 1900.97L2170.19 1932.15C2170.14 1939.12 2164.45 1944.74 2157.47 1944.69Z" fill="#BDD0FB"/>
<path opacity="0.53" d="M474.075 2030.87L334.622 2029.89C327.646 2029.84 322.03 2024.14 322.079 2017.17L322.297 1985.99C322.346 1979.02 328.041 1973.4 335.017 1973.45L474.47 1974.43C481.446 1974.48 487.062 1980.17 487.013 1987.15L486.795 2018.32C486.746 2025.3 481.051 2030.91 474.075 2030.87Z" fill="#BDD0FB"/>
<path opacity="0.53" d="M958.406 2034.36L509.5 2031.22C504.927 2031.19 501.245 2027.45 501.277 2022.88L501.556 1983.01C501.588 1978.43 505.322 1974.75 509.895 1974.78L958.801 1977.93C963.374 1977.96 967.056 1981.69 967.024 1986.27L966.745 2026.14C966.714 2030.71 962.98 2034.4 958.406 2034.36Z" fill="#BDD0FB"/>
<path opacity="0.53" d="M1358.12 2038.38L1149.43 2036.92C1145.04 2036.89 1141.51 2033.31 1141.54 2028.92L1141.83 1988.38C1141.86 1983.99 1145.44 1980.46 1149.83 1980.49L1358.51 1981.95C1362.9 1981.98 1366.44 1985.56 1366.4 1989.95L1366.12 2030.5C1366.09 2034.88 1362.51 2038.42 1358.12 2038.38Z" fill="#BDD0FB"/>
<path opacity="0.53" d="M2484.6 2046.27L1634.43 2040.32C1627.46 2040.27 1621.84 2034.58 1621.89 2027.6L1622.11 1996.43C1622.16 1989.45 1627.85 1983.83 1634.83 1983.88L2484.99 1989.84C2491.97 1989.89 2497.59 1995.58 2497.54 2002.56L2497.32 2033.73C2497.27 2040.71 2491.58 2046.32 2484.6 2046.27Z" fill="#BDD0FB"/>
<path opacity="0.53" d="M477.211 1637.13L337.758 1636.15C330.782 1636.1 325.166 1630.41 325.215 1623.43L325.433 1592.26C325.482 1585.28 331.177 1579.66 338.153 1579.71L477.606 1580.69C484.582 1580.74 490.198 1586.43 490.149 1593.41L489.931 1624.58C489.882 1631.56 484.187 1637.18 477.211 1637.13Z" fill="#BDD0FB"/>
<path opacity="0.53" d="M959.685 1640.61L510.779 1637.47C506.206 1637.43 502.524 1633.7 502.556 1629.13L502.835 1589.25C502.867 1584.68 506.601 1581 511.174 1581.03L960.08 1584.17C964.653 1584.2 968.335 1587.94 968.303 1592.51L968.024 1632.39C967.992 1636.96 964.258 1640.64 959.685 1640.61Z" fill="#BDD0FB"/>
<path opacity="0.53" d="M1360.56 1644.64L1151.87 1643.18C1147.48 1643.15 1143.95 1639.57 1143.98 1635.18L1144.26 1594.63C1144.29 1590.24 1147.88 1586.71 1152.26 1586.74L1360.95 1588.2C1365.34 1588.24 1368.87 1591.82 1368.84 1596.21L1368.56 1636.75C1368.53 1641.14 1364.94 1644.67 1360.56 1644.64Z" fill="#BDD0FB"/>
<path opacity="0.53" d="M2483.31 1652.5L1633.15 1646.55C1626.17 1646.5 1620.56 1640.81 1620.61 1633.83L1620.82 1602.66C1620.87 1595.68 1626.57 1590.06 1633.54 1590.11L2483.71 1596.07C2490.69 1596.12 2496.3 1601.81 2496.25 1608.79L2496.03 1639.96C2495.99 1646.94 2490.29 1652.55 2483.31 1652.5Z" fill="#BDD0FB"/>
<path opacity="0.53" d="M477.84 1736.42L338.387 1735.45C331.411 1735.4 325.795 1729.7 325.844 1722.73L326.062 1691.55C326.111 1684.58 331.806 1678.96 338.782 1679.01L478.235 1679.99C485.211 1680.04 490.827 1685.73 490.778 1692.71L490.56 1723.88C490.511 1730.86 484.816 1736.47 477.84 1736.42Z" fill="#BDD0FB"/>
<path opacity="0.53" d="M961.436 1739.92L512.53 1736.77C507.956 1736.74 504.275 1733.01 504.307 1728.43L504.586 1688.56C504.618 1683.98 508.352 1680.3 512.925 1680.33L961.831 1683.48C966.404 1683.51 970.086 1687.24 970.054 1691.82L969.775 1731.69C969.743 1736.27 966.01 1739.95 961.436 1739.92Z" fill="#BDD0FB"/>
<path opacity="0.53" d="M1361.66 1743.94L1152.98 1742.48C1148.59 1742.45 1145.06 1738.87 1145.09 1734.48L1145.37 1693.93C1145.4 1689.54 1148.99 1686.01 1153.37 1686.04L1362.06 1687.5C1366.45 1687.54 1369.98 1691.12 1369.95 1695.51L1369.67 1736.05C1369.64 1740.44 1366.05 1743.97 1361.66 1743.94Z" fill="#BDD0FB"/>
<path opacity="0.53" d="M2487.22 1751.82L1637.06 1745.87C1630.08 1745.82 1624.46 1740.13 1624.51 1733.15L1624.73 1701.98C1624.78 1695 1630.48 1689.38 1637.45 1689.43L2487.62 1695.39C2494.59 1695.44 2500.21 1701.13 2500.16 1708.11L2499.94 1739.28C2499.89 1746.26 2494.2 1751.87 2487.22 1751.82Z" fill="#BDD0FB"/>
<path opacity="0.53" d="M1058.92 2101.91L1047.48 2101.83C1044.91 2101.81 1042.85 2099.72 1042.87 2097.16L1052.55 715.607C1052.57 713.046 1054.66 710.985 1057.22 711.003L1068.66 711.083C1071.22 711.101 1073.28 713.192 1073.26 715.752L1063.59 2097.31C1063.57 2099.87 1061.48 2101.93 1058.92 2101.91Z" fill="#BDD0FB"/>
<path d="M2227.6 1757.36C2360.86 1757.36 2468.88 1649.34 2468.88 1516.09C2468.88 1382.83 2360.86 1274.81 2227.6 1274.81C2094.35 1274.81 1986.32 1382.83 1986.32 1516.09C1986.32 1649.34 2094.35 1757.36 2227.6 1757.36Z" fill="url(#paint4_linear_6_2423)"/>
<path d="M1666.03 495.24C1799.29 495.24 1907.31 387.216 1907.31 253.963C1907.31 120.709 1799.29 12.6855 1666.03 12.6855C1532.78 12.6855 1424.76 120.709 1424.76 253.963C1424.76 387.216 1532.78 495.24 1666.03 495.24Z" fill="url(#paint5_linear_6_2423)"/>
<path d="M1569.14 350.3C1561.74 350.172 1555.31 349.255 1549.84 347.55V319.201C1555.45 320.731 1560.58 321.524 1565.23 321.578C1572.43 321.662 1577.59 319.384 1580.71 314.739C1583.84 310.088 1585.4 302.782 1585.4 292.824V141.238L1618.65 140.454V292.8C1618.65 311.806 1614.45 326.231 1606.05 336.051C1597.69 345.839 1585.36 350.58 1569.14 350.3Z" fill="url(#paint6_linear_6_2423)"/>
<path d="M1780.87 284.46C1780.87 302.149 1774.52 316.022 1761.85 326.042C1749.24 336.014 1731.8 340.816 1709.61 340.485C1689.34 340.182 1671.54 336.063 1656.16 328.171V290.481C1668.79 296.322 1679.54 300.468 1688.37 302.903C1697.23 305.346 1705.36 306.602 1712.74 306.665C1721.64 306.74 1728.48 305.072 1733.26 301.658C1738.05 298.238 1740.45 293.116 1740.45 286.286C1740.45 282.477 1739.39 279.082 1737.28 276.104C1735.17 273.128 1732.08 270.267 1728 267.522C1723.93 264.781 1715.66 260.409 1703.23 254.423C1691.62 248.906 1682.96 243.619 1677.2 238.562C1671.46 233.516 1666.87 227.64 1663.45 220.932C1660.04 214.233 1658.33 206.393 1658.33 197.406C1658.33 180.47 1663.95 167.06 1675.2 157.135C1686.51 147.166 1702.23 141.936 1722.43 141.473C1732.41 141.244 1741.96 142.222 1751.09 144.414C1760.25 146.613 1769.86 149.795 1779.94 153.955L1766.57 186.436C1756.2 182.316 1747.65 179.467 1740.91 177.891C1734.18 176.319 1727.59 175.583 1721.12 175.689C1713.44 175.815 1707.57 177.715 1703.49 181.393C1699.41 185.066 1697.38 189.797 1697.38 195.601C1697.38 199.21 1698.2 202.338 1699.85 205.005C1701.49 207.674 1704.12 210.242 1707.72 212.717C1711.33 215.196 1719.89 219.643 1733.46 226.088C1751.51 234.675 1763.96 243.36 1770.71 252.116C1777.48 260.894 1780.87 271.681 1780.87 284.46Z" fill="url(#paint7_linear_6_2423)"/>
<path d="M2190.73 614.064C2322.59 614.064 2429.49 507.166 2429.49 375.301C2429.49 243.435 2322.59 136.538 2190.73 136.538C2058.86 136.538 1951.96 243.435 1951.96 375.301C1951.96 507.166 2058.86 614.064 2190.73 614.064Z" fill="url(#paint8_linear_6_2423)"/>
<path d="M2095.59 425.314L2078.15 424.349V386.586L2045.72 384.984V422.555L2028.5 421.602V334.789L2045.72 335.506V369.623L2078.15 371.146V336.854L2095.59 337.58V425.314Z" fill="white"/>
<path d="M2154.74 428.585L2136.92 427.599V354.881L2114.23 353.882V338.355L2177.71 340.996V356.677L2154.74 355.667V428.585Z" fill="white"/>
<path d="M2233.13 432.923L2212.4 361.689L2211.88 361.665C2212.62 375.957 2212.99 385.487 2212.99 390.253V431.808L2196.77 430.911V341.79L2221.51 342.82L2241.94 412.295L2242.29 412.313L2264.1 344.592L2289.36 345.643V436.033L2272.04 435.075V392.404C2272.04 390.391 2272.07 388.069 2272.13 385.44C2272.19 382.812 2272.46 375.835 2272.94 364.51L2272.4 364.486L2249.94 433.852L2233.13 432.923Z" fill="white"/>
<path d="M2317.74 437.604V346.825L2336.58 347.609V422.706L2372.92 424.629V440.657L2317.74 437.604Z" fill="white"/>
<path d="M2369.29 1180.36C2494.57 1180.36 2596.14 1078.79 2596.14 953.511C2596.14 828.229 2494.57 726.667 2369.29 726.667C2244.01 726.667 2142.45 828.229 2142.45 953.511C2142.45 1078.79 2244.01 1180.36 2369.29 1180.36Z" fill="url(#paint9_linear_6_2423)"/>
<path d="M2269.36 908.251C2260.13 908.158 2253.03 911.909 2248.03 919.481C2243.05 927.027 2240.59 937.588 2240.61 951.179C2240.68 979.448 2250.25 993.951 2269.52 994.708C2277.68 995.029 2287.62 993.16 2299.38 989.075L2299.41 1012.05C2289.74 1016.03 2279.02 1017.72 2267.26 1017.17C2250.53 1016.39 2237.84 1010.21 2229.1 998.687C2220.41 987.228 2216.06 971.151 2216.01 950.396C2215.98 937.32 2218.07 925.896 2222.29 916.101C2226.53 906.278 2232.65 898.743 2240.68 893.501C2248.76 888.229 2258.3 885.595 2269.32 885.622C2280.63 885.65 2292.09 888.714 2303.69 894.846L2295.63 917.094C2291.22 914.741 2286.79 912.689 2282.35 910.934C2277.93 909.188 2273.6 908.293 2269.36 908.251Z" fill="url(#paint10_linear_6_2423)"/>
<path d="M2406.31 984.7C2406.31 996.787 2402.2 1006.14 2394 1012.73C2385.85 1019.28 2374.58 1022.21 2360.26 1021.54C2347.18 1020.92 2335.71 1017.76 2325.79 1012.08L2325.76 986.396C2333.91 990.622 2340.84 993.658 2346.53 995.49C2352.25 997.329 2357.49 998.345 2362.26 998.533C2368.01 998.759 2372.43 997.756 2375.51 995.519C2378.61 993.278 2380.16 989.826 2380.15 985.164C2380.15 982.562 2379.47 980.223 2378.1 978.15C2376.74 976.08 2374.74 974.067 2372.1 972.112C2369.47 970.162 2364.13 967.02 2356.09 962.7C2348.6 958.716 2343.01 954.948 2339.29 951.386C2335.58 947.835 2332.62 943.741 2330.41 939.102C2328.2 934.471 2327.09 929.089 2327.09 922.953C2327.07 911.394 2330.68 902.335 2337.94 895.753C2345.23 889.138 2355.38 885.832 2368.44 885.865C2374.89 885.881 2381.08 886.716 2386.99 888.374C2392.92 890.038 2399.15 892.382 2405.68 895.408L2397.03 917.404C2390.31 914.399 2384.77 912.3 2380.41 911.099C2376.06 909.903 2371.79 909.285 2367.61 909.242C2362.64 909.192 2358.85 910.389 2356.22 912.828C2353.59 915.264 2352.28 918.461 2352.28 922.426C2352.28 924.89 2352.81 927.045 2353.88 928.895C2354.94 930.747 2356.64 932.55 2358.97 934.306C2361.3 936.065 2366.84 939.263 2375.61 943.914C2387.29 950.116 2395.35 956.285 2399.72 962.399C2404.11 968.531 2406.31 975.969 2406.31 984.7Z" fill="url(#paint11_linear_6_2423)"/>
<path d="M2516.9 988.494C2516.89 1001.01 2512.47 1010.69 2503.67 1017.5C2494.92 1024.27 2482.83 1027.28 2467.48 1026.56C2453.47 1025.91 2441.18 1022.62 2430.57 1016.72V990.146C2439.29 994.53 2446.71 997.68 2452.81 999.585C2458.93 1001.5 2464.55 1002.56 2469.66 1002.76C2475.82 1003 2480.55 1001.97 2483.87 999.656C2487.18 997.34 2488.85 993.768 2488.85 988.942C2488.85 986.248 2488.12 983.826 2486.66 981.678C2485.2 979.533 2483.06 977.447 2480.24 975.42C2477.42 973.398 2471.7 970.14 2463.09 965.66C2455.07 961.529 2449.08 957.625 2445.1 953.936C2441.13 950.258 2437.97 946.019 2435.61 941.216C2433.25 936.422 2432.07 930.854 2432.07 924.504C2432.07 912.544 2435.95 903.169 2443.73 896.359C2451.55 889.514 2462.43 886.095 2476.42 886.129C2483.34 886.146 2489.97 887.011 2496.3 888.728C2502.66 890.452 2509.34 892.88 2516.34 896.015L2507.03 918.792C2499.83 915.677 2493.9 913.502 2489.22 912.257C2484.56 911.017 2479.98 910.374 2475.5 910.329C2470.18 910.275 2466.12 911.513 2463.29 914.036C2460.47 916.556 2459.06 919.865 2459.06 923.969C2459.06 926.519 2459.62 928.75 2460.76 930.665C2461.9 932.583 2463.72 934.449 2466.21 936.269C2468.71 938.092 2474.63 941.405 2484.03 946.228C2496.55 952.659 2505.18 959.054 2509.86 965.39C2514.56 971.746 2516.91 979.452 2516.9 988.494Z" fill="url(#paint12_linear_6_2423)"/>
<path d="M1371.91 2676.71C1328.7 2680.44 1253.71 2686.51 1194.6 2689.11C1159.06 2690.68 1138.6 2687.2 1126.82 2682.48C1126.84 2683.81 1126.87 2685.06 1126.93 2686.23C1127.2 2692.45 1132.26 2697.43 1138.54 2697.78C1250.25 2704.01 1339.09 2699.94 1370.72 2698.01C1377.26 2697.61 1381.16 2690.51 1377.81 2684.93C1376.14 2682.14 1374.11 2679.41 1371.91 2676.71Z" fill="url(#paint13_linear_6_2423)"/>
<path d="M1194.59 2689.11C1253.71 2686.51 1328.7 2680.44 1371.91 2676.71C1329.43 2624.59 1194.59 2589.46 1194.59 2589.46H1156.51C1130.32 2627.22 1126.53 2663.16 1126.81 2682.48C1138.6 2687.2 1159.06 2690.68 1194.59 2689.11Z" fill="url(#paint14_linear_6_2423)"/>
<path d="M1150.1 2527.29L1153.66 2597.81C1154.05 2605.45 1159.77 2611.87 1167.41 2612.96C1175.02 2614.05 1185.22 2614.19 1196.02 2610.59C1202.67 2608.38 1207.61 2602.78 1208.83 2595.94L1221.15 2527.29L1150.1 2527.29Z" fill="url(#paint15_linear_6_2423)"/>
<path d="M708.114 2758.06C689.376 2754.68 680.898 2742.1 677.343 2728.65C677.319 2728.78 677.296 2728.9 677.273 2729.02C674.516 2743.2 680.907 2757.91 693.683 2764.9C709.126 2773.35 726.011 2774.79 739.119 2774.09C753.183 2773.34 766.092 2765.82 773.187 2753.78L773.293 2753.6C759.177 2762.63 739.362 2763.69 708.114 2758.06Z" fill="url(#paint16_linear_6_2423)"/>
<path d="M796.457 2549.02H765.052C717.215 2547.76 687.176 2678.16 677.343 2728.65C680.898 2742.1 689.375 2754.68 708.114 2758.06C739.362 2763.69 759.178 2762.63 773.294 2753.6C799.138 2709.65 811.951 2645.28 818.109 2607.71C825.115 2564.98 796.457 2549.02 796.457 2549.02Z" fill="url(#paint17_linear_6_2423)"/>
<path d="M769.089 2483.56L751.65 2552.92C749.511 2561.43 753.582 2570.22 761.445 2574.26C771.201 2579.27 784.936 2584.53 797.559 2583C803.495 2582.29 808.427 2578.11 810.388 2572.52L835.991 2499.54L769.089 2483.56Z" fill="url(#paint18_linear_6_2423)"/>
<path d="M1382.55 1570.05C1382.55 1570.05 1226.71 2544.2 1229.27 2549.55C1229.27 2549.55 1186.23 2569.12 1139.31 2552.05C1139.31 2552.05 1153.4 2031.29 1186.42 1831.63C1186.42 1831.63 920.451 2297.08 835.989 2529C835.989 2529 791.937 2523.75 755.472 2499.75C755.472 2499.75 1041.85 1661.96 1118.25 1550.37L1382.55 1570.05Z" fill="url(#paint19_linear_6_2423)"/>
<path d="M1192.64 1825.84C1191.94 1825.84 1191.23 1825.65 1190.59 1825.24C1188.77 1824.11 1188.22 1821.71 1189.36 1819.89L1247.59 1726.87C1248.16 1725.96 1249.07 1725.33 1250.12 1725.12L1292.98 1716.5C1295.08 1716.06 1297.13 1717.44 1297.55 1719.54C1297.98 1721.64 1296.62 1723.69 1294.51 1724.11L1253.29 1732.41L1195.94 1824.01C1195.2 1825.19 1193.94 1825.84 1192.64 1825.84Z" fill="url(#paint20_linear_6_2423)"/>
<path d="M1439.76 896.294C1429.24 892.646 1418.25 890.509 1407.12 889.856C1346.32 886.291 1145.96 879.786 980.163 934.561C945.271 946.088 917.01 971.883 902.445 1005.31C857.596 1108.23 784.986 1342.62 986.559 1460.95C1002.05 1422.5 1019.92 1391.6 1035.21 1368.89C1002.74 1314.14 993.13 1239.35 1050.73 1141.97C1092.74 1255.39 1112.44 1420.88 1116.56 1494.12C1117.92 1518.23 1113.69 1542.3 1104.23 1564.56L1103.19 1566.99C1101.17 1571.75 1103.96 1577.23 1109.05 1578.37C1222.53 1603.86 1340.55 1596.93 1375.81 1594.02C1382.11 1593.5 1387.34 1589 1388.78 1582.91C1443.96 1350.4 1444.09 1191.8 1430.58 1091.54C1482.2 1103.08 1553.98 935.871 1439.76 896.294Z" fill="url(#paint21_linear_6_2423)"/>
<path d="M1150.76 754.41C1150.76 754.41 1139.28 875.789 1129.17 911.693C1127.64 917.14 1130 922.884 1134.95 925.712C1152.11 935.514 1193.25 951.502 1249.53 923.92C1258.65 919.452 1264.13 909.948 1263.71 899.889L1258.75 782.597L1150.76 754.41Z" fill="url(#paint22_linear_6_2423)"/>
<path d="M1261.22 599.128C1261.22 599.128 1297.94 683.474 1300.41 727.745C1302.87 772.016 1312.41 800.742 1261.22 809.657C1210.03 818.572 1166.91 793.072 1143.55 748.973C1143.55 748.973 1106.95 681.022 1115.16 653.194C1123.37 625.365 1261.22 599.128 1261.22 599.128Z" fill="url(#paint23_linear_6_2423)"/>
<path d="M1161.04 717.266L1163.96 715.982C1167.67 714.346 1169.25 709.931 1167.39 706.33C1160.17 692.383 1146.1 660.424 1164.28 652.968C1187.71 643.359 1280.51 624.435 1300.53 591.507C1319.77 559.859 1302.72 519.008 1277.1 507.389C1275.38 506.611 1273.36 507.229 1272.48 508.893L1270.35 512.934C1268.89 515.7 1264.8 515.28 1263.93 512.276V512.275C1263.1 509.39 1259.26 508.831 1257.67 511.378C1251.51 521.23 1234.9 537.201 1190.46 545.402C1127.31 557.056 1085.56 582.612 1084.52 626.249C1084.46 629.021 1081.51 630.563 1079.14 629.12C1074.48 626.279 1067.01 624.945 1057.04 633.33C1039.7 647.913 1046.8 685.741 1084.82 716.858C1086.62 718.337 1086.61 721.156 1084.65 722.429C1077.76 726.915 1067.48 737.592 1094.11 751.823C1121.64 766.543 1142.21 765.336 1150.13 764.029C1152.1 763.703 1153.37 761.796 1152.94 759.847L1144.48 721.493C1144.01 719.322 1145.66 717.266 1147.88 717.266H1161.04Z" fill="url(#paint24_linear_6_2423)"/>
<path d="M1162.63 725.36C1162.63 725.36 1148.63 671.481 1124.47 686.588C1100.31 701.694 1137 746.957 1156.43 748.973L1162.63 725.36Z" fill="url(#paint25_linear_6_2423)"/>
<path d="M1161.6 1543.85L1327.3 1540.24C1327.3 1540.24 1182.81 1499.4 1173.84 1510.52C1173.84 1510.52 1084.29 1451.67 1035.21 1368.89C1019.92 1391.6 1002.05 1422.5 986.56 1460.95C1030.56 1486.78 1088.34 1531.65 1161.6 1543.85Z" fill="url(#paint26_linear_6_2423)"/>
<path d="M1156.93 1515.16C1156.93 1515.16 1153.51 1581.18 1240.17 1571.59C1287.27 1566.38 1363.31 1522.46 1363.31 1522.46C1363.31 1522.46 1165.12 1521.94 1156.93 1515.16Z" fill="url(#paint27_linear_6_2423)"/>
<path d="M1198.71 1531.56C1198.97 1531.58 1199.23 1531.58 1199.49 1531.58L1539.19 1531.21C1547.59 1531.21 1554.39 1524.46 1554.38 1516.16C1554.38 1507.84 1547.54 1500.98 1539.16 1501.13L1199.45 1501.49C1191.05 1501.5 1184.25 1508.24 1184.26 1516.55C1184.27 1524.6 1190.67 1531.17 1198.71 1531.56Z" fill="url(#paint28_linear_6_2423)"/>
<path d="M1844.58 1226.39H1561.67C1540.8 1226.39 1521.8 1238.3 1512.9 1256.98L1382.11 1531.38H1733.69C1747.14 1531.38 1759.22 1523.25 1764.17 1510.88L1865.59 1256.96C1871.45 1242.29 1860.52 1226.39 1844.58 1226.39Z" fill="url(#paint29_linear_6_2423)"/>
<path d="M1645.26 1367.08C1639.13 1385.93 1643.66 1404.23 1655.38 1407.96C1667.1 1411.69 1681.57 1399.44 1687.7 1380.6C1693.83 1361.75 1689.3 1343.45 1677.58 1339.72C1665.86 1335.98 1651.39 1348.24 1645.26 1367.08Z" fill="url(#paint30_linear_6_2423)"/>
<path d="M1783.98 1082.62C1652.07 1088.09 1588.7 991.598 1531.01 935.11C1454.85 860.532 1374.23 890.917 1374.23 890.917L1435.51 1090.94C1554.59 1230.23 1702.72 1196.11 1792.77 1164.85C1797.62 1132.27 1791.83 1103.94 1783.98 1082.62Z" fill="url(#paint31_linear_6_2423)"/>
<path d="M1974.78 1024.86L1929.24 1043.38C1874.22 1069.24 1826.23 1080.87 1783.98 1082.62C1791.83 1103.94 1797.62 1132.27 1792.77 1164.85C1850.1 1144.95 1887.64 1117.69 1887.64 1117.69C1991.43 1070.06 1974.78 1024.86 1974.78 1024.86Z" fill="url(#paint32_linear_6_2423)"/>
<path d="M2095.06 1099.2C2093.28 1089.66 2087.25 1081.45 2078.69 1076.88L1995.11 1032.33C1995.11 1032.33 1995 1020.98 2015.6 1015.5C2036.2 1010.02 2033.97 987.367 2033.97 987.367C2033.97 987.367 2005.62 996.778 1963.95 1012.06C1940.12 1020.8 1925.3 1039.17 1916.96 1053.3L1936.26 1085.31C1988.37 1107.29 2042.52 1116.26 2098.16 1115.77L2095.06 1099.2Z" fill="url(#paint33_linear_6_2423)"/>
<path d="M1390.52 950.293C1390.52 950.293 1417.53 992.838 1430.81 1093.19L1390.52 950.293Z" fill="url(#paint34_linear_6_2423)"/>
<path d="M885.852 338H872.352L896.932 268.182H912.545L937.159 338H923.659L905.011 282.5H904.466L885.852 338ZM886.295 310.625H923.114V320.784H886.295V310.625ZM958.151 307.318V338H945.81V285.636H957.605V294.534H958.219C959.423 291.602 961.344 289.273 963.98 287.545C966.639 285.818 969.923 284.955 973.832 284.955C977.446 284.955 980.594 285.727 983.276 287.273C985.98 288.818 988.071 291.057 989.548 293.989C991.048 296.92 991.787 300.477 991.764 304.659V338H979.423V306.568C979.423 303.068 978.514 300.33 976.696 298.352C974.901 296.375 972.412 295.386 969.23 295.386C967.071 295.386 965.151 295.864 963.469 296.818C961.81 297.75 960.503 299.102 959.548 300.875C958.616 302.648 958.151 304.795 958.151 307.318ZM1027.08 358.727C1022.65 358.727 1018.84 358.125 1015.66 356.92C1012.48 355.739 1009.92 354.148 1007.99 352.148C1006.06 350.148 1004.72 347.932 1003.97 345.5L1015.08 342.807C1015.58 343.83 1016.31 344.841 1017.26 345.841C1018.22 346.864 1019.5 347.705 1021.12 348.364C1022.75 349.045 1024.81 349.386 1027.29 349.386C1030.79 349.386 1033.68 348.534 1035.98 346.83C1038.28 345.148 1039.42 342.375 1039.42 338.511V328.591H1038.81C1038.17 329.864 1037.24 331.17 1036.01 332.511C1034.81 333.852 1033.21 334.977 1031.21 335.886C1029.23 336.795 1026.74 337.25 1023.74 337.25C1019.72 337.25 1016.07 336.307 1012.8 334.42C1009.55 332.511 1006.96 329.67 1005.03 325.898C1003.12 322.102 1002.16 317.352 1002.16 311.648C1002.16 305.898 1003.12 301.045 1005.03 297.091C1006.96 293.114 1009.56 290.102 1012.83 288.057C1016.11 285.989 1019.75 284.955 1023.78 284.955C1026.84 284.955 1029.37 285.477 1031.34 286.523C1033.34 287.545 1034.93 288.784 1036.12 290.239C1037.3 291.67 1038.2 293.023 1038.81 294.295H1039.49V285.636H1051.66V338.852C1051.66 343.33 1050.59 347.034 1048.46 349.966C1046.32 352.898 1043.4 355.091 1039.7 356.545C1035.99 358 1031.79 358.727 1027.08 358.727ZM1027.18 327.568C1029.8 327.568 1032.03 326.932 1033.87 325.659C1035.71 324.386 1037.11 322.557 1038.06 320.17C1039.01 317.784 1039.49 314.92 1039.49 311.58C1039.49 308.284 1039.01 305.398 1038.06 302.92C1037.13 300.443 1035.74 298.523 1033.9 297.159C1032.08 295.773 1029.84 295.08 1027.18 295.08C1024.43 295.08 1022.14 295.795 1020.3 297.227C1018.46 298.659 1017.07 300.625 1016.14 303.125C1015.21 305.602 1014.74 308.42 1014.74 311.58C1014.74 314.784 1015.21 317.591 1016.14 320C1017.09 322.386 1018.49 324.25 1020.33 325.591C1022.2 326.909 1024.48 327.568 1027.18 327.568ZM1097.68 315.977V285.636H1110.03V338H1098.06V328.693H1097.51C1096.33 331.625 1094.39 334.023 1091.68 335.886C1089 337.75 1085.7 338.682 1081.76 338.682C1078.33 338.682 1075.3 337.92 1072.66 336.398C1070.05 334.852 1068 332.614 1066.53 329.682C1065.05 326.727 1064.31 323.159 1064.31 318.977V285.636H1076.65V317.068C1076.65 320.386 1077.56 323.023 1079.38 324.977C1081.2 326.932 1083.58 327.909 1086.54 327.909C1088.36 327.909 1090.12 327.466 1091.82 326.58C1093.53 325.693 1094.92 324.375 1096.01 322.625C1097.13 320.852 1097.68 318.636 1097.68 315.977ZM1135.06 268.182V338H1122.72V268.182H1135.06ZM1162.82 339.057C1159.5 339.057 1156.51 338.466 1153.85 337.284C1151.21 336.08 1149.12 334.307 1147.58 331.966C1146.05 329.625 1145.29 326.739 1145.29 323.307C1145.29 320.352 1145.84 317.909 1146.93 315.977C1148.02 314.045 1149.51 312.5 1151.39 311.341C1153.28 310.182 1155.41 309.307 1157.77 308.716C1160.16 308.102 1162.62 307.659 1165.17 307.386C1168.24 307.068 1170.72 306.784 1172.63 306.534C1174.54 306.261 1175.93 305.852 1176.79 305.307C1177.68 304.739 1178.12 303.864 1178.12 302.682V302.477C1178.12 299.909 1177.36 297.92 1175.84 296.511C1174.32 295.102 1172.12 294.398 1169.26 294.398C1166.24 294.398 1163.84 295.057 1162.07 296.375C1160.32 297.693 1159.13 299.25 1158.52 301.045L1147 299.409C1147.91 296.227 1149.41 293.568 1151.5 291.432C1153.59 289.273 1156.14 287.659 1159.17 286.591C1162.19 285.5 1165.53 284.955 1169.19 284.955C1171.71 284.955 1174.22 285.25 1176.72 285.841C1179.22 286.432 1181.51 287.409 1183.58 288.773C1185.64 290.114 1187.3 291.943 1188.55 294.261C1189.83 296.58 1190.46 299.477 1190.46 302.955V338H1178.6V330.807H1178.19C1177.44 332.261 1176.38 333.625 1175.02 334.898C1173.68 336.148 1171.99 337.159 1169.94 337.932C1167.92 338.682 1165.54 339.057 1162.82 339.057ZM1166.02 329.989C1168.5 329.989 1170.64 329.5 1172.46 328.523C1174.28 327.523 1175.68 326.205 1176.66 324.568C1177.66 322.932 1178.16 321.148 1178.16 319.216V313.045C1177.77 313.364 1177.11 313.659 1176.18 313.932C1175.27 314.205 1174.25 314.443 1173.11 314.648C1171.97 314.852 1170.85 315.034 1169.74 315.193C1168.62 315.352 1167.66 315.489 1166.84 315.602C1165 315.852 1163.35 316.261 1161.89 316.83C1160.44 317.398 1159.29 318.193 1158.45 319.216C1157.61 320.216 1157.19 321.511 1157.19 323.102C1157.19 325.375 1158.02 327.091 1159.68 328.25C1161.34 329.409 1163.45 329.989 1166.02 329.989ZM1202.87 338V285.636H1214.84V294.364H1215.38C1216.34 291.341 1217.97 289.011 1220.29 287.375C1222.63 285.716 1225.3 284.886 1228.3 284.886C1228.99 284.886 1229.75 284.92 1230.59 284.989C1231.45 285.034 1232.17 285.114 1232.74 285.227V296.58C1232.21 296.398 1231.38 296.239 1230.25 296.102C1229.13 295.943 1228.05 295.864 1227.01 295.864C1224.76 295.864 1222.74 296.352 1220.94 297.33C1219.17 298.284 1217.77 299.614 1216.75 301.318C1215.72 303.023 1215.21 304.989 1215.21 307.216V338H1202.87Z" fill="white"/>
<path d="M2173.3 1525.74H2160.55C2160.19 1523.65 2159.52 1521.8 2158.54 1520.18C2157.57 1518.55 2156.35 1517.16 2154.89 1516.02C2153.44 1514.89 2151.78 1514.03 2149.92 1513.47C2148.08 1512.88 2146.09 1512.58 2143.95 1512.58C2140.16 1512.58 2136.79 1513.53 2133.86 1515.44C2130.93 1517.33 2128.63 1520.1 2126.97 1523.76C2125.32 1527.4 2124.49 1531.84 2124.49 1537.09C2124.49 1542.43 2125.32 1546.93 2126.97 1550.59C2128.66 1554.23 2130.95 1556.98 2133.86 1558.84C2136.79 1560.68 2140.14 1561.6 2143.92 1561.6C2146.01 1561.6 2147.96 1561.33 2149.78 1560.78C2151.62 1560.22 2153.27 1559.39 2154.72 1558.3C2156.2 1557.2 2157.44 1555.86 2158.44 1554.27C2159.46 1552.68 2160.17 1550.86 2160.55 1548.82L2173.3 1548.89C2172.83 1552.2 2171.79 1555.32 2170.2 1558.23C2168.63 1561.14 2166.58 1563.7 2164.03 1565.93C2161.49 1568.14 2158.51 1569.86 2155.1 1571.11C2151.69 1572.34 2147.91 1572.95 2143.75 1572.95C2137.61 1572.95 2132.13 1571.53 2127.32 1568.69C2122.5 1565.85 2118.7 1561.75 2115.93 1556.39C2113.16 1551.02 2111.77 1544.59 2111.77 1537.09C2111.77 1529.57 2113.17 1523.14 2115.96 1517.8C2118.76 1512.43 2122.57 1508.33 2127.38 1505.49C2132.2 1502.65 2137.66 1501.23 2143.75 1501.23C2147.63 1501.23 2151.25 1501.77 2154.59 1502.86C2157.93 1503.95 2160.91 1505.56 2163.52 1507.67C2166.13 1509.76 2168.28 1512.33 2169.96 1515.38C2171.67 1518.4 2172.78 1521.85 2173.3 1525.74ZM2184.89 1502.18H2200.36L2221.09 1552.77H2221.91L2242.64 1502.18H2258.11V1572H2245.98V1524.03H2245.33L2226.03 1571.8H2216.97L2197.67 1523.93H2197.02V1572H2184.89V1502.18ZM2309.83 1521.38C2309.51 1518.4 2308.17 1516.08 2305.81 1514.42C2303.47 1512.76 2300.42 1511.93 2296.67 1511.93C2294.03 1511.93 2291.77 1512.33 2289.89 1513.12C2288 1513.92 2286.56 1515 2285.56 1516.36C2284.56 1517.73 2284.05 1519.28 2284.02 1521.03C2284.02 1522.49 2284.35 1523.75 2285.01 1524.82C2285.69 1525.89 2286.61 1526.8 2287.77 1527.55C2288.93 1528.27 2290.22 1528.89 2291.62 1529.39C2293.03 1529.89 2294.45 1530.31 2295.89 1530.65L2302.43 1532.28C2305.07 1532.9 2307.6 1533.73 2310.03 1534.77C2312.49 1535.82 2314.68 1537.14 2316.61 1538.73C2318.57 1540.32 2320.11 1542.24 2321.25 1544.49C2322.39 1546.74 2322.95 1549.37 2322.95 1552.4C2322.95 1556.49 2321.91 1560.09 2319.82 1563.2C2317.73 1566.3 2314.7 1568.72 2310.75 1570.47C2306.82 1572.19 2302.06 1573.06 2296.47 1573.06C2291.03 1573.06 2286.32 1572.22 2282.32 1570.53C2278.34 1568.85 2275.23 1566.4 2272.98 1563.17C2270.75 1559.94 2269.55 1556.01 2269.36 1551.38H2281.81C2281.99 1553.81 2282.74 1555.83 2284.06 1557.44C2285.38 1559.06 2287.09 1560.26 2289.2 1561.06C2291.34 1561.85 2293.73 1562.25 2296.36 1562.25C2299.11 1562.25 2301.52 1561.84 2303.59 1561.02C2305.68 1560.18 2307.32 1559.02 2308.5 1557.55C2309.68 1556.05 2310.28 1554.3 2310.31 1552.3C2310.28 1550.48 2309.75 1548.98 2308.7 1547.8C2307.66 1546.59 2306.19 1545.59 2304.31 1544.8C2302.44 1543.98 2300.26 1543.25 2297.76 1542.61L2289.82 1540.57C2284.07 1539.09 2279.52 1536.85 2276.18 1533.85C2272.86 1530.83 2271.2 1526.82 2271.2 1521.82C2271.2 1517.7 2272.32 1514.1 2274.55 1511.01C2276.8 1507.92 2279.85 1505.52 2283.72 1503.82C2287.58 1502.09 2291.95 1501.23 2296.84 1501.23C2301.8 1501.23 2306.14 1502.09 2309.86 1503.82C2313.61 1505.52 2316.56 1507.9 2318.69 1510.94C2320.83 1513.97 2321.93 1517.44 2322 1521.38H2309.83Z" fill="white"/>
<defs>
<linearGradient id="paint0_linear_6_2423" x1="3133.72" y1="3595.66" x2="660.367" y2="523.912" gradientUnits="userSpaceOnUse">
<stop stop-color="#786CE6"/>
<stop offset="1" stop-color="#E9EFFD"/>
</linearGradient>
<linearGradient id="paint1_linear_6_2423" x1="817" y1="289.4" x2="1299.55" y2="289.4" gradientUnits="userSpaceOnUse">
<stop stop-color="#786CE6"/>
<stop offset="1" stop-color="#786CE6"/>
</linearGradient>
<linearGradient id="paint2_linear_6_2423" x1="823.108" y1="1781.67" x2="3235.27" y2="185.007" gradientUnits="userSpaceOnUse">
<stop stop-color="#09005D"/>
<stop offset="1" stop-color="#1A0F91"/>
</linearGradient>
<linearGradient id="paint3_linear_6_2423" x1="1408.21" y1="1239.16" x2="1408.21" y2="1837.32" gradientUnits="userSpaceOnUse">
<stop stop-color="#09005D"/>
<stop offset="1" stop-color="#1A0F91"/>
</linearGradient>
<linearGradient id="paint4_linear_6_2423" x1="2273.44" y1="1197.94" x2="2159.49" y2="1988.83" gradientUnits="userSpaceOnUse">
<stop stop-color="#786CE6"/>
<stop offset="1" stop-color="#786CE6"/>
</linearGradient>
<linearGradient id="paint5_linear_6_2423" x1="1424.76" y1="253.962" x2="1907.31" y2="253.962" gradientUnits="userSpaceOnUse">
<stop stop-color="white"/>
<stop offset="1" stop-color="white"/>
</linearGradient>
<linearGradient id="paint6_linear_6_2423" x1="1549.84" y1="245.382" x2="1618.65" y2="245.382" gradientUnits="userSpaceOnUse">
<stop stop-color="#786CE6"/>
<stop offset="1" stop-color="#786CE6"/>
</linearGradient>
<linearGradient id="paint7_linear_6_2423" x1="1656.16" y1="240.969" x2="1780.87" y2="240.969" gradientUnits="userSpaceOnUse">
<stop stop-color="#786CE6"/>
<stop offset="1" stop-color="#786CE6"/>
</linearGradient>
<linearGradient id="paint8_linear_6_2423" x1="2243.25" y1="68.5477" x2="2075.69" y2="1047.11" gradientUnits="userSpaceOnUse">
<stop stop-color="#786CE6"/>
<stop offset="1" stop-color="#786CE6"/>
</linearGradient>
<linearGradient id="paint9_linear_6_2423" x1="2142.45" y1="953.512" x2="2596.13" y2="953.512" gradientUnits="userSpaceOnUse">
<stop stop-color="white"/>
<stop offset="1" stop-color="white"/>
</linearGradient>
<linearGradient id="paint10_linear_6_2423" x1="2216.01" y1="951.448" x2="2303.69" y2="951.448" gradientUnits="userSpaceOnUse">
<stop stop-color="#786CE6"/>
<stop offset="1" stop-color="#786CE6"/>
</linearGradient>
<linearGradient id="paint11_linear_6_2423" x1="2325.76" y1="953.747" x2="2406.31" y2="953.747" gradientUnits="userSpaceOnUse">
<stop stop-color="#786CE6"/>
<stop offset="1" stop-color="#786CE6"/>
</linearGradient>
<linearGradient id="paint12_linear_6_2423" x1="2430.57" y1="956.399" x2="2516.9" y2="956.399" gradientUnits="userSpaceOnUse">
<stop stop-color="#786CE6"/>
<stop offset="1" stop-color="#786CE6"/>
</linearGradient>
<linearGradient id="paint13_linear_6_2423" x1="1126.82" y1="2688.91" x2="1379.03" y2="2688.91" gradientUnits="userSpaceOnUse">
<stop stop-color="#4F52FF"/>
<stop offset="1" stop-color="#4042E2"/>
</linearGradient>
<linearGradient id="paint14_linear_6_2423" x1="1126.8" y1="2639.48" x2="1371.91" y2="2639.48" gradientUnits="userSpaceOnUse">
<stop stop-color="#09005D"/>
<stop offset="1" stop-color="#1A0F91"/>
</linearGradient>
<linearGradient id="paint15_linear_6_2423" x1="1150.1" y1="2570.46" x2="1221.15" y2="2570.46" gradientUnits="userSpaceOnUse">
<stop stop-color="#FEBBBA"/>
<stop offset="1" stop-color="#FF928E"/>
</linearGradient>
<linearGradient id="paint16_linear_6_2423" x1="676.64" y1="2751.45" x2="773.294" y2="2751.45" gradientUnits="userSpaceOnUse">
<stop stop-color="#4F52FF"/>
<stop offset="1" stop-color="#4042E2"/>
</linearGradient>
<linearGradient id="paint17_linear_6_2423" x1="677.343" y1="2655.27" x2="819.212" y2="2655.27" gradientUnits="userSpaceOnUse">
<stop stop-color="#09005D"/>
<stop offset="1" stop-color="#1A0F91"/>
</linearGradient>
<linearGradient id="paint18_linear_6_2423" x1="751.084" y1="2533.42" x2="835.99" y2="2533.42" gradientUnits="userSpaceOnUse">
<stop stop-color="#FEBBBA"/>
<stop offset="1" stop-color="#FF928E"/>
</linearGradient>
<linearGradient id="paint19_linear_6_2423" x1="1437.85" y1="1617.18" x2="712.949" y2="2804.63" gradientUnits="userSpaceOnUse">
<stop stop-color="#4F52FF"/>
<stop offset="1" stop-color="#4042E2"/>
</linearGradient>
<linearGradient id="paint20_linear_6_2423" x1="1356.81" y1="566.869" x2="1306.54" y2="1099.69" gradientUnits="userSpaceOnUse">
<stop stop-color="#4F52FF"/>
<stop offset="1" stop-color="#4042E2"/>
</linearGradient>
<linearGradient id="paint21_linear_6_2423" x1="1253.49" y1="1048.06" x2="916.707" y2="1817.13" gradientUnits="userSpaceOnUse">
<stop stop-color="#4C4FF9"/>
<stop offset="1" stop-color="#4C4FF9"/>
</linearGradient>
<linearGradient id="paint22_linear_6_2423" x1="1169.38" y1="1027.72" x2="1206.16" y2="834.583" gradientUnits="userSpaceOnUse">
<stop stop-color="#FEBBBA"/>
<stop offset="1" stop-color="#FF928E"/>
</linearGradient>
<linearGradient id="paint23_linear_6_2423" x1="1268.92" y1="673.371" x2="1059.02" y2="833.979" gradientUnits="userSpaceOnUse">
<stop stop-color="#FEBBBA"/>
<stop offset="1" stop-color="#FF928E"/>
</linearGradient>
<linearGradient id="paint24_linear_6_2423" x1="1121.16" y1="546.205" x2="1316.65" y2="797.9" gradientUnits="userSpaceOnUse">
<stop stop-color="#09005D"/>
<stop offset="1" stop-color="#1A0F91"/>
</linearGradient>
<linearGradient id="paint25_linear_6_2423" x1="1242.89" y1="639.344" x2="1032.98" y2="799.952" gradientUnits="userSpaceOnUse">
<stop stop-color="#FEBBBA"/>
<stop offset="1" stop-color="#FF928E"/>
</linearGradient>
<linearGradient id="paint26_linear_6_2423" x1="1403.05" y1="723.943" x2="1629.25" y2="10.1668" gradientUnits="userSpaceOnUse">
<stop stop-color="#FEBBBA"/>
<stop offset="1" stop-color="#FF928E"/>
</linearGradient>
<linearGradient id="paint27_linear_6_2423" x1="-2740.26" y1="-11099.8" x2="-2966.46" y2="-11813.6" gradientUnits="userSpaceOnUse">
<stop stop-color="#FEBBBA"/>
<stop offset="1" stop-color="#FF928E"/>
</linearGradient>
<linearGradient id="paint28_linear_6_2423" x1="1141.09" y1="1441.47" x2="1410.74" y2="1529.91" gradientUnits="userSpaceOnUse">
<stop stop-color="#09005D"/>
<stop offset="1" stop-color="#1A0F91"/>
</linearGradient>
<linearGradient id="paint29_linear_6_2423" x1="1512.23" y1="1266.83" x2="1705.27" y2="1470.87" gradientUnits="userSpaceOnUse">
<stop stop-color="#09005D"/>
<stop offset="1" stop-color="#1A0F91"/>
</linearGradient>
<linearGradient id="paint30_linear_6_2423" x1="1629.29" y1="1317.83" x2="1716.55" y2="1449.24" gradientUnits="userSpaceOnUse">
<stop stop-color="white"/>
<stop offset="1" stop-color="white"/>
</linearGradient>
<linearGradient id="paint31_linear_6_2423" x1="1522.99" y1="1166.07" x2="1186.21" y2="1935.14" gradientUnits="userSpaceOnUse">
<stop stop-color="#4C4FF9"/>
<stop offset="1" stop-color="#4C4FF9"/>
</linearGradient>
<linearGradient id="paint32_linear_6_2423" x1="10813.2" y1="-1820.43" x2="11127.6" y2="-1923" gradientUnits="userSpaceOnUse">
<stop stop-color="#4C4FF9"/>
<stop offset="1" stop-color="#4C4FF9"/>
</linearGradient>
<linearGradient id="paint33_linear_6_2423" x1="10819.1" y1="-1803.91" x2="11133.5" y2="-1906.49" gradientUnits="userSpaceOnUse">
<stop stop-color="#FEBBBA"/>
<stop offset="1" stop-color="#FF928E"/>
</linearGradient>
<linearGradient id="paint34_linear_6_2423" x1="1390.52" y1="1021.74" x2="1430.81" y2="1021.74" gradientUnits="userSpaceOnUse">
<stop stop-color="#4C4FF9"/>
<stop offset="1" stop-color="#4C4FF9"/>
</linearGradient>
</defs>
</svg>
