<svg width="380" height="230" viewBox="0 0 380 230" fill="none" xmlns="http://www.w3.org/2000/svg">
<path d="M372 0H8C3.58172 0 0 3.58172 0 8V222C0 226.418 3.58172 230 8 230H372C376.418 230 380 226.418 380 222V8C380 3.58172 376.418 0 372 0Z" fill="#282C34"/>
<path d="M372 0H8C3.58172 0 0 3.58172 0 8V17C0 21.4183 3.58172 25 8 25H372C376.418 25 380 21.4183 380 17V8C380 3.58172 376.418 0 372 0Z" fill="#21252B"/>
<path d="M380 12H0V25H380V12Z" fill="#21252B"/>
<path d="M15 16C17.2091 16 19 14.2091 19 12C19 9.79086 17.2091 8 15 8C12.7909 8 11 9.79086 11 12C11 14.2091 12.7909 16 15 16Z" fill="#FF5F56"/>
<path d="M30 16C32.2091 16 34 14.2091 34 12C34 9.79086 32.2091 8 30 8C27.7909 8 26 9.79086 26 12C26 14.2091 27.7909 16 30 16Z" fill="#FFBD2E"/>
<path d="M45 16C47.2091 16 49 14.2091 49 12C49 9.79086 47.2091 8 45 8C42.7909 8 41 9.79086 41 12C41 14.2091 42.7909 16 45 16Z" fill="#27CA3F"/>
<path d="M127 5H73C71.3431 5 70 6.34315 70 8V17C70 18.6569 71.3431 20 73 20H127C128.657 20 130 18.6569 130 17V8C130 6.34315 128.657 5 127 5Z" fill="#3C4043"/>
<path d="M78.7001 15V10.0909H79.4544V15H78.7001ZM79.0836 9.27273C78.9366 9.27273 78.8098 9.22266 78.7033 9.12251C78.5989 9.02237 78.5467 8.90199 78.5467 8.76136C78.5467 8.62074 78.5989 8.50036 78.7033 8.40021C78.8098 8.30007 78.9366 8.25 79.0836 8.25C79.2306 8.25 79.3564 8.30007 79.4608 8.40021C79.5673 8.50036 79.6206 8.62074 79.6206 8.76136C79.6206 8.90199 79.5673 9.02237 79.4608 9.12251C79.3564 9.22266 79.2306 9.27273 79.0836 9.27273ZM81.5901 12.0469V15H80.8358V10.0909H81.5645V10.858H81.6285C81.7435 10.6087 81.9182 10.4084 82.1526 10.2571C82.387 10.1037 82.6895 10.027 83.0603 10.027C83.3927 10.027 83.6835 10.0952 83.9328 10.2315C84.1821 10.3658 84.376 10.5703 84.5145 10.8452C84.653 11.1179 84.7222 11.4631 84.7222 11.8807V15H83.968V11.9318C83.968 11.5462 83.8678 11.2457 83.6675 11.0305C83.4672 10.8132 83.1924 10.7045 82.843 10.7045C82.6022 10.7045 82.387 10.7567 82.1974 10.8612C82.0099 10.9656 81.8618 11.1179 81.7531 11.3182C81.6444 11.5185 81.5901 11.7614 81.5901 12.0469ZM87.9542 15.1023C87.5451 15.1023 87.1839 14.9989 86.8707 14.7923C86.5575 14.5835 86.3125 14.2894 86.1357 13.9102C85.9588 13.5288 85.8704 13.0781 85.8704 12.5582C85.8704 12.0426 85.9588 11.5952 86.1357 11.2159C86.3125 10.8366 86.5586 10.5437 86.8739 10.337C87.1893 10.1303 87.5536 10.027 87.967 10.027C88.2866 10.027 88.5391 10.0803 88.7244 10.1868C88.9119 10.2912 89.0547 10.4105 89.1527 10.5447C89.2528 10.6768 89.3306 10.7855 89.386 10.8707H89.4499V8.45455H90.2042V15H89.4755V14.2457H89.386C89.3306 14.3352 89.2518 14.4482 89.1495 14.5845C89.0472 14.7187 88.9013 14.8391 88.7116 14.9457C88.522 15.0501 88.2695 15.1023 87.9542 15.1023ZM88.0565 14.4247C88.359 14.4247 88.6147 14.3459 88.8235 14.1882C89.0323 14.0284 89.1911 13.8079 89.2997 13.5266C89.4084 13.2433 89.4627 12.9162 89.4627 12.5455C89.4627 12.179 89.4094 11.8583 89.3029 11.5835C89.1964 11.3065 89.0387 11.0913 88.8299 10.9379C88.6211 10.7823 88.3633 10.7045 88.0565 10.7045C87.7369 10.7045 87.4705 10.7866 87.2575 10.9506C87.0465 11.1126 86.8878 11.3331 86.7812 11.6122C86.6768 11.8892 86.6246 12.2003 86.6246 12.5455C86.6246 12.8949 86.6779 13.2124 86.7844 13.4979C86.8931 13.7812 87.0529 14.0071 87.2638 14.1754C87.4769 14.3416 87.7411 14.4247 88.0565 14.4247ZM93.7486 15.1023C93.2756 15.1023 92.8675 14.9979 92.5245 14.7891C92.1836 14.5781 91.9205 14.2841 91.7351 13.907C91.5518 13.5277 91.4602 13.0866 91.4602 12.5838C91.4602 12.081 91.5518 11.6378 91.7351 11.2543C91.9205 10.8686 92.1783 10.5682 92.5085 10.353C92.8409 10.1357 93.2287 10.027 93.6719 10.027C93.9276 10.027 94.18 10.0696 94.4293 10.1548C94.6786 10.2401 94.9055 10.3786 95.1101 10.5703C95.3146 10.7599 95.4776 11.0114 95.5991 11.3246C95.7205 11.6378 95.7812 12.0234 95.7812 12.4815V12.8011H91.9972V12.1491H95.0142C95.0142 11.8722 94.9588 11.625 94.848 11.4077C94.7393 11.1903 94.5838 11.0188 94.3814 10.8931C94.1811 10.7674 93.9446 10.7045 93.6719 10.7045C93.3714 10.7045 93.1115 10.7791 92.892 10.9283C92.6747 11.0753 92.5075 11.267 92.3903 11.5036C92.2731 11.7401 92.2145 11.9936 92.2145 12.2642V12.6989C92.2145 13.0696 92.2784 13.3839 92.4062 13.6417C92.5362 13.8974 92.7163 14.0923 92.9464 14.2266C93.1765 14.3587 93.4439 14.4247 93.7486 14.4247C93.9467 14.4247 94.1257 14.397 94.2855 14.3416C94.4474 14.2841 94.587 14.1989 94.7042 14.0859C94.8214 13.9709 94.9119 13.8281 94.9759 13.6577L95.7045 13.8622C95.6278 14.1094 95.4989 14.3267 95.3178 14.5142C95.1367 14.6996 94.913 14.8445 94.6467 14.9489C94.3803 15.0511 94.081 15.1023 93.7486 15.1023ZM97.3593 10.0909L98.5354 12.098L99.7116 10.0909H100.581L98.9957 12.5455L100.581 15H99.7116L98.5354 13.0952L97.3593 15H96.49L98.0496 12.5455L96.49 10.0909H97.3593ZM102.207 15.0511C102.049 15.0511 101.914 14.9947 101.801 14.8817C101.688 14.7688 101.632 14.6335 101.632 14.4759C101.632 14.3182 101.688 14.1829 101.801 14.07C101.914 13.957 102.049 13.9006 102.207 13.9006C102.365 13.9006 102.5 13.957 102.613 14.07C102.726 14.1829 102.782 14.3182 102.782 14.4759C102.782 14.5803 102.756 14.6761 102.702 14.7635C102.651 14.8509 102.582 14.9212 102.494 14.9744C102.409 15.0256 102.313 15.0511 102.207 15.0511ZM104.89 12.0469V15H104.136V8.45455H104.89V10.858H104.954C105.069 10.6044 105.241 10.4031 105.472 10.2539C105.704 10.1026 106.013 10.027 106.398 10.027C106.733 10.027 107.026 10.0941 107.277 10.2283C107.529 10.3604 107.724 10.5639 107.862 10.8388C108.003 11.1115 108.073 11.4588 108.073 11.8807V15H107.319V11.9318C107.319 11.5419 107.218 11.2404 107.015 11.0273C106.815 10.8121 106.537 10.7045 106.181 10.7045C105.934 10.7045 105.712 10.7567 105.516 10.8612C105.322 10.9656 105.169 11.1179 105.056 11.3182C104.945 11.5185 104.89 11.7614 104.89 12.0469ZM111.588 10.0909V10.7301H109.044V10.0909H111.588ZM109.785 8.91477H110.54V13.5938C110.54 13.8068 110.571 13.9666 110.632 14.0732C110.696 14.1776 110.777 14.2479 110.875 14.2841C110.975 14.3182 111.081 14.3352 111.192 14.3352C111.275 14.3352 111.343 14.331 111.396 14.3224C111.449 14.3118 111.492 14.3033 111.524 14.2969L111.677 14.9744C111.626 14.9936 111.555 15.0128 111.463 15.032C111.372 15.0533 111.256 15.0639 111.115 15.0639C110.902 15.0639 110.693 15.0181 110.489 14.9265C110.286 14.8349 110.118 14.6953 109.984 14.5078C109.851 14.3203 109.785 14.0838 109.785 13.7983V8.91477ZM112.723 15V10.0909H113.451V10.858H113.515C113.617 10.5959 113.783 10.3924 114.011 10.2475C114.239 10.1005 114.512 10.027 114.832 10.027C115.156 10.027 115.425 10.1005 115.641 10.2475C115.858 10.3924 116.027 10.5959 116.149 10.858H116.2C116.326 10.6044 116.514 10.4031 116.766 10.2539C117.017 10.1026 117.318 10.027 117.67 10.027C118.109 10.027 118.468 10.1644 118.747 10.4393C119.026 10.712 119.166 11.1371 119.166 11.7145V15H118.411V11.7145C118.411 11.3523 118.312 11.0934 118.114 10.9379C117.916 10.7823 117.683 10.7045 117.414 10.7045C117.069 10.7045 116.802 10.8089 116.612 11.0178C116.422 11.2244 116.328 11.4865 116.328 11.804V15H115.561V11.6378C115.561 11.3587 115.47 11.1339 115.289 10.9634C115.108 10.7908 114.875 10.7045 114.589 10.7045C114.393 10.7045 114.21 10.7567 114.039 10.8612C113.871 10.9656 113.735 11.1104 113.63 11.2958C113.528 11.479 113.477 11.6911 113.477 11.9318V15H112.723ZM121.299 8.45455V15H120.545V8.45455H121.299Z" fill="#ABB2BF"/>
<path d="M192 5H138C136.343 5 135 6.34315 135 8V17C135 18.6569 136.343 20 138 20H192C193.657 20 195 18.6569 195 17V8C195 6.34315 193.657 5 192 5Z" fill="#2C323C"/>
<path d="M150.535 11.1903L149.857 11.3821C149.815 11.2692 149.752 11.1594 149.669 11.0529C149.588 10.9442 149.477 10.8548 149.336 10.7844C149.196 10.7141 149.016 10.679 148.796 10.679C148.496 10.679 148.245 10.7482 148.045 10.8867C147.847 11.0231 147.748 11.1967 147.748 11.4077C147.748 11.5952 147.816 11.7433 147.952 11.8519C148.089 11.9606 148.302 12.0511 148.592 12.1236L149.32 12.3026C149.759 12.4091 150.086 12.5721 150.301 12.7915C150.517 13.0089 150.624 13.2891 150.624 13.6321C150.624 13.9134 150.543 14.1648 150.381 14.3864C150.222 14.608 149.998 14.7827 149.71 14.9105C149.423 15.0384 149.088 15.1023 148.707 15.1023C148.206 15.1023 147.792 14.9936 147.463 14.7763C147.135 14.5589 146.928 14.2415 146.84 13.8239L147.556 13.6449C147.624 13.9091 147.753 14.1072 147.943 14.2393C148.135 14.3714 148.385 14.4375 148.694 14.4375C149.045 14.4375 149.325 14.3629 149.531 14.2138C149.74 14.0625 149.844 13.8814 149.844 13.6705C149.844 13.5 149.785 13.3572 149.665 13.2422C149.546 13.125 149.363 13.0376 149.116 12.9801L148.298 12.7884C147.848 12.6818 147.518 12.5167 147.307 12.293C147.098 12.0671 146.994 11.7848 146.994 11.446C146.994 11.169 147.071 10.924 147.227 10.7109C147.385 10.4979 147.599 10.3306 147.869 10.2092C148.142 10.0877 148.451 10.027 148.796 10.027C149.282 10.027 149.663 10.1335 149.94 10.3466C150.219 10.5597 150.418 10.8409 150.535 11.1903ZM153.895 10.0909V10.7301H151.351V10.0909H153.895ZM152.092 8.91477H152.846V13.5938C152.846 13.8068 152.877 13.9666 152.939 14.0732C153.003 14.1776 153.084 14.2479 153.182 14.2841C153.282 14.3182 153.388 14.3352 153.498 14.3352C153.581 14.3352 153.65 14.331 153.703 14.3224C153.756 14.3118 153.799 14.3033 153.831 14.2969L153.984 14.9744C153.933 14.9936 153.862 15.0128 153.77 15.032C153.678 15.0533 153.562 15.0639 153.422 15.0639C153.209 15.0639 153 15.0181 152.795 14.9265C152.593 14.8349 152.424 14.6953 152.29 14.5078C152.158 14.3203 152.092 14.0838 152.092 13.7983V8.91477ZM155.515 16.8409C155.387 16.8409 155.273 16.8303 155.173 16.8089C155.073 16.7898 155.004 16.7706 154.965 16.7514L155.157 16.0866C155.34 16.1335 155.502 16.1506 155.643 16.1378C155.783 16.125 155.908 16.0621 156.017 15.9492C156.128 15.8384 156.229 15.6584 156.32 15.4091L156.461 15.0256L154.646 10.0909H155.464L156.819 14.0028H156.87L158.225 10.0909H159.043L156.96 15.7159C156.866 15.9695 156.75 16.1793 156.611 16.3455C156.473 16.5138 156.312 16.6385 156.129 16.7195C155.948 16.8004 155.743 16.8409 155.515 16.8409ZM160.793 8.45455V15H160.039V8.45455H160.793ZM164.233 15.1023C163.76 15.1023 163.352 14.9979 163.009 14.7891C162.668 14.5781 162.405 14.2841 162.219 13.907C162.036 13.5277 161.945 13.0866 161.945 12.5838C161.945 12.081 162.036 11.6378 162.219 11.2543C162.405 10.8686 162.663 10.5682 162.993 10.353C163.325 10.1357 163.713 10.027 164.156 10.027C164.412 10.027 164.664 10.0696 164.914 10.1548C165.163 10.2401 165.39 10.3786 165.594 10.5703C165.799 10.7599 165.962 11.0114 166.083 11.3246C166.205 11.6378 166.266 12.0234 166.266 12.4815V12.8011H162.482V12.1491H165.499C165.499 11.8722 165.443 11.625 165.332 11.4077C165.224 11.1903 165.068 11.0188 164.866 10.8931C164.665 10.7674 164.429 10.7045 164.156 10.7045C163.856 10.7045 163.596 10.7791 163.376 10.9283C163.159 11.0753 162.992 11.267 162.875 11.5036C162.757 11.7401 162.699 11.9936 162.699 12.2642V12.6989C162.699 13.0696 162.763 13.3839 162.891 13.6417C163.021 13.8974 163.201 14.0923 163.431 14.2266C163.661 14.3587 163.928 14.4247 164.233 14.4247C164.431 14.4247 164.61 14.397 164.77 14.3416C164.932 14.2841 165.071 14.1989 165.189 14.0859C165.306 13.9709 165.396 13.8281 165.46 13.6577L166.189 13.8622C166.112 14.1094 165.983 14.3267 165.802 14.5142C165.621 14.6996 165.397 14.8445 165.131 14.9489C164.865 15.0511 164.565 15.1023 164.233 15.1023ZM167.963 15.0511C167.805 15.0511 167.67 14.9947 167.557 14.8817C167.444 14.7688 167.387 14.6335 167.387 14.4759C167.387 14.3182 167.444 14.1829 167.557 14.07C167.67 13.957 167.805 13.9006 167.963 13.9006C168.12 13.9006 168.256 13.957 168.369 14.07C168.482 14.1829 168.538 14.3182 168.538 14.4759C168.538 14.5803 168.511 14.6761 168.458 14.7635C168.407 14.8509 168.338 14.9212 168.25 14.9744C168.165 15.0256 168.069 15.0511 167.963 15.0511ZM171.886 15.1023C171.426 15.1023 171.029 14.9936 170.697 14.7763C170.365 14.5589 170.109 14.2596 169.93 13.8782C169.751 13.4968 169.661 13.0611 169.661 12.571C169.661 12.0724 169.753 11.6325 169.936 11.2511C170.122 10.8675 170.379 10.5682 170.71 10.353C171.042 10.1357 171.43 10.027 171.873 10.027C172.218 10.027 172.529 10.0909 172.806 10.2188C173.083 10.3466 173.31 10.5256 173.487 10.7557C173.664 10.9858 173.774 11.2543 173.816 11.5611H173.062C173.004 11.3374 172.877 11.1392 172.678 10.9666C172.482 10.7919 172.218 10.7045 171.886 10.7045C171.592 10.7045 171.334 10.7812 171.112 10.9347C170.893 11.0859 170.721 11.3001 170.598 11.5771C170.476 11.8519 170.416 12.1747 170.416 12.5455C170.416 12.9247 170.475 13.255 170.595 13.5362C170.716 13.8175 170.887 14.0359 171.106 14.1914C171.328 14.3469 171.588 14.4247 171.886 14.4247C172.082 14.4247 172.26 14.3906 172.42 14.3224C172.579 14.2543 172.715 14.1562 172.825 14.0284C172.936 13.9006 173.015 13.7472 173.062 13.5682H173.816C173.774 13.858 173.668 14.119 173.5 14.3512C173.334 14.5813 173.113 14.7646 172.838 14.9009C172.566 15.0352 172.248 15.1023 171.886 15.1023ZM178.396 11.1903L177.719 11.3821C177.676 11.2692 177.613 11.1594 177.53 11.0529C177.449 10.9442 177.338 10.8548 177.198 10.7844C177.057 10.7141 176.877 10.679 176.657 10.679C176.357 10.679 176.107 10.7482 175.906 10.8867C175.708 11.0231 175.609 11.1967 175.609 11.4077C175.609 11.5952 175.677 11.7433 175.814 11.8519C175.95 11.9606 176.163 12.0511 176.453 12.1236L177.182 12.3026C177.621 12.4091 177.948 12.5721 178.163 12.7915C178.378 13.0089 178.486 13.2891 178.486 13.6321C178.486 13.9134 178.405 14.1648 178.243 14.3864C178.083 14.608 177.859 14.7827 177.572 14.9105C177.284 15.0384 176.949 15.1023 176.568 15.1023C176.067 15.1023 175.653 14.9936 175.325 14.7763C174.997 14.5589 174.789 14.2415 174.702 13.8239L175.417 13.6449C175.486 13.9091 175.615 14.1072 175.804 14.2393C175.996 14.3714 176.246 14.4375 176.555 14.4375C176.907 14.4375 177.186 14.3629 177.393 14.2138C177.601 14.0625 177.706 13.8814 177.706 13.6705C177.706 13.5 177.646 13.3572 177.527 13.2422C177.407 13.125 177.224 13.0376 176.977 12.9801L176.159 12.7884C175.709 12.6818 175.379 12.5167 175.168 12.293C174.959 12.0671 174.855 11.7848 174.855 11.446C174.855 11.169 174.933 10.924 175.088 10.7109C175.246 10.4979 175.46 10.3306 175.731 10.2092C176.003 10.0877 176.312 10.027 176.657 10.027C177.143 10.027 177.525 10.1335 177.802 10.3466C178.081 10.5597 178.279 10.8409 178.396 11.1903ZM183.098 11.1903L182.421 11.3821C182.378 11.2692 182.315 11.1594 182.232 11.0529C182.151 10.9442 182.04 10.8548 181.9 10.7844C181.759 10.7141 181.579 10.679 181.36 10.679C181.059 10.679 180.809 10.7482 180.609 10.8867C180.41 11.0231 180.311 11.1967 180.311 11.4077C180.311 11.5952 180.38 11.7433 180.516 11.8519C180.652 11.9606 180.865 12.0511 181.155 12.1236L181.884 12.3026C182.323 12.4091 182.65 12.5721 182.865 12.7915C183.08 13.0089 183.188 13.2891 183.188 13.6321C183.188 13.9134 183.107 14.1648 182.945 14.3864C182.785 14.608 182.561 14.7827 182.274 14.9105C181.986 15.0384 181.652 15.1023 181.27 15.1023C180.769 15.1023 180.355 14.9936 180.027 14.7763C179.699 14.5589 179.491 14.2415 179.404 13.8239L180.12 13.6449C180.188 13.9091 180.317 14.1072 180.506 14.2393C180.698 14.3714 180.948 14.4375 181.257 14.4375C181.609 14.4375 181.888 14.3629 182.095 14.2138C182.304 14.0625 182.408 13.8814 182.408 13.6705C182.408 13.5 182.348 13.3572 182.229 13.2422C182.11 13.125 181.926 13.0376 181.679 12.9801L180.861 12.7884C180.411 12.6818 180.081 12.5167 179.87 12.293C179.661 12.0671 179.557 11.7848 179.557 11.446C179.557 11.169 179.635 10.924 179.79 10.7109C179.948 10.4979 180.162 10.3306 180.433 10.2092C180.706 10.0877 181.014 10.027 181.36 10.027C181.845 10.027 182.227 10.1335 182.504 10.3466C182.783 10.5597 182.981 10.8409 183.098 11.1903Z" fill="#5C6370"/>
<path d="M35 30H10V220H35V30Z" fill="#2C323C"/>
<path d="M22.9854 37.7273V45H22.1048V38.6506H22.0621L20.2866 39.8295V38.9347L22.1048 37.7273H22.9854Z" fill="#5C6370"/>
<path d="M19.7255 60V59.3608L22.1261 56.733C22.4078 56.4252 22.6398 56.1577 22.8221 55.9304C23.0044 55.7008 23.1393 55.4853 23.2269 55.2841C23.3169 55.0805 23.3619 54.8674 23.3619 54.6449C23.3619 54.3892 23.3003 54.1679 23.1772 53.9808C23.0565 53.7938 22.8907 53.6494 22.68 53.5476C22.4693 53.4458 22.2326 53.3949 21.9698 53.3949C21.6905 53.3949 21.4466 53.4529 21.2383 53.5689C21.0323 53.6825 20.8725 53.8423 20.7589 54.0483C20.6476 54.2543 20.592 54.4957 20.592 54.7727H19.7539C19.7539 54.3466 19.8522 53.9725 20.0487 53.6506C20.2451 53.3286 20.5127 53.0777 20.8512 52.8977C21.1921 52.7178 21.5745 52.6278 21.9982 52.6278C22.4244 52.6278 22.802 52.7178 23.131 52.8977C23.4601 53.0777 23.7182 53.3203 23.9052 53.6257C24.0922 53.9311 24.1857 54.2708 24.1857 54.6449C24.1857 54.9124 24.1372 55.174 24.0401 55.4297C23.9454 55.683 23.7797 55.9659 23.543 56.2784C23.3086 56.5885 22.9831 56.9673 22.5664 57.4148L20.9329 59.1619V59.2188H24.3136V60H19.7255Z" fill="#5C6370"/>
<path d="M22.0266 75.0994C21.5579 75.0994 21.14 75.0189 20.7731 74.858C20.4085 74.697 20.1185 74.4732 19.9031 74.1868C19.69 73.898 19.574 73.563 19.555 73.1818H20.4499C20.4689 73.4162 20.5494 73.6186 20.6914 73.7891C20.8335 73.9571 21.0193 74.0874 21.2489 74.1797C21.4786 74.272 21.7331 74.3182 22.0124 74.3182C22.3249 74.3182 22.6019 74.2637 22.8434 74.1548C23.0849 74.0459 23.2743 73.8944 23.4116 73.7003C23.5489 73.5062 23.6175 73.2812 23.6175 73.0256C23.6175 72.758 23.5513 72.5225 23.4187 72.3189C23.2861 72.1129 23.092 71.9519 22.8363 71.8359C22.5806 71.7199 22.2681 71.6619 21.8988 71.6619H21.3164V70.8807H21.8988C22.1876 70.8807 22.4409 70.8286 22.6587 70.7244C22.8789 70.6203 23.0505 70.4735 23.1737 70.2841C23.2991 70.0947 23.3619 69.8722 23.3619 69.6165C23.3619 69.3703 23.3074 69.156 23.1985 68.9737C23.0896 68.7914 22.9357 68.6494 22.7369 68.5476C22.5404 68.4458 22.3084 68.3949 22.0408 68.3949C21.7899 68.3949 21.5531 68.4411 21.3306 68.5334C21.1104 68.6233 20.9305 68.7547 20.7908 68.9276C20.6512 69.098 20.5754 69.304 20.5636 69.5455H19.7113C19.7255 69.1643 19.8403 68.8305 20.0558 68.544C20.2712 68.2552 20.5529 68.0303 20.9009 67.8693C21.2513 67.7083 21.636 67.6278 22.055 67.6278C22.5049 67.6278 22.8907 67.719 23.2127 67.9013C23.5347 68.0812 23.7821 68.3191 23.9549 68.6151C24.1277 68.911 24.2141 69.2306 24.2141 69.5739C24.2141 69.9834 24.1064 70.3326 23.891 70.6214C23.6779 70.9103 23.3879 71.1103 23.021 71.2216V71.2784C23.4802 71.3542 23.8389 71.5495 24.0969 71.8643C24.355 72.1768 24.484 72.5639 24.484 73.0256C24.484 73.4209 24.3763 73.776 24.1609 74.0909C23.9478 74.4034 23.6566 74.6496 23.2873 74.8295C22.918 75.0095 22.4978 75.0994 22.0266 75.0994Z" fill="#5C6370"/>
<path d="M19.3744 88.5085V87.7841L22.5704 82.7273H23.096V83.8494H22.7409L20.3261 87.6705V87.7273H24.6301V88.5085H19.3744ZM22.7977 90V88.2884V87.951V82.7273H23.6357V90H22.7977Z" fill="#5C6370"/>
<path d="M21.9836 105.099C21.5669 105.099 21.1917 105.017 20.8579 104.851C20.5241 104.685 20.2565 104.458 20.0553 104.169C19.8541 103.88 19.744 103.551 19.7251 103.182H20.5773C20.6105 103.511 20.7596 103.783 21.0248 103.999C21.2923 104.212 21.6119 104.318 21.9836 104.318C22.2819 104.318 22.547 104.248 22.779 104.109C23.0134 103.969 23.1969 103.777 23.3295 103.533C23.4644 103.287 23.5319 103.009 23.5319 102.699C23.5319 102.382 23.462 102.099 23.3224 101.85C23.185 101.599 22.9957 101.402 22.7542 101.257C22.5127 101.113 22.2369 101.039 21.9268 101.037C21.7042 101.035 21.4758 101.069 21.2414 101.14C21.007 101.209 20.8141 101.297 20.6626 101.406L19.8387 101.307L20.279 97.7273H24.0574V98.5085H21.0177L20.762 100.653H20.8046C20.9537 100.535 21.1408 100.437 21.3657 100.359C21.5906 100.281 21.825 100.241 22.0688 100.241C22.5139 100.241 22.9104 100.348 23.2584 100.561C23.6088 100.772 23.8834 101.061 24.0823 101.428C24.2835 101.795 24.3841 102.214 24.3841 102.685C24.3841 103.149 24.28 103.563 24.0716 103.928C23.8657 104.29 23.5816 104.576 23.2194 104.787C22.8572 104.995 22.4452 105.099 21.9836 105.099Z" fill="#5C6370"/>
<path d="M22.0475 120.099C21.7492 120.095 21.4509 120.038 21.1526 119.929C20.8543 119.82 20.5821 119.637 20.3358 119.379C20.0896 119.118 19.892 118.767 19.7428 118.324C19.5937 117.879 19.5191 117.32 19.5191 116.648C19.5191 116.004 19.5795 115.433 19.7002 114.936C19.8209 114.437 19.9961 114.016 20.2258 113.675C20.4554 113.332 20.7324 113.072 21.0567 112.894C21.3834 112.717 21.7516 112.628 22.1611 112.628C22.5683 112.628 22.9305 112.71 23.2478 112.873C23.5674 113.034 23.8278 113.259 24.029 113.548C24.2303 113.836 24.3605 114.169 24.4197 114.545H23.5532C23.4727 114.219 23.3164 113.948 23.0844 113.732C22.8524 113.517 22.5447 113.409 22.1611 113.409C21.5977 113.409 21.1538 113.654 20.8295 114.144C20.5075 114.634 20.3453 115.322 20.343 116.207H20.3998C20.5323 116.006 20.6898 115.835 20.8721 115.692C21.0567 115.548 21.2603 115.437 21.4829 115.359C21.7054 115.281 21.941 115.241 22.1895 115.241C22.6062 115.241 22.9874 115.346 23.333 115.554C23.6787 115.76 23.9556 116.045 24.164 116.41C24.3723 116.772 24.4765 117.188 24.4765 117.656C24.4765 118.106 24.3759 118.518 24.1746 118.892C23.9734 119.264 23.6905 119.56 23.3259 119.78C22.9637 119.998 22.5376 120.104 22.0475 120.099ZM22.0475 119.318C22.3458 119.318 22.6133 119.244 22.8501 119.094C23.0892 118.945 23.2774 118.745 23.4147 118.494C23.5544 118.243 23.6242 117.964 23.6242 117.656C23.6242 117.356 23.5567 117.082 23.4218 116.836C23.2892 116.587 23.1057 116.39 22.8714 116.243C22.6394 116.096 22.3742 116.023 22.0759 116.023C21.851 116.023 21.6415 116.068 21.4474 116.158C21.2532 116.245 21.0828 116.366 20.936 116.52C20.7916 116.674 20.6779 116.85 20.5951 117.049C20.5122 117.246 20.4708 117.453 20.4708 117.67C20.4708 117.959 20.5383 118.229 20.6732 118.48C20.8105 118.731 20.9975 118.933 21.2343 119.087C21.4734 119.241 21.7445 119.318 22.0475 119.318Z" fill="#5C6370"/>
<path d="M46.1094 42.1875V41.5625L51.1406 39V40L47.2813 41.8594L47.3125 41.7969V41.9531L47.2813 41.8906L51.1406 43.75V44.75L46.1094 42.1875ZM54.0166 41.3906V45H53.0947V37H54.0166V39.9375H54.0947C54.2354 39.6276 54.4463 39.3815 54.7275 39.1992C55.0114 39.0143 55.389 38.9219 55.8604 38.9219C56.2692 38.9219 56.6273 39.0039 56.9346 39.168C57.2419 39.3294 57.4801 39.5781 57.6494 39.9141C57.8213 40.2474 57.9072 40.6719 57.9072 41.1875V45H56.9854V41.25C56.9854 40.7734 56.8617 40.4049 56.6143 40.1445C56.3695 39.8815 56.0296 39.75 55.5947 39.75C55.2926 39.75 55.0218 39.8138 54.7822 39.9414C54.5452 40.069 54.3577 40.2552 54.2197 40.5C54.0843 40.7448 54.0166 41.0417 54.0166 41.3906ZM62.1094 45.125C61.5313 45.125 61.0326 44.9974 60.6133 44.7422C60.1966 44.4844 59.875 44.125 59.6484 43.6641C59.4245 43.2005 59.3125 42.6615 59.3125 42.0469C59.3125 41.4323 59.4245 40.8906 59.6484 40.4219C59.875 39.9505 60.1901 39.5833 60.5938 39.3203C61 39.0547 61.474 38.9219 62.0156 38.9219C62.3281 38.9219 62.6367 38.974 62.9414 39.0781C63.2461 39.1823 63.5234 39.3516 63.7734 39.5859C64.0234 39.8177 64.2227 40.125 64.3711 40.5078C64.5195 40.8906 64.5938 41.362 64.5938 41.9219V42.3125H59.9688V41.5156H63.6563C63.6563 41.1771 63.5885 40.875 63.4531 40.6094C63.3203 40.3437 63.1302 40.1341 62.8828 39.9805C62.638 39.8268 62.349 39.75 62.0156 39.75C61.6484 39.75 61.3307 39.8411 61.0625 40.0234C60.7969 40.2031 60.5924 40.4375 60.4492 40.7266C60.306 41.0156 60.2344 41.3255 60.2344 41.6562V42.1875C60.2344 42.6406 60.3125 43.0247 60.4688 43.3398C60.6276 43.6523 60.8477 43.8906 61.1289 44.0547C61.4102 44.2161 61.737 44.2969 62.1094 44.2969C62.3516 44.2969 62.5703 44.263 62.7656 44.1953C62.9635 44.125 63.1341 44.0208 63.2773 43.8828C63.4206 43.7422 63.5313 43.5677 63.6094 43.3594L64.5 43.6094C64.4063 43.9115 64.2487 44.1771 64.0273 44.4062C63.806 44.6328 63.5326 44.8099 63.207 44.9375C62.8815 45.0625 62.5156 45.125 62.1094 45.125ZM67.7617 45.1406C67.3815 45.1406 67.0365 45.069 66.7266 44.9258C66.4167 44.7799 66.1706 44.5703 65.9883 44.2969C65.806 44.0208 65.7148 43.6875 65.7148 43.2969C65.7148 42.9531 65.7826 42.6745 65.918 42.4609C66.0534 42.2448 66.2344 42.0755 66.4609 41.9531C66.6875 41.8307 66.9375 41.7396 67.2109 41.6797C67.487 41.6172 67.7643 41.5677 68.043 41.5313C68.4076 41.4844 68.7031 41.4492 68.9297 41.4258C69.1589 41.3997 69.3255 41.3568 69.4297 41.2969C69.5365 41.237 69.5898 41.1328 69.5898 40.9844V40.9531C69.5898 40.5677 69.4844 40.2682 69.2734 40.0547C69.0651 39.8411 68.7487 39.7344 68.3242 39.7344C67.8841 39.7344 67.5391 39.8307 67.2891 40.0234C67.0391 40.2161 66.8633 40.4219 66.7617 40.6406L65.8867 40.3281C66.043 39.9635 66.2513 39.6797 66.5117 39.4766C66.7747 39.2708 67.0612 39.1276 67.3711 39.0469C67.6836 38.9635 67.9909 38.9219 68.293 38.9219C68.4857 38.9219 68.707 38.9453 68.957 38.9922C69.2096 39.0365 69.4531 39.1289 69.6875 39.2695C69.9245 39.4102 70.1211 39.6224 70.2773 39.9062C70.4336 40.1901 70.5117 40.5703 70.5117 41.0469V45H69.5898V44.1875H69.543C69.4805 44.3177 69.3763 44.457 69.2305 44.6055C69.0846 44.7539 68.8906 44.8802 68.6484 44.9844C68.4063 45.0885 68.1107 45.1406 67.7617 45.1406ZM67.9023 44.3125C68.2669 44.3125 68.5742 44.2409 68.8242 44.0977C69.0768 43.9544 69.2669 43.7695 69.3945 43.543C69.5247 43.3164 69.5898 43.0781 69.5898 42.8281V41.9844C69.5508 42.0312 69.4648 42.0742 69.332 42.1133C69.2018 42.1497 69.0508 42.1823 68.8789 42.2109C68.7096 42.237 68.5443 42.2604 68.3828 42.2812C68.224 42.2995 68.0951 42.3151 67.9961 42.3281C67.7565 42.3594 67.5326 42.4102 67.3242 42.4805C67.1185 42.5482 66.9518 42.651 66.8242 42.7891C66.6992 42.9245 66.6367 43.1094 66.6367 43.3437C66.6367 43.6641 66.7552 43.9062 66.9922 44.0703C67.2318 44.2318 67.5352 44.3125 67.9023 44.3125ZM74.46 45.125C73.96 45.125 73.5186 44.9987 73.1357 44.7461C72.7529 44.4909 72.4535 44.1315 72.2373 43.668C72.0212 43.2018 71.9131 42.651 71.9131 42.0156C71.9131 41.3854 72.0212 40.8385 72.2373 40.375C72.4535 39.9115 72.7542 39.5534 73.1396 39.3008C73.5251 39.0482 73.9704 38.9219 74.4756 38.9219C74.8662 38.9219 75.1748 38.987 75.4014 39.1172C75.6305 39.2448 75.805 39.3906 75.9248 39.5547C76.0472 39.7161 76.1423 39.849 76.21 39.9531H76.2881V37H77.21V45H76.3193V44.0781H76.21C76.1423 44.1875 76.0459 44.3255 75.9209 44.4922C75.7959 44.6562 75.6175 44.8034 75.3857 44.9336C75.154 45.0612 74.8454 45.125 74.46 45.125ZM74.585 44.2969C74.9548 44.2969 75.2673 44.2005 75.5225 44.0078C75.7777 43.8125 75.9717 43.543 76.1045 43.1992C76.2373 42.8529 76.3037 42.4531 76.3037 42C76.3037 41.5521 76.2386 41.1602 76.1084 40.8242C75.9782 40.4857 75.7855 40.2227 75.5303 40.0352C75.2751 39.8451 74.96 39.75 74.585 39.75C74.1943 39.75 73.8688 39.8503 73.6084 40.0508C73.3506 40.2487 73.1566 40.5182 73.0264 40.8594C72.8988 41.1979 72.835 41.5781 72.835 42C72.835 42.4271 72.9001 42.8151 73.0303 43.1641C73.1631 43.5104 73.3584 43.7865 73.6162 43.9922C73.8766 44.1953 74.1995 44.2969 74.585 44.2969ZM81.542 45.125C80.9639 45.125 80.4652 44.9974 80.0459 44.7422C79.6292 44.4844 79.3076 44.125 79.0811 43.6641C78.8571 43.2005 78.7451 42.6615 78.7451 42.0469C78.7451 41.4323 78.8571 40.8906 79.0811 40.4219C79.3076 39.9505 79.6227 39.5833 80.0264 39.3203C80.4326 39.0547 80.9066 38.9219 81.4482 38.9219C81.7607 38.9219 82.0693 38.974 82.374 39.0781C82.6787 39.1823 82.9561 39.3516 83.2061 39.5859C83.4561 39.8177 83.6553 40.125 83.8037 40.5078C83.9521 40.8906 84.0264 41.362 84.0264 41.9219V42.3125H79.4014V41.5156H83.0889C83.0889 41.1771 83.0212 40.875 82.8857 40.6094C82.7529 40.3437 82.5628 40.1341 82.3154 39.9805C82.0706 39.8268 81.7816 39.75 81.4482 39.75C81.0811 39.75 80.7633 39.8411 80.4951 40.0234C80.2295 40.2031 80.0251 40.4375 79.8818 40.7266C79.7386 41.0156 79.667 41.3255 79.667 41.6562V42.1875C79.667 42.6406 79.7451 43.0247 79.9014 43.3398C80.0602 43.6523 80.2803 43.8906 80.5615 44.0547C80.8428 44.2161 81.1696 44.2969 81.542 44.2969C81.7842 44.2969 82.0029 44.263 82.1982 44.1953C82.3962 44.125 82.5667 44.0208 82.71 43.8828C82.8532 43.7422 82.9639 43.5677 83.042 43.3594L83.9326 43.6094C83.8389 43.9115 83.6813 44.1771 83.46 44.4062C83.2386 44.6328 82.9652 44.8099 82.6396 44.9375C82.3141 45.0625 81.9482 45.125 81.542 45.125ZM85.4287 45V39H86.3193V39.9062H86.3818C86.4912 39.6094 86.6891 39.3685 86.9756 39.1836C87.262 38.9987 87.585 38.9062 87.9443 38.9062C88.012 38.9062 88.0967 38.9076 88.1982 38.9102C88.2998 38.9128 88.3766 38.9167 88.4287 38.9219V39.8594C88.3975 39.8516 88.3258 39.8398 88.2139 39.8242C88.1045 39.806 87.9886 39.7969 87.8662 39.7969C87.5745 39.7969 87.3141 39.8581 87.085 39.9805C86.8584 40.1003 86.6787 40.2669 86.5459 40.4805C86.4157 40.6914 86.3506 40.9323 86.3506 41.2031V45H85.4287ZM94.8184 42.1875L89.7871 44.75V43.75L93.6465 41.8906L93.6152 41.9531V41.7969L93.6465 41.8594L89.7871 40V39L94.8184 41.5625V42.1875Z" fill="#E06C75"/>
<path d="M56.1094 57.1875V56.5625L61.1406 54V55L57.2813 56.8594L57.3125 56.7969V56.9531L57.2813 56.8906L61.1406 58.75V59.75L56.1094 57.1875ZM64.0166 56.3906V60H63.0947V54H63.9854V54.9375H64.0635C64.2041 54.6328 64.4176 54.388 64.7041 54.2031C64.9906 54.0156 65.3604 53.9219 65.8135 53.9219C66.2197 53.9219 66.5752 54.0052 66.8799 54.1719C67.1846 54.3359 67.4215 54.5859 67.5908 54.9219C67.7601 55.2552 67.8447 55.6771 67.8447 56.1875V60H66.9229V56.25C66.9229 55.7786 66.8005 55.4115 66.5557 55.1484C66.3109 54.8828 65.9749 54.75 65.5479 54.75C65.2536 54.75 64.9906 54.8138 64.7588 54.9414C64.5296 55.069 64.3486 55.2552 64.2158 55.5C64.083 55.7448 64.0166 56.0417 64.0166 56.3906ZM71.2949 60.1406C70.9147 60.1406 70.5697 60.069 70.2598 59.9258C69.9499 59.7799 69.7038 59.5703 69.5215 59.2969C69.3392 59.0208 69.248 58.6875 69.248 58.2969C69.248 57.9531 69.3158 57.6745 69.4512 57.4609C69.5866 57.2448 69.7676 57.0755 69.9941 56.9531C70.2207 56.8307 70.4707 56.7396 70.7441 56.6797C71.0202 56.6172 71.2975 56.5677 71.5762 56.5313C71.9408 56.4844 72.2363 56.4492 72.4629 56.4258C72.6921 56.3997 72.8587 56.3568 72.9629 56.2969C73.0697 56.237 73.123 56.1328 73.123 55.9844V55.9531C73.123 55.5677 73.0176 55.2682 72.8066 55.0547C72.5983 54.8411 72.2819 54.7344 71.8574 54.7344C71.4173 54.7344 71.0723 54.8307 70.8223 55.0234C70.5723 55.2161 70.3965 55.4219 70.2949 55.6406L69.4199 55.3281C69.5762 54.9635 69.7845 54.6797 70.0449 54.4766C70.3079 54.2708 70.5944 54.1276 70.9043 54.0469C71.2168 53.9635 71.5241 53.9219 71.8262 53.9219C72.0189 53.9219 72.2402 53.9453 72.4902 53.9922C72.7428 54.0365 72.9863 54.1289 73.2207 54.2695C73.4577 54.4102 73.6543 54.6224 73.8105 54.9062C73.9668 55.1901 74.0449 55.5703 74.0449 56.0469V60H73.123V59.1875H73.0762C73.0137 59.3177 72.9095 59.457 72.7637 59.6055C72.6178 59.7539 72.4238 59.8802 72.1816 59.9844C71.9395 60.0885 71.6439 60.1406 71.2949 60.1406ZM71.4355 59.3125C71.8001 59.3125 72.1074 59.2409 72.3574 59.0977C72.61 58.9544 72.8001 58.7695 72.9277 58.543C73.0579 58.3164 73.123 58.0781 73.123 57.8281V56.9844C73.084 57.0312 72.998 57.0742 72.8652 57.1133C72.735 57.1497 72.584 57.1823 72.4121 57.2109C72.2428 57.237 72.0775 57.2604 71.916 57.2812C71.7572 57.2995 71.6283 57.3151 71.5293 57.3281C71.2897 57.3594 71.0658 57.4102 70.8574 57.4805C70.6517 57.5482 70.485 57.651 70.3574 57.7891C70.2324 57.9245 70.1699 58.1094 70.1699 58.3437C70.1699 58.6641 70.2884 58.9062 70.5254 59.0703C70.765 59.2318 71.0684 59.3125 71.4355 59.3125ZM80.4189 54L78.2002 60H77.2627L75.0439 54H76.0439L77.7002 58.7812H77.7627L79.4189 54H80.4189Z" fill="#E06C75"/>
<path d="M88.2813 60.125C87.7188 60.125 87.2344 59.9922 86.8281 59.7266C86.4219 59.4609 86.1094 59.0951 85.8906 58.6289C85.6719 58.1628 85.5625 57.6302 85.5625 57.0312C85.5625 56.4219 85.6745 55.8841 85.8984 55.418C86.125 54.9492 86.4401 54.5833 86.8438 54.3203C87.25 54.0547 87.724 53.9219 88.2656 53.9219C88.6875 53.9219 89.0677 54 89.4063 54.1562C89.7448 54.3125 90.0221 54.5312 90.2383 54.8125C90.4544 55.0937 90.5885 55.4219 90.6406 55.7969H89.7188C89.6484 55.5234 89.4922 55.2812 89.25 55.0703C89.0104 54.8568 88.6875 54.75 88.2813 54.75C87.9219 54.75 87.6068 54.8437 87.3359 55.0312C87.0677 55.2161 86.8581 55.4779 86.707 55.8164C86.5586 56.1523 86.4844 56.5469 86.4844 57C86.4844 57.4635 86.5573 57.8672 86.7031 58.2109C86.8516 58.5547 87.0599 58.8216 87.3281 59.0117C87.599 59.2018 87.9167 59.2969 88.2813 59.2969C88.5208 59.2969 88.7383 59.2552 88.9336 59.1719C89.1289 59.0885 89.2943 58.9688 89.4297 58.8125C89.5651 58.6562 89.6615 58.4687 89.7188 58.25H90.6406C90.5885 58.6042 90.4596 58.9232 90.2539 59.207C90.0508 59.4883 89.7813 59.7122 89.4453 59.8789C89.112 60.043 88.724 60.125 88.2813 60.125ZM92.9102 52V60H91.9883V52H92.9102ZM96.3643 60.1406C95.984 60.1406 95.639 60.069 95.3291 59.9258C95.0192 59.7799 94.7731 59.5703 94.5908 59.2969C94.4085 59.0208 94.3174 58.6875 94.3174 58.2969C94.3174 57.9531 94.3851 57.6745 94.5205 57.4609C94.6559 57.2448 94.8369 57.0755 95.0635 56.9531C95.29 56.8307 95.54 56.7396 95.8135 56.6797C96.0895 56.6172 96.3669 56.5677 96.6455 56.5313C97.0101 56.4844 97.3057 56.4492 97.5322 56.4258C97.7614 56.3997 97.9281 56.3568 98.0322 56.2969C98.139 56.237 98.1924 56.1328 98.1924 55.9844V55.9531C98.1924 55.5677 98.0869 55.2682 97.876 55.0547C97.6676 54.8411 97.3512 54.7344 96.9268 54.7344C96.4867 54.7344 96.1416 54.8307 95.8916 55.0234C95.6416 55.2161 95.4658 55.4219 95.3643 55.6406L94.4893 55.3281C94.6455 54.9635 94.8538 54.6797 95.1143 54.4766C95.3773 54.2708 95.6637 54.1276 95.9736 54.0469C96.2861 53.9635 96.5934 53.9219 96.8955 53.9219C97.0882 53.9219 97.3096 53.9453 97.5596 53.9922C97.8122 54.0365 98.0557 54.1289 98.29 54.2695C98.527 54.4102 98.7236 54.6224 98.8799 54.9062C99.0361 55.1901 99.1143 55.5703 99.1143 56.0469V60H98.1924V59.1875H98.1455C98.083 59.3177 97.9788 59.457 97.833 59.6055C97.6872 59.7539 97.4932 59.8802 97.251 59.9844C97.0088 60.0885 96.7132 60.1406 96.3643 60.1406ZM96.5049 59.3125C96.8695 59.3125 97.1768 59.2409 97.4268 59.0977C97.6794 58.9544 97.8695 58.7695 97.9971 58.543C98.1273 58.3164 98.1924 58.0781 98.1924 57.8281V56.9844C98.1533 57.0312 98.0674 57.0742 97.9346 57.1133C97.8044 57.1497 97.6533 57.1823 97.4814 57.2109C97.3122 57.237 97.1468 57.2604 96.9854 57.2812C96.8265 57.2995 96.6976 57.3151 96.5986 57.3281C96.359 57.3594 96.1351 57.4102 95.9268 57.4805C95.721 57.5482 95.5544 57.651 95.4268 57.7891C95.3018 57.9245 95.2393 58.1094 95.2393 58.3437C95.2393 58.6641 95.3577 58.9062 95.5947 59.0703C95.8343 59.2318 96.1377 59.3125 96.5049 59.3125ZM105.047 55.3437L104.219 55.5781C104.167 55.4401 104.09 55.306 103.988 55.1758C103.889 55.043 103.754 54.9336 103.582 54.8477C103.41 54.7617 103.19 54.7187 102.922 54.7187C102.555 54.7187 102.249 54.8034 102.004 54.9727C101.762 55.1393 101.641 55.3516 101.641 55.6094C101.641 55.8385 101.724 56.0195 101.891 56.1523C102.057 56.2852 102.318 56.3958 102.672 56.4844L103.562 56.7031C104.099 56.8333 104.499 57.0326 104.762 57.3008C105.025 57.5664 105.156 57.9089 105.156 58.3281C105.156 58.6719 105.057 58.9792 104.859 59.25C104.664 59.5208 104.391 59.7344 104.039 59.8906C103.688 60.0469 103.279 60.125 102.813 60.125C102.201 60.125 101.694 59.9922 101.293 59.7266C100.892 59.4609 100.638 59.0729 100.531 58.5625L101.406 58.3437C101.49 58.6667 101.647 58.9089 101.879 59.0703C102.113 59.2318 102.419 59.3125 102.797 59.3125C103.227 59.3125 103.568 59.2214 103.82 59.0391C104.076 58.8542 104.203 58.6328 104.203 58.375C104.203 58.1667 104.13 57.9922 103.984 57.8516C103.839 57.7083 103.615 57.6016 103.313 57.5312L102.313 57.2969C101.763 57.1667 101.359 56.9648 101.102 56.6914C100.846 56.4154 100.719 56.0703 100.719 55.6562C100.719 55.3177 100.814 55.0182 101.004 54.7578C101.197 54.4974 101.458 54.293 101.789 54.1445C102.122 53.9961 102.5 53.9219 102.922 53.9219C103.516 53.9219 103.982 54.0521 104.32 54.3125C104.661 54.5729 104.904 54.9167 105.047 55.3437ZM110.794 55.3437L109.966 55.5781C109.914 55.4401 109.837 55.306 109.735 55.1758C109.636 55.043 109.501 54.9336 109.329 54.8477C109.157 54.7617 108.937 54.7187 108.669 54.7187C108.302 54.7187 107.996 54.8034 107.751 54.9727C107.509 55.1393 107.388 55.3516 107.388 55.6094C107.388 55.8385 107.471 56.0195 107.638 56.1523C107.804 56.2852 108.065 56.3958 108.419 56.4844L109.31 56.7031C109.846 56.8333 110.246 57.0326 110.509 57.3008C110.772 57.5664 110.903 57.9089 110.903 58.3281C110.903 58.6719 110.804 58.9792 110.606 59.25C110.411 59.5208 110.138 59.7344 109.786 59.8906C109.435 60.0469 109.026 60.125 108.56 60.125C107.948 60.125 107.441 59.9922 107.04 59.7266C106.639 59.4609 106.385 59.0729 106.278 58.5625L107.153 58.3437C107.237 58.6667 107.394 58.9089 107.626 59.0703C107.86 59.2318 108.166 59.3125 108.544 59.3125C108.974 59.3125 109.315 59.2214 109.567 59.0391C109.823 58.8542 109.95 58.6328 109.95 58.375C109.95 58.1667 109.877 57.9922 109.731 57.8516C109.586 57.7083 109.362 57.6016 109.06 57.5312L108.06 57.2969C107.51 57.1667 107.106 56.9648 106.849 56.6914C106.593 56.4154 106.466 56.0703 106.466 55.6562C106.466 55.3177 106.561 55.0182 106.751 54.7578C106.944 54.4974 107.205 54.293 107.536 54.1445C107.869 53.9961 108.247 53.9219 108.669 53.9219C109.263 53.9219 109.729 54.0521 110.067 54.3125C110.409 54.5729 110.651 54.9167 110.794 55.3437Z" fill="#D19A66"/>
<path d="M111.219 56.1406V55.2969H116.031V56.1406H111.219ZM111.219 58.4531V57.6094H116.031V58.4531H111.219Z" fill="#ABB2BF"/>
<path d="M121.641 52V54.75H120.781V52H121.641ZM123.641 52V54.75H122.781V52H123.641ZM126.202 56.3906V60H125.28V54H126.171V54.9375H126.249C126.39 54.6328 126.603 54.388 126.89 54.2031C127.176 54.0156 127.546 53.9219 127.999 53.9219C128.405 53.9219 128.761 54.0052 129.065 54.1719C129.37 54.3359 129.607 54.5859 129.776 54.9219C129.946 55.2552 130.03 55.6771 130.03 56.1875V60H129.108V56.25C129.108 55.7786 128.986 55.4115 128.741 55.1484C128.496 54.8828 128.16 54.75 127.733 54.75C127.439 54.75 127.176 54.8138 126.944 54.9414C126.715 55.069 126.534 55.2552 126.401 55.5C126.269 55.7448 126.202 56.0417 126.202 56.3906ZM133.48 60.1406C133.1 60.1406 132.755 60.069 132.445 59.9258C132.135 59.7799 131.889 59.5703 131.707 59.2969C131.525 59.0208 131.434 58.6875 131.434 58.2969C131.434 57.9531 131.501 57.6745 131.637 57.4609C131.772 57.2448 131.953 57.0755 132.18 56.9531C132.406 56.8307 132.656 56.7396 132.93 56.6797C133.206 56.6172 133.483 56.5677 133.762 56.5313C134.126 56.4844 134.422 56.4492 134.648 56.4258C134.878 56.3997 135.044 56.3568 135.148 56.2969C135.255 56.237 135.309 56.1328 135.309 55.9844V55.9531C135.309 55.5677 135.203 55.2682 134.992 55.0547C134.784 54.8411 134.467 54.7344 134.043 54.7344C133.603 54.7344 133.258 54.8307 133.008 55.0234C132.758 55.2161 132.582 55.4219 132.48 55.6406L131.605 55.3281C131.762 54.9635 131.97 54.6797 132.23 54.4766C132.493 54.2708 132.78 54.1276 133.09 54.0469C133.402 53.9635 133.71 53.9219 134.012 53.9219C134.204 53.9219 134.426 53.9453 134.676 53.9922C134.928 54.0365 135.172 54.1289 135.406 54.2695C135.643 54.4102 135.84 54.6224 135.996 54.9062C136.152 55.1901 136.23 55.5703 136.23 56.0469V60H135.309V59.1875H135.262C135.199 59.3177 135.095 59.457 134.949 59.6055C134.803 59.7539 134.609 59.8802 134.367 59.9844C134.125 60.0885 133.829 60.1406 133.48 60.1406ZM133.621 59.3125C133.986 59.3125 134.293 59.2409 134.543 59.0977C134.796 58.9544 134.986 58.7695 135.113 58.543C135.243 58.3164 135.309 58.0781 135.309 57.8281V56.9844C135.27 57.0312 135.184 57.0742 135.051 57.1133C134.921 57.1497 134.77 57.1823 134.598 57.2109C134.428 57.237 134.263 57.2604 134.102 57.2812C133.943 57.2995 133.814 57.3151 133.715 57.3281C133.475 57.3594 133.251 57.4102 133.043 57.4805C132.837 57.5482 132.671 57.651 132.543 57.7891C132.418 57.9245 132.355 58.1094 132.355 58.3437C132.355 58.6641 132.474 58.9062 132.711 59.0703C132.951 59.2318 133.254 59.3125 133.621 59.3125ZM142.604 54L140.386 60H139.448L137.229 54H138.229L139.886 58.7812H139.948L141.604 54H142.604ZM143.946 60V52H144.868V54.9531H144.946C145.014 54.849 145.108 54.7161 145.228 54.5547C145.35 54.3906 145.524 54.2448 145.751 54.1172C145.98 53.987 146.29 53.9219 146.681 53.9219C147.186 53.9219 147.631 54.0482 148.017 54.3008C148.402 54.5534 148.703 54.9115 148.919 55.375C149.135 55.8385 149.243 56.3854 149.243 57.0156C149.243 57.651 149.135 58.2018 148.919 58.668C148.703 59.1315 148.403 59.4909 148.021 59.7461C147.638 59.9987 147.196 60.125 146.696 60.125C146.311 60.125 146.002 60.0612 145.771 59.9336C145.539 59.8034 145.36 59.6562 145.235 59.4922C145.11 59.3255 145.014 59.1875 144.946 59.0781H144.837V60H143.946ZM144.853 57C144.853 57.4531 144.919 57.8529 145.052 58.1992C145.185 58.543 145.379 58.8125 145.634 59.0078C145.889 59.2005 146.201 59.2969 146.571 59.2969C146.957 59.2969 147.278 59.1953 147.536 58.9922C147.797 58.7865 147.992 58.5104 148.122 58.1641C148.255 57.8151 148.321 57.4271 148.321 57C148.321 56.5781 148.256 56.1979 148.126 55.8594C147.998 55.5182 147.804 55.2487 147.544 55.0508C147.286 54.8503 146.962 54.75 146.571 54.75C146.196 54.75 145.881 54.8451 145.626 55.0352C145.371 55.2227 145.178 55.4857 145.048 55.8242C144.918 56.1602 144.853 56.5521 144.853 57ZM152.419 60.1406C152.039 60.1406 151.694 60.069 151.384 59.9258C151.074 59.7799 150.828 59.5703 150.646 59.2969C150.463 59.0208 150.372 58.6875 150.372 58.2969C150.372 57.9531 150.44 57.6745 150.575 57.4609C150.711 57.2448 150.892 57.0755 151.118 56.9531C151.345 56.8307 151.595 56.7396 151.868 56.6797C152.144 56.6172 152.422 56.5677 152.7 56.5313C153.065 56.4844 153.36 56.4492 153.587 56.4258C153.816 56.3997 153.983 56.3568 154.087 56.2969C154.194 56.237 154.247 56.1328 154.247 55.9844V55.9531C154.247 55.5677 154.142 55.2682 153.931 55.0547C153.722 54.8411 153.406 54.7344 152.981 54.7344C152.541 54.7344 152.196 54.8307 151.946 55.0234C151.696 55.2161 151.521 55.4219 151.419 55.6406L150.544 55.3281C150.7 54.9635 150.909 54.6797 151.169 54.4766C151.432 54.2708 151.718 54.1276 152.028 54.0469C152.341 53.9635 152.648 53.9219 152.95 53.9219C153.143 53.9219 153.364 53.9453 153.614 53.9922C153.867 54.0365 154.11 54.1289 154.345 54.2695C154.582 54.4102 154.778 54.6224 154.935 54.9062C155.091 55.1901 155.169 55.5703 155.169 56.0469V60H154.247V59.1875H154.2C154.138 59.3177 154.034 59.457 153.888 59.6055C153.742 59.7539 153.548 59.8802 153.306 59.9844C153.063 60.0885 152.768 60.1406 152.419 60.1406ZM152.56 59.3125C152.924 59.3125 153.231 59.2409 153.481 59.0977C153.734 58.9544 153.924 58.7695 154.052 58.543C154.182 58.3164 154.247 58.0781 154.247 57.8281V56.9844C154.208 57.0312 154.122 57.0742 153.989 57.1133C153.859 57.1497 153.708 57.1823 153.536 57.2109C153.367 57.237 153.201 57.2604 153.04 57.2812C152.881 57.2995 152.752 57.3151 152.653 57.3281C152.414 57.3594 152.19 57.4102 151.981 57.4805C151.776 57.5482 151.609 57.651 151.481 57.7891C151.356 57.9245 151.294 58.1094 151.294 58.3437C151.294 58.6641 151.412 58.9062 151.649 59.0703C151.889 59.2318 152.192 59.3125 152.56 59.3125ZM156.852 60V54H157.742V54.9062H157.805C157.914 54.6094 158.112 54.3685 158.398 54.1836C158.685 53.9987 159.008 53.9062 159.367 53.9062C159.435 53.9062 159.52 53.9076 159.621 53.9102C159.723 53.9128 159.799 53.9167 159.852 53.9219V54.8594C159.82 54.8516 159.749 54.8398 159.637 54.8242C159.527 54.806 159.411 54.7969 159.289 54.7969C158.997 54.7969 158.737 54.8581 158.508 54.9805C158.281 55.1003 158.102 55.2669 157.969 55.4805C157.839 55.6914 157.773 55.9323 157.773 56.2031V60H156.852ZM161.741 52V54.75H160.882V52H161.741ZM163.741 52V54.75H162.882V52H163.741Z" fill="#98C379"/>
<path d="M176.141 57.1875L171.109 59.75V58.75L174.969 56.8906L174.938 56.9531V56.7969L174.969 56.8594L171.109 55V54L176.141 56.5625V57.1875Z" fill="#E06C75"/>
<path d="M66.1094 72.1875V71.5625L71.1406 69V70L67.2813 71.8594L67.3125 71.7969V71.9531L67.2813 71.8906L71.1406 73.75V74.75L66.1094 72.1875ZM76.876 72.5469V69H77.7979V75H76.876V73.9844H76.8135C76.6729 74.2891 76.4541 74.5482 76.1572 74.7617C75.8604 74.9727 75.4854 75.0781 75.0322 75.0781C74.6572 75.0781 74.3239 74.9961 74.0322 74.832C73.7406 74.6654 73.5114 74.4154 73.3447 74.082C73.1781 73.7461 73.0947 73.3229 73.0947 72.8125V69H74.0166V72.75C74.0166 73.1875 74.139 73.5365 74.3838 73.7969C74.6312 74.0573 74.9463 74.1875 75.3291 74.1875C75.5583 74.1875 75.7913 74.1289 76.0283 74.0117C76.2679 73.8945 76.4684 73.7148 76.6299 73.4727C76.7939 73.2305 76.876 72.9219 76.876 72.5469ZM80.4082 67V75H79.4863V67H80.4082ZM87.3936 72.1875L82.3623 74.75V73.75L86.2217 71.8906L86.1904 71.9531V71.7969L86.2217 71.8594L82.3623 70V69L87.3936 71.5625V72.1875Z" fill="#E06C75"/>
<path d="M76.1094 87.1875V86.5625L81.1406 84V85L77.2813 86.8594L77.3125 86.7969V86.9531L77.2813 86.8906L81.1406 88.75V89.75L76.1094 87.1875ZM84.0166 82V90H83.0947V82H84.0166ZM85.7051 90V84H86.627V90H85.7051ZM86.1738 83C85.9941 83 85.8392 82.9388 85.709 82.8164C85.5814 82.694 85.5176 82.5469 85.5176 82.375C85.5176 82.2031 85.5814 82.056 85.709 81.9336C85.8392 81.8112 85.9941 81.75 86.1738 81.75C86.3535 81.75 86.5072 81.8112 86.6348 81.9336C86.765 82.056 86.8301 82.2031 86.8301 82.375C86.8301 82.5469 86.765 82.694 86.6348 82.8164C86.5072 82.9388 86.3535 83 86.1738 83ZM93.6123 87.1875L88.5811 89.75V88.75L92.4404 86.8906L92.4092 86.9531V86.7969L92.4404 86.8594L88.5811 85V84L93.6123 86.5625V87.1875Z" fill="#E06C75"/>
<path d="M105.969 90V82H106.938V85.5625H111.203V82H112.172V90H111.203V86.4219H106.938V90H105.969ZM116.424 90.125C115.882 90.125 115.407 89.9961 114.998 89.7383C114.592 89.4805 114.274 89.1198 114.045 88.6562C113.818 88.1927 113.705 87.651 113.705 87.0312C113.705 86.4062 113.818 85.8607 114.045 85.3945C114.274 84.9284 114.592 84.5664 114.998 84.3086C115.407 84.0508 115.882 83.9219 116.424 83.9219C116.965 83.9219 117.439 84.0508 117.846 84.3086C118.255 84.5664 118.572 84.9284 118.799 85.3945C119.028 85.8607 119.143 86.4062 119.143 87.0312C119.143 87.651 119.028 88.1927 118.799 88.6562C118.572 89.1198 118.255 89.4805 117.846 89.7383C117.439 89.9961 116.965 90.125 116.424 90.125ZM116.424 89.2969C116.835 89.2969 117.174 89.1914 117.439 88.9805C117.705 88.7695 117.902 88.4922 118.029 88.1484C118.157 87.8047 118.221 87.4323 118.221 87.0312C118.221 86.6302 118.157 86.2565 118.029 85.9102C117.902 85.5638 117.705 85.2839 117.439 85.0703C117.174 84.8568 116.835 84.75 116.424 84.75C116.012 84.75 115.674 84.8568 115.408 85.0703C115.143 85.2839 114.946 85.5638 114.818 85.9102C114.691 86.2565 114.627 86.6302 114.627 87.0312C114.627 87.4323 114.691 87.8047 114.818 88.1484C114.946 88.4922 115.143 88.7695 115.408 88.9805C115.674 89.1914 116.012 89.2969 116.424 89.2969ZM120.55 90V84H121.44V84.9375H121.519C121.644 84.6172 121.845 84.3685 122.124 84.1914C122.403 84.0117 122.737 83.9219 123.128 83.9219C123.524 83.9219 123.853 84.0117 124.116 84.1914C124.382 84.3685 124.589 84.6172 124.737 84.9375H124.8C124.953 84.6276 125.184 84.3815 125.491 84.1992C125.799 84.0143 126.167 83.9219 126.597 83.9219C127.133 83.9219 127.572 84.0898 127.913 84.4258C128.254 84.7591 128.425 85.2786 128.425 85.9844V90H127.503V85.9844C127.503 85.5417 127.382 85.2253 127.14 85.0352C126.897 84.8451 126.612 84.75 126.284 84.75C125.862 84.75 125.535 84.8776 125.304 85.1328C125.072 85.3854 124.956 85.7057 124.956 86.0937V90H124.019V85.8906C124.019 85.5495 123.908 85.2747 123.687 85.0664C123.465 84.8555 123.18 84.75 122.831 84.75C122.591 84.75 122.368 84.8138 122.159 84.9414C121.953 85.069 121.787 85.2461 121.659 85.4727C121.534 85.6966 121.472 85.9557 121.472 86.25V90H120.55ZM132.626 90.125C132.048 90.125 131.549 89.9974 131.13 89.7422C130.713 89.4844 130.392 89.125 130.165 88.6641C129.941 88.2005 129.829 87.6615 129.829 87.0469C129.829 86.4323 129.941 85.8906 130.165 85.4219C130.392 84.9505 130.707 84.5833 131.11 84.3203C131.517 84.0547 131.991 83.9219 132.532 83.9219C132.845 83.9219 133.153 83.974 133.458 84.0781C133.763 84.1823 134.04 84.3516 134.29 84.5859C134.54 84.8177 134.739 85.125 134.888 85.5078C135.036 85.8906 135.11 86.362 135.11 86.9219V87.3125H130.485V86.5156H134.173C134.173 86.1771 134.105 85.875 133.97 85.6094C133.837 85.3437 133.647 85.1341 133.399 84.9805C133.155 84.8268 132.866 84.75 132.532 84.75C132.165 84.75 131.847 84.8411 131.579 85.0234C131.313 85.2031 131.109 85.4375 130.966 85.7266C130.823 86.0156 130.751 86.3255 130.751 86.6562V87.1875C130.751 87.6406 130.829 88.0247 130.985 88.3398C131.144 88.6523 131.364 88.8906 131.646 89.0547C131.927 89.2161 132.254 89.2969 132.626 89.2969C132.868 89.2969 133.087 89.263 133.282 89.1953C133.48 89.125 133.651 89.0208 133.794 88.8828C133.937 88.7422 134.048 88.5677 134.126 88.3594L135.017 88.6094C134.923 88.9115 134.765 89.1771 134.544 89.4062C134.323 89.6328 134.049 89.8099 133.724 89.9375C133.398 90.0625 133.032 90.125 132.626 90.125Z" fill="#ABB2BF"/>
<path d="M136.109 87.1875V86.5625L141.141 84V85L137.281 86.8594L137.313 86.7969V86.9531L137.281 86.8906L141.141 88.75V89.75L136.109 87.1875ZM145.923 81.625L143.345 91.2031H142.501L145.079 81.625H145.923ZM147.938 82V90H147.016V82H147.938ZM149.626 90V84H150.548V90H149.626ZM150.095 83C149.915 83 149.76 82.9388 149.63 82.8164C149.502 82.694 149.438 82.5469 149.438 82.375C149.438 82.2031 149.502 82.056 149.63 81.9336C149.76 81.8112 149.915 81.75 150.095 81.75C150.274 81.75 150.428 81.8112 150.556 81.9336C150.686 82.056 150.751 82.2031 150.751 82.375C150.751 82.5469 150.686 82.694 150.556 82.8164C150.428 82.9388 150.274 83 150.095 83ZM157.533 87.1875L152.502 89.75V88.75L156.361 86.8906L156.33 86.9531V86.7969L156.361 86.8594L152.502 85V84L157.533 86.5625V87.1875Z" fill="#E06C75"/>
<path d="M66.1094 102.188V101.562L71.1406 99V100L67.2813 101.859L67.3125 101.797V101.953L67.2813 101.891L71.1406 103.75V104.75L66.1094 102.188ZM75.9229 96.625L73.3447 106.203H72.501L75.0791 96.625H75.9229ZM80.7969 102.547V99H81.7188V105H80.7969V103.984H80.7344C80.5938 104.289 80.375 104.548 80.0781 104.762C79.7813 104.973 79.4063 105.078 78.9531 105.078C78.5781 105.078 78.2448 104.996 77.9531 104.832C77.6615 104.665 77.4323 104.415 77.2656 104.082C77.099 103.746 77.0156 103.323 77.0156 102.812V99H77.9375V102.75C77.9375 103.187 78.0599 103.536 78.3047 103.797C78.5521 104.057 78.8672 104.187 79.25 104.187C79.4792 104.187 79.7122 104.129 79.9492 104.012C80.1888 103.895 80.3893 103.715 80.5508 103.473C80.7148 103.23 80.7969 102.922 80.7969 102.547ZM84.3291 97V105H83.4072V97H84.3291ZM91.3145 102.188L86.2832 104.75V103.75L90.1426 101.891L90.1113 101.953V101.797L90.1426 101.859L86.2832 100V99L91.3145 101.562V102.188Z" fill="#E06C75"/>
<path d="M56.1094 117.188V116.562L61.1406 114V115L57.2813 116.859L57.3125 116.797V116.953L57.2813 116.891L61.1406 118.75V119.75L56.1094 117.188ZM65.9229 111.625L63.3447 121.203H62.501L65.0791 111.625H65.9229ZM67.9375 116.391V120H67.0156V114H67.9062V114.937H67.9844C68.125 114.633 68.3385 114.388 68.625 114.203C68.9115 114.016 69.2813 113.922 69.7344 113.922C70.1406 113.922 70.4961 114.005 70.8008 114.172C71.1055 114.336 71.3424 114.586 71.5117 114.922C71.681 115.255 71.7656 115.677 71.7656 116.188V120H70.8438V116.25C70.8438 115.779 70.7214 115.411 70.4766 115.148C70.2318 114.883 69.8958 114.75 69.4687 114.75C69.1745 114.75 68.9115 114.814 68.6797 114.941C68.4505 115.069 68.2695 115.255 68.1367 115.5C68.0039 115.745 67.9375 116.042 67.9375 116.391ZM75.2158 120.141C74.8356 120.141 74.4906 120.069 74.1807 119.926C73.8708 119.78 73.6247 119.57 73.4424 119.297C73.2601 119.021 73.1689 118.687 73.1689 118.297C73.1689 117.953 73.2367 117.674 73.3721 117.461C73.5075 117.245 73.6885 117.076 73.915 116.953C74.1416 116.831 74.3916 116.74 74.665 116.68C74.9411 116.617 75.2184 116.568 75.4971 116.531C75.8617 116.484 76.1572 116.449 76.3838 116.426C76.613 116.4 76.7796 116.357 76.8838 116.297C76.9906 116.237 77.0439 116.133 77.0439 115.984V115.953C77.0439 115.568 76.9385 115.268 76.7275 115.055C76.5192 114.841 76.2028 114.734 75.7783 114.734C75.3382 114.734 74.9932 114.831 74.7432 115.023C74.4932 115.216 74.3174 115.422 74.2158 115.641L73.3408 115.328C73.4971 114.964 73.7054 114.68 73.9658 114.477C74.2288 114.271 74.5153 114.128 74.8252 114.047C75.1377 113.964 75.445 113.922 75.7471 113.922C75.9398 113.922 76.1611 113.945 76.4111 113.992C76.6637 114.036 76.9072 114.129 77.1416 114.27C77.3786 114.41 77.5752 114.622 77.7314 114.906C77.8877 115.19 77.9658 115.57 77.9658 116.047V120H77.0439V119.187H76.9971C76.9346 119.318 76.8304 119.457 76.6846 119.605C76.5387 119.754 76.3447 119.88 76.1025 119.984C75.8604 120.089 75.5648 120.141 75.2158 120.141ZM75.3564 119.312C75.721 119.312 76.0283 119.241 76.2783 119.098C76.5309 118.954 76.721 118.77 76.8486 118.543C76.9788 118.316 77.0439 118.078 77.0439 117.828V116.984C77.0049 117.031 76.9189 117.074 76.7861 117.113C76.6559 117.15 76.5049 117.182 76.333 117.211C76.1637 117.237 75.9984 117.26 75.8369 117.281C75.6781 117.299 75.5492 117.315 75.4502 117.328C75.2106 117.359 74.9867 117.41 74.7783 117.48C74.5726 117.548 74.4059 117.651 74.2783 117.789C74.1533 117.924 74.0908 118.109 74.0908 118.344C74.0908 118.664 74.2093 118.906 74.4463 119.07C74.6859 119.232 74.9893 119.312 75.3564 119.312ZM84.3398 114L82.1211 120H81.1836L78.9648 114H79.9648L81.6211 118.781H81.6836L83.3398 114H84.3398ZM90.8535 117.188L85.8223 119.75V118.75L89.6816 116.891L89.6504 116.953V116.797L89.6816 116.859L85.8223 115V114L90.8535 116.562V117.188Z" fill="#E06C75"/>
<path d="M211.516 45.0625C211.323 45.0625 211.158 44.9935 211.02 44.8555C210.882 44.7174 210.813 44.5521 210.813 44.3594C210.813 44.1667 210.882 44.0013 211.02 43.8633C211.158 43.7253 211.323 43.6562 211.516 43.6562C211.708 43.6562 211.874 43.7253 212.012 43.8633C212.15 44.0013 212.219 44.1667 212.219 44.3594C212.219 44.487 212.186 44.6042 212.121 44.7109C212.059 44.8177 211.974 44.9036 211.867 44.9687C211.763 45.0313 211.646 45.0625 211.516 45.0625ZM214.795 41.3906V45H213.873V39H214.764V39.9375H214.842C214.982 39.6328 215.196 39.388 215.482 39.2031C215.769 39.0156 216.139 38.9219 216.592 38.9219C216.998 38.9219 217.354 39.0052 217.658 39.1719C217.963 39.3359 218.2 39.5859 218.369 39.9219C218.538 40.2552 218.623 40.6771 218.623 41.1875V45H217.701V41.25C217.701 40.7786 217.579 40.4115 217.334 40.1484C217.089 39.8828 216.753 39.75 216.326 39.75C216.032 39.75 215.769 39.8138 215.537 39.9414C215.308 40.069 215.127 40.2552 214.994 40.5C214.861 40.7448 214.795 41.0417 214.795 41.3906ZM222.073 45.1406C221.693 45.1406 221.348 45.069 221.038 44.9258C220.728 44.7799 220.482 44.5703 220.3 44.2969C220.118 44.0208 220.026 43.6875 220.026 43.2969C220.026 42.9531 220.094 42.6745 220.229 42.4609C220.365 42.2448 220.546 42.0755 220.772 41.9531C220.999 41.8307 221.249 41.7396 221.522 41.6797C221.799 41.6172 222.076 41.5677 222.354 41.5313C222.719 41.4844 223.015 41.4492 223.241 41.4258C223.47 41.3997 223.637 41.3568 223.741 41.2969C223.848 41.237 223.901 41.1328 223.901 40.9844V40.9531C223.901 40.5677 223.796 40.2682 223.585 40.0547C223.377 39.8411 223.06 39.7344 222.636 39.7344C222.196 39.7344 221.851 39.8307 221.601 40.0234C221.351 40.2161 221.175 40.4219 221.073 40.6406L220.198 40.3281C220.354 39.9635 220.563 39.6797 220.823 39.4766C221.086 39.2708 221.373 39.1276 221.683 39.0469C221.995 38.9635 222.302 38.9219 222.604 38.9219C222.797 38.9219 223.019 38.9453 223.269 38.9922C223.521 39.0365 223.765 39.1289 223.999 39.2695C224.236 39.4102 224.433 39.6224 224.589 39.9062C224.745 40.1901 224.823 40.5703 224.823 41.0469V45H223.901V44.1875H223.854C223.792 44.3177 223.688 44.457 223.542 44.6055C223.396 44.7539 223.202 44.8802 222.96 44.9844C222.718 45.0885 222.422 45.1406 222.073 45.1406ZM222.214 44.3125C222.578 44.3125 222.886 44.2409 223.136 44.0977C223.388 43.9544 223.578 43.7695 223.706 43.543C223.836 43.3164 223.901 43.0781 223.901 42.8281V41.9844C223.862 42.0312 223.776 42.0742 223.644 42.1133C223.513 42.1497 223.362 42.1823 223.19 42.2109C223.021 42.237 222.856 42.2604 222.694 42.2812C222.535 42.2995 222.407 42.3151 222.308 42.3281C222.068 42.3594 221.844 42.4102 221.636 42.4805C221.43 42.5482 221.263 42.651 221.136 42.7891C221.011 42.9245 220.948 43.1094 220.948 43.3437C220.948 43.6641 221.067 43.9062 221.304 44.0703C221.543 44.2318 221.847 44.3125 222.214 44.3125ZM231.197 39L228.979 45H228.041L225.822 39H226.822L228.479 43.7812H228.541L230.197 39H231.197ZM232.539 45V37H233.461V39.9531H233.539C233.607 39.849 233.701 39.7161 233.82 39.5547C233.943 39.3906 234.117 39.2448 234.344 39.1172C234.573 38.987 234.883 38.9219 235.273 38.9219C235.779 38.9219 236.224 39.0482 236.609 39.3008C236.995 39.5534 237.296 39.9115 237.512 40.375C237.728 40.8385 237.836 41.3854 237.836 42.0156C237.836 42.651 237.728 43.2018 237.512 43.668C237.296 44.1315 236.996 44.4909 236.613 44.7461C236.23 44.9987 235.789 45.125 235.289 45.125C234.904 45.125 234.595 45.0612 234.363 44.9336C234.132 44.8034 233.953 44.6562 233.828 44.4922C233.703 44.3255 233.607 44.1875 233.539 44.0781H233.43V45H232.539ZM233.445 42C233.445 42.4531 233.512 42.8529 233.645 43.1992C233.777 43.543 233.971 43.8125 234.227 44.0078C234.482 44.2005 234.794 44.2969 235.164 44.2969C235.549 44.2969 235.871 44.1953 236.129 43.9922C236.389 43.7865 236.585 43.5104 236.715 43.1641C236.848 42.8151 236.914 42.4271 236.914 42C236.914 41.5781 236.849 41.1979 236.719 40.8594C236.591 40.5182 236.397 40.2487 236.137 40.0508C235.879 39.8503 235.555 39.75 235.164 39.75C234.789 39.75 234.474 39.8451 234.219 40.0352C233.964 40.2227 233.771 40.4857 233.641 40.8242C233.51 41.1602 233.445 41.5521 233.445 42ZM241.012 45.1406C240.632 45.1406 240.286 45.069 239.977 44.9258C239.667 44.7799 239.421 44.5703 239.238 44.2969C239.056 44.0208 238.965 43.6875 238.965 43.2969C238.965 42.9531 239.033 42.6745 239.168 42.4609C239.303 42.2448 239.484 42.0755 239.711 41.9531C239.937 41.8307 240.188 41.7396 240.461 41.6797C240.737 41.6172 241.014 41.5677 241.293 41.5313C241.658 41.4844 241.953 41.4492 242.18 41.4258C242.409 41.3997 242.576 41.3568 242.68 41.2969C242.786 41.237 242.84 41.1328 242.84 40.9844V40.9531C242.84 40.5677 242.734 40.2682 242.523 40.0547C242.315 39.8411 241.999 39.7344 241.574 39.7344C241.134 39.7344 240.789 39.8307 240.539 40.0234C240.289 40.2161 240.113 40.4219 240.012 40.6406L239.137 40.3281C239.293 39.9635 239.501 39.6797 239.762 39.4766C240.025 39.2708 240.311 39.1276 240.621 39.0469C240.934 38.9635 241.241 38.9219 241.543 38.9219C241.736 38.9219 241.957 38.9453 242.207 38.9922C242.46 39.0365 242.703 39.1289 242.938 39.2695C243.174 39.4102 243.371 39.6224 243.527 39.9062C243.684 40.1901 243.762 40.5703 243.762 41.0469V45H242.84V44.1875H242.793C242.73 44.3177 242.626 44.457 242.48 44.6055C242.335 44.7539 242.141 44.8802 241.898 44.9844C241.656 45.0885 241.361 45.1406 241.012 45.1406ZM241.152 44.3125C241.517 44.3125 241.824 44.2409 242.074 44.0977C242.327 43.9544 242.517 43.7695 242.645 43.543C242.775 43.3164 242.84 43.0781 242.84 42.8281V41.9844C242.801 42.0312 242.715 42.0742 242.582 42.1133C242.452 42.1497 242.301 42.1823 242.129 42.2109C241.96 42.237 241.794 42.2604 241.633 42.2812C241.474 42.2995 241.345 42.3151 241.246 42.3281C241.007 42.3594 240.783 42.4102 240.574 42.4805C240.368 42.5482 240.202 42.651 240.074 42.7891C239.949 42.9245 239.887 43.1094 239.887 43.3437C239.887 43.6641 240.005 43.9062 240.242 44.0703C240.482 44.2318 240.785 44.3125 241.152 44.3125ZM245.444 45V39H246.335V39.9062H246.397C246.507 39.6094 246.705 39.3685 246.991 39.1836C247.278 38.9987 247.601 38.9062 247.96 38.9062C248.028 38.9062 248.112 38.9076 248.214 38.9102C248.315 38.9128 248.392 38.9167 248.444 38.9219V39.8594C248.413 39.8516 248.341 39.8398 248.229 39.8242C248.12 39.806 248.004 39.7969 247.882 39.7969C247.59 39.7969 247.33 39.8581 247.101 39.9805C246.874 40.1003 246.694 40.2669 246.562 40.4805C246.431 40.6914 246.366 40.9323 246.366 41.2031V45H245.444Z" fill="#C678DD"/>
<path d="M260.406 41.6406V41.1562C260.841 41.1562 261.145 41.0651 261.316 40.8828C261.491 40.7005 261.578 40.3958 261.578 39.9687V38.7187C261.578 38.3594 261.612 38.0482 261.68 37.7852C261.75 37.5221 261.863 37.3047 262.02 37.1328C262.176 36.9609 262.384 36.8333 262.645 36.75C262.905 36.6667 263.227 36.625 263.609 36.625V37.3906C263.307 37.3906 263.069 37.4375 262.895 37.5312C262.723 37.625 262.6 37.7708 262.527 37.9687C262.457 38.1641 262.422 38.4141 262.422 38.7187V40.2812C262.422 40.4844 262.395 40.6693 262.34 40.8359C262.288 41.0026 262.19 41.1458 262.047 41.2656C261.904 41.3854 261.699 41.4779 261.434 41.543C261.171 41.6081 260.828 41.6406 260.406 41.6406ZM263.609 46.625C263.227 46.625 262.905 46.5833 262.645 46.5C262.384 46.4167 262.176 46.2891 262.02 46.1172C261.863 45.9453 261.75 45.7279 261.68 45.4648C261.612 45.2018 261.578 44.8906 261.578 44.5312V43.2812C261.578 42.8542 261.491 42.5495 261.316 42.3672C261.145 42.1849 260.841 42.0937 260.406 42.0937V41.6094C260.828 41.6094 261.171 41.6419 261.434 41.707C261.699 41.7721 261.904 41.8646 262.047 41.9844C262.19 42.1042 262.288 42.2474 262.34 42.4141C262.395 42.5807 262.422 42.7656 262.422 42.9687V44.5312C262.422 44.8359 262.457 45.0859 262.527 45.2813C262.6 45.4766 262.723 45.6211 262.895 45.7148C263.069 45.8112 263.307 45.8594 263.609 45.8594V46.625ZM260.406 42.0937V41.1562H261.328V42.0937H260.406Z" fill="#ABB2BF"/>
<path d="M220.969 60V52H221.891V54.9531H221.969C222.036 54.849 222.13 54.7161 222.25 54.5547C222.372 54.3906 222.547 54.2448 222.773 54.1172C223.003 53.987 223.313 53.9219 223.703 53.9219C224.208 53.9219 224.654 54.0482 225.039 54.3008C225.424 54.5534 225.725 54.9115 225.941 55.375C226.158 55.8385 226.266 56.3854 226.266 57.0156C226.266 57.651 226.158 58.2018 225.941 58.668C225.725 59.1315 225.426 59.4909 225.043 59.7461C224.66 59.9987 224.219 60.125 223.719 60.125C223.333 60.125 223.025 60.0612 222.793 59.9336C222.561 59.8034 222.383 59.6562 222.258 59.4922C222.133 59.3255 222.036 59.1875 221.969 59.0781H221.859V60H220.969ZM221.875 57C221.875 57.4531 221.941 57.8529 222.074 58.1992C222.207 58.543 222.401 58.8125 222.656 59.0078C222.911 59.2005 223.224 59.2969 223.594 59.2969C223.979 59.2969 224.301 59.1953 224.559 58.9922C224.819 58.7865 225.014 58.5104 225.145 58.1641C225.277 57.8151 225.344 57.4271 225.344 57C225.344 56.5781 225.279 56.1979 225.148 55.8594C225.021 55.5182 224.827 55.2487 224.566 55.0508C224.309 54.8503 223.984 54.75 223.594 54.75C223.219 54.75 222.904 54.8451 222.648 55.0352C222.393 55.2227 222.201 55.4857 222.07 55.8242C221.94 56.1602 221.875 56.5521 221.875 57ZM229.441 60.1406C229.061 60.1406 228.716 60.069 228.406 59.9258C228.096 59.7799 227.85 59.5703 227.668 59.2969C227.486 59.0208 227.395 58.6875 227.395 58.2969C227.395 57.9531 227.462 57.6745 227.598 57.4609C227.733 57.2448 227.914 57.0755 228.141 56.9531C228.367 56.8307 228.617 56.7396 228.891 56.6797C229.167 56.6172 229.444 56.5677 229.723 56.5313C230.087 56.4844 230.383 56.4492 230.609 56.4258C230.839 56.3997 231.005 56.3568 231.109 56.2969C231.216 56.237 231.27 56.1328 231.27 55.9844V55.9531C231.27 55.5677 231.164 55.2682 230.953 55.0547C230.745 54.8411 230.428 54.7344 230.004 54.7344C229.564 54.7344 229.219 54.8307 228.969 55.0234C228.719 55.2161 228.543 55.4219 228.441 55.6406L227.566 55.3281C227.723 54.9635 227.931 54.6797 228.191 54.4766C228.454 54.2708 228.741 54.1276 229.051 54.0469C229.363 53.9635 229.671 53.9219 229.973 53.9219C230.165 53.9219 230.387 53.9453 230.637 53.9922C230.889 54.0365 231.133 54.1289 231.367 54.2695C231.604 54.4102 231.801 54.6224 231.957 54.9062C232.113 55.1901 232.191 55.5703 232.191 56.0469V60H231.27V59.1875H231.223C231.16 59.3177 231.056 59.457 230.91 59.6055C230.764 59.7539 230.57 59.8802 230.328 59.9844C230.086 60.0885 229.79 60.1406 229.441 60.1406ZM229.582 59.3125C229.947 59.3125 230.254 59.2409 230.504 59.0977C230.757 58.9544 230.947 58.7695 231.074 58.543C231.204 58.3164 231.27 58.0781 231.27 57.8281V56.9844C231.23 57.0312 231.145 57.0742 231.012 57.1133C230.882 57.1497 230.73 57.1823 230.559 57.2109C230.389 57.237 230.224 57.2604 230.063 57.2812C229.904 57.2995 229.775 57.3151 229.676 57.3281C229.436 57.3594 229.212 57.4102 229.004 57.4805C228.798 57.5482 228.632 57.651 228.504 57.7891C228.379 57.9245 228.316 58.1094 228.316 58.3437C228.316 58.6641 228.435 58.9062 228.672 59.0703C228.911 59.2318 229.215 59.3125 229.582 59.3125ZM236.312 60.125C235.749 60.125 235.265 59.9922 234.858 59.7266C234.452 59.4609 234.14 59.0951 233.921 58.6289C233.702 58.1628 233.593 57.6302 233.593 57.0312C233.593 56.4219 233.705 55.8841 233.929 55.418C234.155 54.9492 234.47 54.5833 234.874 54.3203C235.28 54.0547 235.754 53.9219 236.296 53.9219C236.718 53.9219 237.098 54 237.437 54.1562C237.775 54.3125 238.052 54.5312 238.269 54.8125C238.485 55.0937 238.619 55.4219 238.671 55.7969H237.749C237.679 55.5234 237.522 55.2812 237.28 55.0703C237.041 54.8568 236.718 54.75 236.312 54.75C235.952 54.75 235.637 54.8437 235.366 55.0312C235.098 55.2161 234.888 55.4779 234.737 55.8164C234.589 56.1523 234.515 56.5469 234.515 57C234.515 57.4635 234.588 57.8672 234.733 58.2109C234.882 58.5547 235.09 58.8216 235.358 59.0117C235.629 59.2018 235.947 59.2969 236.312 59.2969C236.551 59.2969 236.769 59.2552 236.964 59.1719C237.159 59.0885 237.325 58.9688 237.46 58.8125C237.595 58.6562 237.692 58.4687 237.749 58.25H238.671C238.619 58.6042 238.49 58.9232 238.284 59.207C238.081 59.4883 237.812 59.7122 237.476 59.8789C237.142 60.043 236.754 60.125 236.312 60.125ZM240.878 57.8125L240.862 56.6719H241.05L243.675 54H244.815L242.019 56.8281H241.94L240.878 57.8125ZM240.019 60V52H240.94V60H240.019ZM243.831 60L241.487 57.0312L242.144 56.3906L245.003 60H243.831ZM248.177 62.375C247.731 62.375 247.349 62.3177 247.028 62.2031C246.708 62.0911 246.441 61.9427 246.228 61.7578C246.017 61.5755 245.849 61.3802 245.724 61.1719L246.458 60.6563C246.541 60.7656 246.647 60.8906 246.774 61.0312C246.902 61.1745 247.076 61.2982 247.298 61.4023C247.522 61.5091 247.815 61.5625 248.177 61.5625C248.661 61.5625 249.061 61.4453 249.376 61.2109C249.691 60.9766 249.849 60.6094 249.849 60.1094V58.8906H249.771C249.703 59 249.606 59.1354 249.481 59.2969C249.359 59.4557 249.182 59.5977 248.95 59.7227C248.721 59.8451 248.411 59.9062 248.021 59.9062C247.536 59.9062 247.101 59.7917 246.716 59.5625C246.333 59.3333 246.03 59 245.806 58.5625C245.584 58.125 245.474 57.5937 245.474 56.9687C245.474 56.3542 245.582 55.819 245.798 55.3633C246.014 54.9049 246.315 54.5508 246.7 54.3008C247.086 54.0482 247.531 53.9219 248.036 53.9219C248.427 53.9219 248.737 53.987 248.966 54.1172C249.198 54.2448 249.375 54.3906 249.497 54.5547C249.622 54.7161 249.718 54.849 249.786 54.9531H249.88V54H250.771V60.1719C250.771 60.6875 250.653 61.1068 250.419 61.4297C250.187 61.7552 249.875 61.9935 249.481 62.1445C249.091 62.2982 248.656 62.375 248.177 62.375ZM248.146 59.0781C248.515 59.0781 248.828 58.9935 249.083 58.8242C249.338 58.6549 249.532 58.4115 249.665 58.0938C249.798 57.776 249.864 57.3958 249.864 56.9531C249.864 56.5208 249.799 56.1393 249.669 55.8086C249.539 55.4779 249.346 55.2187 249.091 55.0312C248.836 54.8437 248.521 54.75 248.146 54.75C247.755 54.75 247.429 54.849 247.169 55.0469C246.911 55.2448 246.717 55.5104 246.587 55.8438C246.459 56.1771 246.396 56.5469 246.396 56.9531C246.396 57.3698 246.461 57.7383 246.591 58.0586C246.724 58.3763 246.919 58.6263 247.177 58.8086C247.437 58.9883 247.76 59.0781 248.146 59.0781ZM252.458 60V54H253.349V54.9062H253.411C253.521 54.6094 253.718 54.3685 254.005 54.1836C254.291 53.9987 254.614 53.9062 254.974 53.9062C255.041 53.9062 255.126 53.9076 255.228 53.9102C255.329 53.9128 255.406 53.9167 255.458 53.9219V54.8594C255.427 54.8516 255.355 54.8398 255.243 54.8242C255.134 54.806 255.018 54.7969 254.896 54.7969C254.604 54.7969 254.343 54.8581 254.114 54.9805C253.888 55.1003 253.708 55.2669 253.575 55.4805C253.445 55.6914 253.38 55.9323 253.38 56.2031V60H252.458ZM258.806 60.125C258.264 60.125 257.789 59.9961 257.38 59.7383C256.974 59.4805 256.656 59.1198 256.427 58.6562C256.2 58.1927 256.087 57.651 256.087 57.0312C256.087 56.4062 256.2 55.8607 256.427 55.3945C256.656 54.9284 256.974 54.5664 257.38 54.3086C257.789 54.0508 258.264 53.9219 258.806 53.9219C259.347 53.9219 259.821 54.0508 260.228 54.3086C260.636 54.5664 260.954 54.9284 261.181 55.3945C261.41 55.8607 261.524 56.4062 261.524 57.0312C261.524 57.651 261.41 58.1927 261.181 58.6562C260.954 59.1198 260.636 59.4805 260.228 59.7383C259.821 59.9961 259.347 60.125 258.806 60.125ZM258.806 59.2969C259.217 59.2969 259.556 59.1914 259.821 58.9805C260.087 58.7695 260.284 58.4922 260.411 58.1484C260.539 57.8047 260.603 57.4323 260.603 57.0312C260.603 56.6302 260.539 56.2565 260.411 55.9102C260.284 55.5638 260.087 55.2839 259.821 55.0703C259.556 54.8568 259.217 54.75 258.806 54.75C258.394 54.75 258.056 54.8568 257.79 55.0703C257.524 55.2839 257.328 55.5638 257.2 55.9102C257.073 56.2565 257.009 56.6302 257.009 57.0312C257.009 57.4323 257.073 57.8047 257.2 58.1484C257.328 58.4922 257.524 58.7695 257.79 58.9805C258.056 59.1914 258.394 59.2969 258.806 59.2969ZM266.713 57.5469V54H267.635V60H266.713V58.9844H266.65C266.51 59.2891 266.291 59.5482 265.994 59.7617C265.697 59.9727 265.322 60.0781 264.869 60.0781C264.494 60.0781 264.161 59.9961 263.869 59.832C263.577 59.6654 263.348 59.4154 263.182 59.082C263.015 58.7461 262.932 58.3229 262.932 57.8125V54H263.854V57.75C263.854 58.1875 263.976 58.5365 264.221 58.7969C264.468 59.0573 264.783 59.1875 265.166 59.1875C265.395 59.1875 265.628 59.1289 265.865 59.0117C266.105 58.8945 266.305 58.7148 266.467 58.4727C266.631 58.2305 266.713 57.9219 266.713 57.5469ZM270.245 56.3906V60H269.323V54H270.214V54.9375H270.292C270.433 54.6328 270.646 54.388 270.933 54.2031C271.219 54.0156 271.589 53.9219 272.042 53.9219C272.448 53.9219 272.804 54.0052 273.108 54.1719C273.413 54.3359 273.65 54.5859 273.819 54.9219C273.989 55.2552 274.073 55.6771 274.073 56.1875V60H273.151V56.25C273.151 55.7786 273.029 55.4115 272.784 55.1484C272.539 54.8828 272.203 54.75 271.776 54.75C271.482 54.75 271.219 54.8138 270.987 54.9414C270.758 55.069 270.577 55.2552 270.444 55.5C270.312 55.7448 270.245 56.0417 270.245 56.3906ZM278.023 60.125C277.523 60.125 277.082 59.9987 276.699 59.7461C276.316 59.4909 276.017 59.1315 275.801 58.668C275.585 58.2018 275.477 57.651 275.477 57.0156C275.477 56.3854 275.585 55.8385 275.801 55.375C276.017 54.9115 276.318 54.5534 276.703 54.3008C277.089 54.0482 277.534 53.9219 278.039 53.9219C278.43 53.9219 278.738 53.987 278.965 54.1172C279.194 54.2448 279.368 54.3906 279.488 54.5547C279.611 54.7161 279.706 54.849 279.773 54.9531H279.852V52H280.773V60H279.883V59.0781H279.773C279.706 59.1875 279.609 59.3255 279.484 59.4922C279.359 59.6562 279.181 59.8034 278.949 59.9336C278.717 60.0612 278.409 60.125 278.023 60.125ZM278.148 59.2969C278.518 59.2969 278.831 59.2005 279.086 59.0078C279.341 58.8125 279.535 58.543 279.668 58.1992C279.801 57.8529 279.867 57.4531 279.867 57C279.867 56.5521 279.802 56.1602 279.672 55.8242C279.542 55.4857 279.349 55.2227 279.094 55.0352C278.839 54.8451 278.523 54.75 278.148 54.75C277.758 54.75 277.432 54.8503 277.172 55.0508C276.914 55.2487 276.72 55.5182 276.59 55.8594C276.462 56.1979 276.398 56.5781 276.398 57C276.398 57.4271 276.464 57.8151 276.594 58.1641C276.727 58.5104 276.922 58.7865 277.18 58.9922C277.44 59.1953 277.763 59.2969 278.148 59.2969Z" fill="#E06C75"/>
<path d="M281.516 60.0625C281.323 60.0625 281.158 59.9935 281.02 59.8555C280.882 59.7174 280.813 59.5521 280.813 59.3594C280.813 59.1667 280.882 59.0013 281.02 58.8633C281.158 58.7253 281.323 58.6562 281.516 58.6562C281.708 58.6562 281.874 58.7253 282.012 58.8633C282.15 59.0013 282.219 59.1667 282.219 59.3594C282.219 59.487 282.186 59.6042 282.121 59.7109C282.059 59.8177 281.974 59.9036 281.867 59.9687C281.763 60.0313 281.646 60.0625 281.516 60.0625ZM281.516 55.6094C281.323 55.6094 281.158 55.5404 281.02 55.4023C280.882 55.2643 280.813 55.099 280.813 54.9062C280.813 54.7135 280.882 54.5482 281.02 54.4102C281.158 54.2721 281.323 54.2031 281.516 54.2031C281.708 54.2031 281.874 54.2721 282.012 54.4102C282.15 54.5482 282.219 54.7135 282.219 54.9062C282.219 55.0339 282.186 55.151 282.121 55.2578C282.059 55.3646 281.974 55.4505 281.867 55.5156C281.763 55.5781 281.646 55.6094 281.516 55.6094Z" fill="#ABB2BF"/>
<path d="M293.828 60L295.141 52H295.922L294.609 60H293.828ZM290.188 57.7812L290.313 57H296.281L296.156 57.7812H290.188ZM291.016 60L292.328 52H293.109L291.797 60H291.016ZM290.656 55L290.781 54.2187H296.75L296.625 55H290.656ZM300.455 54V54.7812H297.221V54H300.455ZM298.189 60V53.1719C298.189 52.8281 298.27 52.5417 298.432 52.3125C298.593 52.0833 298.803 51.9115 299.061 51.7969C299.318 51.6823 299.59 51.625 299.877 51.625C300.104 51.625 300.288 51.6432 300.432 51.6797C300.575 51.7161 300.682 51.75 300.752 51.7812L300.486 52.5781C300.439 52.5625 300.374 52.543 300.291 52.5195C300.21 52.4961 300.104 52.4844 299.971 52.4844C299.666 52.4844 299.446 52.5612 299.311 52.7148C299.178 52.8685 299.111 53.0937 299.111 53.3906V60H298.189ZM304.419 54V54.7812H301.185V54H304.419ZM302.153 60V53.1719C302.153 52.8281 302.234 52.5417 302.396 52.3125C302.557 52.0833 302.767 51.9115 303.024 51.7969C303.282 51.6823 303.554 51.625 303.841 51.625C304.067 51.625 304.252 51.6432 304.396 51.6797C304.539 51.7161 304.646 51.75 304.716 51.7812L304.45 52.5781C304.403 52.5625 304.338 52.543 304.255 52.5195C304.174 52.4961 304.067 52.4844 303.935 52.4844C303.63 52.4844 303.41 52.5612 303.274 52.7148C303.142 52.8685 303.075 53.0937 303.075 53.3906V60H302.153ZM308.383 54V54.7812H305.148V54H308.383ZM306.117 60V53.1719C306.117 52.8281 306.198 52.5417 306.359 52.3125C306.521 52.0833 306.73 51.9115 306.988 51.7969C307.246 51.6823 307.518 51.625 307.805 51.625C308.031 51.625 308.216 51.6432 308.359 51.6797C308.503 51.7161 308.609 51.75 308.68 51.7812L308.414 52.5781C308.367 52.5625 308.302 52.543 308.219 52.5195C308.138 52.4961 308.031 52.4844 307.898 52.4844C307.594 52.4844 307.374 52.5612 307.238 52.7148C307.105 52.8685 307.039 53.0937 307.039 53.3906V60H306.117Z" fill="#D19A66"/>
<path d="M322.219 58.9062L322.156 59.3281C322.112 59.625 322.044 59.9427 321.953 60.2813C321.865 60.6198 321.772 60.9388 321.676 61.2383C321.579 61.5378 321.5 61.776 321.438 61.9531H320.734C320.768 61.7865 320.813 61.5664 320.867 61.293C320.922 61.0195 320.977 60.7135 321.031 60.375C321.089 60.0391 321.135 59.6953 321.172 59.3437L321.219 58.9062H322.219ZM321.656 55.6094C321.464 55.6094 321.298 55.5404 321.16 55.4023C321.022 55.2643 320.953 55.099 320.953 54.9062C320.953 54.7135 321.022 54.5482 321.16 54.4102C321.298 54.2721 321.464 54.2031 321.656 54.2031C321.849 54.2031 322.014 54.2721 322.152 54.4102C322.29 54.5482 322.359 54.7135 322.359 54.9062C322.359 55.0339 322.327 55.151 322.262 55.2578C322.199 55.3646 322.115 55.4505 322.008 55.5156C321.904 55.5781 321.786 55.6094 321.656 55.6094Z" fill="#ABB2BF"/>
<path d="M220.844 77.25V69H221.734V69.9531H221.844C221.911 69.849 222.005 69.7161 222.125 69.5547C222.247 69.3906 222.422 69.2448 222.648 69.1172C222.878 68.987 223.188 68.9219 223.578 68.9219C224.083 68.9219 224.529 69.0482 224.914 69.3008C225.299 69.5534 225.6 69.9115 225.816 70.375C226.033 70.8385 226.141 71.3854 226.141 72.0156C226.141 72.651 226.033 73.2018 225.816 73.668C225.6 74.1315 225.301 74.4909 224.918 74.7461C224.535 74.9987 224.094 75.125 223.594 75.125C223.208 75.125 222.9 75.0612 222.668 74.9336C222.436 74.8034 222.258 74.6562 222.133 74.4922C222.008 74.3255 221.911 74.1875 221.844 74.0781H221.766V77.25H220.844ZM221.75 72C221.75 72.4531 221.816 72.8529 221.949 73.1992C222.082 73.543 222.276 73.8125 222.531 74.0078C222.786 74.2005 223.099 74.2969 223.469 74.2969C223.854 74.2969 224.176 74.1953 224.434 73.9922C224.694 73.7865 224.889 73.5104 225.02 73.1641C225.152 72.8151 225.219 72.4271 225.219 72C225.219 71.5781 225.154 71.1979 225.023 70.8594C224.896 70.5182 224.702 70.2487 224.441 70.0508C224.184 69.8503 223.859 69.75 223.469 69.75C223.094 69.75 222.779 69.8451 222.523 70.0352C222.268 70.2227 222.076 70.4857 221.945 70.8242C221.815 71.1602 221.75 71.5521 221.75 72ZM229.313 75.1406C228.932 75.1406 228.587 75.069 228.277 74.9258C227.967 74.7799 227.721 74.5703 227.539 74.2969C227.357 74.0208 227.266 73.6875 227.266 73.2969C227.266 72.9531 227.333 72.6745 227.469 72.4609C227.604 72.2448 227.785 72.0755 228.012 71.9531C228.238 71.8307 228.488 71.7396 228.762 71.6797C229.038 71.6172 229.315 71.5677 229.594 71.5313C229.958 71.4844 230.254 71.4492 230.48 71.4258C230.71 71.3997 230.876 71.3568 230.98 71.2969C231.087 71.237 231.141 71.1328 231.141 70.9844V70.9531C231.141 70.5677 231.035 70.2682 230.824 70.0547C230.616 69.8411 230.299 69.7344 229.875 69.7344C229.435 69.7344 229.09 69.8307 228.84 70.0234C228.59 70.2161 228.414 70.4219 228.313 70.6406L227.438 70.3281C227.594 69.9635 227.802 69.6797 228.063 69.4766C228.326 69.2708 228.612 69.1276 228.922 69.0469C229.234 68.9635 229.542 68.9219 229.844 68.9219C230.036 68.9219 230.258 68.9453 230.508 68.9922C230.76 69.0365 231.004 69.1289 231.238 69.2695C231.475 69.4102 231.672 69.6224 231.828 69.9062C231.984 70.1901 232.063 70.5703 232.063 71.0469V75H231.141V74.1875H231.094C231.031 74.3177 230.927 74.457 230.781 74.6055C230.635 74.7539 230.441 74.8802 230.199 74.9844C229.957 75.0885 229.661 75.1406 229.313 75.1406ZM229.453 74.3125C229.818 74.3125 230.125 74.2409 230.375 74.0977C230.628 73.9544 230.818 73.7695 230.945 73.543C231.076 73.3164 231.141 73.0781 231.141 72.8281V71.9844C231.102 72.0312 231.016 72.0742 230.883 72.1133C230.753 72.1497 230.602 72.1823 230.43 72.2109C230.26 72.237 230.095 72.2604 229.934 72.2812C229.775 72.2995 229.646 72.3151 229.547 72.3281C229.307 72.3594 229.083 72.4102 228.875 72.4805C228.669 72.5482 228.503 72.651 228.375 72.7891C228.25 72.9245 228.188 73.1094 228.188 73.3437C228.188 73.6641 228.306 73.9062 228.543 74.0703C228.783 74.2318 229.086 74.3125 229.453 74.3125ZM236.011 75.125C235.511 75.125 235.069 74.9987 234.687 74.7461C234.304 74.4909 234.004 74.1315 233.788 73.668C233.572 73.2018 233.464 72.651 233.464 72.0156C233.464 71.3854 233.572 70.8385 233.788 70.375C234.004 69.9115 234.305 69.5534 234.69 69.3008C235.076 69.0482 235.521 68.9219 236.026 68.9219C236.417 68.9219 236.726 68.987 236.952 69.1172C237.181 69.2448 237.356 69.3906 237.476 69.5547C237.598 69.7161 237.693 69.849 237.761 69.9531H237.839V67H238.761V75H237.87V74.0781H237.761C237.693 74.1875 237.597 74.3255 237.472 74.4922C237.347 74.6562 237.168 74.8034 236.937 74.9336C236.705 75.0612 236.396 75.125 236.011 75.125ZM236.136 74.2969C236.506 74.2969 236.818 74.2005 237.073 74.0078C237.328 73.8125 237.522 73.543 237.655 73.1992C237.788 72.8529 237.854 72.4531 237.854 72C237.854 71.5521 237.789 71.1602 237.659 70.8242C237.529 70.4857 237.336 70.2227 237.081 70.0352C236.826 69.8451 236.511 69.75 236.136 69.75C235.745 69.75 235.42 69.8503 235.159 70.0508C234.901 70.2487 234.707 70.5182 234.577 70.8594C234.45 71.1979 234.386 71.5781 234.386 72C234.386 72.4271 234.451 72.8151 234.581 73.1641C234.714 73.5104 234.909 73.7865 235.167 73.9922C235.427 74.1953 235.75 74.2969 236.136 74.2969ZM242.843 75.125C242.343 75.125 241.901 74.9987 241.519 74.7461C241.136 74.4909 240.836 74.1315 240.62 73.668C240.404 73.2018 240.296 72.651 240.296 72.0156C240.296 71.3854 240.404 70.8385 240.62 70.375C240.836 69.9115 241.137 69.5534 241.522 69.3008C241.908 69.0482 242.353 68.9219 242.858 68.9219C243.249 68.9219 243.558 68.987 243.784 69.1172C244.013 69.2448 244.188 69.3906 244.308 69.5547C244.43 69.7161 244.525 69.849 244.593 69.9531H244.671V67H245.593V75H244.702V74.0781H244.593C244.525 74.1875 244.429 74.3255 244.304 74.4922C244.179 74.6562 244 74.8034 243.769 74.9336C243.537 75.0612 243.228 75.125 242.843 75.125ZM242.968 74.2969C243.338 74.2969 243.65 74.2005 243.905 74.0078C244.16 73.8125 244.354 73.543 244.487 73.1992C244.62 72.8529 244.687 72.4531 244.687 72C244.687 71.5521 244.621 71.1602 244.491 70.8242C244.361 70.4857 244.168 70.2227 243.913 70.0352C243.658 69.8451 243.343 69.75 242.968 69.75C242.577 69.75 242.252 69.8503 241.991 70.0508C241.733 70.2487 241.539 70.5182 241.409 70.8594C241.282 71.1979 241.218 71.5781 241.218 72C241.218 72.4271 241.283 72.8151 241.413 73.1641C241.546 73.5104 241.741 73.7865 241.999 73.9922C242.259 74.1953 242.582 74.2969 242.968 74.2969ZM247.409 75V69H248.331V75H247.409ZM247.878 68C247.698 68 247.543 67.9388 247.413 67.8164C247.285 67.694 247.222 67.5469 247.222 67.375C247.222 67.2031 247.285 67.056 247.413 66.9336C247.543 66.8112 247.698 66.75 247.878 66.75C248.058 66.75 248.211 66.8112 248.339 66.9336C248.469 67.056 248.534 67.2031 248.534 67.375C248.534 67.5469 248.469 67.694 248.339 67.8164C248.211 67.9388 248.058 68 247.878 68ZM250.941 71.3906V75H250.02V69H250.91V69.9375H250.988C251.129 69.6328 251.342 69.388 251.629 69.2031C251.915 69.0156 252.285 68.9219 252.738 68.9219C253.145 68.9219 253.5 69.0052 253.805 69.1719C254.109 69.3359 254.346 69.5859 254.516 69.9219C254.685 70.2552 254.77 70.6771 254.77 71.1875V75H253.848V71.25C253.848 70.7786 253.725 70.4115 253.48 70.1484C253.236 69.8828 252.9 69.75 252.473 69.75C252.178 69.75 251.915 69.8138 251.684 69.9414C251.454 70.069 251.273 70.2552 251.141 70.5C251.008 70.7448 250.941 71.0417 250.941 71.3906ZM258.876 77.375C258.431 77.375 258.048 77.3177 257.728 77.2031C257.407 77.0911 257.14 76.9427 256.927 76.7578C256.716 76.5755 256.548 76.3802 256.423 76.1719L257.157 75.6563C257.241 75.7656 257.346 75.8906 257.474 76.0312C257.601 76.1745 257.776 76.2982 257.997 76.4023C258.221 76.5091 258.514 76.5625 258.876 76.5625C259.36 76.5625 259.76 76.4453 260.075 76.2109C260.39 75.9766 260.548 75.6094 260.548 75.1094V73.8906H260.47C260.402 74 260.306 74.1354 260.181 74.2969C260.058 74.4557 259.881 74.5977 259.649 74.7227C259.42 74.8451 259.11 74.9062 258.72 74.9062C258.235 74.9062 257.8 74.7917 257.415 74.5625C257.032 74.3333 256.729 74 256.505 73.5625C256.284 73.125 256.173 72.5937 256.173 71.9687C256.173 71.3542 256.281 70.819 256.497 70.3633C256.713 69.9049 257.014 69.5508 257.399 69.3008C257.785 69.0482 258.23 68.9219 258.735 68.9219C259.126 68.9219 259.436 68.987 259.665 69.1172C259.897 69.2448 260.074 69.3906 260.196 69.5547C260.321 69.7161 260.418 69.849 260.485 69.9531H260.579V69H261.47V75.1719C261.47 75.6875 261.353 76.1068 261.118 76.4297C260.886 76.7552 260.574 76.9935 260.181 77.1445C259.79 77.2982 259.355 77.375 258.876 77.375ZM258.845 74.0781C259.215 74.0781 259.527 73.9935 259.782 73.8242C260.037 73.6549 260.231 73.4115 260.364 73.0938C260.497 72.776 260.563 72.3958 260.563 71.9531C260.563 71.5208 260.498 71.1393 260.368 70.8086C260.238 70.4779 260.045 70.2187 259.79 70.0312C259.535 69.8437 259.22 69.75 258.845 69.75C258.454 69.75 258.129 69.849 257.868 70.0469C257.61 70.2448 257.416 70.5104 257.286 70.8438C257.159 71.1771 257.095 71.5469 257.095 71.9531C257.095 72.3698 257.16 72.7383 257.29 73.0586C257.423 73.3763 257.618 73.6263 257.876 73.8086C258.136 73.9883 258.459 74.0781 258.845 74.0781Z" fill="#E06C75"/>
<path d="M266.516 75.0625C266.323 75.0625 266.158 74.9935 266.02 74.8555C265.882 74.7174 265.813 74.5521 265.813 74.3594C265.813 74.1667 265.882 74.0013 266.02 73.8633C266.158 73.7253 266.323 73.6562 266.516 73.6562C266.708 73.6562 266.874 73.7253 267.012 73.8633C267.15 74.0013 267.219 74.1667 267.219 74.3594C267.219 74.487 267.186 74.6042 267.121 74.7109C267.059 74.8177 266.974 74.9036 266.867 74.9687C266.763 75.0313 266.646 75.0625 266.516 75.0625ZM266.516 70.6094C266.323 70.6094 266.158 70.5404 266.02 70.4023C265.882 70.2643 265.813 70.099 265.813 69.9062C265.813 69.7135 265.882 69.5482 266.02 69.4102C266.158 69.2721 266.323 69.2031 266.516 69.2031C266.708 69.2031 266.874 69.2721 267.012 69.4102C267.15 69.5482 267.219 69.7135 267.219 69.9062C267.219 70.0339 267.186 70.151 267.121 70.2578C267.059 70.3646 266.974 70.4505 266.867 70.5156C266.763 70.5781 266.646 70.6094 266.516 70.6094Z" fill="#ABB2BF"/>
<path d="M275.828 75V74.2969L278.469 71.4062C278.779 71.0677 279.034 70.7734 279.234 70.5234C279.435 70.2708 279.583 70.0339 279.68 69.8125C279.779 69.5885 279.828 69.3542 279.828 69.1094C279.828 68.8281 279.76 68.5846 279.625 68.3789C279.492 68.1732 279.31 68.0143 279.078 67.9023C278.846 67.7904 278.586 67.7344 278.297 67.7344C277.99 67.7344 277.721 67.7982 277.492 67.9258C277.266 68.0508 277.09 68.2266 276.965 68.4531C276.842 68.6797 276.781 68.9453 276.781 69.25H275.859C275.859 68.7812 275.967 68.3698 276.184 68.0156C276.4 67.6615 276.694 67.3854 277.066 67.1875C277.441 66.9896 277.862 66.8906 278.328 66.8906C278.797 66.8906 279.212 66.9896 279.574 67.1875C279.936 67.3854 280.22 67.6523 280.426 67.9883C280.632 68.3242 280.734 68.6979 280.734 69.1094C280.734 69.4036 280.681 69.6914 280.574 69.9727C280.47 70.2513 280.288 70.5625 280.027 70.9062C279.77 71.2474 279.411 71.6641 278.953 72.1562L277.156 74.0781V74.1406H280.875V75H275.828ZM285.098 75.1094C284.509 75.1094 284.008 74.9492 283.594 74.6289C283.18 74.306 282.863 73.8385 282.645 73.2266C282.426 72.612 282.316 71.8698 282.316 71C282.316 70.1354 282.426 69.3971 282.645 68.7852C282.866 68.1706 283.184 67.7018 283.598 67.3789C284.014 67.0534 284.514 66.8906 285.098 66.8906C285.681 66.8906 286.18 67.0534 286.594 67.3789C287.01 67.7018 287.328 68.1706 287.547 68.7852C287.768 69.3971 287.879 70.1354 287.879 71C287.879 71.8698 287.77 72.612 287.551 73.2266C287.332 73.8385 287.016 74.306 286.602 74.6289C286.188 74.9492 285.686 75.1094 285.098 75.1094ZM285.098 74.25C285.681 74.25 286.134 73.9687 286.457 73.4062C286.78 72.8437 286.941 72.0417 286.941 71C286.941 70.3073 286.867 69.7174 286.719 69.2305C286.573 68.7435 286.362 68.3724 286.086 68.1172C285.813 67.862 285.483 67.7344 285.098 67.7344C284.52 67.7344 284.068 68.0195 283.742 68.5898C283.417 69.1576 283.254 69.9609 283.254 71C283.254 71.6927 283.327 72.2812 283.473 72.7656C283.618 73.25 283.828 73.6185 284.102 73.8711C284.378 74.1237 284.71 74.25 285.098 74.25ZM289.379 77.25V69H290.27V69.9531H290.379C290.447 69.849 290.54 69.7161 290.66 69.5547C290.783 69.3906 290.957 69.2448 291.184 69.1172C291.413 68.987 291.723 68.9219 292.113 68.9219C292.618 68.9219 293.064 69.0482 293.449 69.3008C293.835 69.5534 294.135 69.9115 294.352 70.375C294.568 70.8385 294.676 71.3854 294.676 72.0156C294.676 72.651 294.568 73.2018 294.352 73.668C294.135 74.1315 293.836 74.4909 293.453 74.7461C293.07 74.9987 292.629 75.125 292.129 75.125C291.743 75.125 291.435 75.0612 291.203 74.9336C290.971 74.8034 290.793 74.6562 290.668 74.4922C290.543 74.3255 290.447 74.1875 290.379 74.0781H290.301V77.25H289.379ZM290.285 72C290.285 72.4531 290.352 72.8529 290.484 73.1992C290.617 73.543 290.811 73.8125 291.066 74.0078C291.322 74.2005 291.634 74.2969 292.004 74.2969C292.389 74.2969 292.711 74.1953 292.969 73.9922C293.229 73.7865 293.424 73.5104 293.555 73.1641C293.688 72.8151 293.754 72.4271 293.754 72C293.754 71.5781 293.689 71.1979 293.559 70.8594C293.431 70.5182 293.237 70.2487 292.977 70.0508C292.719 69.8503 292.395 69.75 292.004 69.75C291.629 69.75 291.314 69.8451 291.059 70.0352C290.803 70.2227 290.611 70.4857 290.48 70.8242C290.35 71.1602 290.285 71.5521 290.285 72ZM296.522 69L297.96 71.4531L299.397 69H300.46L298.522 72L300.46 75H299.397L297.96 72.6719L296.522 75H295.46L297.366 72L295.46 69H296.522Z" fill="#D19A66"/>
<path d="M307.219 73.9062L307.156 74.3281C307.112 74.625 307.044 74.9427 306.953 75.2813C306.865 75.6198 306.772 75.9388 306.676 76.2383C306.579 76.5378 306.5 76.776 306.438 76.9531H305.734C305.768 76.7865 305.813 76.5664 305.867 76.293C305.922 76.0195 305.977 75.7135 306.031 75.375C306.089 75.0391 306.135 74.6953 306.172 74.3437L306.219 73.9062H307.219ZM306.656 70.6094C306.464 70.6094 306.298 70.5404 306.16 70.4023C306.022 70.2643 305.953 70.099 305.953 69.9062C305.953 69.7135 306.022 69.5482 306.16 69.4102C306.298 69.2721 306.464 69.2031 306.656 69.2031C306.849 69.2031 307.014 69.2721 307.152 69.4102C307.29 69.5482 307.359 69.7135 307.359 69.9062C307.359 70.0339 307.327 70.151 307.262 70.2578C307.199 70.3646 307.115 70.4505 307.008 70.5156C306.904 70.5781 306.786 70.6094 306.656 70.6094Z" fill="#ABB2BF"/>
<path d="M213.578 86.6094V87.0937C213.143 87.0937 212.839 87.1849 212.664 87.3672C212.492 87.5495 212.406 87.8542 212.406 88.2812V89.5312C212.406 89.8906 212.371 90.2018 212.301 90.4648C212.233 90.7279 212.121 90.9453 211.965 91.1172C211.809 91.2891 211.6 91.4167 211.34 91.5C211.079 91.5833 210.758 91.625 210.375 91.625V90.8594C210.677 90.8594 210.914 90.8112 211.086 90.7148C211.26 90.6211 211.383 90.4766 211.453 90.2813C211.526 90.0859 211.562 89.8359 211.562 89.5312V87.9687C211.562 87.7656 211.589 87.5807 211.641 87.4141C211.695 87.2474 211.794 87.1042 211.938 86.9844C212.081 86.8646 212.284 86.7721 212.547 86.707C212.813 86.6419 213.156 86.6094 213.578 86.6094ZM210.375 81.625C210.758 81.625 211.079 81.6667 211.34 81.75C211.6 81.8333 211.809 81.9609 211.965 82.1328C212.121 82.3047 212.233 82.5221 212.301 82.7852C212.371 83.0482 212.406 83.3594 212.406 83.7187V84.9687C212.406 85.3958 212.492 85.7005 212.664 85.8828C212.839 86.0651 213.143 86.1562 213.578 86.1562V86.6406C213.156 86.6406 212.813 86.6081 212.547 86.543C212.284 86.4779 212.081 86.3854 211.938 86.2656C211.794 86.1458 211.695 86.0026 211.641 85.8359C211.589 85.6693 211.562 85.4844 211.562 85.2812V83.7187C211.562 83.4141 211.526 83.1641 211.453 82.9687C211.383 82.7708 211.26 82.625 211.086 82.5312C210.914 82.4375 210.677 82.3906 210.375 82.3906V81.625ZM213.578 86.1562V87.0937H212.656V86.1562H213.578Z" fill="#ABB2BF"/>
<path d="M331 58H330V70H331V58Z" fill="#528BFF"/>
</svg>
