<svg width="800" height="400" viewBox="0 0 800 400" fill="none" xmlns="http://www.w3.org/2000/svg">
<g clip-path="url(#clip0_46_176)">
<path d="M800 0H0V400H800V0Z" fill="#F8FAFC"/>
<path d="M800 0H0V60H800V0Z" fill="#2C2C2C"/>
<path d="M21.1378 35V21.9091H29.8054V24.1911H23.9055V27.3104H29.2301V29.5923H23.9055V35H21.1378ZM31.6159 35V25.1818H34.339V35H31.6159ZM32.9838 23.9162C32.579 23.9162 32.2317 23.782 31.9419 23.5135C31.6564 23.2408 31.5137 22.9148 31.5137 22.5355C31.5137 22.1605 31.6564 21.8388 31.9419 21.5703C32.2317 21.2976 32.579 21.1612 32.9838 21.1612C33.3887 21.1612 33.7338 21.2976 34.0194 21.5703C34.3091 21.8388 34.454 22.1605 34.454 22.5355C34.454 22.9148 34.3091 23.2408 34.0194 23.5135C33.7338 23.782 33.3887 23.9162 32.9838 23.9162ZM40.9435 38.8864C40.0614 38.8864 39.305 38.7649 38.6744 38.522C38.0479 38.2834 37.5494 37.9574 37.1786 37.544C36.8079 37.1307 36.5671 36.6662 36.4563 36.1506L38.9748 35.8118C39.0515 36.0078 39.1729 36.1911 39.3391 36.3615C39.5053 36.532 39.7248 36.6683 39.9975 36.7706C40.2745 36.8771 40.6112 36.9304 41.0075 36.9304C41.5998 36.9304 42.0877 36.7855 42.4712 36.4957C42.859 36.2102 43.0529 35.7308 43.0529 35.0575V33.2614H42.9379C42.8185 33.5341 42.6396 33.7919 42.4009 34.0348C42.1623 34.2777 41.8555 34.4759 41.4805 34.6293C41.1055 34.7827 40.658 34.8594 40.1381 34.8594C39.4009 34.8594 38.7298 34.6889 38.1246 34.348C37.5238 34.0028 37.0444 33.4766 36.6864 32.7692C36.3327 32.0575 36.1559 31.1584 36.1559 30.0717C36.1559 28.9595 36.337 28.0305 36.6992 27.2848C37.0614 26.5391 37.543 25.9808 38.1438 25.6101C38.7489 25.2393 39.4116 25.054 40.1317 25.054C40.6815 25.054 41.1417 25.1477 41.5124 25.3352C41.8832 25.5185 42.1815 25.7486 42.4073 26.0256C42.6374 26.2983 42.8143 26.5668 42.9379 26.831H43.0401V25.1818H45.744V35.0959C45.744 35.9311 45.5394 36.63 45.1303 37.1925C44.7212 37.755 44.1545 38.1768 43.43 38.4581C42.7099 38.7436 41.881 38.8864 40.9435 38.8864ZM41.0011 32.8139C41.44 32.8139 41.8107 32.7053 42.1133 32.4879C42.4201 32.2663 42.6545 31.951 42.8164 31.5419C42.9826 31.1286 43.0657 30.6342 43.0657 30.0589C43.0657 29.4837 42.9847 28.9851 42.8228 28.5632C42.6609 28.1371 42.4265 27.8068 42.1197 27.5724C41.8129 27.3381 41.44 27.2209 41.0011 27.2209C40.5536 27.2209 40.1765 27.3423 39.8697 27.5852C39.5629 27.8239 39.3306 28.1562 39.1729 28.5824C39.0153 29.0085 38.9364 29.5007 38.9364 30.0589C38.9364 30.6257 39.0153 31.1158 39.1729 31.5291C39.3349 31.9382 39.5671 32.2557 39.8697 32.4815C40.1765 32.7031 40.5536 32.8139 41.0011 32.8139ZM47.9109 35V25.1818H50.506V26.9141H50.6211C50.8256 26.3388 51.1665 25.8849 51.6438 25.5526C52.1211 25.2202 52.6921 25.054 53.3569 25.054C54.0302 25.054 54.6033 25.2223 55.0763 25.5589C55.5494 25.8913 55.8647 26.343 56.0224 26.9141H56.1246C56.3249 26.3516 56.6871 25.902 57.2113 25.5653C57.7397 25.2244 58.364 25.054 59.0842 25.054C60.0004 25.054 60.744 25.3459 61.315 25.9297C61.8903 26.5092 62.1779 27.3317 62.1779 28.397V35H59.4613V28.9339C59.4613 28.3885 59.3164 27.9794 59.0266 27.7067C58.7369 27.4339 58.3746 27.2976 57.94 27.2976C57.4457 27.2976 57.06 27.4553 56.783 27.7706C56.506 28.0817 56.3675 28.4929 56.3675 29.0043V35H53.7276V28.8764C53.7276 28.3949 53.5891 28.0114 53.3121 27.7259C53.0394 27.4403 52.6793 27.2976 52.2319 27.2976C51.9293 27.2976 51.6566 27.3743 51.4137 27.5277C51.1751 27.6768 50.9854 27.8878 50.8448 28.1605C50.7042 28.429 50.6339 28.7443 50.6339 29.1065V35H47.9109ZM67.1286 35.1854C66.5021 35.1854 65.9439 35.0767 65.4538 34.8594C64.9638 34.6378 64.576 34.3118 64.2905 33.8814C64.0092 33.4467 63.8686 32.9055 63.8686 32.2578C63.8686 31.7124 63.9688 31.2543 64.169 30.8835C64.3693 30.5128 64.642 30.2145 64.9872 29.9886C65.3324 29.7628 65.7244 29.5923 66.1634 29.4773C66.6065 29.3622 67.071 29.2812 67.5568 29.2344C68.1278 29.1747 68.5881 29.1193 68.9375 29.0682C69.2869 29.0128 69.5405 28.9318 69.6982 28.8253C69.8558 28.7187 69.9347 28.5611 69.9347 28.3523V28.3139C69.9347 27.9091 69.8068 27.5959 69.5511 27.3743C69.2997 27.1527 68.9418 27.0419 68.4773 27.0419C67.9872 27.0419 67.5973 27.1506 67.3075 27.3679C67.0178 27.581 66.826 27.8494 66.7322 28.1733L64.2138 27.9688C64.3416 27.3722 64.593 26.8565 64.968 26.4219C65.343 25.983 65.8267 25.6463 66.419 25.4119C67.0156 25.1733 67.706 25.054 68.4901 25.054C69.0355 25.054 69.5575 25.1179 70.0561 25.2457C70.5589 25.3736 71.0043 25.5717 71.392 25.8402C71.7841 26.1087 72.093 26.4538 72.3189 26.8757C72.5447 27.2933 72.6577 27.794 72.6577 28.3778V35H70.0753V33.6385H69.9986C69.8409 33.9453 69.63 34.2159 69.3658 34.4503C69.1016 34.6804 68.7841 34.8615 68.4134 34.9936C68.0426 35.1214 67.6143 35.1854 67.1286 35.1854ZM67.9084 33.3061C68.3089 33.3061 68.6626 33.2273 68.9695 33.0696C69.2763 32.9077 69.517 32.6903 69.6918 32.4176C69.8665 32.1449 69.9538 31.8359 69.9538 31.4908V30.4489C69.8686 30.5043 69.7514 30.5554 69.6023 30.6023C69.4574 30.6449 69.2933 30.6854 69.1101 30.7237C68.9268 30.7578 68.7436 30.7898 68.5604 30.8196C68.3771 30.8452 68.2109 30.8686 68.0618 30.8899C67.7422 30.9368 67.4631 31.0114 67.2244 31.1136C66.9858 31.2159 66.8004 31.3544 66.6683 31.5291C66.5362 31.6996 66.4702 31.9126 66.4702 32.1683C66.4702 32.5391 66.6044 32.8224 66.8729 33.0185C67.1456 33.2102 67.4908 33.3061 67.9084 33.3061Z" fill="white"/>
<path d="M750 38C754.418 38 758 34.4183 758 30C758 25.5817 754.418 22 750 22C745.582 22 742 25.5817 742 30C742 34.4183 745.582 38 750 38Z" fill="#FF5F56"/>
<path d="M770 38C774.418 38 778 34.4183 778 30C778 25.5817 774.418 22 770 22C765.582 22 762 25.5817 762 30C762 34.4183 765.582 38 770 38Z" fill="#FFBD2E"/>
<path d="M730 38C734.418 38 738 34.4183 738 30C738 25.5817 734.418 22 730 22C725.582 22 722 25.5817 722 30C722 34.4183 725.582 38 730 38Z" fill="#27CA3F"/>
<path d="M200 60H0V400H200V60Z" fill="#F1F3F4"/>
<path d="M176 80H24C21.7909 80 20 81.7909 20 84V96C20 98.2091 21.7909 100 24 100H176C178.209 100 180 98.2091 180 96V84C180 81.7909 178.209 80 176 80Z" fill="#E1E5E9"/>
<path d="M137 110H23C21.3431 110 20 111.343 20 113V122C20 123.657 21.3431 125 23 125H137C138.657 125 140 123.657 140 122V113C140 111.343 138.657 110 137 110Z" fill="#E1E5E9"/>
<path d="M157 135H23C21.3431 135 20 136.343 20 138V147C20 148.657 21.3431 150 23 150H157C158.657 150 160 148.657 160 147V138C160 136.343 158.657 135 157 135Z" fill="#E1E5E9"/>
<path d="M800 60H200V400H800V60Z" fill="white"/>
<path d="M750 100H250V160H750V100Z" stroke="#667EEA" stroke-width="2" stroke-dasharray="5 5"/>
<path d="M367 115H273C271.343 115 270 116.343 270 118V127C270 128.657 271.343 130 273 130H367C368.657 130 370 128.657 370 127V118C370 116.343 368.657 115 367 115Z" fill="#E2E8F0"/>
<path d="M677 115H603C601.343 115 600 116.343 600 118V127C600 128.657 601.343 130 603 130H677C678.657 130 680 128.657 680 127V118C680 116.343 678.657 115 677 115Z" fill="#E2E8F0"/>
<path d="M318 135H272C270.895 135 270 135.895 270 137V143C270 144.105 270.895 145 272 145H318C319.105 145 320 144.105 320 143V137C320 135.895 319.105 135 318 135Z" fill="#CBD5E0"/>
<path d="M368 135H332C330.895 135 330 135.895 330 137V143C330 144.105 330.895 145 332 145H368C369.105 145 370 144.105 370 143V137C370 135.895 369.105 135 368 135Z" fill="#CBD5E0"/>
<path d="M423 135H382C380.895 135 380 135.895 380 137V143C380 144.105 380.895 145 382 145H423C424.105 145 425 144.105 425 143V137C425 135.895 424.105 135 423 135Z" fill="#CBD5E0"/>
<path d="M750 180H250V300H750V180Z" stroke="#667EEA" stroke-width="2" stroke-dasharray="5 5"/>
<path d="M467 200H273C271.343 200 270 201.343 270 203V217C270 218.657 271.343 220 273 220H467C468.657 220 470 218.657 470 217V203C470 201.343 468.657 200 467 200Z" fill="#E2E8F0"/>
<path d="M728 230H272C270.895 230 270 230.895 270 232V238C270 239.105 270.895 240 272 240H728C729.105 240 730 239.105 730 238V232C730 230.895 729.105 230 728 230Z" fill="#F7FAFC"/>
<path d="M668 245H272C270.895 245 270 245.895 270 247V253C270 254.105 270.895 255 272 255H668C669.105 255 670 254.105 670 253V247C670 245.895 669.105 245 668 245Z" fill="#F7FAFC"/>
<path d="M618 260H272C270.895 260 270 260.895 270 262V268C270 269.105 270.895 270 272 270H618C619.105 270 620 269.105 620 268V262C620 260.895 619.105 260 618 260Z" fill="#F7FAFC"/>
<path d="M575 200H505C502.239 200 500 202.239 500 205V275C500 277.761 502.239 280 505 280H575C577.761 280 580 277.761 580 275V205C580 202.239 577.761 200 575 200Z" fill="#EDF2F7"/>
<path d="M675 200H605C602.239 200 600 202.239 600 205V275C600 277.761 602.239 280 605 280H675C677.761 280 680 277.761 680 275V205C680 202.239 677.761 200 675 200Z" fill="#EDF2F7"/>
<path d="M172 200H28C23.5817 200 20 203.582 20 208V372C20 376.418 23.5817 380 28 380H172C176.418 380 180 376.418 180 372V208C180 203.582 176.418 200 172 200Z" fill="white"/>
<path d="M30.4261 212.794V211.273H37.5938V212.794H34.9219V220H33.098V212.794H30.4261ZM40.7482 220.128C40.0863 220.128 39.5138 219.987 39.0309 219.706C38.5508 219.422 38.18 219.027 37.9187 218.521C37.6573 218.013 37.5266 217.423 37.5266 216.753C37.5266 216.077 37.6573 215.486 37.9187 214.98C38.18 214.472 38.5508 214.077 39.0309 213.795C39.5138 213.511 40.0863 213.369 40.7482 213.369C41.4102 213.369 41.9812 213.511 42.4613 213.795C42.9442 214.077 43.3164 214.472 43.5778 214.98C43.8391 215.486 43.9698 216.077 43.9698 216.753C43.9698 217.423 43.8391 218.013 43.5778 218.521C43.3164 219.027 42.9442 219.422 42.4613 219.706C41.9812 219.987 41.4102 220.128 40.7482 220.128ZM40.7567 218.722C41.0579 218.722 41.3093 218.636 41.511 218.466C41.7127 218.293 41.8647 218.057 41.967 217.759C42.0721 217.46 42.1246 217.121 42.1246 216.74C42.1246 216.359 42.0721 216.02 41.967 215.722C41.8647 215.423 41.7127 215.187 41.511 215.014C41.3093 214.841 41.0579 214.754 40.7567 214.754C40.4528 214.754 40.1971 214.841 39.9897 215.014C39.7852 215.187 39.6303 215.423 39.5252 215.722C39.4229 216.02 39.3718 216.359 39.3718 216.74C39.3718 217.121 39.4229 217.46 39.5252 217.759C39.6303 218.057 39.7852 218.293 39.9897 218.466C40.1971 218.636 40.4528 218.722 40.7567 218.722ZM48.1076 220.128C47.4457 220.128 46.8732 219.987 46.3903 219.706C45.9102 219.422 45.5394 219.027 45.2781 218.521C45.0167 218.013 44.886 217.423 44.886 216.753C44.886 216.077 45.0167 215.486 45.2781 214.98C45.5394 214.472 45.9102 214.077 46.3903 213.795C46.8732 213.511 47.4457 213.369 48.1076 213.369C48.7695 213.369 49.3406 213.511 49.8207 213.795C50.3036 214.077 50.6758 214.472 50.9371 214.98C51.1985 215.486 51.3292 216.077 51.3292 216.753C51.3292 217.423 51.1985 218.013 50.9371 218.521C50.6758 219.027 50.3036 219.422 49.8207 219.706C49.3406 219.987 48.7695 220.128 48.1076 220.128ZM48.1161 218.722C48.4173 218.722 48.6687 218.636 48.8704 218.466C49.0721 218.293 49.2241 218.057 49.3263 217.759C49.4315 217.46 49.484 217.121 49.484 216.74C49.484 216.359 49.4315 216.02 49.3263 215.722C49.2241 215.423 49.0721 215.187 48.8704 215.014C48.6687 214.841 48.4173 214.754 48.1161 214.754C47.8121 214.754 47.5565 214.841 47.3491 215.014C47.1445 215.187 46.9897 215.423 46.8846 215.722C46.7823 216.02 46.7312 216.359 46.7312 216.74C46.7312 217.121 46.7823 217.46 46.8846 217.759C46.9897 218.057 47.1445 218.293 47.3491 218.466C47.5565 218.636 47.8121 218.722 48.1161 218.722ZM54.3249 211.273V220H52.5096V211.273H54.3249ZM61.2251 215.321L59.5632 215.423C59.5348 215.281 59.4737 215.153 59.38 215.04C59.2862 214.923 59.1626 214.831 59.0092 214.763C58.8587 214.692 58.6783 214.656 58.468 214.656C58.1868 214.656 57.9496 214.716 57.7564 214.835C57.5632 214.952 57.4666 215.108 57.4666 215.304C57.4666 215.46 57.5291 215.592 57.6541 215.7C57.7791 215.808 57.9936 215.895 58.2976 215.96L59.4822 216.199C60.1186 216.33 60.593 216.54 60.9055 216.83C61.218 217.119 61.3743 217.5 61.3743 217.972C61.3743 218.401 61.2479 218.777 60.995 219.101C60.745 219.425 60.4013 219.678 59.9638 219.859C59.5291 220.038 59.0277 220.128 58.4595 220.128C57.593 220.128 56.9027 219.947 56.3885 219.587C55.8771 219.223 55.5774 218.729 55.4893 218.104L57.2749 218.01C57.3288 218.274 57.4595 218.476 57.6669 218.615C57.8743 218.751 58.1399 218.82 58.4638 218.82C58.782 218.82 59.0376 218.759 59.2308 218.636C59.4268 218.511 59.5263 218.351 59.5291 218.155C59.5263 217.99 59.4567 217.855 59.3203 217.75C59.1839 217.642 58.9737 217.56 58.6896 217.503L57.5561 217.277C56.9169 217.149 56.4411 216.928 56.1286 216.612C55.8189 216.297 55.6641 215.895 55.6641 215.406C55.6641 214.986 55.7777 214.624 56.005 214.32C56.2351 214.016 56.5575 213.781 56.9723 213.616C57.3899 213.452 57.8786 213.369 58.4382 213.369C59.2649 213.369 59.9155 213.544 60.3899 213.893C60.8672 214.243 61.1456 214.719 61.2251 215.321Z" fill="#4A5568"/>
<path d="M51 230H34C31.7909 230 30 231.791 30 234V251C30 253.209 31.7909 255 34 255H51C53.2091 255 55 253.209 55 251V234C55 231.791 53.2091 230 51 230Z" fill="#667EEA"/>
<path d="M86 230H69C66.7909 230 65 231.791 65 234V251C65 253.209 66.7909 255 69 255H86C88.2091 255 90 253.209 90 251V234C90 231.791 88.2091 230 86 230Z" fill="#E2E8F0"/>
<path d="M121 230H104C101.791 230 100 231.791 100 234V251C100 253.209 101.791 255 104 255H121C123.209 255 125 253.209 125 251V234C125 231.791 123.209 230 121 230Z" fill="#E2E8F0"/>
<path d="M156 230H139C136.791 230 135 231.791 135 234V251C135 253.209 136.791 255 139 255H156C158.209 255 160 253.209 160 251V234C160 231.791 158.209 230 156 230Z" fill="#E2E8F0"/>
</g>
<path d="M308.737 35V20.4545H318.368V22.9901H311.812V26.456H317.728V28.9915H311.812V35H308.737ZM320.379 35V24.0909H323.405V35H320.379ZM321.899 22.6847C321.449 22.6847 321.063 22.5355 320.741 22.2372C320.424 21.9342 320.266 21.572 320.266 21.1506C320.266 20.7339 320.424 20.3764 320.741 20.0781C321.063 19.7751 321.449 19.6236 321.899 19.6236C322.349 19.6236 322.732 19.7751 323.05 20.0781C323.372 20.3764 323.533 20.7339 323.533 21.1506C323.533 21.572 323.372 21.9342 323.05 22.2372C322.732 22.5355 322.349 22.6847 321.899 22.6847ZM330.743 39.3182C329.763 39.3182 328.923 39.1832 328.222 38.9134C327.526 38.6482 326.972 38.286 326.56 37.8267C326.148 37.3674 325.881 36.8513 325.757 36.2784L328.556 35.902C328.641 36.1198 328.776 36.3234 328.961 36.5128C329.145 36.7022 329.389 36.8537 329.692 36.9673C330 37.0857 330.374 37.1449 330.814 37.1449C331.472 37.1449 332.015 36.9839 332.441 36.6619C332.872 36.3447 333.087 35.812 333.087 35.0639V33.0682H332.959C332.827 33.3712 332.628 33.6577 332.363 33.9276C332.097 34.1974 331.757 34.4176 331.34 34.5881C330.923 34.7585 330.426 34.8438 329.848 34.8438C329.029 34.8438 328.283 34.6544 327.611 34.2756C326.944 33.892 326.411 33.3073 326.013 32.5213C325.62 31.7306 325.424 30.7315 325.424 29.5241C325.424 28.2884 325.625 27.2562 326.027 26.4276C326.43 25.599 326.965 24.9787 327.632 24.5668C328.305 24.1548 329.041 23.9489 329.841 23.9489C330.452 23.9489 330.963 24.053 331.375 24.2614C331.787 24.465 332.119 24.7206 332.37 25.0284C332.625 25.3314 332.822 25.6297 332.959 25.9233H333.073V24.0909H336.077V35.1065C336.077 36.0346 335.85 36.8111 335.395 37.4361C334.941 38.0611 334.311 38.5298 333.506 38.8423C332.706 39.1596 331.785 39.3182 330.743 39.3182ZM330.807 32.571C331.295 32.571 331.707 32.4503 332.043 32.2088C332.384 31.9626 332.644 31.6122 332.824 31.1577C333.009 30.6984 333.101 30.1491 333.101 29.5099C333.101 28.8707 333.011 28.3168 332.831 27.848C332.651 27.3745 332.391 27.0076 332.05 26.7472C331.709 26.4867 331.295 26.3565 330.807 26.3565C330.31 26.3565 329.891 26.4915 329.55 26.7614C329.209 27.0265 328.951 27.3958 328.776 27.8693C328.601 28.3428 328.513 28.8897 328.513 29.5099C328.513 30.1397 328.601 30.6842 328.776 31.1435C328.956 31.598 329.214 31.9508 329.55 32.2017C329.891 32.4479 330.31 32.571 330.807 32.571ZM338.485 35V24.0909H341.368V26.0156H341.496C341.723 25.3764 342.102 24.8722 342.632 24.5028C343.163 24.1335 343.797 23.9489 344.536 23.9489C345.284 23.9489 345.921 24.1359 346.446 24.5099C346.972 24.8793 347.322 25.3812 347.498 26.0156H347.611C347.834 25.3906 348.236 24.8911 348.819 24.517C349.406 24.1383 350.099 23.9489 350.9 23.9489C351.917 23.9489 352.744 24.2732 353.378 24.9219C354.017 25.5658 354.337 26.4796 354.337 27.6634V35H351.319V28.2599C351.319 27.6539 351.158 27.1993 350.836 26.8963C350.514 26.5933 350.111 26.4418 349.628 26.4418C349.079 26.4418 348.65 26.617 348.343 26.9673C348.035 27.313 347.881 27.7699 347.881 28.3381V35H344.948V28.196C344.948 27.661 344.794 27.2348 344.486 26.9176C344.183 26.6004 343.783 26.4418 343.286 26.4418C342.95 26.4418 342.647 26.527 342.377 26.6974C342.112 26.8632 341.901 27.0975 341.745 27.4006C341.588 27.6989 341.51 28.0492 341.51 28.4517V35H338.485ZM359.838 35.206C359.142 35.206 358.521 35.0852 357.977 34.8438C357.432 34.5975 357.002 34.2353 356.684 33.7571C356.372 33.2741 356.216 32.6728 356.216 31.9531C356.216 31.3471 356.327 30.8381 356.549 30.4261C356.772 30.0142 357.075 29.6828 357.458 29.4318C357.842 29.1809 358.278 28.9915 358.765 28.8636C359.258 28.7358 359.774 28.6458 360.314 28.5938C360.948 28.5275 361.459 28.4659 361.848 28.4091C362.236 28.3475 362.518 28.2576 362.693 28.1392C362.868 28.0208 362.956 27.8456 362.956 27.6136V27.571C362.956 27.1212 362.814 26.7732 362.529 26.527C362.25 26.2808 361.852 26.1577 361.336 26.1577C360.792 26.1577 360.359 26.2784 360.037 26.5199C359.715 26.7566 359.502 27.0549 359.397 27.4148L356.599 27.1875C356.741 26.5246 357.02 25.9517 357.437 25.4688C357.854 24.9811 358.391 24.607 359.049 24.3466C359.712 24.0814 360.479 23.9489 361.35 23.9489C361.957 23.9489 362.537 24.0199 363.091 24.1619C363.649 24.304 364.144 24.5241 364.575 24.8224C365.011 25.1207 365.354 25.5043 365.605 25.973C365.856 26.437 365.981 26.9934 365.981 27.642V35H363.112V33.4872H363.027C362.851 33.8281 362.617 34.1288 362.324 34.3892C362.03 34.6449 361.677 34.8461 361.265 34.9929C360.853 35.1349 360.377 35.206 359.838 35.206ZM360.704 33.1179C361.149 33.1179 361.542 33.0303 361.883 32.8551C362.224 32.6752 362.492 32.4337 362.686 32.1307C362.88 31.8277 362.977 31.4844 362.977 31.1009V29.9432C362.882 30.0047 362.752 30.0616 362.586 30.1136C362.425 30.161 362.243 30.206 362.039 30.2486C361.836 30.2865 361.632 30.322 361.429 30.3551C361.225 30.3835 361.04 30.4096 360.875 30.4332C360.52 30.4853 360.209 30.5682 359.944 30.6818C359.679 30.7955 359.473 30.9493 359.326 31.1435C359.18 31.3329 359.106 31.5696 359.106 31.8537C359.106 32.2656 359.255 32.5805 359.554 32.7983C359.857 33.0114 360.24 33.1179 360.704 33.1179ZM376.288 35L372.126 20.4545H375.486L377.893 30.5611H378.014L380.67 20.4545H383.547L386.196 30.5824H386.324L388.732 20.4545H392.091L387.929 35H384.932L382.162 25.4901H382.048L379.286 35H376.288ZM393.68 35V24.0909H396.706V35H393.68ZM395.2 22.6847C394.75 22.6847 394.364 22.5355 394.042 22.2372C393.725 21.9342 393.566 21.572 393.566 21.1506C393.566 20.7339 393.725 20.3764 394.042 20.0781C394.364 19.7751 394.75 19.6236 395.2 19.6236C395.65 19.6236 396.033 19.7751 396.35 20.0781C396.672 20.3764 396.833 20.7339 396.833 21.1506C396.833 21.572 396.672 21.9342 396.35 22.2372C396.033 22.5355 395.65 22.6847 395.2 22.6847ZM399.129 35V24.0909H402.062V25.9943H402.176C402.375 25.3172 402.709 24.8059 403.178 24.4602C403.646 24.1098 404.186 23.9347 404.797 23.9347C404.948 23.9347 405.112 23.9441 405.287 23.9631C405.462 23.982 405.616 24.008 405.749 24.0412V26.7259C405.607 26.6832 405.41 26.6454 405.159 26.6122C404.908 26.5791 404.679 26.5625 404.47 26.5625C404.025 26.5625 403.627 26.6596 403.277 26.8537C402.931 27.0431 402.657 27.3082 402.453 27.6491C402.254 27.9901 402.155 28.383 402.155 28.8281V35H399.129ZM411.777 35.2131C410.654 35.2131 409.689 34.9858 408.879 34.5312C408.074 34.072 407.454 33.4233 407.018 32.5852C406.583 31.7424 406.365 30.7457 406.365 29.5952C406.365 28.473 406.583 27.4882 407.018 26.6406C407.454 25.7931 408.067 25.1326 408.858 24.6591C409.653 24.1856 410.586 23.9489 411.656 23.9489C412.376 23.9489 413.046 24.0649 413.666 24.2969C414.291 24.5241 414.835 24.8674 415.299 25.3267C415.768 25.786 416.133 26.3636 416.393 27.0597C416.654 27.7509 416.784 28.5606 416.784 29.4886V30.3196H407.572V28.4446H413.936C413.936 28.009 413.841 27.6231 413.652 27.2869C413.462 26.9508 413.199 26.688 412.863 26.4986C412.532 26.3045 412.146 26.2074 411.706 26.2074C411.246 26.2074 410.839 26.3139 410.484 26.527C410.134 26.7353 409.859 27.017 409.66 27.3722C409.461 27.7225 409.359 28.1132 409.355 28.544V30.3267C409.355 30.8665 409.454 31.3329 409.653 31.7259C409.857 32.1188 410.143 32.4219 410.512 32.6349C410.882 32.848 411.32 32.9545 411.826 32.9545C412.163 32.9545 412.47 32.9072 412.75 32.8125C413.029 32.7178 413.268 32.5758 413.467 32.3864C413.666 32.197 413.817 31.965 413.922 31.6903L416.72 31.875C416.578 32.5473 416.287 33.1345 415.846 33.6364C415.411 34.1335 414.847 34.5218 414.156 34.8011C413.469 35.0758 412.676 35.2131 411.777 35.2131ZM424.625 24.0909V26.3636H417.892V24.0909H424.625ZM419.433 35V23.3026C419.433 22.5118 419.587 21.8561 419.895 21.3352C420.207 20.8144 420.633 20.4238 421.173 20.1634C421.713 19.9029 422.326 19.7727 423.012 19.7727C423.476 19.7727 423.9 19.8082 424.284 19.8793C424.672 19.9503 424.961 20.0142 425.15 20.071L424.61 22.3438C424.492 22.3059 424.345 22.2704 424.17 22.2372C424 22.2041 423.824 22.1875 423.645 22.1875C423.199 22.1875 422.889 22.2917 422.714 22.5C422.539 22.7036 422.451 22.9901 422.451 23.3594V35H419.433ZM426.473 35V24.0909H429.406V25.9943H429.52C429.719 25.3172 430.053 24.8059 430.521 24.4602C430.99 24.1098 431.53 23.9347 432.141 23.9347C432.292 23.9347 432.455 23.9441 432.631 23.9631C432.806 23.982 432.96 24.008 433.092 24.0412V26.7259C432.95 26.6832 432.754 26.6454 432.503 26.6122C432.252 26.5791 432.022 26.5625 431.814 26.5625C431.369 26.5625 430.971 26.6596 430.621 26.8537C430.275 27.0431 430 27.3082 429.797 27.6491C429.598 27.9901 429.499 28.383 429.499 28.8281V35H426.473ZM437.455 35.206C436.759 35.206 436.139 35.0852 435.594 34.8438C435.05 34.5975 434.619 34.2353 434.301 33.7571C433.989 33.2741 433.833 32.6728 433.833 31.9531C433.833 31.3471 433.944 30.8381 434.167 30.4261C434.389 30.0142 434.692 29.6828 435.076 29.4318C435.459 29.1809 435.895 28.9915 436.382 28.8636C436.875 28.7358 437.391 28.6458 437.931 28.5938C438.565 28.5275 439.077 28.4659 439.465 28.4091C439.853 28.3475 440.135 28.2576 440.31 28.1392C440.485 28.0208 440.573 27.8456 440.573 27.6136V27.571C440.573 27.1212 440.431 26.7732 440.147 26.527C439.867 26.2808 439.47 26.1577 438.953 26.1577C438.409 26.1577 437.976 26.2784 437.654 26.5199C437.332 26.7566 437.119 27.0549 437.015 27.4148L434.216 27.1875C434.358 26.5246 434.638 25.9517 435.054 25.4688C435.471 24.9811 436.008 24.607 436.667 24.3466C437.329 24.0814 438.096 23.9489 438.968 23.9489C439.574 23.9489 440.154 24.0199 440.708 24.1619C441.266 24.304 441.761 24.5241 442.192 24.8224C442.628 25.1207 442.971 25.5043 443.222 25.973C443.473 26.437 443.598 26.9934 443.598 27.642V35H440.729V33.4872H440.644C440.469 33.8281 440.234 34.1288 439.941 34.3892C439.647 34.6449 439.294 34.8461 438.882 34.9929C438.471 35.1349 437.995 35.206 437.455 35.206ZM438.321 33.1179C438.766 33.1179 439.159 33.0303 439.5 32.8551C439.841 32.6752 440.109 32.4337 440.303 32.1307C440.497 31.8277 440.594 31.4844 440.594 31.1009V29.9432C440.499 30.0047 440.369 30.0616 440.203 30.1136C440.042 30.161 439.86 30.206 439.657 30.2486C439.453 30.2865 439.249 30.322 439.046 30.3551C438.842 30.3835 438.658 30.4096 438.492 30.4332C438.137 30.4853 437.827 30.5682 437.561 30.6818C437.296 30.7955 437.09 30.9493 436.944 31.1435C436.797 31.3329 436.723 31.5696 436.723 31.8537C436.723 32.2656 436.873 32.5805 437.171 32.7983C437.474 33.0114 437.857 33.1179 438.321 33.1179ZM445.946 35V24.0909H448.829V26.0156H448.957C449.184 25.3764 449.563 24.8722 450.093 24.5028C450.624 24.1335 451.258 23.9489 451.997 23.9489C452.745 23.9489 453.382 24.1359 453.907 24.5099C454.433 24.8793 454.783 25.3812 454.958 26.0156H455.072C455.295 25.3906 455.697 24.8911 456.279 24.517C456.867 24.1383 457.56 23.9489 458.36 23.9489C459.378 23.9489 460.205 24.2732 460.839 24.9219C461.478 25.5658 461.798 26.4796 461.798 27.6634V35H458.779V28.2599C458.779 27.6539 458.618 27.1993 458.297 26.8963C457.975 26.5933 457.572 26.4418 457.089 26.4418C456.54 26.4418 456.111 26.617 455.804 26.9673C455.496 27.313 455.342 27.7699 455.342 28.3381V35H452.409V28.196C452.409 27.661 452.255 27.2348 451.947 26.9176C451.644 26.6004 451.244 26.4418 450.747 26.4418C450.411 26.4418 450.108 26.527 449.838 26.6974C449.573 26.8632 449.362 27.0975 449.206 27.4006C449.049 27.6989 448.971 28.0492 448.971 28.4517V35H445.946ZM464.188 35V24.0909H467.213V35H464.188ZM465.708 22.6847C465.258 22.6847 464.872 22.5355 464.55 22.2372C464.233 21.9342 464.074 21.572 464.074 21.1506C464.074 20.7339 464.233 20.3764 464.55 20.0781C464.872 19.7751 465.258 19.6236 465.708 19.6236C466.158 19.6236 466.541 19.7751 466.858 20.0781C467.18 20.3764 467.341 20.7339 467.341 21.1506C467.341 21.572 467.18 21.9342 466.858 22.2372C466.541 22.5355 466.158 22.6847 465.708 22.6847ZM472.663 28.6932V35H469.637V24.0909H472.521V26.0156H472.648C472.89 25.3812 473.295 24.8793 473.863 24.5099C474.431 24.1359 475.12 23.9489 475.93 23.9489C476.687 23.9489 477.348 24.1146 477.911 24.446C478.475 24.7775 478.913 25.2509 479.225 25.8665C479.538 26.4773 479.694 27.2064 479.694 28.054V35H476.668V28.5938C476.673 27.9261 476.503 27.4053 476.157 27.0312C475.811 26.6525 475.335 26.4631 474.729 26.4631C474.322 26.4631 473.962 26.5507 473.65 26.7259C473.342 26.901 473.101 27.1567 472.925 27.4929C472.755 27.8243 472.667 28.2244 472.663 28.6932ZM486.993 39.3182C486.013 39.3182 485.173 39.1832 484.472 38.9134C483.776 38.6482 483.222 38.286 482.81 37.8267C482.398 37.3674 482.131 36.8513 482.007 36.2784L484.806 35.902C484.891 36.1198 485.026 36.3234 485.211 36.5128C485.395 36.7022 485.639 36.8537 485.942 36.9673C486.25 37.0857 486.624 37.1449 487.064 37.1449C487.722 37.1449 488.265 36.9839 488.691 36.6619C489.122 36.3447 489.337 35.812 489.337 35.0639V33.0682H489.209C489.077 33.3712 488.878 33.6577 488.613 33.9276C488.347 34.1974 488.007 34.4176 487.59 34.5881C487.173 34.7585 486.676 34.8438 486.098 34.8438C485.279 34.8438 484.533 34.6544 483.861 34.2756C483.194 33.892 482.661 33.3073 482.263 32.5213C481.87 31.7306 481.674 30.7315 481.674 29.5241C481.674 28.2884 481.875 27.2562 482.277 26.4276C482.68 25.599 483.215 24.9787 483.882 24.5668C484.555 24.1548 485.291 23.9489 486.091 23.9489C486.702 23.9489 487.213 24.053 487.625 24.2614C488.037 24.465 488.369 24.7206 488.62 25.0284C488.875 25.3314 489.072 25.6297 489.209 25.9233H489.323V24.0909H492.327V35.1065C492.327 36.0346 492.1 36.8111 491.645 37.4361C491.191 38.0611 490.561 38.5298 489.756 38.8423C488.956 39.1596 488.035 39.3182 486.993 39.3182ZM487.057 32.571C487.545 32.571 487.957 32.4503 488.293 32.2088C488.634 31.9626 488.894 31.6122 489.074 31.1577C489.259 30.6984 489.351 30.1491 489.351 29.5099C489.351 28.8707 489.261 28.3168 489.081 27.848C488.901 27.3745 488.641 27.0076 488.3 26.7472C487.959 26.4867 487.545 26.3565 487.057 26.3565C486.56 26.3565 486.141 26.4915 485.8 26.7614C485.459 27.0265 485.201 27.3958 485.026 27.8693C484.851 28.3428 484.763 28.8897 484.763 29.5099C484.763 30.1397 484.851 30.6842 485.026 31.1435C485.206 31.598 485.464 31.9508 485.8 32.2017C486.141 32.4479 486.56 32.571 487.057 32.571Z" fill="white"/>
<defs>
<clipPath id="clip0_46_176">
<rect width="800" height="400" fill="white"/>
</clipPath>
</defs>
</svg>
