<svg width="380" height="280" viewBox="0 0 380 280" fill="none" xmlns="http://www.w3.org/2000/svg">
<path d="M380 0H0V280H380V0Z" fill="url(#paint0_linear_28_88)"/>
<path d="M190 110C206.569 110 220 96.5685 220 80C220 63.4315 206.569 50 190 50C173.431 50 160 63.4315 160 80C160 96.5685 173.431 110 190 110Z" fill="white" fill-opacity="0.2"/>
<path d="M174 90.24H206V58.24H174V90.24Z" fill="white"/>
<path d="M51.0146 114V130H47.6318V117.211H47.5381L43.874 119.508V116.508L47.835 114H51.0146ZM61.0908 130.352C59.7471 130.346 58.5908 130.016 57.6221 129.359C56.6585 128.703 55.9163 127.753 55.3955 126.508C54.8799 125.263 54.6247 123.766 54.6299 122.016C54.6299 120.271 54.8877 118.784 55.4033 117.555C55.9242 116.326 56.6663 115.391 57.6299 114.75C58.5986 114.104 59.7523 113.781 61.0908 113.781C62.4294 113.781 63.5804 114.104 64.5439 114.75C65.5127 115.396 66.2575 116.333 66.7783 117.562C67.2992 118.786 67.557 120.271 67.5518 122.016C67.5518 123.771 67.2913 125.271 66.7705 126.516C66.2549 127.76 65.5153 128.711 64.5518 129.367C63.5882 130.023 62.4346 130.352 61.0908 130.352ZM61.0908 127.547C62.0075 127.547 62.7393 127.086 63.2861 126.164C63.833 125.242 64.1038 123.859 64.0986 122.016C64.0986 120.802 63.9736 119.792 63.7236 118.984C63.4788 118.177 63.1299 117.57 62.6768 117.164C62.2288 116.758 61.7002 116.555 61.0908 116.555C60.1794 116.555 59.4502 117.01 58.9033 117.922C58.3564 118.833 58.0804 120.198 58.0752 122.016C58.0752 123.245 58.1976 124.271 58.4424 125.094C58.6924 125.911 59.0439 126.526 59.4971 126.937C59.9502 127.344 60.4814 127.547 61.0908 127.547ZM75.1494 130V114H85.9307V116.789H78.5322V120.602H85.376V123.391H78.5322V127.211H85.9619V130H75.1494ZM98.542 121.422L95.4951 121.609C95.443 121.349 95.3311 121.115 95.1592 120.906C94.9873 120.693 94.7607 120.523 94.4795 120.398C94.2035 120.268 93.8727 120.203 93.4873 120.203C92.9717 120.203 92.5368 120.312 92.1826 120.531C91.8285 120.745 91.6514 121.031 91.6514 121.391C91.6514 121.677 91.766 121.919 91.9951 122.117C92.2243 122.315 92.6175 122.474 93.1748 122.594L95.3467 123.031C96.5133 123.271 97.3831 123.656 97.9561 124.187C98.529 124.719 98.8154 125.417 98.8154 126.281C98.8154 127.068 98.5837 127.758 98.1201 128.352C97.6618 128.945 97.0316 129.409 96.2295 129.742C95.4326 130.07 94.5133 130.234 93.4717 130.234C91.8831 130.234 90.6175 129.904 89.6748 129.242C88.7373 128.576 88.1878 127.669 88.0264 126.523L91.2998 126.352C91.3988 126.836 91.6383 127.206 92.0186 127.461C92.3988 127.711 92.8857 127.836 93.4795 127.836C94.0628 127.836 94.5316 127.724 94.8857 127.5C95.2451 127.271 95.4274 126.977 95.4326 126.617C95.4274 126.315 95.2998 126.068 95.0498 125.875C94.7998 125.677 94.4144 125.526 93.8936 125.422L91.8154 125.008C90.6436 124.773 89.7712 124.367 89.1982 123.789C88.6305 123.211 88.3467 122.474 88.3467 121.578C88.3467 120.807 88.555 120.143 88.9717 119.586C89.3936 119.029 89.9847 118.599 90.7451 118.297C91.5107 117.995 92.4066 117.844 93.4326 117.844C94.9482 117.844 96.141 118.164 97.0107 118.805C97.8857 119.445 98.3962 120.318 98.542 121.422ZM110.896 121.422L107.849 121.609C107.797 121.349 107.685 121.115 107.513 120.906C107.341 120.693 107.114 120.523 106.833 120.398C106.557 120.268 106.226 120.203 105.841 120.203C105.325 120.203 104.89 120.312 104.536 120.531C104.182 120.745 104.005 121.031 104.005 121.391C104.005 121.677 104.119 121.919 104.349 122.117C104.578 122.315 104.971 122.474 105.528 122.594L107.7 123.031C108.867 123.271 109.737 123.656 110.31 124.187C110.882 124.719 111.169 125.417 111.169 126.281C111.169 127.068 110.937 127.758 110.474 128.352C110.015 128.945 109.385 129.409 108.583 129.742C107.786 130.07 106.867 130.234 105.825 130.234C104.237 130.234 102.971 129.904 102.028 129.242C101.091 128.576 100.541 127.669 100.38 126.523L103.653 126.352C103.752 126.836 103.992 127.206 104.372 127.461C104.752 127.711 105.239 127.836 105.833 127.836C106.416 127.836 106.885 127.724 107.239 127.5C107.599 127.271 107.781 126.977 107.786 126.617C107.781 126.315 107.653 126.068 107.403 125.875C107.153 125.677 106.768 125.526 106.247 125.422L104.169 125.008C102.997 124.773 102.125 124.367 101.552 123.789C100.984 123.211 100.7 122.474 100.7 121.578C100.7 120.807 100.909 120.143 101.325 119.586C101.747 119.029 102.338 118.599 103.099 118.297C103.864 117.995 104.76 117.844 105.786 117.844C107.302 117.844 108.494 118.164 109.364 118.805C110.239 119.445 110.75 120.318 110.896 121.422ZM118.733 130.234C117.499 130.234 116.437 129.984 115.546 129.484C114.66 128.979 113.978 128.266 113.499 127.344C113.02 126.417 112.78 125.32 112.78 124.055C112.78 122.82 113.02 121.737 113.499 120.805C113.978 119.872 114.653 119.146 115.522 118.625C116.397 118.104 117.424 117.844 118.601 117.844C119.392 117.844 120.129 117.971 120.812 118.227C121.499 118.477 122.098 118.854 122.608 119.359C123.124 119.865 123.525 120.5 123.812 121.266C124.098 122.026 124.241 122.917 124.241 123.937V124.852H114.108V122.789H121.108C121.108 122.31 121.004 121.885 120.796 121.516C120.588 121.146 120.299 120.857 119.929 120.648C119.564 120.435 119.14 120.328 118.655 120.328C118.15 120.328 117.702 120.445 117.312 120.68C116.926 120.909 116.624 121.219 116.405 121.609C116.187 121.995 116.075 122.424 116.069 122.898V124.859C116.069 125.453 116.179 125.966 116.397 126.398C116.621 126.831 116.937 127.164 117.343 127.398C117.749 127.633 118.231 127.75 118.788 127.75C119.158 127.75 119.496 127.698 119.804 127.594C120.111 127.49 120.374 127.333 120.593 127.125C120.812 126.917 120.978 126.661 121.093 126.359L124.171 126.562C124.015 127.302 123.694 127.948 123.21 128.5C122.731 129.047 122.111 129.474 121.351 129.781C120.595 130.083 119.723 130.234 118.733 130.234ZM129.741 123.063V130H126.413V118H129.585V120.117H129.726C129.991 119.419 130.437 118.867 131.062 118.461C131.687 118.049 132.444 117.844 133.335 117.844C134.168 117.844 134.895 118.026 135.515 118.391C136.134 118.755 136.616 119.276 136.96 119.953C137.304 120.625 137.476 121.427 137.476 122.359V130H134.147V122.953C134.153 122.219 133.965 121.646 133.585 121.234C133.205 120.818 132.681 120.609 132.015 120.609C131.567 120.609 131.171 120.706 130.827 120.898C130.489 121.091 130.223 121.372 130.03 121.742C129.843 122.107 129.746 122.547 129.741 123.063ZM146.481 118V120.5H139.255V118H146.481ZM140.896 115.125H144.224V126.312C144.224 126.62 144.271 126.859 144.364 127.031C144.458 127.198 144.588 127.315 144.755 127.383C144.927 127.451 145.125 127.484 145.349 127.484C145.505 127.484 145.661 127.471 145.817 127.445C145.974 127.414 146.093 127.391 146.177 127.375L146.7 129.852C146.534 129.904 146.299 129.964 145.997 130.031C145.695 130.104 145.328 130.148 144.896 130.164C144.093 130.195 143.39 130.089 142.786 129.844C142.187 129.599 141.721 129.219 141.388 128.703C141.054 128.187 140.89 127.536 140.896 126.75V115.125ZM148.649 130V118H151.978V130H148.649ZM150.321 116.453C149.826 116.453 149.402 116.289 149.048 115.961C148.699 115.628 148.524 115.229 148.524 114.766C148.524 114.307 148.699 113.914 149.048 113.586C149.402 113.253 149.826 113.086 150.321 113.086C150.816 113.086 151.238 113.253 151.587 113.586C151.941 113.914 152.118 114.307 152.118 114.766C152.118 115.229 151.941 115.628 151.587 115.961C151.238 116.289 150.816 116.453 150.321 116.453ZM158.065 130.227C157.3 130.227 156.618 130.094 156.019 129.828C155.42 129.557 154.946 129.159 154.597 128.633C154.253 128.102 154.081 127.44 154.081 126.648C154.081 125.982 154.203 125.422 154.448 124.969C154.693 124.516 155.026 124.151 155.448 123.875C155.87 123.599 156.349 123.391 156.886 123.25C157.427 123.109 157.995 123.01 158.589 122.953C159.287 122.88 159.849 122.812 160.276 122.75C160.703 122.682 161.013 122.583 161.206 122.453C161.399 122.323 161.495 122.13 161.495 121.875V121.828C161.495 121.333 161.339 120.951 161.026 120.68C160.719 120.409 160.282 120.273 159.714 120.273C159.115 120.273 158.638 120.406 158.284 120.672C157.93 120.932 157.696 121.26 157.581 121.656L154.503 121.406C154.659 120.677 154.966 120.047 155.425 119.516C155.883 118.979 156.474 118.568 157.198 118.281C157.927 117.99 158.771 117.844 159.729 117.844C160.396 117.844 161.034 117.922 161.644 118.078C162.258 118.234 162.802 118.477 163.276 118.805C163.756 119.133 164.133 119.555 164.409 120.07C164.685 120.581 164.823 121.193 164.823 121.906V130H161.667V128.336H161.573C161.381 128.711 161.123 129.042 160.8 129.328C160.477 129.609 160.089 129.831 159.636 129.992C159.183 130.148 158.659 130.227 158.065 130.227ZM159.019 127.93C159.508 127.93 159.94 127.833 160.315 127.641C160.69 127.443 160.985 127.177 161.198 126.844C161.412 126.51 161.519 126.133 161.519 125.711V124.438C161.414 124.505 161.271 124.568 161.089 124.625C160.912 124.677 160.711 124.727 160.487 124.773C160.263 124.815 160.039 124.854 159.815 124.891C159.591 124.922 159.388 124.951 159.206 124.977C158.815 125.034 158.474 125.125 158.183 125.25C157.891 125.375 157.664 125.544 157.503 125.758C157.341 125.966 157.261 126.227 157.261 126.539C157.261 126.992 157.425 127.339 157.753 127.578C158.086 127.812 158.508 127.93 159.019 127.93ZM170.733 114V130H167.405V114H170.733ZM189.163 119.172C189.054 118.792 188.9 118.456 188.702 118.164C188.504 117.867 188.262 117.617 187.976 117.414C187.694 117.206 187.371 117.047 187.007 116.938C186.647 116.828 186.249 116.773 185.812 116.773C184.994 116.773 184.275 116.977 183.655 117.383C183.041 117.789 182.562 118.38 182.218 119.156C181.874 119.927 181.702 120.87 181.702 121.984C181.702 123.099 181.871 124.047 182.21 124.828C182.549 125.609 183.028 126.206 183.647 126.617C184.267 127.023 184.999 127.227 185.843 127.227C186.608 127.227 187.262 127.091 187.804 126.82C188.351 126.544 188.767 126.156 189.054 125.656C189.345 125.156 189.491 124.565 189.491 123.883L190.179 123.984H186.054V121.437H192.749V123.453C192.749 124.859 192.452 126.068 191.858 127.078C191.265 128.083 190.447 128.859 189.405 129.406C188.364 129.948 187.171 130.219 185.827 130.219C184.327 130.219 183.009 129.888 181.874 129.227C180.739 128.56 179.853 127.615 179.218 126.391C178.588 125.161 178.272 123.703 178.272 122.016C178.272 120.719 178.46 119.562 178.835 118.547C179.215 117.526 179.746 116.661 180.429 115.953C181.111 115.245 181.905 114.706 182.812 114.336C183.718 113.966 184.7 113.781 185.757 113.781C186.663 113.781 187.507 113.914 188.288 114.18C189.069 114.44 189.762 114.81 190.366 115.289C190.976 115.768 191.473 116.339 191.858 117C192.244 117.656 192.491 118.38 192.601 119.172H189.163ZM195.979 130V118H199.308V130H195.979ZM197.651 116.453C197.157 116.453 196.732 116.289 196.378 115.961C196.029 115.628 195.854 115.229 195.854 114.766C195.854 114.307 196.029 113.914 196.378 113.586C196.732 113.253 197.157 113.086 197.651 113.086C198.146 113.086 198.568 113.253 198.917 113.586C199.271 113.914 199.448 114.307 199.448 114.766C199.448 115.229 199.271 115.628 198.917 115.961C198.568 116.289 198.146 116.453 197.651 116.453ZM208.356 118V120.5H201.13V118H208.356ZM202.771 115.125H206.099V126.312C206.099 126.62 206.146 126.859 206.239 127.031C206.333 127.198 206.463 127.315 206.63 127.383C206.802 127.451 207 127.484 207.224 127.484C207.38 127.484 207.536 127.471 207.692 127.445C207.849 127.414 207.968 127.391 208.052 127.375L208.575 129.852C208.409 129.904 208.174 129.964 207.872 130.031C207.57 130.104 207.203 130.148 206.771 130.164C205.968 130.195 205.265 130.089 204.661 129.844C204.062 129.599 203.596 129.219 203.263 128.703C202.929 128.187 202.765 127.536 202.771 126.75V115.125ZM229.796 119.602H226.374C226.312 119.159 226.184 118.766 225.991 118.422C225.799 118.073 225.551 117.776 225.249 117.531C224.947 117.286 224.598 117.099 224.202 116.969C223.812 116.839 223.387 116.773 222.929 116.773C222.101 116.773 221.379 116.979 220.765 117.391C220.15 117.797 219.674 118.391 219.335 119.172C218.996 119.948 218.827 120.891 218.827 122C218.827 123.141 218.996 124.099 219.335 124.875C219.679 125.651 220.158 126.237 220.772 126.633C221.387 127.029 222.098 127.227 222.905 127.227C223.358 127.227 223.778 127.167 224.163 127.047C224.554 126.927 224.9 126.753 225.202 126.523C225.504 126.289 225.754 126.005 225.952 125.672C226.155 125.339 226.296 124.958 226.374 124.531L229.796 124.547C229.707 125.281 229.486 125.99 229.132 126.672C228.783 127.349 228.312 127.956 227.718 128.492C227.129 129.023 226.426 129.445 225.608 129.758C224.796 130.065 223.877 130.219 222.851 130.219C221.424 130.219 220.147 129.896 219.022 129.25C217.903 128.604 217.017 127.669 216.366 126.445C215.72 125.221 215.397 123.74 215.397 122C215.397 120.255 215.726 118.771 216.382 117.547C217.038 116.323 217.929 115.391 219.054 114.75C220.179 114.104 221.444 113.781 222.851 113.781C223.778 113.781 224.637 113.911 225.429 114.172C226.226 114.432 226.931 114.812 227.546 115.312C228.16 115.807 228.66 116.414 229.046 117.133C229.437 117.852 229.687 118.674 229.796 119.602ZM237.581 130.234C236.368 130.234 235.318 129.977 234.433 129.461C233.552 128.94 232.873 128.216 232.394 127.289C231.914 126.357 231.675 125.276 231.675 124.047C231.675 122.807 231.914 121.724 232.394 120.797C232.873 119.865 233.552 119.141 234.433 118.625C235.318 118.104 236.368 117.844 237.581 117.844C238.795 117.844 239.841 118.104 240.722 118.625C241.607 119.141 242.289 119.865 242.769 120.797C243.248 121.724 243.487 122.807 243.487 124.047C243.487 125.276 243.248 126.357 242.769 127.289C242.289 128.216 241.607 128.94 240.722 129.461C239.841 129.977 238.795 130.234 237.581 130.234ZM237.597 127.656C238.149 127.656 238.61 127.5 238.979 127.188C239.349 126.87 239.628 126.437 239.815 125.891C240.008 125.344 240.104 124.721 240.104 124.023C240.104 123.326 240.008 122.703 239.815 122.156C239.628 121.609 239.349 121.177 238.979 120.859C238.61 120.542 238.149 120.383 237.597 120.383C237.039 120.383 236.571 120.542 236.19 120.859C235.815 121.177 235.532 121.609 235.339 122.156C235.151 122.703 235.058 123.326 235.058 124.023C235.058 124.721 235.151 125.344 235.339 125.891C235.532 126.437 235.815 126.87 236.19 127.188C236.571 127.5 237.039 127.656 237.597 127.656ZM245.651 130V118H248.823V120.117H248.964C249.214 119.414 249.631 118.859 250.214 118.453C250.797 118.047 251.495 117.844 252.308 117.844C253.131 117.844 253.831 118.049 254.409 118.461C254.987 118.867 255.373 119.419 255.565 120.117H255.69C255.935 119.43 256.378 118.88 257.019 118.469C257.664 118.052 258.427 117.844 259.308 117.844C260.427 117.844 261.336 118.201 262.034 118.914C262.737 119.622 263.089 120.628 263.089 121.93V130H259.769V122.586C259.769 121.919 259.591 121.419 259.237 121.086C258.883 120.753 258.44 120.586 257.909 120.586C257.305 120.586 256.834 120.779 256.495 121.164C256.157 121.544 255.987 122.047 255.987 122.672V130H252.761V122.516C252.761 121.927 252.591 121.458 252.253 121.109C251.92 120.76 251.479 120.586 250.933 120.586C250.563 120.586 250.229 120.68 249.933 120.867C249.641 121.049 249.409 121.307 249.237 121.641C249.065 121.969 248.979 122.354 248.979 122.797V130H245.651ZM265.718 130V118H268.89V120.117H269.03C269.28 119.414 269.697 118.859 270.28 118.453C270.864 118.047 271.562 117.844 272.374 117.844C273.197 117.844 273.897 118.049 274.476 118.461C275.054 118.867 275.439 119.419 275.632 120.117H275.757C276.002 119.43 276.444 118.88 277.085 118.469C277.731 118.052 278.494 117.844 279.374 117.844C280.494 117.844 281.403 118.201 282.101 118.914C282.804 119.622 283.155 120.628 283.155 121.93V130H279.835V122.586C279.835 121.919 279.658 121.419 279.304 121.086C278.95 120.753 278.507 120.586 277.976 120.586C277.371 120.586 276.9 120.779 276.562 121.164C276.223 121.544 276.054 122.047 276.054 122.672V130H272.827V122.516C272.827 121.927 272.658 121.458 272.319 121.109C271.986 120.76 271.546 120.586 270.999 120.586C270.629 120.586 270.296 120.68 269.999 120.867C269.707 121.049 269.476 121.307 269.304 121.641C269.132 121.969 269.046 122.354 269.046 122.797V130H265.718ZM289.206 130.227C288.44 130.227 287.758 130.094 287.159 129.828C286.56 129.557 286.086 129.159 285.737 128.633C285.394 128.102 285.222 127.44 285.222 126.648C285.222 125.982 285.344 125.422 285.589 124.969C285.834 124.516 286.167 124.151 286.589 123.875C287.011 123.599 287.49 123.391 288.026 123.25C288.568 123.109 289.136 123.01 289.729 122.953C290.427 122.88 290.99 122.812 291.417 122.75C291.844 122.682 292.154 122.583 292.347 122.453C292.539 122.323 292.636 122.13 292.636 121.875V121.828C292.636 121.333 292.479 120.951 292.167 120.68C291.86 120.409 291.422 120.273 290.854 120.273C290.256 120.273 289.779 120.406 289.425 120.672C289.071 120.932 288.836 121.26 288.722 121.656L285.644 121.406C285.8 120.677 286.107 120.047 286.565 119.516C287.024 118.979 287.615 118.568 288.339 118.281C289.068 117.99 289.912 117.844 290.87 117.844C291.537 117.844 292.175 117.922 292.784 118.078C293.399 118.234 293.943 118.477 294.417 118.805C294.896 119.133 295.274 119.555 295.55 120.07C295.826 120.581 295.964 121.193 295.964 121.906V130H292.808V128.336H292.714C292.521 128.711 292.263 129.042 291.94 129.328C291.618 129.609 291.229 129.831 290.776 129.992C290.323 130.148 289.8 130.227 289.206 130.227ZM290.159 127.93C290.649 127.93 291.081 127.833 291.456 127.641C291.831 127.443 292.125 127.177 292.339 126.844C292.552 126.51 292.659 126.133 292.659 125.711V124.438C292.555 124.505 292.412 124.568 292.229 124.625C292.052 124.677 291.852 124.727 291.628 124.773C291.404 124.815 291.18 124.854 290.956 124.891C290.732 124.922 290.529 124.951 290.347 124.977C289.956 125.034 289.615 125.125 289.323 125.25C289.032 125.375 288.805 125.544 288.644 125.758C288.482 125.966 288.401 126.227 288.401 126.539C288.401 126.992 288.565 127.339 288.894 127.578C289.227 127.812 289.649 127.93 290.159 127.93ZM301.874 123.063V130H298.546V118H301.718V120.117H301.858C302.124 119.419 302.569 118.867 303.194 118.461C303.819 118.049 304.577 117.844 305.468 117.844C306.301 117.844 307.028 118.026 307.647 118.391C308.267 118.755 308.749 119.276 309.093 119.953C309.437 120.625 309.608 121.427 309.608 122.359V130H306.28V122.953C306.285 122.219 306.098 121.646 305.718 121.234C305.338 120.818 304.814 120.609 304.147 120.609C303.7 120.609 303.304 120.706 302.96 120.898C302.621 121.091 302.356 121.372 302.163 121.742C301.976 122.107 301.879 122.547 301.874 123.063ZM316.653 130.195C315.742 130.195 314.916 129.961 314.177 129.492C313.442 129.018 312.859 128.323 312.427 127.406C312 126.484 311.786 125.354 311.786 124.016C311.786 122.641 312.007 121.497 312.45 120.586C312.893 119.669 313.481 118.984 314.216 118.531C314.955 118.073 315.765 117.844 316.646 117.844C317.317 117.844 317.877 117.958 318.325 118.188C318.778 118.411 319.143 118.693 319.419 119.031C319.7 119.365 319.914 119.693 320.06 120.016H320.161V114H323.481V130H320.2V128.078H320.06C319.903 128.411 319.682 128.742 319.396 129.07C319.114 129.393 318.747 129.661 318.294 129.875C317.846 130.089 317.299 130.195 316.653 130.195ZM317.708 127.547C318.244 127.547 318.698 127.401 319.067 127.109C319.442 126.812 319.729 126.398 319.927 125.867C320.13 125.336 320.231 124.714 320.231 124C320.231 123.286 320.132 122.667 319.935 122.141C319.737 121.615 319.45 121.208 319.075 120.922C318.7 120.635 318.244 120.492 317.708 120.492C317.161 120.492 316.7 120.641 316.325 120.937C315.95 121.234 315.666 121.646 315.474 122.172C315.281 122.698 315.185 123.307 315.185 124C315.185 124.698 315.281 125.315 315.474 125.852C315.672 126.383 315.955 126.799 316.325 127.102C316.7 127.398 317.161 127.547 317.708 127.547ZM336.202 121.422L333.155 121.609C333.103 121.349 332.991 121.115 332.819 120.906C332.647 120.693 332.421 120.523 332.14 120.398C331.864 120.268 331.533 120.203 331.147 120.203C330.632 120.203 330.197 120.312 329.843 120.531C329.489 120.745 329.312 121.031 329.312 121.391C329.312 121.677 329.426 121.919 329.655 122.117C329.884 122.315 330.278 122.474 330.835 122.594L333.007 123.031C334.174 123.271 335.043 123.656 335.616 124.187C336.189 124.719 336.476 125.417 336.476 126.281C336.476 127.068 336.244 127.758 335.78 128.352C335.322 128.945 334.692 129.409 333.89 129.742C333.093 130.07 332.174 130.234 331.132 130.234C329.543 130.234 328.278 129.904 327.335 129.242C326.397 128.576 325.848 127.669 325.687 126.523L328.96 126.352C329.059 126.836 329.299 127.206 329.679 127.461C330.059 127.711 330.546 127.836 331.14 127.836C331.723 127.836 332.192 127.724 332.546 127.5C332.905 127.271 333.088 126.977 333.093 126.617C333.088 126.315 332.96 126.068 332.71 125.875C332.46 125.677 332.075 125.526 331.554 125.422L329.476 125.008C328.304 124.773 327.431 124.367 326.858 123.789C326.291 123.211 326.007 122.474 326.007 121.578C326.007 120.807 326.215 120.143 326.632 119.586C327.054 119.029 327.645 118.599 328.405 118.297C329.171 117.995 330.067 117.844 331.093 117.844C332.608 117.844 333.801 118.164 334.671 118.805C335.546 119.445 336.056 120.318 336.202 121.422Z" fill="white"/>
<path d="M71.6382 144.818H73.1098L76.57 153.27H76.6894L80.1496 144.818H81.6212V155H80.4678V147.264H80.3683L77.1865 155H76.0729L72.8911 147.264H72.7916V155H71.6382V144.818ZM86.1814 155.179C85.6975 155.179 85.2583 155.088 84.8639 154.906C84.4695 154.72 84.1563 154.453 83.9243 154.105C83.6923 153.754 83.5763 153.33 83.5763 152.832C83.5763 152.395 83.6624 152.04 83.8348 151.768C84.0071 151.493 84.2375 151.278 84.5258 151.122C84.8142 150.966 85.1324 150.85 85.4804 150.774C85.8317 150.695 86.1847 150.632 86.5393 150.585C87.0033 150.526 87.3795 150.481 87.6679 150.451C87.9595 150.418 88.1717 150.363 88.3042 150.287C88.4401 150.211 88.5081 150.078 88.5081 149.889V149.849C88.5081 149.359 88.3738 148.978 88.1054 148.706C87.8402 148.434 87.4375 148.298 86.8973 148.298C86.3372 148.298 85.898 148.421 85.5798 148.666C85.2616 148.911 85.0379 149.173 84.9086 149.452L83.795 149.054C83.9939 148.59 84.259 148.229 84.5905 147.97C84.9252 147.708 85.2898 147.526 85.6842 147.423C86.0819 147.317 86.473 147.264 86.8575 147.264C87.1028 147.264 87.3845 147.294 87.7027 147.354C88.0242 147.41 88.3341 147.528 88.6324 147.707C88.934 147.886 89.1842 148.156 89.3831 148.517C89.5819 148.878 89.6814 149.362 89.6814 149.969V155H88.5081V153.966H88.4484C88.3689 154.132 88.2363 154.309 88.0507 154.498C87.8651 154.687 87.6182 154.848 87.3099 154.98C87.0017 155.113 86.6255 155.179 86.1814 155.179ZM86.3604 154.125C86.8244 154.125 87.2155 154.034 87.5336 153.852C87.8551 153.669 88.0971 153.434 88.2595 153.146C88.4252 152.857 88.5081 152.554 88.5081 152.236V151.162C88.4584 151.222 88.349 151.276 88.18 151.326C88.0142 151.372 87.822 151.414 87.6032 151.45C87.3878 151.483 87.1773 151.513 86.9719 151.54C86.7697 151.563 86.6056 151.583 86.4797 151.599C86.1747 151.639 85.8897 151.704 85.6246 151.793C85.3627 151.879 85.1506 152.01 84.9882 152.186C84.8291 152.358 84.7496 152.594 84.7496 152.892C84.7496 153.3 84.9004 153.608 85.202 153.817C85.5069 154.022 85.893 154.125 86.3604 154.125ZM97.232 149.074L96.178 149.372C96.1117 149.196 96.0139 149.026 95.8847 148.86C95.7587 148.691 95.5864 148.552 95.3676 148.442C95.1489 148.333 94.8688 148.278 94.5274 148.278C94.0601 148.278 93.6707 148.386 93.3591 148.602C93.0509 148.814 92.8968 149.084 92.8968 149.412C92.8968 149.704 93.0028 149.934 93.2149 150.103C93.4271 150.272 93.7585 150.413 94.2093 150.526L95.3428 150.804C96.0255 150.97 96.5343 151.223 96.8691 151.565C97.2038 151.903 97.3712 152.339 97.3712 152.872C97.3712 153.31 97.2452 153.701 96.9933 154.045C96.7448 154.39 96.3968 154.662 95.9493 154.861C95.5019 155.06 94.9815 155.159 94.3882 155.159C93.6093 155.159 92.9647 154.99 92.4543 154.652C91.9439 154.314 91.6207 153.82 91.4848 153.17L92.5985 152.892C92.7045 153.303 92.905 153.611 93.2 153.817C93.4983 154.022 93.8878 154.125 94.3683 154.125C94.9152 154.125 95.3494 154.009 95.6709 153.777C95.9957 153.542 96.1581 153.26 96.1581 152.932C96.1581 152.667 96.0653 152.445 95.8797 152.266C95.6941 152.083 95.4091 151.947 95.0246 151.858L93.7519 151.56C93.0525 151.394 92.5388 151.137 92.2107 150.789C91.8859 150.438 91.7235 149.999 91.7235 149.472C91.7235 149.041 91.8444 148.66 92.0864 148.328C92.3316 147.997 92.6647 147.737 93.0857 147.548C93.5099 147.359 93.9905 147.264 94.5274 147.264C95.2831 147.264 95.8764 147.43 96.3073 147.761C96.7414 148.093 97.0497 148.53 97.232 149.074ZM102.458 147.364V148.358H98.501V147.364H102.458ZM99.6544 145.534H100.828V152.812C100.828 153.144 100.876 153.393 100.972 153.558C101.071 153.721 101.197 153.83 101.35 153.886C101.505 153.939 101.67 153.966 101.842 153.966C101.971 153.966 102.077 153.959 102.16 153.946C102.243 153.929 102.309 153.916 102.359 153.906L102.598 154.96C102.518 154.99 102.407 155.02 102.264 155.05C102.122 155.083 101.941 155.099 101.723 155.099C101.391 155.099 101.066 155.028 100.748 154.886C100.433 154.743 100.171 154.526 99.9626 154.234C99.7571 153.943 99.6544 153.575 99.6544 153.131V145.534ZM107.343 155.159C106.607 155.159 105.972 154.997 105.439 154.672C104.909 154.344 104.499 153.886 104.211 153.3C103.926 152.71 103.783 152.024 103.783 151.241C103.783 150.459 103.926 149.77 104.211 149.173C104.499 148.573 104.9 148.106 105.414 147.771C105.931 147.433 106.534 147.264 107.224 147.264C107.621 147.264 108.014 147.33 108.402 147.463C108.79 147.596 109.143 147.811 109.461 148.109C109.779 148.404 110.033 148.795 110.222 149.283C110.41 149.77 110.505 150.37 110.505 151.082V151.58H104.619V150.565H109.312C109.312 150.134 109.226 149.75 109.053 149.412C108.884 149.074 108.642 148.807 108.327 148.612C108.016 148.416 107.648 148.318 107.224 148.318C106.756 148.318 106.352 148.434 106.011 148.666C105.672 148.895 105.412 149.193 105.23 149.561C105.048 149.929 104.957 150.323 104.957 150.744V151.42C104.957 151.997 105.056 152.486 105.255 152.887C105.457 153.285 105.737 153.588 106.095 153.797C106.453 154.002 106.869 154.105 107.343 154.105C107.651 154.105 107.93 154.062 108.178 153.976C108.43 153.886 108.647 153.754 108.829 153.578C109.012 153.399 109.153 153.177 109.252 152.912L110.386 153.23C110.266 153.615 110.066 153.953 109.784 154.244C109.502 154.533 109.154 154.758 108.74 154.92C108.326 155.08 107.86 155.159 107.343 155.159ZM112.29 155V147.364H113.423V148.517H113.503C113.642 148.139 113.894 147.833 114.258 147.597C114.623 147.362 115.034 147.244 115.491 147.244C115.578 147.244 115.685 147.246 115.815 147.249C115.944 147.253 116.042 147.258 116.108 147.264V148.457C116.068 148.447 115.977 148.433 115.834 148.413C115.695 148.389 115.548 148.378 115.392 148.378C115.021 148.378 114.689 148.456 114.398 148.612C114.109 148.764 113.881 148.976 113.712 149.248C113.546 149.516 113.463 149.823 113.463 150.168V155H112.29ZM121.595 155V144.818H127.7V145.912H122.828V149.352H127.243V150.446H122.828V155H121.595ZM129.571 155V147.364H130.704V148.517H130.784C130.923 148.139 131.175 147.833 131.54 147.597C131.904 147.362 132.315 147.244 132.773 147.244C132.859 147.244 132.967 147.246 133.096 147.249C133.225 147.253 133.323 147.258 133.389 147.264V148.457C133.349 148.447 133.258 148.433 133.116 148.413C132.976 148.389 132.829 148.378 132.673 148.378C132.302 148.378 131.971 148.456 131.679 148.612C131.391 148.764 131.162 148.976 130.993 149.248C130.827 149.516 130.744 149.823 130.744 150.168V155H129.571ZM137.65 155.159C136.96 155.159 136.355 154.995 135.835 154.667C135.318 154.339 134.914 153.88 134.622 153.29C134.334 152.7 134.19 152.01 134.19 151.222C134.19 150.426 134.334 149.732 134.622 149.138C134.914 148.545 135.318 148.085 135.835 147.756C136.355 147.428 136.96 147.264 137.65 147.264C138.339 147.264 138.942 147.428 139.459 147.756C139.98 148.085 140.384 148.545 140.672 149.138C140.964 149.732 141.11 150.426 141.11 151.222C141.11 152.01 140.964 152.7 140.672 153.29C140.384 153.88 139.98 154.339 139.459 154.667C138.942 154.995 138.339 155.159 137.65 155.159ZM137.65 154.105C138.173 154.105 138.604 153.971 138.942 153.702C139.28 153.434 139.531 153.081 139.693 152.643C139.855 152.206 139.937 151.732 139.937 151.222C139.937 150.711 139.855 150.236 139.693 149.795C139.531 149.354 139.28 148.998 138.942 148.726C138.604 148.454 138.173 148.318 137.65 148.318C137.126 148.318 136.695 148.454 136.357 148.726C136.019 148.998 135.769 149.354 135.606 149.795C135.444 150.236 135.363 150.711 135.363 151.222C135.363 151.732 135.444 152.206 135.606 152.643C135.769 153.081 136.019 153.434 136.357 153.702C136.695 153.971 137.126 154.105 137.65 154.105ZM144.074 150.406V155H142.901V147.364H144.035V148.557H144.134C144.313 148.169 144.585 147.857 144.949 147.622C145.314 147.384 145.785 147.264 146.361 147.264C146.878 147.264 147.331 147.37 147.718 147.582C148.106 147.791 148.408 148.109 148.623 148.537C148.839 148.961 148.946 149.498 148.946 150.148V155H147.773V150.227C147.773 149.627 147.617 149.16 147.306 148.825C146.994 148.487 146.567 148.318 146.023 148.318C145.649 148.318 145.314 148.399 145.019 148.562C144.727 148.724 144.497 148.961 144.328 149.273C144.159 149.584 144.074 149.962 144.074 150.406ZM154.411 147.364V148.358H150.454V147.364H154.411ZM151.608 145.534H152.781V152.812C152.781 153.144 152.829 153.393 152.925 153.558C153.024 153.721 153.15 153.83 153.303 153.886C153.459 153.939 153.623 153.966 153.795 153.966C153.924 153.966 154.03 153.959 154.113 153.946C154.196 153.929 154.262 153.916 154.312 153.906L154.551 154.96C154.471 154.99 154.36 155.02 154.218 155.05C154.075 155.083 153.894 155.099 153.676 155.099C153.344 155.099 153.019 155.028 152.701 154.886C152.386 154.743 152.125 154.526 151.916 154.234C151.71 153.943 151.608 153.575 151.608 153.131V145.534ZM159.296 155.159C158.56 155.159 157.926 154.997 157.392 154.672C156.862 154.344 156.452 153.886 156.164 153.3C155.879 152.71 155.736 152.024 155.736 151.241C155.736 150.459 155.879 149.77 156.164 149.173C156.452 148.573 156.853 148.106 157.367 147.771C157.884 147.433 158.487 147.264 159.177 147.264C159.574 147.264 159.967 147.33 160.355 147.463C160.743 147.596 161.096 147.811 161.414 148.109C161.732 148.404 161.986 148.795 162.175 149.283C162.364 149.77 162.458 150.37 162.458 151.082V151.58H156.572V150.565H161.265C161.265 150.134 161.179 149.75 161.006 149.412C160.837 149.074 160.595 148.807 160.28 148.612C159.969 148.416 159.601 148.318 159.177 148.318C158.709 148.318 158.305 148.434 157.964 148.666C157.626 148.895 157.365 149.193 157.183 149.561C157.001 149.929 156.91 150.323 156.91 150.744V151.42C156.91 151.997 157.009 152.486 157.208 152.887C157.41 153.285 157.69 153.588 158.048 153.797C158.406 154.002 158.822 154.105 159.296 154.105C159.604 154.105 159.883 154.062 160.131 153.976C160.383 153.886 160.6 153.754 160.783 153.578C160.965 153.399 161.106 153.177 161.205 152.912L162.339 153.23C162.219 153.615 162.019 153.953 161.737 154.244C161.455 154.533 161.107 154.758 160.693 154.92C160.279 155.08 159.813 155.159 159.296 155.159ZM165.416 150.406V155H164.243V147.364H165.376V148.557H165.476C165.655 148.169 165.927 147.857 166.291 147.622C166.656 147.384 167.126 147.264 167.703 147.264C168.22 147.264 168.672 147.37 169.06 147.582C169.448 147.791 169.75 148.109 169.965 148.537C170.181 148.961 170.288 149.498 170.288 150.148V155H169.115V150.227C169.115 149.627 168.959 149.16 168.648 148.825C168.336 148.487 167.909 148.318 167.365 148.318C166.99 148.318 166.656 148.399 166.361 148.562C166.069 148.724 165.839 148.961 165.67 149.273C165.501 149.584 165.416 149.962 165.416 150.406ZM175.316 155.159C174.679 155.159 174.118 154.998 173.63 154.677C173.143 154.352 172.762 153.895 172.487 153.305C172.212 152.711 172.074 152.01 172.074 151.202C172.074 150.4 172.212 149.704 172.487 149.114C172.762 148.524 173.145 148.068 173.635 147.746C174.126 147.425 174.693 147.264 175.336 147.264C175.833 147.264 176.226 147.347 176.514 147.513C176.806 147.675 177.028 147.861 177.18 148.07C177.336 148.275 177.457 148.444 177.543 148.577H177.642V144.818H178.816V155H177.682V153.827H177.543C177.457 153.966 177.334 154.142 177.175 154.354C177.016 154.562 176.789 154.75 176.494 154.915C176.199 155.078 175.806 155.159 175.316 155.159ZM175.475 154.105C175.946 154.105 176.343 153.982 176.668 153.737C176.993 153.489 177.24 153.146 177.409 152.708C177.578 152.267 177.662 151.759 177.662 151.182C177.662 150.612 177.58 150.113 177.414 149.685C177.248 149.254 177.003 148.92 176.678 148.681C176.353 148.439 175.952 148.318 175.475 148.318C174.978 148.318 174.563 148.446 174.232 148.701C173.904 148.953 173.657 149.296 173.491 149.73C173.329 150.161 173.248 150.645 173.248 151.182C173.248 151.725 173.33 152.219 173.496 152.663C173.665 153.104 173.914 153.455 174.242 153.717C174.573 153.976 174.984 154.105 175.475 154.105ZM188.366 155H185.224V144.818H188.505C189.493 144.818 190.338 145.022 191.041 145.43C191.744 145.834 192.282 146.416 192.657 147.175C193.031 147.93 193.218 148.835 193.218 149.889C193.218 150.95 193.03 151.863 192.652 152.629C192.274 153.391 191.724 153.978 191.001 154.388C190.279 154.796 189.4 155 188.366 155ZM186.457 153.906H188.287C189.129 153.906 189.826 153.744 190.38 153.419C190.933 153.094 191.346 152.632 191.618 152.032C191.889 151.432 192.025 150.718 192.025 149.889C192.025 149.067 191.891 148.36 191.623 147.766C191.354 147.17 190.953 146.712 190.419 146.394C189.886 146.073 189.221 145.912 188.426 145.912H186.457V153.906ZM198.329 155.159C197.593 155.159 196.959 154.997 196.425 154.672C195.895 154.344 195.486 153.886 195.197 153.3C194.912 152.71 194.77 152.024 194.77 151.241C194.77 150.459 194.912 149.77 195.197 149.173C195.486 148.573 195.887 148.106 196.4 147.771C196.917 147.433 197.521 147.264 198.21 147.264C198.608 147.264 199 147.33 199.388 147.463C199.776 147.596 200.129 147.811 200.447 148.109C200.765 148.404 201.019 148.795 201.208 149.283C201.397 149.77 201.491 150.37 201.491 151.082V151.58H195.605V150.565H200.298C200.298 150.134 200.212 149.75 200.04 149.412C199.87 149.074 199.629 148.807 199.314 148.612C199.002 148.416 198.634 148.318 198.21 148.318C197.743 148.318 197.338 148.434 196.997 148.666C196.659 148.895 196.399 149.193 196.216 149.561C196.034 149.929 195.943 150.323 195.943 150.744V151.42C195.943 151.997 196.042 152.486 196.241 152.887C196.443 153.285 196.723 153.588 197.081 153.797C197.439 154.002 197.855 154.105 198.329 154.105C198.638 154.105 198.916 154.062 199.165 153.976C199.416 153.886 199.633 153.754 199.816 153.578C199.998 153.399 200.139 153.177 200.238 152.912L201.372 153.23C201.253 153.615 201.052 153.953 200.77 154.244C200.489 154.533 200.141 154.758 199.726 154.92C199.312 155.08 198.846 155.159 198.329 155.159ZM209.288 147.364L206.464 155H205.271L202.447 147.364H203.72L205.828 153.449H205.907L208.015 147.364H209.288ZM213.765 155.159C213.029 155.159 212.394 154.997 211.861 154.672C211.33 154.344 210.921 153.886 210.633 153.3C210.348 152.71 210.205 152.024 210.205 151.241C210.205 150.459 210.348 149.77 210.633 149.173C210.921 148.573 211.322 148.106 211.836 147.771C212.353 147.433 212.956 147.264 213.646 147.264C214.043 147.264 214.436 147.33 214.824 147.463C215.212 147.596 215.565 147.811 215.883 148.109C216.201 148.404 216.454 148.795 216.643 149.283C216.832 149.77 216.927 150.37 216.927 151.082V151.58H211.04V150.565H215.734C215.734 150.134 215.647 149.75 215.475 149.412C215.306 149.074 215.064 148.807 214.749 148.612C214.438 148.416 214.07 148.318 213.646 148.318C213.178 148.318 212.774 148.434 212.432 148.666C212.094 148.895 211.834 149.193 211.652 149.561C211.47 149.929 211.378 150.323 211.378 150.744V151.42C211.378 151.997 211.478 152.486 211.677 152.887C211.879 153.285 212.159 153.588 212.517 153.797C212.875 154.002 213.291 154.105 213.765 154.105C214.073 154.105 214.351 154.062 214.6 153.976C214.852 153.886 215.069 153.754 215.251 153.578C215.434 153.399 215.574 153.177 215.674 152.912L216.807 153.23C216.688 153.615 216.488 153.953 216.206 154.244C215.924 154.533 215.576 154.758 215.162 154.92C214.748 155.08 214.282 155.159 213.765 155.159ZM219.885 144.818V155H218.712V144.818H219.885ZM225.136 155.159C224.447 155.159 223.842 154.995 223.321 154.667C222.804 154.339 222.4 153.88 222.108 153.29C221.82 152.7 221.676 152.01 221.676 151.222C221.676 150.426 221.82 149.732 222.108 149.138C222.4 148.545 222.804 148.085 223.321 147.756C223.842 147.428 224.447 147.264 225.136 147.264C225.825 147.264 226.429 147.428 226.946 147.756C227.466 148.085 227.87 148.545 228.159 149.138C228.45 149.732 228.596 150.426 228.596 151.222C228.596 152.01 228.45 152.7 228.159 153.29C227.87 153.88 227.466 154.339 226.946 154.667C226.429 154.995 225.825 155.159 225.136 155.159ZM225.136 154.105C225.66 154.105 226.091 153.971 226.429 153.702C226.767 153.434 227.017 153.081 227.179 152.643C227.342 152.206 227.423 151.732 227.423 151.222C227.423 150.711 227.342 150.236 227.179 149.795C227.017 149.354 226.767 148.998 226.429 148.726C226.091 148.454 225.66 148.318 225.136 148.318C224.612 148.318 224.182 148.454 223.843 148.726C223.505 148.998 223.255 149.354 223.093 149.795C222.93 150.236 222.849 150.711 222.849 151.222C222.849 151.732 222.93 152.206 223.093 152.643C223.255 153.081 223.505 153.434 223.843 153.702C224.182 153.971 224.612 154.105 225.136 154.105ZM230.387 157.864V147.364H231.521V148.577H231.66C231.746 148.444 231.866 148.275 232.018 148.07C232.174 147.861 232.396 147.675 232.684 147.513C232.976 147.347 233.37 147.264 233.867 147.264C234.51 147.264 235.077 147.425 235.568 147.746C236.058 148.068 236.441 148.524 236.716 149.114C236.991 149.704 237.129 150.4 237.129 151.202C237.129 152.01 236.991 152.711 236.716 153.305C236.441 153.895 236.06 154.352 235.573 154.677C235.085 154.998 234.524 155.159 233.887 155.159C233.397 155.159 233.004 155.078 232.709 154.915C232.414 154.75 232.187 154.562 232.028 154.354C231.869 154.142 231.746 153.966 231.66 153.827H231.561V157.864H230.387ZM231.541 151.182C231.541 151.759 231.625 152.267 231.794 152.708C231.963 153.146 232.21 153.489 232.535 153.737C232.86 153.982 233.258 154.105 233.728 154.105C234.219 154.105 234.628 153.976 234.956 153.717C235.288 153.455 235.536 153.104 235.702 152.663C235.871 152.219 235.956 151.725 235.956 151.182C235.956 150.645 235.873 150.161 235.707 149.73C235.545 149.296 235.298 148.953 234.966 148.701C234.638 148.446 234.225 148.318 233.728 148.318C233.251 148.318 232.85 148.439 232.525 148.681C232.2 148.92 231.955 149.254 231.789 149.685C231.624 150.113 231.541 150.612 231.541 151.182ZM238.919 155V147.364H240.052V148.557H240.152C240.311 148.149 240.568 147.833 240.922 147.607C241.277 147.379 241.703 147.264 242.2 147.264C242.704 147.264 243.123 147.379 243.458 147.607C243.796 147.833 244.059 148.149 244.248 148.557H244.328C244.523 148.162 244.817 147.849 245.208 147.617C245.599 147.382 246.068 147.264 246.615 147.264C247.297 147.264 247.856 147.478 248.29 147.906C248.724 148.33 248.941 148.991 248.941 149.889V155H247.768V149.889C247.768 149.326 247.614 148.923 247.306 148.681C246.997 148.439 246.634 148.318 246.217 148.318C245.68 148.318 245.264 148.481 244.969 148.805C244.674 149.127 244.527 149.535 244.527 150.028V155H243.333V149.77C243.333 149.336 243.193 148.986 242.911 148.721C242.629 148.452 242.266 148.318 241.822 148.318C241.517 148.318 241.232 148.399 240.967 148.562C240.705 148.724 240.493 148.95 240.331 149.238C240.171 149.523 240.092 149.853 240.092 150.227V155H238.919ZM254.288 155.159C253.552 155.159 252.918 154.997 252.384 154.672C251.854 154.344 251.445 153.886 251.156 153.3C250.871 152.71 250.729 152.024 250.729 151.241C250.729 150.459 250.871 149.77 251.156 149.173C251.445 148.573 251.846 148.106 252.359 147.771C252.876 147.433 253.48 147.264 254.169 147.264C254.567 147.264 254.959 147.33 255.347 147.463C255.735 147.596 256.088 147.811 256.406 148.109C256.724 148.404 256.978 148.795 257.167 149.283C257.356 149.77 257.45 150.37 257.45 151.082V151.58H251.564V150.565H256.257C256.257 150.134 256.171 149.75 255.998 149.412C255.829 149.074 255.588 148.807 255.273 148.612C254.961 148.416 254.593 148.318 254.169 148.318C253.702 148.318 253.297 148.434 252.956 148.666C252.618 148.895 252.358 149.193 252.175 149.561C251.993 149.929 251.902 150.323 251.902 150.744V151.42C251.902 151.997 252.001 152.486 252.2 152.887C252.402 153.285 252.682 153.588 253.04 153.797C253.398 154.002 253.814 154.105 254.288 154.105C254.597 154.105 254.875 154.062 255.123 153.976C255.375 153.886 255.592 153.754 255.775 153.578C255.957 153.399 256.098 153.177 256.197 152.912L257.331 153.23C257.212 153.615 257.011 153.953 256.729 154.244C256.448 154.533 256.1 154.758 255.685 154.92C255.271 155.08 254.805 155.159 254.288 155.159ZM260.408 150.406V155H259.235V147.364H260.369V148.557H260.468C260.647 148.169 260.919 147.857 261.283 147.622C261.648 147.384 262.119 147.264 262.695 147.264C263.212 147.264 263.665 147.37 264.052 147.582C264.44 147.791 264.742 148.109 264.957 148.537C265.173 148.961 265.28 149.498 265.28 150.148V155H264.107V150.227C264.107 149.627 263.951 149.16 263.64 148.825C263.328 148.487 262.901 148.318 262.357 148.318C261.983 148.318 261.648 148.399 261.353 148.562C261.061 148.724 260.831 148.961 260.662 149.273C260.493 149.584 260.408 149.962 260.408 150.406ZM270.745 147.364V148.358H266.788V147.364H270.745ZM267.941 145.534H269.115V152.812C269.115 153.144 269.163 153.393 269.259 153.558C269.358 153.721 269.484 153.83 269.637 153.886C269.793 153.939 269.957 153.966 270.129 153.966C270.258 153.966 270.364 153.959 270.447 153.946C270.53 153.929 270.596 153.916 270.646 153.906L270.885 154.96C270.805 154.99 270.694 155.02 270.552 155.05C270.409 155.083 270.228 155.099 270.01 155.099C269.678 155.099 269.353 155.028 269.035 154.886C268.72 154.743 268.459 154.526 268.25 154.234C268.044 153.943 267.941 153.575 267.941 153.131V145.534ZM276.428 155V154.105L279.789 150.426C280.183 149.995 280.508 149.621 280.763 149.303C281.018 148.981 281.207 148.679 281.33 148.398C281.456 148.113 281.519 147.814 281.519 147.503C281.519 147.145 281.433 146.835 281.26 146.573C281.091 146.311 280.859 146.109 280.564 145.967C280.269 145.824 279.938 145.753 279.57 145.753C279.179 145.753 278.838 145.834 278.546 145.996C278.258 146.156 278.034 146.379 277.875 146.668C277.719 146.956 277.641 147.294 277.641 147.682H276.468C276.468 147.085 276.605 146.562 276.88 146.111C277.156 145.66 277.53 145.309 278.004 145.057C278.481 144.805 279.017 144.679 279.61 144.679C280.206 144.679 280.735 144.805 281.196 145.057C281.656 145.309 282.018 145.648 282.28 146.076C282.541 146.504 282.672 146.979 282.672 147.503C282.672 147.877 282.604 148.244 282.468 148.602C282.336 148.956 282.104 149.352 281.772 149.79C281.444 150.224 280.989 150.754 280.405 151.381L278.118 153.827V153.906H282.851V155H276.428ZM288.226 155.139C287.477 155.139 286.839 154.935 286.312 154.528C285.785 154.117 285.382 153.522 285.103 152.743C284.825 151.961 284.686 151.016 284.686 149.909C284.686 148.809 284.825 147.869 285.103 147.09C285.385 146.308 285.79 145.711 286.316 145.3C286.847 144.886 287.483 144.679 288.226 144.679C288.968 144.679 289.603 144.886 290.13 145.3C290.66 145.711 291.064 146.308 291.343 147.09C291.624 147.869 291.765 148.809 291.765 149.909C291.765 151.016 291.626 151.961 291.348 152.743C291.069 153.522 290.667 154.117 290.14 154.528C289.613 154.935 288.975 155.139 288.226 155.139ZM288.226 154.045C288.968 154.045 289.545 153.687 289.956 152.972C290.367 152.256 290.572 151.235 290.572 149.909C290.572 149.027 290.478 148.277 290.289 147.657C290.103 147.037 289.835 146.565 289.483 146.24C289.135 145.915 288.716 145.753 288.226 145.753C287.49 145.753 286.915 146.116 286.5 146.842C286.086 147.564 285.879 148.587 285.879 149.909C285.879 150.791 285.972 151.54 286.157 152.156C286.343 152.773 286.61 153.242 286.958 153.563C287.309 153.885 287.732 154.045 288.226 154.045ZM293.655 155V154.105L297.015 150.426C297.41 149.995 297.735 149.621 297.99 149.303C298.245 148.981 298.434 148.679 298.557 148.398C298.682 148.113 298.745 147.814 298.745 147.503C298.745 147.145 298.659 146.835 298.487 146.573C298.318 146.311 298.086 146.109 297.791 145.967C297.496 145.824 297.165 145.753 296.797 145.753C296.406 145.753 296.064 145.834 295.772 145.996C295.484 146.156 295.26 146.379 295.101 146.668C294.946 146.956 294.868 147.294 294.868 147.682H293.694C293.694 147.085 293.832 146.562 294.107 146.111C294.382 145.66 294.757 145.309 295.231 145.057C295.708 144.805 296.243 144.679 296.836 144.679C297.433 144.679 297.962 144.805 298.422 145.057C298.883 145.309 299.244 145.648 299.506 146.076C299.768 146.504 299.899 146.979 299.899 147.503C299.899 147.877 299.831 148.244 299.695 148.602C299.562 148.956 299.33 149.352 298.999 149.79C298.671 150.224 298.215 150.754 297.632 151.381L295.345 153.827V153.906H300.078V155H293.655ZM305.313 155.139C304.73 155.139 304.204 155.023 303.737 154.791C303.27 154.559 302.895 154.241 302.613 153.837C302.332 153.432 302.178 152.972 302.151 152.455H303.344C303.391 152.915 303.599 153.296 303.971 153.598C304.345 153.896 304.793 154.045 305.313 154.045C305.731 154.045 306.102 153.948 306.427 153.752C306.755 153.557 307.012 153.288 307.197 152.947C307.386 152.602 307.481 152.213 307.481 151.778C307.481 151.334 307.383 150.938 307.187 150.59C306.995 150.239 306.73 149.962 306.392 149.76C306.054 149.558 305.668 149.455 305.233 149.452C304.922 149.448 304.602 149.496 304.274 149.596C303.946 149.692 303.676 149.816 303.464 149.969L302.31 149.83L302.927 144.818H308.216V145.912H303.961L303.603 148.915H303.662C303.871 148.749 304.133 148.612 304.448 148.502C304.763 148.393 305.091 148.338 305.432 148.338C306.055 148.338 306.611 148.487 307.098 148.786C307.588 149.08 307.973 149.485 308.251 149.999C308.533 150.512 308.674 151.099 308.674 151.759C308.674 152.408 308.528 152.988 308.236 153.499C307.948 154.006 307.55 154.407 307.043 154.702C306.536 154.993 305.959 155.139 305.313 155.139Z" fill="white" fill-opacity="0.9"/>
<path d="M152.344 180V171.273H155.395C156.003 171.273 156.504 171.378 156.899 171.588C157.294 171.795 157.588 172.075 157.781 172.428C157.975 172.777 158.071 173.165 158.071 173.591C158.071 173.966 158.004 174.276 157.871 174.52C157.74 174.764 157.567 174.957 157.351 175.099C157.138 175.241 156.906 175.347 156.656 175.415V175.5C156.923 175.517 157.192 175.611 157.462 175.781C157.732 175.952 157.958 176.196 158.139 176.514C158.321 176.832 158.412 177.222 158.412 177.682C158.412 178.119 158.313 178.513 158.114 178.862C157.915 179.212 157.601 179.489 157.172 179.693C156.743 179.898 156.185 180 155.497 180H152.344ZM153.401 179.062H155.497C156.188 179.062 156.678 178.929 156.968 178.662C157.26 178.392 157.406 178.065 157.406 177.682C157.406 177.386 157.331 177.114 157.181 176.864C157.03 176.611 156.816 176.409 156.537 176.259C156.259 176.105 155.929 176.028 155.548 176.028H153.401V179.062ZM153.401 175.108H155.361C155.679 175.108 155.966 175.045 156.222 174.92C156.48 174.795 156.685 174.619 156.835 174.392C156.989 174.165 157.066 173.898 157.066 173.591C157.066 173.207 156.932 172.882 156.665 172.615C156.398 172.345 155.975 172.21 155.395 172.21H153.401V175.108ZM160.66 182.455C160.49 182.455 160.338 182.44 160.204 182.412C160.07 182.386 159.978 182.361 159.927 182.335L160.183 181.449C160.427 181.511 160.643 181.534 160.83 181.517C161.018 181.5 161.184 181.416 161.329 181.266C161.477 181.118 161.612 180.878 161.734 180.545L161.921 180.034L159.501 173.455H160.592L162.399 178.67H162.467L164.274 173.455H165.365L162.586 180.955C162.461 181.293 162.306 181.572 162.122 181.794C161.937 182.018 161.722 182.185 161.478 182.293C161.237 182.401 160.964 182.455 160.66 182.455ZM170.203 180V171.273H173.152C173.834 171.273 174.394 171.389 174.831 171.622C175.269 171.852 175.593 172.169 175.803 172.572C176.013 172.976 176.118 173.435 176.118 173.949C176.118 174.463 176.013 174.919 175.803 175.317C175.593 175.714 175.27 176.027 174.835 176.254C174.401 176.479 173.845 176.591 173.169 176.591H170.783V175.636H173.135C173.601 175.636 173.976 175.568 174.26 175.432C174.547 175.295 174.754 175.102 174.882 174.852C175.013 174.599 175.078 174.298 175.078 173.949C175.078 173.599 175.013 173.294 174.882 173.033C174.752 172.771 174.543 172.57 174.256 172.428C173.969 172.283 173.59 172.21 173.118 172.21H171.26V180H170.203ZM174.311 176.08L176.459 180H175.232L173.118 176.08H174.311ZM180.331 180.136C179.741 180.136 179.222 179.996 178.776 179.714C178.333 179.433 177.986 179.04 177.736 178.534C177.489 178.028 177.366 177.437 177.366 176.761C177.366 176.08 177.489 175.484 177.736 174.976C177.986 174.467 178.333 174.072 178.776 173.791C179.222 173.51 179.741 173.369 180.331 173.369C180.922 173.369 181.439 173.51 181.883 173.791C182.329 174.072 182.675 174.467 182.922 174.976C183.172 175.484 183.297 176.08 183.297 176.761C183.297 177.437 183.172 178.028 182.922 178.534C182.675 179.04 182.329 179.433 181.883 179.714C181.439 179.996 180.922 180.136 180.331 180.136ZM180.331 179.233C180.78 179.233 181.15 179.118 181.439 178.888C181.729 178.658 181.944 178.355 182.083 177.98C182.222 177.605 182.292 177.199 182.292 176.761C182.292 176.324 182.222 175.916 182.083 175.538C181.944 175.161 181.729 174.855 181.439 174.622C181.15 174.389 180.78 174.273 180.331 174.273C179.883 174.273 179.513 174.389 179.224 174.622C178.934 174.855 178.719 175.161 178.58 175.538C178.441 175.916 178.371 176.324 178.371 176.761C178.371 177.199 178.441 177.605 178.58 177.98C178.719 178.355 178.934 178.658 179.224 178.888C179.513 179.118 179.883 179.233 180.331 179.233ZM185.838 176.062V180H184.833V171.273H185.838V174.477H185.923C186.077 174.139 186.307 173.871 186.614 173.672C186.923 173.47 187.335 173.369 187.85 173.369C188.296 173.369 188.686 173.459 189.021 173.638C189.357 173.814 189.617 174.085 189.801 174.452C189.989 174.815 190.083 175.278 190.083 175.841V180H189.077V175.909C189.077 175.389 188.942 174.987 188.672 174.703C188.405 174.416 188.034 174.273 187.56 174.273C187.23 174.273 186.935 174.342 186.673 174.482C186.415 174.621 186.21 174.824 186.06 175.091C185.912 175.358 185.838 175.682 185.838 176.062ZM191.922 180V173.455H192.928V180H191.922ZM192.434 172.364C192.238 172.364 192.069 172.297 191.927 172.163C191.787 172.03 191.718 171.869 191.718 171.682C191.718 171.494 191.787 171.334 191.927 171.2C192.069 171.067 192.238 171 192.434 171C192.63 171 192.797 171.067 192.937 171.2C193.079 171.334 193.15 171.494 193.15 171.682C193.15 171.869 193.079 172.03 192.937 172.163C192.797 172.297 192.63 172.364 192.434 172.364ZM197.617 173.455V174.307H194.225V173.455H197.617ZM195.213 171.886H196.219V178.125C196.219 178.409 196.26 178.622 196.343 178.764C196.428 178.903 196.536 178.997 196.666 179.045C196.8 179.091 196.941 179.114 197.088 179.114C197.199 179.114 197.29 179.108 197.361 179.097C197.432 179.082 197.489 179.071 197.531 179.062L197.736 179.966C197.668 179.991 197.573 180.017 197.45 180.043C197.328 180.071 197.173 180.085 196.986 180.085C196.702 180.085 196.423 180.024 196.151 179.902C195.881 179.78 195.656 179.594 195.477 179.344C195.301 179.094 195.213 178.778 195.213 178.398V171.886ZM207.414 173.455C207.362 173.023 207.155 172.688 206.791 172.449C206.428 172.21 205.982 172.091 205.453 172.091C205.067 172.091 204.729 172.153 204.439 172.278C204.152 172.403 203.928 172.575 203.766 172.794C203.607 173.013 203.527 173.261 203.527 173.54C203.527 173.773 203.583 173.973 203.693 174.141C203.807 174.305 203.952 174.443 204.128 174.554C204.304 174.662 204.489 174.751 204.682 174.822C204.875 174.891 205.053 174.946 205.215 174.989L206.101 175.227C206.328 175.287 206.581 175.369 206.86 175.474C207.141 175.58 207.409 175.723 207.665 175.905C207.923 176.084 208.137 176.314 208.304 176.595C208.472 176.876 208.556 177.222 208.556 177.631C208.556 178.102 208.432 178.528 208.185 178.909C207.941 179.29 207.583 179.592 207.111 179.817C206.642 180.041 206.073 180.153 205.402 180.153C204.777 180.153 204.236 180.053 203.779 179.851C203.324 179.649 202.966 179.368 202.705 179.007C202.446 178.646 202.3 178.227 202.266 177.75H203.357C203.385 178.08 203.496 178.352 203.689 178.568C203.885 178.781 204.132 178.94 204.431 179.045C204.732 179.148 205.056 179.199 205.402 179.199C205.806 179.199 206.168 179.134 206.489 179.003C206.81 178.869 207.064 178.685 207.252 178.449C207.439 178.21 207.533 177.932 207.533 177.614C207.533 177.324 207.452 177.088 207.29 176.906C207.128 176.724 206.915 176.577 206.651 176.463C206.387 176.349 206.101 176.25 205.794 176.165L204.72 175.858C204.039 175.662 203.499 175.382 203.101 175.018C202.703 174.655 202.504 174.179 202.504 173.591C202.504 173.102 202.637 172.676 202.901 172.312C203.168 171.946 203.526 171.662 203.975 171.46C204.426 171.256 204.931 171.153 205.487 171.153C206.05 171.153 206.55 171.254 206.987 171.456C207.425 171.655 207.771 171.928 208.027 172.274C208.286 172.621 208.422 173.014 208.436 173.455H207.414ZM212.083 180.153C211.668 180.153 211.292 180.075 210.954 179.919C210.616 179.76 210.347 179.531 210.148 179.233C209.949 178.932 209.85 178.568 209.85 178.142C209.85 177.767 209.924 177.463 210.072 177.23C210.219 176.994 210.417 176.81 210.664 176.676C210.911 176.543 211.184 176.443 211.482 176.378C211.783 176.31 212.086 176.256 212.39 176.216C212.787 176.165 213.11 176.126 213.357 176.101C213.607 176.072 213.789 176.026 213.903 175.96C214.019 175.895 214.077 175.781 214.077 175.619V175.585C214.077 175.165 213.962 174.838 213.732 174.605C213.505 174.372 213.16 174.256 212.697 174.256C212.216 174.256 211.84 174.361 211.567 174.571C211.295 174.781 211.103 175.006 210.992 175.244L210.037 174.903C210.208 174.506 210.435 174.196 210.719 173.974C211.006 173.75 211.319 173.594 211.657 173.506C211.998 173.415 212.333 173.369 212.662 173.369C212.873 173.369 213.114 173.395 213.387 173.446C213.662 173.494 213.928 173.595 214.184 173.749C214.442 173.902 214.657 174.134 214.827 174.443C214.998 174.753 215.083 175.168 215.083 175.688V180H214.077V179.114H214.026C213.958 179.256 213.844 179.408 213.685 179.57C213.526 179.732 213.314 179.869 213.05 179.983C212.786 180.097 212.464 180.153 212.083 180.153ZM212.236 179.25C212.634 179.25 212.969 179.172 213.242 179.016C213.518 178.859 213.725 178.658 213.864 178.411C214.006 178.163 214.077 177.903 214.077 177.631V176.71C214.035 176.761 213.941 176.808 213.796 176.851C213.654 176.891 213.489 176.926 213.302 176.957C213.117 176.986 212.937 177.011 212.76 177.034C212.587 177.054 212.447 177.071 212.339 177.085C212.077 177.119 211.833 177.175 211.606 177.251C211.381 177.325 211.199 177.437 211.06 177.588C210.924 177.736 210.856 177.937 210.856 178.193C210.856 178.543 210.985 178.807 211.243 178.986C211.505 179.162 211.836 179.25 212.236 179.25ZM216.919 180V173.455H217.924V180H216.919ZM217.43 172.364C217.234 172.364 217.065 172.297 216.923 172.163C216.784 172.03 216.714 171.869 216.714 171.682C216.714 171.494 216.784 171.334 216.923 171.2C217.065 171.067 217.234 171 217.43 171C217.626 171 217.794 171.067 217.933 171.2C218.075 171.334 218.146 171.494 218.146 171.682C218.146 171.869 218.075 172.03 217.933 172.163C217.794 172.297 217.626 172.364 217.43 172.364ZM220.772 176.062V180H219.766V173.455H220.738V174.477H220.823C220.976 174.145 221.209 173.878 221.522 173.676C221.834 173.472 222.238 173.369 222.732 173.369C223.175 173.369 223.563 173.46 223.895 173.642C224.228 173.821 224.486 174.094 224.671 174.46C224.856 174.824 224.948 175.284 224.948 175.841V180H223.942V175.909C223.942 175.395 223.809 174.994 223.542 174.707C223.275 174.418 222.908 174.273 222.442 174.273C222.121 174.273 221.834 174.342 221.581 174.482C221.331 174.621 221.134 174.824 220.989 175.091C220.844 175.358 220.772 175.682 220.772 176.062ZM226.786 180V173.455H227.791V180H226.786ZM227.297 172.364C227.101 172.364 226.932 172.297 226.79 172.163C226.651 172.03 226.581 171.869 226.581 171.682C226.581 171.494 226.651 171.334 226.79 171.2C226.932 171.067 227.101 171 227.297 171C227.493 171 227.661 171.067 227.8 171.2C227.942 171.334 228.013 171.494 228.013 171.682C228.013 171.869 227.942 172.03 227.8 172.163C227.661 172.297 227.493 172.364 227.297 172.364Z" fill="white" fill-opacity="0.8"/>
<path d="M102.871 188.455C102.819 188.023 102.612 187.688 102.248 187.449C101.885 187.21 101.439 187.091 100.91 187.091C100.524 187.091 100.186 187.153 99.8961 187.278C99.6092 187.403 99.3848 187.575 99.2228 187.794C99.0637 188.013 98.9842 188.261 98.9842 188.54C98.9842 188.773 99.0396 188.973 99.1504 189.141C99.264 189.305 99.4089 189.443 99.585 189.554C99.7612 189.662 99.9458 189.751 100.139 189.822C100.332 189.891 100.51 189.946 100.672 189.989L101.558 190.227C101.785 190.287 102.038 190.369 102.317 190.474C102.598 190.58 102.866 190.723 103.122 190.905C103.381 191.084 103.594 191.314 103.761 191.595C103.929 191.876 104.013 192.222 104.013 192.631C104.013 193.102 103.889 193.528 103.642 193.909C103.398 194.29 103.04 194.592 102.568 194.817C102.099 195.041 101.53 195.153 100.859 195.153C100.234 195.153 99.693 195.053 99.2356 194.851C98.7811 194.649 98.4231 194.368 98.1618 194.007C97.9032 193.646 97.7569 193.227 97.7228 192.75H98.8137C98.8422 193.08 98.9529 193.352 99.1461 193.568C99.3422 193.781 99.5893 193.94 99.8876 194.045C100.189 194.148 100.513 194.199 100.859 194.199C101.263 194.199 101.625 194.134 101.946 194.003C102.267 193.869 102.521 193.685 102.709 193.449C102.896 193.21 102.99 192.932 102.99 192.614C102.99 192.324 102.909 192.088 102.747 191.906C102.585 191.724 102.372 191.577 102.108 191.463C101.844 191.349 101.558 191.25 101.251 191.165L100.177 190.858C99.4956 190.662 98.9558 190.382 98.5581 190.018C98.1603 189.655 97.9615 189.179 97.9615 188.591C97.9615 188.102 98.0936 187.676 98.3578 187.312C98.6248 186.946 98.9828 186.662 99.4316 186.46C99.8833 186.256 100.388 186.153 100.944 186.153C101.507 186.153 102.007 186.254 102.444 186.456C102.882 186.655 103.229 186.928 103.484 187.274C103.743 187.621 103.879 188.014 103.893 188.455H102.871ZM108.358 195.136C107.727 195.136 107.183 194.997 106.726 194.719C106.271 194.438 105.921 194.045 105.673 193.543C105.429 193.037 105.307 192.449 105.307 191.778C105.307 191.108 105.429 190.517 105.673 190.006C105.921 189.491 106.264 189.091 106.705 188.804C107.148 188.514 107.665 188.369 108.256 188.369C108.597 188.369 108.933 188.426 109.266 188.54C109.598 188.653 109.901 188.838 110.173 189.094C110.446 189.347 110.664 189.682 110.825 190.099C110.987 190.517 111.068 191.031 111.068 191.642V192.068H106.023V191.199H110.046C110.046 190.83 109.972 190.5 109.824 190.21C109.679 189.92 109.472 189.692 109.202 189.524C108.935 189.357 108.619 189.273 108.256 189.273C107.855 189.273 107.509 189.372 107.216 189.571C106.926 189.767 106.703 190.023 106.547 190.338C106.391 190.653 106.313 190.991 106.313 191.352V191.932C106.313 192.426 106.398 192.845 106.568 193.189C106.742 193.53 106.982 193.79 107.289 193.969C107.595 194.145 107.952 194.233 108.358 194.233C108.622 194.233 108.861 194.196 109.074 194.122C109.29 194.045 109.476 193.932 109.632 193.781C109.789 193.628 109.909 193.437 109.994 193.21L110.966 193.483C110.864 193.812 110.692 194.102 110.45 194.352C110.209 194.599 109.911 194.793 109.556 194.932C109.2 195.068 108.801 195.136 108.358 195.136ZM113.604 191.062V195H112.598V188.455H113.57V189.477H113.655C113.808 189.145 114.041 188.878 114.354 188.676C114.666 188.472 115.07 188.369 115.564 188.369C116.007 188.369 116.395 188.46 116.727 188.642C117.06 188.821 117.318 189.094 117.503 189.46C117.688 189.824 117.78 190.284 117.78 190.841V195H116.774V190.909C116.774 190.395 116.641 189.994 116.374 189.707C116.107 189.418 115.74 189.273 115.274 189.273C114.953 189.273 114.666 189.342 114.414 189.482C114.164 189.621 113.966 189.824 113.821 190.091C113.676 190.358 113.604 190.682 113.604 191.062ZM119.618 195V188.455H120.623V195H119.618ZM120.129 187.364C119.933 187.364 119.764 187.297 119.622 187.163C119.483 187.03 119.413 186.869 119.413 186.682C119.413 186.494 119.483 186.334 119.622 186.2C119.764 186.067 119.933 186 120.129 186C120.325 186 120.493 186.067 120.632 186.2C120.774 186.334 120.845 186.494 120.845 186.682C120.845 186.869 120.774 187.03 120.632 187.163C120.493 187.297 120.325 187.364 120.129 187.364ZM125.124 195.136C124.534 195.136 124.015 194.996 123.569 194.714C123.126 194.433 122.779 194.04 122.529 193.534C122.282 193.028 122.159 192.437 122.159 191.761C122.159 191.08 122.282 190.484 122.529 189.976C122.779 189.467 123.126 189.072 123.569 188.791C124.015 188.51 124.534 188.369 125.124 188.369C125.715 188.369 126.232 188.51 126.676 188.791C127.122 189.072 127.468 189.467 127.715 189.976C127.965 190.484 128.09 191.08 128.09 191.761C128.09 192.437 127.965 193.028 127.715 193.534C127.468 194.04 127.122 194.433 126.676 194.714C126.232 194.996 125.715 195.136 125.124 195.136ZM125.124 194.233C125.573 194.233 125.943 194.118 126.232 193.888C126.522 193.658 126.737 193.355 126.876 192.98C127.015 192.605 127.085 192.199 127.085 191.761C127.085 191.324 127.015 190.916 126.876 190.538C126.737 190.161 126.522 189.855 126.232 189.622C125.943 189.389 125.573 189.273 125.124 189.273C124.676 189.273 124.306 189.389 124.017 189.622C123.727 189.855 123.512 190.161 123.373 190.538C123.234 190.916 123.164 191.324 123.164 191.761C123.164 192.199 123.234 192.605 123.373 192.98C123.512 193.355 123.727 193.658 124.017 193.888C124.306 194.118 124.676 194.233 125.124 194.233ZM129.626 195V188.455H130.597V189.443H130.665C130.785 189.119 131.001 188.857 131.313 188.655C131.626 188.453 131.978 188.352 132.37 188.352C132.444 188.352 132.536 188.354 132.647 188.357C132.758 188.359 132.841 188.364 132.898 188.369V189.392C132.864 189.384 132.786 189.371 132.664 189.354C132.545 189.334 132.418 189.324 132.285 189.324C131.966 189.324 131.682 189.391 131.432 189.524C131.185 189.655 130.989 189.837 130.844 190.07C130.702 190.3 130.631 190.562 130.631 190.858V195H129.626ZM137.602 195V186.273H142.835V187.21H138.659V190.159H142.443V191.097H138.659V195H137.602ZM144.438 195V188.455H145.41V189.443H145.478C145.597 189.119 145.813 188.857 146.126 188.655C146.438 188.453 146.79 188.352 147.182 188.352C147.256 188.352 147.349 188.354 147.459 188.357C147.57 188.359 147.654 188.364 147.711 188.369V189.392C147.677 189.384 147.599 189.371 147.476 189.354C147.357 189.334 147.231 189.324 147.097 189.324C146.779 189.324 146.495 189.391 146.245 189.524C145.998 189.655 145.802 189.837 145.657 190.07C145.515 190.3 145.444 190.562 145.444 190.858V195H144.438ZM151.363 195.136C150.772 195.136 150.253 194.996 149.807 194.714C149.364 194.433 149.018 194.04 148.768 193.534C148.52 193.028 148.397 192.437 148.397 191.761C148.397 191.08 148.52 190.484 148.768 189.976C149.018 189.467 149.364 189.072 149.807 188.791C150.253 188.51 150.772 188.369 151.363 188.369C151.954 188.369 152.471 188.51 152.914 188.791C153.36 189.072 153.706 189.467 153.954 189.976C154.204 190.484 154.329 191.08 154.329 191.761C154.329 192.437 154.204 193.028 153.954 193.534C153.706 194.04 153.36 194.433 152.914 194.714C152.471 194.996 151.954 195.136 151.363 195.136ZM151.363 194.233C151.812 194.233 152.181 194.118 152.471 193.888C152.76 193.658 152.975 193.355 153.114 192.98C153.253 192.605 153.323 192.199 153.323 191.761C153.323 191.324 153.253 190.916 153.114 190.538C152.975 190.161 152.76 189.855 152.471 189.622C152.181 189.389 151.812 189.273 151.363 189.273C150.914 189.273 150.545 189.389 150.255 189.622C149.965 189.855 149.751 190.161 149.611 190.538C149.472 190.916 149.403 191.324 149.403 191.761C149.403 192.199 149.472 192.605 149.611 192.98C149.751 193.355 149.965 193.658 150.255 193.888C150.545 194.118 150.914 194.233 151.363 194.233ZM156.869 191.062V195H155.864V188.455H156.835V189.477H156.921C157.074 189.145 157.307 188.878 157.619 188.676C157.932 188.472 158.335 188.369 158.83 188.369C159.273 188.369 159.661 188.46 159.993 188.642C160.325 188.821 160.584 189.094 160.769 189.46C160.953 189.824 161.046 190.284 161.046 190.841V195H160.04V190.909C160.04 190.395 159.906 189.994 159.639 189.707C159.372 189.418 159.006 189.273 158.54 189.273C158.219 189.273 157.932 189.342 157.679 189.482C157.429 189.621 157.232 189.824 157.087 190.091C156.942 190.358 156.869 190.682 156.869 191.062ZM165.73 188.455V189.307H162.338V188.455H165.73ZM163.327 186.886H164.332V193.125C164.332 193.409 164.373 193.622 164.456 193.764C164.541 193.903 164.649 193.997 164.78 194.045C164.913 194.091 165.054 194.114 165.202 194.114C165.312 194.114 165.403 194.108 165.474 194.097C165.545 194.082 165.602 194.071 165.645 194.062L165.849 194.966C165.781 194.991 165.686 195.017 165.564 195.043C165.442 195.071 165.287 195.085 165.099 195.085C164.815 195.085 164.537 195.024 164.264 194.902C163.994 194.78 163.77 194.594 163.591 194.344C163.415 194.094 163.327 193.778 163.327 193.398V186.886ZM170.754 195V186.273H176.021V187.21H171.811V190.159H175.748V191.097H171.811V194.062H176.089V195H170.754ZM178.795 191.062V195H177.79V188.455H178.761V189.477H178.846C179 189.145 179.233 188.878 179.545 188.676C179.858 188.472 180.261 188.369 180.756 188.369C181.199 188.369 181.586 188.46 181.919 188.642C182.251 188.821 182.51 189.094 182.694 189.46C182.879 189.824 182.971 190.284 182.971 190.841V195H181.966V190.909C181.966 190.395 181.832 189.994 181.565 189.707C181.298 189.418 180.932 189.273 180.466 189.273C180.145 189.273 179.858 189.342 179.605 189.482C179.355 189.621 179.157 189.824 179.013 190.091C178.868 190.358 178.795 190.682 178.795 191.062ZM187.281 195.136C186.735 195.136 186.254 194.999 185.836 194.723C185.419 194.445 185.092 194.053 184.856 193.547C184.62 193.038 184.502 192.438 184.502 191.744C184.502 191.057 184.62 190.46 184.856 189.955C185.092 189.449 185.42 189.058 185.84 188.783C186.261 188.507 186.747 188.369 187.298 188.369C187.724 188.369 188.061 188.44 188.308 188.582C188.558 188.722 188.748 188.881 188.879 189.06C189.012 189.236 189.116 189.381 189.19 189.494H189.275V186.273H190.281V195H189.309V193.994H189.19C189.116 194.114 189.011 194.264 188.874 194.446C188.738 194.625 188.544 194.786 188.291 194.928C188.038 195.067 187.701 195.136 187.281 195.136ZM187.417 194.233C187.82 194.233 188.161 194.128 188.44 193.918C188.718 193.705 188.93 193.411 189.075 193.036C189.22 192.658 189.292 192.222 189.292 191.727C189.292 191.239 189.221 190.811 189.079 190.445C188.937 190.075 188.727 189.788 188.448 189.584C188.17 189.376 187.826 189.273 187.417 189.273C186.991 189.273 186.636 189.382 186.352 189.601C186.07 189.817 185.859 190.111 185.717 190.483C185.578 190.852 185.508 191.267 185.508 191.727C185.508 192.193 185.579 192.616 185.721 192.997C185.866 193.375 186.079 193.676 186.36 193.901C186.644 194.122 186.997 194.233 187.417 194.233ZM198.467 195H195.774V186.273H198.586C199.433 186.273 200.157 186.447 200.759 186.797C201.362 187.143 201.823 187.642 202.144 188.293C202.465 188.94 202.626 189.716 202.626 190.619C202.626 191.528 202.464 192.311 202.14 192.967C201.816 193.621 201.345 194.124 200.725 194.476C200.106 194.825 199.353 195 198.467 195ZM196.83 194.062H198.399C199.12 194.062 199.718 193.923 200.193 193.645C200.667 193.366 201.021 192.97 201.254 192.456C201.487 191.942 201.603 191.33 201.603 190.619C201.603 189.915 201.488 189.308 201.258 188.8C201.028 188.288 200.684 187.896 200.227 187.624C199.769 187.348 199.2 187.21 198.518 187.21H196.83V194.062ZM207.007 195.136C206.376 195.136 205.832 194.997 205.374 194.719C204.92 194.438 204.569 194.045 204.322 193.543C204.078 193.037 203.955 192.449 203.955 191.778C203.955 191.108 204.078 190.517 204.322 190.006C204.569 189.491 204.913 189.091 205.353 188.804C205.796 188.514 206.313 188.369 206.904 188.369C207.245 188.369 207.582 188.426 207.914 188.54C208.247 188.653 208.549 188.838 208.822 189.094C209.095 189.347 209.312 189.682 209.474 190.099C209.636 190.517 209.717 191.031 209.717 191.642V192.068H204.671V191.199H208.694C208.694 190.83 208.62 190.5 208.472 190.21C208.328 189.92 208.12 189.692 207.85 189.524C207.583 189.357 207.268 189.273 206.904 189.273C206.504 189.273 206.157 189.372 205.865 189.571C205.575 189.767 205.352 190.023 205.195 190.338C205.039 190.653 204.961 190.991 204.961 191.352V191.932C204.961 192.426 205.046 192.845 205.217 193.189C205.39 193.53 205.63 193.79 205.937 193.969C206.244 194.145 206.6 194.233 207.007 194.233C207.271 194.233 207.509 194.196 207.722 194.122C207.938 194.045 208.124 193.932 208.281 193.781C208.437 193.628 208.558 193.437 208.643 193.21L209.615 193.483C209.512 193.812 209.34 194.102 209.099 194.352C208.857 194.599 208.559 194.793 208.204 194.932C207.849 195.068 207.45 195.136 207.007 195.136ZM216.4 188.455L213.979 195H212.956L210.536 188.455H211.627L213.434 193.67H213.502L215.309 188.455H216.4ZM220.237 195.136C219.606 195.136 219.062 194.997 218.605 194.719C218.15 194.438 217.8 194.045 217.552 193.543C217.308 193.037 217.186 192.449 217.186 191.778C217.186 191.108 217.308 190.517 217.552 190.006C217.8 189.491 218.143 189.091 218.584 188.804C219.027 188.514 219.544 188.369 220.135 188.369C220.476 188.369 220.812 188.426 221.145 188.54C221.477 188.653 221.78 188.838 222.052 189.094C222.325 189.347 222.542 189.682 222.704 190.099C222.866 190.517 222.947 191.031 222.947 191.642V192.068H217.902V191.199H221.925C221.925 190.83 221.851 190.5 221.703 190.21C221.558 189.92 221.351 189.692 221.081 189.524C220.814 189.357 220.498 189.273 220.135 189.273C219.734 189.273 219.388 189.372 219.095 189.571C218.805 189.767 218.582 190.023 218.426 190.338C218.27 190.653 218.192 190.991 218.192 191.352V191.932C218.192 192.426 218.277 192.845 218.447 193.189C218.621 193.53 218.861 193.79 219.167 193.969C219.474 194.145 219.831 194.233 220.237 194.233C220.501 194.233 220.74 194.196 220.953 194.122C221.169 194.045 221.355 193.932 221.511 193.781C221.667 193.628 221.788 193.437 221.873 193.21L222.845 193.483C222.743 193.812 222.571 194.102 222.329 194.352C222.088 194.599 221.79 194.793 221.434 194.932C221.079 195.068 220.68 195.136 220.237 195.136ZM225.483 186.273V195H224.477V186.273H225.483ZM229.984 195.136C229.393 195.136 228.874 194.996 228.428 194.714C227.985 194.433 227.639 194.04 227.389 193.534C227.142 193.028 227.018 192.437 227.018 191.761C227.018 191.08 227.142 190.484 227.389 189.976C227.639 189.467 227.985 189.072 228.428 188.791C228.874 188.51 229.393 188.369 229.984 188.369C230.575 188.369 231.092 188.51 231.535 188.791C231.981 189.072 232.328 189.467 232.575 189.976C232.825 190.484 232.95 191.08 232.95 191.761C232.95 192.437 232.825 193.028 232.575 193.534C232.328 194.04 231.981 194.433 231.535 194.714C231.092 194.996 230.575 195.136 229.984 195.136ZM229.984 194.233C230.433 194.233 230.802 194.118 231.092 193.888C231.382 193.658 231.596 193.355 231.735 192.98C231.874 192.605 231.944 192.199 231.944 191.761C231.944 191.324 231.874 190.916 231.735 190.538C231.596 190.161 231.382 189.855 231.092 189.622C230.802 189.389 230.433 189.273 229.984 189.273C229.535 189.273 229.166 189.389 228.876 189.622C228.586 189.855 228.372 190.161 228.232 190.538C228.093 190.916 228.024 191.324 228.024 191.761C228.024 192.199 228.093 192.605 228.232 192.98C228.372 193.355 228.586 193.658 228.876 193.888C229.166 194.118 229.535 194.233 229.984 194.233ZM234.485 197.455V188.455H235.456V189.494H235.576C235.65 189.381 235.752 189.236 235.883 189.06C236.016 188.881 236.206 188.722 236.454 188.582C236.704 188.44 237.042 188.369 237.468 188.369C238.019 188.369 238.505 188.507 238.925 188.783C239.346 189.058 239.674 189.449 239.91 189.955C240.145 190.46 240.263 191.057 240.263 191.744C240.263 192.438 240.145 193.038 239.91 193.547C239.674 194.053 239.347 194.445 238.93 194.723C238.512 194.999 238.03 195.136 237.485 195.136C237.064 195.136 236.728 195.067 236.475 194.928C236.222 194.786 236.028 194.625 235.891 194.446C235.755 194.264 235.65 194.114 235.576 193.994H235.491V197.455H234.485ZM235.474 191.727C235.474 192.222 235.546 192.658 235.691 193.036C235.836 193.411 236.047 193.705 236.326 193.918C236.604 194.128 236.945 194.233 237.349 194.233C237.769 194.233 238.12 194.122 238.401 193.901C238.685 193.676 238.898 193.375 239.04 192.997C239.185 192.616 239.258 192.193 239.258 191.727C239.258 191.267 239.187 190.852 239.045 190.483C238.905 190.111 238.694 189.817 238.41 189.601C238.128 189.382 237.775 189.273 237.349 189.273C236.939 189.273 236.596 189.376 236.317 189.584C236.039 189.788 235.829 190.075 235.687 190.445C235.545 190.811 235.474 191.239 235.474 191.727ZM244.542 195.136C243.911 195.136 243.367 194.997 242.91 194.719C242.455 194.438 242.104 194.045 241.857 193.543C241.613 193.037 241.491 192.449 241.491 191.778C241.491 191.108 241.613 190.517 241.857 190.006C242.104 189.491 242.448 189.091 242.888 188.804C243.331 188.514 243.849 188.369 244.439 188.369C244.78 188.369 245.117 188.426 245.449 188.54C245.782 188.653 246.084 188.838 246.357 189.094C246.63 189.347 246.847 189.682 247.009 190.099C247.171 190.517 247.252 191.031 247.252 191.642V192.068H242.206V191.199H246.229C246.229 190.83 246.155 190.5 246.008 190.21C245.863 189.92 245.655 189.692 245.385 189.524C245.118 189.357 244.803 189.273 244.439 189.273C244.039 189.273 243.692 189.372 243.4 189.571C243.11 189.767 242.887 190.023 242.731 190.338C242.574 190.653 242.496 190.991 242.496 191.352V191.932C242.496 192.426 242.581 192.845 242.752 193.189C242.925 193.53 243.165 193.79 243.472 193.969C243.779 194.145 244.135 194.233 244.542 194.233C244.806 194.233 245.045 194.196 245.258 194.122C245.474 194.045 245.66 193.932 245.816 193.781C245.972 193.628 246.093 193.437 246.178 193.21L247.15 193.483C247.047 193.812 246.876 194.102 246.634 194.352C246.393 194.599 246.094 194.793 245.739 194.932C245.384 195.068 244.985 195.136 244.542 195.136ZM248.782 195V188.455H249.753V189.443H249.822C249.941 189.119 250.157 188.857 250.469 188.655C250.782 188.453 251.134 188.352 251.526 188.352C251.6 188.352 251.692 188.354 251.803 188.357C251.914 188.359 251.998 188.364 252.055 188.369V189.392C252.02 189.384 251.942 189.371 251.82 189.354C251.701 189.334 251.574 189.324 251.441 189.324C251.123 189.324 250.839 189.391 250.589 189.524C250.341 189.655 250.145 189.837 250.001 190.07C249.858 190.3 249.787 190.562 249.787 190.858V195H248.782ZM257.815 186.273V195H256.758V186.273H257.815ZM260.803 191.062V195H259.797V188.455H260.769V189.477H260.854C261.008 189.145 261.241 188.878 261.553 188.676C261.866 188.472 262.269 188.369 262.763 188.369C263.206 188.369 263.594 188.46 263.927 188.642C264.259 188.821 264.518 189.094 264.702 189.46C264.887 189.824 264.979 190.284 264.979 190.841V195H263.974V190.909C263.974 190.395 263.84 189.994 263.573 189.707C263.306 189.418 262.939 189.273 262.474 189.273C262.153 189.273 261.866 189.342 261.613 189.482C261.363 189.621 261.165 189.824 261.02 190.091C260.876 190.358 260.803 190.682 260.803 191.062ZM269.289 195.136C268.743 195.136 268.262 194.999 267.844 194.723C267.426 194.445 267.1 194.053 266.864 193.547C266.628 193.038 266.51 192.438 266.51 191.744C266.51 191.057 266.628 190.46 266.864 189.955C267.1 189.449 267.428 189.058 267.848 188.783C268.269 188.507 268.754 188.369 269.306 188.369C269.732 188.369 270.068 188.44 270.316 188.582C270.566 188.722 270.756 188.881 270.887 189.06C271.02 189.236 271.124 189.381 271.198 189.494H271.283V186.273H272.289V195H271.317V193.994H271.198C271.124 194.114 271.019 194.264 270.882 194.446C270.746 194.625 270.551 194.786 270.298 194.928C270.046 195.067 269.709 195.136 269.289 195.136ZM269.425 194.233C269.828 194.233 270.169 194.128 270.448 193.918C270.726 193.705 270.938 193.411 271.083 193.036C271.227 192.658 271.3 192.222 271.3 191.727C271.3 191.239 271.229 190.811 271.087 190.445C270.945 190.075 270.735 189.788 270.456 189.584C270.178 189.376 269.834 189.273 269.425 189.273C268.999 189.273 268.644 189.382 268.36 189.601C268.078 189.817 267.867 190.111 267.725 190.483C267.585 190.852 267.516 191.267 267.516 191.727C267.516 192.193 267.587 192.616 267.729 192.997C267.874 193.375 268.087 193.676 268.368 193.901C268.652 194.122 269.004 194.233 269.425 194.233ZM274.27 195V188.455H275.276V195H274.27ZM274.781 187.364C274.585 187.364 274.416 187.297 274.274 187.163C274.135 187.03 274.066 186.869 274.066 186.682C274.066 186.494 274.135 186.334 274.274 186.2C274.416 186.067 274.585 186 274.781 186C274.977 186 275.145 186.067 275.284 186.2C275.426 186.334 275.497 186.494 275.497 186.682C275.497 186.869 275.426 187.03 275.284 187.163C275.145 187.297 274.977 187.364 274.781 187.364ZM279.044 195.153C278.629 195.153 278.253 195.075 277.915 194.919C277.577 194.76 277.308 194.531 277.109 194.233C276.91 193.932 276.811 193.568 276.811 193.142C276.811 192.767 276.885 192.463 277.032 192.23C277.18 191.994 277.378 191.81 277.625 191.676C277.872 191.543 278.145 191.443 278.443 191.378C278.744 191.31 279.047 191.256 279.351 191.216C279.748 191.165 280.071 191.126 280.318 191.101C280.568 191.072 280.75 191.026 280.863 190.96C280.98 190.895 281.038 190.781 281.038 190.619V190.585C281.038 190.165 280.923 189.838 280.693 189.605C280.466 189.372 280.121 189.256 279.657 189.256C279.177 189.256 278.801 189.361 278.528 189.571C278.256 189.781 278.064 190.006 277.953 190.244L276.998 189.903C277.169 189.506 277.396 189.196 277.68 188.974C277.967 188.75 278.28 188.594 278.618 188.506C278.959 188.415 279.294 188.369 279.623 188.369C279.834 188.369 280.075 188.395 280.348 188.446C280.623 188.494 280.889 188.595 281.145 188.749C281.403 188.902 281.618 189.134 281.788 189.443C281.959 189.753 282.044 190.168 282.044 190.688V195H281.038V194.114H280.987C280.919 194.256 280.805 194.408 280.646 194.57C280.487 194.732 280.275 194.869 280.011 194.983C279.747 195.097 279.425 195.153 279.044 195.153ZM279.197 194.25C279.595 194.25 279.93 194.172 280.203 194.016C280.479 193.859 280.686 193.658 280.825 193.411C280.967 193.163 281.038 192.903 281.038 192.631V191.71C280.996 191.761 280.902 191.808 280.757 191.851C280.615 191.891 280.45 191.926 280.263 191.957C280.078 191.986 279.898 192.011 279.721 192.034C279.548 192.054 279.407 192.071 279.3 192.085C279.038 192.119 278.794 192.175 278.567 192.251C278.342 192.325 278.16 192.437 278.021 192.588C277.885 192.736 277.817 192.937 277.817 193.193C277.817 193.543 277.946 193.807 278.204 193.986C278.466 194.162 278.797 194.25 279.197 194.25Z" fill="white" fill-opacity="0.8"/>
<path d="M50 53C51.6569 53 53 51.6569 53 50C53 48.3431 51.6569 47 50 47C48.3431 47 47 48.3431 47 50C47 51.6569 48.3431 53 50 53Z" fill="white" fill-opacity="0.3"/>
<path d="M330 62C331.105 62 332 61.1046 332 60C332 58.8954 331.105 58 330 58C328.895 58 328 58.8954 328 60C328 61.1046 328.895 62 330 62Z" fill="white" fill-opacity="0.4"/>
<path d="M80 222C81.1046 222 82 221.105 82 220C82 218.895 81.1046 218 80 218C78.8954 218 78 218.895 78 220C78 221.105 78.8954 222 80 222Z" fill="white" fill-opacity="0.3"/>
<path d="M300 243C301.657 243 303 241.657 303 240C303 238.343 301.657 237 300 237C298.343 237 297 238.343 297 240C297 241.657 298.343 243 300 243Z" fill="white" fill-opacity="0.4"/>
<defs>
<linearGradient id="paint0_linear_28_88" x1="0" y1="0" x2="26743.3" y2="36294.4" gradientUnits="userSpaceOnUse">
<stop stop-color="#667EEA"/>
<stop offset="1" stop-color="#764BA2"/>
</linearGradient>
</defs>
</svg>
