<svg width="800" height="200" viewBox="0 0 800 200" fill="none" xmlns="http://www.w3.org/2000/svg">
<g clip-path="url(#clip0_41_232)">
<path d="M790 0H10C4.47715 0 0 4.47715 0 10V190C0 195.523 4.47715 200 10 200H790C795.523 200 800 195.523 800 190V10C800 4.47715 795.523 0 790 0Z" fill="#1A1A1A"/>
<path d="M229.627 39V18.6364H243.11V22.1861H233.933V27.0384H242.215V30.5881H233.933V39H229.627ZM245.927 39V23.7273H250.162V39H245.927ZM248.055 21.7585C247.425 21.7585 246.885 21.5497 246.434 21.1321C245.99 20.7079 245.768 20.2008 245.768 19.6108C245.768 19.0275 245.99 18.527 246.434 18.1094C246.885 17.6851 247.425 17.473 248.055 17.473C248.684 17.473 249.221 17.6851 249.665 18.1094C250.116 18.527 250.341 19.0275 250.341 19.6108C250.341 20.2008 250.116 20.7079 249.665 21.1321C249.221 21.5497 248.684 21.7585 248.055 21.7585ZM260.436 45.0455C259.064 45.0455 257.887 44.8565 256.906 44.4787C255.932 44.1075 255.156 43.6004 254.58 42.9574C254.003 42.3144 253.628 41.5919 253.456 40.7898L257.374 40.2628C257.493 40.5677 257.682 40.8527 257.941 41.1179C258.199 41.383 258.54 41.5952 258.965 41.7543C259.396 41.92 259.919 42.0028 260.536 42.0028C261.457 42.0028 262.216 41.7775 262.813 41.3267C263.416 40.8826 263.718 40.1368 263.718 39.0895V36.2955H263.539C263.353 36.7197 263.075 37.1207 262.703 37.4986C262.332 37.8764 261.855 38.1847 261.271 38.4233C260.688 38.6619 259.992 38.7812 259.183 38.7812C258.037 38.7812 256.993 38.5161 256.051 37.9858C255.117 37.4489 254.371 36.6302 253.814 35.5298C253.264 34.4228 252.989 33.0241 252.989 31.3338C252.989 29.6037 253.271 28.1586 253.834 26.9986C254.397 25.8385 255.146 24.9702 256.081 24.3935C257.022 23.8168 258.053 23.5284 259.173 23.5284C260.029 23.5284 260.744 23.6742 261.321 23.9659C261.898 24.2509 262.362 24.6089 262.713 25.0398C263.071 25.464 263.346 25.8816 263.539 26.2926H263.698V23.7273H267.904V39.1491C267.904 40.4484 267.585 41.5355 266.949 42.4105C266.313 43.2855 265.431 43.9418 264.304 44.3793C263.184 44.8234 261.895 45.0455 260.436 45.0455ZM260.526 35.5994C261.209 35.5994 261.785 35.4304 262.256 35.0923C262.733 34.7476 263.098 34.2571 263.35 33.6207C263.608 32.9777 263.737 32.2088 263.737 31.3139C263.737 30.419 263.611 29.6435 263.36 28.9872C263.108 28.3243 262.743 27.8106 262.266 27.446C261.789 27.0814 261.209 26.8991 260.526 26.8991C259.83 26.8991 259.243 27.0881 258.766 27.4659C258.289 27.8371 257.927 28.3542 257.682 29.017C257.437 29.6799 257.314 30.4455 257.314 31.3139C257.314 32.1955 257.437 32.9579 257.682 33.6009C257.934 34.2372 258.295 34.7311 258.766 35.0824C259.243 35.4271 259.83 35.5994 260.526 35.5994ZM271.274 39V23.7273H275.311V26.4219H275.49C275.808 25.527 276.339 24.821 277.081 24.304C277.824 23.7869 278.712 23.5284 279.746 23.5284C280.793 23.5284 281.685 23.7902 282.421 24.3139C283.156 24.831 283.647 25.5336 283.892 26.4219H284.051C284.363 25.5469 284.926 24.8475 285.742 24.3239C286.564 23.7936 287.535 23.5284 288.655 23.5284C290.08 23.5284 291.237 23.9825 292.125 24.8906C293.02 25.7921 293.468 27.0715 293.468 28.7287V39H289.242V29.5639C289.242 28.7154 289.016 28.0791 288.566 27.6548C288.115 27.2306 287.551 27.0185 286.875 27.0185C286.106 27.0185 285.506 27.2637 285.075 27.7543C284.645 28.2382 284.429 28.8778 284.429 29.6733V39H280.323V29.4744C280.323 28.7254 280.107 28.1288 279.676 27.6847C279.252 27.2405 278.692 27.0185 277.996 27.0185C277.525 27.0185 277.101 27.1378 276.723 27.3764C276.352 27.6084 276.057 27.9366 275.838 28.3608C275.619 28.7784 275.51 29.2689 275.51 29.8324V39H271.274ZM301.169 39.2884C300.194 39.2884 299.326 39.1193 298.563 38.7812C297.801 38.4366 297.198 37.9295 296.754 37.2599C296.316 36.5838 296.097 35.742 296.097 34.7344C296.097 33.8859 296.253 33.1733 296.565 32.5966C296.876 32.0199 297.301 31.5559 297.838 31.2045C298.374 30.8532 298.984 30.5881 299.667 30.4091C300.356 30.2301 301.079 30.1042 301.835 30.0312C302.723 29.9384 303.439 29.8523 303.982 29.7727C304.526 29.6866 304.92 29.5606 305.166 29.3949C305.411 29.2292 305.534 28.9839 305.534 28.6591V28.5994C305.534 27.9697 305.335 27.4825 304.937 27.1378C304.546 26.7931 303.989 26.6207 303.267 26.6207C302.504 26.6207 301.898 26.7898 301.447 27.1278C300.996 27.4593 300.698 27.8769 300.552 28.3807L296.634 28.0625C296.833 27.1345 297.224 26.3324 297.808 25.6562C298.391 24.9735 299.143 24.4498 300.065 24.0852C300.993 23.714 302.067 23.5284 303.286 23.5284C304.135 23.5284 304.947 23.6278 305.722 23.8267C306.505 24.0256 307.197 24.3338 307.801 24.7514C308.41 25.169 308.891 25.706 309.242 26.3622C309.594 27.0118 309.769 27.7907 309.769 28.6989V39H305.752V36.8821H305.633C305.388 37.3594 305.06 37.7803 304.649 38.1449C304.238 38.5028 303.744 38.7846 303.167 38.9901C302.59 39.1889 301.924 39.2884 301.169 39.2884ZM302.382 36.3651C303.005 36.3651 303.555 36.2424 304.032 35.9972C304.509 35.7453 304.884 35.4072 305.156 34.983C305.427 34.5587 305.563 34.0781 305.563 33.5412V31.9205C305.431 32.0066 305.249 32.0862 305.017 32.1591C304.791 32.2254 304.536 32.2884 304.251 32.348C303.966 32.401 303.681 32.4508 303.396 32.4972C303.111 32.5369 302.852 32.5734 302.62 32.6065C302.123 32.6795 301.689 32.7955 301.318 32.9545C300.946 33.1136 300.658 33.3291 300.453 33.6009C300.247 33.866 300.144 34.1974 300.144 34.5952C300.144 35.1719 300.353 35.6127 300.771 35.9176C301.195 36.2159 301.732 36.3651 302.382 36.3651ZM333.775 23.7273L328.435 39H323.662L318.323 23.7273H322.797L325.969 34.6548H326.128L329.29 23.7273H333.775ZM348.65 28.0824L344.772 28.321C344.706 27.9896 344.563 27.6913 344.344 27.4261C344.126 27.1544 343.837 26.9389 343.479 26.7798C343.128 26.6141 342.707 26.5312 342.216 26.5312C341.56 26.5312 341.007 26.6705 340.556 26.9489C340.105 27.2206 339.88 27.5852 339.88 28.0426C339.88 28.4072 340.026 28.7154 340.317 28.9673C340.609 29.2192 341.109 29.4214 341.819 29.5739L344.583 30.1307C346.068 30.4356 347.175 30.9261 347.904 31.6023C348.633 32.2784 348.998 33.1667 348.998 34.267C348.998 35.268 348.703 36.1463 348.113 36.902C347.529 37.6577 346.727 38.2476 345.706 38.6719C344.692 39.0895 343.522 39.2983 342.197 39.2983C340.175 39.2983 338.564 38.8774 337.364 38.0355C336.171 37.187 335.472 36.0336 335.266 34.5753L339.432 34.3565C339.558 34.973 339.863 35.4437 340.347 35.7685C340.831 36.0866 341.451 36.2457 342.206 36.2457C342.949 36.2457 343.546 36.1032 343.996 35.8182C344.454 35.5265 344.686 35.152 344.692 34.6946C344.686 34.3101 344.523 33.9953 344.205 33.75C343.887 33.4981 343.396 33.3059 342.733 33.1733L340.089 32.6463C338.597 32.348 337.487 31.831 336.758 31.0952C336.035 30.3594 335.674 29.4214 335.674 28.2812C335.674 27.3002 335.939 26.455 336.469 25.7457C337.006 25.0365 337.759 24.4896 338.726 24.1051C339.701 23.7206 340.841 23.5284 342.147 23.5284C344.076 23.5284 345.594 23.9361 346.701 24.7514C347.814 25.5668 348.464 26.6771 348.65 28.0824ZM361.735 39H357.121L364.151 18.6364H369.699L376.719 39H372.106L367.005 23.2898H366.846L361.735 39ZM361.447 30.9957H372.344V34.3565H361.447V30.9957ZM384.008 39.2486C382.848 39.2486 381.797 38.9503 380.856 38.3537C379.921 37.7505 379.179 36.8655 378.628 35.6989C378.085 34.5256 377.813 33.0871 377.813 31.3835C377.813 29.6335 378.095 28.1785 378.658 27.0185C379.222 25.8518 379.971 24.9801 380.905 24.4034C381.847 23.8201 382.877 23.5284 383.998 23.5284C384.853 23.5284 385.565 23.6742 386.135 23.9659C386.712 24.2509 387.176 24.6089 387.528 25.0398C387.885 25.464 388.157 25.8816 388.343 26.2926H388.472V18.6364H392.698V39H388.522V36.554H388.343C388.144 36.9782 387.862 37.3991 387.498 37.8168C387.14 38.2277 386.672 38.5691 386.096 38.8409C385.526 39.1127 384.83 39.2486 384.008 39.2486ZM385.35 35.8778C386.033 35.8778 386.609 35.6922 387.08 35.321C387.557 34.9432 387.922 34.4162 388.174 33.7401C388.432 33.0639 388.562 32.2718 388.562 31.3636C388.562 30.4555 388.436 29.6667 388.184 28.9972C387.932 28.3277 387.567 27.8106 387.09 27.446C386.613 27.0814 386.033 26.8991 385.35 26.8991C384.654 26.8991 384.067 27.0881 383.59 27.4659C383.113 27.8437 382.751 28.3674 382.506 29.0369C382.261 29.7064 382.138 30.482 382.138 31.3636C382.138 32.2519 382.261 33.0374 382.506 33.7202C382.758 34.3963 383.119 34.9266 383.59 35.3111C384.067 35.6889 384.654 35.8778 385.35 35.8778ZM403.081 39.2983C401.537 39.2983 400.201 38.9702 399.074 38.3139C397.954 37.651 397.089 36.7296 396.479 35.5497C395.869 34.3632 395.564 32.9877 395.564 31.4233C395.564 29.8456 395.869 28.4669 396.479 27.2869C397.089 26.1004 397.954 25.179 399.074 24.5227C400.201 23.8598 401.537 23.5284 403.081 23.5284C404.626 23.5284 405.958 23.8598 407.078 24.5227C408.205 25.179 409.074 26.1004 409.683 27.2869C410.293 28.4669 410.598 29.8456 410.598 31.4233C410.598 32.9877 410.293 34.3632 409.683 35.5497C409.074 36.7296 408.205 37.651 407.078 38.3139C405.958 38.9702 404.626 39.2983 403.081 39.2983ZM403.101 36.017C403.804 36.017 404.39 35.8182 404.861 35.4205C405.332 35.0161 405.686 34.4659 405.925 33.7699C406.17 33.0739 406.293 32.2817 406.293 31.3935C406.293 30.5052 406.17 29.7131 405.925 29.017C405.686 28.321 405.332 27.7708 404.861 27.3665C404.39 26.9621 403.804 26.7599 403.101 26.7599C402.392 26.7599 401.795 26.9621 401.311 27.3665C400.834 27.7708 400.473 28.321 400.227 29.017C399.989 29.7131 399.869 30.5052 399.869 31.3935C399.869 32.2817 399.989 33.0739 400.227 33.7699C400.473 34.4659 400.834 35.0161 401.311 35.4205C401.795 35.8182 402.392 36.017 403.101 36.017ZM413.432 39V18.6364H417.668V26.2926H417.797C417.983 25.8816 418.251 25.464 418.602 25.0398C418.96 24.6089 419.424 24.2509 419.994 23.9659C420.571 23.6742 421.287 23.5284 422.142 23.5284C423.256 23.5284 424.283 23.8201 425.225 24.4034C426.166 24.9801 426.918 25.8518 427.482 27.0185C428.045 28.1785 428.327 29.6335 428.327 31.3835C428.327 33.0871 428.052 34.5256 427.502 35.6989C426.958 36.8655 426.216 37.7505 425.274 38.3537C424.34 38.9503 423.292 39.2486 422.132 39.2486C421.31 39.2486 420.611 39.1127 420.034 38.8409C419.464 38.5691 418.997 38.2277 418.632 37.8168C418.268 37.3991 417.989 36.9782 417.797 36.554H417.608V39H413.432ZM417.578 31.3636C417.578 32.2718 417.704 33.0639 417.956 33.7401C418.208 34.4162 418.573 34.9432 419.05 35.321C419.527 35.6922 420.107 35.8778 420.79 35.8778C421.479 35.8778 422.063 35.6889 422.54 35.3111C423.017 34.9266 423.378 34.3963 423.624 33.7202C423.876 33.0374 424.002 32.2519 424.002 31.3636C424.002 30.482 423.879 29.7064 423.634 29.0369C423.388 28.3674 423.027 27.8437 422.55 27.4659C422.073 27.0881 421.486 26.8991 420.79 26.8991C420.101 26.8991 419.517 27.0814 419.04 27.446C418.569 27.8106 418.208 28.3277 417.956 28.9972C417.704 29.6667 417.578 30.4555 417.578 31.3636ZM438.113 39.2983C436.542 39.2983 435.19 38.9801 434.057 38.3438C432.93 37.7008 432.061 36.7926 431.452 35.6193C430.842 34.4394 430.537 33.044 430.537 31.4332C430.537 29.8622 430.842 28.4834 431.452 27.2969C432.061 26.1103 432.92 25.1856 434.027 24.5227C435.14 23.8598 436.446 23.5284 437.944 23.5284C438.952 23.5284 439.89 23.6908 440.758 24.0156C441.633 24.3338 442.396 24.8144 443.045 25.4574C443.702 26.1004 444.212 26.9091 444.577 27.8835C444.941 28.8513 445.123 29.9848 445.123 31.2841V32.4474H432.227V29.8224H441.136C441.136 29.2126 441.004 28.6723 440.738 28.2017C440.473 27.7311 440.105 27.3632 439.635 27.098C439.171 26.8262 438.631 26.6903 438.014 26.6903C437.371 26.6903 436.801 26.8395 436.304 27.1378C435.813 27.4295 435.429 27.8239 435.15 28.321C434.872 28.8116 434.729 29.3584 434.723 29.9616V32.4574C434.723 33.2131 434.862 33.866 435.14 34.4162C435.425 34.9664 435.827 35.3906 436.344 35.6889C436.861 35.9872 437.474 36.1364 438.183 36.1364C438.654 36.1364 439.085 36.0701 439.476 35.9375C439.867 35.8049 440.202 35.6061 440.48 35.3409C440.758 35.0758 440.97 34.7509 441.116 34.3665L445.034 34.625C444.835 35.5663 444.427 36.3883 443.811 37.0909C443.201 37.7869 442.412 38.3305 441.444 38.7216C440.483 39.1061 439.373 39.2983 438.113 39.2983ZM458.485 18.6364L462.591 25.5767H462.75L466.877 18.6364H471.739L465.524 28.8182L471.878 39H466.926L462.75 32.0497H462.591L458.415 39H453.483L459.857 28.8182L453.602 18.6364H458.485ZM481.682 39H474.463V18.6364H481.742C483.79 18.6364 485.553 19.044 487.031 19.8594C488.51 20.6681 489.646 21.8314 490.442 23.3494C491.244 24.8674 491.645 26.6837 491.645 28.7983C491.645 30.9195 491.244 32.7424 490.442 34.267C489.646 35.7917 488.503 36.9616 487.012 37.777C485.527 38.5923 483.75 39 481.682 39ZM478.769 35.3111H481.503C482.776 35.3111 483.846 35.0857 484.715 34.6349C485.59 34.1776 486.246 33.4716 486.683 32.517C487.128 31.5559 487.35 30.3163 487.35 28.7983C487.35 27.2936 487.128 26.0639 486.683 25.1094C486.246 24.1548 485.593 23.4522 484.725 23.0014C483.856 22.5507 482.786 22.3253 481.513 22.3253H478.769V35.3111ZM501.195 39V35.8977L508.444 29.1861C509.061 28.5895 509.578 28.0526 509.995 27.5753C510.419 27.098 510.741 26.6307 510.96 26.1733C511.178 25.7093 511.288 25.2088 511.288 24.6719C511.288 24.0753 511.152 23.5616 510.88 23.1307C510.608 22.6932 510.237 22.3584 509.767 22.1264C509.296 21.8878 508.762 21.7685 508.166 21.7685C507.543 21.7685 506.999 21.8944 506.535 22.1463C506.071 22.3982 505.713 22.7595 505.461 23.2301C505.209 23.7008 505.083 24.2609 505.083 24.9105H500.997C500.997 23.5781 501.298 22.4214 501.901 21.4403C502.505 20.4593 503.35 19.7003 504.437 19.1634C505.524 18.6264 506.777 18.358 508.195 18.358C509.654 18.358 510.923 18.6165 512.004 19.1335C513.091 19.6439 513.936 20.3532 514.539 21.2614C515.142 22.1695 515.444 23.2102 515.444 24.3835C515.444 25.1525 515.292 25.9115 514.987 26.6605C514.688 27.4096 514.155 28.2415 513.386 29.1562C512.617 30.0644 511.533 31.1548 510.134 32.4276L507.161 35.3409V35.4801H515.713V39H501.195ZM526.817 39.4474C525.106 39.4408 523.635 39.0199 522.402 38.1847C521.175 37.3494 520.231 36.1397 519.568 34.5554C518.912 32.9711 518.587 31.0653 518.594 28.8381C518.594 26.6174 518.922 24.7249 519.578 23.1605C520.241 21.5961 521.185 20.4062 522.412 19.5909C523.645 18.7689 525.113 18.358 526.817 18.358C528.52 18.358 529.985 18.7689 531.211 19.5909C532.444 20.4129 533.392 21.6061 534.055 23.1705C534.718 24.7282 535.046 26.6174 535.04 28.8381C535.04 31.072 534.708 32.9811 534.045 34.5653C533.389 36.1496 532.448 37.3594 531.221 38.1946C529.995 39.0298 528.527 39.4474 526.817 39.4474ZM526.817 35.8778C527.983 35.8778 528.915 35.2912 529.611 34.1179C530.307 32.9446 530.651 31.1847 530.645 28.8381C530.645 27.2936 530.486 26.0076 530.167 24.9801C529.856 23.9527 529.412 23.1804 528.835 22.6634C528.265 22.1463 527.592 21.8878 526.817 21.8878C525.657 21.8878 524.729 22.4678 524.032 23.6278C523.336 24.7879 522.985 26.5246 522.979 28.8381C522.979 30.4025 523.134 31.7083 523.446 32.7557C523.764 33.7964 524.211 34.5786 524.788 35.1023C525.365 35.6193 526.041 35.8778 526.817 35.8778ZM538.11 39V35.8977L545.358 29.1861C545.975 28.5895 546.492 28.0526 546.909 27.5753C547.334 27.098 547.655 26.6307 547.874 26.1733C548.093 25.7093 548.202 25.2088 548.202 24.6719C548.202 24.0753 548.066 23.5616 547.794 23.1307C547.522 22.6932 547.151 22.3584 546.681 22.1264C546.21 21.8878 545.676 21.7685 545.08 21.7685C544.457 21.7685 543.913 21.8944 543.449 22.1463C542.985 22.3982 542.627 22.7595 542.375 23.2301C542.123 23.7008 541.997 24.2609 541.997 24.9105H537.911C537.911 23.5781 538.212 22.4214 538.816 21.4403C539.419 20.4593 540.264 19.7003 541.351 19.1634C542.438 18.6264 543.691 18.358 545.11 18.358C546.568 18.358 547.837 18.6165 548.918 19.1335C550.005 19.6439 550.85 20.3532 551.453 21.2614C552.057 22.1695 552.358 23.2102 552.358 24.3835C552.358 25.1525 552.206 25.9115 551.901 26.6605C551.602 27.4096 551.069 28.2415 550.3 29.1562C549.531 30.0644 548.447 31.1548 547.048 32.4276L544.075 35.3409V35.4801H552.627V39H538.11ZM563.184 39.2784C561.778 39.2784 560.526 39.0199 559.425 38.5028C558.331 37.9858 557.463 37.2732 556.82 36.3651C556.177 35.4569 555.842 34.4162 555.816 33.2429H559.992C560.038 34.0317 560.37 34.6714 560.986 35.1619C561.603 35.6525 562.335 35.8977 563.184 35.8977C563.86 35.8977 564.456 35.7486 564.974 35.4503C565.497 35.1454 565.905 34.7244 566.197 34.1875C566.495 33.6439 566.644 33.0208 566.644 32.3182C566.644 31.6023 566.492 30.9725 566.187 30.429C565.888 29.8854 565.474 29.4612 564.944 29.1562C564.413 28.8513 563.807 28.6955 563.124 28.6889C562.528 28.6889 561.948 28.8116 561.384 29.0568C560.827 29.3021 560.393 29.6368 560.081 30.0611L556.253 29.375L557.218 18.6364H569.667V22.1562H560.768L560.241 27.2571H560.36C560.718 26.7533 561.258 26.3357 561.981 26.0043C562.703 25.6728 563.512 25.5071 564.407 25.5071C565.633 25.5071 566.727 25.7955 567.688 26.3722C568.649 26.9489 569.408 27.741 569.965 28.7486C570.522 29.7495 570.797 30.9029 570.79 32.2088C570.797 33.581 570.479 34.8007 569.836 35.8679C569.199 36.9285 568.308 37.7637 567.161 38.3736C566.021 38.9768 564.695 39.2784 563.184 39.2784Z" fill="white"/>
<path d="M280.109 61H278.7C278.616 60.5947 278.47 60.2386 278.262 59.9318C278.058 59.625 277.808 59.3674 277.512 59.1591C277.22 58.947 276.897 58.7879 276.54 58.6818C276.184 58.5758 275.813 58.5227 275.427 58.5227C274.722 58.5227 274.084 58.7008 273.512 59.0568C272.944 59.4129 272.491 59.9375 272.154 60.6307C271.821 61.3239 271.654 62.1742 271.654 63.1818C271.654 64.1894 271.821 65.0398 272.154 65.733C272.491 66.4261 272.944 66.9508 273.512 67.3068C274.084 67.6629 274.722 67.8409 275.427 67.8409C275.813 67.8409 276.184 67.7879 276.54 67.6818C276.897 67.5758 277.22 67.4186 277.512 67.2102C277.808 66.9981 278.058 66.7386 278.262 66.4318C278.47 66.1212 278.616 65.7652 278.7 65.3636H280.109C280.003 65.9583 279.809 66.4905 279.529 66.9602C279.249 67.4299 278.9 67.8295 278.484 68.1591C278.067 68.4848 277.599 68.733 277.08 68.9034C276.565 69.0739 276.014 69.1591 275.427 69.1591C274.434 69.1591 273.552 68.9167 272.779 68.4318C272.006 67.947 271.398 67.2576 270.955 66.3636C270.512 65.4697 270.29 64.4091 270.29 63.1818C270.29 61.9545 270.512 60.8939 270.955 60C271.398 59.1061 272.006 58.4167 272.779 57.9318C273.552 57.447 274.434 57.2045 275.427 57.2045C276.014 57.2045 276.565 57.2898 277.08 57.4602C277.599 57.6307 278.067 57.8807 278.484 58.2102C278.9 58.536 279.249 58.9337 279.529 59.4034C279.809 59.8693 280.003 60.4015 280.109 61ZM285.749 69.1818C284.961 69.1818 284.27 68.9943 283.675 68.6193C283.085 68.2443 282.622 67.7197 282.289 67.0455C281.96 66.3712 281.795 65.5833 281.795 64.6818C281.795 63.7727 281.96 62.9792 282.289 62.3011C282.622 61.6231 283.085 61.0966 283.675 60.7216C284.27 60.3466 284.961 60.1591 285.749 60.1591C286.537 60.1591 287.227 60.3466 287.817 60.7216C288.412 61.0966 288.874 61.6231 289.204 62.3011C289.537 62.9792 289.704 63.7727 289.704 64.6818C289.704 65.5833 289.537 66.3712 289.204 67.0455C288.874 67.7197 288.412 68.2443 287.817 68.6193C287.227 68.9943 286.537 69.1818 285.749 69.1818ZM285.749 67.9773C286.348 67.9773 286.84 67.8239 287.227 67.517C287.613 67.2102 287.899 66.8068 288.085 66.3068C288.27 65.8068 288.363 65.2652 288.363 64.6818C288.363 64.0985 288.27 63.5549 288.085 63.0511C287.899 62.5473 287.613 62.1402 287.227 61.8295C286.84 61.5189 286.348 61.3636 285.749 61.3636C285.151 61.3636 284.658 61.5189 284.272 61.8295C283.886 62.1402 283.6 62.5473 283.414 63.0511C283.228 63.5549 283.136 64.0985 283.136 64.6818C283.136 65.2652 283.228 65.8068 283.414 66.3068C283.6 66.8068 283.886 67.2102 284.272 67.517C284.658 67.8239 285.151 67.9773 285.749 67.9773ZM291.751 69V60.2727H293.046V61.6364H293.16C293.342 61.1705 293.635 60.8087 294.04 60.5511C294.446 60.2898 294.933 60.1591 295.501 60.1591C296.076 60.1591 296.556 60.2898 296.938 60.5511C297.325 60.8087 297.626 61.1705 297.842 61.6364H297.933C298.156 61.1856 298.491 60.8277 298.938 60.5625C299.385 60.2936 299.921 60.1591 300.546 60.1591C301.326 60.1591 301.965 60.4034 302.461 60.892C302.957 61.3769 303.205 62.1326 303.205 63.1591V69H301.864V63.1591C301.864 62.5152 301.688 62.0549 301.336 61.7784C300.984 61.5019 300.569 61.3636 300.092 61.3636C299.478 61.3636 299.003 61.5492 298.665 61.9205C298.328 62.2879 298.16 62.7538 298.16 63.3182V69H296.796V63.0227C296.796 62.5265 296.635 62.1269 296.313 61.8239C295.991 61.517 295.576 61.3636 295.069 61.3636C294.72 61.3636 294.395 61.4564 294.092 61.642C293.792 61.8277 293.55 62.0852 293.364 62.4148C293.183 62.7405 293.092 63.1174 293.092 63.5455V69H291.751ZM305.657 72.2727V60.2727H306.952V61.6591H307.112C307.21 61.5076 307.346 61.3144 307.521 61.0795C307.699 60.8409 307.952 60.6288 308.282 60.4432C308.615 60.2538 309.066 60.1591 309.634 60.1591C310.369 60.1591 311.017 60.3428 311.577 60.7102C312.138 61.0777 312.576 61.5985 312.89 62.2727C313.204 62.947 313.362 63.7424 313.362 64.6591C313.362 65.5833 313.204 66.3845 312.89 67.0625C312.576 67.7367 312.14 68.2595 311.583 68.6307C311.026 68.9981 310.384 69.1818 309.657 69.1818C309.096 69.1818 308.647 69.089 308.31 68.9034C307.973 68.714 307.714 68.5 307.532 68.2614C307.35 68.0189 307.21 67.8182 307.112 67.6591H306.998V72.2727H305.657ZM306.975 64.6364C306.975 65.2955 307.072 65.8769 307.265 66.3807C307.458 66.8807 307.74 67.2727 308.112 67.5568C308.483 67.8371 308.937 67.9773 309.475 67.9773C310.036 67.9773 310.504 67.8295 310.879 67.5341C311.257 67.2348 311.541 66.8333 311.731 66.3295C311.924 65.822 312.021 65.2576 312.021 64.6364C312.021 64.0227 311.926 63.4697 311.737 62.9773C311.551 62.4811 311.269 62.089 310.89 61.8011C310.515 61.5095 310.043 61.3636 309.475 61.3636C308.93 61.3636 308.471 61.5019 308.1 61.7784C307.729 62.0511 307.449 62.4337 307.259 62.9261C307.07 63.4148 306.975 63.9848 306.975 64.6364ZM316.748 57.3636V69H315.407V57.3636H316.748ZM322.863 69.1818C322.022 69.1818 321.297 68.9962 320.687 68.625C320.081 68.25 319.613 67.7273 319.283 67.0568C318.958 66.3826 318.795 65.5985 318.795 64.7045C318.795 63.8106 318.958 63.0227 319.283 62.3409C319.613 61.6553 320.071 61.1212 320.658 60.7386C321.249 60.3523 321.939 60.1591 322.727 60.1591C323.181 60.1591 323.63 60.2348 324.073 60.3864C324.516 60.5379 324.92 60.7841 325.283 61.125C325.647 61.4621 325.937 61.9091 326.153 62.4659C326.369 63.0227 326.477 63.7083 326.477 64.5227V65.0909H319.749V63.9318H325.113C325.113 63.4394 325.014 63 324.817 62.6136C324.624 62.2273 324.348 61.9223 323.988 61.6989C323.632 61.4754 323.211 61.3636 322.727 61.3636C322.192 61.3636 321.73 61.4962 321.34 61.7614C320.954 62.0227 320.656 62.3636 320.448 62.7841C320.24 63.2045 320.136 63.6553 320.136 64.1364V64.9091C320.136 65.5682 320.249 66.1269 320.477 66.5852C320.708 67.0398 321.028 67.3864 321.437 67.625C321.846 67.8598 322.321 67.9773 322.863 67.9773C323.215 67.9773 323.533 67.928 323.817 67.8295C324.105 67.7273 324.353 67.5758 324.562 67.375C324.77 67.1705 324.931 66.9167 325.045 66.6136L326.34 66.9773C326.204 67.4167 325.975 67.803 325.653 68.1364C325.331 68.4659 324.933 68.7235 324.46 68.9091C323.986 69.0909 323.454 69.1818 322.863 69.1818ZM332.312 60.2727V61.4091H327.789V60.2727H332.312ZM329.107 58.1818H330.448V66.5C330.448 66.8788 330.503 67.1629 330.613 67.3523C330.727 67.5379 330.871 67.6629 331.045 67.7273C331.223 67.7879 331.41 67.8182 331.607 67.8182C331.755 67.8182 331.876 67.8106 331.971 67.7955C332.066 67.7765 332.141 67.7614 332.198 67.75L332.471 68.9545C332.38 68.9886 332.253 69.0227 332.09 69.0568C331.927 69.0947 331.721 69.1136 331.471 69.1136C331.092 69.1136 330.721 69.0322 330.357 68.8693C329.997 68.7064 329.698 68.4583 329.46 68.125C329.225 67.7917 329.107 67.3712 329.107 66.8636V58.1818ZM337.894 69.1818C337.053 69.1818 336.328 68.9962 335.718 68.625C335.112 68.25 334.644 67.7273 334.315 67.0568C333.989 66.3826 333.826 65.5985 333.826 64.7045C333.826 63.8106 333.989 63.0227 334.315 62.3409C334.644 61.6553 335.103 61.1212 335.69 60.7386C336.281 60.3523 336.97 60.1591 337.758 60.1591C338.212 60.1591 338.661 60.2348 339.104 60.3864C339.548 60.5379 339.951 60.7841 340.315 61.125C340.678 61.4621 340.968 61.9091 341.184 62.4659C341.4 63.0227 341.508 63.7083 341.508 64.5227V65.0909H334.781V63.9318H340.144C340.144 63.4394 340.046 63 339.849 62.6136C339.656 62.2273 339.379 61.9223 339.019 61.6989C338.663 61.4754 338.243 61.3636 337.758 61.3636C337.224 61.3636 336.762 61.4962 336.371 61.7614C335.985 62.0227 335.688 62.3636 335.479 62.7841C335.271 63.2045 335.167 63.6553 335.167 64.1364V64.9091C335.167 65.5682 335.281 66.1269 335.508 66.5852C335.739 67.0398 336.059 67.3864 336.468 67.625C336.877 67.8598 337.353 67.9773 337.894 67.9773C338.246 67.9773 338.565 67.928 338.849 67.8295C339.137 67.7273 339.385 67.5758 339.593 67.375C339.801 67.1705 339.962 66.9167 340.076 66.6136L341.371 66.9773C341.235 67.4167 341.006 67.803 340.684 68.1364C340.362 68.4659 339.964 68.7235 339.491 68.9091C339.017 69.0909 338.485 69.1818 337.894 69.1818ZM351.82 69H348.229V57.3636H351.979C353.108 57.3636 354.074 57.5966 354.877 58.0625C355.68 58.5246 356.296 59.1894 356.724 60.0568C357.152 60.9205 357.366 61.9545 357.366 63.1591C357.366 64.3712 357.15 65.4148 356.718 66.2898C356.286 67.161 355.657 67.8314 354.832 68.3011C354.006 68.767 353.002 69 351.82 69ZM349.638 67.75H351.729C352.692 67.75 353.489 67.5644 354.121 67.1932C354.754 66.822 355.226 66.2936 355.536 65.608C355.847 64.9223 356.002 64.1061 356.002 63.1591C356.002 62.2197 355.849 61.411 355.542 60.733C355.235 60.0511 354.777 59.5284 354.167 59.1648C353.557 58.7973 352.798 58.6136 351.888 58.6136H349.638V67.75ZM363.207 69.1818C362.366 69.1818 361.64 68.9962 361.031 68.625C360.424 68.25 359.957 67.7273 359.627 67.0568C359.301 66.3826 359.138 65.5985 359.138 64.7045C359.138 63.8106 359.301 63.0227 359.627 62.3409C359.957 61.6553 360.415 61.1212 361.002 60.7386C361.593 60.3523 362.282 60.1591 363.07 60.1591C363.525 60.1591 363.974 60.2348 364.417 60.3864C364.86 60.5379 365.263 60.7841 365.627 61.125C365.991 61.4621 366.281 61.9091 366.496 62.4659C366.712 63.0227 366.82 63.7083 366.82 64.5227V65.0909H360.093V63.9318H365.457C365.457 63.4394 365.358 63 365.161 62.6136C364.968 62.2273 364.692 61.9223 364.332 61.6989C363.976 61.4754 363.555 61.3636 363.07 61.3636C362.536 61.3636 362.074 61.4962 361.684 61.7614C361.298 62.0227 361 62.3636 360.792 62.7841C360.584 63.2045 360.479 63.6553 360.479 64.1364V64.9091C360.479 65.5682 360.593 66.1269 360.82 66.5852C361.051 67.0398 361.371 67.3864 361.781 67.625C362.19 67.8598 362.665 67.9773 363.207 67.9773C363.559 67.9773 363.877 67.928 364.161 67.8295C364.449 67.7273 364.697 67.5758 364.906 67.375C365.114 67.1705 365.275 66.9167 365.388 66.6136L366.684 66.9773C366.548 67.4167 366.318 67.803 365.996 68.1364C365.674 68.4659 365.277 68.7235 364.803 68.9091C364.33 69.0909 363.798 69.1818 363.207 69.1818ZM375.042 62.2273L373.837 62.5682C373.762 62.3674 373.65 62.1723 373.502 61.983C373.358 61.7898 373.161 61.6307 372.911 61.5057C372.661 61.3807 372.341 61.3182 371.951 61.3182C371.417 61.3182 370.972 61.4413 370.616 61.6875C370.263 61.9299 370.087 62.2386 370.087 62.6136C370.087 62.947 370.209 63.2102 370.451 63.4034C370.693 63.5966 371.072 63.7576 371.587 63.8864L372.883 64.2045C373.663 64.3939 374.245 64.6837 374.627 65.0739C375.01 65.4602 375.201 65.9583 375.201 66.5682C375.201 67.0682 375.057 67.5152 374.769 67.9091C374.485 68.303 374.087 68.6136 373.576 68.8409C373.065 69.0682 372.47 69.1818 371.792 69.1818C370.902 69.1818 370.165 68.9886 369.582 68.6023C368.998 68.2159 368.629 67.6515 368.474 66.9091L369.746 66.5909C369.868 67.0606 370.097 67.4129 370.434 67.6477C370.775 67.8826 371.22 68 371.769 68C372.394 68 372.89 67.8674 373.258 67.6023C373.629 67.3333 373.815 67.0114 373.815 66.6364C373.815 66.3333 373.709 66.0795 373.496 65.875C373.284 65.6667 372.959 65.5114 372.519 65.4091L371.065 65.0682C370.265 64.8788 369.678 64.5852 369.303 64.1875C368.932 63.786 368.746 63.2841 368.746 62.6818C368.746 62.1894 368.885 61.7538 369.161 61.375C369.442 60.9962 369.822 60.6989 370.303 60.483C370.788 60.267 371.337 60.1591 371.951 60.1591C372.815 60.1591 373.493 60.3485 373.985 60.7273C374.481 61.1061 374.834 61.6061 375.042 62.2273ZM377.219 69V60.2727H378.56V69H377.219ZM377.901 58.8182C377.64 58.8182 377.415 58.7292 377.225 58.5511C377.04 58.3731 376.947 58.1591 376.947 57.9091C376.947 57.6591 377.04 57.4451 377.225 57.267C377.415 57.089 377.64 57 377.901 57C378.163 57 378.386 57.089 378.572 57.267C378.761 57.4451 378.856 57.6591 378.856 57.9091C378.856 58.1591 378.761 58.3731 378.572 58.5511C378.386 58.7292 378.163 58.8182 377.901 58.8182ZM384.539 72.4545C383.891 72.4545 383.335 72.3712 382.869 72.2045C382.403 72.0417 382.014 71.8258 381.704 71.5568C381.397 71.2917 381.153 71.0076 380.971 70.7045L382.039 69.9545C382.16 70.1136 382.314 70.2955 382.499 70.5C382.685 70.7083 382.939 70.8883 383.261 71.0398C383.586 71.1951 384.013 71.2727 384.539 71.2727C385.244 71.2727 385.825 71.1023 386.283 70.7614C386.742 70.4205 386.971 69.8864 386.971 69.1591V67.3864H386.857C386.759 67.5455 386.619 67.7424 386.437 67.9773C386.259 68.2083 386.001 68.4148 385.664 68.5966C385.331 68.7746 384.88 68.8636 384.312 68.8636C383.607 68.8636 382.975 68.697 382.414 68.3636C381.857 68.0303 381.416 67.5455 381.09 66.9091C380.768 66.2727 380.607 65.5 380.607 64.5909C380.607 63.697 380.764 62.9186 381.079 62.2557C381.393 61.589 381.831 61.0739 382.391 60.7102C382.952 60.3428 383.6 60.1591 384.335 60.1591C384.903 60.1591 385.353 60.2538 385.687 60.4432C386.024 60.6288 386.281 60.8409 386.46 61.0795C386.641 61.3144 386.781 61.5076 386.88 61.6591H387.016V60.2727H388.312V69.25C388.312 70 388.141 70.6098 387.8 71.0795C387.463 71.553 387.009 71.8996 386.437 72.1193C385.869 72.3428 385.236 72.4545 384.539 72.4545ZM384.494 67.6591C385.031 67.6591 385.486 67.536 385.857 67.2898C386.228 67.0436 386.511 66.6894 386.704 66.2273C386.897 65.7652 386.994 65.2121 386.994 64.5682C386.994 63.9394 386.899 63.3845 386.71 62.9034C386.52 62.4223 386.24 62.0455 385.869 61.7727C385.497 61.5 385.039 61.3636 384.494 61.3636C383.925 61.3636 383.452 61.5076 383.073 61.7955C382.698 62.0833 382.416 62.4697 382.227 62.9545C382.041 63.4394 381.948 63.9773 381.948 64.5682C381.948 65.1742 382.043 65.7102 382.232 66.1761C382.425 66.6383 382.71 67.0019 383.085 67.267C383.463 67.5284 383.933 67.6591 384.494 67.6591ZM392.107 63.75V69H390.766V60.2727H392.062V61.6364H392.175C392.38 61.1932 392.691 60.8371 393.107 60.5682C393.524 60.2955 394.062 60.1591 394.721 60.1591C395.312 60.1591 395.829 60.2803 396.272 60.5227C396.715 60.7614 397.06 61.125 397.306 61.6136C397.552 62.0985 397.675 62.7121 397.675 63.4545V69H396.335V63.5455C396.335 62.8598 396.156 62.3258 395.8 61.9432C395.444 61.5568 394.956 61.3636 394.335 61.3636C393.906 61.3636 393.524 61.4564 393.187 61.642C392.853 61.8277 392.59 62.0985 392.397 62.4545C392.204 62.8106 392.107 63.2424 392.107 63.75ZM404.171 58.6136V57.3636H412.898V58.6136H409.239V69H407.83V58.6136H404.171ZM417.171 69.1818C416.383 69.1818 415.692 68.9943 415.097 68.6193C414.506 68.2443 414.044 67.7197 413.711 67.0455C413.381 66.3712 413.217 65.5833 413.217 64.6818C413.217 63.7727 413.381 62.9792 413.711 62.3011C414.044 61.6231 414.506 61.0966 415.097 60.7216C415.692 60.3466 416.383 60.1591 417.171 60.1591C417.959 60.1591 418.648 60.3466 419.239 60.7216C419.834 61.0966 420.296 61.6231 420.626 62.3011C420.959 62.9792 421.126 63.7727 421.126 64.6818C421.126 65.5833 420.959 66.3712 420.626 67.0455C420.296 67.7197 419.834 68.2443 419.239 68.6193C418.648 68.9943 417.959 69.1818 417.171 69.1818ZM417.171 67.9773C417.77 67.9773 418.262 67.8239 418.648 67.517C419.035 67.2102 419.321 66.8068 419.506 66.3068C419.692 65.8068 419.785 65.2652 419.785 64.6818C419.785 64.0985 419.692 63.5549 419.506 63.0511C419.321 62.5473 419.035 62.1402 418.648 61.8295C418.262 61.5189 417.77 61.3636 417.171 61.3636C416.573 61.3636 416.08 61.5189 415.694 61.8295C415.308 62.1402 415.022 62.5473 414.836 63.0511C414.65 63.5549 414.558 64.0985 414.558 64.6818C414.558 65.2652 414.65 65.8068 414.836 66.3068C415.022 66.8068 415.308 67.2102 415.694 67.517C416.08 67.8239 416.573 67.9773 417.171 67.9773ZM426.718 69.1818C425.93 69.1818 425.239 68.9943 424.644 68.6193C424.053 68.2443 423.591 67.7197 423.258 67.0455C422.928 66.3712 422.763 65.5833 422.763 64.6818C422.763 63.7727 422.928 62.9792 423.258 62.3011C423.591 61.6231 424.053 61.0966 424.644 60.7216C425.239 60.3466 425.93 60.1591 426.718 60.1591C427.506 60.1591 428.195 60.3466 428.786 60.7216C429.381 61.0966 429.843 61.6231 430.173 62.3011C430.506 62.9792 430.673 63.7727 430.673 64.6818C430.673 65.5833 430.506 66.3712 430.173 67.0455C429.843 67.7197 429.381 68.2443 428.786 68.6193C428.195 68.9943 427.506 69.1818 426.718 69.1818ZM426.718 67.9773C427.317 67.9773 427.809 67.8239 428.195 67.517C428.582 67.2102 428.868 66.8068 429.053 66.3068C429.239 65.8068 429.332 65.2652 429.332 64.6818C429.332 64.0985 429.239 63.5549 429.053 63.0511C428.868 62.5473 428.582 62.1402 428.195 61.8295C427.809 61.5189 427.317 61.3636 426.718 61.3636C426.12 61.3636 425.627 61.5189 425.241 61.8295C424.854 62.1402 424.568 62.5473 424.383 63.0511C424.197 63.5549 424.104 64.0985 424.104 64.6818C424.104 65.2652 424.197 65.8068 424.383 66.3068C424.568 66.8068 424.854 67.2102 425.241 67.517C425.627 67.8239 426.12 67.9773 426.718 67.9773ZM434.06 57.3636V69H432.719V57.3636H434.06ZM450.562 61H449.153C449.069 60.5947 448.924 60.2386 448.715 59.9318C448.511 59.625 448.261 59.3674 447.965 59.1591C447.674 58.947 447.35 58.7879 446.994 58.6818C446.638 58.5758 446.266 58.5227 445.88 58.5227C445.175 58.5227 444.537 58.7008 443.965 59.0568C443.397 59.4129 442.944 59.9375 442.607 60.6307C442.274 61.3239 442.107 62.1742 442.107 63.1818C442.107 64.1894 442.274 65.0398 442.607 65.733C442.944 66.4261 443.397 66.9508 443.965 67.3068C444.537 67.6629 445.175 67.8409 445.88 67.8409C446.266 67.8409 446.638 67.7879 446.994 67.6818C447.35 67.5758 447.674 67.4186 447.965 67.2102C448.261 66.9981 448.511 66.7386 448.715 66.4318C448.924 66.1212 449.069 65.7652 449.153 65.3636H450.562C450.456 65.9583 450.263 66.4905 449.982 66.9602C449.702 67.4299 449.353 67.8295 448.937 68.1591C448.52 68.4848 448.052 68.733 447.533 68.9034C447.018 69.0739 446.467 69.1591 445.88 69.1591C444.888 69.1591 444.005 68.9167 443.232 68.4318C442.46 67.947 441.852 67.2576 441.408 66.3636C440.965 65.4697 440.744 64.4091 440.744 63.1818C440.744 61.9545 440.965 60.8939 441.408 60C441.852 59.1061 442.46 58.4167 443.232 57.9318C444.005 57.447 444.888 57.2045 445.88 57.2045C446.467 57.2045 447.018 57.2898 447.533 57.4602C448.052 57.6307 448.52 57.8807 448.937 58.2102C449.353 58.536 449.702 58.9337 449.982 59.4034C450.263 59.8693 450.456 60.4015 450.562 61ZM456.202 69.1818C455.415 69.1818 454.723 68.9943 454.129 68.6193C453.538 68.2443 453.076 67.7197 452.742 67.0455C452.413 66.3712 452.248 65.5833 452.248 64.6818C452.248 63.7727 452.413 62.9792 452.742 62.3011C453.076 61.6231 453.538 61.0966 454.129 60.7216C454.723 60.3466 455.415 60.1591 456.202 60.1591C456.99 60.1591 457.68 60.3466 458.271 60.7216C458.865 61.0966 459.327 61.6231 459.657 62.3011C459.99 62.9792 460.157 63.7727 460.157 64.6818C460.157 65.5833 459.99 66.3712 459.657 67.0455C459.327 67.7197 458.865 68.2443 458.271 68.6193C457.68 68.9943 456.99 69.1818 456.202 69.1818ZM456.202 67.9773C456.801 67.9773 457.293 67.8239 457.68 67.517C458.066 67.2102 458.352 66.8068 458.538 66.3068C458.723 65.8068 458.816 65.2652 458.816 64.6818C458.816 64.0985 458.723 63.5549 458.538 63.0511C458.352 62.5473 458.066 62.1402 457.68 61.8295C457.293 61.5189 456.801 61.3636 456.202 61.3636C455.604 61.3636 455.112 61.5189 454.725 61.8295C454.339 62.1402 454.053 62.5473 453.867 63.0511C453.682 63.5549 453.589 64.0985 453.589 64.6818C453.589 65.2652 453.682 65.8068 453.867 66.3068C454.053 66.8068 454.339 67.2102 454.725 67.517C455.112 67.8239 455.604 67.9773 456.202 67.9773ZM462.204 69V60.2727H463.499V61.6364H463.613C463.795 61.1705 464.088 60.8087 464.494 60.5511C464.899 60.2898 465.386 60.1591 465.954 60.1591C466.53 60.1591 467.009 60.2898 467.391 60.5511C467.778 60.8087 468.079 61.1705 468.295 61.6364H468.386C468.609 61.1856 468.944 60.8277 469.391 60.5625C469.838 60.2936 470.374 60.1591 470.999 60.1591C471.78 60.1591 472.418 60.4034 472.914 60.892C473.41 61.3769 473.658 62.1326 473.658 63.1591V69H472.317V63.1591C472.317 62.5152 472.141 62.0549 471.789 61.7784C471.437 61.5019 471.022 61.3636 470.545 61.3636C469.931 61.3636 469.456 61.5492 469.119 61.9205C468.781 62.2879 468.613 62.7538 468.613 63.3182V69H467.249V63.0227C467.249 62.5265 467.088 62.1269 466.766 61.8239C466.444 61.517 466.03 61.3636 465.522 61.3636C465.174 61.3636 464.848 61.4564 464.545 61.642C464.246 61.8277 464.003 62.0852 463.817 62.4148C463.636 62.7405 463.545 63.1174 463.545 63.5455V69H462.204ZM476.11 72.2727V60.2727H477.406V61.6591H477.565C477.663 61.5076 477.799 61.3144 477.974 61.0795C478.152 60.8409 478.406 60.6288 478.735 60.4432C479.068 60.2538 479.519 60.1591 480.087 60.1591C480.822 60.1591 481.47 60.3428 482.031 60.7102C482.591 61.0777 483.029 61.5985 483.343 62.2727C483.657 62.947 483.815 63.7424 483.815 64.6591C483.815 65.5833 483.657 66.3845 483.343 67.0625C483.029 67.7367 482.593 68.2595 482.036 68.6307C481.479 68.9981 480.837 69.1818 480.11 69.1818C479.549 69.1818 479.101 69.089 478.763 68.9034C478.426 68.714 478.167 68.5 477.985 68.2614C477.803 68.0189 477.663 67.8182 477.565 67.6591H477.451V72.2727H476.11ZM477.428 64.6364C477.428 65.2955 477.525 65.8769 477.718 66.3807C477.911 66.8807 478.193 67.2727 478.565 67.5568C478.936 67.8371 479.39 67.9773 479.928 67.9773C480.489 67.9773 480.957 67.8295 481.332 67.5341C481.71 67.2348 481.995 66.8333 482.184 66.3295C482.377 65.822 482.474 65.2576 482.474 64.6364C482.474 64.0227 482.379 63.4697 482.19 62.9773C482.004 62.4811 481.722 62.089 481.343 61.8011C480.968 61.5095 480.496 61.3636 479.928 61.3636C479.383 61.3636 478.924 61.5019 478.553 61.7784C478.182 62.0511 477.902 62.4337 477.712 62.9261C477.523 63.4148 477.428 63.9848 477.428 64.6364ZM488.428 69.2045C487.875 69.2045 487.373 69.1004 486.923 68.892C486.472 68.6799 486.114 68.375 485.849 67.9773C485.584 67.5758 485.451 67.0909 485.451 66.5227C485.451 66.0227 485.549 65.6174 485.746 65.3068C485.943 64.9924 486.207 64.7462 486.536 64.5682C486.866 64.3902 487.229 64.2576 487.627 64.1705C488.029 64.0795 488.432 64.0076 488.837 63.9545C489.368 63.8864 489.798 63.8352 490.127 63.8011C490.46 63.7633 490.703 63.7008 490.854 63.6136C491.01 63.5265 491.087 63.375 491.087 63.1591V63.1136C491.087 62.553 490.934 62.1174 490.627 61.8068C490.324 61.4962 489.864 61.3409 489.246 61.3409C488.606 61.3409 488.104 61.4811 487.741 61.7614C487.377 62.0417 487.121 62.3409 486.974 62.6591L485.701 62.2045C485.928 61.6742 486.231 61.2614 486.61 60.9659C486.993 60.6667 487.409 60.4583 487.86 60.3409C488.315 60.2197 488.762 60.1591 489.201 60.1591C489.481 60.1591 489.803 60.1932 490.167 60.2614C490.534 60.3258 490.888 60.4602 491.229 60.6648C491.574 60.8693 491.86 61.178 492.087 61.5909C492.315 62.0038 492.428 62.5568 492.428 63.25V69H491.087V67.8182H491.019C490.928 68.0076 490.777 68.2102 490.565 68.4261C490.353 68.642 490.07 68.8258 489.718 68.9773C489.366 69.1288 488.936 69.2045 488.428 69.2045ZM488.633 68C489.163 68 489.61 67.8958 489.974 67.6875C490.341 67.4792 490.618 67.2102 490.803 66.8807C490.993 66.5511 491.087 66.2045 491.087 65.8409V64.6136C491.031 64.6818 490.906 64.7443 490.712 64.8011C490.523 64.8542 490.303 64.9015 490.053 64.9432C489.807 64.9811 489.567 65.0152 489.332 65.0455C489.101 65.072 488.913 65.0947 488.769 65.1136C488.421 65.1591 488.095 65.233 487.792 65.3352C487.493 65.4337 487.25 65.5833 487.065 65.7841C486.883 65.9811 486.792 66.25 486.792 66.5909C486.792 67.0568 486.964 67.4091 487.309 67.6477C487.657 67.8826 488.099 68 488.633 68ZM494.876 69V60.2727H496.171V61.5909H496.262C496.421 61.1591 496.709 60.8087 497.126 60.5398C497.542 60.2708 498.012 60.1364 498.535 60.1364C498.633 60.1364 498.756 60.1383 498.904 60.142C499.052 60.1458 499.164 60.1515 499.239 60.1591V61.5227C499.194 61.5114 499.09 61.4943 498.927 61.4716C498.768 61.4451 498.599 61.4318 498.421 61.4318C497.997 61.4318 497.618 61.5208 497.285 61.6989C496.955 61.8731 496.694 62.1155 496.501 62.4261C496.311 62.733 496.217 63.0833 496.217 63.4773V69H494.876ZM500.829 69V60.2727H502.17V69H500.829ZM501.511 58.8182C501.249 58.8182 501.024 58.7292 500.835 58.5511C500.649 58.3731 500.556 58.1591 500.556 57.9091C500.556 57.6591 500.649 57.4451 500.835 57.267C501.024 57.089 501.249 57 501.511 57C501.772 57 501.996 57.089 502.181 57.267C502.371 57.4451 502.465 57.6591 502.465 57.9091C502.465 58.1591 502.371 58.3731 502.181 58.5511C501.996 58.7292 501.772 58.8182 501.511 58.8182ZM510.808 62.2273L509.603 62.5682C509.527 62.3674 509.415 62.1723 509.268 61.983C509.124 61.7898 508.927 61.6307 508.677 61.5057C508.427 61.3807 508.107 61.3182 507.717 61.3182C507.183 61.3182 506.737 61.4413 506.381 61.6875C506.029 61.9299 505.853 62.2386 505.853 62.6136C505.853 62.947 505.974 63.2102 506.217 63.4034C506.459 63.5966 506.838 63.7576 507.353 63.8864L508.648 64.2045C509.429 64.3939 510.01 64.6837 510.393 65.0739C510.775 65.4602 510.967 65.9583 510.967 66.5682C510.967 67.0682 510.823 67.5152 510.535 67.9091C510.251 68.303 509.853 68.6136 509.342 68.8409C508.83 69.0682 508.236 69.1818 507.558 69.1818C506.667 69.1818 505.931 68.9886 505.347 68.6023C504.764 68.2159 504.395 67.6515 504.239 66.9091L505.512 66.5909C505.633 67.0606 505.862 67.4129 506.2 67.6477C506.54 67.8826 506.986 68 507.535 68C508.16 68 508.656 67.8674 509.023 67.6023C509.395 67.3333 509.58 67.0114 509.58 66.6364C509.58 66.3333 509.474 66.0795 509.262 65.875C509.05 65.6667 508.724 65.5114 508.285 65.4091L506.83 65.0682C506.031 64.8788 505.444 64.5852 505.069 64.1875C504.698 63.786 504.512 63.2841 504.512 62.6818C504.512 62.1894 504.65 61.7538 504.927 61.375C505.207 60.9962 505.588 60.6989 506.069 60.483C506.554 60.267 507.103 60.1591 507.717 60.1591C508.58 60.1591 509.258 60.3485 509.751 60.7273C510.247 61.1061 510.599 61.6061 510.808 62.2273ZM516.531 69.1818C515.743 69.1818 515.051 68.9943 514.457 68.6193C513.866 68.2443 513.404 67.7197 513.07 67.0455C512.741 66.3712 512.576 65.5833 512.576 64.6818C512.576 63.7727 512.741 62.9792 513.07 62.3011C513.404 61.6231 513.866 61.0966 514.457 60.7216C515.051 60.3466 515.743 60.1591 516.531 60.1591C517.318 60.1591 518.008 60.3466 518.599 60.7216C519.193 61.0966 519.656 61.6231 519.985 62.3011C520.318 62.9792 520.485 63.7727 520.485 64.6818C520.485 65.5833 520.318 66.3712 519.985 67.0455C519.656 67.7197 519.193 68.2443 518.599 68.6193C518.008 68.9943 517.318 69.1818 516.531 69.1818ZM516.531 67.9773C517.129 67.9773 517.621 67.8239 518.008 67.517C518.394 67.2102 518.68 66.8068 518.866 66.3068C519.051 65.8068 519.144 65.2652 519.144 64.6818C519.144 64.0985 519.051 63.5549 518.866 63.0511C518.68 62.5473 518.394 62.1402 518.008 61.8295C517.621 61.5189 517.129 61.3636 516.531 61.3636C515.932 61.3636 515.44 61.5189 515.053 61.8295C514.667 62.1402 514.381 62.5473 514.195 63.0511C514.01 63.5549 513.917 64.0985 513.917 64.6818C513.917 65.2652 514.01 65.8068 514.195 66.3068C514.381 66.8068 514.667 67.2102 515.053 67.517C515.44 67.8239 515.932 67.9773 516.531 67.9773ZM523.873 63.75V69H522.532V60.2727H523.827V61.6364H523.941C524.146 61.1932 524.456 60.8371 524.873 60.5682C525.29 60.2955 525.827 60.1591 526.487 60.1591C527.077 60.1591 527.594 60.2803 528.038 60.5227C528.481 60.7614 528.826 61.125 529.072 61.6136C529.318 62.0985 529.441 62.7121 529.441 63.4545V69H528.1V63.5455C528.1 62.8598 527.922 62.3258 527.566 61.9432C527.21 61.5568 526.721 61.3636 526.1 61.3636C525.672 61.3636 525.29 61.4564 524.952 61.642C524.619 61.8277 524.356 62.0985 524.163 62.4545C523.969 62.8106 523.873 63.2424 523.873 63.75Z" fill="#888888"/>
<path d="M150 115C158.284 115 165 108.284 165 100C165 91.7157 158.284 85 150 85C141.716 85 135 91.7157 135 100C135 108.284 141.716 115 150 115Z" fill="#F24E1E"/>
<path d="M180 115C188.284 115 195 108.284 195 100C195 91.7157 188.284 85 180 85C171.716 85 165 91.7157 165 100C165 108.284 171.716 115 180 115Z" fill="#FF7262"/>
<path d="M150 145C158.284 145 165 138.284 165 130C165 121.716 158.284 115 150 115C141.716 115 135 121.716 135 130C135 138.284 141.716 145 150 145Z" fill="#A259FF"/>
<path d="M180 145C188.284 145 195 138.284 195 130C195 121.716 188.284 115 180 115C171.716 115 165 121.716 165 130C165 138.284 171.716 145 180 145Z" fill="#1ABCFE"/>
<path d="M165 160C173.284 160 180 153.284 180 145C180 136.716 173.284 130 165 130C156.716 130 150 136.716 150 145C150 153.284 156.716 160 165 160Z" fill="#0ACF83"/>
<path d="M221.517 124V106.545H233.074V109.588H225.207V113.747H232.307V116.79H225.207V124H221.517ZM235.488 124V110.909H239.119V124H235.488ZM237.312 109.222C236.772 109.222 236.309 109.043 235.923 108.685C235.542 108.321 235.352 107.886 235.352 107.381C235.352 106.881 235.542 106.452 235.923 106.094C236.309 105.73 236.772 105.548 237.312 105.548C237.852 105.548 238.312 105.73 238.692 106.094C239.079 106.452 239.272 106.881 239.272 107.381C239.272 107.886 239.079 108.321 238.692 108.685C238.312 109.043 237.852 109.222 237.312 109.222ZM247.925 129.182C246.749 129.182 245.74 129.02 244.899 128.696C244.064 128.378 243.399 127.943 242.905 127.392C242.411 126.841 242.089 126.222 241.942 125.534L245.3 125.082C245.402 125.344 245.564 125.588 245.786 125.815C246.007 126.043 246.3 126.224 246.663 126.361C247.033 126.503 247.482 126.574 248.01 126.574C248.8 126.574 249.45 126.381 249.962 125.994C250.479 125.614 250.737 124.974 250.737 124.077V121.682H250.584C250.425 122.045 250.186 122.389 249.868 122.713C249.55 123.037 249.141 123.301 248.641 123.506C248.141 123.71 247.544 123.812 246.851 123.812C245.868 123.812 244.973 123.585 244.166 123.131C243.365 122.67 242.726 121.969 242.249 121.026C241.777 120.077 241.541 118.878 241.541 117.429C241.541 115.946 241.783 114.707 242.266 113.713C242.749 112.719 243.391 111.974 244.192 111.48C244.999 110.986 245.882 110.739 246.842 110.739C247.575 110.739 248.189 110.864 248.683 111.114C249.178 111.358 249.575 111.665 249.876 112.034C250.183 112.398 250.419 112.756 250.584 113.108H250.72V110.909H254.325V124.128C254.325 125.241 254.053 126.173 253.507 126.923C252.962 127.673 252.206 128.236 251.24 128.611C250.28 128.991 249.175 129.182 247.925 129.182ZM248.001 121.085C248.587 121.085 249.081 120.94 249.484 120.651C249.893 120.355 250.206 119.935 250.422 119.389C250.643 118.838 250.754 118.179 250.754 117.412C250.754 116.645 250.646 115.98 250.43 115.418C250.214 114.849 249.902 114.409 249.493 114.097C249.084 113.784 248.587 113.628 248.001 113.628C247.405 113.628 246.902 113.79 246.493 114.114C246.084 114.432 245.774 114.875 245.564 115.443C245.354 116.011 245.249 116.668 245.249 117.412C245.249 118.168 245.354 118.821 245.564 119.372C245.78 119.918 246.089 120.341 246.493 120.642C246.902 120.937 247.405 121.085 248.001 121.085ZM257.214 124V110.909H260.675V113.219H260.828C261.101 112.452 261.555 111.847 262.192 111.403C262.828 110.96 263.589 110.739 264.476 110.739C265.374 110.739 266.138 110.963 266.768 111.412C267.399 111.855 267.82 112.457 268.03 113.219H268.166C268.433 112.469 268.916 111.869 269.615 111.42C270.32 110.966 271.152 110.739 272.112 110.739C273.334 110.739 274.325 111.128 275.087 111.906C275.854 112.679 276.237 113.776 276.237 115.196V124H272.615V115.912C272.615 115.185 272.422 114.639 272.036 114.276C271.649 113.912 271.166 113.73 270.587 113.73C269.928 113.73 269.413 113.94 269.044 114.361C268.675 114.776 268.49 115.324 268.49 116.006V124H264.97V115.835C264.97 115.193 264.786 114.682 264.416 114.301C264.053 113.92 263.572 113.73 262.976 113.73C262.572 113.73 262.209 113.832 261.885 114.037C261.567 114.236 261.314 114.517 261.126 114.881C260.939 115.239 260.845 115.659 260.845 116.142V124H257.214ZM282.838 124.247C282.003 124.247 281.259 124.102 280.605 123.812C279.952 123.517 279.435 123.082 279.054 122.509C278.679 121.929 278.491 121.207 278.491 120.344C278.491 119.616 278.625 119.006 278.892 118.511C279.159 118.017 279.523 117.619 279.983 117.318C280.443 117.017 280.966 116.79 281.551 116.636C282.142 116.483 282.761 116.375 283.409 116.312C284.17 116.233 284.784 116.159 285.25 116.091C285.716 116.017 286.054 115.909 286.264 115.767C286.474 115.625 286.58 115.415 286.58 115.136V115.085C286.58 114.545 286.409 114.128 286.068 113.832C285.733 113.537 285.256 113.389 284.636 113.389C283.983 113.389 283.463 113.534 283.077 113.824C282.69 114.108 282.435 114.466 282.31 114.898L278.952 114.625C279.122 113.83 279.457 113.142 279.957 112.562C280.457 111.977 281.102 111.528 281.892 111.216C282.688 110.898 283.608 110.739 284.653 110.739C285.381 110.739 286.077 110.824 286.741 110.994C287.412 111.165 288.006 111.429 288.523 111.787C289.045 112.145 289.457 112.605 289.759 113.168C290.06 113.724 290.21 114.392 290.21 115.17V124H286.767V122.185H286.665C286.455 122.594 286.173 122.955 285.821 123.267C285.469 123.574 285.045 123.815 284.551 123.991C284.057 124.162 283.486 124.247 282.838 124.247ZM283.878 121.741C284.412 121.741 284.884 121.636 285.293 121.426C285.702 121.21 286.023 120.92 286.256 120.557C286.489 120.193 286.605 119.781 286.605 119.321V117.932C286.491 118.006 286.335 118.074 286.136 118.136C285.943 118.193 285.724 118.247 285.48 118.298C285.236 118.344 284.991 118.386 284.747 118.426C284.503 118.46 284.281 118.491 284.082 118.52C283.656 118.582 283.284 118.682 282.966 118.818C282.648 118.955 282.401 119.139 282.224 119.372C282.048 119.599 281.96 119.884 281.96 120.224C281.96 120.719 282.139 121.097 282.497 121.358C282.861 121.614 283.321 121.741 283.878 121.741Z" fill="white"/>
<path d="M389.859 119.455L393.374 130.506H393.509L397.032 119.455H400.441L395.427 134H391.464L386.443 119.455H389.859ZM410.083 123.638C410.026 123.065 409.782 122.62 409.351 122.303C408.92 121.985 408.335 121.827 407.597 121.827C407.095 121.827 406.671 121.898 406.325 122.04C405.98 122.177 405.715 122.369 405.53 122.615C405.35 122.861 405.26 123.141 405.26 123.453C405.251 123.714 405.305 123.941 405.423 124.135C405.547 124.329 405.715 124.497 405.928 124.639C406.141 124.777 406.387 124.897 406.666 125.001C406.946 125.101 407.244 125.186 407.561 125.257L408.868 125.57C409.503 125.712 410.085 125.901 410.615 126.138C411.146 126.375 411.605 126.666 411.993 127.011C412.381 127.357 412.682 127.764 412.895 128.233C413.113 128.702 413.224 129.239 413.229 129.845C413.224 130.735 412.997 131.507 412.547 132.161C412.102 132.809 411.458 133.313 410.615 133.673C409.777 134.028 408.766 134.206 407.583 134.206C406.408 134.206 405.386 134.026 404.514 133.666C403.648 133.306 402.971 132.774 402.483 132.068C402 131.358 401.747 130.48 401.723 129.433H404.699C404.732 129.921 404.872 130.328 405.118 130.655C405.369 130.977 405.703 131.221 406.119 131.386C406.541 131.547 407.017 131.628 407.547 131.628C408.068 131.628 408.52 131.552 408.904 131.401C409.292 131.249 409.593 131.038 409.806 130.768C410.019 130.499 410.125 130.188 410.125 129.838C410.125 129.511 410.028 129.237 409.834 129.014C409.645 128.792 409.365 128.602 408.996 128.446C408.631 128.29 408.184 128.148 407.654 128.02L406.07 127.622C404.843 127.324 403.875 126.857 403.165 126.223C402.455 125.589 402.102 124.734 402.107 123.659C402.102 122.778 402.336 122.009 402.81 121.351C403.288 120.693 403.944 120.179 404.777 119.81C405.61 119.44 406.557 119.256 407.618 119.256C408.698 119.256 409.64 119.44 410.445 119.81C411.254 120.179 411.884 120.693 412.334 121.351C412.784 122.009 413.016 122.771 413.03 123.638H410.083Z" fill="#FF6B6B"/>
<path d="M592 100H558C553.582 100 550 103.582 550 108V142C550 146.418 553.582 150 558 150H592C596.418 150 600 146.418 600 142V108C600 103.582 596.418 100 592 100Z" fill="url(#paint0_linear_41_232)"/>
<path d="M566.833 118.909L569.472 123.371H569.575L572.227 118.909H575.353L571.358 125.455L575.443 132H572.259L569.575 127.532H569.472L566.788 132H563.617L567.715 125.455L563.694 118.909H566.833ZM580.162 132.16C579.416 132.16 578.74 131.968 578.135 131.585C577.534 131.197 577.057 130.628 576.703 129.878C576.354 129.124 576.179 128.199 576.179 127.104C576.179 125.979 576.36 125.043 576.723 124.298C577.085 123.548 577.566 122.987 578.167 122.616C578.772 122.241 579.435 122.054 580.155 122.054C580.705 122.054 581.163 122.148 581.529 122.335C581.9 122.518 582.199 122.749 582.424 123.026C582.654 123.298 582.829 123.567 582.949 123.831H583.032V118.909H585.748V132H583.064V130.428H582.949C582.821 130.7 582.64 130.971 582.405 131.239C582.175 131.504 581.875 131.723 581.504 131.898C581.137 132.072 580.69 132.16 580.162 132.16ZM581.025 129.993C581.463 129.993 581.834 129.874 582.137 129.635C582.444 129.392 582.678 129.053 582.84 128.619C583.006 128.184 583.089 127.675 583.089 127.091C583.089 126.507 583.008 126 582.846 125.57C582.684 125.139 582.45 124.807 582.143 124.572C581.836 124.338 581.463 124.221 581.025 124.221C580.577 124.221 580.2 124.342 579.893 124.585C579.586 124.828 579.354 125.165 579.196 125.595C579.039 126.026 578.96 126.524 578.96 127.091C578.96 127.662 579.039 128.167 579.196 128.606C579.358 129.04 579.591 129.381 579.893 129.629C580.2 129.871 580.577 129.993 581.025 129.993Z" fill="white"/>
<path d="M624.526 124H620.571L626.597 106.545H631.352L637.369 124H633.415L629.043 110.534H628.906L624.526 124ZM624.278 117.139H633.619V120.02H624.278V117.139ZM643.616 124.213C642.622 124.213 641.722 123.957 640.915 123.446C640.114 122.929 639.477 122.17 639.006 121.17C638.54 120.165 638.307 118.932 638.307 117.472C638.307 115.972 638.548 114.724 639.031 113.73C639.514 112.73 640.156 111.983 640.957 111.489C641.764 110.989 642.648 110.739 643.608 110.739C644.341 110.739 644.952 110.864 645.44 111.114C645.935 111.358 646.332 111.665 646.634 112.034C646.94 112.398 647.173 112.756 647.332 113.108H647.443V106.545H651.065V124H647.486V121.903H647.332C647.162 122.267 646.92 122.628 646.608 122.986C646.301 123.338 645.901 123.631 645.406 123.864C644.918 124.097 644.321 124.213 643.616 124.213ZM644.767 121.324C645.352 121.324 645.847 121.165 646.25 120.847C646.659 120.523 646.972 120.071 647.188 119.491C647.409 118.912 647.52 118.233 647.52 117.455C647.52 116.676 647.412 116 647.196 115.426C646.98 114.852 646.668 114.409 646.259 114.097C645.849 113.784 645.352 113.628 644.767 113.628C644.17 113.628 643.668 113.79 643.259 114.114C642.849 114.437 642.54 114.886 642.33 115.46C642.119 116.034 642.014 116.699 642.014 117.455C642.014 118.216 642.119 118.889 642.33 119.474C642.545 120.054 642.855 120.509 643.259 120.838C643.668 121.162 644.17 121.324 644.767 121.324ZM659.965 124.256C658.641 124.256 657.496 123.974 656.531 123.412C655.57 122.844 654.829 122.054 654.306 121.043C653.783 120.026 653.522 118.847 653.522 117.506C653.522 116.153 653.783 114.972 654.306 113.96C654.829 112.943 655.57 112.153 656.531 111.591C657.496 111.023 658.641 110.739 659.965 110.739C661.289 110.739 662.431 111.023 663.391 111.591C664.357 112.153 665.102 112.943 665.624 113.96C666.147 114.972 666.408 116.153 666.408 117.506C666.408 118.847 666.147 120.026 665.624 121.043C665.102 122.054 664.357 122.844 663.391 123.412C662.431 123.974 661.289 124.256 659.965 124.256ZM659.982 121.443C660.585 121.443 661.087 121.273 661.491 120.932C661.894 120.585 662.198 120.114 662.403 119.517C662.613 118.92 662.718 118.241 662.718 117.48C662.718 116.719 662.613 116.04 662.403 115.443C662.198 114.847 661.894 114.375 661.491 114.028C661.087 113.682 660.585 113.509 659.982 113.509C659.374 113.509 658.863 113.682 658.448 114.028C658.039 114.375 657.729 114.847 657.519 115.443C657.315 116.04 657.212 116.719 657.212 117.48C657.212 118.241 657.315 118.92 657.519 119.517C657.729 120.114 658.039 120.585 658.448 120.932C658.863 121.273 659.374 121.443 659.982 121.443ZM668.837 124V106.545H672.468V113.108H672.579C672.738 112.756 672.968 112.398 673.269 112.034C673.576 111.665 673.974 111.358 674.462 111.114C674.957 110.864 675.57 110.739 676.303 110.739C677.258 110.739 678.138 110.989 678.945 111.489C679.752 111.983 680.397 112.73 680.88 113.73C681.363 114.724 681.604 115.972 681.604 117.472C681.604 118.932 681.369 120.165 680.897 121.17C680.431 122.17 679.795 122.929 678.988 123.446C678.187 123.957 677.289 124.213 676.295 124.213C675.59 124.213 674.991 124.097 674.496 123.864C674.008 123.631 673.607 123.338 673.295 122.986C672.982 122.628 672.744 122.267 672.579 121.903H672.417V124H668.837ZM672.391 117.455C672.391 118.233 672.499 118.912 672.715 119.491C672.931 120.071 673.244 120.523 673.653 120.847C674.062 121.165 674.559 121.324 675.144 121.324C675.735 121.324 676.235 121.162 676.644 120.838C677.053 120.509 677.363 120.054 677.573 119.474C677.789 118.889 677.897 118.216 677.897 117.455C677.897 116.699 677.792 116.034 677.582 115.46C677.371 114.886 677.062 114.437 676.653 114.114C676.244 113.79 675.741 113.628 675.144 113.628C674.553 113.628 674.053 113.784 673.644 114.097C673.241 114.409 672.931 114.852 672.715 115.426C672.499 116 672.391 116.676 672.391 117.455ZM689.993 124.256C688.646 124.256 687.487 123.983 686.516 123.438C685.55 122.886 684.805 122.108 684.283 121.102C683.76 120.091 683.499 118.895 683.499 117.514C683.499 116.168 683.76 114.986 684.283 113.969C684.805 112.952 685.541 112.159 686.49 111.591C687.445 111.023 688.564 110.739 689.848 110.739C690.712 110.739 691.516 110.878 692.26 111.156C693.01 111.429 693.663 111.841 694.22 112.392C694.783 112.943 695.22 113.636 695.533 114.472C695.845 115.301 696.001 116.273 696.001 117.386V118.384H684.947V116.134H692.584C692.584 115.611 692.47 115.148 692.243 114.744C692.016 114.341 691.7 114.026 691.297 113.798C690.899 113.565 690.436 113.449 689.908 113.449C689.357 113.449 688.868 113.577 688.442 113.832C688.021 114.082 687.692 114.42 687.453 114.847C687.214 115.267 687.092 115.736 687.087 116.253V118.392C687.087 119.04 687.206 119.599 687.445 120.071C687.689 120.543 688.033 120.906 688.476 121.162C688.919 121.418 689.445 121.545 690.053 121.545C690.456 121.545 690.825 121.489 691.161 121.375C691.496 121.261 691.783 121.091 692.021 120.864C692.26 120.636 692.442 120.358 692.567 120.028L695.925 120.25C695.754 121.057 695.405 121.761 694.876 122.364C694.354 122.96 693.678 123.426 692.848 123.761C692.024 124.091 691.072 124.256 689.993 124.256ZM707.454 106.545L710.974 112.494H711.11L714.647 106.545H718.815L713.488 115.273L718.934 124H714.69L711.11 118.043H710.974L707.394 124H703.167L708.63 115.273L703.269 106.545H707.454ZM727.337 124H721.15V106.545H727.388C729.144 106.545 730.656 106.895 731.923 107.594C733.19 108.287 734.164 109.284 734.846 110.585C735.533 111.886 735.877 113.443 735.877 115.256C735.877 117.074 735.533 118.636 734.846 119.943C734.164 121.25 733.184 122.253 731.906 122.952C730.633 123.651 729.11 124 727.337 124ZM724.84 120.838H727.184C728.275 120.838 729.192 120.645 729.937 120.259C730.687 119.866 731.249 119.261 731.624 118.443C732.005 117.619 732.195 116.557 732.195 115.256C732.195 113.966 732.005 112.912 731.624 112.094C731.249 111.276 730.69 110.673 729.945 110.287C729.201 109.901 728.283 109.707 727.192 109.707H724.84V120.838Z" fill="white"/>
</g>
<defs>
<linearGradient id="paint0_linear_41_232" x1="550" y1="100" x2="5550" y2="100" gradientUnits="userSpaceOnUse">
<stop stop-color="#FF61F6"/>
<stop offset="0.5" stop-color="#FF26D4"/>
<stop offset="1" stop-color="#470137"/>
</linearGradient>
<clipPath id="clip0_41_232">
<rect width="800" height="200" fill="white"/>
</clipPath>
</defs>
</svg>
