<svg width="300" height="200" viewBox="0 0 300 200" fill="none" xmlns="http://www.w3.org/2000/svg">
<path d="M290 0H10C4.47715 0 0 4.47715 0 10V190C0 195.523 4.47715 200 10 200H290C295.523 200 300 195.523 300 190V10C300 4.47715 295.523 0 290 0Z" fill="#F8F9FA"/>
<path d="M80 40H120L116 120L100 130L84 120L80 40Z" fill="#E34F26"/>
<path d="M100 50V115L112 110V50H100Z" fill="#EF652A"/>
<path d="M88 65H112L110 75H90L88 65Z" fill="white"/>
<path d="M90 85H110L108 95H92L90 85Z" fill="white"/>
<path d="M76.0978 150V139.818H78.2505V144.019H82.6206V139.818H84.7683V150H82.6206V145.794H78.2505V150H76.0978ZM86.1554 141.593V139.818H94.5176V141.593H91.4004V150H89.2725V141.593H86.1554ZM95.8947 139.818H98.5495L101.354 146.659H101.473L104.277 139.818H106.932V150H104.844V143.373H104.759L102.124 149.95H100.702L98.0673 143.348H97.9828V150H95.8947V139.818ZM108.705 150V139.818H110.858V148.225H115.223V150H108.705ZM120.308 150.139C119.605 150.139 118.979 150.01 118.428 149.751C117.882 149.493 117.447 149.137 117.126 148.683C116.804 148.228 116.637 147.708 116.624 147.121H118.712C118.735 147.516 118.901 147.836 119.209 148.081C119.517 148.326 119.883 148.449 120.308 148.449C120.646 148.449 120.944 148.374 121.203 148.225C121.464 148.073 121.668 147.862 121.814 147.594C121.963 147.322 122.038 147.01 122.038 146.659C122.038 146.301 121.962 145.986 121.809 145.714C121.66 145.443 121.453 145.231 121.188 145.078C120.923 144.926 120.619 144.848 120.278 144.844C119.98 144.844 119.69 144.906 119.408 145.028C119.129 145.151 118.912 145.318 118.757 145.531L116.843 145.188L117.325 139.818H123.549V141.578H119.1L118.836 144.129H118.896C119.075 143.877 119.345 143.668 119.706 143.502C120.067 143.336 120.472 143.254 120.919 143.254C121.532 143.254 122.079 143.398 122.56 143.686C123.04 143.974 123.42 144.371 123.698 144.874C123.977 145.375 124.114 145.951 124.111 146.604C124.114 147.29 123.955 147.9 123.634 148.434C123.316 148.964 122.87 149.382 122.296 149.687C121.726 149.988 121.063 150.139 120.308 150.139Z" fill="#2C3E50"/>
<path d="M180 40H220L216 120L200 130L184 120L180 40Z" fill="#1572B6"/>
<path d="M200 50V115L212 110V50H200Z" fill="#33A9DC"/>
<path d="M188 65H212L210 75H190L188 65Z" fill="white"/>
<path d="M190 85H210L208 95H192L190 85Z" fill="white"/>
<path d="M190.817 143.383H188.639C188.6 143.101 188.518 142.851 188.396 142.632C188.273 142.41 188.116 142.221 187.923 142.065C187.731 141.91 187.509 141.79 187.257 141.707C187.009 141.625 186.738 141.583 186.447 141.583C185.92 141.583 185.461 141.714 185.07 141.976C184.679 142.234 184.375 142.612 184.16 143.109C183.944 143.603 183.837 144.203 183.837 144.909C183.837 145.635 183.944 146.245 184.16 146.739C184.379 147.232 184.684 147.605 185.075 147.857C185.466 148.109 185.918 148.235 186.432 148.235C186.72 148.235 186.987 148.197 187.232 148.121C187.481 148.045 187.701 147.933 187.894 147.788C188.086 147.638 188.245 147.458 188.371 147.246C188.5 147.034 188.59 146.792 188.639 146.52L190.817 146.53C190.761 146.997 190.62 147.448 190.394 147.882C190.172 148.313 189.872 148.699 189.494 149.04C189.12 149.379 188.672 149.647 188.152 149.846C187.635 150.041 187.05 150.139 186.397 150.139C185.489 150.139 184.677 149.934 183.961 149.523C183.248 149.112 182.685 148.517 182.271 147.738C181.86 146.959 181.654 146.016 181.654 144.909C181.654 143.799 181.863 142.854 182.281 142.075C182.698 141.296 183.265 140.703 183.981 140.295C184.697 139.884 185.502 139.679 186.397 139.679C186.987 139.679 187.534 139.762 188.038 139.928C188.545 140.093 188.994 140.335 189.385 140.653C189.776 140.968 190.094 141.354 190.34 141.812C190.588 142.269 190.747 142.793 190.817 143.383ZM197.884 142.746C197.844 142.345 197.674 142.034 197.372 141.812C197.07 141.59 196.661 141.479 196.144 141.479C195.793 141.479 195.496 141.528 195.254 141.628C195.012 141.724 194.826 141.858 194.697 142.031C194.571 142.203 194.508 142.398 194.508 142.617C194.502 142.799 194.54 142.959 194.623 143.094C194.709 143.23 194.826 143.348 194.976 143.447C195.125 143.544 195.297 143.628 195.493 143.701C195.688 143.771 195.897 143.83 196.119 143.88L197.034 144.099C197.478 144.198 197.886 144.331 198.257 144.496C198.628 144.662 198.95 144.866 199.221 145.108C199.493 145.35 199.704 145.635 199.853 145.963C200.005 146.291 200.083 146.667 200.086 147.092C200.083 147.715 199.924 148.255 199.609 148.712C199.298 149.166 198.847 149.519 198.257 149.771C197.67 150.02 196.963 150.144 196.134 150.144C195.312 150.144 194.596 150.018 193.986 149.766C193.38 149.514 192.906 149.142 192.564 148.648C192.226 148.151 192.049 147.536 192.032 146.803H194.116C194.139 147.145 194.236 147.43 194.409 147.658C194.584 147.884 194.818 148.054 195.11 148.17C195.405 148.283 195.738 148.339 196.109 148.339C196.474 148.339 196.79 148.286 197.059 148.18C197.33 148.074 197.541 147.927 197.69 147.738C197.839 147.549 197.914 147.332 197.914 147.087C197.914 146.858 197.846 146.666 197.71 146.51C197.577 146.354 197.382 146.222 197.123 146.112C196.868 146.003 196.555 145.903 196.184 145.814L195.075 145.536C194.217 145.327 193.539 145 193.042 144.556C192.544 144.112 192.298 143.514 192.301 142.761C192.298 142.145 192.462 141.606 192.793 141.146C193.128 140.685 193.587 140.325 194.17 140.067C194.754 139.808 195.416 139.679 196.159 139.679C196.915 139.679 197.574 139.808 198.138 140.067C198.704 140.325 199.145 140.685 199.46 141.146C199.775 141.606 199.937 142.14 199.947 142.746H197.884ZM207.058 142.746C207.018 142.345 206.847 142.034 206.546 141.812C206.244 141.59 205.835 141.479 205.318 141.479C204.966 141.479 204.67 141.528 204.428 141.628C204.186 141.724 204 141.858 203.871 142.031C203.745 142.203 203.682 142.398 203.682 142.617C203.675 142.799 203.714 142.959 203.796 143.094C203.883 143.23 204 143.348 204.149 143.447C204.299 143.544 204.471 143.628 204.666 143.701C204.862 143.771 205.071 143.83 205.293 143.88L206.208 144.099C206.652 144.198 207.059 144.331 207.431 144.496C207.802 144.662 208.123 144.866 208.395 145.108C208.667 145.35 208.877 145.635 209.027 145.963C209.179 146.291 209.257 146.667 209.26 147.092C209.257 147.715 209.098 148.255 208.783 148.712C208.471 149.166 208.021 149.519 207.431 149.771C206.844 150.02 206.136 150.144 205.308 150.144C204.486 150.144 203.77 150.018 203.16 149.766C202.554 149.514 202.08 149.142 201.738 148.648C201.4 148.151 201.223 147.536 201.206 146.803H203.289C203.313 147.145 203.41 147.43 203.583 147.658C203.758 147.884 203.992 148.054 204.284 148.17C204.579 148.283 204.912 148.339 205.283 148.339C205.648 148.339 205.964 148.286 206.233 148.18C206.504 148.074 206.715 147.927 206.864 147.738C207.013 147.549 207.088 147.332 207.088 147.087C207.088 146.858 207.02 146.666 206.884 146.51C206.751 146.354 206.556 146.222 206.297 146.112C206.042 146.003 205.729 145.903 205.358 145.814L204.249 145.536C203.39 145.327 202.713 145 202.215 144.556C201.718 144.112 201.471 143.514 201.475 142.761C201.471 142.145 201.635 141.606 201.967 141.146C202.302 140.685 202.761 140.325 203.344 140.067C203.927 139.808 204.59 139.679 205.333 139.679C206.088 139.679 206.748 139.808 207.311 140.067C207.878 140.325 208.319 140.685 208.634 141.146C208.949 141.606 209.111 142.14 209.121 142.746H207.058ZM214.412 150.139C213.67 150.139 213.008 150.012 212.428 149.756C211.852 149.498 211.396 149.143 211.061 148.692C210.73 148.238 210.559 147.715 210.549 147.121H212.717C212.73 147.37 212.811 147.589 212.96 147.778C213.113 147.963 213.315 148.107 213.567 148.21C213.819 148.313 214.102 148.364 214.417 148.364C214.745 148.364 215.035 148.306 215.287 148.19C215.539 148.074 215.736 147.914 215.879 147.708C216.021 147.503 216.092 147.266 216.092 146.997C216.092 146.725 216.016 146.485 215.864 146.276C215.715 146.064 215.499 145.898 215.217 145.779C214.939 145.66 214.608 145.6 214.223 145.6H213.274V144.019H214.223C214.548 144.019 214.835 143.963 215.083 143.85C215.335 143.737 215.531 143.582 215.67 143.383C215.809 143.181 215.879 142.945 215.879 142.677C215.879 142.422 215.817 142.198 215.695 142.006C215.575 141.81 215.406 141.658 215.188 141.548C214.972 141.439 214.72 141.384 214.432 141.384C214.14 141.384 213.873 141.437 213.631 141.543C213.39 141.646 213.196 141.794 213.05 141.986C212.904 142.178 212.826 142.403 212.816 142.662H210.753C210.763 142.075 210.93 141.558 211.255 141.111C211.58 140.663 212.017 140.314 212.568 140.062C213.121 139.807 213.746 139.679 214.442 139.679C215.145 139.679 215.759 139.807 216.286 140.062C216.813 140.317 217.223 140.662 217.514 141.096C217.809 141.527 217.955 142.011 217.952 142.548C217.955 143.118 217.778 143.593 217.42 143.974C217.065 144.356 216.603 144.598 216.033 144.7V144.78C216.782 144.876 217.352 145.136 217.743 145.56C218.137 145.981 218.333 146.508 218.33 147.141C218.333 147.721 218.166 148.237 217.828 148.688C217.493 149.138 217.03 149.493 216.44 149.751C215.85 150.01 215.174 150.139 214.412 150.139Z" fill="#2C3E50"/>
<path d="M120 80H180" stroke="#3498DB" stroke-width="3"/>
<path d="M150 88C154.418 88 158 84.4183 158 80C158 75.5817 154.418 72 150 72C145.582 72 142 75.5817 142 80C142 84.4183 145.582 88 150 88Z" fill="#3498DB"/>
<path d="M149.237 84.527V78.4929H150.763V84.527H149.237ZM146.983 82.2727V80.7472H153.017V82.2727H146.983Z" fill="white"/>
<path d="M87.9893 16.4375H85.5007C85.4553 16.1155 85.3625 15.8295 85.2223 15.5795C85.0822 15.3258 84.9022 15.1098 84.6825 14.9318C84.4628 14.7538 84.209 14.6174 83.9212 14.5227C83.6371 14.428 83.3284 14.3807 82.995 14.3807C82.3928 14.3807 81.8681 14.5303 81.4212 14.8295C80.9742 15.125 80.6276 15.5568 80.3814 16.125C80.1352 16.6894 80.0121 17.375 80.0121 18.1818C80.0121 19.0114 80.1352 19.7083 80.3814 20.2727C80.6314 20.8371 80.9799 21.2633 81.4268 21.5511C81.8738 21.839 82.3909 21.983 82.978 21.983C83.3075 21.983 83.6125 21.9394 83.8928 21.8523C84.1768 21.7652 84.4287 21.6383 84.6484 21.4716C84.8681 21.3011 85.05 21.0947 85.1939 20.8523C85.3416 20.6098 85.4439 20.3333 85.5007 20.0227L87.9893 20.0341C87.925 20.5682 87.764 21.0833 87.5064 21.5795C87.2526 22.072 86.9098 22.5133 86.478 22.9034C86.05 23.2898 85.5386 23.5966 84.9439 23.8239C84.353 24.0473 83.6844 24.1591 82.9382 24.1591C81.9003 24.1591 80.9723 23.9242 80.1541 23.4545C79.3397 22.9848 78.6958 22.3049 78.2223 21.4148C77.7526 20.5246 77.5178 19.447 77.5178 18.1818C77.5178 16.9129 77.7564 15.8333 78.2337 14.9432C78.7109 14.053 79.3587 13.375 80.1768 12.9091C80.995 12.4394 81.9155 12.2045 82.9382 12.2045C83.6125 12.2045 84.2375 12.2992 84.8132 12.4886C85.3928 12.678 85.906 12.9545 86.353 13.3182C86.8 13.678 87.1636 14.1193 87.4439 14.642C87.728 15.1648 87.9098 15.7633 87.9893 16.4375ZM93.6513 24.1705C92.7687 24.1705 92.0054 23.983 91.3615 23.608C90.7214 23.2292 90.227 22.7027 89.8786 22.0284C89.5301 21.3504 89.3558 20.5644 89.3558 19.6705C89.3558 18.7689 89.5301 17.9811 89.8786 17.3068C90.227 16.6288 90.7214 16.1023 91.3615 15.7273C92.0054 15.3485 92.7687 15.1591 93.6513 15.1591C94.5339 15.1591 95.2952 15.3485 95.9354 15.7273C96.5793 16.1023 97.0755 16.6288 97.424 17.3068C97.7725 17.9811 97.9467 18.7689 97.9467 19.6705C97.9467 20.5644 97.7725 21.3504 97.424 22.0284C97.0755 22.7027 96.5793 23.2292 95.9354 23.608C95.2952 23.983 94.5339 24.1705 93.6513 24.1705ZM93.6626 22.2955C94.0642 22.2955 94.3994 22.1818 94.6683 21.9545C94.9373 21.7235 95.1399 21.4091 95.2763 21.0114C95.4164 20.6136 95.4865 20.161 95.4865 19.6534C95.4865 19.1458 95.4164 18.6932 95.2763 18.2955C95.1399 17.8977 94.9373 17.5833 94.6683 17.3523C94.3994 17.1212 94.0642 17.0057 93.6626 17.0057C93.2573 17.0057 92.9164 17.1212 92.6399 17.3523C92.3672 17.5833 92.1607 17.8977 92.0206 18.2955C91.8842 18.6932 91.8161 19.1458 91.8161 19.6534C91.8161 20.161 91.8842 20.6136 92.0206 21.0114C92.1607 21.4091 92.3672 21.7235 92.6399 21.9545C92.9164 22.1818 93.2573 22.2955 93.6626 22.2955ZM99.5206 24V15.2727H101.867V16.7955H101.958C102.117 16.2538 102.384 15.8447 102.759 15.5682C103.134 15.2879 103.566 15.1477 104.055 15.1477C104.176 15.1477 104.307 15.1553 104.447 15.1705C104.587 15.1856 104.71 15.2064 104.816 15.233V17.3807C104.702 17.3466 104.545 17.3163 104.344 17.2898C104.144 17.2633 103.96 17.25 103.793 17.25C103.437 17.25 103.119 17.3277 102.839 17.483C102.562 17.6345 102.343 17.8466 102.18 18.1193C102.021 18.392 101.941 18.7064 101.941 19.0625V24H99.5206ZM109.638 24.1705C108.741 24.1705 107.968 23.9886 107.32 23.625C106.676 23.2576 106.18 22.7386 105.832 22.0682C105.483 21.3939 105.309 20.5966 105.309 19.6761C105.309 18.7784 105.483 17.9905 105.832 17.3125C106.18 16.6345 106.671 16.1061 107.303 15.7273C107.94 15.3485 108.686 15.1591 109.542 15.1591C110.118 15.1591 110.654 15.2519 111.15 15.4375C111.65 15.6193 112.085 15.8939 112.457 16.2614C112.832 16.6288 113.123 17.0909 113.332 17.6477C113.54 18.2008 113.644 18.8485 113.644 19.5909V20.2557H106.275V18.7557H111.366C111.366 18.4072 111.29 18.0985 111.138 17.8295C110.987 17.5606 110.777 17.3504 110.508 17.1989C110.243 17.0436 109.934 16.9659 109.582 16.9659C109.214 16.9659 108.888 17.0511 108.604 17.2216C108.324 17.3883 108.104 17.6136 107.945 17.8977C107.786 18.178 107.705 18.4905 107.701 18.8352V20.2614C107.701 20.6932 107.781 21.0663 107.94 21.3807C108.103 21.6951 108.332 21.9375 108.627 22.108C108.923 22.2784 109.273 22.3636 109.678 22.3636C109.947 22.3636 110.193 22.3258 110.417 22.25C110.64 22.1742 110.832 22.0606 110.991 21.9091C111.15 21.7576 111.271 21.572 111.354 21.3523L113.593 21.5C113.479 22.0379 113.246 22.5076 112.894 22.9091C112.546 23.3068 112.095 23.6174 111.542 23.8409C110.993 24.0606 110.358 24.1705 109.638 24.1705ZM118.529 14.392V12.3636H128.086V14.392H124.523V24H122.092V14.392H118.529ZM132.326 24.1705C131.428 24.1705 130.656 23.9886 130.008 23.625C129.364 23.2576 128.868 22.7386 128.519 22.0682C128.171 21.3939 127.996 20.5966 127.996 19.6761C127.996 18.7784 128.171 17.9905 128.519 17.3125C128.868 16.6345 129.358 16.1061 129.991 15.7273C130.627 15.3485 131.373 15.1591 132.229 15.1591C132.805 15.1591 133.341 15.2519 133.837 15.4375C134.337 15.6193 134.773 15.8939 135.144 16.2614C135.519 16.6288 135.811 17.0909 136.019 17.6477C136.228 18.2008 136.332 18.8485 136.332 19.5909V20.2557H128.962V18.7557H134.053C134.053 18.4072 133.978 18.0985 133.826 17.8295C133.674 17.5606 133.464 17.3504 133.195 17.1989C132.93 17.0436 132.621 16.9659 132.269 16.9659C131.902 16.9659 131.576 17.0511 131.292 17.2216C131.012 17.3883 130.792 17.6136 130.633 17.8977C130.474 18.178 130.392 18.4905 130.388 18.8352V20.2614C130.388 20.6932 130.468 21.0663 130.627 21.3807C130.79 21.6951 131.019 21.9375 131.315 22.108C131.61 22.2784 131.96 22.3636 132.366 22.3636C132.635 22.3636 132.881 22.3258 133.104 22.25C133.328 22.1742 133.519 22.0606 133.678 21.9091C133.837 21.7576 133.959 21.572 134.042 21.3523L136.281 21.5C136.167 22.0379 135.934 22.5076 135.582 22.9091C135.233 23.3068 134.782 23.6174 134.229 23.8409C133.68 24.0606 133.046 24.1705 132.326 24.1705ZM141.854 24.1705C140.96 24.1705 140.192 23.9811 139.548 23.6023C138.907 23.2197 138.415 22.6894 138.07 22.0114C137.729 21.3333 137.559 20.553 137.559 19.6705C137.559 18.7765 137.731 17.9924 138.076 17.3182C138.424 16.6402 138.919 16.1117 139.559 15.733C140.199 15.3504 140.96 15.1591 141.843 15.1591C142.604 15.1591 143.271 15.2973 143.843 15.5739C144.415 15.8504 144.868 16.2386 145.201 16.7386C145.534 17.2386 145.718 17.8258 145.752 18.5H143.468C143.404 18.0644 143.233 17.714 142.957 17.4489C142.684 17.1799 142.326 17.0455 141.883 17.0455C141.508 17.0455 141.18 17.1477 140.9 17.3523C140.623 17.553 140.407 17.8466 140.252 18.233C140.097 18.6193 140.019 19.0871 140.019 19.6364C140.019 20.1932 140.095 20.6667 140.246 21.0568C140.402 21.447 140.62 21.7443 140.9 21.9489C141.18 22.1534 141.508 22.2557 141.883 22.2557C142.159 22.2557 142.407 22.1989 142.627 22.0852C142.851 21.9716 143.034 21.8068 143.178 21.5909C143.326 21.3712 143.423 21.108 143.468 20.8011H145.752C145.714 21.4678 145.532 22.0549 145.207 22.5625C144.885 23.0663 144.44 23.4602 143.871 23.7443C143.303 24.0284 142.631 24.1705 141.854 24.1705ZM149.722 18.9545V24H147.302V12.3636H149.654V16.8125H149.756C149.953 16.2973 150.272 15.8939 150.711 15.6023C151.15 15.3068 151.701 15.1591 152.364 15.1591C152.97 15.1591 153.499 15.2917 153.95 15.5568C154.404 15.8182 154.756 16.1951 155.006 16.6875C155.26 17.1761 155.385 17.7614 155.381 18.4432V24H152.961V18.875C152.965 18.3371 152.828 17.9186 152.552 17.6193C152.279 17.3201 151.897 17.1705 151.404 17.1705C151.075 17.1705 150.783 17.2405 150.529 17.3807C150.279 17.5208 150.082 17.7254 149.938 17.9943C149.798 18.2595 149.726 18.5795 149.722 18.9545ZM159.707 18.9545V24H157.286V15.2727H159.593V16.8125H159.695C159.888 16.3049 160.212 15.9034 160.667 15.608C161.121 15.3087 161.673 15.1591 162.32 15.1591C162.926 15.1591 163.455 15.2917 163.906 15.5568C164.356 15.822 164.707 16.2008 164.957 16.6932C165.207 17.1818 165.332 17.7652 165.332 18.4432V24H162.911V18.875C162.915 18.3409 162.779 17.9242 162.502 17.625C162.226 17.322 161.845 17.1705 161.36 17.1705C161.034 17.1705 160.746 17.2405 160.496 17.3807C160.25 17.5208 160.057 17.7254 159.917 17.9943C159.781 18.2595 159.71 18.5795 159.707 18.9545ZM171.183 24.1705C170.3 24.1705 169.537 23.983 168.893 23.608C168.253 23.2292 167.758 22.7027 167.41 22.0284C167.061 21.3504 166.887 20.5644 166.887 19.6705C166.887 18.7689 167.061 17.9811 167.41 17.3068C167.758 16.6288 168.253 16.1023 168.893 15.7273C169.537 15.3485 170.3 15.1591 171.183 15.1591C172.065 15.1591 172.826 15.3485 173.467 15.7273C174.111 16.1023 174.607 16.6288 174.955 17.3068C175.304 17.9811 175.478 18.7689 175.478 19.6705C175.478 20.5644 175.304 21.3504 174.955 22.0284C174.607 22.7027 174.111 23.2292 173.467 23.608C172.826 23.983 172.065 24.1705 171.183 24.1705ZM171.194 22.2955C171.595 22.2955 171.931 22.1818 172.2 21.9545C172.469 21.7235 172.671 21.4091 172.808 21.0114C172.948 20.6136 173.018 20.161 173.018 19.6534C173.018 19.1458 172.948 18.6932 172.808 18.2955C172.671 17.8977 172.469 17.5833 172.2 17.3523C171.931 17.1212 171.595 17.0057 171.194 17.0057C170.789 17.0057 170.448 17.1212 170.171 17.3523C169.898 17.5833 169.692 17.8977 169.552 18.2955C169.415 18.6932 169.347 19.1458 169.347 19.6534C169.347 20.161 169.415 20.6136 169.552 21.0114C169.692 21.4091 169.898 21.7235 170.171 21.9545C170.448 22.1818 170.789 22.2955 171.194 22.2955ZM179.472 12.3636V24H177.052V12.3636H179.472ZM185.354 24.1705C184.472 24.1705 183.709 23.983 183.065 23.608C182.424 23.2292 181.93 22.7027 181.582 22.0284C181.233 21.3504 181.059 20.5644 181.059 19.6705C181.059 18.7689 181.233 17.9811 181.582 17.3068C181.93 16.6288 182.424 16.1023 183.065 15.7273C183.709 15.3485 184.472 15.1591 185.354 15.1591C186.237 15.1591 186.998 15.3485 187.638 15.7273C188.282 16.1023 188.779 16.6288 189.127 17.3068C189.476 17.9811 189.65 18.7689 189.65 19.6705C189.65 20.5644 189.476 21.3504 189.127 22.0284C188.779 22.7027 188.282 23.2292 187.638 23.608C186.998 23.983 186.237 24.1705 185.354 24.1705ZM185.366 22.2955C185.767 22.2955 186.103 22.1818 186.371 21.9545C186.64 21.7235 186.843 21.4091 186.979 21.0114C187.12 20.6136 187.19 20.161 187.19 19.6534C187.19 19.1458 187.12 18.6932 186.979 18.2955C186.843 17.8977 186.64 17.5833 186.371 17.3523C186.103 17.1212 185.767 17.0057 185.366 17.0057C184.96 17.0057 184.62 17.1212 184.343 17.3523C184.07 17.5833 183.864 17.8977 183.724 18.2955C183.587 18.6932 183.519 19.1458 183.519 19.6534C183.519 20.161 183.587 20.6136 183.724 21.0114C183.864 21.4091 184.07 21.7235 184.343 21.9545C184.62 22.1818 184.96 22.2955 185.366 22.2955ZM195.156 27.4545C194.371 27.4545 193.699 27.3466 193.138 27.1307C192.582 26.9186 192.138 26.6288 191.809 26.2614C191.479 25.8939 191.265 25.4811 191.167 25.0227L193.406 24.7216C193.474 24.8958 193.582 25.0587 193.729 25.2102C193.877 25.3617 194.072 25.483 194.315 25.5739C194.561 25.6686 194.86 25.7159 195.212 25.7159C195.739 25.7159 196.173 25.5871 196.513 25.3295C196.858 25.0758 197.031 24.6496 197.031 24.0511V22.4545H196.928C196.822 22.697 196.663 22.9261 196.451 23.142C196.239 23.358 195.966 23.5341 195.633 23.6705C195.299 23.8068 194.902 23.875 194.44 23.875C193.784 23.875 193.188 23.7235 192.65 23.4205C192.116 23.1136 191.69 22.6458 191.371 22.017C191.057 21.3845 190.9 20.5852 190.9 19.6193C190.9 18.6307 191.061 17.8049 191.383 17.142C191.705 16.4792 192.133 15.983 192.667 15.6534C193.205 15.3239 193.794 15.1591 194.434 15.1591C194.923 15.1591 195.332 15.2424 195.661 15.4091C195.991 15.572 196.256 15.7765 196.457 16.0227C196.661 16.2652 196.818 16.5038 196.928 16.7386H197.019V15.2727H199.423V24.0852C199.423 24.8277 199.241 25.4489 198.877 25.9489C198.513 26.4489 198.01 26.8239 197.366 27.0739C196.726 27.3277 195.989 27.4545 195.156 27.4545ZM195.207 22.0568C195.597 22.0568 195.926 21.9602 196.195 21.767C196.468 21.5701 196.676 21.2898 196.82 20.9261C196.968 20.5587 197.042 20.1193 197.042 19.608C197.042 19.0966 196.97 18.6534 196.826 18.2784C196.682 17.8996 196.474 17.6061 196.201 17.3977C195.928 17.1894 195.597 17.0852 195.207 17.0852C194.809 17.0852 194.474 17.1932 194.201 17.4091C193.928 17.6212 193.722 17.9167 193.582 18.2955C193.442 18.6742 193.371 19.1117 193.371 19.608C193.371 20.1117 193.442 20.5473 193.582 20.9148C193.726 21.2784 193.932 21.5606 194.201 21.7614C194.474 21.9583 194.809 22.0568 195.207 22.0568ZM201.349 24V15.2727H203.769V24H201.349ZM202.565 14.1477C202.205 14.1477 201.896 14.0284 201.638 13.7898C201.385 13.5473 201.258 13.2576 201.258 12.9205C201.258 12.5871 201.385 12.3011 201.638 12.0625C201.896 11.8201 202.205 11.6989 202.565 11.6989C202.924 11.6989 203.231 11.8201 203.485 12.0625C203.743 12.3011 203.871 12.5871 203.871 12.9205C203.871 13.2576 203.743 13.5473 203.485 13.7898C203.231 14.0284 202.924 14.1477 202.565 14.1477ZM209.685 24.1705C208.788 24.1705 208.015 23.9886 207.367 23.625C206.723 23.2576 206.227 22.7386 205.879 22.0682C205.53 21.3939 205.356 20.5966 205.356 19.6761C205.356 18.7784 205.53 17.9905 205.879 17.3125C206.227 16.6345 206.718 16.1061 207.35 15.7273C207.987 15.3485 208.733 15.1591 209.589 15.1591C210.165 15.1591 210.701 15.2519 211.197 15.4375C211.697 15.6193 212.132 15.8939 212.504 16.2614C212.879 16.6288 213.17 17.0909 213.379 17.6477C213.587 18.2008 213.691 18.8485 213.691 19.5909V20.2557H206.322V18.7557H211.413C211.413 18.4072 211.337 18.0985 211.185 17.8295C211.034 17.5606 210.824 17.3504 210.555 17.1989C210.29 17.0436 209.981 16.9659 209.629 16.9659C209.261 16.9659 208.935 17.0511 208.651 17.2216C208.371 17.3883 208.151 17.6136 207.992 17.8977C207.833 18.178 207.752 18.4905 207.748 18.8352V20.2614C207.748 20.6932 207.827 21.0663 207.987 21.3807C208.149 21.6951 208.379 21.9375 208.674 22.108C208.969 22.2784 209.32 22.3636 209.725 22.3636C209.994 22.3636 210.24 22.3258 210.464 22.25C210.687 22.1742 210.879 22.0606 211.038 21.9091C211.197 21.7576 211.318 21.572 211.401 21.3523L213.64 21.5C213.526 22.0379 213.293 22.5076 212.941 22.9091C212.593 23.3068 212.142 23.6174 211.589 23.8409C211.04 24.0606 210.405 24.1705 209.685 24.1705ZM222.532 17.7614L220.316 17.8977C220.278 17.7083 220.197 17.5379 220.072 17.3864C219.947 17.2311 219.782 17.108 219.577 17.017C219.377 16.9223 219.136 16.875 218.856 16.875C218.481 16.875 218.165 16.9545 217.907 17.1136C217.649 17.2689 217.521 17.4773 217.521 17.7386C217.521 17.947 217.604 18.1231 217.771 18.267C217.937 18.411 218.223 18.5265 218.629 18.6136L220.208 18.9318C221.057 19.1061 221.689 19.3864 222.106 19.7727C222.522 20.1591 222.731 20.6667 222.731 21.2955C222.731 21.8674 222.562 22.3693 222.225 22.8011C221.892 23.233 221.433 23.5701 220.85 23.8125C220.271 24.0511 219.602 24.1705 218.844 24.1705C217.689 24.1705 216.769 23.9299 216.083 23.4489C215.401 22.964 215.002 22.3049 214.884 21.4716L217.265 21.3466C217.337 21.6989 217.511 21.9678 217.788 22.1534C218.064 22.3352 218.418 22.4261 218.85 22.4261C219.274 22.4261 219.615 22.3447 219.873 22.1818C220.134 22.0152 220.267 21.8011 220.271 21.5398C220.267 21.3201 220.174 21.1402 219.992 21C219.81 20.8561 219.53 20.7462 219.151 20.6705L217.64 20.3693C216.788 20.1989 216.153 19.9034 215.737 19.483C215.324 19.0625 215.117 18.5265 215.117 17.875C215.117 17.3144 215.269 16.8314 215.572 16.4261C215.879 16.0208 216.308 15.7083 216.862 15.4886C217.418 15.2689 218.07 15.1591 218.816 15.1591C219.918 15.1591 220.786 15.392 221.418 15.858C222.055 16.3239 222.426 16.9583 222.532 17.7614Z" fill="#2C3E50"/>
</svg>
