<svg width="274" height="362" viewBox="0 0 274 362" fill="none" xmlns="http://www.w3.org/2000/svg">
<path d="M265 1H21C16.5817 1 13 4.58172 13 9V353C13 357.418 16.5817 361 21 361H265C269.418 361 273 357.418 273 353V9C273 4.58172 269.418 1 265 1Z" fill="white" stroke="#BDC3C7" stroke-width="2"/>
<path d="M260 11H26C24.3431 11 23 12.3431 23 14V43C23 44.6569 24.3431 46 26 46H260C261.657 46 263 44.6569 263 43V14C263 12.3431 261.657 11 260 11Z" fill="#3498DB"/>
<path d="M83.9577 32V23.2727H85.8029V26.8736H89.5487V23.2727H91.3896V32H89.5487V28.3949H85.8029V32H83.9577ZM95.8597 32.1278C95.1864 32.1278 94.6069 31.9915 94.1211 31.7188C93.6381 31.4432 93.266 31.054 93.0046 30.5511C92.7433 30.0455 92.6126 29.4474 92.6126 28.7571C92.6126 28.0838 92.7433 27.4929 93.0046 26.9844C93.266 26.4759 93.6339 26.0795 94.1083 25.7955C94.5856 25.5114 95.1452 25.3693 95.7873 25.3693C96.2191 25.3693 96.6211 25.4389 96.9933 25.5781C97.3683 25.7145 97.695 25.9205 97.9734 26.196C98.2546 26.4716 98.4734 26.8182 98.6296 27.2358C98.7859 27.6506 98.864 28.1364 98.864 28.6932V29.1918H93.337V28.0668H97.1552C97.1552 27.8054 97.0984 27.5739 96.9847 27.3722C96.8711 27.1705 96.7134 27.0128 96.5117 26.8991C96.3129 26.7827 96.0813 26.7244 95.8171 26.7244C95.5415 26.7244 95.2972 26.7884 95.0842 26.9162C94.8739 27.0412 94.7092 27.2102 94.5898 27.4233C94.4705 27.6335 94.4094 27.8679 94.4066 28.1264V29.196C94.4066 29.5199 94.4663 29.7997 94.5856 30.0355C94.7077 30.2713 94.8796 30.4531 95.1012 30.581C95.3228 30.7088 95.5856 30.7727 95.8896 30.7727C96.0913 30.7727 96.2759 30.7443 96.4435 30.6875C96.6112 30.6307 96.7546 30.5455 96.8739 30.4318C96.9933 30.3182 97.0842 30.179 97.1467 30.0142L98.8256 30.125C98.7404 30.5284 98.5657 30.8807 98.3015 31.1818C98.0401 31.4801 97.7021 31.7131 97.2873 31.8807C96.8754 32.0455 96.3995 32.1278 95.8597 32.1278ZM101.915 32.1236C101.498 32.1236 101.125 32.0511 100.799 31.9062C100.472 31.7585 100.213 31.5412 100.023 31.2543C99.8356 30.9645 99.7418 30.6037 99.7418 30.1719C99.7418 29.8082 99.8086 29.5028 99.9421 29.2557C100.076 29.0085 100.257 28.8097 100.488 28.6591C100.718 28.5085 100.979 28.3949 101.272 28.3182C101.567 28.2415 101.877 28.1875 102.201 28.1562C102.581 28.1165 102.888 28.0795 103.121 28.0455C103.354 28.0085 103.523 27.9545 103.628 27.8835C103.733 27.8125 103.786 27.7074 103.786 27.5682V27.5426C103.786 27.2727 103.701 27.0639 103.53 26.9162C103.363 26.7685 103.124 26.6946 102.814 26.6946C102.488 26.6946 102.228 26.767 102.034 26.9119C101.841 27.054 101.713 27.233 101.651 27.4489L99.9719 27.3125C100.057 26.9148 100.225 26.571 100.475 26.2812C100.725 25.9886 101.047 25.7642 101.442 25.608C101.84 25.4489 102.3 25.3693 102.823 25.3693C103.186 25.3693 103.534 25.4119 103.867 25.4972C104.202 25.5824 104.499 25.7145 104.757 25.8935C105.019 26.0724 105.225 26.3026 105.375 26.5838C105.526 26.8622 105.601 27.196 105.601 27.5852V32H103.88V31.0923H103.828C103.723 31.2969 103.583 31.4773 103.407 31.6335C103.23 31.7869 103.019 31.9077 102.772 31.9957C102.525 32.081 102.239 32.1236 101.915 32.1236ZM102.435 30.8707C102.702 30.8707 102.938 30.8182 103.142 30.7131C103.347 30.6051 103.507 30.4602 103.624 30.2784C103.74 30.0966 103.799 29.8906 103.799 29.6605V28.9659C103.742 29.0028 103.664 29.0369 103.564 29.0682C103.468 29.0966 103.358 29.1236 103.236 29.1491C103.114 29.1719 102.992 29.1932 102.87 29.2131C102.748 29.2301 102.637 29.2457 102.537 29.2599C102.324 29.2912 102.138 29.3409 101.979 29.4091C101.82 29.4773 101.696 29.5696 101.608 29.6861C101.52 29.7997 101.476 29.9418 101.476 30.1122C101.476 30.3594 101.566 30.5483 101.745 30.679C101.926 30.8068 102.157 30.8707 102.435 30.8707ZM109.422 32.1065C108.924 32.1065 108.474 31.9787 108.071 31.723C107.67 31.4645 107.352 31.0852 107.116 30.5852C106.883 30.0824 106.767 29.4659 106.767 28.7358C106.767 27.9858 106.887 27.3622 107.129 26.8651C107.37 26.3651 107.691 25.9915 108.092 25.7443C108.495 25.4943 108.937 25.3693 109.417 25.3693C109.784 25.3693 110.089 25.4318 110.333 25.5568C110.581 25.679 110.779 25.8324 110.93 26.017C111.083 26.1989 111.2 26.3778 111.279 26.554H111.335V23.2727H113.146V32H111.356V30.9517H111.279C111.194 31.1335 111.074 31.3139 110.917 31.4929C110.764 31.669 110.564 31.8153 110.316 31.9318C110.072 32.0483 109.774 32.1065 109.422 32.1065ZM109.997 30.6619C110.289 30.6619 110.537 30.5824 110.738 30.4233C110.943 30.2614 111.099 30.0355 111.207 29.7457C111.318 29.456 111.373 29.1165 111.373 28.7273C111.373 28.3381 111.319 28 111.211 27.7131C111.103 27.4261 110.947 27.2045 110.743 27.0483C110.538 26.892 110.289 26.8139 109.997 26.8139C109.699 26.8139 109.447 26.8949 109.243 27.0568C109.038 27.2187 108.883 27.4432 108.778 27.7301C108.673 28.017 108.62 28.3494 108.62 28.7273C108.62 29.108 108.673 29.4446 108.778 29.7372C108.886 30.027 109.041 30.2543 109.243 30.419C109.447 30.581 109.699 30.6619 109.997 30.6619ZM117.621 32.1278C116.948 32.1278 116.369 31.9915 115.883 31.7188C115.4 31.4432 115.028 31.054 114.766 30.5511C114.505 30.0455 114.374 29.4474 114.374 28.7571C114.374 28.0838 114.505 27.4929 114.766 26.9844C115.028 26.4759 115.396 26.0795 115.87 25.7955C116.347 25.5114 116.907 25.3693 117.549 25.3693C117.981 25.3693 118.383 25.4389 118.755 25.5781C119.13 25.7145 119.457 25.9205 119.735 26.196C120.016 26.4716 120.235 26.8182 120.391 27.2358C120.548 27.6506 120.626 28.1364 120.626 28.6932V29.1918H115.099V28.0668H118.917C118.917 27.8054 118.86 27.5739 118.746 27.3722C118.633 27.1705 118.475 27.0128 118.273 26.8991C118.075 26.7827 117.843 26.7244 117.579 26.7244C117.303 26.7244 117.059 26.7884 116.846 26.9162C116.636 27.0412 116.471 27.2102 116.352 27.4233C116.232 27.6335 116.171 27.8679 116.168 28.1264V29.196C116.168 29.5199 116.228 29.7997 116.347 30.0355C116.469 30.2713 116.641 30.4531 116.863 30.581C117.085 30.7088 117.347 30.7727 117.651 30.7727C117.853 30.7727 118.038 30.7443 118.205 30.6875C118.373 30.6307 118.516 30.5455 118.636 30.4318C118.755 30.3182 118.846 30.179 118.908 30.0142L120.587 30.125C120.502 30.5284 120.327 30.8807 120.063 31.1818C119.802 31.4801 119.464 31.7131 119.049 31.8807C118.637 32.0455 118.161 32.1278 117.621 32.1278ZM121.81 32V25.4545H123.57V26.5966H123.638C123.758 26.1903 123.958 25.8835 124.239 25.6761C124.521 25.4659 124.844 25.3608 125.211 25.3608C125.302 25.3608 125.4 25.3665 125.505 25.3778C125.61 25.3892 125.702 25.4048 125.782 25.4247V27.0355C125.697 27.0099 125.579 26.9872 125.428 26.9673C125.278 26.9474 125.14 26.9375 125.015 26.9375C124.748 26.9375 124.509 26.9957 124.299 27.1122C124.092 27.2259 123.927 27.3849 123.805 27.5895C123.685 27.794 123.626 28.0298 123.626 28.2969V32H121.81ZM132.174 32.1278C131.572 32.1278 131.052 32.0199 130.614 31.804C130.177 31.5881 129.84 31.2955 129.604 30.9261C129.371 30.554 129.255 30.1392 129.255 29.6818C129.255 29.3409 129.323 29.0384 129.46 28.7741C129.596 28.5099 129.786 28.267 130.031 28.0455C130.275 27.821 130.559 27.598 130.883 27.3764L132.575 26.2642C132.793 26.125 132.954 25.9787 133.056 25.8253C133.158 25.669 133.21 25.5 133.21 25.3182C133.21 25.1449 133.14 24.9844 133.001 24.8366C132.862 24.6889 132.664 24.6165 132.408 24.6193C132.238 24.6193 132.09 24.6577 131.965 24.7344C131.84 24.8082 131.742 24.9062 131.671 25.0284C131.603 25.1477 131.569 25.2812 131.569 25.429C131.569 25.6108 131.62 25.7955 131.722 25.983C131.825 26.1705 131.961 26.3693 132.131 26.5795C132.302 26.7869 132.488 27.0114 132.69 27.2528L136.827 32H134.935L131.484 28.1562C131.256 27.8977 131.029 27.6278 130.802 27.3466C130.577 27.0625 130.39 26.7614 130.239 26.4432C130.089 26.1222 130.013 25.7741 130.013 25.3991C130.013 24.9759 130.112 24.5952 130.308 24.2571C130.506 23.919 130.785 23.652 131.143 23.456C131.501 23.2571 131.918 23.1577 132.396 23.1577C132.862 23.1577 133.263 23.2528 133.602 23.4432C133.942 23.6307 134.204 23.8807 134.386 24.1932C134.57 24.5028 134.663 24.8437 134.663 25.2159C134.663 25.6278 134.56 26.0014 134.356 26.3366C134.154 26.669 133.87 26.9673 133.504 27.2315L131.722 28.5142C131.481 28.6903 131.302 28.8707 131.185 29.0554C131.072 29.2372 131.015 29.4119 131.015 29.5795C131.015 29.7869 131.066 29.973 131.168 30.1378C131.271 30.3026 131.415 30.4332 131.603 30.5298C131.79 30.6236 132.011 30.6705 132.263 30.6705C132.57 30.6705 132.873 30.6009 133.171 30.4616C133.472 30.3196 133.745 30.1193 133.989 29.8608C134.237 29.5994 134.434 29.2898 134.582 28.9318C134.729 28.5739 134.803 28.1776 134.803 27.7429H136.308C136.308 28.277 136.249 28.7585 136.133 29.1875C136.016 29.6136 135.854 29.9858 135.647 30.304C135.44 30.6193 135.202 30.8778 134.935 31.0795C134.85 31.1335 134.768 31.1847 134.688 31.233C134.609 31.2812 134.526 31.3324 134.441 31.3864C134.117 31.6477 133.755 31.8366 133.354 31.9531C132.957 32.0696 132.563 32.1278 132.174 32.1278ZM147.695 23.2727V32H146.101L142.304 26.5071H142.24V32H140.395V23.2727H142.015L145.782 28.7614H145.858V23.2727H147.695ZM151.052 32.1236C150.634 32.1236 150.262 32.0511 149.935 31.9062C149.609 31.7585 149.35 31.5412 149.16 31.2543C148.972 30.9645 148.879 30.6037 148.879 30.1719C148.879 29.8082 148.945 29.5028 149.079 29.2557C149.212 29.0085 149.394 28.8097 149.624 28.6591C149.854 28.5085 150.116 28.3949 150.408 28.3182C150.704 28.2415 151.013 28.1875 151.337 28.1562C151.718 28.1165 152.025 28.0795 152.258 28.0455C152.491 28.0085 152.66 27.9545 152.765 27.8835C152.87 27.8125 152.923 27.7074 152.923 27.5682V27.5426C152.923 27.2727 152.837 27.0639 152.667 26.9162C152.499 26.7685 152.261 26.6946 151.951 26.6946C151.624 26.6946 151.364 26.767 151.171 26.9119C150.978 27.054 150.85 27.233 150.788 27.4489L149.109 27.3125C149.194 26.9148 149.362 26.571 149.612 26.2812C149.862 25.9886 150.184 25.7642 150.579 25.608C150.977 25.4489 151.437 25.3693 151.96 25.3693C152.323 25.3693 152.671 25.4119 153.004 25.4972C153.339 25.5824 153.636 25.7145 153.894 25.8935C154.156 26.0724 154.362 26.3026 154.512 26.5838C154.663 26.8622 154.738 27.196 154.738 27.5852V32H153.016V31.0923H152.965C152.86 31.2969 152.719 31.4773 152.543 31.6335C152.367 31.7869 152.156 31.9077 151.908 31.9957C151.661 32.081 151.376 32.1236 151.052 32.1236ZM151.572 30.8707C151.839 30.8707 152.075 30.8182 152.279 30.7131C152.484 30.6051 152.644 30.4602 152.761 30.2784C152.877 30.0966 152.935 29.8906 152.935 29.6605V28.9659C152.879 29.0028 152.8 29.0369 152.701 29.0682C152.604 29.0966 152.495 29.1236 152.373 29.1491C152.251 29.1719 152.129 29.1932 152.006 29.2131C151.884 29.2301 151.773 29.2457 151.674 29.2599C151.461 29.2912 151.275 29.3409 151.116 29.4091C150.957 29.4773 150.833 29.5696 150.745 29.6861C150.657 29.7997 150.613 29.9418 150.613 30.1122C150.613 30.3594 150.702 30.5483 150.881 30.679C151.063 30.8068 151.293 30.8707 151.572 30.8707ZM162.014 25.4545L159.726 32H157.68L155.392 25.4545H157.31L158.669 30.1378H158.737L160.092 25.4545H162.014ZM162.943 32V25.4545H164.759V32H162.943ZM163.855 24.6108C163.585 24.6108 163.354 24.5213 163.161 24.3423C162.97 24.1605 162.875 23.9432 162.875 23.6903C162.875 23.4403 162.97 23.2259 163.161 23.0469C163.354 22.8651 163.585 22.7741 163.855 22.7741C164.125 22.7741 164.355 22.8651 164.545 23.0469C164.739 23.2259 164.835 23.4403 164.835 23.6903C164.835 23.9432 164.739 24.1605 164.545 24.3423C164.355 24.5213 164.125 24.6108 163.855 24.6108ZM169.162 34.5909C168.574 34.5909 168.069 34.5099 167.649 34.348C167.231 34.1889 166.899 33.9716 166.652 33.696C166.404 33.4205 166.244 33.1108 166.17 32.767L167.849 32.5412C167.9 32.6719 167.981 32.794 168.092 32.9077C168.203 33.0213 168.349 33.1122 168.531 33.1804C168.716 33.2514 168.94 33.2869 169.204 33.2869C169.599 33.2869 169.924 33.1903 170.18 32.9972C170.439 32.8068 170.568 32.4872 170.568 32.0384V30.8409H170.491C170.412 31.0227 170.292 31.1946 170.133 31.3565C169.974 31.5185 169.77 31.6506 169.52 31.7528C169.27 31.8551 168.971 31.9062 168.625 31.9062C168.133 31.9062 167.686 31.7926 167.282 31.5653C166.882 31.3352 166.562 30.9844 166.324 30.5128C166.088 30.0384 165.97 29.4389 165.97 28.7145C165.97 27.973 166.091 27.3537 166.332 26.8565C166.574 26.3594 166.895 25.9872 167.295 25.7401C167.699 25.4929 168.14 25.3693 168.62 25.3693C168.987 25.3693 169.294 25.4318 169.541 25.5568C169.788 25.679 169.987 25.8324 170.137 26.017C170.291 26.1989 170.409 26.3778 170.491 26.554H170.559V25.4545H172.362V32.0639C172.362 32.6207 172.225 33.0866 171.953 33.4616C171.68 33.8366 171.302 34.1179 170.819 34.3054C170.339 34.4957 169.787 34.5909 169.162 34.5909ZM169.2 30.5426C169.493 30.5426 169.74 30.4702 169.941 30.3253C170.146 30.1776 170.302 29.9673 170.41 29.6946C170.521 29.419 170.576 29.0895 170.576 28.706C170.576 28.3224 170.522 27.9901 170.414 27.7088C170.306 27.4247 170.15 27.2045 169.946 27.0483C169.741 26.892 169.493 26.8139 169.2 26.8139C168.902 26.8139 168.65 26.8949 168.446 27.0568C168.241 27.2159 168.086 27.4375 167.981 27.7216C167.876 28.0057 167.824 28.3338 167.824 28.706C167.824 29.0838 167.876 29.4105 167.981 29.6861C168.089 29.9588 168.244 30.1705 168.446 30.321C168.65 30.4687 168.902 30.5426 169.2 30.5426ZM175.673 32.1236C175.255 32.1236 174.883 32.0511 174.556 31.9062C174.23 31.7585 173.971 31.5412 173.781 31.2543C173.593 30.9645 173.5 30.6037 173.5 30.1719C173.5 29.8082 173.566 29.5028 173.7 29.2557C173.833 29.0085 174.015 28.8097 174.245 28.6591C174.475 28.5085 174.737 28.3949 175.029 28.3182C175.325 28.2415 175.635 28.1875 175.958 28.1562C176.339 28.1165 176.646 28.0795 176.879 28.0455C177.112 28.0085 177.281 27.9545 177.386 27.8835C177.491 27.8125 177.544 27.7074 177.544 27.5682V27.5426C177.544 27.2727 177.458 27.0639 177.288 26.9162C177.12 26.7685 176.882 26.6946 176.572 26.6946C176.245 26.6946 175.985 26.767 175.792 26.9119C175.599 27.054 175.471 27.233 175.409 27.4489L173.73 27.3125C173.815 26.9148 173.983 26.571 174.233 26.2812C174.483 25.9886 174.805 25.7642 175.2 25.608C175.598 25.4489 176.058 25.3693 176.581 25.3693C176.944 25.3693 177.292 25.4119 177.625 25.4972C177.96 25.5824 178.257 25.7145 178.515 25.8935C178.777 26.0724 178.983 26.3026 179.133 26.5838C179.284 26.8622 179.359 27.196 179.359 27.5852V32H177.637V31.0923H177.586C177.481 31.2969 177.341 31.4773 177.164 31.6335C176.988 31.7869 176.777 31.9077 176.529 31.9957C176.282 32.081 175.997 32.1236 175.673 32.1236ZM176.193 30.8707C176.46 30.8707 176.696 30.8182 176.9 30.7131C177.105 30.6051 177.265 30.4602 177.382 30.2784C177.498 30.0966 177.556 29.8906 177.556 29.6605V28.9659C177.5 29.0028 177.422 29.0369 177.322 29.0682C177.225 29.0966 177.116 29.1236 176.994 29.1491C176.872 29.1719 176.75 29.1932 176.627 29.2131C176.505 29.2301 176.395 29.2457 176.295 29.2599C176.082 29.2912 175.896 29.3409 175.737 29.4091C175.578 29.4773 175.454 29.5696 175.366 29.6861C175.278 29.7997 175.234 29.9418 175.234 30.1122C175.234 30.3594 175.324 30.5483 175.502 30.679C175.684 30.8068 175.914 30.8707 176.193 30.8707ZM184.249 25.4545V26.8182H180.307V25.4545H184.249ZM181.202 23.8864H183.017V29.9886C183.017 30.1562 183.043 30.2869 183.094 30.3807C183.145 30.4716 183.216 30.5355 183.307 30.5724C183.401 30.6094 183.509 30.6278 183.631 30.6278C183.716 30.6278 183.801 30.6207 183.887 30.6065C183.972 30.5895 184.037 30.5767 184.083 30.5682L184.368 31.919C184.277 31.9474 184.15 31.9801 183.985 32.017C183.82 32.0568 183.62 32.081 183.384 32.0895C182.946 32.1065 182.563 32.0483 182.233 31.9148C181.907 31.7812 181.652 31.5739 181.471 31.2926C181.289 31.0114 181.199 30.6562 181.202 30.2273V23.8864ZM185.431 32V25.4545H187.247V32H185.431ZM186.343 24.6108C186.074 24.6108 185.842 24.5213 185.649 24.3423C185.458 24.1605 185.363 23.9432 185.363 23.6903C185.363 23.4403 185.458 23.2259 185.649 23.0469C185.842 22.8651 186.074 22.7741 186.343 22.7741C186.613 22.7741 186.843 22.8651 187.034 23.0469C187.227 23.2259 187.324 23.4403 187.324 23.6903C187.324 23.9432 187.227 24.1605 187.034 24.3423C186.843 24.5213 186.613 24.6108 186.343 24.6108ZM191.658 32.1278C190.996 32.1278 190.424 31.9872 189.941 31.706C189.461 31.4219 189.09 31.027 188.829 30.5213C188.567 30.0128 188.437 29.4233 188.437 28.7528C188.437 28.0767 188.567 27.4858 188.829 26.9801C189.09 26.4716 189.461 26.0767 189.941 25.7955C190.424 25.5114 190.996 25.3693 191.658 25.3693C192.32 25.3693 192.891 25.5114 193.371 25.7955C193.854 26.0767 194.227 26.4716 194.488 26.9801C194.749 27.4858 194.88 28.0767 194.88 28.7528C194.88 29.4233 194.749 30.0128 194.488 30.5213C194.227 31.027 193.854 31.4219 193.371 31.706C192.891 31.9872 192.32 32.1278 191.658 32.1278ZM191.667 30.7216C191.968 30.7216 192.219 30.6364 192.421 30.4659C192.623 30.2926 192.775 30.0568 192.877 29.7585C192.982 29.4602 193.035 29.1207 193.035 28.7401C193.035 28.3594 192.982 28.0199 192.877 27.7216C192.775 27.4233 192.623 27.1875 192.421 27.0142C192.219 26.8409 191.968 26.7543 191.667 26.7543C191.363 26.7543 191.107 26.8409 190.9 27.0142C190.695 27.1875 190.54 27.4233 190.435 27.7216C190.333 28.0199 190.282 28.3594 190.282 28.7401C190.282 29.1207 190.333 29.4602 190.435 29.7585C190.54 30.0568 190.695 30.2926 190.9 30.4659C191.107 30.6364 191.363 30.7216 191.667 30.7216ZM197.876 28.2159V32H196.06V25.4545H197.79V26.6094H197.867C198.012 26.2287 198.255 25.9276 198.596 25.706C198.937 25.4815 199.35 25.3693 199.836 25.3693C200.29 25.3693 200.687 25.4688 201.025 25.6676C201.363 25.8665 201.626 26.1506 201.813 26.5199C202.001 26.8864 202.094 27.3239 202.094 27.8324V32H200.279V28.1562C200.282 27.7557 200.18 27.4432 199.972 27.2188C199.765 26.9915 199.479 26.8778 199.116 26.8778C198.871 26.8778 198.656 26.9304 198.468 27.0355C198.283 27.1406 198.138 27.294 198.033 27.4957C197.931 27.6946 197.879 27.9347 197.876 28.2159Z" fill="white"/>
<path d="M260 56H26C24.3431 56 23 57.3431 23 59V103C23 104.657 24.3431 106 26 106H260C261.657 106 263 104.657 263 103V59C263 57.3431 261.657 56 260 56Z" fill="#E74C3C"/>
<path d="M105.907 85V76.2727H107.752V79.8736H111.498V76.2727H113.339V85H111.498V81.3949H107.752V85H105.907ZM117.809 85.1278C117.136 85.1278 116.556 84.9915 116.07 84.7188C115.587 84.4432 115.215 84.054 114.954 83.5511C114.692 83.0455 114.562 82.4474 114.562 81.7571C114.562 81.0838 114.692 80.4929 114.954 79.9844C115.215 79.4759 115.583 79.0795 116.058 78.7955C116.535 78.5114 117.094 78.3693 117.737 78.3693C118.168 78.3693 118.57 78.4389 118.942 78.5781C119.317 78.7145 119.644 78.9205 119.923 79.196C120.204 79.4716 120.423 79.8182 120.579 80.2358C120.735 80.6506 120.813 81.1364 120.813 81.6932V82.1918H115.286V81.0668H119.104C119.104 80.8054 119.048 80.5739 118.934 80.3722C118.82 80.1705 118.663 80.0128 118.461 79.8991C118.262 79.7827 118.031 79.7244 117.766 79.7244C117.491 79.7244 117.246 79.7884 117.033 79.9162C116.823 80.0412 116.658 80.2102 116.539 80.4233C116.42 80.6335 116.359 80.8679 116.356 81.1264V82.196C116.356 82.5199 116.415 82.7997 116.535 83.0355C116.657 83.2713 116.829 83.4531 117.05 83.581C117.272 83.7088 117.535 83.7727 117.839 83.7727C118.04 83.7727 118.225 83.7443 118.393 83.6875C118.56 83.6307 118.704 83.5455 118.823 83.4318C118.942 83.3182 119.033 83.179 119.096 83.0142L120.775 83.125C120.69 83.5284 120.515 83.8807 120.251 84.1818C119.989 84.4801 119.651 84.7131 119.237 84.8807C118.825 85.0455 118.349 85.1278 117.809 85.1278ZM121.998 85V78.4545H123.758V79.5966H123.826C123.945 79.1903 124.146 78.8835 124.427 78.6761C124.708 78.4659 125.032 78.3608 125.398 78.3608C125.489 78.3608 125.587 78.3665 125.692 78.3778C125.798 78.3892 125.89 78.4048 125.969 78.4247V80.0355C125.884 80.0099 125.766 79.9872 125.616 79.9673C125.465 79.9474 125.327 79.9375 125.202 79.9375C124.935 79.9375 124.697 79.9957 124.487 80.1122C124.279 80.2259 124.114 80.3849 123.992 80.5895C123.873 80.794 123.813 81.0298 123.813 81.2969V85H121.998ZM129.561 85.1278C128.899 85.1278 128.326 84.9872 127.843 84.706C127.363 84.4219 126.993 84.027 126.731 83.5213C126.47 83.0128 126.339 82.4233 126.339 81.7528C126.339 81.0767 126.47 80.4858 126.731 79.9801C126.993 79.4716 127.363 79.0767 127.843 78.7955C128.326 78.5114 128.899 78.3693 129.561 78.3693C130.223 78.3693 130.794 78.5114 131.274 78.7955C131.757 79.0767 132.129 79.4716 132.39 79.9801C132.652 80.4858 132.782 81.0767 132.782 81.7528C132.782 82.4233 132.652 83.0128 132.39 83.5213C132.129 84.027 131.757 84.4219 131.274 84.706C130.794 84.9872 130.223 85.1278 129.561 85.1278ZM129.569 83.7216C129.87 83.7216 130.122 83.6364 130.324 83.4659C130.525 83.2926 130.677 83.0568 130.779 82.7585C130.885 82.4602 130.937 82.1207 130.937 81.7401C130.937 81.3594 130.885 81.0199 130.779 80.7216C130.677 80.4233 130.525 80.1875 130.324 80.0142C130.122 79.8409 129.87 79.7543 129.569 79.7543C129.265 79.7543 129.01 79.8409 128.802 80.0142C128.598 80.1875 128.443 80.4233 128.338 80.7216C128.235 81.0199 128.184 81.3594 128.184 81.7401C128.184 82.1207 128.235 82.4602 128.338 82.7585C128.443 83.0568 128.598 83.2926 128.802 83.4659C129.01 83.6364 129.265 83.7216 129.569 83.7216ZM141.509 78.7827C141.474 78.4389 141.328 78.1719 141.07 77.9815C140.811 77.7912 140.46 77.696 140.017 77.696C139.716 77.696 139.462 77.7386 139.254 77.8239C139.047 77.9062 138.888 78.0213 138.777 78.169C138.669 78.3168 138.615 78.4844 138.615 78.6719C138.609 78.8281 138.642 78.9645 138.713 79.081C138.787 79.1974 138.888 79.2983 139.016 79.3835C139.143 79.4659 139.291 79.5384 139.459 79.6009C139.626 79.6605 139.805 79.7116 139.996 79.7543L140.78 79.9418C141.161 80.027 141.51 80.1406 141.828 80.2827C142.146 80.4247 142.422 80.5994 142.655 80.8068C142.888 81.0142 143.068 81.2585 143.196 81.5398C143.327 81.821 143.393 82.1435 143.396 82.5071C143.393 83.0412 143.257 83.5043 142.987 83.8963C142.72 84.2855 142.334 84.5881 141.828 84.804C141.325 85.017 140.719 85.1236 140.009 85.1236C139.304 85.1236 138.69 85.0156 138.168 84.7997C137.648 84.5838 137.241 84.2642 136.949 83.8409C136.659 83.4148 136.507 82.8878 136.493 82.2599H138.278C138.298 82.5526 138.382 82.7969 138.53 82.9929C138.68 83.1861 138.881 83.3324 139.131 83.4318C139.384 83.5284 139.669 83.5767 139.987 83.5767C140.3 83.5767 140.571 83.5312 140.801 83.4403C141.034 83.3494 141.214 83.223 141.342 83.0611C141.47 82.8991 141.534 82.7131 141.534 82.5028C141.534 82.3068 141.476 82.142 141.359 82.0085C141.246 81.875 141.078 81.7614 140.857 81.6676C140.638 81.5739 140.369 81.4886 140.051 81.4119L139.101 81.1733C138.365 80.9943 137.784 80.7145 137.358 80.3338C136.932 79.9531 136.72 79.4403 136.723 78.7955C136.72 78.267 136.861 77.8054 137.145 77.4105C137.432 77.0156 137.825 76.7074 138.325 76.4858C138.825 76.2642 139.393 76.1534 140.03 76.1534C140.678 76.1534 141.243 76.2642 141.726 76.4858C142.212 76.7074 142.589 77.0156 142.859 77.4105C143.129 77.8054 143.268 78.2628 143.277 78.7827H141.509ZM147.586 85.1278C146.913 85.1278 146.333 84.9915 145.848 84.7188C145.365 84.4432 144.993 84.054 144.731 83.5511C144.47 83.0455 144.339 82.4474 144.339 81.7571C144.339 81.0838 144.47 80.4929 144.731 79.9844C144.993 79.4759 145.36 79.0795 145.835 78.7955C146.312 78.5114 146.872 78.3693 147.514 78.3693C147.946 78.3693 148.348 78.4389 148.72 78.5781C149.095 78.7145 149.422 78.9205 149.7 79.196C149.981 79.4716 150.2 79.8182 150.356 80.2358C150.512 80.6506 150.591 81.1364 150.591 81.6932V82.1918H145.064V81.0668H148.882C148.882 80.8054 148.825 80.5739 148.711 80.3722C148.598 80.1705 148.44 80.0128 148.238 79.8991C148.039 79.7827 147.808 79.7244 147.544 79.7244C147.268 79.7244 147.024 79.7884 146.811 79.9162C146.6 80.0412 146.436 80.2102 146.316 80.4233C146.197 80.6335 146.136 80.8679 146.133 81.1264V82.196C146.133 82.5199 146.193 82.7997 146.312 83.0355C146.434 83.2713 146.606 83.4531 146.828 83.581C147.049 83.7088 147.312 83.7727 147.616 83.7727C147.818 83.7727 148.002 83.7443 148.17 83.6875C148.338 83.6307 148.481 83.5455 148.6 83.4318C148.72 83.3182 148.811 83.179 148.873 83.0142L150.552 83.125C150.467 83.5284 150.292 83.8807 150.028 84.1818C149.767 84.4801 149.429 84.7131 149.014 84.8807C148.602 85.0455 148.126 85.1278 147.586 85.1278ZM154.733 85.1278C154.062 85.1278 153.485 84.9858 153.002 84.7017C152.522 84.4148 152.153 84.017 151.895 83.5085C151.639 83 151.511 82.4148 151.511 81.7528C151.511 81.0824 151.64 80.4943 151.899 79.9886C152.16 79.4801 152.531 79.0838 153.011 78.7997C153.491 78.5128 154.062 78.3693 154.724 78.3693C155.295 78.3693 155.795 78.473 156.224 78.6804C156.653 78.8878 156.993 79.179 157.243 79.554C157.493 79.929 157.63 80.3693 157.656 80.875H155.943C155.895 80.5483 155.767 80.2855 155.559 80.0866C155.355 79.8849 155.086 79.7841 154.754 79.7841C154.473 79.7841 154.227 79.8608 154.017 80.0142C153.809 80.1648 153.647 80.3849 153.531 80.6747C153.414 80.9645 153.356 81.3153 153.356 81.7273C153.356 82.1449 153.413 82.5 153.527 82.7926C153.643 83.0852 153.806 83.3082 154.017 83.4616C154.227 83.6151 154.473 83.6918 154.754 83.6918C154.961 83.6918 155.147 83.6491 155.312 83.5639C155.48 83.4787 155.618 83.3551 155.725 83.1932C155.836 83.0284 155.909 82.831 155.943 82.6009H157.656C157.627 83.1009 157.491 83.5412 157.247 83.9219C157.005 84.2997 156.672 84.5952 156.245 84.8082C155.819 85.0213 155.315 85.1278 154.733 85.1278ZM162.3 78.4545V79.8182H158.358V78.4545H162.3ZM159.253 76.8864H161.068V82.9886C161.068 83.1562 161.094 83.2869 161.145 83.3807C161.196 83.4716 161.267 83.5355 161.358 83.5724C161.452 83.6094 161.56 83.6278 161.682 83.6278C161.767 83.6278 161.852 83.6207 161.938 83.6065C162.023 83.5895 162.088 83.5767 162.134 83.5682L162.419 84.919C162.328 84.9474 162.2 84.9801 162.036 85.017C161.871 85.0568 161.67 85.081 161.435 85.0895C160.997 85.1065 160.614 85.0483 160.284 84.9148C159.957 84.7812 159.703 84.5739 159.521 84.2926C159.339 84.0114 159.25 83.6562 159.253 83.2273V76.8864ZM163.482 85V78.4545H165.298V85H163.482ZM164.394 77.6108C164.124 77.6108 163.893 77.5213 163.7 77.3423C163.509 77.1605 163.414 76.9432 163.414 76.6903C163.414 76.4403 163.509 76.2259 163.7 76.0469C163.893 75.8651 164.124 75.7741 164.394 75.7741C164.664 75.7741 164.894 75.8651 165.085 76.0469C165.278 76.2259 165.374 76.4403 165.374 76.6903C165.374 76.9432 165.278 77.1605 165.085 77.3423C164.894 77.5213 164.664 77.6108 164.394 77.6108ZM169.709 85.1278C169.047 85.1278 168.475 84.9872 167.992 84.706C167.512 84.4219 167.141 84.027 166.88 83.5213C166.618 83.0128 166.488 82.4233 166.488 81.7528C166.488 81.0767 166.618 80.4858 166.88 79.9801C167.141 79.4716 167.512 79.0767 167.992 78.7955C168.475 78.5114 169.047 78.3693 169.709 78.3693C170.371 78.3693 170.942 78.5114 171.422 78.7955C171.905 79.0767 172.277 79.4716 172.539 79.9801C172.8 80.4858 172.931 81.0767 172.931 81.7528C172.931 82.4233 172.8 83.0128 172.539 83.5213C172.277 84.027 171.905 84.4219 171.422 84.706C170.942 84.9872 170.371 85.1278 169.709 85.1278ZM169.718 83.7216C170.019 83.7216 170.27 83.6364 170.472 83.4659C170.674 83.2926 170.826 83.0568 170.928 82.7585C171.033 82.4602 171.086 82.1207 171.086 81.7401C171.086 81.3594 171.033 81.0199 170.928 80.7216C170.826 80.4233 170.674 80.1875 170.472 80.0142C170.27 79.8409 170.019 79.7543 169.718 79.7543C169.414 79.7543 169.158 79.8409 168.951 80.0142C168.746 80.1875 168.591 80.4233 168.486 80.7216C168.384 81.0199 168.333 81.3594 168.333 81.7401C168.333 82.1207 168.384 82.4602 168.486 82.7585C168.591 83.0568 168.746 83.2926 168.951 83.4659C169.158 83.6364 169.414 83.7216 169.718 83.7216ZM175.926 81.2159V85H174.111V78.4545H175.841V79.6094H175.918C176.063 79.2287 176.306 78.9276 176.647 78.706C176.988 78.4815 177.401 78.3693 177.887 78.3693C178.341 78.3693 178.738 78.4688 179.076 78.6676C179.414 78.8665 179.676 79.1506 179.864 79.5199C180.051 79.8864 180.145 80.3239 180.145 80.8324V85H178.33V81.1562C178.333 80.7557 178.23 80.4432 178.023 80.2188C177.816 79.9915 177.53 79.8778 177.167 79.8778C176.922 79.8778 176.706 79.9304 176.519 80.0355C176.334 80.1406 176.189 80.294 176.084 80.4957C175.982 80.6946 175.929 80.9347 175.926 81.2159Z" fill="white"/>
<path d="M260 116H26C24.3431 116 23 117.343 23 119V153C23 154.657 24.3431 156 26 156H260C261.657 156 263 154.657 263 153V119C263 117.343 261.657 116 260 116Z" fill="#2ECC71"/>
<path d="M103.409 139H101.432L104.445 130.273H106.823L109.831 139H107.854L105.668 132.267H105.6L103.409 139ZM103.286 135.57H107.956V137.01H103.286V135.57ZM110.882 139V130.273H112.697V133.554H112.752C112.832 133.378 112.947 133.199 113.097 133.017C113.251 132.832 113.45 132.679 113.694 132.557C113.941 132.432 114.248 132.369 114.615 132.369C115.092 132.369 115.532 132.494 115.936 132.744C116.339 132.991 116.661 133.365 116.903 133.865C117.144 134.362 117.265 134.986 117.265 135.736C117.265 136.466 117.147 137.082 116.911 137.585C116.678 138.085 116.36 138.464 115.957 138.723C115.556 138.979 115.107 139.107 114.61 139.107C114.258 139.107 113.958 139.048 113.711 138.932C113.467 138.815 113.267 138.669 113.11 138.493C112.954 138.314 112.835 138.134 112.752 137.952H112.671V139H110.882ZM112.659 135.727C112.659 136.116 112.713 136.456 112.82 136.746C112.928 137.036 113.085 137.261 113.289 137.423C113.494 137.582 113.742 137.662 114.035 137.662C114.33 137.662 114.58 137.581 114.785 137.419C114.99 137.254 115.144 137.027 115.249 136.737C115.357 136.445 115.411 136.108 115.411 135.727C115.411 135.349 115.359 135.017 115.254 134.73C115.149 134.443 114.994 134.219 114.789 134.057C114.585 133.895 114.333 133.814 114.035 133.814C113.74 133.814 113.49 133.892 113.285 134.048C113.083 134.205 112.928 134.426 112.82 134.713C112.713 135 112.659 135.338 112.659 135.727ZM121.434 139.128C120.772 139.128 120.199 138.987 119.716 138.706C119.236 138.422 118.866 138.027 118.604 137.521C118.343 137.013 118.212 136.423 118.212 135.753C118.212 135.077 118.343 134.486 118.604 133.98C118.866 133.472 119.236 133.077 119.716 132.795C120.199 132.511 120.772 132.369 121.434 132.369C122.096 132.369 122.667 132.511 123.147 132.795C123.63 133.077 124.002 133.472 124.263 133.98C124.525 134.486 124.655 135.077 124.655 135.753C124.655 136.423 124.525 137.013 124.263 137.521C124.002 138.027 123.63 138.422 123.147 138.706C122.667 138.987 122.096 139.128 121.434 139.128ZM121.442 137.722C121.743 137.722 121.995 137.636 122.197 137.466C122.398 137.293 122.55 137.057 122.653 136.759C122.758 136.46 122.81 136.121 122.81 135.74C122.81 135.359 122.758 135.02 122.653 134.722C122.55 134.423 122.398 134.187 122.197 134.014C121.995 133.841 121.743 133.754 121.442 133.754C121.138 133.754 120.883 133.841 120.675 134.014C120.471 134.187 120.316 134.423 120.211 134.722C120.108 135.02 120.057 135.359 120.057 135.74C120.057 136.121 120.108 136.46 120.211 136.759C120.316 137.057 120.471 137.293 120.675 137.466C120.883 137.636 121.138 137.722 121.442 137.722ZM130.033 136.213V132.455H131.849V139H130.106V137.811H130.037C129.89 138.195 129.644 138.503 129.3 138.736C128.959 138.969 128.543 139.085 128.052 139.085C127.614 139.085 127.229 138.986 126.897 138.787C126.564 138.588 126.305 138.305 126.117 137.939C125.932 137.572 125.839 137.134 125.836 136.622V132.455H127.651V136.298C127.654 136.685 127.758 136.99 127.962 137.214C128.167 137.439 128.441 137.551 128.785 137.551C129.003 137.551 129.208 137.501 129.398 137.402C129.589 137.3 129.742 137.149 129.858 136.95C129.978 136.751 130.036 136.506 130.033 136.213ZM136.782 132.455V133.818H132.84V132.455H136.782ZM133.735 130.886H135.551V136.989C135.551 137.156 135.576 137.287 135.627 137.381C135.678 137.472 135.749 137.536 135.84 137.572C135.934 137.609 136.042 137.628 136.164 137.628C136.249 137.628 136.335 137.621 136.42 137.607C136.505 137.589 136.57 137.577 136.616 137.568L136.901 138.919C136.811 138.947 136.683 138.98 136.518 139.017C136.353 139.057 136.153 139.081 135.917 139.089C135.48 139.107 135.096 139.048 134.767 138.915C134.44 138.781 134.186 138.574 134.004 138.293C133.822 138.011 133.732 137.656 133.735 137.227V130.886ZM145.51 132.783C145.476 132.439 145.33 132.172 145.072 131.982C144.813 131.791 144.462 131.696 144.019 131.696C143.718 131.696 143.464 131.739 143.256 131.824C143.049 131.906 142.89 132.021 142.779 132.169C142.671 132.317 142.617 132.484 142.617 132.672C142.611 132.828 142.644 132.964 142.715 133.081C142.789 133.197 142.89 133.298 143.018 133.384C143.145 133.466 143.293 133.538 143.461 133.601C143.628 133.661 143.807 133.712 143.998 133.754L144.782 133.942C145.162 134.027 145.512 134.141 145.83 134.283C146.148 134.425 146.424 134.599 146.657 134.807C146.89 135.014 147.07 135.259 147.198 135.54C147.329 135.821 147.395 136.143 147.398 136.507C147.395 137.041 147.259 137.504 146.989 137.896C146.722 138.286 146.336 138.588 145.83 138.804C145.327 139.017 144.721 139.124 144.01 139.124C143.306 139.124 142.692 139.016 142.17 138.8C141.65 138.584 141.243 138.264 140.951 137.841C140.661 137.415 140.509 136.888 140.495 136.26H142.28C142.3 136.553 142.384 136.797 142.532 136.993C142.682 137.186 142.883 137.332 143.133 137.432C143.385 137.528 143.671 137.577 143.989 137.577C144.302 137.577 144.573 137.531 144.803 137.44C145.036 137.349 145.216 137.223 145.344 137.061C145.472 136.899 145.536 136.713 145.536 136.503C145.536 136.307 145.478 136.142 145.361 136.009C145.248 135.875 145.08 135.761 144.858 135.668C144.64 135.574 144.371 135.489 144.053 135.412L143.103 135.173C142.367 134.994 141.786 134.714 141.36 134.334C140.934 133.953 140.722 133.44 140.725 132.795C140.722 132.267 140.863 131.805 141.147 131.411C141.434 131.016 141.827 130.707 142.327 130.486C142.827 130.264 143.395 130.153 144.032 130.153C144.68 130.153 145.245 130.264 145.728 130.486C146.214 130.707 146.591 131.016 146.861 131.411C147.131 131.805 147.27 132.263 147.279 132.783H145.51ZM151.588 139.128C150.915 139.128 150.335 138.991 149.85 138.719C149.367 138.443 148.994 138.054 148.733 137.551C148.472 137.045 148.341 136.447 148.341 135.757C148.341 135.084 148.472 134.493 148.733 133.984C148.994 133.476 149.362 133.08 149.837 132.795C150.314 132.511 150.874 132.369 151.516 132.369C151.948 132.369 152.35 132.439 152.722 132.578C153.097 132.714 153.423 132.92 153.702 133.196C153.983 133.472 154.202 133.818 154.358 134.236C154.514 134.651 154.593 135.136 154.593 135.693V136.192H149.066V135.067H152.884C152.884 134.805 152.827 134.574 152.713 134.372C152.6 134.17 152.442 134.013 152.24 133.899C152.041 133.783 151.81 133.724 151.546 133.724C151.27 133.724 151.026 133.788 150.813 133.916C150.602 134.041 150.438 134.21 150.318 134.423C150.199 134.634 150.138 134.868 150.135 135.126V136.196C150.135 136.52 150.195 136.8 150.314 137.036C150.436 137.271 150.608 137.453 150.83 137.581C151.051 137.709 151.314 137.773 151.618 137.773C151.82 137.773 152.004 137.744 152.172 137.688C152.34 137.631 152.483 137.545 152.602 137.432C152.722 137.318 152.813 137.179 152.875 137.014L154.554 137.125C154.469 137.528 154.294 137.881 154.03 138.182C153.769 138.48 153.431 138.713 153.016 138.881C152.604 139.045 152.128 139.128 151.588 139.128ZM158.735 139.128C158.064 139.128 157.487 138.986 157.004 138.702C156.524 138.415 156.155 138.017 155.896 137.509C155.641 137 155.513 136.415 155.513 135.753C155.513 135.082 155.642 134.494 155.901 133.989C156.162 133.48 156.533 133.084 157.013 132.8C157.493 132.513 158.064 132.369 158.726 132.369C159.297 132.369 159.797 132.473 160.226 132.68C160.655 132.888 160.994 133.179 161.244 133.554C161.494 133.929 161.632 134.369 161.658 134.875H159.945C159.896 134.548 159.769 134.286 159.561 134.087C159.357 133.885 159.088 133.784 158.756 133.784C158.475 133.784 158.229 133.861 158.019 134.014C157.811 134.165 157.649 134.385 157.533 134.675C157.416 134.964 157.358 135.315 157.358 135.727C157.358 136.145 157.415 136.5 157.529 136.793C157.645 137.085 157.808 137.308 158.019 137.462C158.229 137.615 158.475 137.692 158.756 137.692C158.963 137.692 159.149 137.649 159.314 137.564C159.482 137.479 159.619 137.355 159.727 137.193C159.838 137.028 159.911 136.831 159.945 136.601H161.658C161.629 137.101 161.493 137.541 161.249 137.922C161.007 138.3 160.673 138.595 160.247 138.808C159.821 139.021 159.317 139.128 158.735 139.128ZM166.302 132.455V133.818H162.36V132.455H166.302ZM163.255 130.886H165.07V136.989C165.07 137.156 165.096 137.287 165.147 137.381C165.198 137.472 165.269 137.536 165.36 137.572C165.454 137.609 165.562 137.628 165.684 137.628C165.769 137.628 165.854 137.621 165.939 137.607C166.025 137.589 166.09 137.577 166.135 137.568L166.421 138.919C166.33 138.947 166.202 138.98 166.037 139.017C165.873 139.057 165.672 139.081 165.437 139.089C164.999 139.107 164.616 139.048 164.286 138.915C163.959 138.781 163.705 138.574 163.523 138.293C163.341 138.011 163.252 137.656 163.255 137.227V130.886ZM167.484 139V132.455H169.3V139H167.484ZM168.396 131.611C168.126 131.611 167.895 131.521 167.702 131.342C167.511 131.161 167.416 130.943 167.416 130.69C167.416 130.44 167.511 130.226 167.702 130.047C167.895 129.865 168.126 129.774 168.396 129.774C168.666 129.774 168.896 129.865 169.086 130.047C169.28 130.226 169.376 130.44 169.376 130.69C169.376 130.943 169.28 131.161 169.086 131.342C168.896 131.521 168.666 131.611 168.396 131.611ZM173.711 139.128C173.049 139.128 172.477 138.987 171.994 138.706C171.514 138.422 171.143 138.027 170.882 137.521C170.62 137.013 170.49 136.423 170.49 135.753C170.49 135.077 170.62 134.486 170.882 133.98C171.143 133.472 171.514 133.077 171.994 132.795C172.477 132.511 173.049 132.369 173.711 132.369C174.373 132.369 174.944 132.511 175.424 132.795C175.907 133.077 176.279 133.472 176.541 133.98C176.802 134.486 176.933 135.077 176.933 135.753C176.933 136.423 176.802 137.013 176.541 137.521C176.279 138.027 175.907 138.422 175.424 138.706C174.944 138.987 174.373 139.128 173.711 139.128ZM173.72 137.722C174.021 137.722 174.272 137.636 174.474 137.466C174.676 137.293 174.828 137.057 174.93 136.759C175.035 136.46 175.088 136.121 175.088 135.74C175.088 135.359 175.035 135.02 174.93 134.722C174.828 134.423 174.676 134.187 174.474 134.014C174.272 133.841 174.021 133.754 173.72 133.754C173.416 133.754 173.16 133.841 172.953 134.014C172.748 134.187 172.593 134.423 172.488 134.722C172.386 135.02 172.335 135.359 172.335 135.74C172.335 136.121 172.386 136.46 172.488 136.759C172.593 137.057 172.748 137.293 172.953 137.466C173.16 137.636 173.416 137.722 173.72 137.722ZM179.928 135.216V139H178.113V132.455H179.843V133.609H179.92C180.065 133.229 180.308 132.928 180.649 132.706C180.99 132.482 181.403 132.369 181.889 132.369C182.343 132.369 182.74 132.469 183.078 132.668C183.416 132.866 183.678 133.151 183.866 133.52C184.053 133.886 184.147 134.324 184.147 134.832V139H182.332V135.156C182.335 134.756 182.232 134.443 182.025 134.219C181.818 133.991 181.532 133.878 181.169 133.878C180.924 133.878 180.708 133.93 180.521 134.036C180.336 134.141 180.191 134.294 180.086 134.496C179.984 134.695 179.931 134.935 179.928 135.216Z" fill="white"/>
<path d="M260 166H26C24.3431 166 23 167.343 23 169V203C23 204.657 24.3431 206 26 206H260C261.657 206 263 204.657 263 203V169C263 167.343 261.657 166 260 166Z" fill="#F39C12"/>
<path d="M108.989 182.783C108.955 182.439 108.809 182.172 108.55 181.982C108.292 181.791 107.941 181.696 107.498 181.696C107.196 181.696 106.942 181.739 106.735 181.824C106.527 181.906 106.368 182.021 106.257 182.169C106.15 182.317 106.096 182.484 106.096 182.672C106.09 182.828 106.123 182.964 106.194 183.081C106.267 183.197 106.368 183.298 106.496 183.384C106.624 183.466 106.772 183.538 106.939 183.601C107.107 183.661 107.286 183.712 107.476 183.754L108.26 183.942C108.641 184.027 108.99 184.141 109.309 184.283C109.627 184.425 109.902 184.599 110.135 184.807C110.368 185.014 110.549 185.259 110.676 185.54C110.807 185.821 110.874 186.143 110.877 186.507C110.874 187.041 110.738 187.504 110.468 187.896C110.201 188.286 109.814 188.588 109.309 188.804C108.806 189.017 108.199 189.124 107.489 189.124C106.784 189.124 106.171 189.016 105.648 188.8C105.128 188.584 104.722 188.264 104.429 187.841C104.14 187.415 103.988 186.888 103.973 186.26H105.759C105.779 186.553 105.863 186.797 106.01 186.993C106.161 187.186 106.361 187.332 106.611 187.432C106.864 187.528 107.15 187.577 107.468 187.577C107.78 187.577 108.051 187.531 108.282 187.44C108.515 187.349 108.695 187.223 108.823 187.061C108.951 186.899 109.015 186.713 109.015 186.503C109.015 186.307 108.956 186.142 108.84 186.009C108.726 185.875 108.559 185.761 108.337 185.668C108.118 185.574 107.85 185.489 107.532 185.412L106.581 185.173C105.846 184.994 105.265 184.714 104.838 184.334C104.412 183.953 104.201 183.44 104.203 182.795C104.201 182.267 104.341 181.805 104.625 181.411C104.912 181.016 105.306 180.707 105.806 180.486C106.306 180.264 106.874 180.153 107.51 180.153C108.158 180.153 108.723 180.264 109.206 180.486C109.692 180.707 110.07 181.016 110.34 181.411C110.61 181.805 110.749 182.263 110.757 182.783H108.989ZM113.729 187.116L113.733 184.939H113.997L116.094 182.455H118.178L115.361 185.744H114.93L113.729 187.116ZM112.084 189V180.273H113.899V189H112.084ZM116.175 189L114.249 186.149L115.459 184.866L118.301 189H116.175ZM119.068 189V182.455H120.884V189H119.068ZM119.98 181.611C119.71 181.611 119.479 181.521 119.286 181.342C119.095 181.161 119 180.943 119 180.69C119 180.44 119.095 180.226 119.286 180.047C119.479 179.865 119.71 179.774 119.98 179.774C120.25 179.774 120.48 179.865 120.67 180.047C120.864 180.226 120.96 180.44 120.96 180.69C120.96 180.943 120.864 181.161 120.67 181.342C120.48 181.521 120.25 181.611 119.98 181.611ZM124.153 180.273V189H122.338V180.273H124.153ZM127.423 180.273V189H125.607V180.273H127.423ZM134.323 184.321L132.661 184.423C132.632 184.281 132.571 184.153 132.478 184.04C132.384 183.923 132.26 183.831 132.107 183.763C131.956 183.692 131.776 183.656 131.566 183.656C131.284 183.656 131.047 183.716 130.854 183.835C130.661 183.952 130.564 184.108 130.564 184.304C130.564 184.46 130.627 184.592 130.752 184.7C130.877 184.808 131.091 184.895 131.395 184.96L132.58 185.199C133.216 185.33 133.691 185.54 134.003 185.83C134.316 186.119 134.472 186.5 134.472 186.972C134.472 187.401 134.346 187.777 134.093 188.101C133.843 188.425 133.499 188.678 133.061 188.859C132.627 189.038 132.125 189.128 131.557 189.128C130.691 189.128 130 188.947 129.486 188.587C128.975 188.223 128.675 187.729 128.587 187.104L130.373 187.01C130.426 187.274 130.557 187.476 130.765 187.615C130.972 187.751 131.238 187.82 131.561 187.82C131.88 187.82 132.135 187.759 132.328 187.636C132.525 187.511 132.624 187.351 132.627 187.155C132.624 186.99 132.554 186.855 132.418 186.75C132.282 186.642 132.071 186.56 131.787 186.503L130.654 186.277C130.015 186.149 129.539 185.928 129.226 185.612C128.917 185.297 128.762 184.895 128.762 184.406C128.762 183.986 128.875 183.624 129.103 183.32C129.333 183.016 129.655 182.781 130.07 182.616C130.488 182.452 130.976 182.369 131.536 182.369C132.363 182.369 133.013 182.544 133.488 182.893C133.965 183.243 134.243 183.719 134.323 184.321ZM143.161 182.783C143.127 182.439 142.98 182.172 142.722 181.982C142.463 181.791 142.113 181.696 141.669 181.696C141.368 181.696 141.114 181.739 140.907 181.824C140.699 181.906 140.54 182.021 140.429 182.169C140.321 182.317 140.267 182.484 140.267 182.672C140.262 182.828 140.294 182.964 140.365 183.081C140.439 183.197 140.54 183.298 140.668 183.384C140.796 183.466 140.944 183.538 141.111 183.601C141.279 183.661 141.458 183.712 141.648 183.754L142.432 183.942C142.813 184.027 143.162 184.141 143.48 184.283C143.799 184.425 144.074 184.599 144.307 184.807C144.54 185.014 144.721 185.259 144.848 185.54C144.979 185.821 145.046 186.143 145.049 186.507C145.046 187.041 144.909 187.504 144.64 187.896C144.373 188.286 143.986 188.588 143.48 188.804C142.978 189.017 142.371 189.124 141.661 189.124C140.956 189.124 140.343 189.016 139.82 188.8C139.3 188.584 138.894 188.264 138.601 187.841C138.311 187.415 138.159 186.888 138.145 186.26H139.931C139.951 186.553 140.034 186.797 140.182 186.993C140.333 187.186 140.533 187.332 140.783 187.432C141.036 187.528 141.321 187.577 141.64 187.577C141.952 187.577 142.223 187.531 142.453 187.44C142.686 187.349 142.867 187.223 142.995 187.061C143.123 186.899 143.186 186.713 143.186 186.503C143.186 186.307 143.128 186.142 143.012 186.009C142.898 185.875 142.73 185.761 142.509 185.668C142.29 185.574 142.022 185.489 141.703 185.412L140.753 185.173C140.017 184.994 139.436 184.714 139.01 184.334C138.584 183.953 138.373 183.44 138.375 182.795C138.373 182.267 138.513 181.805 138.797 181.411C139.084 181.016 139.478 180.707 139.978 180.486C140.478 180.264 141.046 180.153 141.682 180.153C142.33 180.153 142.895 180.264 143.378 180.486C143.864 180.707 144.242 181.016 144.512 181.411C144.782 181.805 144.921 182.263 144.929 182.783H143.161ZM149.239 189.128C148.565 189.128 147.986 188.991 147.5 188.719C147.017 188.443 146.645 188.054 146.384 187.551C146.122 187.045 145.991 186.447 145.991 185.757C145.991 185.084 146.122 184.493 146.384 183.984C146.645 183.476 147.013 183.08 147.487 182.795C147.964 182.511 148.524 182.369 149.166 182.369C149.598 182.369 150 182.439 150.372 182.578C150.747 182.714 151.074 182.92 151.352 183.196C151.634 183.472 151.852 183.818 152.009 184.236C152.165 184.651 152.243 185.136 152.243 185.693V186.192H146.716V185.067H150.534C150.534 184.805 150.477 184.574 150.364 184.372C150.25 184.17 150.092 184.013 149.891 183.899C149.692 183.783 149.46 183.724 149.196 183.724C148.92 183.724 148.676 183.788 148.463 183.916C148.253 184.041 148.088 184.21 147.969 184.423C147.849 184.634 147.788 184.868 147.786 185.126V186.196C147.786 186.52 147.845 186.8 147.964 187.036C148.087 187.271 148.259 187.453 148.48 187.581C148.702 187.709 148.964 187.773 149.268 187.773C149.47 187.773 149.655 187.744 149.822 187.688C149.99 187.631 150.134 187.545 150.253 187.432C150.372 187.318 150.463 187.179 150.526 187.014L152.205 187.125C152.119 187.528 151.945 187.881 151.68 188.182C151.419 188.48 151.081 188.713 150.666 188.881C150.254 189.045 149.778 189.128 149.239 189.128ZM156.385 189.128C155.714 189.128 155.138 188.986 154.655 188.702C154.175 188.415 153.805 188.017 153.547 187.509C153.291 187 153.163 186.415 153.163 185.753C153.163 185.082 153.293 184.494 153.551 183.989C153.813 183.48 154.183 183.084 154.663 182.8C155.143 182.513 155.714 182.369 156.376 182.369C156.947 182.369 157.447 182.473 157.876 182.68C158.305 182.888 158.645 183.179 158.895 183.554C159.145 183.929 159.283 184.369 159.308 184.875H157.595C157.547 184.548 157.419 184.286 157.212 184.087C157.007 183.885 156.739 183.784 156.406 183.784C156.125 183.784 155.879 183.861 155.669 184.014C155.462 184.165 155.3 184.385 155.183 184.675C155.067 184.964 155.009 185.315 155.009 185.727C155.009 186.145 155.065 186.5 155.179 186.793C155.295 187.085 155.459 187.308 155.669 187.462C155.879 187.615 156.125 187.692 156.406 187.692C156.614 187.692 156.8 187.649 156.964 187.564C157.132 187.479 157.27 187.355 157.378 187.193C157.489 187.028 157.561 186.831 157.595 186.601H159.308C159.28 187.101 159.143 187.541 158.899 187.922C158.658 188.3 158.324 188.595 157.898 188.808C157.472 189.021 156.967 189.128 156.385 189.128ZM163.952 182.455V183.818H160.01V182.455H163.952ZM160.905 180.886H162.721V186.989C162.721 187.156 162.746 187.287 162.797 187.381C162.848 187.472 162.919 187.536 163.01 187.572C163.104 187.609 163.212 187.628 163.334 187.628C163.419 187.628 163.505 187.621 163.59 187.607C163.675 187.589 163.74 187.577 163.786 187.568L164.071 188.919C163.98 188.947 163.853 188.98 163.688 189.017C163.523 189.057 163.323 189.081 163.087 189.089C162.65 189.107 162.266 189.048 161.936 188.915C161.61 188.781 161.355 188.574 161.174 188.293C160.992 188.011 160.902 187.656 160.905 187.227V180.886ZM165.135 189V182.455H166.95V189H165.135ZM166.047 181.611C165.777 181.611 165.545 181.521 165.352 181.342C165.162 181.161 165.066 180.943 165.066 180.69C165.066 180.44 165.162 180.226 165.352 180.047C165.545 179.865 165.777 179.774 166.047 179.774C166.316 179.774 166.547 179.865 166.737 180.047C166.93 180.226 167.027 180.44 167.027 180.69C167.027 180.943 166.93 181.161 166.737 181.342C166.547 181.521 166.316 181.611 166.047 181.611ZM171.362 189.128C170.7 189.128 170.127 188.987 169.644 188.706C169.164 188.422 168.793 188.027 168.532 187.521C168.271 187.013 168.14 186.423 168.14 185.753C168.14 185.077 168.271 184.486 168.532 183.98C168.793 183.472 169.164 183.077 169.644 182.795C170.127 182.511 170.7 182.369 171.362 182.369C172.023 182.369 172.594 182.511 173.075 182.795C173.558 183.077 173.93 183.472 174.191 183.98C174.452 184.486 174.583 185.077 174.583 185.753C174.583 186.423 174.452 187.013 174.191 187.521C173.93 188.027 173.558 188.422 173.075 188.706C172.594 188.987 172.023 189.128 171.362 189.128ZM171.37 187.722C171.671 187.722 171.923 187.636 172.124 187.466C172.326 187.293 172.478 187.057 172.58 186.759C172.685 186.46 172.738 186.121 172.738 185.74C172.738 185.359 172.685 185.02 172.58 184.722C172.478 184.423 172.326 184.187 172.124 184.014C171.923 183.841 171.671 183.754 171.37 183.754C171.066 183.754 170.81 183.841 170.603 184.014C170.398 184.187 170.244 184.423 170.138 184.722C170.036 185.02 169.985 185.359 169.985 185.74C169.985 186.121 170.036 186.46 170.138 186.759C170.244 187.057 170.398 187.293 170.603 187.466C170.81 187.636 171.066 187.722 171.37 187.722ZM177.579 185.216V189H175.763V182.455H177.494V183.609H177.57C177.715 183.229 177.958 182.928 178.299 182.706C178.64 182.482 179.053 182.369 179.539 182.369C179.994 182.369 180.39 182.469 180.728 182.668C181.066 182.866 181.329 183.151 181.516 183.52C181.704 183.886 181.798 184.324 181.798 184.832V189H179.982V185.156C179.985 184.756 179.883 184.443 179.675 184.219C179.468 183.991 179.183 183.878 178.819 183.878C178.575 183.878 178.359 183.93 178.171 184.036C177.987 184.141 177.842 184.294 177.737 184.496C177.634 184.695 177.582 184.935 177.579 185.216Z" fill="white"/>
<path d="M260 216H26C24.3431 216 23 217.343 23 219V268C23 269.657 24.3431 271 26 271H260C261.657 271 263 269.657 263 268V219C263 217.343 261.657 216 260 216Z" fill="#9B59B6"/>
<path d="M95.6824 247V238.273H99.1255C99.7875 238.273 100.351 238.399 100.817 238.652C101.283 238.902 101.638 239.25 101.883 239.696C102.13 240.139 102.253 240.651 102.253 241.23C102.253 241.81 102.128 242.321 101.878 242.764C101.628 243.207 101.266 243.553 100.792 243.8C100.32 244.047 99.7491 244.17 99.0787 244.17H96.8841V242.692H98.7804C99.1355 242.692 99.4281 242.631 99.6582 242.509C99.8912 242.384 100.064 242.212 100.178 241.993C100.295 241.771 100.353 241.517 100.353 241.23C100.353 240.94 100.295 240.687 100.178 240.472C100.064 240.253 99.8912 240.084 99.6582 239.964C99.4252 239.842 99.1298 239.781 98.7718 239.781H97.5275V247H95.6824ZM103.418 247V240.455H105.178V241.597H105.246C105.365 241.19 105.566 240.884 105.847 240.676C106.128 240.466 106.452 240.361 106.818 240.361C106.909 240.361 107.007 240.366 107.112 240.378C107.218 240.389 107.31 240.405 107.389 240.425V242.036C107.304 242.01 107.186 241.987 107.036 241.967C106.885 241.947 106.747 241.938 106.622 241.938C106.355 241.938 106.117 241.996 105.906 242.112C105.699 242.226 105.534 242.385 105.412 242.589C105.293 242.794 105.233 243.03 105.233 243.297V247H103.418ZM110.981 247.128C110.319 247.128 109.746 246.987 109.263 246.706C108.783 246.422 108.412 246.027 108.151 245.521C107.89 245.013 107.759 244.423 107.759 243.753C107.759 243.077 107.89 242.486 108.151 241.98C108.412 241.472 108.783 241.077 109.263 240.795C109.746 240.511 110.319 240.369 110.981 240.369C111.643 240.369 112.214 240.511 112.694 240.795C113.177 241.077 113.549 241.472 113.81 241.98C114.072 242.486 114.202 243.077 114.202 243.753C114.202 244.423 114.072 245.013 113.81 245.521C113.549 246.027 113.177 246.422 112.694 246.706C112.214 246.987 111.643 247.128 110.981 247.128ZM110.989 245.722C111.29 245.722 111.542 245.636 111.743 245.466C111.945 245.293 112.097 245.057 112.199 244.759C112.305 244.46 112.357 244.121 112.357 243.74C112.357 243.359 112.305 243.02 112.199 242.722C112.097 242.423 111.945 242.187 111.743 242.014C111.542 241.841 111.29 241.754 110.989 241.754C110.685 241.754 110.43 241.841 110.222 242.014C110.018 242.187 109.863 242.423 109.758 242.722C109.655 243.02 109.604 243.359 109.604 243.74C109.604 244.121 109.655 244.46 109.758 244.759C109.863 245.057 110.018 245.293 110.222 245.466C110.43 245.636 110.685 245.722 110.989 245.722ZM115.383 240.455H117.198V247.324C117.198 247.83 117.099 248.239 116.9 248.551C116.701 248.864 116.415 249.092 116.043 249.237C115.674 249.382 115.232 249.455 114.718 249.455C114.655 249.455 114.596 249.453 114.539 249.45C114.479 249.45 114.417 249.449 114.351 249.446V248.027C114.4 248.03 114.442 248.031 114.479 248.031C114.513 248.034 114.55 248.036 114.59 248.036C114.883 248.036 115.087 247.973 115.204 247.848C115.323 247.726 115.383 247.541 115.383 247.294V240.455ZM116.286 239.611C116.019 239.611 115.789 239.521 115.596 239.342C115.403 239.161 115.306 238.943 115.306 238.69C115.306 238.44 115.403 238.226 115.596 238.047C115.789 237.865 116.019 237.774 116.286 237.774C116.559 237.774 116.79 237.865 116.981 238.047C117.174 238.226 117.27 238.44 117.27 238.69C117.27 238.943 117.174 239.161 116.981 239.342C116.79 239.521 116.559 239.611 116.286 239.611ZM121.635 247.128C120.962 247.128 120.382 246.991 119.896 246.719C119.414 246.443 119.041 246.054 118.78 245.551C118.519 245.045 118.388 244.447 118.388 243.757C118.388 243.084 118.519 242.493 118.78 241.984C119.041 241.476 119.409 241.08 119.884 240.795C120.361 240.511 120.921 240.369 121.563 240.369C121.994 240.369 122.396 240.439 122.769 240.578C123.144 240.714 123.47 240.92 123.749 241.196C124.03 241.472 124.249 241.818 124.405 242.236C124.561 242.651 124.639 243.136 124.639 243.693V244.192H119.112V243.067H122.931C122.931 242.805 122.874 242.574 122.76 242.372C122.646 242.17 122.489 242.013 122.287 241.899C122.088 241.783 121.857 241.724 121.593 241.724C121.317 241.724 121.073 241.788 120.86 241.916C120.649 242.041 120.485 242.21 120.365 242.423C120.246 242.634 120.185 242.868 120.182 243.126V244.196C120.182 244.52 120.242 244.8 120.361 245.036C120.483 245.271 120.655 245.453 120.877 245.581C121.098 245.709 121.361 245.773 121.665 245.773C121.867 245.773 122.051 245.744 122.219 245.688C122.387 245.631 122.53 245.545 122.649 245.432C122.769 245.318 122.86 245.179 122.922 245.014L124.601 245.125C124.516 245.528 124.341 245.881 124.077 246.182C123.816 246.48 123.477 246.713 123.063 246.881C122.651 247.045 122.175 247.128 121.635 247.128ZM128.781 247.128C128.111 247.128 127.534 246.986 127.051 246.702C126.571 246.415 126.202 246.017 125.943 245.509C125.688 245 125.56 244.415 125.56 243.753C125.56 243.082 125.689 242.494 125.948 241.989C126.209 241.48 126.58 241.084 127.06 240.8C127.54 240.513 128.111 240.369 128.773 240.369C129.344 240.369 129.844 240.473 130.273 240.68C130.702 240.888 131.041 241.179 131.291 241.554C131.541 241.929 131.679 242.369 131.705 242.875H129.992C129.943 242.548 129.816 242.286 129.608 242.087C129.404 241.885 129.135 241.784 128.803 241.784C128.521 241.784 128.276 241.861 128.066 242.014C127.858 242.165 127.696 242.385 127.58 242.675C127.463 242.964 127.405 243.315 127.405 243.727C127.405 244.145 127.462 244.5 127.575 244.793C127.692 245.085 127.855 245.308 128.066 245.462C128.276 245.615 128.521 245.692 128.803 245.692C129.01 245.692 129.196 245.649 129.361 245.564C129.529 245.479 129.666 245.355 129.774 245.193C129.885 245.028 129.958 244.831 129.992 244.601H131.705C131.676 245.101 131.54 245.541 131.296 245.922C131.054 246.3 130.72 246.595 130.294 246.808C129.868 247.021 129.364 247.128 128.781 247.128ZM136.349 240.455V241.818H132.407V240.455H136.349ZM133.302 238.886H135.117V244.989C135.117 245.156 135.143 245.287 135.194 245.381C135.245 245.472 135.316 245.536 135.407 245.572C135.501 245.609 135.608 245.628 135.731 245.628C135.816 245.628 135.901 245.621 135.986 245.607C136.072 245.589 136.137 245.577 136.182 245.568L136.468 246.919C136.377 246.947 136.249 246.98 136.084 247.017C135.92 247.057 135.719 247.081 135.483 247.089C135.046 247.107 134.662 247.048 134.333 246.915C134.006 246.781 133.752 246.574 133.57 246.293C133.388 246.011 133.299 245.656 133.302 245.227V238.886ZM142.895 242.321L141.233 242.423C141.205 242.281 141.144 242.153 141.05 242.04C140.956 241.923 140.833 241.831 140.679 241.763C140.529 241.692 140.348 241.656 140.138 241.656C139.857 241.656 139.619 241.716 139.426 241.835C139.233 241.952 139.137 242.108 139.137 242.304C139.137 242.46 139.199 242.592 139.324 242.7C139.449 242.808 139.664 242.895 139.968 242.96L141.152 243.199C141.789 243.33 142.263 243.54 142.575 243.83C142.888 244.119 143.044 244.5 143.044 244.972C143.044 245.401 142.918 245.777 142.665 246.101C142.415 246.425 142.071 246.678 141.634 246.859C141.199 247.038 140.698 247.128 140.129 247.128C139.263 247.128 138.573 246.947 138.058 246.587C137.547 246.223 137.247 245.729 137.159 245.104L138.945 245.01C138.999 245.274 139.129 245.476 139.337 245.615C139.544 245.751 139.81 245.82 140.134 245.82C140.452 245.82 140.708 245.759 140.901 245.636C141.097 245.511 141.196 245.351 141.199 245.155C141.196 244.99 141.127 244.855 140.99 244.75C140.854 244.642 140.644 244.56 140.36 244.503L139.226 244.277C138.587 244.149 138.111 243.928 137.798 243.612C137.489 243.297 137.334 242.895 137.334 242.406C137.334 241.986 137.448 241.624 137.675 241.32C137.905 241.016 138.227 240.781 138.642 240.616C139.06 240.452 139.548 240.369 140.108 240.369C140.935 240.369 141.585 240.544 142.06 240.893C142.537 241.243 142.816 241.719 142.895 242.321ZM151.733 240.783C151.699 240.439 151.553 240.172 151.294 239.982C151.036 239.791 150.685 239.696 150.242 239.696C149.941 239.696 149.686 239.739 149.479 239.824C149.271 239.906 149.112 240.021 149.002 240.169C148.894 240.317 148.84 240.484 148.84 240.672C148.834 240.828 148.867 240.964 148.938 241.081C149.012 241.197 149.112 241.298 149.24 241.384C149.368 241.466 149.516 241.538 149.683 241.601C149.851 241.661 150.03 241.712 150.22 241.754L151.004 241.942C151.385 242.027 151.735 242.141 152.053 242.283C152.371 242.425 152.646 242.599 152.879 242.807C153.112 243.014 153.293 243.259 153.421 243.54C153.551 243.821 153.618 244.143 153.621 244.507C153.618 245.041 153.482 245.504 153.212 245.896C152.945 246.286 152.558 246.588 152.053 246.804C151.55 247.017 150.943 247.124 150.233 247.124C149.529 247.124 148.915 247.016 148.392 246.8C147.872 246.584 147.466 246.264 147.173 245.841C146.884 245.415 146.732 244.888 146.718 244.26H148.503C148.523 244.553 148.607 244.797 148.754 244.993C148.905 245.186 149.105 245.332 149.355 245.432C149.608 245.528 149.894 245.577 150.212 245.577C150.524 245.577 150.796 245.531 151.026 245.44C151.259 245.349 151.439 245.223 151.567 245.061C151.695 244.899 151.759 244.713 151.759 244.503C151.759 244.307 151.7 244.142 151.584 244.009C151.47 243.875 151.303 243.761 151.081 243.668C150.862 243.574 150.594 243.489 150.276 243.412L149.325 243.173C148.59 242.994 148.009 242.714 147.583 242.334C147.156 241.953 146.945 241.44 146.948 240.795C146.945 240.267 147.085 239.805 147.369 239.411C147.656 239.016 148.05 238.707 148.55 238.486C149.05 238.264 149.618 238.153 150.254 238.153C150.902 238.153 151.468 238.264 151.95 238.486C152.436 238.707 152.814 239.016 153.084 239.411C153.354 239.805 153.493 240.263 153.502 240.783H151.733ZM157.811 247.128C157.138 247.128 156.558 246.991 156.072 246.719C155.589 246.443 155.217 246.054 154.956 245.551C154.694 245.045 154.564 244.447 154.564 243.757C154.564 243.084 154.694 242.493 154.956 241.984C155.217 241.476 155.585 241.08 156.059 240.795C156.537 240.511 157.096 240.369 157.738 240.369C158.17 240.369 158.572 240.439 158.944 240.578C159.319 240.714 159.646 240.92 159.925 241.196C160.206 241.472 160.425 241.818 160.581 242.236C160.737 242.651 160.815 243.136 160.815 243.693V244.192H155.288V243.067H159.106C159.106 242.805 159.05 242.574 158.936 242.372C158.822 242.17 158.665 242.013 158.463 241.899C158.264 241.783 158.032 241.724 157.768 241.724C157.493 241.724 157.248 241.788 157.035 241.916C156.825 242.041 156.66 242.21 156.541 242.423C156.422 242.634 156.361 242.868 156.358 243.126V244.196C156.358 244.52 156.417 244.8 156.537 245.036C156.659 245.271 156.831 245.453 157.052 245.581C157.274 245.709 157.537 245.773 157.841 245.773C158.042 245.773 158.227 245.744 158.395 245.688C158.562 245.631 158.706 245.545 158.825 245.432C158.944 245.318 159.035 245.179 159.098 245.014L160.777 245.125C160.692 245.528 160.517 245.881 160.253 246.182C159.991 246.48 159.653 246.713 159.238 246.881C158.827 247.045 158.351 247.128 157.811 247.128ZM164.957 247.128C164.287 247.128 163.71 246.986 163.227 246.702C162.747 246.415 162.378 246.017 162.119 245.509C161.863 245 161.736 244.415 161.736 243.753C161.736 243.082 161.865 242.494 162.123 241.989C162.385 241.48 162.756 241.084 163.236 240.8C163.716 240.513 164.287 240.369 164.949 240.369C165.52 240.369 166.02 240.473 166.449 240.68C166.878 240.888 167.217 241.179 167.467 241.554C167.717 241.929 167.855 242.369 167.881 242.875H166.167C166.119 242.548 165.991 242.286 165.784 242.087C165.579 241.885 165.311 241.784 164.979 241.784C164.697 241.784 164.452 241.861 164.241 242.014C164.034 242.165 163.872 242.385 163.756 242.675C163.639 242.964 163.581 243.315 163.581 243.727C163.581 244.145 163.638 244.5 163.751 244.793C163.868 245.085 164.031 245.308 164.241 245.462C164.452 245.615 164.697 245.692 164.979 245.692C165.186 245.692 165.372 245.649 165.537 245.564C165.704 245.479 165.842 245.355 165.95 245.193C166.061 245.028 166.133 244.831 166.167 244.601H167.881C167.852 245.101 167.716 245.541 167.471 245.922C167.23 246.3 166.896 246.595 166.47 246.808C166.044 247.021 165.54 247.128 164.957 247.128ZM172.524 240.455V241.818H168.583V240.455H172.524ZM169.477 238.886H171.293V244.989C171.293 245.156 171.318 245.287 171.369 245.381C171.421 245.472 171.492 245.536 171.583 245.572C171.676 245.609 171.784 245.628 171.906 245.628C171.992 245.628 172.077 245.621 172.162 245.607C172.247 245.589 172.313 245.577 172.358 245.568L172.644 246.919C172.553 246.947 172.425 246.98 172.26 247.017C172.095 247.057 171.895 247.081 171.659 247.089C171.222 247.107 170.838 247.048 170.509 246.915C170.182 246.781 169.928 246.574 169.746 246.293C169.564 246.011 169.475 245.656 169.477 245.227V238.886ZM173.707 247V240.455H175.522V247H173.707ZM174.619 239.611C174.349 239.611 174.117 239.521 173.924 239.342C173.734 239.161 173.639 238.943 173.639 238.69C173.639 238.44 173.734 238.226 173.924 238.047C174.117 237.865 174.349 237.774 174.619 237.774C174.889 237.774 175.119 237.865 175.309 238.047C175.502 238.226 175.599 238.44 175.599 238.69C175.599 238.943 175.502 239.161 175.309 239.342C175.119 239.521 174.889 239.611 174.619 239.611ZM179.934 247.128C179.272 247.128 178.699 246.987 178.216 246.706C177.736 246.422 177.366 246.027 177.104 245.521C176.843 245.013 176.712 244.423 176.712 243.753C176.712 243.077 176.843 242.486 177.104 241.98C177.366 241.472 177.736 241.077 178.216 240.795C178.699 240.511 179.272 240.369 179.934 240.369C180.596 240.369 181.167 240.511 181.647 240.795C182.13 241.077 182.502 241.472 182.763 241.98C183.025 242.486 183.155 243.077 183.155 243.753C183.155 244.423 183.025 245.013 182.763 245.521C182.502 246.027 182.13 246.422 181.647 246.706C181.167 246.987 180.596 247.128 179.934 247.128ZM179.942 245.722C180.243 245.722 180.495 245.636 180.697 245.466C180.898 245.293 181.05 245.057 181.153 244.759C181.258 244.46 181.31 244.121 181.31 243.74C181.31 243.359 181.258 243.02 181.153 242.722C181.05 242.423 180.898 242.187 180.697 242.014C180.495 241.841 180.243 241.754 179.942 241.754C179.638 241.754 179.383 241.841 179.175 242.014C178.971 242.187 178.816 242.423 178.711 242.722C178.608 243.02 178.557 243.359 178.557 243.74C178.557 244.121 178.608 244.46 178.711 244.759C178.816 245.057 178.971 245.293 179.175 245.466C179.383 245.636 179.638 245.722 179.942 245.722ZM186.151 243.216V247H184.336V240.455H186.066V241.609H186.143C186.287 241.229 186.53 240.928 186.871 240.706C187.212 240.482 187.626 240.369 188.111 240.369C188.566 240.369 188.962 240.469 189.3 240.668C189.638 240.866 189.901 241.151 190.089 241.52C190.276 241.886 190.37 242.324 190.37 242.832V247H188.555V243.156C188.557 242.756 188.455 242.443 188.248 242.219C188.04 241.991 187.755 241.878 187.391 241.878C187.147 241.878 186.931 241.93 186.743 242.036C186.559 242.141 186.414 242.294 186.309 242.496C186.206 242.695 186.154 242.935 186.151 243.216Z" fill="white"/>
<path d="M260 281H26C24.3431 281 23 282.343 23 284V313C23 314.657 24.3431 316 26 316H260C261.657 316 263 314.657 263 313V284C263 282.343 261.657 281 260 281Z" fill="#1ABC9C"/>
<path d="M104.062 296.328H102.196C102.162 296.087 102.092 295.872 101.987 295.685C101.882 295.494 101.747 295.332 101.582 295.199C101.417 295.065 101.227 294.963 101.011 294.892C100.798 294.821 100.567 294.786 100.317 294.786C99.8649 294.786 99.4714 294.898 99.1362 295.122C98.801 295.344 98.541 295.668 98.3564 296.094C98.1717 296.517 98.0794 297.031 98.0794 297.636C98.0794 298.259 98.1717 298.781 98.3564 299.205C98.5439 299.628 98.8052 299.947 99.1404 300.163C99.4757 300.379 99.8635 300.487 100.304 300.487C100.551 300.487 100.78 300.455 100.99 300.389C101.203 300.324 101.392 300.229 101.557 300.104C101.721 299.976 101.858 299.821 101.966 299.639C102.077 299.457 102.153 299.25 102.196 299.017L104.062 299.026C104.014 299.426 103.893 299.812 103.7 300.185C103.51 300.554 103.253 300.885 102.929 301.178C102.608 301.467 102.224 301.697 101.778 301.868C101.335 302.036 100.834 302.119 100.274 302.119C99.4956 302.119 98.7995 301.943 98.1859 301.591C97.5751 301.239 97.0922 300.729 96.737 300.061C96.3848 299.393 96.2086 298.585 96.2086 297.636C96.2086 296.685 96.3876 295.875 96.7456 295.207C97.1035 294.54 97.5893 294.031 98.2029 293.682C98.8166 293.33 99.5069 293.153 100.274 293.153C100.78 293.153 101.248 293.224 101.68 293.366C102.115 293.509 102.5 293.716 102.835 293.989C103.17 294.259 103.443 294.589 103.653 294.982C103.866 295.374 104.003 295.822 104.062 296.328ZM108.309 302.128C107.647 302.128 107.074 301.987 106.591 301.706C106.111 301.422 105.741 301.027 105.479 300.521C105.218 300.013 105.087 299.423 105.087 298.753C105.087 298.077 105.218 297.486 105.479 296.98C105.741 296.472 106.111 296.077 106.591 295.795C107.074 295.511 107.647 295.369 108.309 295.369C108.971 295.369 109.542 295.511 110.022 295.795C110.505 296.077 110.877 296.472 111.138 296.98C111.4 297.486 111.53 298.077 111.53 298.753C111.53 299.423 111.4 300.013 111.138 300.521C110.877 301.027 110.505 301.422 110.022 301.706C109.542 301.987 108.971 302.128 108.309 302.128ZM108.317 300.722C108.618 300.722 108.87 300.636 109.072 300.466C109.273 300.293 109.425 300.057 109.528 299.759C109.633 299.46 109.685 299.121 109.685 298.74C109.685 298.359 109.633 298.02 109.528 297.722C109.425 297.423 109.273 297.187 109.072 297.014C108.87 296.841 108.618 296.754 108.317 296.754C108.013 296.754 107.758 296.841 107.55 297.014C107.346 297.187 107.191 297.423 107.086 297.722C106.983 298.02 106.932 298.359 106.932 298.74C106.932 299.121 106.983 299.46 107.086 299.759C107.191 300.057 107.346 300.293 107.55 300.466C107.758 300.636 108.013 300.722 108.317 300.722ZM114.526 298.216V302H112.711V295.455H114.441V296.609H114.518C114.662 296.229 114.905 295.928 115.246 295.706C115.587 295.482 116.001 295.369 116.486 295.369C116.941 295.369 117.337 295.469 117.675 295.668C118.013 295.866 118.276 296.151 118.464 296.52C118.651 296.886 118.745 297.324 118.745 297.832V302H116.93V298.156C116.932 297.756 116.83 297.443 116.623 297.219C116.415 296.991 116.13 296.878 115.766 296.878C115.522 296.878 115.306 296.93 115.118 297.036C114.934 297.141 114.789 297.294 114.684 297.496C114.581 297.695 114.529 297.935 114.526 298.216ZM123.657 295.455V296.818H119.715V295.455H123.657ZM120.61 293.886H122.426V299.989C122.426 300.156 122.451 300.287 122.502 300.381C122.553 300.472 122.624 300.536 122.715 300.572C122.809 300.609 122.917 300.628 123.039 300.628C123.124 300.628 123.21 300.621 123.295 300.607C123.38 300.589 123.445 300.577 123.491 300.568L123.776 301.919C123.686 301.947 123.558 301.98 123.393 302.017C123.228 302.057 123.028 302.081 122.792 302.089C122.355 302.107 121.971 302.048 121.642 301.915C121.315 301.781 121.061 301.574 120.879 301.293C120.697 301.011 120.607 300.656 120.61 300.227V293.886ZM126.706 302.124C126.289 302.124 125.916 302.051 125.59 301.906C125.263 301.759 125.004 301.541 124.814 301.254C124.627 300.964 124.533 300.604 124.533 300.172C124.533 299.808 124.6 299.503 124.733 299.256C124.867 299.009 125.048 298.81 125.279 298.659C125.509 298.509 125.77 298.395 126.063 298.318C126.358 298.241 126.668 298.188 126.992 298.156C127.372 298.116 127.679 298.08 127.912 298.045C128.145 298.009 128.314 297.955 128.419 297.884C128.524 297.812 128.577 297.707 128.577 297.568V297.543C128.577 297.273 128.492 297.064 128.321 296.916C128.154 296.768 127.915 296.695 127.605 296.695C127.279 296.695 127.019 296.767 126.825 296.912C126.632 297.054 126.504 297.233 126.442 297.449L124.763 297.312C124.848 296.915 125.016 296.571 125.266 296.281C125.516 295.989 125.838 295.764 126.233 295.608C126.631 295.449 127.091 295.369 127.614 295.369C127.977 295.369 128.325 295.412 128.658 295.497C128.993 295.582 129.29 295.714 129.548 295.893C129.81 296.072 130.016 296.303 130.166 296.584C130.317 296.862 130.392 297.196 130.392 297.585V302H128.671V301.092H128.619C128.514 301.297 128.374 301.477 128.198 301.634C128.021 301.787 127.81 301.908 127.563 301.996C127.316 302.081 127.03 302.124 126.706 302.124ZM127.226 300.871C127.493 300.871 127.729 300.818 127.933 300.713C128.138 300.605 128.298 300.46 128.415 300.278C128.531 300.097 128.59 299.891 128.59 299.661V298.966C128.533 299.003 128.455 299.037 128.355 299.068C128.259 299.097 128.149 299.124 128.027 299.149C127.905 299.172 127.783 299.193 127.661 299.213C127.539 299.23 127.428 299.246 127.328 299.26C127.115 299.291 126.929 299.341 126.77 299.409C126.611 299.477 126.487 299.57 126.399 299.686C126.311 299.8 126.267 299.942 126.267 300.112C126.267 300.359 126.357 300.548 126.536 300.679C126.718 300.807 126.948 300.871 127.226 300.871ZM134.758 302.128C134.088 302.128 133.511 301.986 133.028 301.702C132.548 301.415 132.178 301.017 131.92 300.509C131.664 300 131.536 299.415 131.536 298.753C131.536 298.082 131.666 297.494 131.924 296.989C132.186 296.48 132.556 296.084 133.036 295.8C133.517 295.513 134.088 295.369 134.749 295.369C135.32 295.369 135.82 295.473 136.249 295.68C136.678 295.888 137.018 296.179 137.268 296.554C137.518 296.929 137.656 297.369 137.681 297.875H135.968C135.92 297.548 135.792 297.286 135.585 297.087C135.38 296.885 135.112 296.784 134.779 296.784C134.498 296.784 134.252 296.861 134.042 297.014C133.835 297.165 133.673 297.385 133.556 297.675C133.44 297.964 133.382 298.315 133.382 298.727C133.382 299.145 133.438 299.5 133.552 299.793C133.669 300.085 133.832 300.308 134.042 300.462C134.252 300.615 134.498 300.692 134.779 300.692C134.987 300.692 135.173 300.649 135.338 300.564C135.505 300.479 135.643 300.355 135.751 300.193C135.862 300.028 135.934 299.831 135.968 299.601H137.681C137.653 300.101 137.517 300.541 137.272 300.922C137.031 301.3 136.697 301.595 136.271 301.808C135.845 302.021 135.34 302.128 134.758 302.128ZM142.325 295.455V296.818H138.383V295.455H142.325ZM139.278 293.886H141.094V299.989C141.094 300.156 141.119 300.287 141.17 300.381C141.221 300.472 141.292 300.536 141.383 300.572C141.477 300.609 141.585 300.628 141.707 300.628C141.792 300.628 141.878 300.621 141.963 300.607C142.048 300.589 142.113 300.577 142.159 300.568L142.444 301.919C142.354 301.947 142.226 301.98 142.061 302.017C141.896 302.057 141.696 302.081 141.46 302.089C141.023 302.107 140.639 302.048 140.309 301.915C139.983 301.781 139.729 301.574 139.547 301.293C139.365 301.011 139.275 300.656 139.278 300.227V293.886ZM151.053 295.783C151.019 295.439 150.873 295.172 150.615 294.982C150.356 294.791 150.005 294.696 149.562 294.696C149.261 294.696 149.007 294.739 148.799 294.824C148.592 294.906 148.433 295.021 148.322 295.169C148.214 295.317 148.16 295.484 148.16 295.672C148.154 295.828 148.187 295.964 148.258 296.081C148.332 296.197 148.433 296.298 148.561 296.384C148.688 296.466 148.836 296.538 149.004 296.601C149.171 296.661 149.35 296.712 149.541 296.754L150.325 296.942C150.705 297.027 151.055 297.141 151.373 297.283C151.691 297.425 151.967 297.599 152.2 297.807C152.433 298.014 152.613 298.259 152.741 298.54C152.872 298.821 152.938 299.143 152.941 299.507C152.938 300.041 152.802 300.504 152.532 300.896C152.265 301.286 151.879 301.588 151.373 301.804C150.87 302.017 150.264 302.124 149.553 302.124C148.849 302.124 148.235 302.016 147.713 301.8C147.193 301.584 146.786 301.264 146.494 300.841C146.204 300.415 146.052 299.888 146.038 299.26H147.823C147.843 299.553 147.927 299.797 148.075 299.993C148.225 300.186 148.426 300.332 148.676 300.432C148.928 300.528 149.214 300.577 149.532 300.577C149.845 300.577 150.116 300.531 150.346 300.44C150.579 300.349 150.759 300.223 150.887 300.061C151.015 299.899 151.079 299.713 151.079 299.503C151.079 299.307 151.021 299.142 150.904 299.009C150.791 298.875 150.623 298.761 150.401 298.668C150.183 298.574 149.914 298.489 149.596 298.412L148.646 298.173C147.91 297.994 147.329 297.714 146.903 297.334C146.477 296.953 146.265 296.44 146.268 295.795C146.265 295.267 146.406 294.805 146.69 294.411C146.977 294.016 147.37 293.707 147.87 293.486C148.37 293.264 148.938 293.153 149.575 293.153C150.222 293.153 150.788 293.264 151.271 293.486C151.757 293.707 152.134 294.016 152.404 294.411C152.674 294.805 152.813 295.263 152.822 295.783H151.053ZM157.131 302.128C156.458 302.128 155.878 301.991 155.393 301.719C154.91 301.443 154.537 301.054 154.276 300.551C154.015 300.045 153.884 299.447 153.884 298.757C153.884 298.084 154.015 297.493 154.276 296.984C154.537 296.476 154.905 296.08 155.38 295.795C155.857 295.511 156.417 295.369 157.059 295.369C157.491 295.369 157.893 295.439 158.265 295.578C158.64 295.714 158.966 295.92 159.245 296.196C159.526 296.472 159.745 296.818 159.901 297.236C160.057 297.651 160.135 298.136 160.135 298.693V299.192H154.608V298.067H158.427C158.427 297.805 158.37 297.574 158.256 297.372C158.143 297.17 157.985 297.013 157.783 296.899C157.584 296.783 157.353 296.724 157.089 296.724C156.813 296.724 156.569 296.788 156.356 296.916C156.145 297.041 155.981 297.21 155.861 297.423C155.742 297.634 155.681 297.868 155.678 298.126V299.196C155.678 299.52 155.738 299.8 155.857 300.036C155.979 300.271 156.151 300.453 156.373 300.581C156.594 300.709 156.857 300.773 157.161 300.773C157.363 300.773 157.547 300.744 157.715 300.688C157.883 300.631 158.026 300.545 158.145 300.432C158.265 300.318 158.356 300.179 158.418 300.014L160.097 300.125C160.012 300.528 159.837 300.881 159.573 301.182C159.312 301.48 158.974 301.713 158.559 301.881C158.147 302.045 157.671 302.128 157.131 302.128ZM164.278 302.128C163.607 302.128 163.03 301.986 162.547 301.702C162.067 301.415 161.698 301.017 161.439 300.509C161.184 300 161.056 299.415 161.056 298.753C161.056 298.082 161.185 297.494 161.444 296.989C161.705 296.48 162.076 296.084 162.556 295.8C163.036 295.513 163.607 295.369 164.269 295.369C164.84 295.369 165.34 295.473 165.769 295.68C166.198 295.888 166.537 296.179 166.787 296.554C167.037 296.929 167.175 297.369 167.201 297.875H165.488C165.439 297.548 165.312 297.286 165.104 297.087C164.9 296.885 164.631 296.784 164.299 296.784C164.018 296.784 163.772 296.861 163.562 297.014C163.354 297.165 163.192 297.385 163.076 297.675C162.959 297.964 162.901 298.315 162.901 298.727C162.901 299.145 162.958 299.5 163.072 299.793C163.188 300.085 163.351 300.308 163.562 300.462C163.772 300.615 164.018 300.692 164.299 300.692C164.506 300.692 164.692 300.649 164.857 300.564C165.025 300.479 165.162 300.355 165.27 300.193C165.381 300.028 165.454 299.831 165.488 299.601H167.201C167.172 300.101 167.036 300.541 166.792 300.922C166.55 301.3 166.216 301.595 165.79 301.808C165.364 302.021 164.86 302.128 164.278 302.128ZM171.845 295.455V296.818H167.903V295.455H171.845ZM168.798 293.886H170.613V299.989C170.613 300.156 170.639 300.287 170.69 300.381C170.741 300.472 170.812 300.536 170.903 300.572C170.997 300.609 171.105 300.628 171.227 300.628C171.312 300.628 171.397 300.621 171.482 300.607C171.568 300.589 171.633 300.577 171.678 300.568L171.964 301.919C171.873 301.947 171.745 301.98 171.58 302.017C171.416 302.057 171.215 302.081 170.98 302.089C170.542 302.107 170.159 302.048 169.829 301.915C169.502 301.781 169.248 301.574 169.066 301.293C168.884 301.011 168.795 300.656 168.798 300.227V293.886ZM173.027 302V295.455H174.843V302H173.027ZM173.939 294.611C173.669 294.611 173.438 294.521 173.244 294.342C173.054 294.161 172.959 293.943 172.959 293.69C172.959 293.44 173.054 293.226 173.244 293.047C173.438 292.865 173.669 292.774 173.939 292.774C174.209 292.774 174.439 292.865 174.629 293.047C174.823 293.226 174.919 293.44 174.919 293.69C174.919 293.943 174.823 294.161 174.629 294.342C174.439 294.521 174.209 294.611 173.939 294.611ZM179.254 302.128C178.592 302.128 178.02 301.987 177.537 301.706C177.057 301.422 176.686 301.027 176.425 300.521C176.163 300.013 176.032 299.423 176.032 298.753C176.032 298.077 176.163 297.486 176.425 296.98C176.686 296.472 177.057 296.077 177.537 295.795C178.02 295.511 178.592 295.369 179.254 295.369C179.916 295.369 180.487 295.511 180.967 295.795C181.45 296.077 181.822 296.472 182.084 296.98C182.345 297.486 182.476 298.077 182.476 298.753C182.476 299.423 182.345 300.013 182.084 300.521C181.822 301.027 181.45 301.422 180.967 301.706C180.487 301.987 179.916 302.128 179.254 302.128ZM179.263 300.722C179.564 300.722 179.815 300.636 180.017 300.466C180.219 300.293 180.371 300.057 180.473 299.759C180.578 299.46 180.631 299.121 180.631 298.74C180.631 298.359 180.578 298.02 180.473 297.722C180.371 297.423 180.219 297.187 180.017 297.014C179.815 296.841 179.564 296.754 179.263 296.754C178.959 296.754 178.703 296.841 178.496 297.014C178.291 297.187 178.136 297.423 178.031 297.722C177.929 298.02 177.878 298.359 177.878 298.74C177.878 299.121 177.929 299.46 178.031 299.759C178.136 300.057 178.291 300.293 178.496 300.466C178.703 300.636 178.959 300.722 179.263 300.722ZM185.471 298.216V302H183.656V295.455H185.386V296.609H185.463C185.608 296.229 185.851 295.928 186.192 295.706C186.532 295.482 186.946 295.369 187.432 295.369C187.886 295.369 188.282 295.469 188.621 295.668C188.959 295.866 189.221 296.151 189.409 296.52C189.596 296.886 189.69 297.324 189.69 297.832V302H187.875V298.156C187.878 297.756 187.775 297.443 187.568 297.219C187.361 296.991 187.075 296.878 186.711 296.878C186.467 296.878 186.251 296.93 186.064 297.036C185.879 297.141 185.734 297.294 185.629 297.496C185.527 297.695 185.474 297.935 185.471 298.216Z" fill="white"/>
<path d="M260 326H26C24.3431 326 23 327.343 23 329V348C23 349.657 24.3431 351 26 351H260C261.657 351 263 349.657 263 348V329C263 327.343 261.657 326 260 326Z" fill="#34495E"/>
<path d="M128.622 341V333.727H132.983V334.509H129.503V336.966H132.656V337.747H129.503V341H128.622ZM136.193 341.114C135.7 341.114 135.268 340.996 134.897 340.762C134.527 340.528 134.239 340.2 134.03 339.778C133.824 339.357 133.721 338.865 133.721 338.301C133.721 337.733 133.824 337.237 134.03 336.813C134.239 336.389 134.527 336.06 134.897 335.826C135.268 335.592 135.7 335.474 136.193 335.474C136.685 335.474 137.116 335.592 137.486 335.826C137.857 336.06 138.146 336.389 138.352 336.813C138.56 337.237 138.665 337.733 138.665 338.301C138.665 338.865 138.56 339.357 138.352 339.778C138.146 340.2 137.857 340.528 137.486 340.762C137.116 340.996 136.685 341.114 136.193 341.114ZM136.193 340.361C136.567 340.361 136.875 340.265 137.116 340.073C137.358 339.881 137.536 339.629 137.652 339.317C137.768 339.004 137.826 338.666 137.826 338.301C137.826 337.937 137.768 337.597 137.652 337.282C137.536 336.967 137.358 336.713 137.116 336.518C136.875 336.324 136.567 336.227 136.193 336.227C135.819 336.227 135.511 336.324 135.27 336.518C135.028 336.713 134.849 336.967 134.733 337.282C134.617 337.597 134.559 337.937 134.559 338.301C134.559 338.666 134.617 339.004 134.733 339.317C134.849 339.629 135.028 339.881 135.27 340.073C135.511 340.265 135.819 340.361 136.193 340.361ZM142.16 341.114C141.667 341.114 141.235 340.996 140.864 340.762C140.494 340.528 140.205 340.2 139.997 339.778C139.791 339.357 139.688 338.865 139.688 338.301C139.688 337.733 139.791 337.237 139.997 336.813C140.205 336.389 140.494 336.06 140.864 335.826C141.235 335.592 141.667 335.474 142.16 335.474C142.652 335.474 143.083 335.592 143.452 335.826C143.824 336.06 144.113 336.389 144.319 336.813C144.527 337.237 144.631 337.733 144.631 338.301C144.631 338.865 144.527 339.357 144.319 339.778C144.113 340.2 143.824 340.528 143.452 340.762C143.083 340.996 142.652 341.114 142.16 341.114ZM142.16 340.361C142.534 340.361 142.842 340.265 143.083 340.073C143.324 339.881 143.503 339.629 143.619 339.317C143.735 339.004 143.793 338.666 143.793 338.301C143.793 337.937 143.735 337.597 143.619 337.282C143.503 336.967 143.324 336.713 143.083 336.518C142.842 336.324 142.534 336.227 142.16 336.227C141.786 336.227 141.478 336.324 141.236 336.518C140.995 336.713 140.816 336.967 140.7 337.282C140.584 337.597 140.526 337.937 140.526 338.301C140.526 338.666 140.584 339.004 140.7 339.317C140.816 339.629 140.995 339.881 141.236 340.073C141.478 340.265 141.786 340.361 142.16 340.361ZM148.283 335.545V336.256H145.456V335.545H148.283ZM146.28 334.239H147.118V339.438C147.118 339.674 147.152 339.852 147.221 339.97C147.292 340.086 147.382 340.164 147.491 340.205C147.602 340.242 147.719 340.261 147.842 340.261C147.935 340.261 148.011 340.257 148.07 340.247C148.129 340.235 148.176 340.226 148.212 340.219L148.382 340.972C148.325 340.993 148.246 341.014 148.144 341.036C148.042 341.059 147.913 341.071 147.757 341.071C147.52 341.071 147.288 341.02 147.061 340.918C146.836 340.817 146.649 340.661 146.5 340.453C146.353 340.245 146.28 339.982 146.28 339.665V334.239ZM151.772 341.114C151.246 341.114 150.793 340.998 150.412 340.766C150.033 340.531 149.741 340.205 149.535 339.786C149.331 339.364 149.229 338.874 149.229 338.315C149.229 337.757 149.331 337.264 149.535 336.838C149.741 336.41 150.027 336.076 150.394 335.837C150.763 335.595 151.194 335.474 151.687 335.474C151.971 335.474 152.251 335.522 152.528 335.616C152.805 335.711 153.057 335.865 153.285 336.078C153.512 336.289 153.693 336.568 153.828 336.916C153.963 337.264 154.03 337.693 154.03 338.202V338.557H149.826V337.832H153.178C153.178 337.525 153.116 337.25 152.993 337.009C152.873 336.767 152.7 336.576 152.475 336.437C152.252 336.297 151.99 336.227 151.687 336.227C151.353 336.227 151.064 336.31 150.82 336.476C150.579 336.639 150.393 336.852 150.263 337.115C150.132 337.378 150.067 337.66 150.067 337.96V338.443C150.067 338.855 150.138 339.204 150.28 339.491C150.425 339.775 150.625 339.991 150.88 340.141C151.136 340.287 151.433 340.361 151.772 340.361C151.992 340.361 152.191 340.33 152.368 340.268C152.548 340.205 152.703 340.11 152.834 339.984C152.964 339.857 153.064 339.698 153.135 339.509L153.945 339.736C153.86 340.01 153.717 340.252 153.515 340.46C153.314 340.666 153.066 340.827 152.77 340.943C152.474 341.057 152.141 341.114 151.772 341.114ZM155.305 341V335.545H156.115V336.369H156.172C156.271 336.099 156.451 335.88 156.711 335.712C156.972 335.544 157.265 335.46 157.592 335.46C157.654 335.46 157.731 335.461 157.823 335.464C157.915 335.466 157.985 335.47 158.032 335.474V336.327C158.004 336.32 157.939 336.309 157.837 336.295C157.738 336.278 157.632 336.27 157.521 336.27C157.256 336.27 157.019 336.326 156.811 336.437C156.605 336.546 156.441 336.697 156.321 336.891C156.202 337.083 156.143 337.302 156.143 337.548V341H155.305Z" fill="white"/>
<path d="M8 36C12.4183 36 16 32.4183 16 28C16 23.5817 12.4183 20 8 20C3.58172 20 0 23.5817 0 28C0 32.4183 3.58172 36 8 36Z" fill="#3498DB"/>
<path d="M9.30726 24.7273V32H7.76962V26.1868H7.72701L6.06152 27.2308V25.8672L7.86195 24.7273H9.30726Z" fill="white"/>
<path d="M8 89C12.4183 89 16 85.4183 16 81C16 76.5817 12.4183 73 8 73C3.58172 73 0 76.5817 0 81C0 85.4183 3.58172 89 8 89Z" fill="#E74C3C"/>
<path d="M5.44007 85V83.892L8.02885 81.495C8.24902 81.282 8.43368 81.0902 8.58283 80.9197C8.73435 80.7493 8.84917 80.5824 8.92729 80.419C9.00542 80.2533 9.04448 80.0746 9.04448 79.8828C9.04448 79.6697 8.99595 79.4863 8.89888 79.3324C8.80182 79.1761 8.66924 79.0566 8.50115 78.9737C8.33307 78.8885 8.14249 78.8459 7.92942 78.8459C7.70688 78.8459 7.51275 78.8909 7.34703 78.9808C7.18132 79.0708 7.05347 79.1998 6.96351 79.3679C6.87355 79.536 6.82857 79.736 6.82857 79.968H5.36905C5.36905 79.4922 5.47677 79.0791 5.69221 78.7287C5.90764 78.3783 6.20949 78.1072 6.59775 77.9155C6.986 77.7237 7.43345 77.6278 7.94007 77.6278C8.46091 77.6278 8.91427 77.7202 9.30016 77.9048C9.68842 78.0871 9.99026 78.3404 10.2057 78.6648C10.4211 78.9891 10.5289 79.3608 10.5289 79.7798C10.5289 80.0545 10.4744 80.3255 10.3655 80.593C10.259 80.8606 10.0684 81.1577 9.79377 81.4844C9.51915 81.8087 9.13207 82.1982 8.63255 82.6527L7.57076 83.6932V83.7429H10.6247V85H5.44007Z" fill="white"/>
<path d="M8 144C12.4183 144 16 140.418 16 136C16 131.582 12.4183 128 8 128C3.58172 128 0 131.582 0 136C0 140.418 3.58172 144 8 144Z" fill="#2ECC71"/>
<path d="M7.9818 140.099C7.4515 140.099 6.9792 140.008 6.5649 139.826C6.15297 139.641 5.82744 139.388 5.58833 139.066C5.35159 138.742 5.22967 138.368 5.22257 137.944H6.77086C6.78033 138.121 6.83833 138.278 6.94487 138.413C7.05377 138.545 7.19818 138.648 7.37811 138.722C7.55803 138.795 7.76045 138.832 7.98535 138.832C8.21973 138.832 8.42688 138.79 8.6068 138.707C8.78672 138.625 8.92759 138.51 9.02939 138.363C9.13119 138.216 9.18208 138.047 9.18208 137.855C9.18208 137.661 9.12763 137.489 9.01873 137.34C8.9122 137.189 8.75832 137.07 8.55708 136.985C8.35822 136.9 8.12148 136.857 7.84686 136.857H7.16859V135.728H7.84686C8.07886 135.728 8.28365 135.688 8.4612 135.607C8.64113 135.527 8.78081 135.415 8.88024 135.273C8.97967 135.129 9.02939 134.961 9.02939 134.769C9.02939 134.587 8.98559 134.427 8.89799 134.29C8.81277 134.15 8.69203 134.041 8.53578 133.963C8.3819 133.885 8.20197 133.846 7.996 133.846C7.78767 133.846 7.59709 133.884 7.42427 133.96C7.25145 134.033 7.11296 134.138 7.00879 134.276C6.90462 134.413 6.84899 134.574 6.84189 134.759H5.36816C5.37527 134.339 5.49482 133.97 5.72683 133.651C5.95884 133.331 6.27134 133.081 6.66433 132.901C7.05969 132.719 7.50595 132.628 8.00311 132.628C8.505 132.628 8.94416 132.719 9.32058 132.901C9.697 133.084 9.98938 133.33 10.1977 133.64C10.4084 133.948 10.5126 134.293 10.5102 134.677C10.5126 135.084 10.3859 135.424 10.1302 135.696C9.87692 135.968 9.54667 136.141 9.13947 136.214V136.271C9.67451 136.34 10.0817 136.526 10.3611 136.829C10.6428 137.129 10.7825 137.506 10.7801 137.958C10.7825 138.372 10.6629 138.741 10.4214 139.062C10.1823 139.384 9.85207 139.638 9.43066 139.822C9.00926 140.007 8.52631 140.099 7.9818 140.099Z" fill="white"/>
<path d="M8 194C12.4183 194 16 190.418 16 186C16 181.582 12.4183 178 8 178C3.58172 178 0 181.582 0 186C0 190.418 3.58172 194 8 194Z" fill="#F39C12"/>
<path d="M5.09073 188.722V187.511L8.12695 182.727H9.17099V184.403H8.55309L6.63903 187.433V187.489H10.9537V188.722H5.09073ZM8.5815 190V188.352L8.60991 187.816V182.727H10.0517V190H8.5815Z" fill="white"/>
<path d="M8 251C12.4183 251 16 247.418 16 243C16 238.582 12.4183 235 8 235C3.58172 235 0 238.582 0 243C0 247.418 3.58172 251 8 251Z" fill="#9B59B6"/>
<path d="M8.02308 247.099C7.52119 247.099 7.07375 247.007 6.68075 246.822C6.29013 246.638 5.98 246.383 5.75036 246.059C5.52071 245.735 5.40116 245.363 5.39169 244.944H6.88317C6.89974 245.226 7.01811 245.454 7.23828 245.629C7.45845 245.804 7.72005 245.892 8.02308 245.892C8.26456 245.892 8.47763 245.839 8.66229 245.732C8.84931 245.623 8.99491 245.473 9.09908 245.281C9.20561 245.087 9.25888 244.865 9.25888 244.614C9.25888 244.358 9.20443 244.133 9.09553 243.939C8.98899 243.745 8.84103 243.593 8.65163 243.484C8.46224 243.375 8.24562 243.32 8.00178 243.317C7.78871 243.317 7.58156 243.361 7.38033 243.449C7.18146 243.536 7.0264 243.656 6.91513 243.808L5.54794 243.562L5.8924 239.727H10.3384V240.984H7.16016L6.97195 242.806H7.01456C7.1424 242.626 7.33535 242.477 7.59339 242.359C7.85144 242.24 8.14027 242.181 8.45987 242.181C8.89785 242.181 9.28847 242.284 9.63175 242.49C9.97502 242.696 10.2461 242.979 10.445 243.339C10.6438 243.696 10.7421 244.108 10.7397 244.575C10.7421 245.065 10.6284 245.5 10.3988 245.881C10.1715 246.26 9.8531 246.558 9.44354 246.776C9.03634 246.992 8.56286 247.099 8.02308 247.099Z" fill="white"/>
<path d="M8 306C12.4183 306 16 302.418 16 298C16 293.582 12.4183 290 8 290C3.58172 290 0 293.582 0 298C0 302.418 3.58172 306 8 306Z" fill="#1ABC9C"/>
<path d="M8.0799 302.099C7.70585 302.097 7.34482 302.034 6.9968 301.911C6.65116 301.788 6.34103 301.588 6.06641 301.311C5.79179 301.034 5.57398 300.667 5.413 300.21C5.25438 299.753 5.17507 299.192 5.17507 298.527C5.17744 297.916 5.24728 297.371 5.38459 296.89C5.52427 296.407 5.72313 295.997 5.98118 295.661C6.2416 295.325 6.55291 295.069 6.91513 294.894C7.27734 294.717 7.68336 294.628 8.13317 294.628C8.61849 294.628 9.04699 294.723 9.41868 294.912C9.79036 295.099 10.0887 295.353 10.3136 295.675C10.5408 295.997 10.6781 296.358 10.7255 296.759H9.20916C9.14998 296.505 9.02569 296.306 8.83629 296.162C8.6469 296.018 8.41252 295.945 8.13317 295.945C7.65968 295.945 7.29983 296.151 7.05362 296.563C6.80978 296.975 6.68549 297.535 6.68075 298.243H6.73047C6.83937 298.027 6.98615 297.844 7.17081 297.692C7.35784 297.539 7.56972 297.421 7.80646 297.341C8.04557 297.258 8.2977 297.217 8.56286 297.217C8.99373 297.217 9.37725 297.318 9.71342 297.522C10.0496 297.723 10.3147 298 10.5089 298.353C10.703 298.706 10.8001 299.109 10.8001 299.564C10.8001 300.056 10.6853 300.494 10.4556 300.878C10.2283 301.261 9.90992 301.562 9.50036 301.78C9.09316 301.995 8.61967 302.102 8.0799 302.099ZM8.0728 300.892C8.30954 300.892 8.52143 300.835 8.70845 300.722C8.89548 300.608 9.04226 300.454 9.14879 300.26C9.25533 300.066 9.30859 299.848 9.30859 299.607C9.30859 299.365 9.25533 299.148 9.14879 298.957C9.04463 298.765 8.90021 298.612 8.71555 298.499C8.53089 298.385 8.32019 298.328 8.08345 298.328C7.90589 298.328 7.74136 298.361 7.58984 298.428C7.4407 298.494 7.3093 298.586 7.19567 298.705C7.0844 298.823 6.9968 298.96 6.93288 299.116C6.86896 299.27 6.837 299.435 6.837 299.61C6.837 299.844 6.89027 300.059 6.9968 300.253C7.10571 300.447 7.25249 300.602 7.43714 300.718C7.62417 300.834 7.83606 300.892 8.0728 300.892Z" fill="white"/>
</svg>
