<svg width="400" height="200" viewBox="0 0 400 200" fill="none" xmlns="http://www.w3.org/2000/svg">
<path d="M390 0H10C4.47715 0 0 4.47715 0 10V190C0 195.523 4.47715 200 10 200H390C395.523 200 400 195.523 400 190V10C400 4.47715 395.523 0 390 0Z" fill="#ECF0F1"/>
<path d="M107 30H33C31.3431 30 30 31.3431 30 33V87C30 88.6569 31.3431 90 33 90H107C108.657 90 110 88.6569 110 87V33C110 31.3431 108.657 30 107 30Z" fill="#2C3E50"/>
<path d="M103 35H37C35.8954 35 35 35.8954 35 37V78C35 79.1046 35.8954 80 37 80H103C104.105 80 105 79.1046 105 78V37C105 35.8954 104.105 35 103 35Z" fill="white"/>
<path d="M98 40H42C40.8954 40 40 40.8954 40 42V44C40 45.1046 40.8954 46 42 46H98C99.1046 46 100 45.1046 100 44V42C100 40.8954 99.1046 40 98 40Z" fill="#3498DB"/>
<path d="M63 50H42C40.8954 50 40 50.8954 40 52V68C40 69.1046 40.8954 70 42 70H63C64.1046 70 65 69.1046 65 68V52C65 50.8954 64.1046 50 63 50Z" fill="#E74C3C"/>
<path d="M93 50H72C70.8954 50 70 50.8954 70 52V68C70 69.1046 70.8954 70 72 70H93C94.1046 70 95 69.1046 95 68V52C95 50.8954 94.1046 50 93 50Z" fill="#2ECC71"/>
<path d="M75 95H65V105H75V95Z" fill="#7F8C8D"/>
<path d="M83 100H57C55.8954 100 55 100.895 55 102V103C55 104.105 55.8954 105 57 105H83C84.1046 105 85 104.105 85 103V102C85 100.895 84.1046 100 83 100Z" fill="#95A5A6"/>
<path d="M53.4717 120H51.2274V112.727H53.5711C54.2766 112.727 54.8803 112.873 55.3822 113.164C55.8841 113.453 56.2688 113.868 56.5363 114.411C56.8038 114.95 56.9376 115.597 56.9376 116.349C56.9376 117.107 56.8026 117.759 56.5328 118.306C56.2629 118.851 55.8699 119.27 55.3538 119.563C54.8377 119.854 54.2103 120 53.4717 120ZM52.108 119.219H53.4149C54.0162 119.219 54.5145 119.103 54.9099 118.871C55.3052 118.639 55.6 118.308 55.7941 117.88C55.9883 117.451 56.0853 116.941 56.0853 116.349C56.0853 115.762 55.9894 115.257 55.7977 114.833C55.6059 114.407 55.3195 114.08 54.9383 113.853C54.5571 113.623 54.0825 113.509 53.5143 113.509H52.108V119.219ZM60.5882 120.114C60.0626 120.114 59.6092 119.998 59.2281 119.766C58.8493 119.531 58.5569 119.205 58.3509 118.786C58.1473 118.364 58.0455 117.874 58.0455 117.315C58.0455 116.757 58.1473 116.264 58.3509 115.838C58.5569 115.41 58.8434 115.076 59.2103 114.837C59.5796 114.595 60.0105 114.474 60.5029 114.474C60.787 114.474 61.0676 114.522 61.3445 114.616C61.6215 114.711 61.8737 114.865 62.1009 115.078C62.3282 115.289 62.5093 115.568 62.6443 115.916C62.7792 116.264 62.8467 116.693 62.8467 117.202V117.557H58.6421V116.832H61.9944C61.9944 116.525 61.9329 116.25 61.8097 116.009C61.689 115.767 61.5162 115.576 61.2913 115.437C61.0687 115.297 60.806 115.227 60.5029 115.227C60.1691 115.227 59.8803 115.31 59.6365 115.476C59.395 115.639 59.2091 115.852 59.0789 116.115C58.9487 116.378 58.8836 116.66 58.8836 116.96V117.443C58.8836 117.855 58.9546 118.204 59.0967 118.491C59.2411 118.775 59.4411 118.991 59.6968 119.141C59.9525 119.287 60.2496 119.361 60.5882 119.361C60.8083 119.361 61.0072 119.33 61.1847 119.268C61.3647 119.205 61.5197 119.11 61.6499 118.984C61.7802 118.857 61.8808 118.698 61.9518 118.509L62.7615 118.736C62.6762 119.01 62.533 119.252 62.3318 119.46C62.1305 119.666 61.882 119.827 61.586 119.943C61.2901 120.057 60.9575 120.114 60.5882 120.114ZM67.9852 115.767L67.2323 115.98C67.185 115.855 67.1151 115.733 67.0228 115.614C66.9329 115.494 66.8097 115.394 66.6535 115.316C66.4972 115.238 66.2972 115.199 66.0534 115.199C65.7195 115.199 65.4414 115.276 65.2188 115.43C64.9987 115.581 64.8886 115.774 64.8886 116.009C64.8886 116.217 64.9643 116.381 65.1159 116.502C65.2674 116.623 65.5041 116.723 65.8261 116.804L66.6357 117.003C67.1234 117.121 67.4868 117.302 67.7259 117.546C67.9651 117.788 68.0846 118.099 68.0846 118.48C68.0846 118.793 67.9946 119.072 67.8147 119.318C67.6372 119.564 67.3886 119.759 67.069 119.901C66.7494 120.043 66.3777 120.114 65.9539 120.114C65.3976 120.114 64.9371 119.993 64.5725 119.751C64.2079 119.51 63.9771 119.157 63.8801 118.693L64.6755 118.494C64.7513 118.788 64.8945 119.008 65.1052 119.155C65.3183 119.302 65.5964 119.375 65.9397 119.375C66.3303 119.375 66.6405 119.292 66.8701 119.126C67.1021 118.958 67.2181 118.757 67.2181 118.523C67.2181 118.333 67.1518 118.175 67.0193 118.047C66.8867 117.917 66.6831 117.82 66.4085 117.756L65.4994 117.543C64.9999 117.424 64.6329 117.241 64.3985 116.992C64.1665 116.741 64.0505 116.428 64.0505 116.051C64.0505 115.743 64.1369 115.471 64.3097 115.234C64.4849 114.998 64.7229 114.812 65.0235 114.677C65.3266 114.542 65.6698 114.474 66.0534 114.474C66.5931 114.474 67.0169 114.593 67.3247 114.83C67.6348 115.066 67.855 115.379 67.9852 115.767ZM70.1274 118.011L70.1132 116.974H70.2836L72.67 114.545H73.7069L71.1643 117.116H71.0933L70.1274 118.011ZM69.3461 120V112.727H70.1842V120H69.3461ZM72.8121 120L70.6814 117.301L71.278 116.719L73.8774 120H72.8121ZM77.1578 114.545V115.256H74.3311V114.545H77.1578ZM75.1549 113.239H75.993V118.438C75.993 118.674 76.0273 118.852 76.096 118.97C76.167 119.086 76.257 119.164 76.3659 119.205C76.4771 119.242 76.5943 119.261 76.7174 119.261C76.8097 119.261 76.8855 119.257 76.9447 119.247C77.0039 119.235 77.0512 119.226 77.0867 119.219L77.2572 119.972C77.2004 119.993 77.1211 120.014 77.0193 120.036C76.9175 120.059 76.7884 120.071 76.6322 120.071C76.3954 120.071 76.1634 120.02 75.9362 119.918C75.7113 119.817 75.5242 119.661 75.3751 119.453C75.2283 119.245 75.1549 118.982 75.1549 118.665V113.239ZM80.5757 120.114C80.0833 120.114 79.6512 119.996 79.2796 119.762C78.9102 119.528 78.6214 119.2 78.4131 118.778C78.2071 118.357 78.1041 117.865 78.1041 117.301C78.1041 116.733 78.2071 116.237 78.4131 115.813C78.6214 115.389 78.9102 115.06 79.2796 114.826C79.6512 114.592 80.0833 114.474 80.5757 114.474C81.0682 114.474 81.499 114.592 81.8683 114.826C82.24 115.06 82.5289 115.389 82.7348 115.813C82.9432 116.237 83.0473 116.733 83.0473 117.301C83.0473 117.865 82.9432 118.357 82.7348 118.778C82.5289 119.2 82.24 119.528 81.8683 119.762C81.499 119.996 81.0682 120.114 80.5757 120.114ZM80.5757 119.361C80.9498 119.361 81.2575 119.265 81.499 119.073C81.7405 118.881 81.9192 118.629 82.0352 118.317C82.1512 118.004 82.2093 117.666 82.2093 117.301C82.2093 116.937 82.1512 116.597 82.0352 116.282C81.9192 115.967 81.7405 115.713 81.499 115.518C81.2575 115.324 80.9498 115.227 80.5757 115.227C80.2017 115.227 79.8939 115.324 79.6524 115.518C79.411 115.713 79.2322 115.967 79.1162 116.282C79.0002 116.597 78.9422 116.937 78.9422 117.301C78.9422 117.666 79.0002 118.004 79.1162 118.317C79.2322 118.629 79.411 118.881 79.6524 119.073C79.8939 119.265 80.2017 119.361 80.5757 119.361ZM84.3266 122.045V114.545H85.1363V115.412H85.2357C85.2973 115.317 85.3825 115.196 85.4914 115.05C85.6027 114.901 85.7613 114.768 85.9672 114.652C86.1756 114.534 86.4573 114.474 86.8124 114.474C87.2717 114.474 87.6765 114.589 88.0269 114.819C88.3773 115.049 88.6507 115.374 88.8472 115.795C89.0437 116.217 89.142 116.714 89.142 117.287C89.142 117.865 89.0437 118.365 88.8472 118.789C88.6507 119.21 88.3785 119.537 88.0305 119.769C87.6824 119.999 87.2812 120.114 86.8266 120.114C86.4762 120.114 86.1957 120.056 85.985 119.94C85.7743 119.821 85.6121 119.687 85.4985 119.538C85.3849 119.387 85.2973 119.261 85.2357 119.162H85.1647V122.045H84.3266ZM85.1505 117.273C85.1505 117.685 85.2108 118.048 85.3316 118.363C85.4523 118.675 85.6287 118.92 85.8607 119.098C86.0927 119.273 86.3768 119.361 86.713 119.361C87.0634 119.361 87.3557 119.268 87.5901 119.084C87.8269 118.897 88.0044 118.646 88.1228 118.331C88.2435 118.014 88.3039 117.661 88.3039 117.273C88.3039 116.889 88.2447 116.544 88.1263 116.236C88.0103 115.926 87.834 115.681 87.5972 115.501C87.3628 115.318 87.0681 115.227 86.713 115.227C86.3721 115.227 86.0856 115.314 85.8536 115.487C85.6216 115.657 85.4464 115.896 85.328 116.204C85.2097 116.509 85.1505 116.866 85.1505 117.273Z" fill="#2C3E50"/>
<path d="M204 20H166C162.686 20 160 22.6863 160 26V84C160 87.3137 162.686 90 166 90H204C207.314 90 210 87.3137 210 84V26C210 22.6863 207.314 20 204 20Z" fill="#2C3E50"/>
<path d="M202 28H168C166.343 28 165 29.3431 165 31V79C165 80.6569 166.343 82 168 82H202C203.657 82 205 80.6569 205 79V31C205 29.3431 203.657 28 202 28Z" fill="white"/>
<path d="M198 32H172C170.895 32 170 32.8954 170 34V35C170 36.1046 170.895 37 172 37H198C199.105 37 200 36.1046 200 35V34C200 32.8954 199.105 32 198 32Z" fill="#3498DB"/>
<path d="M180 40H172C170.895 40 170 40.8954 170 42V53C170 54.1046 170.895 55 172 55H180C181.105 55 182 54.1046 182 53V42C182 40.8954 181.105 40 180 40Z" fill="#E74C3C"/>
<path d="M195 40H187C185.895 40 185 40.8954 185 42V53C185 54.1046 185.895 55 187 55H195C196.105 55 197 54.1046 197 53V42C197 40.8954 196.105 40 195 40Z" fill="#2ECC71"/>
<path d="M199 60H171C170.448 60 170 60.4477 170 61V62C170 62.5523 170.448 63 171 63H199C199.552 63 200 62.5523 200 62V61C200 60.4477 199.552 60 199 60Z" fill="#95A5A6"/>
<path d="M199 66H171C170.448 66 170 66.4477 170 67V68C170 68.5523 170.448 69 171 69H199C199.552 69 200 68.5523 200 68V67C200 66.4477 199.552 66 199 66Z" fill="#95A5A6"/>
<path d="M185 80C186.105 80 187 79.1046 187 78C187 76.8954 186.105 76 185 76C183.895 76 183 76.8954 183 78C183 79.1046 183.895 80 185 80Z" fill="#7F8C8D"/>
<path d="M170.81 103.509V102.727H176.265V103.509H173.978V110H173.097V103.509H170.81ZM178.373 110.128C178.027 110.128 177.714 110.063 177.432 109.933C177.15 109.8 176.927 109.609 176.761 109.361C176.595 109.11 176.512 108.807 176.512 108.452C176.512 108.139 176.574 107.886 176.697 107.692C176.82 107.495 176.985 107.341 177.191 107.23C177.397 107.119 177.624 107.036 177.872 106.982C178.123 106.925 178.376 106.88 178.629 106.847C178.96 106.804 179.229 106.772 179.435 106.751C179.643 106.727 179.795 106.688 179.889 106.634C179.987 106.579 180.035 106.484 180.035 106.349V106.321C180.035 105.971 179.939 105.698 179.747 105.504C179.558 105.31 179.27 105.213 178.884 105.213C178.484 105.213 178.171 105.301 177.943 105.476C177.716 105.651 177.556 105.838 177.464 106.037L176.669 105.753C176.811 105.421 177 105.163 177.237 104.979C177.476 104.792 177.736 104.661 178.018 104.588C178.302 104.512 178.581 104.474 178.856 104.474C179.031 104.474 179.233 104.496 179.46 104.538C179.689 104.579 179.911 104.663 180.124 104.79C180.339 104.918 180.518 105.111 180.66 105.369C180.802 105.627 180.873 105.973 180.873 106.406V110H180.035V109.261H179.992C179.936 109.38 179.841 109.506 179.708 109.641C179.576 109.776 179.399 109.891 179.179 109.986C178.959 110.08 178.69 110.128 178.373 110.128ZM178.501 109.375C178.832 109.375 179.112 109.31 179.339 109.18C179.569 109.049 179.742 108.881 179.858 108.675C179.976 108.469 180.035 108.253 180.035 108.026V107.259C180 107.301 179.921 107.34 179.801 107.376C179.682 107.409 179.545 107.438 179.389 107.464C179.235 107.488 179.085 107.509 178.938 107.528C178.793 107.545 178.676 107.559 178.586 107.571C178.368 107.599 178.165 107.646 177.975 107.71C177.788 107.771 177.637 107.865 177.521 107.99C177.407 108.113 177.35 108.281 177.35 108.494C177.35 108.786 177.458 109.006 177.674 109.155C177.891 109.302 178.167 109.375 178.501 109.375ZM182.516 110V102.727H183.354V105.412H183.426C183.487 105.317 183.572 105.196 183.681 105.05C183.792 104.901 183.951 104.768 184.157 104.652C184.365 104.534 184.647 104.474 185.002 104.474C185.461 104.474 185.866 104.589 186.217 104.819C186.567 105.049 186.841 105.374 187.037 105.795C187.234 106.217 187.332 106.714 187.332 107.287C187.332 107.865 187.234 108.365 187.037 108.789C186.841 109.21 186.568 109.537 186.22 109.769C185.872 109.999 185.471 110.114 185.016 110.114C184.666 110.114 184.386 110.056 184.175 109.94C183.964 109.821 183.802 109.687 183.688 109.538C183.575 109.387 183.487 109.261 183.426 109.162H183.326V110H182.516ZM183.34 107.273C183.34 107.685 183.401 108.048 183.521 108.363C183.642 108.675 183.819 108.92 184.051 109.098C184.283 109.273 184.567 109.361 184.903 109.361C185.253 109.361 185.546 109.268 185.78 109.084C186.017 108.897 186.194 108.646 186.313 108.331C186.433 108.014 186.494 107.661 186.494 107.273C186.494 106.889 186.435 106.544 186.316 106.236C186.2 105.926 186.024 105.681 185.787 105.501C185.553 105.318 185.258 105.227 184.903 105.227C184.562 105.227 184.275 105.314 184.043 105.487C183.811 105.657 183.636 105.896 183.518 106.204C183.399 106.509 183.34 106.866 183.34 107.273ZM189.452 102.727V110H188.614V102.727H189.452ZM193.274 110.114C192.748 110.114 192.295 109.998 191.914 109.766C191.535 109.531 191.242 109.205 191.036 108.786C190.833 108.364 190.731 107.874 190.731 107.315C190.731 106.757 190.833 106.264 191.036 105.838C191.242 105.41 191.529 105.076 191.896 104.837C192.265 104.595 192.696 104.474 193.188 104.474C193.473 104.474 193.753 104.522 194.03 104.616C194.307 104.711 194.559 104.865 194.786 105.078C195.014 105.289 195.195 105.568 195.33 105.916C195.465 106.264 195.532 106.693 195.532 107.202V107.557H191.328V106.832H194.68C194.68 106.525 194.618 106.25 194.495 106.009C194.375 105.767 194.202 105.576 193.977 105.437C193.754 105.297 193.492 105.227 193.188 105.227C192.855 105.227 192.566 105.31 192.322 105.476C192.081 105.639 191.895 105.852 191.764 106.115C191.634 106.378 191.569 106.66 191.569 106.96V107.443C191.569 107.855 191.64 108.204 191.782 108.491C191.927 108.775 192.127 108.991 192.382 109.141C192.638 109.287 192.935 109.361 193.274 109.361C193.494 109.361 193.693 109.33 193.87 109.268C194.05 109.205 194.205 109.11 194.335 108.984C194.466 108.857 194.566 108.698 194.637 108.509L195.447 108.736C195.362 109.01 195.219 109.252 195.017 109.46C194.816 109.666 194.568 109.827 194.272 109.943C193.976 110.057 193.643 110.114 193.274 110.114ZM199.179 104.545V105.256H196.353V104.545H199.179ZM197.176 103.239H198.014V108.438C198.014 108.674 198.049 108.852 198.117 108.97C198.188 109.086 198.278 109.164 198.387 109.205C198.499 109.242 198.616 109.261 198.739 109.261C198.831 109.261 198.907 109.257 198.966 109.247C199.025 109.235 199.073 109.226 199.108 109.219L199.279 109.972C199.222 109.993 199.143 110.014 199.041 110.036C198.939 110.059 198.81 110.071 198.654 110.071C198.417 110.071 198.185 110.02 197.958 109.918C197.733 109.817 197.546 109.661 197.397 109.453C197.25 109.245 197.176 108.982 197.176 108.665V103.239Z" fill="#2C3E50"/>
<path d="M289 10H266C262.686 10 260 12.6863 260 16V64C260 67.3137 262.686 70 266 70H289C292.314 70 295 67.3137 295 64V16C295 12.6863 292.314 10 289 10Z" fill="#2C3E50"/>
<path d="M289 16H266C264.343 16 263 17.3431 263 19V61C263 62.6569 264.343 64 266 64H289C290.657 64 292 62.6569 292 61V19C292 17.3431 290.657 16 289 16Z" fill="white"/>
<path d="M287 20H268C266.895 20 266 20.8954 266 22C266 23.1046 266.895 24 268 24H287C288.105 24 289 23.1046 289 22C289 20.8954 288.105 20 287 20Z" fill="#3498DB"/>
<path d="M287 26H268C266.895 26 266 26.8954 266 28V36C266 37.1046 266.895 38 268 38H287C288.105 38 289 37.1046 289 36V28C289 26.8954 288.105 26 287 26Z" fill="#E74C3C"/>
<path d="M288 42H267C266.448 42 266 42.4477 266 43C266 43.5523 266.448 44 267 44H288C288.552 44 289 43.5523 289 43C289 42.4477 288.552 42 288 42Z" fill="#95A5A6"/>
<path d="M288 46H267C266.448 46 266 46.4477 266 47C266 47.5523 266.448 48 267 48H288C288.552 48 289 47.5523 289 47C289 46.4477 288.552 46 288 46Z" fill="#95A5A6"/>
<path d="M288 50H267C266.448 50 266 50.4477 266 51C266 51.5523 266.448 52 267 52H288C288.552 52 289 51.5523 289 51C289 50.4477 288.552 50 288 50Z" fill="#95A5A6"/>
<path d="M277.5 60C278.605 60 279.5 59.1046 279.5 58C279.5 56.8954 278.605 56 277.5 56C276.395 56 275.5 56.8954 275.5 58C275.5 59.1046 276.395 60 277.5 60Z" fill="#7F8C8D"/>
<path d="M262.56 82.7273H263.612L266.083 88.7642H266.168L268.64 82.7273H269.691V90H268.867V84.4744H268.796L266.523 90H265.728L263.455 84.4744H263.384V90H262.56V82.7273ZM273.559 90.1136C273.067 90.1136 272.635 89.9964 272.263 89.7621C271.894 89.5277 271.605 89.1998 271.396 88.7784C271.191 88.357 271.088 87.8646 271.088 87.3011C271.088 86.733 271.191 86.237 271.396 85.8132C271.605 85.3894 271.894 85.0604 272.263 84.826C272.635 84.5916 273.067 84.4744 273.559 84.4744C274.052 84.4744 274.482 84.5916 274.852 84.826C275.223 85.0604 275.512 85.3894 275.718 85.8132C275.927 86.237 276.031 86.733 276.031 87.3011C276.031 87.8646 275.927 88.357 275.718 88.7784C275.512 89.1998 275.223 89.5277 274.852 89.7621C274.482 89.9964 274.052 90.1136 273.559 90.1136ZM273.559 89.3608C273.933 89.3608 274.241 89.2649 274.482 89.0732C274.724 88.8814 274.903 88.6293 275.019 88.3168C275.135 88.0043 275.193 87.6657 275.193 87.3011C275.193 86.9366 275.135 86.5968 275.019 86.282C274.903 85.9671 274.724 85.7126 274.482 85.5185C274.241 85.3243 273.933 85.2273 273.559 85.2273C273.185 85.2273 272.877 85.3243 272.636 85.5185C272.394 85.7126 272.216 85.9671 272.1 86.282C271.984 86.5968 271.926 86.9366 271.926 87.3011C271.926 87.6657 271.984 88.0043 272.1 88.3168C272.216 88.6293 272.394 88.8814 272.636 89.0732C272.877 89.2649 273.185 89.3608 273.559 89.3608ZM277.424 90V82.7273H278.262V85.4119H278.333C278.394 85.3172 278.48 85.1965 278.588 85.0497C278.7 84.9006 278.858 84.768 279.064 84.652C279.273 84.5336 279.554 84.4744 279.909 84.4744C280.369 84.4744 280.774 84.5893 281.124 84.8189C281.474 85.0485 281.748 85.3741 281.944 85.7955C282.141 86.2169 282.239 86.714 282.239 87.2869C282.239 87.8646 282.141 88.3653 281.944 88.7891C281.748 89.2105 281.475 89.5372 281.127 89.7692C280.779 89.9988 280.378 90.1136 279.924 90.1136C279.573 90.1136 279.293 90.0556 279.082 89.9396C278.871 89.8213 278.709 89.6875 278.596 89.5384C278.482 89.3868 278.394 89.2614 278.333 89.1619H278.233V90H277.424ZM278.248 87.2727C278.248 87.6847 278.308 88.0481 278.429 88.3629C278.549 88.6754 278.726 88.9205 278.958 89.098C279.19 89.2732 279.474 89.3608 279.81 89.3608C280.16 89.3608 280.453 89.2685 280.687 89.0838C280.924 88.8968 281.101 88.6458 281.22 88.331C281.341 88.0137 281.401 87.661 281.401 87.2727C281.401 86.8892 281.342 86.5436 281.223 86.2358C281.107 85.9257 280.931 85.6806 280.694 85.5007C280.46 85.3184 280.165 85.2273 279.81 85.2273C279.469 85.2273 279.183 85.3137 278.951 85.4865C278.719 85.657 278.543 85.8961 278.425 86.2038C278.307 86.5092 278.248 86.8655 278.248 87.2727ZM283.521 90V84.5455H284.359V90H283.521ZM283.947 83.6364C283.784 83.6364 283.643 83.5807 283.525 83.4695C283.408 83.3582 283.35 83.2244 283.35 83.0682C283.35 82.9119 283.408 82.7782 283.525 82.6669C283.643 82.5556 283.784 82.5 283.947 82.5C284.11 82.5 284.25 82.5556 284.366 82.6669C284.484 82.7782 284.544 82.9119 284.544 83.0682C284.544 83.2244 284.484 83.3582 284.366 83.4695C284.25 83.5807 284.11 83.6364 283.947 83.6364ZM286.732 82.7273V90H285.894V82.7273H286.732ZM290.554 90.1136C290.028 90.1136 289.575 89.9976 289.194 89.7656C288.815 89.5312 288.523 89.2045 288.317 88.7855C288.113 88.3641 288.011 87.8741 288.011 87.3153C288.011 86.7566 288.113 86.2642 288.317 85.8381C288.523 85.4096 288.809 85.0758 289.176 84.8366C289.545 84.5952 289.976 84.4744 290.469 84.4744C290.753 84.4744 291.033 84.5218 291.31 84.6165C291.587 84.7112 291.839 84.8651 292.067 85.0781C292.294 85.2888 292.475 85.5682 292.61 85.9162C292.745 86.2642 292.812 86.6927 292.812 87.2017V87.5568H288.608V86.8324H291.96C291.96 86.5246 291.899 86.25 291.776 86.0085C291.655 85.767 291.482 85.5765 291.257 85.4368C291.035 85.2971 290.772 85.2273 290.469 85.2273C290.135 85.2273 289.846 85.3101 289.602 85.4759C289.361 85.6392 289.175 85.8523 289.045 86.1151C288.915 86.3778 288.849 86.6596 288.849 86.9602V87.4432C288.849 87.8551 288.92 88.2043 289.062 88.4908C289.207 88.7749 289.407 88.9915 289.663 89.1406C289.918 89.2874 290.215 89.3608 290.554 89.3608C290.774 89.3608 290.973 89.33 291.151 89.2685C291.33 89.2045 291.486 89.1098 291.616 88.9844C291.746 88.8565 291.847 88.6979 291.918 88.5085L292.727 88.7358C292.642 89.0104 292.499 89.2519 292.298 89.4602C292.096 89.6662 291.848 89.8272 291.552 89.9432C291.256 90.0568 290.923 90.1136 290.554 90.1136Z" fill="#2C3E50"/>
<path d="M120 55L132 51V59L120 55Z" fill="#3498DB"/>
<path d="M240 55L252 51V59L240 55Z" fill="#3498DB"/>
<path d="M126.449 169V157.364H131.04C131.919 157.364 132.669 157.521 133.29 157.835C133.915 158.146 134.39 158.587 134.716 159.159C135.045 159.727 135.21 160.396 135.21 161.165C135.21 161.937 135.044 162.602 134.71 163.159C134.377 163.712 133.894 164.136 133.261 164.432C132.633 164.727 131.871 164.875 130.977 164.875H127.903V162.898H130.58C131.049 162.898 131.439 162.833 131.75 162.705C132.061 162.576 132.292 162.383 132.443 162.125C132.598 161.867 132.676 161.547 132.676 161.165C132.676 160.778 132.598 160.453 132.443 160.188C132.292 159.922 132.059 159.722 131.744 159.585C131.434 159.445 131.042 159.375 130.568 159.375H128.909V169H126.449ZM132.733 163.705L135.625 169H132.909L130.08 163.705H132.733ZM140.74 169.17C139.842 169.17 139.07 168.989 138.422 168.625C137.778 168.258 137.282 167.739 136.933 167.068C136.585 166.394 136.411 165.597 136.411 164.676C136.411 163.778 136.585 162.991 136.933 162.312C137.282 161.634 137.772 161.106 138.405 160.727C139.041 160.348 139.787 160.159 140.643 160.159C141.219 160.159 141.755 160.252 142.251 160.438C142.751 160.619 143.187 160.894 143.558 161.261C143.933 161.629 144.225 162.091 144.433 162.648C144.642 163.201 144.746 163.848 144.746 164.591V165.256H137.376V163.756H142.467C142.467 163.407 142.392 163.098 142.24 162.83C142.089 162.561 141.878 162.35 141.609 162.199C141.344 162.044 141.036 161.966 140.683 161.966C140.316 161.966 139.99 162.051 139.706 162.222C139.426 162.388 139.206 162.614 139.047 162.898C138.888 163.178 138.806 163.491 138.803 163.835V165.261C138.803 165.693 138.882 166.066 139.041 166.381C139.204 166.695 139.433 166.938 139.729 167.108C140.024 167.278 140.375 167.364 140.78 167.364C141.049 167.364 141.295 167.326 141.518 167.25C141.742 167.174 141.933 167.061 142.092 166.909C142.251 166.758 142.373 166.572 142.456 166.352L144.695 166.5C144.581 167.038 144.348 167.508 143.996 167.909C143.647 168.307 143.196 168.617 142.643 168.841C142.094 169.061 141.46 169.17 140.74 169.17ZM153.587 162.761L151.371 162.898C151.333 162.708 151.251 162.538 151.126 162.386C151.001 162.231 150.837 162.108 150.632 162.017C150.431 161.922 150.191 161.875 149.911 161.875C149.536 161.875 149.219 161.955 148.962 162.114C148.704 162.269 148.575 162.477 148.575 162.739C148.575 162.947 148.659 163.123 148.825 163.267C148.992 163.411 149.278 163.527 149.683 163.614L151.263 163.932C152.111 164.106 152.744 164.386 153.161 164.773C153.577 165.159 153.786 165.667 153.786 166.295C153.786 166.867 153.617 167.369 153.28 167.801C152.946 168.233 152.488 168.57 151.905 168.812C151.325 169.051 150.657 169.17 149.899 169.17C148.744 169.17 147.823 168.93 147.138 168.449C146.456 167.964 146.056 167.305 145.939 166.472L148.32 166.347C148.392 166.699 148.566 166.968 148.842 167.153C149.119 167.335 149.473 167.426 149.905 167.426C150.329 167.426 150.67 167.345 150.928 167.182C151.189 167.015 151.321 166.801 151.325 166.54C151.321 166.32 151.229 166.14 151.047 166C150.865 165.856 150.585 165.746 150.206 165.67L148.695 165.369C147.842 165.199 147.208 164.903 146.791 164.483C146.378 164.062 146.172 163.527 146.172 162.875C146.172 162.314 146.323 161.831 146.626 161.426C146.933 161.021 147.363 160.708 147.916 160.489C148.473 160.269 149.125 160.159 149.871 160.159C150.973 160.159 151.84 160.392 152.473 160.858C153.109 161.324 153.481 161.958 153.587 162.761ZM155.31 172.273V160.273H157.696V161.739H157.804C157.91 161.504 158.063 161.265 158.264 161.023C158.469 160.777 158.734 160.572 159.06 160.409C159.389 160.242 159.798 160.159 160.287 160.159C160.923 160.159 161.51 160.326 162.048 160.659C162.586 160.989 163.016 161.487 163.338 162.153C163.66 162.816 163.821 163.648 163.821 164.648C163.821 165.621 163.664 166.443 163.349 167.114C163.039 167.78 162.615 168.286 162.077 168.631C161.543 168.972 160.944 169.142 160.281 169.142C159.812 169.142 159.412 169.064 159.082 168.909C158.757 168.754 158.49 168.559 158.281 168.324C158.073 168.085 157.914 167.845 157.804 167.602H157.73V172.273H155.31ZM157.679 164.636C157.679 165.155 157.751 165.608 157.895 165.994C158.039 166.381 158.247 166.682 158.52 166.898C158.793 167.11 159.124 167.216 159.514 167.216C159.908 167.216 160.241 167.108 160.514 166.892C160.787 166.672 160.993 166.369 161.134 165.983C161.277 165.593 161.349 165.144 161.349 164.636C161.349 164.133 161.279 163.689 161.139 163.307C160.999 162.924 160.793 162.625 160.52 162.409C160.247 162.193 159.912 162.085 159.514 162.085C159.12 162.085 158.787 162.189 158.514 162.398C158.245 162.606 158.039 162.902 157.895 163.284C157.751 163.667 157.679 164.117 157.679 164.636ZM169.378 169.17C168.495 169.17 167.732 168.983 167.088 168.608C166.448 168.229 165.954 167.703 165.605 167.028C165.257 166.35 165.082 165.564 165.082 164.67C165.082 163.769 165.257 162.981 165.605 162.307C165.954 161.629 166.448 161.102 167.088 160.727C167.732 160.348 168.495 160.159 169.378 160.159C170.26 160.159 171.022 160.348 171.662 160.727C172.306 161.102 172.802 161.629 173.151 162.307C173.499 162.981 173.673 163.769 173.673 164.67C173.673 165.564 173.499 166.35 173.151 167.028C172.802 167.703 172.306 168.229 171.662 168.608C171.022 168.983 170.26 169.17 169.378 169.17ZM169.389 167.295C169.791 167.295 170.126 167.182 170.395 166.955C170.664 166.723 170.866 166.409 171.003 166.011C171.143 165.614 171.213 165.161 171.213 164.653C171.213 164.146 171.143 163.693 171.003 163.295C170.866 162.898 170.664 162.583 170.395 162.352C170.126 162.121 169.791 162.006 169.389 162.006C168.984 162.006 168.643 162.121 168.366 162.352C168.094 162.583 167.887 162.898 167.747 163.295C167.611 163.693 167.543 164.146 167.543 164.653C167.543 165.161 167.611 165.614 167.747 166.011C167.887 166.409 168.094 166.723 168.366 166.955C168.643 167.182 168.984 167.295 169.389 167.295ZM177.668 163.955V169H175.247V160.273H177.554V161.812H177.656C177.849 161.305 178.173 160.903 178.628 160.608C179.082 160.309 179.634 160.159 180.281 160.159C180.887 160.159 181.416 160.292 181.866 160.557C182.317 160.822 182.668 161.201 182.918 161.693C183.168 162.182 183.293 162.765 183.293 163.443V169H180.872V163.875C180.876 163.341 180.74 162.924 180.463 162.625C180.187 162.322 179.806 162.17 179.321 162.17C178.995 162.17 178.707 162.241 178.457 162.381C178.211 162.521 178.018 162.725 177.878 162.994C177.741 163.259 177.671 163.58 177.668 163.955ZM192.462 162.761L190.246 162.898C190.208 162.708 190.126 162.538 190.001 162.386C189.876 162.231 189.712 162.108 189.507 162.017C189.306 161.922 189.066 161.875 188.786 161.875C188.411 161.875 188.094 161.955 187.837 162.114C187.579 162.269 187.45 162.477 187.45 162.739C187.45 162.947 187.534 163.123 187.7 163.267C187.867 163.411 188.153 163.527 188.558 163.614L190.138 163.932C190.986 164.106 191.619 164.386 192.036 164.773C192.452 165.159 192.661 165.667 192.661 166.295C192.661 166.867 192.492 167.369 192.155 167.801C191.821 168.233 191.363 168.57 190.78 168.812C190.2 169.051 189.532 169.17 188.774 169.17C187.619 169.17 186.698 168.93 186.013 168.449C185.331 167.964 184.931 167.305 184.814 166.472L187.195 166.347C187.267 166.699 187.441 166.968 187.717 167.153C187.994 167.335 188.348 167.426 188.78 167.426C189.204 167.426 189.545 167.345 189.803 167.182C190.064 167.015 190.196 166.801 190.2 166.54C190.196 166.32 190.104 166.14 189.922 166C189.74 165.856 189.46 165.746 189.081 165.67L187.57 165.369C186.717 165.199 186.083 164.903 185.666 164.483C185.253 164.062 185.047 163.527 185.047 162.875C185.047 162.314 185.198 161.831 185.501 161.426C185.808 161.021 186.238 160.708 186.791 160.489C187.348 160.269 188 160.159 188.746 160.159C189.848 160.159 190.715 160.392 191.348 160.858C191.984 161.324 192.356 161.958 192.462 162.761ZM194.185 169V160.273H196.605V169H194.185ZM195.401 159.148C195.041 159.148 194.732 159.028 194.474 158.79C194.221 158.547 194.094 158.258 194.094 157.92C194.094 157.587 194.221 157.301 194.474 157.062C194.732 156.82 195.041 156.699 195.401 156.699C195.76 156.699 196.067 156.82 196.321 157.062C196.579 157.301 196.707 157.587 196.707 157.92C196.707 158.258 196.579 158.547 196.321 158.79C196.067 159.028 195.76 159.148 195.401 159.148ZM206.68 160.273L203.629 169H200.902L197.851 160.273H200.408L202.22 166.517H202.311L204.118 160.273H206.68ZM211.615 169.17C210.717 169.17 209.945 168.989 209.297 168.625C208.653 168.258 208.157 167.739 207.808 167.068C207.46 166.394 207.286 165.597 207.286 164.676C207.286 163.778 207.46 162.991 207.808 162.312C208.157 161.634 208.647 161.106 209.28 160.727C209.916 160.348 210.662 160.159 211.518 160.159C212.094 160.159 212.63 160.252 213.126 160.438C213.626 160.619 214.062 160.894 214.433 161.261C214.808 161.629 215.1 162.091 215.308 162.648C215.517 163.201 215.621 163.848 215.621 164.591V165.256H208.251V163.756H213.342C213.342 163.407 213.267 163.098 213.115 162.83C212.964 162.561 212.753 162.35 212.484 162.199C212.219 162.044 211.911 161.966 211.558 161.966C211.191 161.966 210.865 162.051 210.581 162.222C210.301 162.388 210.081 162.614 209.922 162.898C209.763 163.178 209.681 163.491 209.678 163.835V165.261C209.678 165.693 209.757 166.066 209.916 166.381C210.079 166.695 210.308 166.938 210.604 167.108C210.899 167.278 211.25 167.364 211.655 167.364C211.924 167.364 212.17 167.326 212.393 167.25C212.617 167.174 212.808 167.061 212.967 166.909C213.126 166.758 213.248 166.572 213.331 166.352L215.57 166.5C215.456 167.038 215.223 167.508 214.871 167.909C214.522 168.307 214.071 168.617 213.518 168.841C212.969 169.061 212.335 169.17 211.615 169.17ZM225.074 169H220.949V157.364H225.108C226.278 157.364 227.286 157.597 228.131 158.062C228.975 158.525 229.625 159.189 230.08 160.057C230.538 160.924 230.767 161.962 230.767 163.17C230.767 164.383 230.538 165.424 230.08 166.295C229.625 167.167 228.972 167.835 228.119 168.301C227.271 168.767 226.256 169 225.074 169ZM223.409 166.892H224.972C225.699 166.892 226.311 166.763 226.807 166.506C227.307 166.244 227.682 165.841 227.932 165.295C228.186 164.746 228.312 164.038 228.312 163.17C228.312 162.311 228.186 161.608 227.932 161.062C227.682 160.517 227.309 160.116 226.812 159.858C226.316 159.6 225.705 159.472 224.977 159.472H223.409V166.892ZM236.521 169.17C235.624 169.17 234.851 168.989 234.203 168.625C233.559 168.258 233.063 167.739 232.714 167.068C232.366 166.394 232.192 165.597 232.192 164.676C232.192 163.778 232.366 162.991 232.714 162.312C233.063 161.634 233.554 161.106 234.186 160.727C234.822 160.348 235.569 160.159 236.425 160.159C237 160.159 237.536 160.252 238.033 160.438C238.533 160.619 238.968 160.894 239.339 161.261C239.714 161.629 240.006 162.091 240.214 162.648C240.423 163.201 240.527 163.848 240.527 164.591V165.256H233.158V163.756H238.249C238.249 163.407 238.173 163.098 238.021 162.83C237.87 162.561 237.66 162.35 237.391 162.199C237.125 162.044 236.817 161.966 236.464 161.966C236.097 161.966 235.771 162.051 235.487 162.222C235.207 162.388 234.987 162.614 234.828 162.898C234.669 163.178 234.588 163.491 234.584 163.835V165.261C234.584 165.693 234.663 166.066 234.822 166.381C234.985 166.695 235.214 166.938 235.51 167.108C235.805 167.278 236.156 167.364 236.561 167.364C236.83 167.364 237.076 167.326 237.3 167.25C237.523 167.174 237.714 167.061 237.874 166.909C238.033 166.758 238.154 166.572 238.237 166.352L240.476 166.5C240.362 167.038 240.129 167.508 239.777 167.909C239.429 168.307 238.978 168.617 238.425 168.841C237.875 169.061 237.241 169.17 236.521 169.17ZM249.368 162.761L247.152 162.898C247.114 162.708 247.033 162.538 246.908 162.386C246.783 162.231 246.618 162.108 246.413 162.017C246.213 161.922 245.972 161.875 245.692 161.875C245.317 161.875 245 161.955 244.743 162.114C244.485 162.269 244.357 162.477 244.357 162.739C244.357 162.947 244.44 163.123 244.607 163.267C244.773 163.411 245.059 163.527 245.464 163.614L247.044 163.932C247.893 164.106 248.525 164.386 248.942 164.773C249.358 165.159 249.567 165.667 249.567 166.295C249.567 166.867 249.398 167.369 249.061 167.801C248.728 168.233 248.269 168.57 247.686 168.812C247.107 169.051 246.438 169.17 245.68 169.17C244.525 169.17 243.605 168.93 242.919 168.449C242.237 167.964 241.838 167.305 241.72 166.472L244.101 166.347C244.173 166.699 244.347 166.968 244.624 167.153C244.9 167.335 245.254 167.426 245.686 167.426C246.11 167.426 246.451 167.345 246.709 167.182C246.97 167.015 247.103 166.801 247.107 166.54C247.103 166.32 247.01 166.14 246.828 166C246.646 165.856 246.366 165.746 245.987 165.67L244.476 165.369C243.624 165.199 242.989 164.903 242.572 164.483C242.16 164.062 241.953 163.527 241.953 162.875C241.953 162.314 242.105 161.831 242.408 161.426C242.714 161.021 243.144 160.708 243.697 160.489C244.254 160.269 244.906 160.159 245.652 160.159C246.754 160.159 247.622 160.392 248.254 160.858C248.891 161.324 249.262 161.958 249.368 162.761ZM251.091 169V160.273H253.511V169H251.091ZM252.307 159.148C251.947 159.148 251.638 159.028 251.381 158.79C251.127 158.547 251 158.258 251 157.92C251 157.587 251.127 157.301 251.381 157.062C251.638 156.82 251.947 156.699 252.307 156.699C252.667 156.699 252.973 156.82 253.227 157.062C253.485 157.301 253.614 157.587 253.614 157.92C253.614 158.258 253.485 158.547 253.227 158.79C252.973 159.028 252.667 159.148 252.307 159.148ZM259.382 172.455C258.598 172.455 257.926 172.347 257.365 172.131C256.808 171.919 256.365 171.629 256.036 171.261C255.706 170.894 255.492 170.481 255.393 170.023L257.632 169.722C257.7 169.896 257.808 170.059 257.956 170.21C258.104 170.362 258.299 170.483 258.541 170.574C258.787 170.669 259.087 170.716 259.439 170.716C259.965 170.716 260.399 170.587 260.74 170.33C261.085 170.076 261.257 169.65 261.257 169.051V167.455H261.155C261.049 167.697 260.89 167.926 260.678 168.142C260.465 168.358 260.193 168.534 259.859 168.67C259.526 168.807 259.128 168.875 258.666 168.875C258.011 168.875 257.414 168.723 256.876 168.42C256.342 168.114 255.916 167.646 255.598 167.017C255.284 166.384 255.126 165.585 255.126 164.619C255.126 163.631 255.287 162.805 255.609 162.142C255.931 161.479 256.359 160.983 256.893 160.653C257.431 160.324 258.02 160.159 258.661 160.159C259.149 160.159 259.558 160.242 259.888 160.409C260.217 160.572 260.482 160.777 260.683 161.023C260.888 161.265 261.045 161.504 261.155 161.739H261.246V160.273H263.649V169.085C263.649 169.828 263.467 170.449 263.104 170.949C262.74 171.449 262.236 171.824 261.592 172.074C260.952 172.328 260.215 172.455 259.382 172.455ZM259.433 167.057C259.823 167.057 260.153 166.96 260.422 166.767C260.695 166.57 260.903 166.29 261.047 165.926C261.195 165.559 261.268 165.119 261.268 164.608C261.268 164.097 261.196 163.653 261.053 163.278C260.909 162.9 260.7 162.606 260.428 162.398C260.155 162.189 259.823 162.085 259.433 162.085C259.036 162.085 258.7 162.193 258.428 162.409C258.155 162.621 257.948 162.917 257.808 163.295C257.668 163.674 257.598 164.112 257.598 164.608C257.598 165.112 257.668 165.547 257.808 165.915C257.952 166.278 258.159 166.561 258.428 166.761C258.7 166.958 259.036 167.057 259.433 167.057ZM267.996 163.955V169H265.575V160.273H267.882V161.812H267.984C268.178 161.305 268.501 160.903 268.956 160.608C269.411 160.309 269.962 160.159 270.609 160.159C271.215 160.159 271.744 160.292 272.195 160.557C272.645 160.822 272.996 161.201 273.246 161.693C273.496 162.182 273.621 162.765 273.621 163.443V169H271.2V163.875C271.204 163.341 271.068 162.924 270.791 162.625C270.515 162.322 270.134 162.17 269.649 162.17C269.323 162.17 269.036 162.241 268.786 162.381C268.539 162.521 268.346 162.725 268.206 162.994C268.07 163.259 268 163.58 267.996 163.955Z" fill="#2C3E50"/>
<path d="M145.59 180.636C145.59 181.557 145.424 182.352 145.092 183.023C144.759 183.693 144.303 184.21 143.724 184.574C143.144 184.938 142.482 185.119 141.738 185.119C140.994 185.119 140.332 184.938 139.752 184.574C139.173 184.21 138.717 183.693 138.384 183.023C138.052 182.352 137.886 181.557 137.886 180.636C137.886 179.716 138.052 178.92 138.384 178.25C138.717 177.58 139.173 177.062 139.752 176.699C140.332 176.335 140.994 176.153 141.738 176.153C142.482 176.153 143.144 176.335 143.724 176.699C144.303 177.062 144.759 177.58 145.092 178.25C145.424 178.92 145.59 179.716 145.59 180.636ZM144.568 180.636C144.568 179.881 144.441 179.243 144.188 178.723C143.938 178.203 143.599 177.81 143.17 177.543C142.744 177.276 142.267 177.142 141.738 177.142C141.21 177.142 140.731 177.276 140.302 177.543C139.876 177.81 139.536 178.203 139.284 178.723C139.034 179.243 138.909 179.881 138.909 180.636C138.909 181.392 139.034 182.03 139.284 182.55C139.536 183.07 139.876 183.463 140.302 183.73C140.731 183.997 141.21 184.131 141.738 184.131C142.267 184.131 142.744 183.997 143.17 183.73C143.599 183.463 143.938 183.07 144.188 182.55C144.441 182.03 144.568 181.392 144.568 180.636ZM148.237 181.062V185H147.231V178.455H148.203V179.477H148.288C148.441 179.145 148.674 178.878 148.987 178.676C149.299 178.472 149.703 178.369 150.197 178.369C150.64 178.369 151.028 178.46 151.36 178.642C151.693 178.821 151.951 179.094 152.136 179.46C152.32 179.824 152.413 180.284 152.413 180.841V185H151.407V180.909C151.407 180.395 151.274 179.994 151.007 179.707C150.74 179.418 150.373 179.273 149.907 179.273C149.586 179.273 149.299 179.342 149.046 179.482C148.796 179.621 148.599 179.824 148.454 180.091C148.309 180.358 148.237 180.682 148.237 181.062ZM156.995 185.136C156.364 185.136 155.82 184.997 155.363 184.719C154.908 184.438 154.557 184.045 154.31 183.543C154.066 183.037 153.944 182.449 153.944 181.778C153.944 181.108 154.066 180.517 154.31 180.006C154.557 179.491 154.901 179.091 155.341 178.804C155.785 178.514 156.302 178.369 156.893 178.369C157.233 178.369 157.57 178.426 157.903 178.54C158.235 178.653 158.537 178.838 158.81 179.094C159.083 179.347 159.3 179.682 159.462 180.099C159.624 180.517 159.705 181.031 159.705 181.642V182.068H154.66V181.199H158.682C158.682 180.83 158.608 180.5 158.461 180.21C158.316 179.92 158.108 179.692 157.839 179.524C157.572 179.357 157.256 179.273 156.893 179.273C156.492 179.273 156.145 179.372 155.853 179.571C155.563 179.767 155.34 180.023 155.184 180.338C155.028 180.653 154.949 180.991 154.949 181.352V181.932C154.949 182.426 155.035 182.845 155.205 183.189C155.378 183.53 155.618 183.79 155.925 183.969C156.232 184.145 156.589 184.233 156.995 184.233C157.259 184.233 157.498 184.196 157.711 184.122C157.927 184.045 158.113 183.932 158.269 183.781C158.425 183.628 158.546 183.437 158.631 183.21L159.603 183.483C159.501 183.812 159.329 184.102 159.087 184.352C158.846 184.599 158.547 184.793 158.192 184.932C157.837 185.068 157.438 185.136 156.995 185.136ZM171.769 179H170.712C170.65 178.696 170.54 178.429 170.384 178.199C170.231 177.969 170.043 177.776 169.822 177.619C169.603 177.46 169.36 177.341 169.093 177.261C168.826 177.182 168.547 177.142 168.258 177.142C167.729 177.142 167.251 177.276 166.822 177.543C166.395 177.81 166.056 178.203 165.803 178.723C165.553 179.243 165.428 179.881 165.428 180.636C165.428 181.392 165.553 182.03 165.803 182.55C166.056 183.07 166.395 183.463 166.822 183.73C167.251 183.997 167.729 184.131 168.258 184.131C168.547 184.131 168.826 184.091 169.093 184.011C169.36 183.932 169.603 183.814 169.822 183.658C170.043 183.499 170.231 183.304 170.384 183.074C170.54 182.841 170.65 182.574 170.712 182.273H171.769C171.689 182.719 171.545 183.118 171.334 183.47C171.124 183.822 170.863 184.122 170.55 184.369C170.238 184.614 169.887 184.8 169.498 184.928C169.111 185.055 168.698 185.119 168.258 185.119C167.513 185.119 166.851 184.938 166.272 184.574C165.692 184.21 165.236 183.693 164.904 183.023C164.572 182.352 164.405 181.557 164.405 180.636C164.405 179.716 164.572 178.92 164.904 178.25C165.236 177.58 165.692 177.062 166.272 176.699C166.851 176.335 167.513 176.153 168.258 176.153C168.698 176.153 169.111 176.217 169.498 176.345C169.887 176.473 170.238 176.661 170.55 176.908C170.863 177.152 171.124 177.45 171.334 177.803C171.545 178.152 171.689 178.551 171.769 179ZM175.999 185.136C175.409 185.136 174.89 184.996 174.444 184.714C174.001 184.433 173.654 184.04 173.404 183.534C173.157 183.028 173.034 182.437 173.034 181.761C173.034 181.08 173.157 180.484 173.404 179.976C173.654 179.467 174.001 179.072 174.444 178.791C174.89 178.51 175.409 178.369 175.999 178.369C176.59 178.369 177.107 178.51 177.551 178.791C177.997 179.072 178.343 179.467 178.59 179.976C178.84 180.484 178.965 181.08 178.965 181.761C178.965 182.437 178.84 183.028 178.59 183.534C178.343 184.04 177.997 184.433 177.551 184.714C177.107 184.996 176.59 185.136 175.999 185.136ZM175.999 184.233C176.448 184.233 176.818 184.118 177.107 183.888C177.397 183.658 177.612 183.355 177.751 182.98C177.89 182.605 177.96 182.199 177.96 181.761C177.96 181.324 177.89 180.916 177.751 180.538C177.612 180.161 177.397 179.855 177.107 179.622C176.818 179.389 176.448 179.273 175.999 179.273C175.551 179.273 175.181 179.389 174.892 179.622C174.602 179.855 174.387 180.161 174.248 180.538C174.109 180.916 174.039 181.324 174.039 181.761C174.039 182.199 174.109 182.605 174.248 182.98C174.387 183.355 174.602 183.658 174.892 183.888C175.181 184.118 175.551 184.233 175.999 184.233ZM182.972 185.136C182.427 185.136 181.945 184.999 181.528 184.723C181.11 184.445 180.783 184.053 180.547 183.547C180.312 183.038 180.194 182.438 180.194 181.744C180.194 181.057 180.312 180.46 180.547 179.955C180.783 179.449 181.111 179.058 181.532 178.783C181.952 178.507 182.438 178.369 182.989 178.369C183.415 178.369 183.752 178.44 183.999 178.582C184.249 178.722 184.439 178.881 184.57 179.06C184.704 179.236 184.807 179.381 184.881 179.494H184.966V176.273H185.972V185H185.001V183.994H184.881C184.807 184.114 184.702 184.264 184.566 184.446C184.43 184.625 184.235 184.786 183.982 184.928C183.729 185.067 183.393 185.136 182.972 185.136ZM183.108 184.233C183.512 184.233 183.853 184.128 184.131 183.918C184.41 183.705 184.621 183.411 184.766 183.036C184.911 182.658 184.983 182.222 184.983 181.727C184.983 181.239 184.912 180.811 184.77 180.445C184.628 180.075 184.418 179.788 184.14 179.584C183.861 179.376 183.518 179.273 183.108 179.273C182.682 179.273 182.327 179.382 182.043 179.601C181.762 179.817 181.55 180.111 181.408 180.483C181.269 180.852 181.199 181.267 181.199 181.727C181.199 182.193 181.27 182.616 181.412 182.997C181.557 183.375 181.77 183.676 182.052 183.901C182.336 184.122 182.688 184.233 183.108 184.233ZM190.698 185.136C190.067 185.136 189.523 184.997 189.066 184.719C188.611 184.438 188.26 184.045 188.013 183.543C187.769 183.037 187.647 182.449 187.647 181.778C187.647 181.108 187.769 180.517 188.013 180.006C188.26 179.491 188.604 179.091 189.045 178.804C189.488 178.514 190.005 178.369 190.596 178.369C190.937 178.369 191.273 178.426 191.606 178.54C191.938 178.653 192.241 178.838 192.513 179.094C192.786 179.347 193.003 179.682 193.165 180.099C193.327 180.517 193.408 181.031 193.408 181.642V182.068H188.363V181.199H192.385C192.385 180.83 192.312 180.5 192.164 180.21C192.019 179.92 191.812 179.692 191.542 179.524C191.275 179.357 190.959 179.273 190.596 179.273C190.195 179.273 189.849 179.372 189.556 179.571C189.266 179.767 189.043 180.023 188.887 180.338C188.731 180.653 188.653 180.991 188.653 181.352V181.932C188.653 182.426 188.738 182.845 188.908 183.189C189.081 183.53 189.322 183.79 189.628 183.969C189.935 184.145 190.292 184.233 190.698 184.233C190.962 184.233 191.201 184.196 191.414 184.122C191.63 184.045 191.816 183.932 191.972 183.781C192.128 183.628 192.249 183.437 192.334 183.21L193.306 183.483C193.204 183.812 193.032 184.102 192.79 184.352C192.549 184.599 192.251 184.793 191.895 184.932C191.54 185.068 191.141 185.136 190.698 185.136ZM196.438 183.807L196.37 184.267C196.322 184.591 196.248 184.938 196.148 185.307C196.052 185.676 195.951 186.024 195.846 186.351C195.741 186.678 195.654 186.938 195.586 187.131H194.819C194.856 186.949 194.904 186.709 194.964 186.411C195.023 186.112 195.083 185.778 195.143 185.409C195.205 185.043 195.256 184.668 195.296 184.284L195.347 183.807H196.438ZM202.171 185H201.063L204.267 176.273H205.358L208.563 185H207.455L204.847 177.653H204.779L202.171 185ZM202.58 181.591H207.046V182.528H202.58V181.591ZM210.791 176.273V185H209.786V176.273H210.791ZM213.639 176.273V185H212.633V176.273H213.639ZM221.686 185H218.992V176.273H221.805C222.651 176.273 223.376 176.447 223.978 176.797C224.58 177.143 225.042 177.642 225.363 178.293C225.684 178.94 225.845 179.716 225.845 180.619C225.845 181.528 225.683 182.311 225.359 182.967C225.035 183.621 224.563 184.124 223.944 184.476C223.325 184.825 222.572 185 221.686 185ZM220.049 184.062H221.617C222.339 184.062 222.937 183.923 223.411 183.645C223.886 183.366 224.24 182.97 224.472 182.456C224.705 181.942 224.822 181.33 224.822 180.619C224.822 179.915 224.707 179.308 224.477 178.8C224.247 178.288 223.903 177.896 223.445 177.624C222.988 177.348 222.419 177.21 221.737 177.21H220.049V184.062ZM230.225 185.136C229.595 185.136 229.051 184.997 228.593 184.719C228.139 184.438 227.788 184.045 227.541 183.543C227.296 183.037 227.174 182.449 227.174 181.778C227.174 181.108 227.296 180.517 227.541 180.006C227.788 179.491 228.132 179.091 228.572 178.804C229.015 178.514 229.532 178.369 230.123 178.369C230.464 178.369 230.801 178.426 231.133 178.54C231.465 178.653 231.768 178.838 232.041 179.094C232.313 179.347 232.531 179.682 232.693 180.099C232.855 180.517 232.936 181.031 232.936 181.642V182.068H227.89V181.199H231.913C231.913 180.83 231.839 180.5 231.691 180.21C231.546 179.92 231.339 179.692 231.069 179.524C230.802 179.357 230.487 179.273 230.123 179.273C229.722 179.273 229.376 179.372 229.083 179.571C228.794 179.767 228.57 180.023 228.414 180.338C228.258 180.653 228.18 180.991 228.18 181.352V181.932C228.18 182.426 228.265 182.845 228.436 183.189C228.609 183.53 228.849 183.79 229.156 183.969C229.463 184.145 229.819 184.233 230.225 184.233C230.49 184.233 230.728 184.196 230.941 184.122C231.157 184.045 231.343 183.932 231.499 183.781C231.656 183.628 231.776 183.437 231.862 183.21L232.833 183.483C232.731 183.812 232.559 184.102 232.318 184.352C232.076 184.599 231.778 184.793 231.423 184.932C231.068 185.068 230.669 185.136 230.225 185.136ZM239.618 178.455L237.198 185H236.175L233.755 178.455H234.846L236.653 183.67H236.721L238.528 178.455H239.618ZM240.946 185V178.455H241.952V185H240.946ZM241.457 177.364C241.261 177.364 241.092 177.297 240.95 177.163C240.811 177.03 240.741 176.869 240.741 176.682C240.741 176.494 240.811 176.334 240.95 176.2C241.092 176.067 241.261 176 241.457 176C241.653 176 241.821 176.067 241.96 176.2C242.102 176.334 242.173 176.494 242.173 176.682C242.173 176.869 242.102 177.03 241.96 177.163C241.821 177.297 241.653 177.364 241.457 177.364ZM246.453 185.136C245.839 185.136 245.311 184.991 244.867 184.702C244.424 184.412 244.083 184.013 243.845 183.504C243.606 182.996 243.487 182.415 243.487 181.761C243.487 181.097 243.609 180.51 243.853 180.001C244.1 179.49 244.444 179.091 244.884 178.804C245.328 178.514 245.845 178.369 246.436 178.369C246.896 178.369 247.311 178.455 247.68 178.625C248.049 178.795 248.352 179.034 248.588 179.341C248.823 179.648 248.97 180.006 249.026 180.415H248.021C247.944 180.116 247.774 179.852 247.509 179.622C247.248 179.389 246.896 179.273 246.453 179.273C246.061 179.273 245.717 179.375 245.421 179.58C245.129 179.781 244.9 180.067 244.735 180.436C244.573 180.803 244.492 181.233 244.492 181.727C244.492 182.233 244.572 182.673 244.731 183.048C244.893 183.423 245.12 183.714 245.413 183.922C245.708 184.129 246.055 184.233 246.453 184.233C246.714 184.233 246.951 184.188 247.164 184.097C247.377 184.006 247.558 183.875 247.705 183.705C247.853 183.534 247.958 183.33 248.021 183.091H249.026C248.97 183.477 248.829 183.825 248.605 184.135C248.383 184.442 248.089 184.686 247.722 184.868C247.359 185.047 246.936 185.136 246.453 185.136ZM253.241 185.136C252.61 185.136 252.066 184.997 251.609 184.719C251.154 184.438 250.803 184.045 250.556 183.543C250.312 183.037 250.19 182.449 250.19 181.778C250.19 181.108 250.312 180.517 250.556 180.006C250.803 179.491 251.147 179.091 251.588 178.804C252.031 178.514 252.548 178.369 253.139 178.369C253.48 178.369 253.816 178.426 254.149 178.54C254.481 178.653 254.784 178.838 255.056 179.094C255.329 179.347 255.546 179.682 255.708 180.099C255.87 180.517 255.951 181.031 255.951 181.642V182.068H250.906V181.199H254.928C254.928 180.83 254.855 180.5 254.707 180.21C254.562 179.92 254.355 179.692 254.085 179.524C253.818 179.357 253.502 179.273 253.139 179.273C252.738 179.273 252.392 179.372 252.099 179.571C251.809 179.767 251.586 180.023 251.43 180.338C251.274 180.653 251.195 180.991 251.195 181.352V181.932C251.195 182.426 251.281 182.845 251.451 183.189C251.624 183.53 251.865 183.79 252.171 183.969C252.478 184.145 252.835 184.233 253.241 184.233C253.505 184.233 253.744 184.196 253.957 184.122C254.173 184.045 254.359 183.932 254.515 183.781C254.671 183.628 254.792 183.437 254.877 183.21L255.849 183.483C255.747 183.812 255.575 184.102 255.333 184.352C255.092 184.599 254.794 184.793 254.438 184.932C254.083 185.068 253.684 185.136 253.241 185.136ZM262.117 179.92L261.214 180.176C261.157 180.026 261.073 179.879 260.963 179.737C260.855 179.592 260.707 179.473 260.519 179.379C260.332 179.286 260.092 179.239 259.799 179.239C259.399 179.239 259.065 179.331 258.798 179.516C258.534 179.697 258.401 179.929 258.401 180.21C258.401 180.46 258.492 180.658 258.674 180.803C258.856 180.947 259.14 181.068 259.526 181.165L260.498 181.403C261.083 181.545 261.519 181.763 261.806 182.055C262.093 182.345 262.237 182.719 262.237 183.176C262.237 183.551 262.129 183.886 261.913 184.182C261.7 184.477 261.401 184.71 261.018 184.881C260.634 185.051 260.188 185.136 259.68 185.136C259.012 185.136 258.46 184.991 258.022 184.702C257.585 184.412 257.308 183.989 257.191 183.432L258.146 183.193C258.237 183.545 258.409 183.81 258.661 183.986C258.917 184.162 259.251 184.25 259.663 184.25C260.132 184.25 260.504 184.151 260.779 183.952C261.058 183.75 261.197 183.509 261.197 183.227C261.197 183 261.117 182.81 260.958 182.656C260.799 182.5 260.555 182.384 260.225 182.307L259.134 182.051C258.535 181.909 258.095 181.689 257.813 181.391C257.535 181.089 257.396 180.713 257.396 180.261C257.396 179.892 257.499 179.565 257.707 179.281C257.917 178.997 258.203 178.774 258.563 178.612C258.927 178.45 259.339 178.369 259.799 178.369C260.447 178.369 260.955 178.511 261.325 178.795C261.697 179.08 261.961 179.455 262.117 179.92Z" fill="#7F8C8D"/>
</svg>
