<svg width="350" height="200" viewBox="0 0 350 200" fill="none" xmlns="http://www.w3.org/2000/svg">
<g clip-path="url(#clip0_25_195)">
<path d="M340 0H10C4.47715 0 0 4.47715 0 10V190C0 195.523 4.47715 200 10 200H340C345.523 200 350 195.523 350 190V10C350 4.47715 345.523 0 340 0Z" fill="#F8F9FA"/>
<path d="M145 60H55C52.2386 60 50 62.2386 50 65V135C50 137.761 52.2386 140 55 140H145C147.761 140 150 137.761 150 135V65C150 62.2386 147.761 60 145 60Z" fill="white" stroke="#BDC3C7" stroke-width="2"/>
<path d="M143 65H57C55.8954 65 55 65.8954 55 67V73C55 74.1046 55.8954 75 57 75H143C144.105 75 145 74.1046 145 73V67C145 65.8954 144.105 65 143 65Z" fill="#3498DB"/>
<path d="M93 80H57C55.8954 80 55 80.8954 55 82V103C55 104.105 55.8954 105 57 105H93C94.1046 105 95 104.105 95 103V82C95 80.8954 94.1046 80 93 80Z" fill="#E74C3C"/>
<path d="M138 80H102C100.895 80 100 80.8954 100 82V103C100 104.105 100.895 105 102 105H138C139.105 105 140 104.105 140 103V82C140 80.8954 139.105 80 138 80Z" fill="#2ECC71"/>
<path d="M139 110H56C55.4477 110 55 110.448 55 111V112C55 112.552 55.4477 113 56 113H139C139.552 113 140 112.552 140 112V111C140 110.448 139.552 110 139 110Z" fill="#95A5A6"/>
<path d="M139 118H56C55.4477 118 55 118.448 55 119V120C55 120.552 55.4477 121 56 121H139C139.552 121 140 120.552 140 120V119C140 118.448 139.552 118 139 118Z" fill="#95A5A6"/>
<path d="M114 126H56C55.4477 126 55 126.448 55 127V128C55 128.552 55.4477 129 56 129H114C114.552 129 115 128.552 115 128V127C115 126.448 114.552 126 114 126Z" fill="#95A5A6"/>
<path d="M240 125C259.33 125 275 109.33 275 90C275 70.67 259.33 55 240 55C220.67 55 205 70.67 205 90C205 109.33 220.67 125 240 125Z" stroke="#ECF0F1" stroke-width="6"/>
<path d="M275 90C275 70.67 259.33 55 240 55C220.67 55 205 70.67 205 90C205 109.33 220.67 125 240 125C259.33 125 275 109.33 275 90Z" stroke="#2ECC71" stroke-width="6" stroke-dasharray="165 165"/>
<path d="M235.376 74.679C235.9 74.679 236.404 74.7668 236.888 74.9425C237.375 75.1181 237.809 75.3982 238.19 75.7827C238.575 76.1671 238.878 76.6776 239.1 77.3139C239.326 77.947 239.44 78.7242 239.443 79.6456C239.443 80.5107 239.345 81.2829 239.15 81.9624C238.958 82.6385 238.681 83.2135 238.32 83.6875C237.958 84.1615 237.522 84.5227 237.012 84.7713C236.502 85.0166 235.932 85.1392 235.302 85.1392C234.622 85.1392 234.022 85.0083 233.502 84.7464C232.982 84.4813 232.563 84.1217 232.244 83.6676C231.929 83.2102 231.739 82.6965 231.673 82.1264H233.795C233.878 82.4976 234.052 82.786 234.317 82.9915C234.583 83.1937 234.911 83.2947 235.302 83.2947C235.965 83.2947 236.469 83.0064 236.813 82.4297C237.158 81.8497 237.332 81.0559 237.335 80.0483H237.266C237.113 80.3466 236.908 80.6035 236.649 80.8189C236.391 81.031 236.094 81.1951 235.759 81.3111C235.428 81.4271 235.075 81.4851 234.7 81.4851C234.1 81.4851 233.565 81.3442 233.094 81.0625C232.624 80.7808 232.253 80.393 231.981 79.8991C231.709 79.4053 231.573 78.8419 231.573 78.2088C231.57 77.526 231.727 76.9179 232.045 76.3842C232.364 75.8506 232.808 75.433 233.378 75.1314C233.951 74.8265 234.617 74.6757 235.376 74.679ZM235.391 76.3693C235.057 76.3693 234.758 76.4489 234.496 76.608C234.238 76.767 234.032 76.9808 233.88 77.2493C233.731 77.5178 233.658 77.8177 233.661 78.1491C233.661 78.4839 233.734 78.7855 233.88 79.054C234.029 79.3191 234.231 79.5312 234.487 79.6903C234.745 79.8461 235.04 79.924 235.371 79.924C235.62 79.924 235.85 79.8776 236.062 79.7848C236.275 79.692 236.459 79.5644 236.614 79.402C236.773 79.2363 236.898 79.0457 236.987 78.8303C237.077 78.6148 237.121 78.3861 237.121 78.1442C237.118 77.8227 237.042 77.5277 236.893 77.2592C236.744 76.9908 236.538 76.7753 236.276 76.6129C236.014 76.4505 235.719 76.3693 235.391 76.3693ZM244.653 85.1392C243.951 85.1392 243.324 85.0099 242.774 84.7514C242.227 84.4929 241.793 84.1366 241.472 83.6825C241.15 83.2285 240.983 82.7081 240.969 82.1214H243.058C243.081 82.5159 243.246 82.8357 243.555 83.081C243.863 83.3262 244.229 83.4489 244.653 83.4489C244.991 83.4489 245.29 83.3743 245.548 83.2251C245.81 83.0727 246.014 82.8622 246.16 82.5938C246.309 82.322 246.384 82.0104 246.384 81.6591C246.384 81.3011 246.307 80.9863 246.155 80.7145C246.006 80.4427 245.799 80.2306 245.533 80.0781C245.268 79.9257 244.965 79.8478 244.624 79.8445C244.325 79.8445 244.035 79.9058 243.754 80.0284C243.475 80.151 243.258 80.3184 243.102 80.5305L241.188 80.1875L241.67 74.8182H247.895V76.5781H243.445L243.182 79.1286H243.241C243.42 78.8767 243.691 78.6679 244.052 78.5021C244.413 78.3364 244.817 78.2536 245.265 78.2536C245.878 78.2536 246.425 78.3977 246.906 78.6861C247.386 78.9744 247.766 79.3705 248.044 79.8743C248.322 80.3748 248.46 80.9515 248.457 81.6044C248.46 82.2905 248.301 82.9003 247.979 83.4339C247.661 83.9643 247.215 84.3819 246.642 84.6868C246.072 84.9884 245.409 85.1392 244.653 85.1392Z" fill="#2ECC71"/>
<path d="M210.471 98V90.7273H212.928C213.498 90.7273 213.965 90.8303 214.327 91.0362C214.692 91.2398 214.962 91.5156 215.137 91.8636C215.312 92.2116 215.4 92.5999 215.4 93.0284C215.4 93.4569 215.312 93.8464 215.137 94.1967C214.964 94.5471 214.696 94.8265 214.334 95.0348C213.972 95.2408 213.508 95.3438 212.942 95.3438H211.181V94.5625H212.914C213.304 94.5625 213.618 94.495 213.855 94.3601C214.092 94.2251 214.263 94.0429 214.37 93.8132C214.479 93.5812 214.533 93.3196 214.533 93.0284C214.533 92.7372 214.479 92.4768 214.37 92.2472C214.263 92.0175 214.09 91.8376 213.851 91.7074C213.612 91.5748 213.295 91.5085 212.9 91.5085H211.351V98H210.471ZM218.933 98.1136C218.407 98.1136 217.954 97.9976 217.573 97.7656C217.194 97.5312 216.902 97.2045 216.696 96.7855C216.492 96.3641 216.39 95.8741 216.39 95.3153C216.39 94.7566 216.492 94.2642 216.696 93.8381C216.902 93.4096 217.188 93.0758 217.555 92.8366C217.924 92.5952 218.355 92.4744 218.848 92.4744C219.132 92.4744 219.412 92.5218 219.689 92.6165C219.966 92.7112 220.218 92.8651 220.446 93.0781C220.673 93.2888 220.854 93.5682 220.989 93.9162C221.124 94.2642 221.191 94.6927 221.191 95.2017V95.5568H216.987V94.8324H220.339C220.339 94.5246 220.278 94.25 220.154 94.0085C220.034 93.767 219.861 93.5765 219.636 93.4368C219.413 93.2971 219.151 93.2273 218.848 93.2273C218.514 93.2273 218.225 93.3101 217.981 93.4759C217.74 93.6392 217.554 93.8523 217.424 94.1151C217.293 94.3778 217.228 94.6596 217.228 94.9602V95.4432C217.228 95.8551 217.299 96.2043 217.441 96.4908C217.586 96.7749 217.786 96.9915 218.042 97.1406C218.297 97.2874 218.594 97.3608 218.933 97.3608C219.153 97.3608 219.352 97.33 219.529 97.2685C219.709 97.2045 219.864 97.1098 219.995 96.9844C220.125 96.8565 220.225 96.6979 220.297 96.5085L221.106 96.7358C221.021 97.0104 220.878 97.2519 220.676 97.4602C220.475 97.6662 220.227 97.8272 219.931 97.9432C219.635 98.0568 219.302 98.1136 218.933 98.1136ZM222.466 98V92.5455H223.276V93.3693H223.333C223.432 93.0994 223.612 92.8804 223.873 92.7124C224.133 92.5443 224.426 92.4602 224.753 92.4602C224.815 92.4602 224.892 92.4614 224.984 92.4638C225.076 92.4661 225.146 92.4697 225.194 92.4744V93.3267C225.165 93.3196 225.1 93.3089 224.998 93.2947C224.899 93.2782 224.793 93.2699 224.682 93.2699C224.417 93.2699 224.18 93.3255 223.972 93.4368C223.766 93.5457 223.603 93.6972 223.482 93.8913C223.364 94.0831 223.304 94.3021 223.304 94.5483V98H222.466ZM228.958 92.5455V93.2557H226.017V92.5455H228.958ZM226.898 98V91.7926C226.898 91.4801 226.971 91.2197 227.118 91.0114C227.265 90.803 227.456 90.6468 227.69 90.5426C227.924 90.4384 228.172 90.3864 228.432 90.3864C228.638 90.3864 228.806 90.4029 228.936 90.4361C229.067 90.4692 229.164 90.5 229.228 90.5284L228.986 91.2528C228.944 91.2386 228.884 91.2209 228.809 91.1996C228.735 91.1783 228.638 91.1676 228.517 91.1676C228.24 91.1676 228.04 91.2375 227.917 91.3771C227.797 91.5168 227.736 91.7216 227.736 91.9915V98H226.898ZM232.124 98.1136C231.631 98.1136 231.199 97.9964 230.827 97.7621C230.458 97.5277 230.169 97.1998 229.961 96.7784C229.755 96.357 229.652 95.8646 229.652 95.3011C229.652 94.733 229.755 94.237 229.961 93.8132C230.169 93.3894 230.458 93.0604 230.827 92.826C231.199 92.5916 231.631 92.4744 232.124 92.4744C232.616 92.4744 233.047 92.5916 233.416 92.826C233.788 93.0604 234.077 93.3894 234.283 93.8132C234.491 94.237 234.595 94.733 234.595 95.3011C234.595 95.8646 234.491 96.357 234.283 96.7784C234.077 97.1998 233.788 97.5277 233.416 97.7621C233.047 97.9964 232.616 98.1136 232.124 98.1136ZM232.124 97.3608C232.498 97.3608 232.805 97.2649 233.047 97.0732C233.288 96.8814 233.467 96.6293 233.583 96.3168C233.699 96.0043 233.757 95.6657 233.757 95.3011C233.757 94.9366 233.699 94.5968 233.583 94.282C233.467 93.9671 233.288 93.7126 233.047 93.5185C232.805 93.3243 232.498 93.2273 232.124 93.2273C231.75 93.2273 231.442 93.3243 231.2 93.5185C230.959 93.7126 230.78 93.9671 230.664 94.282C230.548 94.5968 230.49 94.9366 230.49 95.3011C230.49 95.6657 230.548 96.0043 230.664 96.3168C230.78 96.6293 230.959 96.8814 231.2 97.0732C231.442 97.2649 231.75 97.3608 232.124 97.3608ZM235.874 98V92.5455H236.684V93.3693H236.741C236.84 93.0994 237.02 92.8804 237.281 92.7124C237.541 92.5443 237.835 92.4602 238.161 92.4602C238.223 92.4602 238.3 92.4614 238.392 92.4638C238.485 92.4661 238.554 92.4697 238.602 92.4744V93.3267C238.573 93.3196 238.508 93.3089 238.406 93.2947C238.307 93.2782 238.202 93.2699 238.09 93.2699C237.825 93.2699 237.588 93.3255 237.38 93.4368C237.174 93.5457 237.011 93.6972 236.89 93.8913C236.772 94.0831 236.713 94.3021 236.713 94.5483V98H235.874ZM239.595 98V92.5455H240.405V93.3977H240.476C240.589 93.1065 240.773 92.8804 241.026 92.7195C241.28 92.5561 241.584 92.4744 241.939 92.4744C242.299 92.4744 242.598 92.5561 242.837 92.7195C243.079 92.8804 243.267 93.1065 243.402 93.3977H243.459C243.598 93.116 243.808 92.8923 244.087 92.7266C244.367 92.5585 244.702 92.4744 245.092 92.4744C245.58 92.4744 245.979 92.6271 246.289 92.9325C246.599 93.2356 246.754 93.7079 246.754 94.3494V98H245.916V94.3494C245.916 93.947 245.806 93.6593 245.586 93.4865C245.366 93.3137 245.107 93.2273 244.808 93.2273C244.425 93.2273 244.128 93.3433 243.917 93.5753C243.706 93.8049 243.601 94.0961 243.601 94.4489V98H242.749V94.2642C242.749 93.9541 242.648 93.7043 242.447 93.5149C242.246 93.3232 241.986 93.2273 241.669 93.2273C241.451 93.2273 241.248 93.2853 241.058 93.4013C240.871 93.5173 240.72 93.6783 240.604 93.8842C240.49 94.0878 240.433 94.3234 240.433 94.5909V98H239.595ZM249.892 98.1278C249.546 98.1278 249.232 98.0627 248.951 97.9325C248.669 97.8 248.445 97.6094 248.279 97.3608C248.114 97.1098 248.031 96.8068 248.031 96.4517C248.031 96.1392 248.092 95.8859 248.216 95.6918C248.339 95.4953 248.503 95.3414 248.709 95.2301C248.915 95.1188 249.142 95.036 249.391 94.9815C249.642 94.9247 249.894 94.8797 250.147 94.8466C250.479 94.804 250.748 94.772 250.953 94.7507C251.162 94.727 251.313 94.688 251.408 94.6335C251.505 94.5791 251.554 94.4844 251.554 94.3494V94.321C251.554 93.9706 251.458 93.6984 251.266 93.5043C251.077 93.3101 250.789 93.2131 250.403 93.2131C250.003 93.2131 249.689 93.3007 249.462 93.4759C249.235 93.651 249.075 93.8381 248.983 94.0369L248.187 93.7528C248.329 93.4214 248.519 93.1634 248.755 92.9787C248.994 92.7917 249.255 92.6615 249.537 92.5881C249.821 92.5123 250.1 92.4744 250.375 92.4744C250.55 92.4744 250.751 92.4957 250.978 92.5384C251.208 92.5786 251.429 92.6626 251.642 92.7905C251.858 92.9183 252.037 93.1113 252.179 93.3693C252.321 93.6274 252.392 93.973 252.392 94.4062V98H251.554V97.2614H251.511C251.454 97.3797 251.359 97.5064 251.227 97.6413C251.094 97.7763 250.918 97.8911 250.698 97.9858C250.478 98.0805 250.209 98.1278 249.892 98.1278ZM250.02 97.375C250.351 97.375 250.63 97.3099 250.858 97.1797C251.087 97.0495 251.26 96.8814 251.376 96.6754C251.494 96.4695 251.554 96.2528 251.554 96.0256V95.2585C251.518 95.3011 251.44 95.3402 251.319 95.3757C251.201 95.4089 251.064 95.4384 250.907 95.4645C250.753 95.4882 250.603 95.5095 250.456 95.5284C250.312 95.545 250.195 95.5592 250.105 95.571C249.887 95.5994 249.683 95.6456 249.494 95.7095C249.307 95.7711 249.155 95.8646 249.039 95.9901C248.926 96.1132 248.869 96.2812 248.869 96.4943C248.869 96.7855 248.977 97.0057 249.192 97.1548C249.41 97.3016 249.686 97.375 250.02 97.375ZM254.759 94.7188V98H253.921V92.5455H254.731V93.3977H254.802C254.93 93.1207 255.124 92.8982 255.384 92.7301C255.645 92.5597 255.981 92.4744 256.393 92.4744C256.762 92.4744 257.085 92.5502 257.362 92.7017C257.639 92.8509 257.855 93.0781 258.009 93.3835C258.163 93.6866 258.24 94.0701 258.24 94.5341V98H257.401V94.5909C257.401 94.1624 257.29 93.8286 257.068 93.5895C256.845 93.348 256.54 93.2273 256.151 93.2273C255.884 93.2273 255.645 93.2853 255.434 93.4013C255.226 93.5173 255.061 93.6866 254.941 93.9091C254.82 94.1316 254.759 94.4015 254.759 94.7188ZM261.987 98.1136C261.475 98.1136 261.035 97.9929 260.666 97.7514C260.297 97.5099 260.012 97.1773 259.814 96.7536C259.615 96.3298 259.515 95.8456 259.515 95.3011C259.515 94.7472 259.617 94.2583 259.821 93.8345C260.027 93.4084 260.313 93.0758 260.68 92.8366C261.049 92.5952 261.48 92.4744 261.973 92.4744C262.356 92.4744 262.702 92.5455 263.01 92.6875C263.317 92.8295 263.569 93.0284 263.766 93.2841C263.962 93.5398 264.084 93.8381 264.132 94.179H263.294C263.23 93.9304 263.088 93.7102 262.868 93.5185C262.65 93.3243 262.356 93.2273 261.987 93.2273C261.66 93.2273 261.374 93.3125 261.127 93.483C260.884 93.651 260.693 93.889 260.556 94.1967C260.421 94.5021 260.353 94.8608 260.353 95.2727C260.353 95.6941 260.42 96.0611 260.552 96.3736C260.687 96.6861 260.877 96.9287 261.12 97.1016C261.367 97.2744 261.655 97.3608 261.987 97.3608C262.205 97.3608 262.402 97.3229 262.58 97.2472C262.757 97.1714 262.908 97.0625 263.031 96.9205C263.154 96.7784 263.242 96.608 263.294 96.4091H264.132C264.084 96.7311 263.967 97.0211 263.78 97.2791C263.596 97.5348 263.35 97.7384 263.045 97.8899C262.742 98.0391 262.389 98.1136 261.987 98.1136ZM267.644 98.1136C267.118 98.1136 266.665 97.9976 266.284 97.7656C265.905 97.5312 265.613 97.2045 265.407 96.7855C265.203 96.3641 265.101 95.8741 265.101 95.3153C265.101 94.7566 265.203 94.2642 265.407 93.8381C265.613 93.4096 265.899 93.0758 266.266 92.8366C266.635 92.5952 267.066 92.4744 267.559 92.4744C267.843 92.4744 268.123 92.5218 268.4 92.6165C268.677 92.7112 268.929 92.8651 269.157 93.0781C269.384 93.2888 269.565 93.5682 269.7 93.9162C269.835 94.2642 269.902 94.6927 269.902 95.2017V95.5568H265.698V94.8324H269.05C269.05 94.5246 268.989 94.25 268.865 94.0085C268.745 93.767 268.572 93.5765 268.347 93.4368C268.124 93.2971 267.862 93.2273 267.559 93.2273C267.225 93.2273 266.936 93.3101 266.692 93.4759C266.451 93.6392 266.265 93.8523 266.135 94.1151C266.004 94.3778 265.939 94.6596 265.939 94.9602V95.4432C265.939 95.8551 266.01 96.2043 266.152 96.4908C266.297 96.7749 266.497 96.9915 266.752 97.1406C267.008 97.2874 267.305 97.3608 267.644 97.3608C267.864 97.3608 268.063 97.33 268.24 97.2685C268.42 97.2045 268.575 97.1098 268.706 96.9844C268.836 96.8565 268.936 96.6979 269.007 96.5085L269.817 96.7358C269.732 97.0104 269.589 97.2519 269.387 97.4602C269.186 97.6662 268.938 97.8272 268.642 97.9432C268.346 98.0568 268.013 98.1136 267.644 98.1136Z" fill="#2C3E50"/>
<path d="M67 160H53C51.3431 160 50 161.343 50 163V177C50 178.657 51.3431 180 53 180H67C68.6569 180 70 178.657 70 177V163C70 161.343 68.6569 160 67 160Z" fill="#3498DB"/>
<path d="M53.3464 174V165.273H55.1916V168.874H58.9373V165.273H60.7782V174H58.9373V170.395H55.1916V174H53.3464ZM66.0453 165.273V174H64.2001V167.024H64.149L62.1504 168.277V166.641L64.3109 165.273H66.0453Z" fill="white"/>
<path d="M85.8295 167.455C85.7784 167.023 85.571 166.688 85.2074 166.449C84.8438 166.21 84.3977 166.091 83.8693 166.091C83.483 166.091 83.1449 166.153 82.8551 166.278C82.5682 166.403 82.3438 166.575 82.1818 166.794C82.0227 167.013 81.9432 167.261 81.9432 167.54C81.9432 167.773 81.9986 167.973 82.1094 168.141C82.223 168.305 82.3679 168.443 82.544 168.554C82.7202 168.662 82.9048 168.751 83.098 168.822C83.2912 168.891 83.4688 168.946 83.6307 168.989L84.517 169.227C84.7443 169.287 84.9972 169.369 85.2756 169.474C85.5568 169.58 85.8253 169.723 86.081 169.905C86.3395 170.084 86.5526 170.314 86.7202 170.595C86.8878 170.876 86.9716 171.222 86.9716 171.631C86.9716 172.102 86.848 172.528 86.6009 172.909C86.3565 173.29 85.9986 173.592 85.527 173.817C85.0582 174.041 84.4886 174.153 83.8182 174.153C83.1932 174.153 82.652 174.053 82.1946 173.851C81.7401 173.649 81.3821 173.368 81.1207 173.007C80.8622 172.646 80.7159 172.227 80.6818 171.75H81.7727C81.8011 172.08 81.9119 172.352 82.1051 172.568C82.3011 172.781 82.5483 172.94 82.8466 173.045C83.1477 173.148 83.4716 173.199 83.8182 173.199C84.2216 173.199 84.5838 173.134 84.9048 173.003C85.2259 172.869 85.4801 172.685 85.6676 172.449C85.8551 172.21 85.9489 171.932 85.9489 171.614C85.9489 171.324 85.8679 171.088 85.706 170.906C85.544 170.724 85.331 170.577 85.0668 170.463C84.8026 170.349 84.517 170.25 84.2102 170.165L83.1364 169.858C82.4545 169.662 81.9148 169.382 81.517 169.018C81.1193 168.655 80.9205 168.179 80.9205 167.591C80.9205 167.102 81.0526 166.676 81.3168 166.312C81.5838 165.946 81.9418 165.662 82.3906 165.46C82.8423 165.256 83.3466 165.153 83.9034 165.153C84.4659 165.153 84.9659 165.254 85.4034 165.456C85.8409 165.655 86.1875 165.928 86.4432 166.274C86.7017 166.621 86.8381 167.014 86.8523 167.455H85.8295ZM91.3171 174.136C90.6864 174.136 90.1424 173.997 89.685 173.719C89.2305 173.438 88.8796 173.045 88.6325 172.543C88.3881 172.037 88.266 171.449 88.266 170.778C88.266 170.108 88.3881 169.517 88.6325 169.006C88.8796 168.491 89.2234 168.091 89.6637 167.804C90.1069 167.514 90.6239 167.369 91.2148 167.369C91.5558 167.369 91.8924 167.426 92.2248 167.54C92.5572 167.653 92.8597 167.838 93.1325 168.094C93.4052 168.347 93.6225 168.682 93.7844 169.099C93.9464 169.517 94.0273 170.031 94.0273 170.642V171.068H88.9819V170.199H93.0046C93.0046 169.83 92.9308 169.5 92.783 169.21C92.6381 168.92 92.4308 168.692 92.1609 168.524C91.8938 168.357 91.5785 168.273 91.2148 168.273C90.8143 168.273 90.4677 168.372 90.1751 168.571C89.8853 168.767 89.6623 169.023 89.506 169.338C89.3498 169.653 89.2717 169.991 89.2717 170.352V170.932C89.2717 171.426 89.3569 171.845 89.5273 172.189C89.7006 172.53 89.9407 172.79 90.2475 172.969C90.5543 173.145 90.9109 173.233 91.3171 173.233C91.5813 173.233 91.82 173.196 92.033 173.122C92.2489 173.045 92.435 172.932 92.5913 172.781C92.7475 172.628 92.8683 172.437 92.9535 172.21L93.9251 172.483C93.8228 172.812 93.6509 173.102 93.4094 173.352C93.168 173.599 92.8697 173.793 92.5146 173.932C92.1594 174.068 91.7603 174.136 91.3171 174.136ZM95.5572 174V167.455H96.5288V168.477H96.614C96.7504 168.128 96.9705 167.857 97.2745 167.663C97.5785 167.467 97.9435 167.369 98.3697 167.369C98.8015 167.369 99.1609 167.467 99.4478 167.663C99.7376 167.857 99.9634 168.128 100.125 168.477H100.194C100.361 168.139 100.613 167.871 100.948 167.672C101.283 167.47 101.685 167.369 102.154 167.369C102.739 167.369 103.218 167.553 103.59 167.919C103.962 168.283 104.148 168.849 104.148 169.619V174H103.142V169.619C103.142 169.136 103.01 168.791 102.746 168.584C102.482 168.376 102.171 168.273 101.813 168.273C101.353 168.273 100.996 168.412 100.743 168.69C100.49 168.966 100.364 169.315 100.364 169.739V174H99.3413V169.517C99.3413 169.145 99.2205 168.845 98.979 168.618C98.7376 168.388 98.4265 168.273 98.0458 168.273C97.7844 168.273 97.5401 168.342 97.3129 168.482C97.0884 168.621 96.9066 168.814 96.7674 169.061C96.631 169.305 96.5629 169.588 96.5629 169.909V174H95.5572ZM107.913 174.153C107.498 174.153 107.122 174.075 106.784 173.919C106.446 173.76 106.177 173.531 105.978 173.233C105.779 172.932 105.68 172.568 105.68 172.142C105.68 171.767 105.754 171.463 105.902 171.23C106.049 170.994 106.247 170.81 106.494 170.676C106.741 170.543 107.014 170.443 107.312 170.378C107.613 170.31 107.916 170.256 108.22 170.216C108.618 170.165 108.94 170.126 109.187 170.101C109.437 170.072 109.619 170.026 109.733 169.96C109.849 169.895 109.907 169.781 109.907 169.619V169.585C109.907 169.165 109.792 168.838 109.562 168.605C109.335 168.372 108.99 168.256 108.527 168.256C108.047 168.256 107.67 168.361 107.397 168.571C107.125 168.781 106.933 169.006 106.822 169.244L105.868 168.903C106.038 168.506 106.265 168.196 106.549 167.974C106.836 167.75 107.149 167.594 107.487 167.506C107.828 167.415 108.163 167.369 108.493 167.369C108.703 167.369 108.944 167.395 109.217 167.446C109.493 167.494 109.758 167.595 110.014 167.749C110.272 167.902 110.487 168.134 110.657 168.443C110.828 168.753 110.913 169.168 110.913 169.688V174H109.907V173.114H109.856C109.788 173.256 109.674 173.408 109.515 173.57C109.356 173.732 109.145 173.869 108.88 173.983C108.616 174.097 108.294 174.153 107.913 174.153ZM108.066 173.25C108.464 173.25 108.799 173.172 109.072 173.016C109.348 172.859 109.555 172.658 109.694 172.411C109.836 172.163 109.907 171.903 109.907 171.631V170.71C109.865 170.761 109.771 170.808 109.626 170.851C109.484 170.891 109.319 170.926 109.132 170.957C108.947 170.986 108.767 171.011 108.591 171.034C108.417 171.054 108.277 171.071 108.169 171.085C107.907 171.119 107.663 171.175 107.436 171.251C107.211 171.325 107.029 171.437 106.89 171.588C106.754 171.736 106.686 171.937 106.686 172.193C106.686 172.543 106.815 172.807 107.074 172.986C107.335 173.162 107.666 173.25 108.066 173.25ZM113.754 170.062V174H112.749V167.455H113.72V168.477H113.805C113.959 168.145 114.192 167.878 114.504 167.676C114.817 167.472 115.22 167.369 115.714 167.369C116.158 167.369 116.545 167.46 116.878 167.642C117.21 167.821 117.469 168.094 117.653 168.46C117.838 168.824 117.93 169.284 117.93 169.841V174H116.925V169.909C116.925 169.395 116.791 168.994 116.524 168.707C116.257 168.418 115.891 168.273 115.425 168.273C115.104 168.273 114.817 168.342 114.564 168.482C114.314 168.621 114.116 168.824 113.972 169.091C113.827 169.358 113.754 169.682 113.754 170.062ZM122.615 167.455V168.307H119.223V167.455H122.615ZM120.211 165.886H121.217V172.125C121.217 172.409 121.258 172.622 121.341 172.764C121.426 172.903 121.534 172.997 121.664 173.045C121.798 173.091 121.939 173.114 122.086 173.114C122.197 173.114 122.288 173.108 122.359 173.097C122.43 173.082 122.487 173.071 122.529 173.062L122.734 173.966C122.666 173.991 122.571 174.017 122.449 174.043C122.326 174.071 122.172 174.085 121.984 174.085C121.7 174.085 121.422 174.024 121.149 173.902C120.879 173.78 120.654 173.594 120.475 173.344C120.299 173.094 120.211 172.778 120.211 172.398V165.886ZM124.127 174V167.455H125.133V174H124.127ZM124.639 166.364C124.443 166.364 124.274 166.297 124.132 166.163C123.993 166.03 123.923 165.869 123.923 165.682C123.923 165.494 123.993 165.334 124.132 165.2C124.274 165.067 124.443 165 124.639 165C124.835 165 125.002 165.067 125.142 165.2C125.284 165.334 125.355 165.494 125.355 165.682C125.355 165.869 125.284 166.03 125.142 166.163C125.002 166.297 124.835 166.364 124.639 166.364ZM129.634 174.136C129.021 174.136 128.492 173.991 128.049 173.702C127.606 173.412 127.265 173.013 127.026 172.504C126.788 171.996 126.668 171.415 126.668 170.761C126.668 170.097 126.79 169.51 127.035 169.001C127.282 168.49 127.626 168.091 128.066 167.804C128.509 167.514 129.026 167.369 129.617 167.369C130.077 167.369 130.492 167.455 130.862 167.625C131.231 167.795 131.533 168.034 131.769 168.341C132.005 168.648 132.151 169.006 132.208 169.415H131.202C131.126 169.116 130.955 168.852 130.691 168.622C130.43 168.389 130.077 168.273 129.634 168.273C129.242 168.273 128.898 168.375 128.603 168.58C128.31 168.781 128.082 169.067 127.917 169.436C127.755 169.803 127.674 170.233 127.674 170.727C127.674 171.233 127.754 171.673 127.913 172.048C128.075 172.423 128.302 172.714 128.594 172.922C128.89 173.129 129.237 173.233 129.634 173.233C129.896 173.233 130.133 173.188 130.346 173.097C130.559 173.006 130.739 172.875 130.887 172.705C131.035 172.534 131.14 172.33 131.202 172.091H132.208C132.151 172.477 132.011 172.825 131.786 173.135C131.565 173.442 131.271 173.686 130.904 173.868C130.54 174.047 130.117 174.136 129.634 174.136ZM137.19 174V165.273H138.246V169.159H142.9V165.273H143.957V174H142.9V170.097H138.246V174H137.19ZM145.595 166.21V165.273H152.141V166.21H149.396V174H148.339V166.21H145.595ZM153.772 165.273H155.033L157.999 172.517H158.101L161.067 165.273H162.328V174H161.34V167.369H161.255L158.527 174H157.573L154.846 167.369H154.76V174H153.772V165.273ZM164.447 174V165.273H165.504V173.062H169.561V174H164.447Z" fill="#2C3E50"/>
<path d="M177 160H163C161.343 160 160 161.343 160 163V177C160 178.657 161.343 180 163 180H177C178.657 180 180 178.657 180 177V163C180 161.343 178.657 160 177 160Z" fill="#E74C3C"/>
<path d="M156.36 166.727H158.256L160.259 171.614H160.344L162.347 166.727H164.243V174H162.752V169.266H162.691L160.809 173.964H159.794L157.911 169.249H157.851V174H156.36V166.727ZM165.51 174V166.727H170.411V167.995H167.048V169.728H170.158V170.996H167.048V172.732H170.425V174H165.51ZM171.356 167.995V166.727H177.329V167.995H175.103V174H173.583V167.995H171.356ZM178.678 174H177.03L179.541 166.727H181.522L184.029 174H182.381L180.56 168.389H180.503L178.678 174ZM178.575 171.141H182.467V172.342H178.575V171.141Z" fill="white"/>
<path d="M191.057 165.273H192.318L195.284 172.517H195.386L198.352 165.273H199.614V174H198.625V167.369H198.54L195.812 174H194.858L192.131 167.369H192.045V174H191.057V165.273ZM204.341 174.136C203.71 174.136 203.166 173.997 202.708 173.719C202.254 173.438 201.903 173.045 201.656 172.543C201.412 172.037 201.289 171.449 201.289 170.778C201.289 170.108 201.412 169.517 201.656 169.006C201.903 168.491 202.247 168.091 202.687 167.804C203.13 167.514 203.647 167.369 204.238 167.369C204.579 167.369 204.916 167.426 205.248 167.54C205.581 167.653 205.883 167.838 206.156 168.094C206.429 168.347 206.646 168.682 206.808 169.099C206.97 169.517 207.051 170.031 207.051 170.642V171.068H202.005V170.199H206.028C206.028 169.83 205.954 169.5 205.806 169.21C205.662 168.92 205.454 168.692 205.184 168.524C204.917 168.357 204.602 168.273 204.238 168.273C203.838 168.273 203.491 168.372 203.199 168.571C202.909 168.767 202.686 169.023 202.529 169.338C202.373 169.653 202.295 169.991 202.295 170.352V170.932C202.295 171.426 202.38 171.845 202.551 172.189C202.724 172.53 202.964 172.79 203.271 172.969C203.578 173.145 203.934 173.233 204.341 173.233C204.605 173.233 204.843 173.196 205.056 173.122C205.272 173.045 205.458 172.932 205.615 172.781C205.771 172.628 205.892 172.437 205.977 172.21L206.949 172.483C206.846 172.812 206.674 173.102 206.433 173.352C206.191 173.599 205.893 173.793 205.538 173.932C205.183 174.068 204.784 174.136 204.341 174.136ZM211.427 167.455V168.307H208.035V167.455H211.427ZM209.024 165.886H210.029V172.125C210.029 172.409 210.071 172.622 210.153 172.764C210.238 172.903 210.346 172.997 210.477 173.045C210.61 173.091 210.751 173.114 210.899 173.114C211.01 173.114 211.1 173.108 211.172 173.097C211.243 173.082 211.299 173.071 211.342 173.062L211.547 173.966C211.478 173.991 211.383 174.017 211.261 174.043C211.139 174.071 210.984 174.085 210.797 174.085C210.512 174.085 210.234 174.024 209.961 173.902C209.691 173.78 209.467 173.594 209.288 173.344C209.112 173.094 209.024 172.778 209.024 172.398V165.886ZM214.866 174.153C214.451 174.153 214.075 174.075 213.737 173.919C213.399 173.76 213.13 173.531 212.931 173.233C212.733 172.932 212.633 172.568 212.633 172.142C212.633 171.767 212.707 171.463 212.855 171.23C213.002 170.994 213.2 170.81 213.447 170.676C213.694 170.543 213.967 170.443 214.265 170.378C214.566 170.31 214.869 170.256 215.173 170.216C215.571 170.165 215.893 170.126 216.14 170.101C216.39 170.072 216.572 170.026 216.686 169.96C216.802 169.895 216.86 169.781 216.86 169.619V169.585C216.86 169.165 216.745 168.838 216.515 168.605C216.288 168.372 215.943 168.256 215.48 168.256C215 168.256 214.623 168.361 214.35 168.571C214.078 168.781 213.886 169.006 213.775 169.244L212.821 168.903C212.991 168.506 213.218 168.196 213.502 167.974C213.789 167.75 214.102 167.594 214.44 167.506C214.781 167.415 215.116 167.369 215.446 167.369C215.656 167.369 215.897 167.395 216.17 167.446C216.446 167.494 216.711 167.595 216.967 167.749C217.225 167.902 217.44 168.134 217.61 168.443C217.781 168.753 217.866 169.168 217.866 169.688V174H216.86V173.114H216.809C216.741 173.256 216.627 173.408 216.468 173.57C216.309 173.732 216.098 173.869 215.833 173.983C215.569 174.097 215.247 174.153 214.866 174.153ZM215.02 173.25C215.417 173.25 215.752 173.172 216.025 173.016C216.301 172.859 216.508 172.658 216.647 172.411C216.789 172.163 216.86 171.903 216.86 171.631V170.71C216.818 170.761 216.724 170.808 216.579 170.851C216.437 170.891 216.272 170.926 216.085 170.957C215.9 170.986 215.72 171.011 215.544 171.034C215.37 171.054 215.23 171.071 215.122 171.085C214.86 171.119 214.616 171.175 214.389 171.251C214.164 171.325 213.983 171.437 213.843 171.588C213.707 171.736 213.639 171.937 213.639 172.193C213.639 172.543 213.768 172.807 214.027 172.986C214.288 173.162 214.619 173.25 215.02 173.25ZM222.736 166.21V165.273H229.281V166.21H226.537V174H225.48V166.21H222.736ZM231.811 174.153C231.397 174.153 231.02 174.075 230.682 173.919C230.344 173.76 230.076 173.531 229.877 173.233C229.678 172.932 229.578 172.568 229.578 172.142C229.578 171.767 229.652 171.463 229.8 171.23C229.948 170.994 230.145 170.81 230.392 170.676C230.64 170.543 230.912 170.443 231.211 170.378C231.512 170.31 231.814 170.256 232.118 170.216C232.516 170.165 232.838 170.126 233.086 170.101C233.336 170.072 233.517 170.026 233.631 169.96C233.748 169.895 233.806 169.781 233.806 169.619V169.585C233.806 169.165 233.691 168.838 233.461 168.605C233.233 168.372 232.888 168.256 232.425 168.256C231.945 168.256 231.569 168.361 231.296 168.571C231.023 168.781 230.831 169.006 230.721 169.244L229.766 168.903C229.936 168.506 230.164 168.196 230.448 167.974C230.735 167.75 231.047 167.594 231.385 167.506C231.726 167.415 232.061 167.369 232.391 167.369C232.601 167.369 232.843 167.395 233.115 167.446C233.391 167.494 233.657 167.595 233.912 167.749C234.171 167.902 234.385 168.134 234.556 168.443C234.726 168.753 234.811 169.168 234.811 169.688V174H233.806V173.114H233.755C233.686 173.256 233.573 173.408 233.414 173.57C233.255 173.732 233.043 173.869 232.779 173.983C232.515 174.097 232.192 174.153 231.811 174.153ZM231.965 173.25C232.363 173.25 232.698 173.172 232.971 173.016C233.246 172.859 233.453 172.658 233.593 172.411C233.735 172.163 233.806 171.903 233.806 171.631V170.71C233.763 170.761 233.669 170.808 233.525 170.851C233.382 170.891 233.218 170.926 233.03 170.957C232.846 170.986 232.665 171.011 232.489 171.034C232.316 171.054 232.175 171.071 232.067 171.085C231.806 171.119 231.561 171.175 231.334 171.251C231.11 171.325 230.928 171.437 230.789 171.588C230.652 171.736 230.584 171.937 230.584 172.193C230.584 172.543 230.713 172.807 230.972 172.986C231.233 173.162 231.564 173.25 231.965 173.25ZM239.289 176.591C238.803 176.591 238.386 176.528 238.036 176.403C237.687 176.281 237.396 176.119 237.163 175.918C236.933 175.719 236.749 175.506 236.613 175.278L237.414 174.716C237.505 174.835 237.62 174.972 237.759 175.125C237.898 175.281 238.089 175.416 238.33 175.53C238.575 175.646 238.894 175.705 239.289 175.705C239.817 175.705 240.254 175.577 240.597 175.321C240.941 175.065 241.113 174.665 241.113 174.119V172.79H241.028C240.954 172.909 240.849 173.057 240.712 173.233C240.579 173.406 240.386 173.561 240.133 173.697C239.883 173.831 239.545 173.898 239.119 173.898C238.59 173.898 238.116 173.773 237.695 173.523C237.278 173.273 236.947 172.909 236.702 172.432C236.461 171.955 236.34 171.375 236.34 170.693C236.34 170.023 236.458 169.439 236.694 168.942C236.93 168.442 237.258 168.055 237.678 167.783C238.099 167.507 238.585 167.369 239.136 167.369C239.562 167.369 239.9 167.44 240.15 167.582C240.403 167.722 240.596 167.881 240.729 168.06C240.866 168.236 240.971 168.381 241.045 168.494H241.147V167.455H242.119V174.188C242.119 174.75 241.991 175.207 241.735 175.56C241.482 175.915 241.141 176.175 240.712 176.339C240.286 176.507 239.812 176.591 239.289 176.591ZM239.255 172.994C239.658 172.994 239.999 172.902 240.278 172.717C240.556 172.533 240.768 172.267 240.913 171.92C241.058 171.574 241.13 171.159 241.13 170.676C241.13 170.205 241.059 169.788 240.917 169.428C240.775 169.067 240.565 168.784 240.286 168.58C240.008 168.375 239.664 168.273 239.255 168.273C238.829 168.273 238.474 168.381 238.19 168.597C237.908 168.812 237.697 169.102 237.555 169.466C237.415 169.83 237.346 170.233 237.346 170.676C237.346 171.131 237.417 171.533 237.559 171.882C237.704 172.229 237.917 172.501 238.198 172.7C238.482 172.896 238.835 172.994 239.255 172.994ZM248.596 168.92L247.692 169.176C247.636 169.026 247.552 168.879 247.441 168.737C247.333 168.592 247.185 168.473 246.998 168.379C246.81 168.286 246.57 168.239 246.278 168.239C245.877 168.239 245.543 168.331 245.276 168.516C245.012 168.697 244.88 168.929 244.88 169.21C244.88 169.46 244.971 169.658 245.153 169.803C245.335 169.947 245.619 170.068 246.005 170.165L246.977 170.403C247.562 170.545 247.998 170.763 248.285 171.055C248.572 171.345 248.715 171.719 248.715 172.176C248.715 172.551 248.607 172.886 248.391 173.182C248.178 173.477 247.88 173.71 247.496 173.881C247.113 174.051 246.667 174.136 246.158 174.136C245.491 174.136 244.938 173.991 244.501 173.702C244.063 173.412 243.786 172.989 243.67 172.432L244.624 172.193C244.715 172.545 244.887 172.81 245.14 172.986C245.396 173.162 245.729 173.25 246.141 173.25C246.61 173.25 246.982 173.151 247.258 172.952C247.536 172.75 247.675 172.509 247.675 172.227C247.675 172 247.596 171.81 247.437 171.656C247.278 171.5 247.033 171.384 246.704 171.307L245.613 171.051C245.013 170.909 244.573 170.689 244.292 170.391C244.013 170.089 243.874 169.713 243.874 169.261C243.874 168.892 243.978 168.565 244.185 168.281C244.396 167.997 244.681 167.774 245.042 167.612C245.406 167.45 245.817 167.369 246.278 167.369C246.925 167.369 247.434 167.511 247.803 167.795C248.175 168.08 248.44 168.455 248.596 168.92Z" fill="#2C3E50"/>
<path d="M287 160H273C271.343 160 270 161.343 270 163V177C270 178.657 271.343 180 273 180H287C288.657 180 290 178.657 290 177V163C290 161.343 288.657 160 287 160Z" fill="#F39C12"/>
<path d="M272.423 174H270.775L273.286 166.727H275.267L277.774 174H276.127L274.305 168.389H274.248L272.423 174ZM272.32 171.141H276.212V172.342H272.32V171.141ZM278.65 174V166.727H280.187V172.732H283.305V174H278.65ZM283.138 167.995V166.727H289.111V167.995H286.885V174H285.365V167.995H283.138Z" fill="white"/>
<path d="M301.415 174H300.307L303.511 165.273H304.602L307.807 174H306.699L304.091 166.653H304.023L301.415 174ZM301.824 170.591H306.29V171.528H301.824V170.591ZM310.036 165.273V174H309.03V165.273H310.036ZM314.724 167.455V168.307H311.332V167.455H314.724ZM312.321 165.886H313.326V172.125C313.326 172.409 313.368 172.622 313.45 172.764C313.535 172.903 313.643 172.997 313.774 173.045C313.907 173.091 314.048 173.114 314.196 173.114C314.306 173.114 314.397 173.108 314.468 173.097C314.539 173.082 314.596 173.071 314.639 173.062L314.843 173.966C314.775 173.991 314.68 174.017 314.558 174.043C314.436 174.071 314.281 174.085 314.093 174.085C313.809 174.085 313.531 174.024 313.258 173.902C312.988 173.78 312.764 173.594 312.585 173.344C312.409 173.094 312.321 172.778 312.321 172.398V165.886ZM319.271 166.21V165.273H325.816V166.21H323.072V174H322.015V166.21H319.271ZM329.106 174.136C328.475 174.136 327.931 173.997 327.474 173.719C327.02 173.438 326.669 173.045 326.422 172.543C326.177 172.037 326.055 171.449 326.055 170.778C326.055 170.108 326.177 169.517 326.422 169.006C326.669 168.491 327.012 168.091 327.453 167.804C327.896 167.514 328.413 167.369 329.004 167.369C329.345 167.369 329.681 167.426 330.014 167.54C330.346 167.653 330.649 167.838 330.922 168.094C331.194 168.347 331.412 168.682 331.574 169.099C331.735 169.517 331.816 170.031 331.816 170.642V171.068H326.771V170.199H330.794C330.794 169.83 330.72 169.5 330.572 169.21C330.427 168.92 330.22 168.692 329.95 168.524C329.683 168.357 329.368 168.273 329.004 168.273C328.603 168.273 328.257 168.372 327.964 168.571C327.674 168.767 327.451 169.023 327.295 169.338C327.139 169.653 327.061 169.991 327.061 170.352V170.932C327.061 171.426 327.146 171.845 327.316 172.189C327.49 172.53 327.73 172.79 328.037 172.969C328.343 173.145 328.7 173.233 329.106 173.233C329.37 173.233 329.609 173.196 329.822 173.122C330.038 173.045 330.224 172.932 330.38 172.781C330.537 172.628 330.657 172.437 330.743 172.21L331.714 172.483C331.612 172.812 331.44 173.102 331.199 173.352C330.957 173.599 330.659 173.793 330.304 173.932C329.949 174.068 329.549 174.136 329.106 174.136ZM333.92 167.455L335.489 170.131L337.057 167.455H338.216L336.102 170.727L338.216 174H337.057L335.489 171.46L333.92 174H332.761L334.841 170.727L332.761 167.455H333.92ZM342.498 167.455V168.307H339.105V167.455H342.498ZM340.094 165.886H341.1V172.125C341.1 172.409 341.141 172.622 341.223 172.764C341.309 172.903 341.417 172.997 341.547 173.045C341.681 173.091 341.821 173.114 341.969 173.114C342.08 173.114 342.171 173.108 342.242 173.097C342.313 173.082 342.37 173.071 342.412 173.062L342.617 173.966C342.549 173.991 342.453 174.017 342.331 174.043C342.209 174.071 342.054 174.085 341.867 174.085C341.583 174.085 341.304 174.024 341.032 173.902C340.762 173.78 340.537 173.594 340.358 173.344C340.182 173.094 340.094 172.778 340.094 172.398V165.886Z" fill="#2C3E50"/>
<path d="M180 100H160M160 100L165 95M160 100L165 105" stroke="#3498DB" stroke-width="2"/>
<path d="M53.6286 15.7102C53.5831 15.2519 53.388 14.8958 53.0433 14.642C52.6986 14.3883 52.2308 14.2614 51.6399 14.2614C51.2384 14.2614 50.8994 14.3182 50.6229 14.4318C50.3464 14.5417 50.1342 14.6951 49.9865 14.892C49.8426 15.089 49.7706 15.3125 49.7706 15.5625C49.763 15.7708 49.8066 15.9527 49.9013 16.108C49.9998 16.2633 50.1342 16.3977 50.3047 16.5114C50.4751 16.6212 50.6721 16.7178 50.8956 16.8011C51.1191 16.8807 51.3577 16.9489 51.6115 17.0057L52.657 17.2557C53.1645 17.3693 53.6304 17.5208 54.0547 17.7102C54.4789 17.8996 54.8464 18.1326 55.157 18.4091C55.4676 18.6856 55.7081 19.0114 55.8786 19.3864C56.0528 19.7614 56.1418 20.1913 56.1456 20.6761C56.1418 21.3883 55.96 22.0057 55.6001 22.5284C55.2441 23.0473 54.7289 23.4508 54.0547 23.7386C53.3842 24.0227 52.5755 24.1648 51.6286 24.1648C50.6892 24.1648 49.871 24.0208 49.174 23.733C48.4808 23.4451 47.9392 23.0189 47.549 22.4545C47.1626 21.8864 46.96 21.1837 46.9411 20.3466H49.3217C49.3482 20.7367 49.46 21.0625 49.657 21.3239C49.8577 21.5814 50.1248 21.7765 50.4581 21.9091C50.7952 22.0379 51.1759 22.1023 51.6001 22.1023C52.0168 22.1023 52.3786 22.0417 52.6854 21.9205C52.996 21.7992 53.2365 21.6307 53.407 21.4148C53.5774 21.1989 53.6626 20.9508 53.6626 20.6705C53.6626 20.4091 53.585 20.1894 53.4297 20.0114C53.2782 19.8333 53.0547 19.6818 52.7592 19.5568C52.4676 19.4318 52.1096 19.3182 51.6854 19.2159L50.4183 18.8977C49.4373 18.6591 48.6626 18.286 48.0945 17.7784C47.5263 17.2708 47.2441 16.5871 47.2479 15.7273C47.2441 15.0227 47.4316 14.4072 47.8104 13.8807C48.1929 13.3542 48.7176 12.9432 49.3842 12.6477C50.0509 12.3523 50.8085 12.2045 51.657 12.2045C52.5206 12.2045 53.2744 12.3523 53.9183 12.6477C54.5661 12.9432 55.0698 13.3542 55.4297 13.8807C55.7895 14.4072 55.9751 15.017 55.9865 15.7102H53.6286ZM57.8004 24V12.3636H65.6413V14.392H60.2607V17.1648H65.2379V19.1932H60.2607V21.9716H65.6641V24H57.8004ZM78.2905 18.1818C78.2905 19.4508 78.05 20.5303 77.5689 21.4205C77.0916 22.3106 76.4401 22.9905 75.6143 23.4602C74.7924 23.9261 73.8681 24.1591 72.8416 24.1591C71.8075 24.1591 70.8795 23.9242 70.0575 23.4545C69.2356 22.9848 68.5859 22.3049 68.1087 21.4148C67.6314 20.5246 67.3928 19.447 67.3928 18.1818C67.3928 16.9129 67.6314 15.8333 68.1087 14.9432C68.5859 14.053 69.2356 13.375 70.0575 12.9091C70.8795 12.4394 71.8075 12.2045 72.8416 12.2045C73.8681 12.2045 74.7924 12.4394 75.6143 12.9091C76.4401 13.375 77.0916 14.053 77.5689 14.9432C78.05 15.8333 78.2905 16.9129 78.2905 18.1818ZM75.7962 18.1818C75.7962 17.3598 75.6731 16.6667 75.4268 16.1023C75.1844 15.5379 74.8416 15.1098 74.3984 14.8182C73.9553 14.5265 73.4363 14.3807 72.8416 14.3807C72.2469 14.3807 71.728 14.5265 71.2848 14.8182C70.8416 15.1098 70.4969 15.5379 70.2507 16.1023C70.0083 16.6667 69.8871 17.3598 69.8871 18.1818C69.8871 19.0038 70.0083 19.697 70.2507 20.2614C70.4969 20.8258 70.8416 21.2538 71.2848 21.5455C71.728 21.8371 72.2469 21.983 72.8416 21.983C73.4363 21.983 73.9553 21.8371 74.3984 21.5455C74.8416 21.2538 75.1844 20.8258 75.4268 20.2614C75.6731 19.697 75.7962 19.0038 75.7962 18.1818ZM87.3388 24.1705C86.5357 24.1705 85.8426 24.0265 85.2592 23.7386C84.6759 23.4508 84.227 23.0606 83.9126 22.5682C83.602 22.072 83.4467 21.5189 83.4467 20.9091C83.4467 20.4545 83.5376 20.0511 83.7195 19.6989C83.9013 19.3466 84.1551 19.0227 84.4808 18.7273C84.8066 18.428 85.1854 18.1307 85.6172 17.8352L87.8729 16.3523C88.1645 16.1667 88.3786 15.9716 88.5149 15.767C88.6513 15.5587 88.7195 15.3333 88.7195 15.0909C88.7195 14.8598 88.6267 14.6458 88.4411 14.4489C88.2554 14.2519 87.9922 14.1553 87.6513 14.1591C87.424 14.1591 87.227 14.2102 87.0604 14.3125C86.8937 14.411 86.763 14.5417 86.6683 14.7045C86.5774 14.8636 86.532 15.0417 86.532 15.2386C86.532 15.4811 86.6001 15.7273 86.7365 15.9773C86.8729 16.2273 87.0547 16.4924 87.282 16.7727C87.5092 17.0492 87.7573 17.3485 88.0263 17.6705L93.5433 24H91.0206L86.4183 18.875C86.1153 18.5303 85.8123 18.1705 85.5092 17.7955C85.21 17.4167 84.96 17.0152 84.7592 16.5909C84.5585 16.1629 84.4581 15.6989 84.4581 15.1989C84.4581 14.6345 84.5888 14.1269 84.8501 13.6761C85.1153 13.2254 85.4865 12.8693 85.9638 12.608C86.4411 12.3428 86.9979 12.2102 87.6342 12.2102C88.2554 12.2102 88.7914 12.3371 89.2422 12.5909C89.6967 12.8409 90.0452 13.1742 90.2876 13.5909C90.5339 14.0038 90.657 14.4583 90.657 14.9545C90.657 15.5038 90.5206 16.0019 90.2479 16.4489C89.9789 16.892 89.6001 17.2898 89.1115 17.642L86.7365 19.3523C86.4145 19.5871 86.1759 19.8277 86.0206 20.0739C85.8691 20.3163 85.7933 20.5492 85.7933 20.7727C85.7933 21.0492 85.8615 21.2973 85.9979 21.517C86.1342 21.7367 86.3274 21.911 86.5774 22.0398C86.8274 22.1648 87.121 22.2273 87.4581 22.2273C87.8672 22.2273 88.2706 22.1345 88.6683 21.9489C89.0698 21.7595 89.4335 21.4924 89.7592 21.1477C90.0888 20.7992 90.352 20.3864 90.549 19.9091C90.746 19.4318 90.8445 18.9034 90.8445 18.3239H92.8501C92.8501 19.036 92.7725 19.678 92.6172 20.25C92.4619 20.8182 92.246 21.3144 91.9695 21.7386C91.6929 22.1591 91.3767 22.5038 91.0206 22.7727C90.907 22.8447 90.7971 22.9129 90.6911 22.9773C90.585 23.0417 90.4751 23.1098 90.3615 23.1818C89.9297 23.5303 89.4467 23.7822 88.9126 23.9375C88.3823 24.0928 87.8577 24.1705 87.3388 24.1705ZM98.3004 24V12.3636H102.891C103.774 12.3636 104.526 12.5322 105.147 12.8693C105.768 13.2027 106.242 13.6667 106.567 14.2614C106.897 14.8523 107.062 15.5341 107.062 16.3068C107.062 17.0795 106.895 17.7614 106.562 18.3523C106.228 18.9432 105.746 19.4034 105.113 19.733C104.484 20.0625 103.723 20.2273 102.829 20.2273H99.9027V18.2557H102.431C102.905 18.2557 103.295 18.1742 103.602 18.0114C103.912 17.8447 104.143 17.6155 104.295 17.3239C104.45 17.0284 104.528 16.6894 104.528 16.3068C104.528 15.9205 104.45 15.5833 104.295 15.2955C104.143 15.0038 103.912 14.7784 103.602 14.6193C103.291 14.4564 102.897 14.375 102.42 14.375H100.761V24H98.3004ZM112.451 24.1705C111.553 24.1705 110.781 23.9886 110.133 23.625C109.489 23.2576 108.993 22.7386 108.644 22.0682C108.296 21.3939 108.121 20.5966 108.121 19.6761C108.121 18.7784 108.296 17.9905 108.644 17.3125C108.993 16.6345 109.483 16.1061 110.116 15.7273C110.752 15.3485 111.498 15.1591 112.354 15.1591C112.93 15.1591 113.466 15.2519 113.962 15.4375C114.462 15.6193 114.898 15.8939 115.269 16.2614C115.644 16.6288 115.936 17.0909 116.144 17.6477C116.353 18.2008 116.457 18.8485 116.457 19.5909V20.2557H109.087V18.7557H114.178C114.178 18.4072 114.103 18.0985 113.951 17.8295C113.799 17.5606 113.589 17.3504 113.32 17.1989C113.055 17.0436 112.746 16.9659 112.394 16.9659C112.027 16.9659 111.701 17.0511 111.417 17.2216C111.137 17.3883 110.917 17.6136 110.758 17.8977C110.599 18.178 110.517 18.4905 110.513 18.8352V20.2614C110.513 20.6932 110.593 21.0663 110.752 21.3807C110.915 21.6951 111.144 21.9375 111.44 22.108C111.735 22.2784 112.085 22.3636 112.491 22.3636C112.76 22.3636 113.006 22.3258 113.229 22.25C113.453 22.1742 113.644 22.0606 113.803 21.9091C113.962 21.7576 114.084 21.572 114.167 21.3523L116.406 21.5C116.292 22.0379 116.059 22.5076 115.707 22.9091C115.358 23.3068 114.907 23.6174 114.354 23.8409C113.805 24.0606 113.171 24.1705 112.451 24.1705ZM118.036 24V15.2727H120.383V16.7955H120.474C120.633 16.2538 120.9 15.8447 121.275 15.5682C121.65 15.2879 122.082 15.1477 122.57 15.1477C122.692 15.1477 122.822 15.1553 122.962 15.1705C123.103 15.1856 123.226 15.2064 123.332 15.233V17.3807C123.218 17.3466 123.061 17.3163 122.86 17.2898C122.659 17.2633 122.476 17.25 122.309 17.25C121.953 17.25 121.635 17.3277 121.354 17.483C121.078 17.6345 120.858 17.8466 120.695 18.1193C120.536 18.392 120.457 18.7064 120.457 19.0625V24H118.036ZM129.714 15.2727V17.0909H124.327V15.2727H129.714ZM125.56 24V14.642C125.56 14.0095 125.683 13.4848 125.93 13.0682C126.18 12.6515 126.521 12.339 126.952 12.1307C127.384 11.9223 127.875 11.8182 128.424 11.8182C128.795 11.8182 129.134 11.8466 129.441 11.9034C129.752 11.9602 129.983 12.0114 130.134 12.0568L129.702 13.875C129.608 13.8447 129.49 13.8163 129.35 13.7898C129.214 13.7633 129.074 13.75 128.93 13.75C128.574 13.75 128.326 13.8333 128.185 14C128.045 14.1629 127.975 14.392 127.975 14.6875V24H125.56ZM134.823 24.1705C133.941 24.1705 133.177 23.983 132.533 23.608C131.893 23.2292 131.399 22.7027 131.05 22.0284C130.702 21.3504 130.528 20.5644 130.528 19.6705C130.528 18.7689 130.702 17.9811 131.05 17.3068C131.399 16.6288 131.893 16.1023 132.533 15.7273C133.177 15.3485 133.941 15.1591 134.823 15.1591C135.706 15.1591 136.467 15.3485 137.107 15.7273C137.751 16.1023 138.247 16.6288 138.596 17.3068C138.944 17.9811 139.119 18.7689 139.119 19.6705C139.119 20.5644 138.944 21.3504 138.596 22.0284C138.247 22.7027 137.751 23.2292 137.107 23.608C136.467 23.983 135.706 24.1705 134.823 24.1705ZM134.835 22.2955C135.236 22.2955 135.571 22.1818 135.84 21.9545C136.109 21.7235 136.312 21.4091 136.448 21.0114C136.588 20.6136 136.658 20.161 136.658 19.6534C136.658 19.1458 136.588 18.6932 136.448 18.2955C136.312 17.8977 136.109 17.5833 135.84 17.3523C135.571 17.1212 135.236 17.0057 134.835 17.0057C134.429 17.0057 134.088 17.1212 133.812 17.3523C133.539 17.5833 133.333 17.8977 133.192 18.2955C133.056 18.6932 132.988 19.1458 132.988 19.6534C132.988 20.161 133.056 20.6136 133.192 21.0114C133.333 21.4091 133.539 21.7235 133.812 21.9545C134.088 22.1818 134.429 22.2955 134.835 22.2955ZM140.692 24V15.2727H143.039V16.7955H143.13C143.289 16.2538 143.556 15.8447 143.931 15.5682C144.306 15.2879 144.738 15.1477 145.227 15.1477C145.348 15.1477 145.478 15.1553 145.619 15.1705C145.759 15.1856 145.882 15.2064 145.988 15.233V17.3807C145.874 17.3466 145.717 17.3163 145.516 17.2898C145.316 17.2633 145.132 17.25 144.965 17.25C144.609 17.25 144.291 17.3277 144.011 17.483C143.734 17.6345 143.514 17.8466 143.352 18.1193C143.192 18.392 143.113 18.7064 143.113 19.0625V24H140.692ZM147.239 24V15.2727H149.546V16.8125H149.648C149.83 16.3011 150.133 15.8977 150.558 15.6023C150.982 15.3068 151.489 15.1591 152.08 15.1591C152.679 15.1591 153.188 15.3087 153.609 15.608C154.029 15.9034 154.309 16.3049 154.45 16.8125H154.54C154.719 16.3125 155.04 15.9129 155.506 15.6136C155.976 15.3106 156.531 15.1591 157.171 15.1591C157.986 15.1591 158.647 15.4186 159.154 15.9375C159.665 16.4527 159.921 17.1837 159.921 18.1307V24H157.506V18.608C157.506 18.1231 157.378 17.7595 157.12 17.517C156.862 17.2746 156.54 17.1534 156.154 17.1534C155.715 17.1534 155.372 17.2936 155.126 17.5739C154.879 17.8504 154.756 18.2159 154.756 18.6705V24H152.41V18.5568C152.41 18.1288 152.287 17.7879 152.04 17.5341C151.798 17.2803 151.478 17.1534 151.08 17.1534C150.811 17.1534 150.569 17.2216 150.353 17.358C150.141 17.4905 149.972 17.678 149.847 17.9205C149.722 18.1591 149.66 18.4394 149.66 18.7614V24H147.239ZM164.322 24.1648C163.765 24.1648 163.269 24.0682 162.833 23.875C162.397 23.678 162.053 23.3883 161.799 23.0057C161.549 22.6193 161.424 22.1383 161.424 21.5625C161.424 21.0777 161.513 20.6705 161.691 20.3409C161.869 20.0114 162.112 19.7462 162.418 19.5455C162.725 19.3447 163.074 19.1932 163.464 19.0909C163.858 18.9886 164.271 18.9167 164.702 18.875C165.21 18.822 165.619 18.7727 165.93 18.7273C166.24 18.678 166.466 18.6061 166.606 18.5114C166.746 18.4167 166.816 18.2765 166.816 18.0909V18.0568C166.816 17.697 166.702 17.4186 166.475 17.2216C166.252 17.0246 165.933 16.9261 165.521 16.9261C165.085 16.9261 164.738 17.0227 164.481 17.2159C164.223 17.4053 164.053 17.6439 163.969 17.9318L161.731 17.75C161.844 17.2197 162.068 16.7614 162.401 16.375C162.735 15.9848 163.165 15.6856 163.691 15.4773C164.221 15.2652 164.835 15.1591 165.532 15.1591C166.017 15.1591 166.481 15.2159 166.924 15.3295C167.371 15.4432 167.767 15.6193 168.112 15.858C168.46 16.0966 168.735 16.4034 168.935 16.7784C169.136 17.1496 169.237 17.5947 169.237 18.1136V24H166.941V22.7898H166.873C166.733 23.0625 166.545 23.303 166.31 23.5114C166.076 23.7159 165.793 23.8769 165.464 23.9943C165.134 24.108 164.754 24.1648 164.322 24.1648ZM165.015 22.4943C165.371 22.4943 165.685 22.4242 165.958 22.2841C166.231 22.1402 166.445 21.947 166.6 21.7045C166.755 21.4621 166.833 21.1875 166.833 20.8807V19.9545C166.757 20.0038 166.653 20.0492 166.521 20.0909C166.392 20.1288 166.246 20.1648 166.083 20.1989C165.92 20.2292 165.757 20.2576 165.594 20.2841C165.432 20.3068 165.284 20.3277 165.151 20.3466C164.867 20.3883 164.619 20.4545 164.407 20.5455C164.195 20.6364 164.03 20.7595 163.913 20.9148C163.795 21.0663 163.737 21.2557 163.737 21.483C163.737 21.8125 163.856 22.0644 164.094 22.2386C164.337 22.4091 164.644 22.4943 165.015 22.4943ZM173.535 18.9545V24H171.114V15.2727H173.421V16.8125H173.523C173.717 16.3049 174.04 15.9034 174.495 15.608C174.95 15.3087 175.501 15.1591 176.148 15.1591C176.754 15.1591 177.283 15.2917 177.734 15.5568C178.184 15.822 178.535 16.2008 178.785 16.6932C179.035 17.1818 179.16 17.7652 179.16 18.4432V24H176.739V18.875C176.743 18.3409 176.607 17.9242 176.33 17.625C176.054 17.322 175.673 17.1705 175.188 17.1705C174.862 17.1705 174.575 17.2405 174.325 17.3807C174.078 17.5208 173.885 17.7254 173.745 17.9943C173.609 18.2595 173.539 18.5795 173.535 18.9545ZM185.011 24.1705C184.117 24.1705 183.348 23.9811 182.704 23.6023C182.064 23.2197 181.571 22.6894 181.227 22.0114C180.886 21.3333 180.715 20.553 180.715 19.6705C180.715 18.7765 180.888 17.9924 181.232 17.3182C181.581 16.6402 182.075 16.1117 182.715 15.733C183.355 15.3504 184.117 15.1591 184.999 15.1591C185.761 15.1591 186.427 15.2973 186.999 15.5739C187.571 15.8504 188.024 16.2386 188.357 16.7386C188.691 17.2386 188.874 17.8258 188.908 18.5H186.624C186.56 18.0644 186.389 17.714 186.113 17.4489C185.84 17.1799 185.482 17.0455 185.039 17.0455C184.664 17.0455 184.336 17.1477 184.056 17.3523C183.78 17.553 183.564 17.8466 183.408 18.233C183.253 18.6193 183.175 19.0871 183.175 19.6364C183.175 20.1932 183.251 20.6667 183.403 21.0568C183.558 21.447 183.776 21.7443 184.056 21.9489C184.336 22.1534 184.664 22.2557 185.039 22.2557C185.316 22.2557 185.564 22.1989 185.783 22.0852C186.007 21.9716 186.191 21.8068 186.335 21.5909C186.482 21.3712 186.579 21.108 186.624 20.8011H188.908C188.871 21.4678 188.689 22.0549 188.363 22.5625C188.041 23.0663 187.596 23.4602 187.028 23.7443C186.46 24.0284 185.787 24.1705 185.011 24.1705ZM194.435 24.1705C193.538 24.1705 192.765 23.9886 192.117 23.625C191.473 23.2576 190.977 22.7386 190.629 22.0682C190.28 21.3939 190.106 20.5966 190.106 19.6761C190.106 18.7784 190.28 17.9905 190.629 17.3125C190.977 16.6345 191.468 16.1061 192.1 15.7273C192.737 15.3485 193.483 15.1591 194.339 15.1591C194.915 15.1591 195.451 15.2519 195.947 15.4375C196.447 15.6193 196.882 15.8939 197.254 16.2614C197.629 16.6288 197.92 17.0909 198.129 17.6477C198.337 18.2008 198.441 18.8485 198.441 19.5909V20.2557H191.072V18.7557H196.163C196.163 18.4072 196.087 18.0985 195.935 17.8295C195.784 17.5606 195.574 17.3504 195.305 17.1989C195.04 17.0436 194.731 16.9659 194.379 16.9659C194.011 16.9659 193.685 17.0511 193.401 17.2216C193.121 17.3883 192.901 17.6136 192.742 17.8977C192.583 18.178 192.502 18.4905 192.498 18.8352V20.2614C192.498 20.6932 192.577 21.0663 192.737 21.3807C192.899 21.6951 193.129 21.9375 193.424 22.108C193.719 22.2784 194.07 22.3636 194.475 22.3636C194.744 22.3636 194.99 22.3258 195.214 22.25C195.437 22.1742 195.629 22.0606 195.788 21.9091C195.947 21.7576 196.068 21.572 196.151 21.3523L198.39 21.5C198.276 22.0379 198.043 22.5076 197.691 22.9091C197.343 23.3068 196.892 23.6174 196.339 23.8409C195.79 24.0606 195.155 24.1705 194.435 24.1705ZM214.462 18.1818C214.462 19.4508 214.222 20.5303 213.741 21.4205C213.263 22.3106 212.612 22.9905 211.786 23.4602C210.964 23.9261 210.04 24.1591 209.013 24.1591C207.979 24.1591 207.051 23.9242 206.229 23.4545C205.407 22.9848 204.758 22.3049 204.281 21.4148C203.803 20.5246 203.565 19.447 203.565 18.1818C203.565 16.9129 203.803 15.8333 204.281 14.9432C204.758 14.053 205.407 13.375 206.229 12.9091C207.051 12.4394 207.979 12.2045 209.013 12.2045C210.04 12.2045 210.964 12.4394 211.786 12.9091C212.612 13.375 213.263 14.053 213.741 14.9432C214.222 15.8333 214.462 16.9129 214.462 18.1818ZM211.968 18.1818C211.968 17.3598 211.845 16.6667 211.599 16.1023C211.356 15.5379 211.013 15.1098 210.57 14.8182C210.127 14.5265 209.608 14.3807 209.013 14.3807C208.419 14.3807 207.9 14.5265 207.457 14.8182C207.013 15.1098 206.669 15.5379 206.423 16.1023C206.18 16.6667 206.059 17.3598 206.059 18.1818C206.059 19.0038 206.18 19.697 206.423 20.2614C206.669 20.8258 207.013 21.2538 207.457 21.5455C207.9 21.8371 208.419 21.983 209.013 21.983C209.608 21.983 210.127 21.8371 210.57 21.5455C211.013 21.2538 211.356 20.8258 211.599 20.2614C211.845 19.697 211.968 19.0038 211.968 18.1818ZM216.239 27.2727V15.2727H218.626V16.7386H218.734C218.84 16.5038 218.993 16.2652 219.194 16.0227C219.398 15.7765 219.664 15.572 219.989 15.4091C220.319 15.2424 220.728 15.1591 221.217 15.1591C221.853 15.1591 222.44 15.3258 222.978 15.6591C223.516 15.9886 223.946 16.4867 224.268 17.1534C224.59 17.8163 224.751 18.6477 224.751 19.6477C224.751 20.6212 224.594 21.4432 224.279 22.1136C223.969 22.7803 223.544 23.286 223.006 23.6307C222.472 23.9716 221.874 24.142 221.211 24.142C220.741 24.142 220.342 24.0644 220.012 23.9091C219.686 23.7538 219.419 23.5587 219.211 23.3239C219.003 23.0852 218.844 22.8447 218.734 22.6023H218.66V27.2727H216.239ZM218.609 19.6364C218.609 20.1553 218.681 20.608 218.825 20.9943C218.969 21.3807 219.177 21.6818 219.45 21.8977C219.722 22.1098 220.054 22.2159 220.444 22.2159C220.838 22.2159 221.171 22.108 221.444 21.892C221.717 21.6723 221.923 21.3693 222.063 20.983C222.207 20.5928 222.279 20.1439 222.279 19.6364C222.279 19.1326 222.209 18.6894 222.069 18.3068C221.929 17.9242 221.722 17.625 221.45 17.4091C221.177 17.1932 220.842 17.0852 220.444 17.0852C220.05 17.0852 219.717 17.1894 219.444 17.3977C219.175 17.6061 218.969 17.9015 218.825 18.2841C218.681 18.6667 218.609 19.1174 218.609 19.6364ZM231.006 15.2727V17.0909H225.751V15.2727H231.006ZM226.944 13.1818H229.364V21.3182C229.364 21.5417 229.398 21.7159 229.467 21.8409C229.535 21.9621 229.629 22.0473 229.751 22.0966C229.876 22.1458 230.02 22.1705 230.183 22.1705C230.296 22.1705 230.41 22.161 230.523 22.142C230.637 22.1193 230.724 22.1023 230.785 22.0909L231.165 23.892C231.044 23.9299 230.874 23.9735 230.654 24.0227C230.434 24.0758 230.167 24.108 229.853 24.1193C229.27 24.142 228.758 24.0644 228.319 23.8864C227.883 23.7083 227.544 23.4318 227.302 23.0568C227.059 22.6818 226.94 22.2083 226.944 21.6364V13.1818ZM232.583 24V15.2727H235.004V24H232.583ZM233.799 14.1477C233.439 14.1477 233.13 14.0284 232.873 13.7898C232.619 13.5473 232.492 13.2576 232.492 12.9205C232.492 12.5871 232.619 12.3011 232.873 12.0625C233.13 11.8201 233.439 11.6989 233.799 11.6989C234.159 11.6989 234.466 11.8201 234.719 12.0625C234.977 12.3011 235.106 12.5871 235.106 12.9205C235.106 13.2576 234.977 13.5473 234.719 13.7898C234.466 14.0284 234.159 14.1477 233.799 14.1477ZM236.942 24V15.2727H239.249V16.8125H239.352C239.533 16.3011 239.836 15.8977 240.261 15.6023C240.685 15.3068 241.192 15.1591 241.783 15.1591C242.382 15.1591 242.891 15.3087 243.312 15.608C243.732 15.9034 244.013 16.3049 244.153 16.8125H244.244C244.422 16.3125 244.744 15.9129 245.21 15.6136C245.679 15.3106 246.234 15.1591 246.874 15.1591C247.689 15.1591 248.35 15.4186 248.857 15.9375C249.369 16.4527 249.624 17.1837 249.624 18.1307V24H247.21V18.608C247.21 18.1231 247.081 17.7595 246.823 17.517C246.566 17.2746 246.244 17.1534 245.857 17.1534C245.418 17.1534 245.075 17.2936 244.829 17.5739C244.583 17.8504 244.46 18.2159 244.46 18.6705V24H242.113V18.5568C242.113 18.1288 241.99 17.7879 241.744 17.5341C241.501 17.2803 241.181 17.1534 240.783 17.1534C240.514 17.1534 240.272 17.2216 240.056 17.358C239.844 17.4905 239.675 17.678 239.55 17.9205C239.425 18.1591 239.363 18.4394 239.363 18.7614V24H236.942ZM251.536 24V15.2727H253.957V24H251.536ZM252.752 14.1477C252.392 14.1477 252.084 14.0284 251.826 13.7898C251.572 13.5473 251.445 13.2576 251.445 12.9205C251.445 12.5871 251.572 12.3011 251.826 12.0625C252.084 11.8201 252.392 11.6989 252.752 11.6989C253.112 11.6989 253.419 11.8201 253.673 12.0625C253.93 12.3011 254.059 12.5871 254.059 12.9205C254.059 13.2576 253.93 13.5473 253.673 13.7898C253.419 14.0284 253.112 14.1477 252.752 14.1477ZM255.85 24V22.5568L260.123 17.267V17.2045H255.998V15.2727H263.038V16.8466L259.026 22.0057V22.0682H263.185V24H255.85ZM267.525 24.1648C266.968 24.1648 266.472 24.0682 266.036 23.875C265.601 23.678 265.256 23.3883 265.002 23.0057C264.752 22.6193 264.627 22.1383 264.627 21.5625C264.627 21.0777 264.716 20.6705 264.894 20.3409C265.072 20.0114 265.315 19.7462 265.621 19.5455C265.928 19.3447 266.277 19.1932 266.667 19.0909C267.061 18.9886 267.474 18.9167 267.906 18.875C268.413 18.822 268.822 18.7727 269.133 18.7273C269.443 18.678 269.669 18.6061 269.809 18.5114C269.949 18.4167 270.019 18.2765 270.019 18.0909V18.0568C270.019 17.697 269.906 17.4186 269.678 17.2216C269.455 17.0246 269.137 16.9261 268.724 16.9261C268.288 16.9261 267.942 17.0227 267.684 17.2159C267.426 17.4053 267.256 17.6439 267.173 17.9318L264.934 17.75C265.048 17.2197 265.271 16.7614 265.604 16.375C265.938 15.9848 266.368 15.6856 266.894 15.4773C267.424 15.2652 268.038 15.1591 268.735 15.1591C269.22 15.1591 269.684 15.2159 270.127 15.3295C270.574 15.4432 270.97 15.6193 271.315 15.858C271.663 16.0966 271.938 16.4034 272.138 16.7784C272.339 17.1496 272.44 17.5947 272.44 18.1136V24H270.144V22.7898H270.076C269.936 23.0625 269.748 23.303 269.513 23.5114C269.279 23.7159 268.996 23.8769 268.667 23.9943C268.337 24.108 267.957 24.1648 267.525 24.1648ZM268.218 22.4943C268.574 22.4943 268.888 22.4242 269.161 22.2841C269.434 22.1402 269.648 21.947 269.803 21.7045C269.959 21.4621 270.036 21.1875 270.036 20.8807V19.9545C269.96 20.0038 269.856 20.0492 269.724 20.0909C269.595 20.1288 269.449 20.1648 269.286 20.1989C269.123 20.2292 268.96 20.2576 268.798 20.2841C268.635 20.3068 268.487 20.3277 268.354 20.3466C268.07 20.3883 267.822 20.4545 267.61 20.5455C267.398 20.6364 267.233 20.7595 267.116 20.9148C266.998 21.0663 266.94 21.2557 266.94 21.483C266.94 21.8125 267.059 22.0644 267.298 22.2386C267.54 22.4091 267.847 22.4943 268.218 22.4943ZM278.96 15.2727V17.0909H273.704V15.2727H278.96ZM274.897 13.1818H277.317V21.3182C277.317 21.5417 277.352 21.7159 277.42 21.8409C277.488 21.9621 277.583 22.0473 277.704 22.0966C277.829 22.1458 277.973 22.1705 278.136 22.1705C278.249 22.1705 278.363 22.161 278.477 22.142C278.59 22.1193 278.677 22.1023 278.738 22.0909L279.119 23.892C278.997 23.9299 278.827 23.9735 278.607 24.0227C278.388 24.0758 278.121 24.108 277.806 24.1193C277.223 24.142 276.711 24.0644 276.272 23.8864C275.836 23.7083 275.497 23.4318 275.255 23.0568C275.013 22.6818 274.893 22.2083 274.897 21.6364V13.1818ZM280.536 24V15.2727H282.957V24H280.536ZM281.752 14.1477C281.392 14.1477 281.084 14.0284 280.826 13.7898C280.572 13.5473 280.445 13.2576 280.445 12.9205C280.445 12.5871 280.572 12.3011 280.826 12.0625C281.084 11.8201 281.392 11.6989 281.752 11.6989C282.112 11.6989 282.419 11.8201 282.673 12.0625C282.93 12.3011 283.059 12.5871 283.059 12.9205C283.059 13.2576 282.93 13.5473 282.673 13.7898C282.419 14.0284 282.112 14.1477 281.752 14.1477ZM288.839 24.1705C287.956 24.1705 287.193 23.983 286.549 23.608C285.909 23.2292 285.415 22.7027 285.066 22.0284C284.718 21.3504 284.543 20.5644 284.543 19.6705C284.543 18.7689 284.718 17.9811 285.066 17.3068C285.415 16.6288 285.909 16.1023 286.549 15.7273C287.193 15.3485 287.956 15.1591 288.839 15.1591C289.721 15.1591 290.483 15.3485 291.123 15.7273C291.767 16.1023 292.263 16.6288 292.612 17.3068C292.96 17.9811 293.134 18.7689 293.134 19.6705C293.134 20.5644 292.96 21.3504 292.612 22.0284C292.263 22.7027 291.767 23.2292 291.123 23.608C290.483 23.983 289.721 24.1705 288.839 24.1705ZM288.85 22.2955C289.252 22.2955 289.587 22.1818 289.856 21.9545C290.125 21.7235 290.327 21.4091 290.464 21.0114C290.604 20.6136 290.674 20.161 290.674 19.6534C290.674 19.1458 290.604 18.6932 290.464 18.2955C290.327 17.8977 290.125 17.5833 289.856 17.3523C289.587 17.1212 289.252 17.0057 288.85 17.0057C288.445 17.0057 288.104 17.1212 287.827 17.3523C287.555 17.5833 287.348 17.8977 287.208 18.2955C287.072 18.6932 287.004 19.1458 287.004 19.6534C287.004 20.161 287.072 20.6136 287.208 21.0114C287.348 21.4091 287.555 21.7235 287.827 21.9545C288.104 22.1818 288.445 22.2955 288.85 22.2955ZM297.129 18.9545V24H294.708V15.2727H297.015V16.8125H297.117C297.31 16.3049 297.634 15.9034 298.089 15.608C298.543 15.3087 299.094 15.1591 299.742 15.1591C300.348 15.1591 300.877 15.2917 301.327 15.5568C301.778 15.822 302.129 16.2008 302.379 16.6932C302.629 17.1818 302.754 17.7652 302.754 18.4432V24H300.333V18.875C300.337 18.3409 300.201 17.9242 299.924 17.625C299.647 17.322 299.267 17.1705 298.782 17.1705C298.456 17.1705 298.168 17.2405 297.918 17.3807C297.672 17.5208 297.479 17.7254 297.339 17.9943C297.202 18.2595 297.132 18.5795 297.129 18.9545Z" fill="#2C3E50"/>
<path d="M300 135C308.284 135 315 128.284 315 120C315 111.716 308.284 105 300 105C291.716 105 285 111.716 285 120C285 128.284 291.716 135 300 135Z" fill="#F39C12"/>
<path d="M295 120L305 115V125L295 120Z" fill="white"/>
<path d="M289.697 134.545C289.654 134.186 289.481 133.906 289.178 133.707C288.875 133.509 288.504 133.409 288.063 133.409C287.741 133.409 287.46 133.461 287.218 133.565C286.979 133.67 286.792 133.813 286.657 133.995C286.524 134.177 286.458 134.384 286.458 134.616C286.458 134.811 286.504 134.978 286.597 135.117C286.691 135.254 286.812 135.369 286.959 135.462C287.106 135.552 287.26 135.626 287.421 135.685C287.582 135.742 287.729 135.788 287.864 135.824L288.603 136.023C288.792 136.072 289.003 136.141 289.235 136.229C289.47 136.316 289.693 136.436 289.906 136.587C290.122 136.737 290.299 136.928 290.439 137.163C290.579 137.397 290.649 137.685 290.649 138.026C290.649 138.419 290.546 138.774 290.34 139.091C290.136 139.408 289.838 139.66 289.445 139.847C289.054 140.034 288.579 140.128 288.021 140.128C287.5 140.128 287.049 140.044 286.668 139.876C286.289 139.708 285.991 139.473 285.773 139.173C285.557 138.872 285.435 138.523 285.407 138.125H286.316C286.34 138.4 286.432 138.627 286.593 138.807C286.756 138.984 286.962 139.117 287.211 139.205C287.462 139.29 287.732 139.332 288.021 139.332C288.357 139.332 288.659 139.278 288.926 139.169C289.194 139.058 289.406 138.904 289.562 138.707C289.718 138.509 289.796 138.277 289.796 138.011C289.796 137.77 289.729 137.573 289.594 137.422C289.459 137.27 289.281 137.147 289.061 137.053C288.841 136.958 288.603 136.875 288.347 136.804L287.453 136.548C286.884 136.385 286.435 136.152 286.103 135.849C285.772 135.546 285.606 135.149 285.606 134.659C285.606 134.252 285.716 133.897 285.936 133.594C286.159 133.288 286.457 133.052 286.831 132.884C287.207 132.713 287.628 132.628 288.092 132.628C288.56 132.628 288.977 132.712 289.342 132.88C289.706 133.046 289.995 133.273 290.208 133.562C290.424 133.851 290.537 134.179 290.549 134.545H289.697ZM291.983 142.045V134.545H292.793V135.412H292.892C292.954 135.317 293.039 135.196 293.148 135.05C293.259 134.901 293.418 134.768 293.623 134.652C293.832 134.534 294.114 134.474 294.469 134.474C294.928 134.474 295.333 134.589 295.683 134.819C296.034 135.049 296.307 135.374 296.503 135.795C296.7 136.217 296.798 136.714 296.798 137.287C296.798 137.865 296.7 138.365 296.503 138.789C296.307 139.21 296.035 139.537 295.687 139.769C295.339 139.999 294.937 140.114 294.483 140.114C294.132 140.114 293.852 140.056 293.641 139.94C293.431 139.821 293.268 139.687 293.155 139.538C293.041 139.387 292.954 139.261 292.892 139.162H292.821V142.045H291.983ZM292.807 137.273C292.807 137.685 292.867 138.048 292.988 138.363C293.109 138.675 293.285 138.92 293.517 139.098C293.749 139.273 294.033 139.361 294.369 139.361C294.72 139.361 295.012 139.268 295.246 139.084C295.483 138.897 295.661 138.646 295.779 138.331C295.9 138.014 295.96 137.661 295.96 137.273C295.96 136.889 295.901 136.544 295.783 136.236C295.667 135.926 295.49 135.681 295.253 135.501C295.019 135.318 294.724 135.227 294.369 135.227C294.028 135.227 293.742 135.314 293.51 135.487C293.278 135.657 293.103 135.896 292.984 136.204C292.866 136.509 292.807 136.866 292.807 137.273ZM300.364 140.114C299.838 140.114 299.385 139.998 299.003 139.766C298.625 139.531 298.332 139.205 298.126 138.786C297.923 138.364 297.821 137.874 297.821 137.315C297.821 136.757 297.923 136.264 298.126 135.838C298.332 135.41 298.619 135.076 298.986 134.837C299.355 134.595 299.786 134.474 300.278 134.474C300.562 134.474 300.843 134.522 301.12 134.616C301.397 134.711 301.649 134.865 301.876 135.078C302.104 135.289 302.285 135.568 302.42 135.916C302.555 136.264 302.622 136.693 302.622 137.202V137.557H298.418V136.832H301.77C301.77 136.525 301.708 136.25 301.585 136.009C301.464 135.767 301.292 135.576 301.067 135.437C300.844 135.297 300.581 135.227 300.278 135.227C299.945 135.227 299.656 135.31 299.412 135.476C299.17 135.639 298.985 135.852 298.854 136.115C298.724 136.378 298.659 136.66 298.659 136.96V137.443C298.659 137.855 298.73 138.204 298.872 138.491C299.016 138.775 299.217 138.991 299.472 139.141C299.728 139.287 300.025 139.361 300.364 139.361C300.584 139.361 300.783 139.33 300.96 139.268C301.14 139.205 301.295 139.11 301.425 138.984C301.556 138.857 301.656 138.698 301.727 138.509L302.537 138.736C302.452 139.01 302.308 139.252 302.107 139.46C301.906 139.666 301.657 139.827 301.361 139.943C301.065 140.057 300.733 140.114 300.364 140.114ZM306.184 140.114C305.658 140.114 305.205 139.998 304.824 139.766C304.445 139.531 304.153 139.205 303.947 138.786C303.743 138.364 303.641 137.874 303.641 137.315C303.641 136.757 303.743 136.264 303.947 135.838C304.153 135.41 304.439 135.076 304.806 134.837C305.175 134.595 305.606 134.474 306.099 134.474C306.383 134.474 306.663 134.522 306.94 134.616C307.217 134.711 307.469 134.865 307.697 135.078C307.924 135.289 308.105 135.568 308.24 135.916C308.375 136.264 308.442 136.693 308.442 137.202V137.557H304.238V136.832H307.59C307.59 136.525 307.529 136.25 307.405 136.009C307.285 135.767 307.112 135.576 306.887 135.437C306.664 135.297 306.402 135.227 306.099 135.227C305.765 135.227 305.476 135.31 305.232 135.476C304.991 135.639 304.805 135.852 304.675 136.115C304.544 136.378 304.479 136.66 304.479 136.96V137.443C304.479 137.855 304.55 138.204 304.692 138.491C304.837 138.775 305.037 138.991 305.293 139.141C305.548 139.287 305.845 139.361 306.184 139.361C306.404 139.361 306.603 139.33 306.78 139.268C306.96 139.205 307.115 139.11 307.246 138.984C307.376 138.857 307.476 138.698 307.547 138.509L308.357 138.736C308.272 139.01 308.129 139.252 307.927 139.46C307.726 139.666 307.478 139.827 307.182 139.943C306.886 140.057 306.553 140.114 306.184 140.114ZM311.777 140.114C311.322 140.114 310.921 139.999 310.573 139.769C310.225 139.537 309.953 139.21 309.756 138.789C309.56 138.365 309.462 137.865 309.462 137.287C309.462 136.714 309.56 136.217 309.756 135.795C309.953 135.374 310.226 135.049 310.577 134.819C310.927 134.589 311.332 134.474 311.791 134.474C312.146 134.474 312.427 134.534 312.633 134.652C312.841 134.768 313 134.901 313.109 135.05C313.22 135.196 313.306 135.317 313.368 135.412H313.439V132.727H314.277V140H313.467V139.162H313.368C313.306 139.261 313.219 139.387 313.105 139.538C312.991 139.687 312.829 139.821 312.619 139.94C312.408 140.056 312.127 140.114 311.777 140.114ZM311.891 139.361C312.227 139.361 312.511 139.273 312.743 139.098C312.975 138.92 313.151 138.675 313.272 138.363C313.393 138.048 313.453 137.685 313.453 137.273C313.453 136.866 313.394 136.509 313.275 136.204C313.157 135.896 312.982 135.657 312.75 135.487C312.518 135.314 312.231 135.227 311.891 135.227C311.535 135.227 311.239 135.318 311.003 135.501C310.768 135.681 310.592 135.926 310.474 136.236C310.358 136.544 310.3 136.889 310.3 137.273C310.3 137.661 310.359 138.014 310.477 138.331C310.598 138.646 310.775 138.897 311.01 139.084C311.247 139.268 311.54 139.361 311.891 139.361Z" fill="#2C3E50"/>
<path d="M35 47C41.6274 47 47 41.6274 47 35C47 28.3726 41.6274 23 35 23C28.3726 23 23 28.3726 23 35C23 41.6274 28.3726 47 35 47Z" stroke="#3498DB" stroke-width="2"/>
<path d="M44 44L50 50Z" fill="black"/>
<path d="M44 44L50 50" stroke="#3498DB" stroke-width="2"/>
<path d="M23.4175 54.5455C23.3749 54.1856 23.2021 53.9062 22.8991 53.7074C22.596 53.5085 22.2243 53.4091 21.784 53.4091C21.462 53.4091 21.1803 53.4612 20.9388 53.5653C20.6997 53.6695 20.5127 53.8127 20.3778 53.995C20.2452 54.1773 20.1789 54.3845 20.1789 54.6165C20.1789 54.8106 20.2251 54.9775 20.3174 55.1172C20.4121 55.2545 20.5328 55.3693 20.6796 55.4616C20.8264 55.5516 20.9803 55.6262 21.1412 55.6854C21.3022 55.7422 21.4502 55.7884 21.5851 55.8239L22.3238 56.0227C22.5132 56.0724 22.7239 56.1411 22.9559 56.2287C23.1903 56.3163 23.414 56.4358 23.627 56.5874C23.8425 56.7365 24.02 56.9283 24.1597 57.1626C24.2994 57.397 24.3692 57.6847 24.3692 58.0256C24.3692 58.4186 24.2662 58.7737 24.0603 59.0909C23.8567 59.4081 23.5584 59.6603 23.1654 59.8473C22.7748 60.0343 22.3001 60.1278 21.7414 60.1278C21.2206 60.1278 20.7696 60.0438 20.3884 59.8757C20.0096 59.7076 19.7113 59.4732 19.4935 59.1726C19.2781 58.8719 19.1562 58.5227 19.1278 58.125H20.0368C20.0605 58.3996 20.1528 58.6269 20.3138 58.8068C20.4772 58.9844 20.6831 59.117 20.9317 59.2045C21.1827 59.2898 21.4526 59.3324 21.7414 59.3324C22.0776 59.3324 22.3794 59.2779 22.6469 59.169C22.9144 59.0578 23.1263 58.9039 23.2826 58.7074C23.4388 58.5085 23.517 58.2765 23.517 58.0114C23.517 57.7699 23.4495 57.5734 23.3145 57.4219C23.1796 57.2704 23.002 57.1473 22.7819 57.0526C22.5617 56.9579 22.3238 56.875 22.0681 56.804L21.1732 56.5483C20.605 56.3849 20.1552 56.1518 19.8238 55.8487C19.4923 55.5457 19.3266 55.1491 19.3266 54.6591C19.3266 54.2519 19.4367 53.8968 19.6569 53.5938C19.8794 53.2884 20.1777 53.0516 20.5518 52.8835C20.9282 52.7131 21.3484 52.6278 21.8124 52.6278C22.2812 52.6278 22.6978 52.7119 23.0624 52.88C23.427 53.0457 23.7158 53.273 23.9289 53.5618C24.1443 53.8506 24.258 54.1785 24.2698 54.5455H23.4175ZM27.9905 60.1136C27.4649 60.1136 27.0116 59.9976 26.6304 59.7656C26.2516 59.5312 25.9593 59.2045 25.7533 58.7855C25.5497 58.3641 25.4479 57.8741 25.4479 57.3153C25.4479 56.7566 25.5497 56.2642 25.7533 55.8381C25.9593 55.4096 26.2457 55.0758 26.6127 54.8366C26.982 54.5952 27.4128 54.4744 27.9053 54.4744C28.1894 54.4744 28.4699 54.5218 28.7469 54.6165C29.0239 54.7112 29.276 54.8651 29.5033 55.0781C29.7306 55.2888 29.9117 55.5682 30.0466 55.9162C30.1816 56.2642 30.249 56.6927 30.249 57.2017V57.5568H26.0445V56.8324H29.3968C29.3968 56.5246 29.3352 56.25 29.2121 56.0085C29.0914 55.767 28.9185 55.5765 28.6936 55.4368C28.4711 55.2971 28.2083 55.2273 27.9053 55.2273C27.5715 55.2273 27.2826 55.3101 27.0388 55.4759C26.7973 55.6392 26.6115 55.8523 26.4813 56.1151C26.3511 56.3778 26.286 56.6596 26.286 56.9602V57.4432C26.286 57.8551 26.357 58.2043 26.499 58.4908C26.6434 58.7749 26.8435 58.9915 27.0992 59.1406C27.3548 59.2874 27.652 59.3608 27.9905 59.3608C28.2107 59.3608 28.4095 59.33 28.5871 59.2685C28.767 59.2045 28.9221 59.1098 29.0523 58.9844C29.1825 58.8565 29.2831 58.6979 29.3541 58.5085L30.1638 58.7358C30.0786 59.0104 29.9353 59.2519 29.7341 59.4602C29.5329 59.6662 29.2843 59.8272 28.9884 59.9432C28.6924 60.0568 28.3598 60.1136 27.9905 60.1136ZM33.129 60.1278C32.7834 60.1278 32.4697 60.0627 32.1879 59.9325C31.9062 59.8 31.6825 59.6094 31.5168 59.3608C31.3511 59.1098 31.2682 58.8068 31.2682 58.4517C31.2682 58.1392 31.3298 57.8859 31.4529 57.6918C31.576 57.4953 31.7405 57.3414 31.9465 57.2301C32.1524 57.1188 32.3797 57.036 32.6283 56.9815C32.8792 56.9247 33.1314 56.8797 33.3847 56.8466C33.7161 56.804 33.9848 56.772 34.1908 56.7507C34.3991 56.727 34.5506 56.688 34.6453 56.6335C34.7424 56.5791 34.7909 56.4844 34.7909 56.3494V56.321C34.7909 55.9706 34.695 55.6984 34.5033 55.5043C34.3139 55.3101 34.0262 55.2131 33.6404 55.2131C33.2403 55.2131 32.9266 55.3007 32.6993 55.4759C32.472 55.651 32.3122 55.8381 32.2199 56.0369L31.4244 55.7528C31.5665 55.4214 31.7559 55.1634 31.9926 54.9787C32.2317 54.7917 32.4922 54.6615 32.7739 54.5881C33.058 54.5123 33.3373 54.4744 33.6119 54.4744C33.7871 54.4744 33.9884 54.4957 34.2156 54.5384C34.4453 54.5786 34.6666 54.6626 34.8797 54.7905C35.0951 54.9183 35.2739 55.1113 35.4159 55.3693C35.558 55.6274 35.629 55.973 35.629 56.4062V60H34.7909V59.2614H34.7483C34.6915 59.3797 34.5968 59.5064 34.4642 59.6413C34.3316 59.7763 34.1553 59.8911 33.9351 59.9858C33.7149 60.0805 33.4462 60.1278 33.129 60.1278ZM33.2568 59.375C33.5883 59.375 33.8676 59.3099 34.0949 59.1797C34.3245 59.0495 34.4974 58.8814 34.6134 58.6754C34.7317 58.4695 34.7909 58.2528 34.7909 58.0256V57.2585C34.7554 57.3011 34.6773 57.3402 34.5566 57.3757C34.4382 57.4089 34.3009 57.4384 34.1446 57.4645C33.9907 57.4882 33.8404 57.5095 33.6936 57.5284C33.5492 57.545 33.432 57.5592 33.3421 57.571C33.1243 57.5994 32.9207 57.6456 32.7313 57.7095C32.5442 57.7711 32.3927 57.8646 32.2767 57.9901C32.1631 58.1132 32.1063 58.2812 32.1063 58.4943C32.1063 58.7855 32.214 59.0057 32.4294 59.1548C32.6472 59.3016 32.923 59.375 33.2568 59.375ZM37.1586 60V54.5455H37.9683V55.3693H38.0251C38.1246 55.0994 38.3045 54.8804 38.5649 54.7124C38.8253 54.5443 39.1189 54.4602 39.4456 54.4602C39.5071 54.4602 39.5841 54.4614 39.6764 54.4638C39.7687 54.4661 39.8386 54.4697 39.8859 54.4744V55.3267C39.8575 55.3196 39.7924 55.3089 39.6906 55.2947C39.5912 55.2782 39.4858 55.2699 39.3746 55.2699C39.1094 55.2699 38.8727 55.3255 38.6643 55.4368C38.4584 55.5457 38.295 55.6972 38.1743 55.8913C38.0559 56.0831 37.9967 56.3021 37.9967 56.5483V60H37.1586ZM42.9292 60.1136C42.4179 60.1136 41.9775 59.9929 41.6082 59.7514C41.2389 59.5099 40.9548 59.1773 40.7559 58.7536C40.5571 58.3298 40.4577 57.8456 40.4577 57.3011C40.4577 56.7472 40.5595 56.2583 40.7631 55.8345C40.969 55.4084 41.2555 55.0758 41.6224 54.8366C41.9917 54.5952 42.4226 54.4744 42.915 54.4744C43.2986 54.4744 43.6442 54.5455 43.952 54.6875C44.2597 54.8295 44.5119 55.0284 44.7084 55.2841C44.9049 55.5398 45.0268 55.8381 45.0741 56.179H44.2361C44.1721 55.9304 44.0301 55.7102 43.8099 55.5185C43.5921 55.3243 43.2986 55.2273 42.9292 55.2273C42.6025 55.2273 42.3161 55.3125 42.0699 55.483C41.826 55.651 41.6354 55.889 41.4981 56.1967C41.3632 56.5021 41.2957 56.8608 41.2957 57.2727C41.2957 57.6941 41.362 58.0611 41.4946 58.3736C41.6295 58.6861 41.8189 58.9287 42.0628 59.1016C42.309 59.2744 42.5978 59.3608 42.9292 59.3608C43.147 59.3608 43.3447 59.3229 43.5223 59.2472C43.6998 59.1714 43.8502 59.0625 43.9733 58.9205C44.0964 58.7784 44.184 58.608 44.2361 58.4091H45.0741C45.0268 58.7311 44.9096 59.0211 44.7226 59.2791C44.5379 59.5348 44.2929 59.7384 43.9875 59.8899C43.6845 60.0391 43.3317 60.1136 42.9292 60.1136ZM47.1373 56.7188V60H46.2993V52.7273H47.1373V55.3977H47.2084C47.3362 55.116 47.528 54.8923 47.7836 54.7266C48.0417 54.5585 48.385 54.4744 48.8135 54.4744C49.1852 54.4744 49.5107 54.549 49.79 54.6982C50.0694 54.8449 50.286 55.071 50.4399 55.3764C50.5961 55.6795 50.6743 56.0653 50.6743 56.5341V60H49.8362V56.5909C49.8362 56.1577 49.7238 55.8227 49.4988 55.5859C49.2763 55.3468 48.9674 55.2273 48.572 55.2273C48.2974 55.2273 48.0512 55.2853 47.8334 55.4013C47.6179 55.5173 47.4475 55.6866 47.322 55.9091C47.1989 56.1316 47.1373 56.4015 47.1373 56.7188Z" fill="#2C3E50"/>
</g>
<defs>
<clipPath id="clip0_25_195">
<rect width="350" height="200" fill="white"/>
</clipPath>
</defs>
</svg>
