<svg width="400" height="250" viewBox="0 0 400 250" fill="none" xmlns="http://www.w3.org/2000/svg">
<g clip-path="url(#clip0_25_2)">
<path d="M390 0H10C4.47715 0 0 4.47715 0 10V240C0 245.523 4.47715 250 10 250H390C395.523 250 400 245.523 400 240V10C400 4.47715 395.523 0 390 0Z" fill="url(#paint0_linear_25_2)"/>
<path d="M200 125C213.807 125 225 113.807 225 100C225 86.1929 213.807 75 200 75C186.193 75 175 86.1929 175 100C175 113.807 186.193 125 200 125Z" fill="#FDBCB4"/>
<path d="M207 120H193C191.343 120 190 121.343 190 123V157C190 158.657 191.343 160 193 160H207C208.657 160 210 158.657 210 157V123C210 121.343 208.657 120 207 120Z" fill="#3498DB"/>
<path d="M193 140H187C185.895 140 185 140.895 185 142V163C185 164.105 185.895 165 187 165H193C194.105 165 195 164.105 195 163V142C195 140.895 194.105 140 193 140Z" fill="#2C3E50"/>
<path d="M213 140H207C205.895 140 205 140.895 205 142V163C205 164.105 205.895 165 207 165H213C214.105 165 215 164.105 215 163V142C215 140.895 214.105 140 213 140Z" fill="#2C3E50"/>
<path d="M191 160H184C181.791 160 180 161.791 180 164C180 166.209 181.791 168 184 168H191C193.209 168 195 166.209 195 164C195 161.791 193.209 160 191 160Z" fill="#34495E"/>
<path d="M216 160H209C206.791 160 205 161.791 205 164C205 166.209 206.791 168 209 168H216C218.209 168 220 166.209 220 164C220 161.791 218.209 160 216 160Z" fill="#34495E"/>
<path d="M237 180H163C161.343 180 160 181.343 160 183V227C160 228.657 161.343 230 163 230H237C238.657 230 240 228.657 240 227V183C240 181.343 238.657 180 237 180Z" fill="#2C3E50"/>
<path d="M233 185H167C165.895 185 165 185.895 165 187V223C165 224.105 165.895 225 167 225H233C234.105 225 235 224.105 235 223V187C235 185.895 234.105 185 233 185Z" fill="#ECF0F1"/>
<path d="M199 190H171C170.448 190 170 190.448 170 191V192C170 192.552 170.448 193 171 193H199C199.552 193 200 192.552 200 192V191C200 190.448 199.552 190 199 190Z" fill="#E74C3C"/>
<path d="M214 196H171C170.448 196 170 196.448 170 197V198C170 198.552 170.448 199 171 199H214C214.552 199 215 198.552 215 198V197C215 196.448 214.552 196 214 196Z" fill="#3498DB"/>
<path d="M204 202H171C170.448 202 170 202.448 170 203V204C170 204.552 170.448 205 171 205H204C204.552 205 205 204.552 205 204V203C205 202.448 204.552 202 204 202Z" fill="#2ECC71"/>
<path d="M209 208H171C170.448 208 170 208.448 170 209V210C170 210.552 170.448 211 171 211H209C209.552 211 210 210.552 210 210V209C210 208.448 209.552 208 209 208Z" fill="#F39C12"/>
<path d="M194 214H171C170.448 214 170 214.448 170 215V216C170 216.552 170.448 217 171 217H194C194.552 217 195 216.552 195 216V215C195 214.448 194.552 214 194 214Z" fill="#9B59B6"/>
<path d="M81.4119 56.4205V55.625L87.8153 52.3636V53.6364L82.9034 56.0028L82.9432 55.9233V56.1222L82.9034 56.0426L87.8153 58.4091V59.6818L81.4119 56.4205ZM93.9018 49.3409L90.6206 61.5312H89.5467L92.8279 49.3409H93.9018ZM102.034 56.4205L95.6307 59.6818V58.4091L100.543 56.0426L100.503 56.1222V55.9233L100.543 56.0028L95.6307 53.6364V52.3636L102.034 55.625V56.4205Z" fill="white"/>
<path d="M328.08 74H327.023C326.96 73.696 326.851 73.429 326.695 73.1989C326.541 72.9688 326.354 72.7756 326.132 72.6193C325.913 72.4602 325.67 72.3409 325.403 72.2614C325.136 72.1818 324.858 72.142 324.568 72.142C324.04 72.142 323.561 72.2756 323.132 72.5426C322.706 72.8097 322.366 73.2031 322.114 73.723C321.864 74.2429 321.739 74.8807 321.739 75.6364C321.739 76.392 321.864 77.0298 322.114 77.5497C322.366 78.0696 322.706 78.4631 323.132 78.7301C323.561 78.9972 324.04 79.1307 324.568 79.1307C324.858 79.1307 325.136 79.0909 325.403 79.0114C325.67 78.9318 325.913 78.8139 326.132 78.6577C326.354 78.4986 326.541 78.304 326.695 78.0739C326.851 77.8409 326.96 77.5739 327.023 77.2727H328.08C328 77.7187 327.855 78.1179 327.645 78.4702C327.435 78.8224 327.173 79.1222 326.861 79.3693C326.548 79.6136 326.197 79.7997 325.808 79.9276C325.422 80.0554 325.009 80.1193 324.568 80.1193C323.824 80.1193 323.162 79.9375 322.582 79.5739C322.003 79.2102 321.547 78.6932 321.214 78.0227C320.882 77.3523 320.716 76.5568 320.716 75.6364C320.716 74.7159 320.882 73.9205 321.214 73.25C321.547 72.5795 322.003 72.0625 322.582 71.6989C323.162 71.3352 323.824 71.1534 324.568 71.1534C325.009 71.1534 325.422 71.2173 325.808 71.3452C326.197 71.473 326.548 71.6605 326.861 71.9077C327.173 72.152 327.435 72.4503 327.645 72.8026C327.855 73.152 328 73.5511 328.08 74ZM334.56 73.4545C334.509 73.0227 334.301 72.6875 333.938 72.4489C333.574 72.2102 333.128 72.0909 332.6 72.0909C332.213 72.0909 331.875 72.1534 331.586 72.2784C331.299 72.4034 331.074 72.5753 330.912 72.794C330.753 73.0128 330.674 73.2614 330.674 73.5398C330.674 73.7727 330.729 73.973 330.84 74.1406C330.953 74.3054 331.098 74.4432 331.275 74.554C331.451 74.6619 331.635 74.7514 331.828 74.8224C332.022 74.8906 332.199 74.946 332.361 74.9886L333.248 75.2273C333.475 75.2869 333.728 75.3693 334.006 75.4744C334.287 75.5795 334.556 75.723 334.811 75.9048C335.07 76.0838 335.283 76.3139 335.451 76.5952C335.618 76.8764 335.702 77.2216 335.702 77.6307C335.702 78.1023 335.578 78.5284 335.331 78.9091C335.087 79.2898 334.729 79.5923 334.257 79.8168C333.789 80.0412 333.219 80.1534 332.549 80.1534C331.924 80.1534 331.382 80.0526 330.925 79.8509C330.471 79.6491 330.113 79.3679 329.851 79.0071C329.593 78.6463 329.446 78.2273 329.412 77.75H330.503C330.532 78.0795 330.642 78.3523 330.836 78.5682C331.032 78.7812 331.279 78.9403 331.577 79.0455C331.878 79.1477 332.202 79.1989 332.549 79.1989C332.952 79.1989 333.314 79.1335 333.635 79.0028C333.956 78.8693 334.211 78.6847 334.398 78.4489C334.586 78.2102 334.679 77.9318 334.679 77.6136C334.679 77.3239 334.598 77.0881 334.436 76.9062C334.275 76.7244 334.061 76.5767 333.797 76.4631C333.533 76.3494 333.248 76.25 332.941 76.1648L331.867 75.858C331.185 75.6619 330.645 75.3821 330.248 75.0185C329.85 74.6548 329.651 74.179 329.651 73.5909C329.651 73.1023 329.783 72.6761 330.047 72.3125C330.314 71.946 330.672 71.6619 331.121 71.4602C331.573 71.2557 332.077 71.1534 332.634 71.1534C333.196 71.1534 333.696 71.2543 334.134 71.456C334.571 71.6548 334.918 71.9276 335.174 72.2741C335.432 72.6207 335.569 73.0142 335.583 73.4545H334.56ZM342.212 73.4545C342.161 73.0227 341.954 72.6875 341.59 72.4489C341.227 72.2102 340.781 72.0909 340.252 72.0909C339.866 72.0909 339.528 72.1534 339.238 72.2784C338.951 72.4034 338.727 72.5753 338.565 72.794C338.406 73.0128 338.326 73.2614 338.326 73.5398C338.326 73.7727 338.381 73.973 338.492 74.1406C338.606 74.3054 338.751 74.4432 338.927 74.554C339.103 74.6619 339.288 74.7514 339.481 74.8224C339.674 74.8906 339.852 74.946 340.013 74.9886L340.9 75.2273C341.127 75.2869 341.38 75.3693 341.658 75.4744C341.94 75.5795 342.208 75.723 342.464 75.9048C342.722 76.0838 342.935 76.3139 343.103 76.5952C343.271 76.8764 343.354 77.2216 343.354 77.6307C343.354 78.1023 343.231 78.5284 342.984 78.9091C342.739 79.2898 342.381 79.5923 341.91 79.8168C341.441 80.0412 340.871 80.1534 340.201 80.1534C339.576 80.1534 339.035 80.0526 338.577 79.8509C338.123 79.6491 337.765 79.3679 337.504 79.0071C337.245 78.6463 337.099 78.2273 337.065 77.75H338.156C338.184 78.0795 338.295 78.3523 338.488 78.5682C338.684 78.7812 338.931 78.9403 339.229 79.0455C339.531 79.1477 339.854 79.1989 340.201 79.1989C340.604 79.1989 340.967 79.1335 341.288 79.0028C341.609 78.8693 341.863 78.6847 342.05 78.4489C342.238 78.2102 342.332 77.9318 342.332 77.6136C342.332 77.3239 342.251 77.0881 342.089 76.9062C341.927 76.7244 341.714 76.5767 341.45 76.4631C341.185 76.3494 340.9 76.25 340.593 76.1648L339.519 75.858C338.837 75.6619 338.298 75.3821 337.9 75.0185C337.502 74.6548 337.303 74.179 337.303 73.5909C337.303 73.1023 337.435 72.6761 337.7 72.3125C337.967 71.946 338.325 71.6619 338.773 71.4602C339.225 71.2557 339.729 71.1534 340.286 71.1534C340.849 71.1534 341.349 71.2543 341.786 71.456C342.224 71.6548 342.57 71.9276 342.826 72.2741C343.085 72.6207 343.221 73.0142 343.235 73.4545H342.212Z" fill="white"/>
<path d="M51.0568 150V141.273H52.1136V145.159H56.767V141.273H57.8239V150H56.767V146.097H52.1136V150H51.0568ZM59.4624 142.21V141.273H66.0078V142.21H63.2635V150H62.2067V142.21H59.4624ZM67.6388 141.273H68.9002L71.8661 148.517H71.9684L74.9343 141.273H76.1957V150H75.207V143.369H75.1218L72.3945 150H71.44L68.7127 143.369H68.6275V150H67.6388V141.273ZM78.3146 150V141.273H79.3714V149.062H83.4283V150H78.3146Z" fill="white"/>
<path d="M334.398 171.273H335.455V177.511C335.455 178.068 335.352 178.541 335.148 178.93C334.943 179.32 334.655 179.615 334.283 179.817C333.911 180.018 333.472 180.119 332.966 180.119C332.489 180.119 332.064 180.033 331.692 179.859C331.32 179.683 331.027 179.433 330.814 179.109C330.601 178.786 330.494 178.401 330.494 177.955H331.534C331.534 178.202 331.595 178.418 331.717 178.602C331.842 178.784 332.013 178.926 332.229 179.028C332.445 179.131 332.69 179.182 332.966 179.182C333.27 179.182 333.528 179.118 333.741 178.99C333.955 178.862 334.116 178.675 334.227 178.428C334.341 178.178 334.398 177.872 334.398 177.511V171.273ZM342.345 173.455C342.294 173.023 342.087 172.688 341.723 172.449C341.359 172.21 340.913 172.091 340.385 172.091C339.999 172.091 339.661 172.153 339.371 172.278C339.084 172.403 338.859 172.575 338.697 172.794C338.538 173.013 338.459 173.261 338.459 173.54C338.459 173.773 338.514 173.973 338.625 174.141C338.739 174.305 338.884 174.443 339.06 174.554C339.236 174.662 339.42 174.751 339.614 174.822C339.807 174.891 339.984 174.946 340.146 174.989L341.033 175.227C341.26 175.287 341.513 175.369 341.791 175.474C342.072 175.58 342.341 175.723 342.597 175.905C342.855 176.084 343.068 176.314 343.236 176.595C343.403 176.876 343.487 177.222 343.487 177.631C343.487 178.102 343.364 178.528 343.116 178.909C342.872 179.29 342.514 179.592 342.043 179.817C341.574 180.041 341.004 180.153 340.334 180.153C339.709 180.153 339.168 180.053 338.71 179.851C338.256 179.649 337.898 179.368 337.636 179.007C337.378 178.646 337.232 178.227 337.197 177.75H338.288C338.317 178.08 338.428 178.352 338.621 178.568C338.817 178.781 339.064 178.94 339.362 179.045C339.663 179.148 339.987 179.199 340.334 179.199C340.737 179.199 341.099 179.134 341.42 179.003C341.741 178.869 341.996 178.685 342.183 178.449C342.371 178.21 342.464 177.932 342.464 177.614C342.464 177.324 342.384 177.088 342.222 176.906C342.06 176.724 341.847 176.577 341.582 176.463C341.318 176.349 341.033 176.25 340.726 176.165L339.652 175.858C338.97 175.662 338.43 175.382 338.033 175.018C337.635 174.655 337.436 174.179 337.436 173.591C337.436 173.102 337.568 172.676 337.832 172.312C338.099 171.946 338.457 171.662 338.906 171.46C339.358 171.256 339.862 171.153 340.419 171.153C340.982 171.153 341.482 171.254 341.919 171.456C342.357 171.655 342.703 171.928 342.959 172.274C343.217 172.621 343.354 173.014 343.368 173.455H342.345Z" fill="white"/>
<path d="M116.569 35V21.9091H121.811C122.774 21.9091 123.577 22.0518 124.221 22.3374C124.864 22.6229 125.348 23.0192 125.672 23.5263C125.996 24.0291 126.157 24.6087 126.157 25.2649C126.157 25.7763 126.055 26.2259 125.851 26.6136C125.646 26.9972 125.365 27.3125 125.007 27.5597C124.653 27.8026 124.248 27.9751 123.792 28.0774V28.2053C124.291 28.2266 124.758 28.3672 125.192 28.6271C125.631 28.8871 125.987 29.2514 126.26 29.7202C126.532 30.1847 126.669 30.7386 126.669 31.3821C126.669 32.0767 126.496 32.6967 126.151 33.2422C125.81 33.7834 125.305 34.2116 124.636 34.527C123.967 34.8423 123.143 35 122.162 35H116.569ZM119.337 32.7372H121.594C122.365 32.7372 122.927 32.5902 123.281 32.2962C123.635 31.9979 123.812 31.6016 123.812 31.1072C123.812 30.745 123.724 30.4254 123.55 30.1484C123.375 29.8714 123.126 29.6541 122.802 29.4964C122.482 29.3388 122.101 29.2599 121.657 29.2599H119.337V32.7372ZM119.337 27.3871H121.389C121.768 27.3871 122.105 27.321 122.399 27.1889C122.697 27.0526 122.932 26.8608 123.102 26.6136C123.277 26.3665 123.364 26.0703 123.364 25.7251C123.364 25.2521 123.196 24.8707 122.859 24.581C122.527 24.2912 122.054 24.1463 121.44 24.1463H119.337V27.3871ZM134.715 30.8196V25.1818H137.438V35H134.824V33.2166H134.721C134.5 33.7919 134.131 34.2543 133.615 34.6037C133.104 34.9531 132.48 35.1278 131.743 35.1278C131.086 35.1278 130.509 34.9787 130.01 34.6804C129.512 34.3821 129.122 33.9581 128.841 33.4084C128.564 32.8587 128.423 32.2003 128.419 31.4332V25.1818H131.142V30.9474C131.146 31.527 131.301 31.9851 131.608 32.3217C131.915 32.6584 132.326 32.8267 132.842 32.8267C133.17 32.8267 133.477 32.7521 133.762 32.603C134.048 32.4496 134.278 32.2237 134.453 31.9254C134.632 31.6271 134.719 31.2585 134.715 30.8196ZM139.616 35V25.1818H142.339V35H139.616ZM140.984 23.9162C140.579 23.9162 140.232 23.782 139.942 23.5135C139.656 23.2408 139.514 22.9148 139.514 22.5355C139.514 22.1605 139.656 21.8388 139.942 21.5703C140.232 21.2976 140.579 21.1612 140.984 21.1612C141.389 21.1612 141.734 21.2976 142.019 21.5703C142.309 21.8388 142.454 22.1605 142.454 22.5355C142.454 22.9148 142.309 23.2408 142.019 23.5135C141.734 23.782 141.389 23.9162 140.984 23.9162ZM147.243 21.9091V35H144.52V21.9091H147.243ZM153.042 35.1598C152.297 35.1598 151.621 34.968 151.016 34.5845C150.415 34.1967 149.938 33.6278 149.584 32.8778C149.235 32.1236 149.06 31.1989 149.06 30.1037C149.06 28.9787 149.241 28.0433 149.604 27.2976C149.966 26.5476 150.447 25.9872 151.048 25.6165C151.653 25.2415 152.316 25.054 153.036 25.054C153.586 25.054 154.044 25.1477 154.41 25.3352C154.781 25.5185 155.079 25.7486 155.305 26.0256C155.535 26.2983 155.71 26.5668 155.829 26.831H155.912V21.9091H158.629V35H155.944V33.4276H155.829C155.702 33.7003 155.52 33.9709 155.286 34.2393C155.056 34.5036 154.756 34.723 154.385 34.8977C154.018 35.0724 153.571 35.1598 153.042 35.1598ZM153.905 32.9929C154.344 32.9929 154.715 32.8736 155.018 32.6349C155.324 32.392 155.559 32.0533 155.721 31.6186C155.887 31.1839 155.97 30.6747 155.97 30.0909C155.97 29.5071 155.889 29 155.727 28.5696C155.565 28.1392 155.331 27.8068 155.024 27.5724C154.717 27.3381 154.344 27.2209 153.905 27.2209C153.458 27.2209 153.081 27.3423 152.774 27.5852C152.467 27.8281 152.235 28.1648 152.077 28.5952C151.92 29.0256 151.841 29.5241 151.841 30.0909C151.841 30.6619 151.92 31.1669 152.077 31.6058C152.239 32.0405 152.471 32.3814 152.774 32.6286C153.081 32.8714 153.458 32.9929 153.905 32.9929ZM164.318 21.9091H167.418L170.403 27.5469H170.531L173.516 21.9091H176.616L171.841 30.3722V35H169.093V30.3722L164.318 21.9091ZM180.456 35.1918C179.463 35.1918 178.605 34.9808 177.88 34.5589C177.16 34.1328 176.604 33.5405 176.212 32.782C175.82 32.0192 175.624 31.1349 175.624 30.1293C175.624 29.1151 175.82 28.2287 176.212 27.4702C176.604 26.7074 177.16 26.1151 177.88 25.6932C178.605 25.267 179.463 25.054 180.456 25.054C181.449 25.054 182.306 25.267 183.026 25.6932C183.75 26.1151 184.309 26.7074 184.701 27.4702C185.093 28.2287 185.289 29.1151 185.289 30.1293C185.289 31.1349 185.093 32.0192 184.701 32.782C184.309 33.5405 183.75 34.1328 183.026 34.5589C182.306 34.9808 181.449 35.1918 180.456 35.1918ZM180.469 33.0824C180.921 33.0824 181.298 32.9545 181.6 32.6989C181.903 32.4389 182.131 32.0852 182.284 31.6378C182.442 31.1903 182.521 30.6811 182.521 30.1101C182.521 29.5391 182.442 29.0298 182.284 28.5824C182.131 28.1349 181.903 27.7812 181.6 27.5213C181.298 27.2614 180.921 27.1314 180.469 27.1314C180.013 27.1314 179.63 27.2614 179.319 27.5213C179.012 27.7812 178.779 28.1349 178.622 28.5824C178.468 29.0298 178.392 29.5391 178.392 30.1101C178.392 30.6811 178.468 31.1903 178.622 31.6378C178.779 32.0852 179.012 32.4389 179.319 32.6989C179.63 32.9545 180.013 33.0824 180.469 33.0824ZM193.355 30.8196V25.1818H196.078V35H193.464V33.2166H193.362C193.14 33.7919 192.772 34.2543 192.256 34.6037C191.745 34.9531 191.12 35.1278 190.383 35.1278C189.727 35.1278 189.15 34.9787 188.651 34.6804C188.152 34.3821 187.762 33.9581 187.481 33.4084C187.204 32.8587 187.064 32.2003 187.059 31.4332V25.1818H189.782V30.9474C189.787 31.527 189.942 31.9851 190.249 32.3217C190.556 32.6584 190.967 32.8267 191.483 32.8267C191.811 32.8267 192.118 32.7521 192.403 32.603C192.689 32.4496 192.919 32.2237 193.093 31.9254C193.272 31.6271 193.36 31.2585 193.355 30.8196ZM198.257 35V25.1818H200.896V26.8949H200.999C201.178 26.2855 201.478 25.8253 201.9 25.5142C202.322 25.1989 202.808 25.0412 203.357 25.0412C203.494 25.0412 203.641 25.0497 203.798 25.0668C203.956 25.0838 204.095 25.1072 204.214 25.1371V27.5533C204.086 27.5149 203.909 27.4808 203.683 27.451C203.458 27.4212 203.251 27.4062 203.063 27.4062C202.663 27.4062 202.305 27.4936 201.99 27.6683C201.678 27.8388 201.431 28.0774 201.248 28.3842C201.069 28.6911 200.98 29.0447 200.98 29.4453V35H198.257ZM209.839 35V21.9091H215.004C215.997 21.9091 216.843 22.0987 217.541 22.478C218.24 22.853 218.773 23.375 219.139 24.044C219.51 24.7088 219.695 25.4759 219.695 26.3452C219.695 27.2145 219.508 27.9815 219.133 28.6463C218.758 29.3111 218.215 29.8288 217.503 30.1996C216.796 30.5703 215.939 30.7557 214.933 30.7557H211.642V28.5376H214.486C215.019 28.5376 215.458 28.446 215.803 28.2628C216.152 28.0753 216.412 27.8175 216.583 27.4893C216.757 27.157 216.845 26.7756 216.845 26.3452C216.845 25.9105 216.757 25.5312 216.583 25.2074C216.412 24.8793 216.152 24.6257 215.803 24.4467C215.453 24.2635 215.01 24.1719 214.473 24.1719H212.607V35H209.839ZM225.72 35.1918C224.727 35.1918 223.868 34.9808 223.144 34.5589C222.424 34.1328 221.868 33.5405 221.476 32.782C221.084 32.0192 220.888 31.1349 220.888 30.1293C220.888 29.1151 221.084 28.2287 221.476 27.4702C221.868 26.7074 222.424 26.1151 223.144 25.6932C223.868 25.267 224.727 25.054 225.72 25.054C226.713 25.054 227.569 25.267 228.29 25.6932C229.014 26.1151 229.572 26.7074 229.964 27.4702C230.356 28.2287 230.552 29.1151 230.552 30.1293C230.552 31.1349 230.356 32.0192 229.964 32.782C229.572 33.5405 229.014 34.1328 228.29 34.5589C227.569 34.9808 226.713 35.1918 225.72 35.1918ZM225.733 33.0824C226.184 33.0824 226.562 32.9545 226.864 32.6989C227.167 32.4389 227.395 32.0852 227.548 31.6378C227.706 31.1903 227.785 30.6811 227.785 30.1101C227.785 29.5391 227.706 29.0298 227.548 28.5824C227.395 28.1349 227.167 27.7812 226.864 27.5213C226.562 27.2614 226.184 27.1314 225.733 27.1314C225.277 27.1314 224.893 27.2614 224.582 27.5213C224.275 27.7812 224.043 28.1349 223.885 28.5824C223.732 29.0298 223.655 29.5391 223.655 30.1101C223.655 30.6811 223.732 31.1903 223.885 31.6378C224.043 32.0852 224.275 32.4389 224.582 32.6989C224.893 32.9545 225.277 33.0824 225.733 33.0824ZM232.323 35V25.1818H234.963V26.8949H235.065C235.244 26.2855 235.545 25.8253 235.966 25.5142C236.388 25.1989 236.874 25.0412 237.424 25.0412C237.56 25.0412 237.707 25.0497 237.865 25.0668C238.023 25.0838 238.161 25.1072 238.28 25.1371V27.5533C238.153 27.5149 237.976 27.4808 237.75 27.451C237.524 27.4212 237.317 27.4062 237.13 27.4062C236.729 27.4062 236.371 27.4936 236.056 27.6683C235.745 27.8388 235.498 28.0774 235.314 28.3842C235.135 28.6911 235.046 29.0447 235.046 29.4453V35H232.323ZM245.403 25.1818V27.2273H239.49V25.1818H245.403ZM240.832 22.8295H243.555V31.983C243.555 32.2344 243.594 32.4304 243.67 32.571C243.747 32.7074 243.854 32.8033 243.99 32.8587C244.131 32.9141 244.293 32.9418 244.476 32.9418C244.604 32.9418 244.732 32.9311 244.859 32.9098C244.987 32.8842 245.085 32.8651 245.153 32.8523L245.582 34.8786C245.445 34.9212 245.254 34.9702 245.006 35.0256C244.759 35.0852 244.459 35.1214 244.105 35.1342C243.449 35.1598 242.874 35.0724 242.379 34.8722C241.889 34.6719 241.508 34.3608 241.235 33.9389C240.962 33.517 240.828 32.9844 240.832 32.3409V22.8295ZM252.456 25.1818V27.2273H246.397V25.1818H252.456ZM247.784 35V24.4723C247.784 23.7607 247.922 23.1705 248.199 22.7017C248.48 22.233 248.864 21.8814 249.35 21.647C249.836 21.4126 250.387 21.2955 251.005 21.2955C251.423 21.2955 251.804 21.3274 252.15 21.3913C252.499 21.4553 252.759 21.5128 252.929 21.5639L252.444 23.6094C252.337 23.5753 252.205 23.5433 252.047 23.5135C251.894 23.4837 251.736 23.4688 251.574 23.4688C251.174 23.4688 250.895 23.5625 250.737 23.75C250.579 23.9332 250.5 24.1911 250.5 24.5234V35H247.784ZM258.204 35.1918C257.211 35.1918 256.353 34.9808 255.628 34.5589C254.908 34.1328 254.352 33.5405 253.96 32.782C253.568 32.0192 253.372 31.1349 253.372 30.1293C253.372 29.1151 253.568 28.2287 253.96 27.4702C254.352 26.7074 254.908 26.1151 255.628 25.6932C256.353 25.267 257.211 25.054 258.204 25.054C259.197 25.054 260.054 25.267 260.774 25.6932C261.498 26.1151 262.057 26.7074 262.449 27.4702C262.841 28.2287 263.037 29.1151 263.037 30.1293C263.037 31.1349 262.841 32.0192 262.449 32.782C262.057 33.5405 261.498 34.1328 260.774 34.5589C260.054 34.9808 259.197 35.1918 258.204 35.1918ZM258.217 33.0824C258.669 33.0824 259.046 32.9545 259.349 32.6989C259.651 32.4389 259.879 32.0852 260.032 31.6378C260.19 31.1903 260.269 30.6811 260.269 30.1101C260.269 29.5391 260.19 29.0298 260.032 28.5824C259.879 28.1349 259.651 27.7812 259.349 27.5213C259.046 27.2614 258.669 27.1314 258.217 27.1314C257.761 27.1314 257.378 27.2614 257.067 27.5213C256.76 27.7812 256.528 28.1349 256.37 28.5824C256.216 29.0298 256.14 29.5391 256.14 30.1101C256.14 30.6811 256.216 31.1903 256.37 31.6378C256.528 32.0852 256.76 32.4389 257.067 32.6989C257.378 32.9545 257.761 33.0824 258.217 33.0824ZM267.53 21.9091V35H264.807V21.9091H267.53ZM269.712 35V25.1818H272.435V35H269.712ZM271.08 23.9162C270.675 23.9162 270.327 23.782 270.038 23.5135C269.752 23.2408 269.609 22.9148 269.609 22.5355C269.609 22.1605 269.752 21.8388 270.038 21.5703C270.327 21.2976 270.675 21.1612 271.08 21.1612C271.484 21.1612 271.83 21.2976 272.115 21.5703C272.405 21.8388 272.55 22.1605 272.55 22.5355C272.55 22.9148 272.405 23.2408 272.115 23.5135C271.83 23.782 271.484 23.9162 271.08 23.9162ZM279.052 35.1918C278.059 35.1918 277.2 34.9808 276.476 34.5589C275.756 34.1328 275.2 33.5405 274.808 32.782C274.416 32.0192 274.22 31.1349 274.22 30.1293C274.22 29.1151 274.416 28.2287 274.808 27.4702C275.2 26.7074 275.756 26.1151 276.476 25.6932C277.2 25.267 278.059 25.054 279.052 25.054C280.045 25.054 280.901 25.267 281.622 25.6932C282.346 26.1151 282.904 26.7074 283.296 27.4702C283.688 28.2287 283.884 29.1151 283.884 30.1293C283.884 31.1349 283.688 32.0192 283.296 32.782C282.904 33.5405 282.346 34.1328 281.622 34.5589C280.901 34.9808 280.045 35.1918 279.052 35.1918ZM279.065 33.0824C279.517 33.0824 279.894 32.9545 280.196 32.6989C280.499 32.4389 280.727 32.0852 280.88 31.6378C281.038 31.1903 281.117 30.6811 281.117 30.1101C281.117 29.5391 281.038 29.0298 280.88 28.5824C280.727 28.1349 280.499 27.7812 280.196 27.5213C279.894 27.2614 279.517 27.1314 279.065 27.1314C278.609 27.1314 278.225 27.2614 277.914 27.5213C277.607 27.7812 277.375 28.1349 277.218 28.5824C277.064 29.0298 276.987 29.5391 276.987 30.1101C276.987 30.6811 277.064 31.1903 277.218 31.6378C277.375 32.0852 277.607 32.4389 277.914 32.6989C278.225 32.9545 278.609 33.0824 279.065 33.0824Z" fill="white"/>
<path d="M144.452 55L142.126 47.3636H143.359L145.009 53.2102H145.089L146.719 47.3636H147.972L149.583 53.1903H149.663L151.313 47.3636H152.546L150.219 55H149.066L147.396 49.1335H147.276L145.606 55H144.452ZM154.097 55V47.3636H155.271V55H154.097ZM154.694 46.0909C154.465 46.0909 154.268 46.013 154.102 45.8572C153.94 45.7015 153.859 45.5142 153.859 45.2955C153.859 45.0767 153.94 44.8894 154.102 44.7337C154.268 44.5779 154.465 44.5 154.694 44.5C154.923 44.5 155.118 44.5779 155.281 44.7337C155.446 44.8894 155.529 45.0767 155.529 45.2955C155.529 45.5142 155.446 45.7015 155.281 45.8572C155.118 46.013 154.923 46.0909 154.694 46.0909ZM160.741 47.3636V48.358H156.783V47.3636H160.741ZM157.937 45.5341H159.11V52.8125C159.11 53.1439 159.158 53.3925 159.254 53.5582C159.354 53.7206 159.479 53.83 159.632 53.8864C159.788 53.9394 159.952 53.9659 160.124 53.9659C160.253 53.9659 160.359 53.9593 160.442 53.946C160.525 53.9295 160.591 53.9162 160.641 53.9062L160.88 54.9602C160.8 54.9901 160.689 55.0199 160.547 55.0497C160.404 55.0829 160.224 55.0994 160.005 55.0994C159.673 55.0994 159.349 55.0282 159.03 54.8857C158.715 54.7431 158.454 54.526 158.245 54.2344C158.039 53.9427 157.937 53.5748 157.937 53.1307V45.5341ZM163.843 50.4062V55H162.67V44.8182H163.843V48.5568H163.942C164.121 48.1624 164.39 47.8492 164.748 47.6172C165.109 47.3819 165.59 47.2642 166.189 47.2642C166.71 47.2642 167.166 47.3686 167.557 47.5774C167.948 47.7829 168.251 48.0994 168.466 48.527C168.685 48.9512 168.795 49.4915 168.795 50.1477V55H167.621V50.2273C167.621 49.6207 167.464 49.1518 167.149 48.8203C166.837 48.4856 166.405 48.3182 165.851 48.3182C165.467 48.3182 165.122 48.3994 164.817 48.5618C164.516 48.7242 164.277 48.9612 164.101 49.2727C163.929 49.5843 163.843 49.9621 163.843 50.4062ZM175.038 55V44.8182H176.271V49.3523H181.7V44.8182H182.933V55H181.7V50.446H176.271V55H175.038ZM184.844 45.9119V44.8182H192.48V45.9119H189.279V55H188.046V45.9119H184.844ZM194.383 44.8182H195.855L199.315 53.2699H199.434L202.895 44.8182H204.366V55H203.213V47.2642H203.113L199.932 55H198.818L195.636 47.2642H195.537V55H194.383V44.8182ZM206.838 55V44.8182H208.071V53.9062H212.804V55H206.838ZM221.375 55.1392C220.706 55.1392 220.129 55.0166 219.645 54.7713C219.161 54.526 218.788 54.1896 218.527 53.7621C218.265 53.3345 218.134 52.8456 218.134 52.2955C218.134 51.8712 218.223 51.495 218.402 51.1669C218.585 50.8355 218.835 50.5289 219.153 50.2472C219.475 49.9621 219.844 49.6771 220.262 49.392L221.733 48.2983C222.022 48.1094 222.252 47.9072 222.424 47.6918C222.6 47.4763 222.688 47.1946 222.688 46.8466C222.688 46.5881 222.574 46.3378 222.345 46.0959C222.119 45.8539 221.823 45.733 221.455 45.733C221.196 45.733 220.968 45.7992 220.769 45.9318C220.573 46.0611 220.419 46.2268 220.306 46.429C220.197 46.6278 220.142 46.8333 220.142 47.0455C220.142 47.2841 220.207 47.526 220.336 47.7713C220.469 48.0133 220.636 48.2618 220.838 48.517C221.044 48.7689 221.256 49.0275 221.475 49.2926L226.148 55H224.736L220.878 50.3466C220.52 49.9157 220.195 49.5246 219.904 49.1733C219.612 48.822 219.38 48.4756 219.208 48.1342C219.035 47.7929 218.949 47.4233 218.949 47.0256C218.949 46.5682 219.05 46.1671 219.252 45.8224C219.458 45.4744 219.745 45.2043 220.113 45.0121C220.484 44.8165 220.918 44.7188 221.415 44.7188C221.926 44.7188 222.365 44.8182 222.733 45.017C223.1 45.2126 223.384 45.4728 223.583 45.7976C223.782 46.1191 223.881 46.4688 223.881 46.8466C223.881 47.3338 223.76 47.7564 223.518 48.1143C223.276 48.4723 222.946 48.8054 222.529 49.1136L220.5 50.625C220.043 50.9631 219.733 51.2912 219.571 51.6094C219.408 51.9276 219.327 52.1562 219.327 52.2955C219.327 52.6136 219.41 52.9103 219.576 53.1854C219.741 53.4605 219.975 53.6825 220.277 53.8516C220.578 54.0206 220.931 54.1051 221.336 54.1051C221.72 54.1051 222.095 54.0239 222.459 53.8615C222.824 53.6958 223.154 53.4571 223.449 53.1456C223.747 52.834 223.982 52.4595 224.154 52.022C224.33 51.5845 224.418 51.0923 224.418 50.5455H225.551C225.551 51.2216 225.474 51.7734 225.318 52.201C225.162 52.6286 224.986 52.9633 224.791 53.2053C224.595 53.4472 224.438 53.6278 224.319 53.7472C224.279 53.7969 224.242 53.8466 224.209 53.8963C224.176 53.946 224.14 53.9957 224.1 54.0455C223.772 54.4134 223.357 54.6884 222.857 54.8707C222.356 55.0497 221.863 55.1392 221.375 55.1392ZM239.737 48H238.504C238.431 47.6454 238.303 47.3338 238.121 47.0653C237.942 46.7969 237.723 46.5715 237.465 46.3892C237.209 46.2036 236.926 46.0644 236.615 45.9716C236.303 45.8788 235.978 45.8324 235.64 45.8324C235.024 45.8324 234.465 45.9882 233.965 46.2997C233.468 46.6113 233.071 47.0703 232.776 47.6768C232.485 48.2834 232.339 49.0275 232.339 49.9091C232.339 50.7907 232.485 51.5348 232.776 52.1413C233.071 52.7479 233.468 53.2069 233.965 53.5185C234.465 53.83 235.024 53.9858 235.64 53.9858C235.978 53.9858 236.303 53.9394 236.615 53.8466C236.926 53.7538 237.209 53.6162 237.465 53.4339C237.723 53.2483 237.942 53.0213 238.121 52.7528C238.303 52.4811 238.431 52.1695 238.504 51.8182H239.737C239.644 52.3385 239.475 52.8042 239.23 53.2152C238.984 53.6262 238.679 53.9759 238.315 54.2642C237.95 54.5492 237.541 54.7663 237.087 54.9155C236.636 55.0646 236.154 55.1392 235.64 55.1392C234.772 55.1392 233.999 54.9271 233.323 54.5028C232.647 54.0786 232.115 53.4754 231.727 52.6932C231.34 51.911 231.146 50.983 231.146 49.9091C231.146 48.8352 231.34 47.9072 231.727 47.125C232.115 46.3428 232.647 45.7396 233.323 45.3153C233.999 44.8911 234.772 44.679 235.64 44.679C236.154 44.679 236.636 44.7536 237.087 44.9027C237.541 45.0518 237.95 45.2706 238.315 45.5589C238.679 45.844 238.984 46.192 239.23 46.603C239.475 47.0107 239.644 47.4763 239.737 48ZM247.297 47.3636C247.238 46.8598 246.996 46.4688 246.571 46.1903C246.147 45.9119 245.627 45.7727 245.01 45.7727C244.56 45.7727 244.165 45.8456 243.827 45.9915C243.492 46.1373 243.23 46.3378 243.042 46.593C242.856 46.8482 242.763 47.1383 242.763 47.4631C242.763 47.7348 242.828 47.9685 242.957 48.1641C243.09 48.3563 243.259 48.517 243.464 48.6463C243.67 48.7723 243.885 48.8767 244.11 48.9595C244.336 49.0391 244.543 49.1037 244.732 49.1534L245.766 49.4318C246.031 49.5014 246.326 49.5975 246.651 49.7202C246.979 49.8428 247.292 50.0102 247.591 50.2223C247.892 50.4311 248.141 50.6996 248.336 51.0277C248.532 51.3558 248.63 51.7585 248.63 52.2358C248.63 52.786 248.485 53.2831 248.197 53.7273C247.912 54.1714 247.494 54.5244 246.944 54.7862C246.397 55.0481 245.733 55.179 244.951 55.179C244.221 55.179 243.59 55.0613 243.056 54.826C242.526 54.5907 242.109 54.2625 241.804 53.8416C241.502 53.4207 241.331 52.9318 241.292 52.375H242.564C242.597 52.7595 242.727 53.0777 242.952 53.3295C243.181 53.5781 243.469 53.7637 243.817 53.8864C244.168 54.0057 244.546 54.0653 244.951 54.0653C245.421 54.0653 245.844 53.9891 246.218 53.8366C246.593 53.6809 246.89 53.4654 247.108 53.1903C247.327 52.9119 247.436 52.5871 247.436 52.2159C247.436 51.8778 247.342 51.6027 247.153 51.3906C246.964 51.1785 246.716 51.0062 246.407 50.8736C246.099 50.741 245.766 50.625 245.408 50.5256L244.155 50.1676C243.36 49.9389 242.73 49.6125 242.266 49.1882C241.802 48.764 241.57 48.2088 241.57 47.5227C241.57 46.9527 241.724 46.4555 242.032 46.0312C242.344 45.6037 242.761 45.2723 243.285 45.0369C243.812 44.7983 244.4 44.679 245.05 44.679C245.706 44.679 246.29 44.7966 246.8 45.032C247.31 45.264 247.715 45.5821 248.013 45.9865C248.315 46.3909 248.474 46.8499 248.49 47.3636H247.297ZM256.225 47.3636C256.165 46.8598 255.923 46.4688 255.499 46.1903C255.075 45.9119 254.555 45.7727 253.938 45.7727C253.487 45.7727 253.093 45.8456 252.755 45.9915C252.42 46.1373 252.158 46.3378 251.969 46.593C251.784 46.8482 251.691 47.1383 251.691 47.4631C251.691 47.7348 251.756 47.9685 251.885 48.1641C252.017 48.3563 252.186 48.517 252.392 48.6463C252.597 48.7723 252.813 48.8767 253.038 48.9595C253.264 49.0391 253.471 49.1037 253.66 49.1534L254.694 49.4318C254.959 49.5014 255.254 49.5975 255.579 49.7202C255.907 49.8428 256.22 50.0102 256.518 50.2223C256.82 50.4311 257.068 50.6996 257.264 51.0277C257.46 51.3558 257.557 51.7585 257.557 52.2358C257.557 52.786 257.413 53.2831 257.125 53.7273C256.84 54.1714 256.422 54.5244 255.872 54.7862C255.325 55.0481 254.661 55.179 253.878 55.179C253.149 55.179 252.518 55.0613 251.984 54.826C251.454 54.5907 251.036 54.2625 250.731 53.8416C250.43 53.4207 250.259 52.9318 250.219 52.375H251.492C251.525 52.7595 251.654 53.0777 251.88 53.3295C252.108 53.5781 252.397 53.7637 252.745 53.8864C253.096 54.0057 253.474 54.0653 253.878 54.0653C254.349 54.0653 254.772 53.9891 255.146 53.8366C255.521 53.6809 255.817 53.4654 256.036 53.1903C256.255 52.9119 256.364 52.5871 256.364 52.2159C256.364 51.8778 256.27 51.6027 256.081 51.3906C255.892 51.1785 255.643 51.0062 255.335 50.8736C255.027 50.741 254.694 50.625 254.336 50.5256L253.083 50.1676C252.287 49.9389 251.658 49.6125 251.194 49.1882C250.73 48.764 250.498 48.2088 250.498 47.5227C250.498 46.9527 250.652 46.4555 250.96 46.0312C251.272 45.6037 251.689 45.2723 252.213 45.0369C252.74 44.7983 253.328 44.679 253.978 44.679C254.634 44.679 255.217 44.7966 255.728 45.032C256.238 45.264 256.643 45.5821 256.941 45.9865C257.242 46.3909 257.402 46.8499 257.418 47.3636H256.225Z" fill="white"/>
</g>
<defs>
<linearGradient id="paint0_linear_25_2" x1="0" y1="0" x2="22471.9" y2="35955.1" gradientUnits="userSpaceOnUse">
<stop stop-color="#667EEA"/>
<stop offset="1" stop-color="#764BA2"/>
</linearGradient>
<clipPath id="clip0_25_2">
<rect width="400" height="250" fill="white"/>
</clipPath>
</defs>
</svg>
