<svg width="380" height="280" viewBox="0 0 380 280" fill="none" xmlns="http://www.w3.org/2000/svg">
<path d="M380 0H0V280H380V0Z" fill="#F8F9FA"/>
<path d="M104.764 21.1406C104.675 20.8295 104.549 20.5547 104.387 20.3161C104.225 20.0732 104.027 19.8686 103.793 19.7024C103.563 19.532 103.299 19.402 103 19.3125C102.706 19.223 102.38 19.1783 102.022 19.1783C101.353 19.1783 100.765 19.3445 100.258 19.6768C99.7552 20.0092 99.3632 20.4929 99.0819 21.1278C98.8007 21.7585 98.6601 22.5298 98.6601 23.4418C98.6601 24.3537 98.7986 25.1293 99.0756 25.7685C99.3525 26.4077 99.7446 26.8956 100.252 27.2322C100.759 27.5646 101.358 27.7308 102.048 27.7308C102.674 27.7308 103.209 27.62 103.652 27.3984C104.1 27.1726 104.441 26.8551 104.675 26.446C104.914 26.0369 105.033 25.5533 105.033 24.995L105.595 25.0781H102.22V22.9943H107.698V24.6435C107.698 25.794 107.456 26.7827 106.97 27.6094C106.484 28.4318 105.815 29.0668 104.963 29.5142C104.11 29.9574 103.134 30.179 102.035 30.179C100.808 30.179 99.7297 29.9084 98.8007 29.3672C97.8717 28.8217 97.1473 28.0483 96.6274 27.0469C96.1118 26.0412 95.854 24.848 95.854 23.4673C95.854 22.4062 96.0074 21.4602 96.3142 20.6293C96.6253 19.794 97.0599 19.0866 97.6182 18.5071C98.1764 17.9276 98.8263 17.4865 99.5677 17.1839C100.309 16.8814 101.112 16.7301 101.978 16.7301C102.719 16.7301 103.409 16.8388 104.049 17.0561C104.688 17.2692 105.255 17.5717 105.749 17.9638C106.247 18.3558 106.654 18.8224 106.97 19.3636C107.285 19.9006 107.487 20.4929 107.577 21.1406H104.764ZM110.342 30V20.1818H113.065V30H110.342ZM111.709 18.9162C111.305 18.9162 110.957 18.782 110.668 18.5135C110.382 18.2408 110.239 17.9148 110.239 17.5355C110.239 17.1605 110.382 16.8388 110.668 16.5703C110.957 16.2976 111.305 16.1612 111.709 16.1612C112.114 16.1612 112.459 16.2976 112.745 16.5703C113.035 16.8388 113.18 17.1605 113.18 17.5355C113.18 17.9148 113.035 18.2408 112.745 18.5135C112.459 18.782 112.114 18.9162 111.709 18.9162ZM120.468 20.1818V22.2273H114.555V20.1818H120.468ZM115.898 17.8295H118.621V26.983C118.621 27.2344 118.659 27.4304 118.736 27.571C118.813 27.7074 118.919 27.8033 119.055 27.8587C119.196 27.9141 119.358 27.9418 119.541 27.9418C119.669 27.9418 119.797 27.9311 119.925 27.9098C120.053 27.8842 120.151 27.8651 120.219 27.8523L120.647 29.8786C120.511 29.9212 120.319 29.9702 120.072 30.0256C119.825 30.0852 119.524 30.1214 119.171 30.1342C118.514 30.1598 117.939 30.0724 117.445 29.8722C116.955 29.6719 116.573 29.3608 116.301 28.9389C116.028 28.517 115.894 27.9844 115.898 27.3409V17.8295ZM129.406 30L125.66 16.9091H128.684L130.85 26.005H130.959L133.35 16.9091H135.938L138.323 26.0241H138.438L140.605 16.9091H143.628L139.882 30H137.185L134.692 21.4411H134.59L132.103 30H129.406ZM148.44 30.1918C147.447 30.1918 146.588 29.9808 145.864 29.5589C145.144 29.1328 144.587 28.5405 144.195 27.782C143.803 27.0192 143.607 26.1349 143.607 25.1293C143.607 24.1151 143.803 23.2287 144.195 22.4702C144.587 21.7074 145.144 21.1151 145.864 20.6932C146.588 20.267 147.447 20.054 148.44 20.054C149.433 20.054 150.289 20.267 151.009 20.6932C151.734 21.1151 152.292 21.7074 152.684 22.4702C153.076 23.2287 153.272 24.1151 153.272 25.1293C153.272 26.1349 153.076 27.0192 152.684 27.782C152.292 28.5405 151.734 29.1328 151.009 29.5589C150.289 29.9808 149.433 30.1918 148.44 30.1918ZM148.453 28.0824C148.904 28.0824 149.281 27.9545 149.584 27.6989C149.886 27.4389 150.114 27.0852 150.268 26.6378C150.426 26.1903 150.504 25.6811 150.504 25.1101C150.504 24.5391 150.426 24.0298 150.268 23.5824C150.114 23.1349 149.886 22.7812 149.584 22.5213C149.281 22.2614 148.904 22.1314 148.453 22.1314C147.997 22.1314 147.613 22.2614 147.302 22.5213C146.995 22.7812 146.763 23.1349 146.605 23.5824C146.452 24.0298 146.375 24.5391 146.375 25.1101C146.375 25.6811 146.452 26.1903 146.605 26.6378C146.763 27.0852 146.995 27.4389 147.302 27.6989C147.613 27.9545 147.997 28.0824 148.453 28.0824ZM155.043 30V20.1818H157.683V21.8949H157.785C157.964 21.2855 158.264 20.8253 158.686 20.5142C159.108 20.1989 159.594 20.0412 160.144 20.0412C160.28 20.0412 160.427 20.0497 160.585 20.0668C160.742 20.0838 160.881 20.1072 161 20.1371V22.5533C160.872 22.5149 160.695 22.4808 160.47 22.451C160.244 22.4212 160.037 22.4062 159.85 22.4062C159.449 22.4062 159.091 22.4936 158.776 22.6683C158.465 22.8388 158.217 23.0774 158.034 23.3842C157.855 23.6911 157.766 24.0447 157.766 24.4453V30H155.043ZM164.875 27.1747L164.882 23.9084H165.278L168.423 20.1818H171.549L167.323 25.1165H166.678L164.875 27.1747ZM162.408 30V16.9091H165.131V30H162.408ZM168.544 30L165.655 25.7237L167.47 23.7997L171.734 30H168.544ZM178.164 20.1818V22.2273H172.105V20.1818H178.164ZM173.492 30V19.4723C173.492 18.7607 173.63 18.1705 173.907 17.7017C174.188 17.233 174.572 16.8814 175.058 16.647C175.544 16.4126 176.095 16.2955 176.713 16.2955C177.131 16.2955 177.512 16.3274 177.858 16.3913C178.207 16.4553 178.467 16.5128 178.637 16.5639L178.152 18.6094C178.045 18.5753 177.913 18.5433 177.755 18.5135C177.602 18.4837 177.444 18.4688 177.282 18.4688C176.882 18.4688 176.603 18.5625 176.445 18.75C176.287 18.9332 176.208 19.1911 176.208 19.5234V30H173.492ZM182.551 16.9091V30H179.828V16.9091H182.551ZM189.168 30.1918C188.175 30.1918 187.317 29.9808 186.592 29.5589C185.872 29.1328 185.316 28.5405 184.924 27.782C184.532 27.0192 184.336 26.1349 184.336 25.1293C184.336 24.1151 184.532 23.2287 184.924 22.4702C185.316 21.7074 185.872 21.1151 186.592 20.6932C187.317 20.267 188.175 20.054 189.168 20.054C190.161 20.054 191.018 20.267 191.738 20.6932C192.462 21.1151 193.021 21.7074 193.413 22.4702C193.805 23.2287 194.001 24.1151 194.001 25.1293C194.001 26.1349 193.805 27.0192 193.413 27.782C193.021 28.5405 192.462 29.1328 191.738 29.5589C191.018 29.9808 190.161 30.1918 189.168 30.1918ZM189.181 28.0824C189.633 28.0824 190.01 27.9545 190.312 27.6989C190.615 27.4389 190.843 27.0852 190.996 26.6378C191.154 26.1903 191.233 25.6811 191.233 25.1101C191.233 24.5391 191.154 24.0298 190.996 23.5824C190.843 23.1349 190.615 22.7812 190.312 22.5213C190.01 22.2614 189.633 22.1314 189.181 22.1314C188.725 22.1314 188.342 22.2614 188.03 22.5213C187.724 22.7812 187.491 23.1349 187.334 23.5824C187.18 24.0298 187.104 24.5391 187.104 25.1101C187.104 25.6811 187.18 26.1903 187.334 26.6378C187.491 27.0852 187.724 27.4389 188.03 27.6989C188.342 27.9545 188.725 28.0824 189.181 28.0824ZM197.462 30L194.79 20.1818H197.545L199.066 26.7784H199.156L200.741 20.1818H203.445L205.056 26.7401H205.139L206.634 20.1818H209.383L206.718 30H203.835L202.147 23.8253H202.026L200.338 30H197.462ZM215.053 30V16.9091H220.218C221.21 16.9091 222.056 17.0987 222.755 17.478C223.454 17.853 223.987 18.375 224.353 19.044C224.724 19.7088 224.909 20.4759 224.909 21.3452C224.909 22.2145 224.722 22.9815 224.347 23.6463C223.972 24.3111 223.429 24.8288 222.717 25.1996C222.009 25.5703 221.153 25.7557 220.147 25.7557H216.855V23.5376H219.7C220.233 23.5376 220.671 23.446 221.017 23.2628C221.366 23.0753 221.626 22.8175 221.796 22.4893C221.971 22.157 222.059 21.7756 222.059 21.3452C222.059 20.9105 221.971 20.5312 221.796 20.2074C221.626 19.8793 221.366 19.6257 221.017 19.4467C220.667 19.2635 220.224 19.1719 219.687 19.1719H217.821V30H215.053ZM226.656 30V20.1818H229.296V21.8949H229.398C229.577 21.2855 229.878 20.8253 230.299 20.5142C230.721 20.1989 231.207 20.0412 231.757 20.0412C231.893 20.0412 232.04 20.0497 232.198 20.0668C232.356 20.0838 232.494 20.1072 232.613 20.1371V22.5533C232.486 22.5149 232.309 22.4808 232.083 22.451C231.857 22.4212 231.65 22.4062 231.463 22.4062C231.062 22.4062 230.704 22.4936 230.389 22.6683C230.078 22.8388 229.831 23.0774 229.647 23.3842C229.468 23.6911 229.379 24.0447 229.379 24.4453V30H226.656ZM238 30.1918C237.007 30.1918 236.149 29.9808 235.424 29.5589C234.704 29.1328 234.148 28.5405 233.756 27.782C233.364 27.0192 233.168 26.1349 233.168 25.1293C233.168 24.1151 233.364 23.2287 233.756 22.4702C234.148 21.7074 234.704 21.1151 235.424 20.6932C236.149 20.267 237.007 20.054 238 20.054C238.993 20.054 239.85 20.267 240.57 20.6932C241.294 21.1151 241.853 21.7074 242.245 22.4702C242.637 23.2287 242.833 24.1151 242.833 25.1293C242.833 26.1349 242.637 27.0192 242.245 27.782C241.853 28.5405 241.294 29.1328 240.57 29.5589C239.85 29.9808 238.993 30.1918 238 30.1918ZM238.013 28.0824C238.465 28.0824 238.842 27.9545 239.144 27.6989C239.447 27.4389 239.675 27.0852 239.828 26.6378C239.986 26.1903 240.065 25.6811 240.065 25.1101C240.065 24.5391 239.986 24.0298 239.828 23.5824C239.675 23.1349 239.447 22.7812 239.144 22.5213C238.842 22.2614 238.465 22.1314 238.013 22.1314C237.557 22.1314 237.174 22.2614 236.862 22.5213C236.556 22.7812 236.323 23.1349 236.166 23.5824C236.012 24.0298 235.936 24.5391 235.936 25.1101C235.936 25.6811 236.012 26.1903 236.166 26.6378C236.323 27.0852 236.556 27.4389 236.862 27.6989C237.174 27.9545 237.557 28.0824 238.013 28.0824ZM249.039 30.1918C248.034 30.1918 247.169 29.9787 246.444 29.5526C245.724 29.1222 245.17 28.5256 244.782 27.7628C244.399 27 244.207 26.1222 244.207 25.1293C244.207 24.1236 244.401 23.2415 244.789 22.483C245.181 21.7202 245.737 21.1257 246.457 20.6996C247.177 20.2692 248.034 20.054 249.027 20.054C249.883 20.054 250.633 20.2095 251.277 20.5206C251.92 20.8317 252.429 21.2685 252.804 21.831C253.179 22.3935 253.386 23.054 253.424 23.8125H250.855C250.782 23.3224 250.59 22.9283 250.279 22.63C249.973 22.3274 249.57 22.1761 249.071 22.1761C248.649 22.1761 248.281 22.2912 247.965 22.5213C247.654 22.7472 247.411 23.0774 247.237 23.5121C247.062 23.9467 246.975 24.473 246.975 25.0909C246.975 25.7173 247.06 26.25 247.23 26.6889C247.405 27.1278 247.65 27.4624 247.965 27.6925C248.281 27.9226 248.649 28.0376 249.071 28.0376C249.382 28.0376 249.661 27.9737 249.909 27.8459C250.16 27.718 250.367 27.5327 250.529 27.2898C250.695 27.0426 250.804 26.7464 250.855 26.4013H253.424C253.382 27.1513 253.177 27.8118 252.811 28.3828C252.448 28.9496 251.948 29.3928 251.309 29.7124C250.669 30.032 249.913 30.1918 249.039 30.1918ZM259.642 30.1918C258.632 30.1918 257.763 29.9872 257.034 29.5781C256.31 29.1648 255.752 28.581 255.359 27.8267C254.967 27.0682 254.771 26.1712 254.771 25.1357C254.771 24.1257 254.967 23.2393 255.359 22.4766C255.752 21.7138 256.303 21.1193 257.015 20.6932C257.731 20.267 258.57 20.054 259.533 20.054C260.181 20.054 260.784 20.1584 261.342 20.3672C261.905 20.5717 262.395 20.8807 262.813 21.294C263.234 21.7074 263.563 22.2273 263.797 22.8537C264.031 23.4759 264.149 24.2045 264.149 25.0398V25.7876H255.858V24.1001H261.585C261.585 23.7081 261.5 23.3608 261.33 23.0582C261.159 22.7557 260.923 22.5192 260.62 22.3487C260.322 22.174 259.975 22.0866 259.578 22.0866C259.165 22.0866 258.798 22.1825 258.479 22.3743C258.163 22.5618 257.916 22.8153 257.737 23.1349C257.558 23.4503 257.467 23.8018 257.462 24.1896V25.794C257.462 26.2798 257.552 26.6996 257.731 27.0533C257.914 27.407 258.172 27.6797 258.504 27.8714C258.837 28.0632 259.231 28.1591 259.687 28.1591C259.989 28.1591 260.266 28.1165 260.518 28.0312C260.769 27.946 260.984 27.8182 261.163 27.6477C261.342 27.4773 261.479 27.2685 261.573 27.0213L264.091 27.1875C263.963 27.7926 263.701 28.321 263.305 28.7727C262.913 29.2202 262.406 29.5696 261.783 29.821C261.166 30.0682 260.452 30.1918 259.642 30.1918ZM274.095 22.9815L271.602 23.1349C271.559 22.9219 271.467 22.7301 271.327 22.5597C271.186 22.3849 271.001 22.2464 270.771 22.1442C270.545 22.0376 270.274 21.9844 269.959 21.9844C269.537 21.9844 269.181 22.0739 268.891 22.2528C268.602 22.4276 268.457 22.6619 268.457 22.956C268.457 23.1903 268.551 23.3885 268.738 23.5504C268.926 23.7124 269.247 23.8423 269.703 23.9403L271.48 24.2983C272.435 24.4943 273.146 24.8097 273.615 25.2443C274.084 25.679 274.318 26.25 274.318 26.9574C274.318 27.6009 274.129 28.1655 273.749 28.6513C273.374 29.1371 272.859 29.5163 272.203 29.7891C271.551 30.0575 270.798 30.1918 269.946 30.1918C268.646 30.1918 267.611 29.9212 266.84 29.38C266.073 28.8345 265.623 28.093 265.491 27.1555L268.169 27.0149C268.25 27.4112 268.446 27.7138 268.757 27.9226C269.068 28.1271 269.467 28.2294 269.953 28.2294C270.43 28.2294 270.813 28.1378 271.103 27.9545C271.397 27.767 271.546 27.5263 271.551 27.2322C271.546 26.9851 271.442 26.7827 271.237 26.625C271.033 26.4631 270.717 26.3395 270.291 26.2543L268.591 25.9155C267.632 25.7237 266.918 25.3913 266.45 24.9183C265.985 24.4453 265.753 23.8423 265.753 23.1094C265.753 22.4787 265.923 21.9354 266.264 21.4794C266.609 21.0234 267.093 20.6719 267.715 20.4247C268.342 20.1776 269.075 20.054 269.914 20.054C271.154 20.054 272.13 20.3161 272.842 20.8402C273.558 21.3643 273.975 22.0781 274.095 22.9815ZM284.202 22.9815L281.709 23.1349C281.666 22.9219 281.575 22.7301 281.434 22.5597C281.294 22.3849 281.108 22.2464 280.878 22.1442C280.652 22.0376 280.382 21.9844 280.066 21.9844C279.644 21.9844 279.289 22.0739 278.999 22.2528C278.709 22.4276 278.564 22.6619 278.564 22.956C278.564 23.1903 278.658 23.3885 278.845 23.5504C279.033 23.7124 279.355 23.8423 279.811 23.9403L281.588 24.2983C282.542 24.4943 283.254 24.8097 283.723 25.2443C284.191 25.679 284.426 26.25 284.426 26.9574C284.426 27.6009 284.236 28.1655 283.857 28.6513C283.482 29.1371 282.966 29.5163 282.31 29.7891C281.658 30.0575 280.906 30.1918 280.054 30.1918C278.754 30.1918 277.718 29.9212 276.947 29.38C276.18 28.8345 275.73 28.093 275.598 27.1555L278.277 27.0149C278.358 27.4112 278.554 27.7138 278.865 27.9226C279.176 28.1271 279.574 28.2294 280.06 28.2294C280.537 28.2294 280.921 28.1378 281.21 27.9545C281.505 27.767 281.654 27.5263 281.658 27.2322C281.654 26.9851 281.549 26.7827 281.345 26.625C281.14 26.4631 280.825 26.3395 280.399 26.2543L278.698 25.9155C277.74 25.7237 277.026 25.3913 276.557 24.9183C276.093 24.4453 275.86 23.8423 275.86 23.1094C275.86 22.4787 276.031 21.9354 276.372 21.4794C276.717 21.0234 277.201 20.6719 277.823 20.4247C278.449 20.1776 279.182 20.054 280.022 20.054C281.262 20.054 282.237 20.3161 282.949 20.8402C283.665 21.3643 284.083 22.0781 284.202 22.9815Z" fill="#333333"/>
<path d="M70 175C89.33 175 105 159.33 105 140C105 120.67 89.33 105 70 105C50.67 105 35 120.67 35 140C35 159.33 50.67 175 70 175Z" fill="white" stroke="url(#paint0_linear_28_90)" stroke-width="3"/>
<path d="M58 129.68H82V105.68H58V129.68Z" fill="#333333"/>
<path d="M61.2147 149.328H59.3482C59.3141 149.087 59.2445 148.872 59.1394 148.685C59.0343 148.494 58.8993 148.332 58.7346 148.199C58.5698 148.065 58.3794 147.963 58.1635 147.892C57.9505 147.821 57.7189 147.786 57.4689 147.786C57.0172 147.786 56.6238 147.898 56.2885 148.122C55.9533 148.344 55.6934 148.668 55.5087 149.094C55.324 149.517 55.2317 150.031 55.2317 150.636C55.2317 151.259 55.324 151.781 55.5087 152.205C55.6962 152.628 55.9576 152.947 56.2928 153.163C56.628 153.379 57.0158 153.487 57.4561 153.487C57.7033 153.487 57.932 153.455 58.1422 153.389C58.3553 153.324 58.5442 153.229 58.709 153.104C58.8738 152.976 59.0101 152.821 59.1181 152.639C59.2289 152.457 59.3056 152.25 59.3482 152.017L61.2147 152.026C61.1664 152.426 61.0456 152.812 60.8525 153.185C60.6621 153.554 60.405 153.885 60.0811 154.178C59.7601 154.467 59.3766 154.697 58.9306 154.868C58.4874 155.036 57.986 155.119 57.4263 155.119C56.6479 155.119 55.9519 154.943 55.3382 154.591C54.7275 154.239 54.2445 153.729 53.8894 153.061C53.5371 152.393 53.361 151.585 53.361 150.636C53.361 149.685 53.54 148.875 53.8979 148.207C54.2559 147.54 54.7417 147.031 55.3553 146.682C55.9689 146.33 56.6593 146.153 57.4263 146.153C57.932 146.153 58.4007 146.224 58.8326 146.366C59.2672 146.509 59.6522 146.716 59.9874 146.989C60.3226 147.259 60.5953 147.589 60.8056 147.982C61.0186 148.374 61.155 148.822 61.2147 149.328ZM70.5577 150.636C70.5577 151.588 70.3773 152.398 70.0165 153.065C69.6586 153.733 69.1699 154.243 68.5506 154.595C67.9341 154.945 67.2409 155.119 66.4711 155.119C65.6955 155.119 64.9995 154.943 64.383 154.591C63.7665 154.239 63.2793 153.729 62.9213 153.061C62.5634 152.393 62.3844 151.585 62.3844 150.636C62.3844 149.685 62.5634 148.875 62.9213 148.207C63.2793 147.54 63.7665 147.031 64.383 146.682C64.9995 146.33 65.6955 146.153 66.4711 146.153C67.2409 146.153 67.9341 146.33 68.5506 146.682C69.1699 147.031 69.6586 147.54 70.0165 148.207C70.3773 148.875 70.5577 149.685 70.5577 150.636ZM68.687 150.636C68.687 150.02 68.5946 149.5 68.41 149.077C68.2282 148.653 67.9711 148.332 67.6387 148.114C67.3063 147.895 66.9171 147.786 66.4711 147.786C66.025 147.786 65.6358 147.895 65.3034 148.114C64.9711 148.332 64.7125 148.653 64.5279 149.077C64.3461 149.5 64.2551 150.02 64.2551 150.636C64.2551 151.253 64.3461 151.773 64.5279 152.196C64.7125 152.619 64.9711 152.94 65.3034 153.159C65.6358 153.378 66.025 153.487 66.4711 153.487C66.9171 153.487 67.3063 153.378 67.6387 153.159C67.9711 152.94 68.2282 152.619 68.41 152.196C68.5946 151.773 68.687 151.253 68.687 150.636ZM75.0183 155H71.9245V146.273H75.0439C75.9217 146.273 76.6774 146.447 77.3109 146.797C77.9444 147.143 78.4316 147.642 78.7726 148.293C79.1163 148.943 79.2882 149.722 79.2882 150.628C79.2882 151.537 79.1163 152.318 78.7726 152.972C78.4316 153.625 77.9416 154.126 77.3024 154.476C76.666 154.825 75.9047 155 75.0183 155ZM73.7697 153.419H74.9416C75.487 153.419 75.9458 153.322 76.318 153.129C76.693 152.933 76.9743 152.631 77.1618 152.222C77.3521 151.81 77.4473 151.278 77.4473 150.628C77.4473 149.983 77.3521 149.456 77.1618 149.047C76.9743 148.638 76.6944 148.337 76.3223 148.143C75.9501 147.95 75.4913 147.854 74.9458 147.854H73.7697V153.419ZM80.655 155V146.273H86.5357V147.794H82.5002V149.874H86.2331V151.395H82.5002V153.479H86.5527V155H80.655Z" fill="#333333"/>
<path d="M105 140H135" stroke="#667EEA" stroke-width="3"/>
<path d="M150 175C169.33 175 185 159.33 185 140C185 120.67 169.33 105 150 105C130.67 105 115 120.67 115 140C115 159.33 130.67 175 150 175Z" fill="white" stroke="url(#paint1_linear_28_90)" stroke-width="3"/>
<path d="M138 129.68H162V105.68H138V129.68Z" fill="#333333"/>
<path d="M139.044 155H137.067L140.08 146.273H142.457L145.466 155H143.489L141.303 148.267H141.234L139.044 155ZM138.92 151.57H143.591V153.01H138.92V151.57ZM149.61 155H146.516V146.273H149.636C150.513 146.273 151.269 146.447 151.903 146.797C152.536 147.143 153.023 147.642 153.364 148.293C153.708 148.943 153.88 149.722 153.88 150.628C153.88 151.537 153.708 152.318 153.364 152.972C153.023 153.625 152.533 154.126 151.894 154.476C151.258 154.825 150.496 155 149.61 155ZM148.362 153.419H149.533C150.079 153.419 150.538 153.322 150.91 153.129C151.285 152.933 151.566 152.631 151.754 152.222C151.944 151.81 152.039 151.278 152.039 150.628C152.039 149.983 151.944 149.456 151.754 149.047C151.566 148.638 151.286 148.337 150.914 148.143C150.542 147.95 150.083 147.854 149.538 147.854H148.362V153.419ZM158.341 155H155.247V146.273H158.366C159.244 146.273 160 146.447 160.633 146.797C161.267 147.143 161.754 147.642 162.095 148.293C162.439 148.943 162.61 149.722 162.61 150.628C162.61 151.537 162.439 152.318 162.095 152.972C161.754 153.625 161.264 154.126 160.625 154.476C159.988 154.825 159.227 155 158.341 155ZM157.092 153.419H158.264C158.809 153.419 159.268 153.322 159.64 153.129C160.015 152.933 160.297 152.631 160.484 152.222C160.674 151.81 160.77 151.278 160.77 150.628C160.77 149.983 160.674 149.456 160.484 149.047C160.297 148.638 160.017 148.337 159.645 148.143C159.272 147.95 158.814 147.854 158.268 147.854H157.092V153.419Z" fill="#333333"/>
<path d="M185 140H215" stroke="#667EEA" stroke-width="3"/>
<path d="M230 175C249.33 175 265 159.33 265 140C265 120.67 249.33 105 230 105C210.67 105 195 120.67 195 140C195 159.33 210.67 175 230 175Z" fill="white" stroke="url(#paint2_linear_28_90)" stroke-width="3"/>
<path d="M218 129.68H242V105.68H218V129.68Z" fill="#333333"/>
<path d="M212.584 149.328H210.717C210.683 149.087 210.614 148.872 210.509 148.685C210.403 148.494 210.268 148.332 210.104 148.199C209.939 148.065 209.749 147.963 209.533 147.892C209.32 147.821 209.088 147.786 208.838 147.786C208.386 147.786 207.993 147.898 207.658 148.122C207.322 148.344 207.063 148.668 206.878 149.094C206.693 149.517 206.601 150.031 206.601 150.636C206.601 151.259 206.693 151.781 206.878 152.205C207.065 152.628 207.327 152.947 207.662 153.163C207.997 153.379 208.385 153.487 208.825 153.487C209.072 153.487 209.301 153.455 209.511 153.389C209.724 153.324 209.913 153.229 210.078 153.104C210.243 152.976 210.379 152.821 210.487 152.639C210.598 152.457 210.675 152.25 210.717 152.017L212.584 152.026C212.536 152.426 212.415 152.812 212.222 153.185C212.031 153.554 211.774 153.885 211.45 154.178C211.129 154.467 210.746 154.697 210.3 154.868C209.857 155.036 209.355 155.119 208.795 155.119C208.017 155.119 207.321 154.943 206.707 154.591C206.097 154.239 205.614 153.729 205.259 153.061C204.906 152.393 204.73 151.585 204.73 150.636C204.73 149.685 204.909 148.875 205.267 148.207C205.625 147.54 206.111 147.031 206.724 146.682C207.338 146.33 208.028 146.153 208.795 146.153C209.301 146.153 209.77 146.224 210.202 146.366C210.636 146.509 211.021 146.716 211.357 146.989C211.692 147.259 211.964 147.589 212.175 147.982C212.388 148.374 212.524 148.822 212.584 149.328ZM221.927 150.636C221.927 151.588 221.746 152.398 221.386 153.065C221.028 153.733 220.539 154.243 219.92 154.595C219.303 154.945 218.61 155.119 217.84 155.119C217.065 155.119 216.369 154.943 215.752 154.591C215.136 154.239 214.648 153.729 214.29 153.061C213.933 152.393 213.754 151.585 213.754 150.636C213.754 149.685 213.933 148.875 214.29 148.207C214.648 147.54 215.136 147.031 215.752 146.682C216.369 146.33 217.065 146.153 217.84 146.153C218.61 146.153 219.303 146.33 219.92 146.682C220.539 147.031 221.028 147.54 221.386 148.207C221.746 148.875 221.927 149.685 221.927 150.636ZM220.056 150.636C220.056 150.02 219.964 149.5 219.779 149.077C219.597 148.653 219.34 148.332 219.008 148.114C218.675 147.895 218.286 147.786 217.84 147.786C217.394 147.786 217.005 147.895 216.673 148.114C216.34 148.332 216.082 148.653 215.897 149.077C215.715 149.5 215.624 150.02 215.624 150.636C215.624 151.253 215.715 151.773 215.897 152.196C216.082 152.619 216.34 152.94 216.673 153.159C217.005 153.378 217.394 153.487 217.84 153.487C218.286 153.487 218.675 153.378 219.008 153.159C219.34 152.94 219.597 152.619 219.779 152.196C219.964 151.773 220.056 151.253 220.056 150.636ZM223.294 146.273H225.569L227.973 152.136H228.075L230.478 146.273H232.754V155H230.964V149.32H230.892L228.633 154.957H227.414L225.156 149.298H225.083V155H223.294V146.273ZM234.274 146.273H236.55L238.953 152.136H239.055L241.459 146.273H243.734V155H241.945V149.32H241.872L239.614 154.957H238.395L236.136 149.298H236.064V155H234.274V146.273ZM247.1 146.273V155H245.255V146.273H247.1ZM248.286 147.794V146.273H255.453V147.794H252.781V155H250.957V147.794H248.286Z" fill="#333333"/>
<path d="M265 140H295" stroke="#667EEA" stroke-width="3"/>
<path d="M310 175C329.33 175 345 159.33 345 140C345 120.67 329.33 105 310 105C290.67 105 275 120.67 275 140C275 159.33 290.67 175 310 175Z" fill="white" stroke="url(#paint3_linear_28_90)" stroke-width="3"/>
<path d="M298 129.68H322V105.68H298V129.68Z" fill="#333333"/>
<path d="M294.089 155V146.273H297.532C298.194 146.273 298.758 146.399 299.224 146.652C299.689 146.902 300.045 147.25 300.289 147.696C300.536 148.139 300.66 148.651 300.66 149.23C300.66 149.81 300.535 150.321 300.285 150.764C300.035 151.207 299.672 151.553 299.198 151.8C298.726 152.047 298.155 152.17 297.485 152.17H295.29V150.692H297.187C297.542 150.692 297.834 150.631 298.064 150.509C298.297 150.384 298.471 150.212 298.584 149.993C298.701 149.771 298.759 149.517 298.759 149.23C298.759 148.94 298.701 148.687 298.584 148.472C298.471 148.253 298.297 148.084 298.064 147.964C297.831 147.842 297.536 147.781 297.178 147.781H295.934V155H294.089ZM307.249 146.273H309.094V151.94C309.094 152.577 308.942 153.134 308.638 153.611C308.337 154.088 307.915 154.46 307.372 154.727C306.83 154.991 306.198 155.124 305.476 155.124C304.752 155.124 304.118 154.991 303.575 154.727C303.033 154.46 302.611 154.088 302.31 153.611C302.009 153.134 301.858 152.577 301.858 151.94V146.273H303.703V151.783C303.703 152.115 303.776 152.411 303.921 152.669C304.068 152.928 304.276 153.131 304.543 153.278C304.81 153.426 305.121 153.5 305.476 153.5C305.834 153.5 306.145 153.426 306.409 153.278C306.676 153.131 306.882 152.928 307.027 152.669C307.175 152.411 307.249 152.115 307.249 151.783V146.273ZM315.346 148.783C315.312 148.439 315.166 148.172 314.907 147.982C314.649 147.791 314.298 147.696 313.855 147.696C313.554 147.696 313.3 147.739 313.092 147.824C312.885 147.906 312.726 148.021 312.615 148.169C312.507 148.317 312.453 148.484 312.453 148.672C312.447 148.828 312.48 148.964 312.551 149.081C312.625 149.197 312.726 149.298 312.854 149.384C312.981 149.466 313.129 149.538 313.297 149.601C313.464 149.661 313.643 149.712 313.834 149.754L314.618 149.942C314.998 150.027 315.348 150.141 315.666 150.283C315.984 150.425 316.26 150.599 316.493 150.807C316.726 151.014 316.906 151.259 317.034 151.54C317.165 151.821 317.231 152.143 317.234 152.507C317.231 153.041 317.095 153.504 316.825 153.896C316.558 154.286 316.172 154.588 315.666 154.804C315.163 155.017 314.557 155.124 313.846 155.124C313.142 155.124 312.528 155.016 312.006 154.8C311.486 154.584 311.079 154.264 310.787 153.841C310.497 153.415 310.345 152.888 310.331 152.26H312.116C312.136 152.553 312.22 152.797 312.368 152.993C312.518 153.186 312.719 153.332 312.969 153.432C313.221 153.528 313.507 153.577 313.825 153.577C314.138 153.577 314.409 153.531 314.639 153.44C314.872 153.349 315.052 153.223 315.18 153.061C315.308 152.899 315.372 152.713 315.372 152.503C315.372 152.307 315.314 152.142 315.197 152.009C315.084 151.875 314.916 151.761 314.694 151.668C314.476 151.574 314.207 151.489 313.889 151.412L312.939 151.173C312.203 150.994 311.622 150.714 311.196 150.334C310.77 149.953 310.558 149.44 310.561 148.795C310.558 148.267 310.699 147.805 310.983 147.411C311.27 147.016 311.663 146.707 312.163 146.486C312.663 146.264 313.231 146.153 313.868 146.153C314.515 146.153 315.081 146.264 315.564 146.486C316.05 146.707 316.427 147.016 316.697 147.411C316.967 147.805 317.106 148.263 317.115 148.783H315.346ZM318.475 155V146.273H320.32V149.874H324.066V146.273H325.907V155H324.066V151.395H320.32V155H318.475Z" fill="#333333"/>
<path d="M46.6841 190L44.6955 182.727H45.5904L47.1103 188.651H47.1813L48.7296 182.727H49.7239L51.2722 188.651H51.3432L52.8631 182.727H53.758L51.7694 190H50.8603L49.2551 184.205H49.1983L47.5932 190H46.6841ZM54.3999 190V184.545H55.2095V185.369H55.2663C55.3658 185.099 55.5457 184.88 55.8061 184.712C56.0665 184.544 56.3601 184.46 56.6868 184.46C56.7483 184.46 56.8253 184.461 56.9176 184.464C57.0099 184.466 57.0798 184.47 57.1271 184.474V185.327C57.0987 185.32 57.0336 185.309 56.9318 185.295C56.8324 185.278 56.727 185.27 56.6158 185.27C56.3506 185.27 56.1139 185.326 55.9055 185.437C55.6996 185.546 55.5362 185.697 55.4155 185.891C55.2971 186.083 55.2379 186.302 55.2379 186.548V190H54.3999ZM58.1206 190V184.545H58.9586V190H58.1206ZM58.5467 183.636C58.3833 183.636 58.2425 183.581 58.1241 183.469C58.0081 183.358 57.9501 183.224 57.9501 183.068C57.9501 182.912 58.0081 182.778 58.1241 182.667C58.2425 182.556 58.3833 182.5 58.5467 182.5C58.71 182.5 58.8497 182.556 58.9657 182.667C59.0841 182.778 59.1433 182.912 59.1433 183.068C59.1433 183.224 59.0841 183.358 58.9657 183.469C58.8497 183.581 58.71 183.636 58.5467 183.636ZM62.8658 184.545V185.256H60.0391V184.545H62.8658ZM60.8629 183.239H61.701V188.438C61.701 188.674 61.7353 188.852 61.804 188.97C61.875 189.086 61.965 189.164 62.0739 189.205C62.1851 189.242 62.3023 189.261 62.4254 189.261C62.5178 189.261 62.5935 189.257 62.6527 189.247C62.7119 189.235 62.7592 189.226 62.7947 189.219L62.9652 189.972C62.9084 189.993 62.8291 190.014 62.7273 190.036C62.6255 190.059 62.4964 190.071 62.3402 190.071C62.1035 190.071 61.8714 190.02 61.6442 189.918C61.4193 189.817 61.2322 189.661 61.0831 189.453C60.9363 189.245 60.8629 188.982 60.8629 188.665V183.239ZM66.3548 190.114C65.8292 190.114 65.3758 189.998 64.9947 189.766C64.6159 189.531 64.3235 189.205 64.1175 188.786C63.9139 188.364 63.8121 187.874 63.8121 187.315C63.8121 186.757 63.9139 186.264 64.1175 185.838C64.3235 185.41 64.61 185.076 64.9769 184.837C65.3462 184.595 65.7771 184.474 66.2695 184.474C66.5536 184.474 66.8342 184.522 67.1112 184.616C67.3881 184.711 67.6403 184.865 67.8675 185.078C68.0948 185.289 68.2759 185.568 68.4109 185.916C68.5458 186.264 68.6133 186.693 68.6133 187.202V187.557H64.4087V186.832H67.761C67.761 186.525 67.6995 186.25 67.5763 186.009C67.4556 185.767 67.2828 185.576 67.0579 185.437C66.8353 185.297 66.5726 185.227 66.2695 185.227C65.9357 185.227 65.6469 185.31 65.4031 185.476C65.1616 185.639 64.9757 185.852 64.8455 186.115C64.7153 186.378 64.6502 186.66 64.6502 186.96V187.443C64.6502 187.855 64.7212 188.204 64.8633 188.491C65.0077 188.775 65.2077 188.991 65.4634 189.141C65.7191 189.287 66.0162 189.361 66.3548 189.361C66.5749 189.361 66.7738 189.33 66.9513 189.268C67.1313 189.205 67.2863 189.11 67.4165 188.984C67.5468 188.857 67.6474 188.698 67.7184 188.509L68.5281 188.736C68.4428 189.01 68.2996 189.252 68.0984 189.46C67.8971 189.666 67.6486 189.827 67.3526 189.943C67.0567 190.057 66.7241 190.114 66.3548 190.114ZM74.9165 190.114C74.4052 190.114 73.9648 189.993 73.5955 189.751C73.2262 189.51 72.9421 189.177 72.7433 188.754C72.5444 188.33 72.445 187.846 72.445 187.301C72.445 186.747 72.5468 186.258 72.7504 185.835C72.9563 185.408 73.2428 185.076 73.6097 184.837C73.979 184.595 74.4099 184.474 74.9023 184.474C75.2859 184.474 75.6315 184.545 75.9393 184.688C76.247 184.83 76.4992 185.028 76.6957 185.284C76.8922 185.54 77.0141 185.838 77.0614 186.179H76.2234C76.1594 185.93 76.0174 185.71 75.7972 185.518C75.5794 185.324 75.2859 185.227 74.9165 185.227C74.5898 185.227 74.3034 185.312 74.0572 185.483C73.8133 185.651 73.6228 185.889 73.4854 186.197C73.3505 186.502 73.283 186.861 73.283 187.273C73.283 187.694 73.3493 188.061 73.4819 188.374C73.6168 188.686 73.8062 188.929 74.0501 189.102C74.2963 189.274 74.5851 189.361 74.9165 189.361C75.1344 189.361 75.332 189.323 75.5096 189.247C75.6871 189.171 75.8375 189.062 75.9606 188.92C76.0837 188.778 76.1713 188.608 76.2234 188.409H77.0614C77.0141 188.731 76.8969 189.021 76.7099 189.279C76.5252 189.535 76.2802 189.738 75.9748 189.89C75.6718 190.039 75.319 190.114 74.9165 190.114ZM80.5025 190.114C80.0101 190.114 79.578 189.996 79.2063 189.762C78.837 189.528 78.5482 189.2 78.3398 188.778C78.1339 188.357 78.0309 187.865 78.0309 187.301C78.0309 186.733 78.1339 186.237 78.3398 185.813C78.5482 185.389 78.837 185.06 79.2063 184.826C79.578 184.592 80.0101 184.474 80.5025 184.474C80.9949 184.474 81.4258 184.592 81.7951 184.826C82.1668 185.06 82.4556 185.389 82.6616 185.813C82.8699 186.237 82.9741 186.733 82.9741 187.301C82.9741 187.865 82.8699 188.357 82.6616 188.778C82.4556 189.2 82.1668 189.528 81.7951 189.762C81.4258 189.996 80.9949 190.114 80.5025 190.114ZM80.5025 189.361C80.8765 189.361 81.1843 189.265 81.4258 189.073C81.6673 188.881 81.846 188.629 81.962 188.317C82.078 188.004 82.136 187.666 82.136 187.301C82.136 186.937 82.078 186.597 81.962 186.282C81.846 185.967 81.6673 185.713 81.4258 185.518C81.1843 185.324 80.8765 185.227 80.5025 185.227C80.1284 185.227 79.8207 185.324 79.5792 185.518C79.3377 185.713 79.159 185.967 79.043 186.282C78.927 186.597 78.869 186.937 78.869 187.301C78.869 187.666 78.927 188.004 79.043 188.317C79.159 188.629 79.3377 188.881 79.5792 189.073C79.8207 189.265 80.1284 189.361 80.5025 189.361ZM86.313 190.114C85.8585 190.114 85.4572 189.999 85.1092 189.769C84.7612 189.537 84.4889 189.21 84.2924 188.789C84.0959 188.365 83.9977 187.865 83.9977 187.287C83.9977 186.714 84.0959 186.217 84.2924 185.795C84.4889 185.374 84.7624 185.049 85.1127 184.819C85.4631 184.589 85.868 184.474 86.3272 184.474C86.6824 184.474 86.9629 184.534 87.1689 184.652C87.3772 184.768 87.5358 184.901 87.6447 185.05C87.756 185.196 87.8424 185.317 87.9039 185.412H87.975V182.727H88.813V190H88.0034V189.162H87.9039C87.8424 189.261 87.7548 189.387 87.6412 189.538C87.5275 189.687 87.3654 189.821 87.1547 189.94C86.944 190.056 86.6634 190.114 86.313 190.114ZM86.4267 189.361C86.7628 189.361 87.0469 189.273 87.2789 189.098C87.5109 188.92 87.6873 188.675 87.8081 188.363C87.9288 188.048 87.9892 187.685 87.9892 187.273C87.9892 186.866 87.93 186.509 87.8116 186.204C87.6932 185.896 87.5181 185.657 87.286 185.487C87.054 185.314 86.7676 185.227 86.4267 185.227C86.0716 185.227 85.7756 185.318 85.5389 185.501C85.3045 185.681 85.1281 185.926 85.0098 186.236C84.8938 186.544 84.8358 186.889 84.8358 187.273C84.8358 187.661 84.8949 188.014 85.0133 188.331C85.1341 188.646 85.3116 188.897 85.546 189.084C85.7827 189.268 86.0763 189.361 86.4267 189.361ZM92.7512 190.114C92.2257 190.114 91.7723 189.998 91.3912 189.766C91.0124 189.531 90.72 189.205 90.514 188.786C90.3104 188.364 90.2086 187.874 90.2086 187.315C90.2086 186.757 90.3104 186.264 90.514 185.838C90.72 185.41 91.0065 185.076 91.3734 184.837C91.7427 184.595 92.1736 184.474 92.666 184.474C92.9501 184.474 93.2306 184.522 93.5076 184.616C93.7846 184.711 94.0368 184.865 94.264 185.078C94.4913 185.289 94.6724 185.568 94.8074 185.916C94.9423 186.264 95.0098 186.693 95.0098 187.202V187.557H90.8052V186.832H94.1575C94.1575 186.525 94.0959 186.25 93.9728 186.009C93.8521 185.767 93.6793 185.576 93.4544 185.437C93.2318 185.297 92.969 185.227 92.666 185.227C92.3322 185.227 92.0434 185.31 91.7995 185.476C91.5581 185.639 91.3722 185.852 91.242 186.115C91.1118 186.378 91.0467 186.66 91.0467 186.96V187.443C91.0467 187.855 91.1177 188.204 91.2598 188.491C91.4042 188.775 91.6042 188.991 91.8599 189.141C92.1156 189.287 92.4127 189.361 92.7512 189.361C92.9714 189.361 93.1703 189.33 93.3478 189.268C93.5278 189.205 93.6828 189.11 93.813 188.984C93.9432 188.857 94.0439 188.698 94.1149 188.509L94.9245 188.736C94.8393 189.01 94.6961 189.252 94.4949 189.46C94.2936 189.666 94.045 189.827 93.7491 189.943C93.4532 190.057 93.1206 190.114 92.7512 190.114Z" fill="#666666"/>
<path d="M133.701 192.159C133.296 192.159 132.948 192.107 132.657 192.003C132.366 191.901 132.123 191.766 131.929 191.598C131.737 191.432 131.585 191.255 131.471 191.065L132.139 190.597C132.214 190.696 132.31 190.81 132.426 190.938C132.542 191.068 132.701 191.18 132.902 191.275C133.106 191.372 133.372 191.42 133.701 191.42C134.142 191.42 134.505 191.314 134.791 191.101C135.078 190.888 135.221 190.554 135.221 190.099V188.991H135.15C135.088 189.091 135.001 189.214 134.887 189.361C134.776 189.505 134.615 189.634 134.404 189.748C134.196 189.859 133.914 189.915 133.559 189.915C133.119 189.915 132.723 189.811 132.373 189.602C132.025 189.394 131.749 189.091 131.546 188.693C131.344 188.295 131.244 187.812 131.244 187.244C131.244 186.686 131.342 186.199 131.539 185.785C131.735 185.368 132.008 185.046 132.359 184.819C132.709 184.589 133.114 184.474 133.573 184.474C133.928 184.474 134.21 184.534 134.419 184.652C134.629 184.768 134.79 184.901 134.901 185.05C135.015 185.196 135.103 185.317 135.164 185.412H135.249V184.545H136.059V190.156C136.059 190.625 135.953 191.006 135.74 191.3C135.529 191.596 135.245 191.812 134.887 191.95C134.532 192.089 134.137 192.159 133.701 192.159ZM133.673 189.162C134.009 189.162 134.293 189.085 134.525 188.931C134.757 188.777 134.933 188.556 135.054 188.267C135.175 187.978 135.235 187.633 135.235 187.23C135.235 186.837 135.176 186.49 135.058 186.19C134.939 185.889 134.764 185.653 134.532 185.483C134.3 185.312 134.014 185.227 133.673 185.227C133.318 185.227 133.022 185.317 132.785 185.497C132.551 185.677 132.374 185.919 132.256 186.222C132.14 186.525 132.082 186.861 132.082 187.23C132.082 187.609 132.141 187.944 132.259 188.235C132.38 188.524 132.558 188.751 132.792 188.917C133.029 189.08 133.322 189.162 133.673 189.162ZM137.593 190V184.545H138.431V190H137.593ZM138.019 183.636C137.856 183.636 137.715 183.581 137.597 183.469C137.481 183.358 137.423 183.224 137.423 183.068C137.423 182.912 137.481 182.778 137.597 182.667C137.715 182.556 137.856 182.5 138.019 182.5C138.183 182.5 138.322 182.556 138.438 182.667C138.557 182.778 138.616 182.912 138.616 183.068C138.616 183.224 138.557 183.358 138.438 183.469C138.322 183.581 138.183 183.636 138.019 183.636ZM142.338 184.545V185.256H139.512V184.545H142.338ZM140.336 183.239H141.174V188.438C141.174 188.674 141.208 188.852 141.277 188.97C141.348 189.086 141.438 189.164 141.547 189.205C141.658 189.242 141.775 189.261 141.898 189.261C141.99 189.261 142.066 189.257 142.125 189.247C142.185 189.235 142.232 189.226 142.267 189.219L142.438 189.972C142.381 189.993 142.302 190.014 142.2 190.036C142.098 190.059 141.969 190.071 141.813 190.071C141.576 190.071 141.344 190.02 141.117 189.918C140.892 189.817 140.705 189.661 140.556 189.453C140.409 189.245 140.336 188.982 140.336 188.665V183.239ZM148.017 190.128C147.671 190.128 147.357 190.063 147.076 189.933C146.794 189.8 146.57 189.609 146.404 189.361C146.239 189.11 146.156 188.807 146.156 188.452C146.156 188.139 146.217 187.886 146.341 187.692C146.464 187.495 146.628 187.341 146.834 187.23C147.04 187.119 147.267 187.036 147.516 186.982C147.767 186.925 148.019 186.88 148.272 186.847C148.604 186.804 148.873 186.772 149.078 186.751C149.287 186.727 149.438 186.688 149.533 186.634C149.63 186.579 149.679 186.484 149.679 186.349V186.321C149.679 185.971 149.583 185.698 149.391 185.504C149.202 185.31 148.914 185.213 148.528 185.213C148.128 185.213 147.814 185.301 147.587 185.476C147.36 185.651 147.2 185.838 147.108 186.037L146.312 185.753C146.454 185.421 146.644 185.163 146.88 184.979C147.119 184.792 147.38 184.661 147.662 184.588C147.946 184.512 148.225 184.474 148.5 184.474C148.675 184.474 148.876 184.496 149.103 184.538C149.333 184.579 149.554 184.663 149.767 184.79C149.983 184.918 150.162 185.111 150.304 185.369C150.446 185.627 150.517 185.973 150.517 186.406V190H149.679V189.261H149.636C149.579 189.38 149.484 189.506 149.352 189.641C149.219 189.776 149.043 189.891 148.823 189.986C148.603 190.08 148.334 190.128 148.017 190.128ZM148.145 189.375C148.476 189.375 148.755 189.31 148.983 189.18C149.212 189.049 149.385 188.881 149.501 188.675C149.619 188.469 149.679 188.253 149.679 188.026V187.259C149.643 187.301 149.565 187.34 149.444 187.376C149.326 187.409 149.189 187.438 149.032 187.464C148.878 187.488 148.728 187.509 148.581 187.528C148.437 187.545 148.32 187.559 148.23 187.571C148.012 187.599 147.808 187.646 147.619 187.71C147.432 187.771 147.28 187.865 147.164 187.99C147.051 188.113 146.994 188.281 146.994 188.494C146.994 188.786 147.102 189.006 147.317 189.155C147.535 189.302 147.811 189.375 148.145 189.375ZM154.106 190.114C153.651 190.114 153.25 189.999 152.902 189.769C152.554 189.537 152.282 189.21 152.085 188.789C151.889 188.365 151.791 187.865 151.791 187.287C151.791 186.714 151.889 186.217 152.085 185.795C152.282 185.374 152.555 185.049 152.906 184.819C153.256 184.589 153.661 184.474 154.12 184.474C154.475 184.474 154.756 184.534 154.962 184.652C155.17 184.768 155.329 184.901 155.438 185.05C155.549 185.196 155.635 185.317 155.697 185.412H155.768V182.727H156.606V190H155.796V189.162H155.697C155.635 189.261 155.548 189.387 155.434 189.538C155.32 189.687 155.158 189.821 154.948 189.94C154.737 190.056 154.456 190.114 154.106 190.114ZM154.22 189.361C154.556 189.361 154.84 189.273 155.072 189.098C155.304 188.92 155.48 188.675 155.601 188.363C155.722 188.048 155.782 187.685 155.782 187.273C155.782 186.866 155.723 186.509 155.605 186.204C155.486 185.896 155.311 185.657 155.079 185.487C154.847 185.314 154.561 185.227 154.22 185.227C153.865 185.227 153.569 185.318 153.332 185.501C153.097 185.681 152.921 185.926 152.803 186.236C152.687 186.544 152.629 186.889 152.629 187.273C152.629 187.661 152.688 188.014 152.806 188.331C152.927 188.646 153.105 188.897 153.339 189.084C153.576 189.268 153.869 189.361 154.22 189.361ZM160.317 190.114C159.862 190.114 159.461 189.999 159.113 189.769C158.765 189.537 158.493 189.21 158.296 188.789C158.1 188.365 158.002 187.865 158.002 187.287C158.002 186.714 158.1 186.217 158.296 185.795C158.493 185.374 158.766 185.049 159.117 184.819C159.467 184.589 159.872 184.474 160.331 184.474C160.686 184.474 160.967 184.534 161.173 184.652C161.381 184.768 161.54 184.901 161.649 185.05C161.76 185.196 161.846 185.317 161.908 185.412H161.979V182.727H162.817V190H162.007V189.162H161.908C161.846 189.261 161.759 189.387 161.645 189.538C161.531 189.687 161.369 189.821 161.159 189.94C160.948 190.056 160.667 190.114 160.317 190.114ZM160.431 189.361C160.767 189.361 161.051 189.273 161.283 189.098C161.515 188.92 161.691 188.675 161.812 188.363C161.933 188.048 161.993 187.685 161.993 187.273C161.993 186.866 161.934 186.509 161.816 186.204C161.697 185.896 161.522 185.657 161.29 185.487C161.058 185.314 160.771 185.227 160.431 185.227C160.075 185.227 159.78 185.318 159.543 185.501C159.308 185.681 159.132 185.926 159.014 186.236C158.898 186.544 158.84 186.889 158.84 187.273C158.84 187.661 158.899 188.014 159.017 188.331C159.138 188.646 159.316 188.897 159.55 189.084C159.787 189.268 160.08 189.361 160.431 189.361ZM167.892 190.057C167.716 190.057 167.566 189.994 167.441 189.869C167.315 189.743 167.252 189.593 167.252 189.418C167.252 189.242 167.315 189.092 167.441 188.967C167.566 188.841 167.716 188.778 167.892 188.778C168.067 188.778 168.217 188.841 168.343 188.967C168.468 189.092 168.531 189.242 168.531 189.418C168.531 189.534 168.501 189.64 168.442 189.737C168.385 189.834 168.308 189.912 168.211 189.972C168.116 190.028 168.01 190.057 167.892 190.057Z" fill="#666666"/>
<path d="M208.042 192.159C207.637 192.159 207.289 192.107 206.998 192.003C206.707 191.901 206.464 191.766 206.27 191.598C206.078 191.432 205.926 191.255 205.812 191.065L206.479 190.597C206.555 190.696 206.651 190.81 206.767 190.938C206.883 191.068 207.042 191.18 207.243 191.275C207.447 191.372 207.713 191.42 208.042 191.42C208.482 191.42 208.846 191.314 209.132 191.101C209.419 190.888 209.562 190.554 209.562 190.099V188.991H209.491C209.429 189.091 209.342 189.214 209.228 189.361C209.117 189.505 208.956 189.634 208.745 189.748C208.537 189.859 208.255 189.915 207.9 189.915C207.46 189.915 207.064 189.811 206.714 189.602C206.366 189.394 206.09 189.091 205.886 188.693C205.685 188.295 205.585 187.812 205.585 187.244C205.585 186.686 205.683 186.199 205.879 185.785C206.076 185.368 206.349 185.046 206.7 184.819C207.05 184.589 207.455 184.474 207.914 184.474C208.269 184.474 208.551 184.534 208.759 184.652C208.97 184.768 209.131 184.901 209.242 185.05C209.356 185.196 209.444 185.317 209.505 185.412H209.59V184.545H210.4V190.156C210.4 190.625 210.293 191.006 210.08 191.3C209.87 191.596 209.586 191.812 209.228 191.95C208.873 192.089 208.478 192.159 208.042 192.159ZM208.014 189.162C208.35 189.162 208.634 189.085 208.866 188.931C209.098 188.777 209.274 188.556 209.395 188.267C209.516 187.978 209.576 187.633 209.576 187.23C209.576 186.837 209.517 186.49 209.399 186.19C209.28 185.889 209.105 185.653 208.873 185.483C208.641 185.312 208.354 185.227 208.014 185.227C207.658 185.227 207.363 185.317 207.126 185.497C206.891 185.677 206.715 185.919 206.597 186.222C206.481 186.525 206.423 186.861 206.423 187.23C206.423 187.609 206.482 187.944 206.6 188.235C206.721 188.524 206.899 188.751 207.133 188.917C207.37 189.08 207.663 189.162 208.014 189.162ZM211.934 190V184.545H212.772V190H211.934ZM212.36 183.636C212.197 183.636 212.056 183.581 211.938 183.469C211.822 183.358 211.764 183.224 211.764 183.068C211.764 182.912 211.822 182.778 211.938 182.667C212.056 182.556 212.197 182.5 212.36 182.5C212.524 182.5 212.663 182.556 212.779 182.667C212.898 182.778 212.957 182.912 212.957 183.068C212.957 183.224 212.898 183.358 212.779 183.469C212.663 183.581 212.524 183.636 212.36 183.636ZM216.679 184.545V185.256H213.853V184.545H216.679ZM214.676 183.239H215.514V188.438C215.514 188.674 215.549 188.852 215.617 188.97C215.688 189.086 215.778 189.164 215.887 189.205C215.999 189.242 216.116 189.261 216.239 189.261C216.331 189.261 216.407 189.257 216.466 189.247C216.525 189.235 216.573 189.226 216.608 189.219L216.779 189.972C216.722 189.993 216.643 190.014 216.541 190.036C216.439 190.059 216.31 190.071 216.154 190.071C215.917 190.071 215.685 190.02 215.458 189.918C215.233 189.817 215.046 189.661 214.897 189.453C214.75 189.245 214.676 188.982 214.676 188.665V183.239ZM222.968 190.114C222.457 190.114 222.017 189.993 221.647 189.751C221.278 189.51 220.994 189.177 220.795 188.754C220.596 188.33 220.497 187.846 220.497 187.301C220.497 186.747 220.599 186.258 220.802 185.835C221.008 185.408 221.295 185.076 221.661 184.837C222.031 184.595 222.462 184.474 222.954 184.474C223.338 184.474 223.683 184.545 223.991 184.688C224.299 184.83 224.551 185.028 224.747 185.284C224.944 185.54 225.066 185.838 225.113 186.179H224.275C224.211 185.93 224.069 185.71 223.849 185.518C223.631 185.324 223.338 185.227 222.968 185.227C222.642 185.227 222.355 185.312 222.109 185.483C221.865 185.651 221.675 185.889 221.537 186.197C221.402 186.502 221.335 186.861 221.335 187.273C221.335 187.694 221.401 188.061 221.534 188.374C221.669 188.686 221.858 188.929 222.102 189.102C222.348 189.274 222.637 189.361 222.968 189.361C223.186 189.361 223.384 189.323 223.561 189.247C223.739 189.171 223.889 189.062 224.012 188.92C224.135 188.778 224.223 188.608 224.275 188.409H225.113C225.066 188.731 224.949 189.021 224.762 189.279C224.577 189.535 224.332 189.738 224.027 189.89C223.724 190.039 223.371 190.114 222.968 190.114ZM228.554 190.114C228.062 190.114 227.63 189.996 227.258 189.762C226.889 189.528 226.6 189.2 226.392 188.778C226.186 188.357 226.083 187.865 226.083 187.301C226.083 186.733 226.186 186.237 226.392 185.813C226.6 185.389 226.889 185.06 227.258 184.826C227.63 184.592 228.062 184.474 228.554 184.474C229.047 184.474 229.478 184.592 229.847 184.826C230.219 185.06 230.507 185.389 230.713 185.813C230.922 186.237 231.026 186.733 231.026 187.301C231.026 187.865 230.922 188.357 230.713 188.778C230.507 189.2 230.219 189.528 229.847 189.762C229.478 189.996 229.047 190.114 228.554 190.114ZM228.554 189.361C228.928 189.361 229.236 189.265 229.478 189.073C229.719 188.881 229.898 188.629 230.014 188.317C230.13 188.004 230.188 187.666 230.188 187.301C230.188 186.937 230.13 186.597 230.014 186.282C229.898 185.967 229.719 185.713 229.478 185.518C229.236 185.324 228.928 185.227 228.554 185.227C228.18 185.227 227.872 185.324 227.631 185.518C227.389 185.713 227.211 185.967 227.095 186.282C226.979 186.597 226.921 186.937 226.921 187.301C226.921 187.666 226.979 188.004 227.095 188.317C227.211 188.629 227.389 188.881 227.631 189.073C227.872 189.265 228.18 189.361 228.554 189.361ZM232.305 190V184.545H233.115V185.398H233.186C233.299 185.107 233.483 184.88 233.736 184.719C233.99 184.556 234.294 184.474 234.649 184.474C235.009 184.474 235.308 184.556 235.547 184.719C235.789 184.88 235.977 185.107 236.112 185.398H236.169C236.308 185.116 236.518 184.892 236.797 184.727C237.077 184.558 237.412 184.474 237.802 184.474C238.29 184.474 238.689 184.627 238.999 184.933C239.309 185.236 239.464 185.708 239.464 186.349V190H238.626V186.349C238.626 185.947 238.516 185.659 238.296 185.487C238.076 185.314 237.816 185.227 237.518 185.227C237.135 185.227 236.838 185.343 236.627 185.575C236.416 185.805 236.311 186.096 236.311 186.449V190H235.459V186.264C235.459 185.954 235.358 185.704 235.157 185.515C234.955 185.323 234.696 185.227 234.379 185.227C234.161 185.227 233.958 185.285 233.768 185.401C233.581 185.517 233.43 185.678 233.314 185.884C233.2 186.088 233.143 186.323 233.143 186.591V190H232.305ZM240.997 190V184.545H241.806V185.398H241.877C241.991 185.107 242.174 184.88 242.428 184.719C242.681 184.556 242.985 184.474 243.34 184.474C243.7 184.474 244 184.556 244.239 184.719C244.48 184.88 244.668 185.107 244.803 185.398H244.86C245 185.116 245.209 184.892 245.489 184.727C245.768 184.558 246.103 184.474 246.494 184.474C246.981 184.474 247.38 184.627 247.69 184.933C248.001 185.236 248.156 185.708 248.156 186.349V190H247.318V186.349C247.318 185.947 247.207 185.659 246.987 185.487C246.767 185.314 246.508 185.227 246.21 185.227C245.826 185.227 245.529 185.343 245.318 185.575C245.108 185.805 245.002 186.096 245.002 186.449V190H244.15V186.264C244.15 185.954 244.049 185.704 243.848 185.515C243.647 185.323 243.388 185.227 243.07 185.227C242.853 185.227 242.649 185.285 242.46 185.401C242.273 185.517 242.121 185.678 242.005 185.884C241.891 186.088 241.835 186.323 241.835 186.591V190H240.997ZM249.688 190V184.545H250.526V190H249.688ZM250.114 183.636C249.951 183.636 249.81 183.581 249.691 183.469C249.575 183.358 249.517 183.224 249.517 183.068C249.517 182.912 249.575 182.778 249.691 182.667C249.81 182.556 249.951 182.5 250.114 182.5C250.277 182.5 250.417 182.556 250.533 182.667C250.651 182.778 250.711 182.912 250.711 183.068C250.711 183.224 250.651 183.358 250.533 183.469C250.417 183.581 250.277 183.636 250.114 183.636ZM254.433 184.545V185.256H251.606V184.545H254.433ZM252.43 183.239H253.268V188.438C253.268 188.674 253.303 188.852 253.371 188.97C253.442 189.086 253.532 189.164 253.641 189.205C253.753 189.242 253.87 189.261 253.993 189.261C254.085 189.261 254.161 189.257 254.22 189.247C254.279 189.235 254.327 189.226 254.362 189.219L254.533 189.972C254.476 189.993 254.396 190.014 254.295 190.036C254.193 190.059 254.064 190.071 253.908 190.071C253.671 190.071 253.439 190.02 253.212 189.918C252.987 189.817 252.8 189.661 252.65 189.453C252.504 189.245 252.43 188.982 252.43 188.665V183.239Z" fill="#666666"/>
<path d="M293.994 192.159C293.589 192.159 293.241 192.107 292.95 192.003C292.659 191.901 292.416 191.766 292.222 191.598C292.03 191.432 291.878 191.255 291.764 191.065L292.432 190.597C292.507 190.696 292.603 190.81 292.719 190.938C292.835 191.068 292.994 191.18 293.195 191.275C293.399 191.372 293.665 191.42 293.994 191.42C294.434 191.42 294.798 191.314 295.084 191.101C295.371 190.888 295.514 190.554 295.514 190.099V188.991H295.443C295.381 189.091 295.294 189.214 295.18 189.361C295.069 189.505 294.908 189.634 294.697 189.748C294.489 189.859 294.207 189.915 293.852 189.915C293.412 189.915 293.016 189.811 292.666 189.602C292.318 189.394 292.042 189.091 291.839 188.693C291.637 188.295 291.537 187.812 291.537 187.244C291.537 186.686 291.635 186.199 291.831 185.785C292.028 185.368 292.301 185.046 292.652 184.819C293.002 184.589 293.407 184.474 293.866 184.474C294.221 184.474 294.503 184.534 294.711 184.652C294.922 184.768 295.083 184.901 295.194 185.05C295.308 185.196 295.396 185.317 295.457 185.412H295.542V184.545H296.352V190.156C296.352 190.625 296.246 191.006 296.032 191.3C295.822 191.596 295.538 191.812 295.18 191.95C294.825 192.089 294.43 192.159 293.994 192.159ZM293.966 189.162C294.302 189.162 294.586 189.085 294.818 188.931C295.05 188.777 295.226 188.556 295.347 188.267C295.468 187.978 295.528 187.633 295.528 187.23C295.528 186.837 295.469 186.49 295.351 186.19C295.232 185.889 295.057 185.653 294.825 185.483C294.593 185.312 294.307 185.227 293.966 185.227C293.611 185.227 293.315 185.317 293.078 185.497C292.844 185.677 292.667 185.919 292.549 186.222C292.433 186.525 292.375 186.861 292.375 187.23C292.375 187.609 292.434 187.944 292.552 188.235C292.673 188.524 292.851 188.751 293.085 188.917C293.322 189.08 293.615 189.162 293.966 189.162ZM297.886 190V184.545H298.724V190H297.886ZM298.312 183.636C298.149 183.636 298.008 183.581 297.89 183.469C297.774 183.358 297.716 183.224 297.716 183.068C297.716 182.912 297.774 182.778 297.89 182.667C298.008 182.556 298.149 182.5 298.312 182.5C298.476 182.5 298.615 182.556 298.731 182.667C298.85 182.778 298.909 182.912 298.909 183.068C298.909 183.224 298.85 183.358 298.731 183.469C298.615 183.581 298.476 183.636 298.312 183.636ZM302.631 184.545V185.256H299.805V184.545H302.631ZM300.629 183.239H301.467V188.438C301.467 188.674 301.501 188.852 301.57 188.97C301.641 189.086 301.731 189.164 301.839 189.205C301.951 189.242 302.068 189.261 302.191 189.261C302.283 189.261 302.359 189.257 302.418 189.247C302.478 189.235 302.525 189.226 302.56 189.219L302.731 189.972C302.674 189.993 302.595 190.014 302.493 190.036C302.391 190.059 302.262 190.071 302.106 190.071C301.869 190.071 301.637 190.02 301.41 189.918C301.185 189.817 300.998 189.661 300.849 189.453C300.702 189.245 300.629 188.982 300.629 188.665V183.239ZM306.705 192.045V184.545H307.514V185.412H307.614C307.675 185.317 307.76 185.196 307.869 185.05C307.981 184.901 308.139 184.768 308.345 184.652C308.554 184.534 308.835 184.474 309.19 184.474C309.65 184.474 310.054 184.589 310.405 184.819C310.755 185.049 311.029 185.374 311.225 185.795C311.422 186.217 311.52 186.714 311.52 187.287C311.52 187.865 311.422 188.365 311.225 188.789C311.029 189.21 310.756 189.537 310.408 189.769C310.06 189.999 309.659 190.114 309.205 190.114C308.854 190.114 308.574 190.056 308.363 189.94C308.152 189.821 307.99 189.687 307.876 189.538C307.763 189.387 307.675 189.261 307.614 189.162H307.543V192.045H306.705ZM307.528 187.273C307.528 187.685 307.589 188.048 307.71 188.363C307.83 188.675 308.007 188.92 308.239 189.098C308.471 189.273 308.755 189.361 309.091 189.361C309.441 189.361 309.734 189.268 309.968 189.084C310.205 188.897 310.382 188.646 310.501 188.331C310.621 188.014 310.682 187.661 310.682 187.273C310.682 186.889 310.623 186.544 310.504 186.236C310.388 185.926 310.212 185.681 309.975 185.501C309.741 185.318 309.446 185.227 309.091 185.227C308.75 185.227 308.464 185.314 308.232 185.487C308 185.657 307.824 185.896 307.706 186.204C307.588 186.509 307.528 186.866 307.528 187.273ZM316.236 187.77V184.545H317.074V190H316.236V189.077H316.179C316.051 189.354 315.852 189.589 315.582 189.783C315.313 189.975 314.972 190.071 314.56 190.071C314.219 190.071 313.916 189.996 313.651 189.847C313.385 189.696 313.177 189.469 313.026 189.165C312.874 188.86 312.798 188.475 312.798 188.011V184.545H313.636V187.955C313.636 188.352 313.748 188.67 313.97 188.906C314.195 189.143 314.482 189.261 314.83 189.261C315.038 189.261 315.25 189.208 315.465 189.102C315.683 188.995 315.865 188.832 316.012 188.612C316.161 188.391 316.236 188.111 316.236 187.77ZM322.472 185.767L321.72 185.98C321.672 185.855 321.602 185.733 321.51 185.614C321.42 185.494 321.297 185.394 321.141 185.316C320.985 185.238 320.785 185.199 320.541 185.199C320.207 185.199 319.929 185.276 319.706 185.43C319.486 185.581 319.376 185.774 319.376 186.009C319.376 186.217 319.452 186.381 319.603 186.502C319.755 186.623 319.991 186.723 320.313 186.804L321.123 187.003C321.611 187.121 321.974 187.302 322.213 187.546C322.452 187.788 322.572 188.099 322.572 188.48C322.572 188.793 322.482 189.072 322.302 189.318C322.124 189.564 321.876 189.759 321.556 189.901C321.237 190.043 320.865 190.114 320.441 190.114C319.885 190.114 319.424 189.993 319.06 189.751C318.695 189.51 318.464 189.157 318.367 188.693L319.163 188.494C319.239 188.788 319.382 189.008 319.593 189.155C319.806 189.302 320.084 189.375 320.427 189.375C320.818 189.375 321.128 189.292 321.357 189.126C321.589 188.958 321.705 188.757 321.705 188.523C321.705 188.333 321.639 188.175 321.507 188.047C321.374 187.917 321.17 187.82 320.896 187.756L319.987 187.543C319.487 187.424 319.12 187.241 318.886 186.992C318.654 186.741 318.538 186.428 318.538 186.051C318.538 185.743 318.624 185.471 318.797 185.234C318.972 184.998 319.21 184.812 319.511 184.677C319.814 184.542 320.157 184.474 320.541 184.474C321.08 184.474 321.504 184.593 321.812 184.83C322.122 185.066 322.342 185.379 322.472 185.767ZM324.672 186.719V190H323.833V182.727H324.672V185.398H324.743C324.87 185.116 325.062 184.892 325.318 184.727C325.576 184.558 325.919 184.474 326.348 184.474C326.719 184.474 327.045 184.549 327.324 184.698C327.604 184.845 327.82 185.071 327.974 185.376C328.13 185.679 328.208 186.065 328.208 186.534V190H327.37V186.591C327.37 186.158 327.258 185.823 327.033 185.586C326.81 185.347 326.502 185.227 326.106 185.227C325.832 185.227 325.585 185.285 325.368 185.401C325.152 185.517 324.982 185.687 324.856 185.909C324.733 186.132 324.672 186.402 324.672 186.719Z" fill="#666666"/>
<path d="M61.9103 230V221.273H64.8592C65.5439 221.273 66.1035 221.396 66.5382 221.643C66.9757 221.888 67.2995 222.219 67.5098 222.636C67.72 223.054 67.8251 223.52 67.8251 224.034C67.8251 224.548 67.72 225.016 67.5098 225.436C67.3024 225.857 66.9814 226.192 66.5467 226.442C66.112 226.689 65.5552 226.812 64.8762 226.812H62.7626V225.875H64.8422C65.3109 225.875 65.6873 225.794 65.9714 225.632C66.2555 225.47 66.4615 225.251 66.5893 224.976C66.72 224.697 66.7853 224.384 66.7853 224.034C66.7853 223.685 66.72 223.372 66.5893 223.097C66.4615 222.821 66.2541 222.605 65.9672 222.449C65.6802 222.29 65.2995 222.21 64.8251 222.21H62.9672V230H61.9103ZM69.3912 230V223.455H70.3627V224.443H70.4309C70.5502 224.119 70.7662 223.857 71.0787 223.655C71.3912 223.453 71.7434 223.352 72.1355 223.352C72.2093 223.352 72.3017 223.354 72.4125 223.357C72.5233 223.359 72.6071 223.364 72.6639 223.369V224.392C72.6298 224.384 72.5517 224.371 72.4295 224.354C72.3102 224.334 72.1838 224.324 72.0502 224.324C71.7321 224.324 71.448 224.391 71.198 224.524C70.9508 224.655 70.7548 224.837 70.6099 225.07C70.4679 225.3 70.3968 225.562 70.3968 225.858V230H69.3912ZM76.3159 230.136C75.725 230.136 75.2065 229.996 74.7605 229.714C74.3173 229.433 73.9707 229.04 73.7207 228.534C73.4735 228.028 73.35 227.437 73.35 226.761C73.35 226.08 73.4735 225.484 73.7207 224.976C73.9707 224.467 74.3173 224.072 74.7605 223.791C75.2065 223.51 75.725 223.369 76.3159 223.369C76.9068 223.369 77.4238 223.51 77.867 223.791C78.313 224.072 78.6596 224.467 78.9068 224.976C79.1568 225.484 79.2818 226.08 79.2818 226.761C79.2818 227.437 79.1568 228.028 78.9068 228.534C78.6596 229.04 78.313 229.433 77.867 229.714C77.4238 229.996 76.9068 230.136 76.3159 230.136ZM76.3159 229.233C76.7647 229.233 77.1341 229.118 77.4238 228.888C77.7136 228.658 77.9281 228.355 78.0673 227.98C78.2065 227.605 78.2761 227.199 78.2761 226.761C78.2761 226.324 78.2065 225.916 78.0673 225.538C77.9281 225.161 77.7136 224.855 77.4238 224.622C77.1341 224.389 76.7647 224.273 76.3159 224.273C75.867 224.273 75.4977 224.389 75.2079 224.622C74.9181 224.855 74.7037 225.161 74.5645 225.538C74.4252 225.916 74.3556 226.324 74.3556 226.761C74.3556 227.199 74.4252 227.605 74.5645 227.98C74.7037 228.355 74.9181 228.658 75.2079 228.888C75.4977 229.118 75.867 229.233 76.3159 229.233ZM83.7317 223.455V224.307H80.2033V223.455H83.7317ZM81.2601 230V222.551C81.2601 222.176 81.3482 221.864 81.5243 221.614C81.7005 221.364 81.9292 221.176 82.2104 221.051C82.4917 220.926 82.7885 220.864 83.101 220.864C83.3482 220.864 83.5499 220.884 83.7061 220.923C83.8624 220.963 83.9789 221 84.0556 221.034L83.7658 221.903C83.7147 221.886 83.6436 221.865 83.5527 221.839C83.4647 221.814 83.3482 221.801 83.2033 221.801C82.8709 221.801 82.6309 221.885 82.4831 222.053C82.3382 222.22 82.2658 222.466 82.2658 222.79V230H81.2601ZM87.6159 230.136C86.9853 230.136 86.4412 229.997 85.9838 229.719C85.5293 229.438 85.1784 229.045 84.9313 228.543C84.687 228.037 84.5648 227.449 84.5648 226.778C84.5648 226.108 84.687 225.517 84.9313 225.006C85.1784 224.491 85.5222 224.091 85.9625 223.804C86.4057 223.514 86.9228 223.369 87.5137 223.369C87.8546 223.369 88.1912 223.426 88.5236 223.54C88.856 223.653 89.1586 223.838 89.4313 224.094C89.704 224.347 89.9213 224.682 90.0833 225.099C90.2452 225.517 90.3262 226.031 90.3262 226.642V227.068H85.2807V226.199H89.3034C89.3034 225.83 89.2296 225.5 89.0819 225.21C88.937 224.92 88.7296 224.692 88.4597 224.524C88.1926 224.357 87.8773 224.273 87.5137 224.273C87.1131 224.273 86.7665 224.372 86.4739 224.571C86.1841 224.767 85.9611 225.023 85.8049 225.338C85.6486 225.653 85.5705 225.991 85.5705 226.352V226.932C85.5705 227.426 85.6557 227.845 85.8262 228.189C85.9995 228.53 86.2395 228.79 86.5463 228.969C86.8532 229.145 87.2097 229.233 87.6159 229.233C87.8801 229.233 88.1188 229.196 88.3319 229.122C88.5478 229.045 88.7338 228.932 88.8901 228.781C89.0463 228.628 89.1671 228.437 89.2523 228.21L90.2239 228.483C90.1216 228.812 89.9498 229.102 89.7083 229.352C89.4668 229.599 89.1685 229.793 88.8134 229.932C88.4583 230.068 88.0591 230.136 87.6159 230.136ZM96.4924 224.92L95.589 225.176C95.5321 225.026 95.4483 224.879 95.3375 224.737C95.2296 224.592 95.0819 224.473 94.8944 224.379C94.7069 224.286 94.4668 224.239 94.1742 224.239C93.7736 224.239 93.4398 224.331 93.1728 224.516C92.9086 224.697 92.7765 224.929 92.7765 225.21C92.7765 225.46 92.8674 225.658 93.0492 225.803C93.231 225.947 93.5151 226.068 93.9015 226.165L94.873 226.403C95.4583 226.545 95.8944 226.763 96.1813 227.055C96.4682 227.345 96.6117 227.719 96.6117 228.176C96.6117 228.551 96.5037 228.886 96.2878 229.182C96.0748 229.477 95.7765 229.71 95.3929 229.881C95.0094 230.051 94.5634 230.136 94.0549 230.136C93.3873 230.136 92.8347 229.991 92.3972 229.702C91.9597 229.412 91.6827 228.989 91.5662 228.432L92.5208 228.193C92.6117 228.545 92.7836 228.81 93.0364 228.986C93.2921 229.162 93.6259 229.25 94.0378 229.25C94.5066 229.25 94.8787 229.151 95.1543 228.952C95.4327 228.75 95.5719 228.509 95.5719 228.227C95.5719 228 95.4924 227.81 95.3333 227.656C95.1742 227.5 94.9299 227.384 94.6003 227.307L93.5094 227.051C92.91 226.909 92.4696 226.689 92.1884 226.391C91.91 226.089 91.7708 225.713 91.7708 225.261C91.7708 224.892 91.8745 224.565 92.0819 224.281C92.2921 223.997 92.5776 223.774 92.9384 223.612C93.302 223.45 93.714 223.369 94.1742 223.369C94.8219 223.369 95.3304 223.511 95.6998 223.795C96.0719 224.08 96.3361 224.455 96.4924 224.92ZM102.762 224.92L101.858 225.176C101.802 225.026 101.718 224.879 101.607 224.737C101.499 224.592 101.351 224.473 101.164 224.379C100.976 224.286 100.736 224.239 100.444 224.239C100.043 224.239 99.7093 224.331 99.4423 224.516C99.1781 224.697 99.046 224.929 99.046 225.21C99.046 225.46 99.1369 225.658 99.3187 225.803C99.5005 225.947 99.7846 226.068 100.171 226.165L101.143 226.403C101.728 226.545 102.164 226.763 102.451 227.055C102.738 227.345 102.881 227.719 102.881 228.176C102.881 228.551 102.773 228.886 102.557 229.182C102.344 229.477 102.046 229.71 101.662 229.881C101.279 230.051 100.833 230.136 100.324 230.136C99.6568 230.136 99.1042 229.991 98.6667 229.702C98.2292 229.412 97.9522 228.989 97.8358 228.432L98.7903 228.193C98.8812 228.545 99.0531 228.81 99.3059 228.986C99.5616 229.162 99.8954 229.25 100.307 229.25C100.776 229.25 101.148 229.151 101.424 228.952C101.702 228.75 101.841 228.509 101.841 228.227C101.841 228 101.762 227.81 101.603 227.656C101.444 227.5 101.199 227.384 100.87 227.307L99.7789 227.051C99.1795 226.909 98.7392 226.689 98.4579 226.391C98.1795 226.089 98.0403 225.713 98.0403 225.261C98.0403 224.892 98.144 224.565 98.3514 224.281C98.5616 223.997 98.8471 223.774 99.2079 223.612C99.5716 223.45 99.9835 223.369 100.444 223.369C101.091 223.369 101.6 223.511 101.969 223.795C102.341 224.08 102.606 224.455 102.762 224.92ZM104.395 230V223.455H105.401V230H104.395ZM104.906 222.364C104.71 222.364 104.541 222.297 104.399 222.163C104.26 222.03 104.191 221.869 104.191 221.682C104.191 221.494 104.26 221.334 104.399 221.2C104.541 221.067 104.71 221 104.906 221C105.102 221 105.27 221.067 105.409 221.2C105.551 221.334 105.622 221.494 105.622 221.682C105.622 221.869 105.551 222.03 105.409 222.163C105.27 222.297 105.102 222.364 104.906 222.364ZM109.902 230.136C109.311 230.136 108.792 229.996 108.346 229.714C107.903 229.433 107.557 229.04 107.307 228.534C107.059 228.028 106.936 227.437 106.936 226.761C106.936 226.08 107.059 225.484 107.307 224.976C107.557 224.467 107.903 224.072 108.346 223.791C108.792 223.51 109.311 223.369 109.902 223.369C110.493 223.369 111.01 223.51 111.453 223.791C111.899 224.072 112.246 224.467 112.493 224.976C112.743 225.484 112.868 226.08 112.868 226.761C112.868 227.437 112.743 228.028 112.493 228.534C112.246 229.04 111.899 229.433 111.453 229.714C111.01 229.996 110.493 230.136 109.902 230.136ZM109.902 229.233C110.351 229.233 110.72 229.118 111.01 228.888C111.3 228.658 111.514 228.355 111.653 227.98C111.792 227.605 111.862 227.199 111.862 226.761C111.862 226.324 111.792 225.916 111.653 225.538C111.514 225.161 111.3 224.855 111.01 224.622C110.72 224.389 110.351 224.273 109.902 224.273C109.453 224.273 109.084 224.389 108.794 224.622C108.504 224.855 108.29 225.161 108.15 225.538C108.011 225.916 107.942 226.324 107.942 226.761C107.942 227.199 108.011 227.605 108.15 227.98C108.29 228.355 108.504 228.658 108.794 228.888C109.084 229.118 109.453 229.233 109.902 229.233ZM115.409 226.062V230H114.403V223.455H115.374V224.477H115.46C115.613 224.145 115.846 223.878 116.159 223.676C116.471 223.472 116.874 223.369 117.369 223.369C117.812 223.369 118.2 223.46 118.532 223.642C118.865 223.821 119.123 224.094 119.308 224.46C119.492 224.824 119.585 225.284 119.585 225.841V230H118.579V225.909C118.579 225.395 118.445 224.994 118.178 224.707C117.911 224.418 117.545 224.273 117.079 224.273C116.758 224.273 116.471 224.342 116.218 224.482C115.968 224.621 115.771 224.824 115.626 225.091C115.481 225.358 115.409 225.682 115.409 226.062ZM123.349 230.153C122.934 230.153 122.557 230.075 122.219 229.919C121.881 229.76 121.613 229.531 121.414 229.233C121.215 228.932 121.116 228.568 121.116 228.142C121.116 227.767 121.189 227.463 121.337 227.23C121.485 226.994 121.682 226.81 121.93 226.676C122.177 226.543 122.449 226.443 122.748 226.378C123.049 226.31 123.351 226.256 123.655 226.216C124.053 226.165 124.376 226.126 124.623 226.101C124.873 226.072 125.055 226.026 125.168 225.96C125.285 225.895 125.343 225.781 125.343 225.619V225.585C125.343 225.165 125.228 224.838 124.998 224.605C124.77 224.372 124.425 224.256 123.962 224.256C123.482 224.256 123.106 224.361 122.833 224.571C122.56 224.781 122.368 225.006 122.258 225.244L121.303 224.903C121.474 224.506 121.701 224.196 121.985 223.974C122.272 223.75 122.584 223.594 122.922 223.506C123.263 223.415 123.599 223.369 123.928 223.369C124.138 223.369 124.38 223.395 124.653 223.446C124.928 223.494 125.194 223.595 125.449 223.749C125.708 223.902 125.922 224.134 126.093 224.443C126.263 224.753 126.349 225.168 126.349 225.688V230H125.343V229.114H125.292C125.224 229.256 125.11 229.408 124.951 229.57C124.792 229.732 124.58 229.869 124.316 229.983C124.052 230.097 123.729 230.153 123.349 230.153ZM123.502 229.25C123.9 229.25 124.235 229.172 124.508 229.016C124.783 228.859 124.991 228.658 125.13 228.411C125.272 228.163 125.343 227.903 125.343 227.631V226.71C125.3 226.761 125.206 226.808 125.062 226.851C124.92 226.891 124.755 226.926 124.567 226.957C124.383 226.986 124.202 227.011 124.026 227.034C123.853 227.054 123.712 227.071 123.604 227.085C123.343 227.119 123.099 227.175 122.871 227.251C122.647 227.325 122.465 227.437 122.326 227.588C122.189 227.736 122.121 227.937 122.121 228.193C122.121 228.543 122.251 228.807 122.509 228.986C122.77 229.162 123.101 229.25 123.502 229.25ZM129.19 221.273V230H128.184V221.273H129.19ZM134.543 230V221.273H139.776V222.21H135.6V225.159H139.384V226.097H135.6V230H134.543ZM141.379 230V223.455H142.351V224.443H142.419C142.539 224.119 142.754 223.857 143.067 223.655C143.379 223.453 143.732 223.352 144.124 223.352C144.198 223.352 144.29 223.354 144.401 223.357C144.512 223.359 144.595 223.364 144.652 223.369V224.392C144.618 224.384 144.54 224.371 144.418 224.354C144.298 224.334 144.172 224.324 144.039 224.324C143.72 224.324 143.436 224.391 143.186 224.524C142.939 224.655 142.743 224.837 142.598 225.07C142.456 225.3 142.385 225.562 142.385 225.858V230H141.379ZM148.304 230.136C147.713 230.136 147.195 229.996 146.749 229.714C146.306 229.433 145.959 229.04 145.709 228.534C145.462 228.028 145.338 227.437 145.338 226.761C145.338 226.08 145.462 225.484 145.709 224.976C145.959 224.467 146.306 224.072 146.749 223.791C147.195 223.51 147.713 223.369 148.304 223.369C148.895 223.369 149.412 223.51 149.855 223.791C150.301 224.072 150.648 224.467 150.895 224.976C151.145 225.484 151.27 226.08 151.27 226.761C151.27 227.437 151.145 228.028 150.895 228.534C150.648 229.04 150.301 229.433 149.855 229.714C149.412 229.996 148.895 230.136 148.304 230.136ZM148.304 229.233C148.753 229.233 149.122 229.118 149.412 228.888C149.702 228.658 149.916 228.355 150.056 227.98C150.195 227.605 150.264 227.199 150.264 226.761C150.264 226.324 150.195 225.916 150.056 225.538C149.916 225.161 149.702 224.855 149.412 224.622C149.122 224.389 148.753 224.273 148.304 224.273C147.855 224.273 147.486 224.389 147.196 224.622C146.906 224.855 146.692 225.161 146.553 225.538C146.414 225.916 146.344 226.324 146.344 226.761C146.344 227.199 146.414 227.605 146.553 227.98C146.692 228.355 146.906 228.658 147.196 228.888C147.486 229.118 147.855 229.233 148.304 229.233ZM153.811 226.062V230H152.805V223.455H153.777V224.477H153.862C154.015 224.145 154.248 223.878 154.561 223.676C154.873 223.472 155.277 223.369 155.771 223.369C156.214 223.369 156.602 223.46 156.934 223.642C157.267 223.821 157.525 224.094 157.71 224.46C157.895 224.824 157.987 225.284 157.987 225.841V230H156.981V225.909C156.981 225.395 156.848 224.994 156.581 224.707C156.314 224.418 155.947 224.273 155.481 224.273C155.16 224.273 154.873 224.342 154.621 224.482C154.371 224.621 154.173 224.824 154.028 225.091C153.883 225.358 153.811 225.682 153.811 226.062ZM162.671 223.455V224.307H159.279V223.455H162.671ZM160.268 221.886H161.274V228.125C161.274 228.409 161.315 228.622 161.397 228.764C161.482 228.903 161.59 228.997 161.721 229.045C161.855 229.091 161.995 229.114 162.143 229.114C162.254 229.114 162.345 229.108 162.416 229.097C162.487 229.082 162.544 229.071 162.586 229.062L162.791 229.966C162.722 229.991 162.627 230.017 162.505 230.043C162.383 230.071 162.228 230.085 162.041 230.085C161.757 230.085 161.478 230.024 161.205 229.902C160.936 229.78 160.711 229.594 160.532 229.344C160.356 229.094 160.268 228.778 160.268 228.398V221.886ZM166.858 230.136C166.227 230.136 165.683 229.997 165.226 229.719C164.771 229.438 164.421 229.045 164.173 228.543C163.929 228.037 163.807 227.449 163.807 226.778C163.807 226.108 163.929 225.517 164.173 225.006C164.421 224.491 164.764 224.091 165.205 223.804C165.648 223.514 166.165 223.369 166.756 223.369C167.097 223.369 167.433 223.426 167.766 223.54C168.098 223.653 168.401 223.838 168.673 224.094C168.946 224.347 169.164 224.682 169.325 225.099C169.487 225.517 169.568 226.031 169.568 226.642V227.068H164.523V226.199H168.546C168.546 225.83 168.472 225.5 168.324 225.21C168.179 224.92 167.972 224.692 167.702 224.524C167.435 224.357 167.119 224.273 166.756 224.273C166.355 224.273 166.009 224.372 165.716 224.571C165.426 224.767 165.203 225.023 165.047 225.338C164.891 225.653 164.813 225.991 164.813 226.352V226.932C164.813 227.426 164.898 227.845 165.068 228.189C165.242 228.53 165.482 228.79 165.789 228.969C166.095 229.145 166.452 229.233 166.858 229.233C167.122 229.233 167.361 229.196 167.574 229.122C167.79 229.045 167.976 228.932 168.132 228.781C168.289 228.628 168.409 228.437 168.494 228.21L169.466 228.483C169.364 228.812 169.192 229.102 168.95 229.352C168.709 229.599 168.411 229.793 168.056 229.932C167.7 230.068 167.301 230.136 166.858 230.136ZM172.104 226.062V230H171.098V223.455H172.07V224.477H172.155C172.308 224.145 172.541 223.878 172.854 223.676C173.166 223.472 173.57 223.369 174.064 223.369C174.507 223.369 174.895 223.46 175.227 223.642C175.56 223.821 175.818 224.094 176.003 224.46C176.188 224.824 176.28 225.284 176.28 225.841V230H175.274V225.909C175.274 225.395 175.141 224.994 174.874 224.707C174.607 224.418 174.24 224.273 173.774 224.273C173.453 224.273 173.166 224.342 172.914 224.482C172.664 224.621 172.466 224.824 172.321 225.091C172.176 225.358 172.104 225.682 172.104 226.062ZM180.589 230.136C180.044 230.136 179.562 229.999 179.145 229.723C178.727 229.445 178.4 229.053 178.165 228.547C177.929 228.038 177.811 227.438 177.811 226.744C177.811 226.057 177.929 225.46 178.165 224.955C178.4 224.449 178.729 224.058 179.149 223.783C179.569 223.507 180.055 223.369 180.606 223.369C181.032 223.369 181.369 223.44 181.616 223.582C181.866 223.722 182.057 223.881 182.187 224.06C182.321 224.236 182.425 224.381 182.498 224.494H182.584V221.273H183.589V230H182.618V228.994H182.498C182.425 229.114 182.319 229.264 182.183 229.446C182.047 229.625 181.852 229.786 181.599 229.928C181.346 230.067 181.01 230.136 180.589 230.136ZM180.726 229.233C181.129 229.233 181.47 229.128 181.748 228.918C182.027 228.705 182.238 228.411 182.383 228.036C182.528 227.658 182.601 227.222 182.601 226.727C182.601 226.239 182.53 225.811 182.388 225.445C182.246 225.075 182.035 224.788 181.757 224.584C181.479 224.376 181.135 224.273 180.726 224.273C180.3 224.273 179.944 224.382 179.66 224.601C179.379 224.817 179.167 225.111 179.025 225.483C178.886 225.852 178.817 226.267 178.817 226.727C178.817 227.193 178.888 227.616 179.03 227.997C179.175 228.375 179.388 228.676 179.669 228.901C179.953 229.122 180.305 229.233 180.726 229.233ZM191.775 230H189.082V221.273H191.895C192.741 221.273 193.466 221.447 194.068 221.797C194.67 222.143 195.132 222.642 195.453 223.293C195.774 223.94 195.934 224.716 195.934 225.619C195.934 226.528 195.773 227.311 195.449 227.967C195.125 228.621 194.653 229.124 194.034 229.476C193.415 229.825 192.662 230 191.775 230ZM190.139 229.062H191.707C192.429 229.062 193.027 228.923 193.501 228.645C193.976 228.366 194.329 227.97 194.562 227.456C194.795 226.942 194.912 226.33 194.912 225.619C194.912 224.915 194.797 224.308 194.567 223.8C194.336 223.288 193.993 222.896 193.535 222.624C193.078 222.348 192.508 222.21 191.827 222.21H190.139V229.062ZM200.315 230.136C199.684 230.136 199.14 229.997 198.683 229.719C198.229 229.438 197.878 229.045 197.631 228.543C197.386 228.037 197.264 227.449 197.264 226.778C197.264 226.108 197.386 225.517 197.631 225.006C197.878 224.491 198.221 224.091 198.662 223.804C199.105 223.514 199.622 223.369 200.213 223.369C200.554 223.369 200.89 223.426 201.223 223.54C201.555 223.653 201.858 223.838 202.131 224.094C202.403 224.347 202.621 224.682 202.782 225.099C202.944 225.517 203.025 226.031 203.025 226.642V227.068H197.98V226.199H202.003C202.003 225.83 201.929 225.5 201.781 225.21C201.636 224.92 201.429 224.692 201.159 224.524C200.892 224.357 200.577 224.273 200.213 224.273C199.812 224.273 199.466 224.372 199.173 224.571C198.883 224.767 198.66 225.023 198.504 225.338C198.348 225.653 198.27 225.991 198.27 226.352V226.932C198.27 227.426 198.355 227.845 198.525 228.189C198.699 228.53 198.939 228.79 199.246 228.969C199.552 229.145 199.909 229.233 200.315 229.233C200.579 229.233 200.818 229.196 201.031 229.122C201.247 229.045 201.433 228.932 201.589 228.781C201.746 228.628 201.866 228.437 201.952 228.21L202.923 228.483C202.821 228.812 202.649 229.102 202.407 229.352C202.166 229.599 201.868 229.793 201.513 229.932C201.157 230.068 200.758 230.136 200.315 230.136ZM209.708 223.455L207.288 230H206.265L203.845 223.455H204.936L206.742 228.67H206.811L208.617 223.455H209.708ZM213.546 230.136C212.915 230.136 212.371 229.997 211.914 229.719C211.459 229.438 211.108 229.045 210.861 228.543C210.617 228.037 210.494 227.449 210.494 226.778C210.494 226.108 210.617 225.517 210.861 225.006C211.108 224.491 211.452 224.091 211.892 223.804C212.335 223.514 212.852 223.369 213.443 223.369C213.784 223.369 214.121 223.426 214.453 223.54C214.786 223.653 215.088 223.838 215.361 224.094C215.634 224.347 215.851 224.682 216.013 225.099C216.175 225.517 216.256 226.031 216.256 226.642V227.068H211.21V226.199H215.233C215.233 225.83 215.159 225.5 215.012 225.21C214.867 224.92 214.659 224.692 214.389 224.524C214.122 224.357 213.807 224.273 213.443 224.273C213.043 224.273 212.696 224.372 212.404 224.571C212.114 224.767 211.891 225.023 211.735 225.338C211.578 225.653 211.5 225.991 211.5 226.352V226.932C211.5 227.426 211.585 227.845 211.756 228.189C211.929 228.53 212.169 228.79 212.476 228.969C212.783 229.145 213.139 229.233 213.546 229.233C213.81 229.233 214.048 229.196 214.262 229.122C214.477 229.045 214.664 228.932 214.82 228.781C214.976 228.628 215.097 228.437 215.182 228.21L216.154 228.483C216.051 228.812 215.879 229.102 215.638 229.352C215.396 229.599 215.098 229.793 214.743 229.932C214.388 230.068 213.989 230.136 213.546 230.136ZM218.791 221.273V230H217.786V221.273H218.791ZM223.292 230.136C222.702 230.136 222.183 229.996 221.737 229.714C221.294 229.433 220.947 229.04 220.697 228.534C220.45 228.028 220.327 227.437 220.327 226.761C220.327 226.08 220.45 225.484 220.697 224.976C220.947 224.467 221.294 224.072 221.737 223.791C222.183 223.51 222.702 223.369 223.292 223.369C223.883 223.369 224.4 223.51 224.844 223.791C225.29 224.072 225.636 224.467 225.883 224.976C226.133 225.484 226.258 226.08 226.258 226.761C226.258 227.437 226.133 228.028 225.883 228.534C225.636 229.04 225.29 229.433 224.844 229.714C224.4 229.996 223.883 230.136 223.292 230.136ZM223.292 229.233C223.741 229.233 224.111 229.118 224.4 228.888C224.69 228.658 224.905 228.355 225.044 227.98C225.183 227.605 225.253 227.199 225.253 226.761C225.253 226.324 225.183 225.916 225.044 225.538C224.905 225.161 224.69 224.855 224.4 224.622C224.111 224.389 223.741 224.273 223.292 224.273C222.844 224.273 222.474 224.389 222.184 224.622C221.895 224.855 221.68 225.161 221.541 225.538C221.402 225.916 221.332 226.324 221.332 226.761C221.332 227.199 221.402 227.605 221.541 227.98C221.68 228.355 221.895 228.658 222.184 228.888C222.474 229.118 222.844 229.233 223.292 229.233ZM227.794 232.455V223.455H228.765V224.494H228.884C228.958 224.381 229.061 224.236 229.191 224.06C229.325 223.881 229.515 223.722 229.762 223.582C230.012 223.44 230.35 223.369 230.776 223.369C231.328 223.369 231.813 223.507 232.234 223.783C232.654 224.058 232.982 224.449 233.218 224.955C233.454 225.46 233.572 226.057 233.572 226.744C233.572 227.438 233.454 228.038 233.218 228.547C232.982 229.053 232.656 229.445 232.238 229.723C231.82 229.999 231.339 230.136 230.794 230.136C230.373 230.136 230.036 230.067 229.784 229.928C229.531 229.786 229.336 229.625 229.2 229.446C229.063 229.264 228.958 229.114 228.884 228.994H228.799V232.455H227.794ZM228.782 226.727C228.782 227.222 228.855 227.658 228.999 228.036C229.144 228.411 229.356 228.705 229.634 228.918C229.913 229.128 230.254 229.233 230.657 229.233C231.078 229.233 231.428 229.122 231.71 228.901C231.994 228.676 232.207 228.375 232.349 227.997C232.494 227.616 232.566 227.193 232.566 226.727C232.566 226.267 232.495 225.852 232.353 225.483C232.214 225.111 232.002 224.817 231.718 224.601C231.437 224.382 231.083 224.273 230.657 224.273C230.248 224.273 229.904 224.376 229.626 224.584C229.347 224.788 229.137 225.075 228.995 225.445C228.853 225.811 228.782 226.239 228.782 226.727ZM235.106 230V223.455H236.078V224.477H236.163C236.299 224.128 236.519 223.857 236.823 223.663C237.127 223.467 237.492 223.369 237.919 223.369C238.35 223.369 238.71 223.467 238.997 223.663C239.286 223.857 239.512 224.128 239.674 224.477H239.742C239.91 224.139 240.161 223.871 240.497 223.672C240.832 223.47 241.234 223.369 241.703 223.369C242.288 223.369 242.767 223.553 243.139 223.919C243.511 224.283 243.697 224.849 243.697 225.619V230H242.691V225.619C242.691 225.136 242.559 224.791 242.295 224.584C242.031 224.376 241.72 224.273 241.362 224.273C240.901 224.273 240.545 224.412 240.292 224.69C240.039 224.966 239.913 225.315 239.913 225.739V230H238.89V225.517C238.89 225.145 238.769 224.845 238.528 224.618C238.286 224.388 237.975 224.273 237.595 224.273C237.333 224.273 237.089 224.342 236.862 224.482C236.637 224.621 236.455 224.814 236.316 225.061C236.18 225.305 236.112 225.588 236.112 225.909V230H235.106ZM248.28 230.136C247.649 230.136 247.105 229.997 246.648 229.719C246.193 229.438 245.843 229.045 245.595 228.543C245.351 228.037 245.229 227.449 245.229 226.778C245.229 226.108 245.351 225.517 245.595 225.006C245.843 224.491 246.186 224.091 246.627 223.804C247.07 223.514 247.587 223.369 248.178 223.369C248.519 223.369 248.855 223.426 249.188 223.54C249.52 223.653 249.823 223.838 250.095 224.094C250.368 224.347 250.585 224.682 250.747 225.099C250.909 225.517 250.99 226.031 250.99 226.642V227.068H245.945V226.199H249.968C249.968 225.83 249.894 225.5 249.746 225.21C249.601 224.92 249.394 224.692 249.124 224.524C248.857 224.357 248.541 224.273 248.178 224.273C247.777 224.273 247.431 224.372 247.138 224.571C246.848 224.767 246.625 225.023 246.469 225.338C246.313 225.653 246.235 225.991 246.235 226.352V226.932C246.235 227.426 246.32 227.845 246.49 228.189C246.664 228.53 246.904 228.79 247.21 228.969C247.517 229.145 247.874 229.233 248.28 229.233C248.544 229.233 248.783 229.196 248.996 229.122C249.212 229.045 249.398 228.932 249.554 228.781C249.71 228.628 249.831 228.437 249.916 228.21L250.888 228.483C250.786 228.812 250.614 229.102 250.372 229.352C250.131 229.599 249.833 229.793 249.477 229.932C249.122 230.068 248.723 230.136 248.28 230.136ZM253.526 226.062V230H252.52V223.455H253.492V224.477H253.577C253.73 224.145 253.963 223.878 254.276 223.676C254.588 223.472 254.992 223.369 255.486 223.369C255.929 223.369 256.317 223.46 256.649 223.642C256.982 223.821 257.24 224.094 257.425 224.46C257.61 224.824 257.702 225.284 257.702 225.841V230H256.696V225.909C256.696 225.395 256.563 224.994 256.296 224.707C256.029 224.418 255.662 224.273 255.196 224.273C254.875 224.273 254.588 224.342 254.335 224.482C254.085 224.621 253.888 224.824 253.743 225.091C253.598 225.358 253.526 225.682 253.526 226.062ZM262.386 223.455V224.307H258.994V223.455H262.386ZM259.983 221.886H260.988V228.125C260.988 228.409 261.03 228.622 261.112 228.764C261.197 228.903 261.305 228.997 261.436 229.045C261.569 229.091 261.71 229.114 261.858 229.114C261.969 229.114 262.059 229.108 262.131 229.097C262.202 229.082 262.258 229.071 262.301 229.062L262.506 229.966C262.437 229.991 262.342 230.017 262.22 230.043C262.098 230.071 261.943 230.085 261.756 230.085C261.471 230.085 261.193 230.024 260.92 229.902C260.65 229.78 260.426 229.594 260.247 229.344C260.071 229.094 259.983 228.778 259.983 228.398V221.886ZM268.996 230L266.609 221.273H267.683L269.507 228.381H269.592L271.45 221.273H272.643L274.501 228.381H274.586L276.41 221.273H277.484L275.098 230H274.007L272.081 223.045H272.013L270.086 230H268.996ZM280.714 230.136C280.123 230.136 279.605 229.996 279.159 229.714C278.716 229.433 278.369 229.04 278.119 228.534C277.872 228.028 277.748 227.437 277.748 226.761C277.748 226.08 277.872 225.484 278.119 224.976C278.369 224.467 278.716 224.072 279.159 223.791C279.605 223.51 280.123 223.369 280.714 223.369C281.305 223.369 281.822 223.51 282.265 223.791C282.711 224.072 283.058 224.467 283.305 224.976C283.555 225.484 283.68 226.08 283.68 226.761C283.68 227.437 283.555 228.028 283.305 228.534C283.058 229.04 282.711 229.433 282.265 229.714C281.822 229.996 281.305 230.136 280.714 230.136ZM280.714 229.233C281.163 229.233 281.532 229.118 281.822 228.888C282.112 228.658 282.327 228.355 282.466 227.98C282.605 227.605 282.675 227.199 282.675 226.761C282.675 226.324 282.605 225.916 282.466 225.538C282.327 225.161 282.112 224.855 281.822 224.622C281.532 224.389 281.163 224.273 280.714 224.273C280.265 224.273 279.896 224.389 279.606 224.622C279.317 224.855 279.102 225.161 278.963 225.538C278.824 225.916 278.754 226.324 278.754 226.761C278.754 227.199 278.824 227.605 278.963 227.98C279.102 228.355 279.317 228.658 279.606 228.888C279.896 229.118 280.265 229.233 280.714 229.233ZM285.215 230V223.455H286.187V224.443H286.255C286.374 224.119 286.59 223.857 286.903 223.655C287.215 223.453 287.568 223.352 287.96 223.352C288.034 223.352 288.126 223.354 288.237 223.357C288.347 223.359 288.431 223.364 288.488 223.369V224.392C288.454 224.384 288.376 224.371 288.254 224.354C288.134 224.334 288.008 224.324 287.874 224.324C287.556 224.324 287.272 224.391 287.022 224.524C286.775 224.655 286.579 224.837 286.434 225.07C286.292 225.3 286.221 225.562 286.221 225.858V230H285.215ZM290.618 227.614L290.601 226.369H290.805L293.669 223.455H294.913L291.862 226.54H291.777L290.618 227.614ZM289.68 230V221.273H290.686V230H289.68ZM293.839 230L291.282 226.761L291.998 226.062L295.118 230H293.839ZM299.122 223.455V224.307H295.594V223.455H299.122ZM296.651 230V222.551C296.651 222.176 296.739 221.864 296.915 221.614C297.091 221.364 297.32 221.176 297.601 221.051C297.882 220.926 298.179 220.864 298.492 220.864C298.739 220.864 298.941 220.884 299.097 220.923C299.253 220.963 299.369 221 299.446 221.034L299.156 221.903C299.105 221.886 299.034 221.865 298.943 221.839C298.855 221.814 298.739 221.801 298.594 221.801C298.262 221.801 298.021 221.885 297.874 222.053C297.729 222.22 297.656 222.466 297.656 222.79V230H296.651ZM301.537 221.273V230H300.532V221.273H301.537ZM306.039 230.136C305.448 230.136 304.929 229.996 304.483 229.714C304.04 229.433 303.693 229.04 303.443 228.534C303.196 228.028 303.073 227.437 303.073 226.761C303.073 226.08 303.196 225.484 303.443 224.976C303.693 224.467 304.04 224.072 304.483 223.791C304.929 223.51 305.448 223.369 306.039 223.369C306.629 223.369 307.146 223.51 307.59 223.791C308.036 224.072 308.382 224.467 308.629 224.976C308.879 225.484 309.004 226.08 309.004 226.761C309.004 227.437 308.879 228.028 308.629 228.534C308.382 229.04 308.036 229.433 307.59 229.714C307.146 229.996 306.629 230.136 306.039 230.136ZM306.039 229.233C306.487 229.233 306.857 229.118 307.146 228.888C307.436 228.658 307.651 228.355 307.79 227.98C307.929 227.605 307.999 227.199 307.999 226.761C307.999 226.324 307.929 225.916 307.79 225.538C307.651 225.161 307.436 224.855 307.146 224.622C306.857 224.389 306.487 224.273 306.039 224.273C305.59 224.273 305.22 224.389 304.931 224.622C304.641 224.855 304.426 225.161 304.287 225.538C304.148 225.916 304.078 226.324 304.078 226.761C304.078 227.199 304.148 227.605 304.287 227.98C304.426 228.355 304.641 228.658 304.931 228.888C305.22 229.118 305.59 229.233 306.039 229.233ZM311.8 230L309.806 223.455H310.862L312.277 228.466H312.345L313.743 223.455H314.817L316.198 228.449H316.266L317.681 223.455H318.737L316.743 230H315.754L314.323 224.972H314.22L312.789 230H311.8Z" fill="#666666"/>
<defs>
<linearGradient id="paint0_linear_28_90" x1="35" y1="105" x2="7035" y2="105" gradientUnits="userSpaceOnUse">
<stop stop-color="#667EEA"/>
<stop offset="1" stop-color="#764BA2"/>
</linearGradient>
<linearGradient id="paint1_linear_28_90" x1="115" y1="105" x2="7115" y2="105" gradientUnits="userSpaceOnUse">
<stop stop-color="#667EEA"/>
<stop offset="1" stop-color="#764BA2"/>
</linearGradient>
<linearGradient id="paint2_linear_28_90" x1="195" y1="105" x2="7195" y2="105" gradientUnits="userSpaceOnUse">
<stop stop-color="#667EEA"/>
<stop offset="1" stop-color="#764BA2"/>
</linearGradient>
<linearGradient id="paint3_linear_28_90" x1="275" y1="105" x2="7275" y2="105" gradientUnits="userSpaceOnUse">
<stop stop-color="#667EEA"/>
<stop offset="1" stop-color="#764BA2"/>
</linearGradient>
</defs>
</svg>
